<?xml version="1.0" encoding="utf-8"?>
<!-- Generator: Adobe Illustrator 20.0.0, SVG Export Plug-In . SVG Version: 6.00 Build 0)  -->
<svg version="1.1" id="Layer_1" xmlns="http://www.w3.org/2000/svg" xmlns:xlink="http://www.w3.org/1999/xlink" x="0px" y="0px"
	 viewBox="0 0 275.9 328.7" style="enable-background:new 0 0 275.9 328.7;" xml:space="preserve">
<style type="text/css">
	.st0{clip-path:url(#SVGID_2_);fill:#191A1A;}
	.st1{clip-path:url(#SVGID_4_);}
	.st2{fill:#FFFFFF;}
</style>
<g>
	<defs>
		<rect id="SVGID_1_" width="275.9" height="328.7"/>
	</defs>
	<clipPath id="SVGID_2_">
		<use xlink:href="#SVGID_1_"  style="overflow:visible;"/>
	</clipPath>
	<path class="st0" d="M35.8,0c79.9,0.1,159.9,0.2,239.8,0.3c0.1,109.4,0.2,218.9,0.3,328.3h-97.2c-5.3-1.4-24.3-7.7-27.9-10.6
		c-3.8,0-10.3-2.7-12.6-4.6c-3.6,0-11.1-2.9-13.6-5c-3.5,0.1-20.1-6.3-22.6-8.3c-3.8,0-16.9-5-19.9-7.3c-3.8-0.1-19-5.5-22.6-8.3
		c-2.2,0-6.4-1.2-8.3-2.3c-8.2-4.7-19.6-4.8-26.9-10.6c-2.2,0-7.1-1.3-9.3-2.6c-3.6-2.2-11-5.6-15.3-5.6v-7.9c2.7-0.1,3.5-4.7,5-7
		c1.6,0.4,9.4,0.5,8.3-1.3c1.1-0.8-0.6-1.1,0.3-2.6c3.4-5.7,1-5.2,0.3-11.6c-0.5-0.1-8.5-1-8-2.3c-0.7-0.3-1-1.1-1.3-3
		c0.2-0.1,3.3-7.7,0.7-9.3c-0.5-1-2.1-1.2-1.3-2.6c0.4-0.6,0.9-1.1,1.3-1.7c-0.4-1.1-0.9-2.2-1.3-3.3c8.9-1.4,5.9-10.6,10.6-17.2
		c-1-2.6-2.4-7.5-1.3-11.9c1.1-2.2,2.2-4.4,3.3-6.6c-1.1-1.3,4.8-7.8,7-6c1-0.8,7.6-7.7,8-7.6v-3.6c-1.9,0.2-11.5-8.9-12.3-11.3
		c-0.1-0.9-0.2-1.8-0.3-2.6c-0.4-0.3-0.9-0.7-1.3-1c-0.8-1.1-2.4-7.9-2.3-7.9c-3.6-4.4-4.4-5.3-7.3-9.3c-2-2.8,1.6-11.1,0-13.6
		c0.6-0.4,1.5-0.7,2.3-1c0-13.1-1.7-15-4.3-19.9c-1.6-3.1,1.4-6.8,1-8.6c-0.8-1.8-1.5-3.5-2.3-5.3c-1.1-3.4,0.7-10.3,2-10.6
		c-0.8-1-6.9-7.6-3.6-11.6c2.9-4.5,12.8-3.8,16.3-4c0.4,0.2,7.4,7.2,7.6,7.6c3.4,2,6-4.6,7-6c0-0.5,2.6-4.1,2.7-4
		C36.3,32.7,36,16.3,35.8,0"/>
</g>
<g>
	<defs>
		<rect id="SVGID_3_" width="275.9" height="328.7"/>
	</defs>
	<clipPath id="SVGID_4_">
		<use xlink:href="#SVGID_3_"  style="overflow:visible;"/>
	</clipPath>
	<g class="st1">
		<g>
			<path class="st2" d="M144.2,219.9c0-3.2,2.4-4.8,4.8-4.8s4.8,1.6,4.8,4.8v1h-2.8v-1c0-1.4-0.9-2-1.9-2c-1,0-1.9,0.6-1.9,2v10.5
				c0,1.4,0.9,2,1.9,2c1,0,1.9-0.6,1.9-2v-3.7h-2.3v-2.5h5.1v6.2c0,3.2-2.4,4.8-4.8,4.8s-4.8-1.6-4.8-4.8L144.2,219.9"/>
			<path class="st2" d="M161.8,235h-2.5l-4-19.8h3l2.3,13.8h0.1l2.3-13.8h3L161.8,235"/>
		</g>
	</g>
</g>
</svg>
