<svg xmlns="http://www.w3.org/2000/svg" viewBox="0 0 800 1102.251" enable-background="new 0 0 800 1102.251"><path fill="#d5edf0" d="m0 .251h800v1102h-800z"/><path fill="#f5f0eb" stroke="#231f20" stroke-linejoin="round" stroke-miterlimit="10" d="m411.86 349.47l-143.91-48.33 117.02-53.17 143.9 48.33z"/><g fill="#231f20"><path d="m233.37 398.4h9.727v3.072h-6.463v6.912h5.631v3.071h-5.631v9.728h-3.264v-22.783"/><path d="m245.38 403.77c0-3.712 2.816-5.567 5.472-5.567s5.472 1.855 5.472 5.567v12.03c0 3.711-2.816 5.567-5.472 5.567s-5.472-1.856-5.472-5.567v-12.03m3.264 12.03c0 1.568 1.023 2.304 2.208 2.304s2.208-.736 2.208-2.304v-12.03c0-1.568-1.024-2.304-2.208-2.304s-2.208.736-2.208 2.304v12.03"/><path d="m259.26 398.4h3.264v19.519h6.463v3.264h-9.728v-22.783"/><path d="m271.56 398.4h3.264v22.782h-3.264v-22.782"/><path d="m277.8 403.77c0-3.712 2.816-5.567 5.472-5.567s5.472 1.855 5.472 5.567v12.03c0 3.711-2.816 5.567-5.472 5.567s-5.472-1.856-5.472-5.567v-12.03m3.264 12.03c0 1.568 1.024 2.304 2.208 2.304 1.184 0 2.208-.736 2.208-2.304v-12.03c0-1.568-1.024-2.304-2.208-2.304-1.184 0-2.208.736-2.208 2.304v12.03"/><path d="m521.37 398.4h3.264v19.519h6.463v3.264h-9.727v-22.783"/><path d="m533.62 398.4h9.728v3.072h-6.464v6.688h5.632v3.072h-5.632v6.688h6.464v3.264h-9.728v-22.784"/><path d="m550.25 398.4h2.72l5.088 22.782h-3.264l-.96-4.896h-4.447l-.96 4.896h-3.264l5.087-22.782m1.376 6.56h-.063l-1.601 8.255h3.264l-1.6-8.255"/><path d="m560.33 398.4h9.728v3.072h-6.464v6.912h5.632v3.071h-5.632v9.728h-3.264v-22.783"/></g><g stroke="#231f20" stroke-linejoin="round"><g stroke-miterlimit="10"><g fill="none"><path d="m277.57 381.7l44.06-44.06"/><path d="m481.01 337.65l44.06 44.06"/></g><g fill="#f5f0eb"><path d="m209.5 874.13l-71.95-24.17-29.22-66.33 117.01-53.16 29.23 66.33 71.95 24.16z"/><path d="m137.55 849.96l117.02-53.16"/></g></g><path fill="none" d="m296.07 782.44c-1.764-18.02-16.955-32.09-35.434-32.09"/></g><path fill="#231f20" d="m298.43 781.58l-2.18 4.37-2.7-4.07z"/><g fill="#f5f0eb" stroke="#231f20" stroke-linejoin="round" stroke-miterlimit="10"><path d="m554.37 765.78l-117.01 53.16 71.94 24.16 117.02-53.16z"/><path d="m707.51 817.24l-71.96-24.17-117.01 53.17 71.96 24.17z"/></g><path fill="#fff" d="m653.48 871.19l39.458-17.93"/><path fill="none" stroke="#231f20" stroke-linejoin="round" d="m653.48 871.19l36.26-16.475"/><path fill="#231f20" d="m690.1 857.24l2.84-3.98-4.86-.47z"/><g stroke="#231f20" stroke-miterlimit="10"><path fill="#ffcd5f" stroke-linejoin="round" d="m696.26 738.85c.48 1.225-12.18 9.04-14.442 11.05-2.26 2.01-21.978 19.09-22.35 20.21-.379 1.132.437 1.568-.313 1.823-.757.251-2.766-.942-2.766-.942l-5.904 5.899h-.848l-6.344 6.352-2.266-7.963 3.724-3.725-.208-.796 4.521-4.52c0 0-.878-.627-.045-1.55.839-.919 26.678-27.887 26.678-27.887s4.081-4.02 8.225-3.326c4.142.688 11.234 2.574 12.338 5.371z"/><path fill="#f5f0eb" d="m685.19 741.44l-5.16-5.16-39 39 2.31 8.01z"/><g stroke-linejoin="round"><path fill="#ffcd5f" d="m649.07 766.24c0 0-.878-.627-.045-1.55.839-.919 26.678-27.887 26.678-27.887s4.081-4.02 8.225-3.326c4.144.688 11.235 2.573 12.339 5.37.48 1.225-12.18 9.04-14.442 11.05-2.26 2.01-21.978 19.09-22.35 20.21-.379 1.132.437 1.568-.313 1.823-.757.251-2.766-.942-2.766-.942l-7.326-4.752z"/><path fill="#f5f0eb" d="m675.12 748.85l-2.5-2.5-21.28 21.29 2.79 2.2z"/><g fill="#fff"><path stroke-width=".769" d="m688.79 740.1c-.382.383-.38 1 .002 1.383.379.383.999.383 1.38 0l1.572-1.572c.382-.379.381-1 0-1.379-.383-.383-1-.383-1.383 0l-1.571 1.568z"/><path stroke-width=".25" d="m647.3 771.55l1.114 4.254"/><g stroke-width=".769"><path d="m682.07 742.18l-4.21-1.07-3.13 3.14 2.63 2.63z"/><path d="m651.27 767.58l18.376-18.378"/><path d="m654.38 769.83l18.13-18.12"/></g><g stroke-width=".25"><path d="m662.2 756.65l1.115 4.25"/><path d="m659.22 759.62l1.112 4.254"/><path d="m656.24 762.61l1.119 4.253"/><path d="m653.26 765.59l1.114 4.25"/><path d="m650.28 768.57l1.119 4.25"/><path d="m643.79 772.52l2.143 8.172"/></g></g><g stroke-width=".769"><circle fill="#231f20" cx="673.72" cy="747.45" r="4.439"/><path fill="#fff" d="m672.68 746.41c-.574.572-.572 1.5-.002 2.075.571.571 1.505.567 2.076 0 .572-.575.57-1.503-.002-2.075-.569-.575-1.503-.571-2.072 0z"/><g fill="#dbdcdd"><path d="m650.49 776.9h-2.76c0 0-1.586-.329.626-2.542 0 0 .976-1.159 1.574-1.414.595-.252 1.835-.483 2.02-.673.189-.189 2.434-2.434 2.434-2.434l2.01 1.163-5.905 5.9z"/><path d="m644.54 770.76c0 0 .384 2.431 1.124 2.194.738-.235 1.851-1.507 2.469-2.121.61-.61 3.138-3.233 3.136-3.261.002-.03-2.208-1.332-2.208-1.332l-4.521 4.52z"/></g></g></g></g><g fill="#353435"><path d="m58.784 496.17h15.857l21.2 61h.324l21.03-61h16.02v115.21h-16.504v-70.06h-.323l-16.342 49.51h-8.252l-16.18-49.51h-.324v70.06h-16.505v-115.2"/><path d="m168.79 496.17h13.753l25.727 115.2h-16.503l-4.854-24.756h-22.491l-4.854 24.756h-16.504l25.726-115.2m6.958 33.17h-.323l-8.09 41.746h16.504l-8.091-41.746"/><path d="m218.04 496.17h16.504v52.586h.324l24.11-52.586h16.504l-22.491 46.11 26.698 69.09h-17.475l-18.769-51.13-8.899 16.666v34.464h-16.504v-115.2"/><path d="m289.19 496.17h49.19v15.533h-32.685v33.817h28.478v15.533h-28.478v33.817h32.685v16.504h-49.19v-115.2"/><path d="m400.67 496.17h13.754l25.727 115.2h-16.504l-4.854-24.756h-22.491l-4.854 24.756h-16.504l25.726-115.2m6.958 33.17h-.324l-8.09 41.746h16.504l-8.09-41.746"/><path d="m481.57 496.17h24.11c21.358 0 29.29 14.08 29.29 29.12v4.207c0 12.297-4.045 16.828-11.326 21.358 7.767 3.721 11.326 10.679 11.326 22.652v6.472c0 20.06-9.547 31.39-30.904 31.39h-22.491v-115.2m16.504 47.25h7.443c11 0 13.915-5.664 13.915-16.181 0-10.194-3.722-15.533-14.563-15.533h-6.796v31.714m.0001 51.45h7.119c13.269 0 14.239-8.09 14.239-19.417 0-11.488-2.104-17.475-14.08-17.475h-7.281v36.892"/><path d="m547.65 523.35c0-18.769 14.238-28.15 27.668-28.15 13.431 0 27.669 9.385 27.669 28.15v60.838c0 18.77-14.238 28.15-27.669 28.15-13.43 0-27.668-9.384-27.668-28.15v-60.838m16.503 60.839c0 7.928 5.178 11.65 11.164 11.65 5.987 0 11.165-3.722 11.165-11.65v-60.838c0-7.928-5.178-11.65-11.165-11.65-5.986 0-11.164 3.722-11.164 11.65v60.838"/><path d="m615.23 523.35c0-18.769 14.238-28.15 27.668-28.15 13.431 0 27.669 9.385 27.669 28.15v60.838c0 18.77-14.238 28.15-27.669 28.15-13.43 0-27.668-9.384-27.668-28.15v-60.838m16.504 60.839c0 7.928 5.178 11.65 11.164 11.65 5.987 0 11.165-3.722 11.165-11.65v-60.838c0-7.928-5.178-11.65-11.165-11.65-5.986 0-11.164 3.722-11.164 11.65v60.838"/><path d="m683.49 496.17h16.504v52.586h.323l24.11-52.586h16.504l-22.49 46.11 26.697 69.09h-17.475l-18.77-51.13-8.899 16.666v34.464h-16.504v-115.2"/></g><path fill="none" stroke="#302d2f" stroke-width="10.55" stroke-miterlimit="10" d="m747.7 640.68h-688.33"/></svg>