<?xml version="1.0" encoding="utf-8"?>
<!-- Generator: Adobe Illustrator 18.1.1, SVG Export Plug-In . SVG Version: 6.00 Build 0)  -->
<svg version="1.1" id="Layer_1" xmlns="http://www.w3.org/2000/svg" xmlns:xlink="http://www.w3.org/1999/xlink" x="0px" y="0px"
	 viewBox="-2.7 864 1728 1728" enable-background="new -2.7 864 1728 1728" xml:space="preserve">
<path fill="#FFFFFF" d="M-2.7,864h1728v1728H-2.7V864z"/>
<g>
	<g>
		<path fill="#B1D5BC" stroke="#231F20" stroke-width="15" stroke-linejoin="round" stroke-miterlimit="10" d="M737.1,2281.6
			c-19.5-8.5,35.8-242.1,38.7-290.9c2.8-48.7,32.9-468.5,24.3-485.7c-8.5-17.2-22.9-12.9-17.2-24.4c5.8-11.5,42.3-20.8,42.3-20.8
			v-134.7l9.7-9.6v-144.8l116.7,64.9v85l11.5,6.7v103.1c0,0,17.1-2.9,18.2,17.2c0.9,20.1,13.8,622.6,13.8,622.6
			s-0.7,92.4-55.9,131.8C884,2241.5,781.5,2300.9,737.1,2281.6L737.1,2281.6z"/>
		<path fill="#F5F0EB" stroke="#231F20" stroke-width="5" stroke-linejoin="round" stroke-miterlimit="10" d="M833.9,2125.7h117.7
			v-890.1l-117.7-64.9V2125.7z"/>
		<path fill="#FFCD5F" stroke="#231F20" stroke-width="15" stroke-linejoin="round" stroke-miterlimit="10" d="M963.1,1430.5
			c0,0,17.1-2.9,18.2,17.2c0.9,20.1,13.8,622.6,13.8,622.6s-0.7,92.4-55.9,131.8c-55.2,39.4-157.6,98.8-202,79.5
			c-19.5-8.5,35.8-242.1,38.7-290.9c2.8-48.7,32.9-468.5,24.3-485.7c-8.5-17.2-22.9-12.9-17.2-24.4c5.8-11.5,42.3-20.8,42.3-20.8
			L963.1,1430.5L963.1,1430.5z"/>
		<path fill="#F5F0EB" d="M864.3,1431.9v494.4h57V1425L864.3,1431.9z"/>
	</g>
	<g>
		<path fill="#FFFFFF" stroke="#231F20" stroke-width="15" stroke-linejoin="round" stroke-miterlimit="10" d="M808.1,2182
			c0-8.7-7-15.8-15.8-15.8c-8.6-0.1-15.8,7.1-15.8,15.7v35.9c0,8.7,7.1,15.8,15.8,15.8c8.8,0,15.8-7.1,15.8-15.8V2182L808.1,2182z"
			/>
		<path fill="#FFFFFF" stroke="#231F20" stroke-width="5" stroke-linejoin="round" stroke-miterlimit="10" d="M922.8,1349.8
			l-61.2-35.8"/>
		<g>
			<path fill="#FFFFFF" stroke="#231F20" stroke-width="15" stroke-linejoin="round" stroke-miterlimit="10" d="M861.1,2081.7
				l60.2-35.9v-71.6h-60L861.1,2081.7z"/>
			<path fill="#FFFFFF" stroke="#231F20" stroke-width="15" stroke-linejoin="round" stroke-miterlimit="10" d="M922.7,1440.5
				l0.1,419.4"/>
			<path fill="#FFFFFF" stroke="#231F20" stroke-width="15" stroke-linejoin="round" stroke-miterlimit="10" d="M861.4,1450.2v413.6
				"/>
		</g>
		<g>
			<path fill="#FFFFFF" stroke="#231F20" stroke-width="5" stroke-linejoin="round" stroke-miterlimit="10" d="M922.8,1689.8
				l-61.3-35.8"/>
			<path fill="#FFFFFF" stroke="#231F20" stroke-width="5" stroke-linejoin="round" stroke-miterlimit="10" d="M922.8,1621.8
				l-61.2-35.8"/>
			<path fill="#FFFFFF" stroke="#231F20" stroke-width="5" stroke-linejoin="round" stroke-miterlimit="10" d="M922.8,1553.8
				l-61.3-35.8"/>
			<path fill="#FFFFFF" stroke="#231F20" stroke-width="5" stroke-linejoin="round" stroke-miterlimit="10" d="M922.7,1485.8
				l-61.2-35.8"/>
			<path fill="#FFFFFF" stroke="#231F20" stroke-width="5" stroke-linejoin="round" stroke-miterlimit="10" d="M922.8,1417.8
				l-61.3-35.8"/>
			<path fill="#FFFFFF" stroke="#231F20" stroke-width="5" stroke-linejoin="round" stroke-miterlimit="10" d="M951.6,1298.8
				l-117.7-68.9"/>
		</g>
	</g>
	<g>
		<path fill="#231F20" stroke="#231F20" stroke-width="15" stroke-linejoin="round" stroke-miterlimit="10" d="M967.9,1926.3
			c0-39.6-32-71.7-71.6-71.7s-71.6,32.1-71.6,71.7s32.1,71.6,71.6,71.6C935.8,1997.9,967.9,1965.9,967.9,1926.3L967.9,1926.3z"/>
		<path fill="#FFFFFF" stroke="#231F20" stroke-width="15" stroke-linejoin="round" stroke-miterlimit="10" d="M919.8,1926.3
			c0-13.1-10.5-23.6-23.6-23.7c-13,0-23.7,10.6-23.7,23.7c0.1,13.1,10.6,23.6,23.7,23.6C909.2,1950,919.9,1939.4,919.8,1926.3z"/>
		<g>
			<path fill="#DBDCDD" stroke="#231F20" stroke-width="15" stroke-linejoin="round" stroke-miterlimit="10" d="M825.3,1325.1
				l31.5-31.5c0,0,21.9-14.4,21.9,36.1c0,0,2.1,24.4-1.8,34.1c-3.9,9.7-15.4,26.5-15.3,30.7c-0.1,4.3-0.1,55.5-0.1,55.5l-36.2,9.6
				L825.3,1325.1L825.3,1325.1z"/>
			<path fill="#DBDCDD" stroke="#231F20" stroke-width="15" stroke-linejoin="round" stroke-miterlimit="10" d="M963.1,1327.4
				c0,0-32.1-23.3-37.9-12.2c-5.7,11.1-3.9,38.3-4,52.4c0,13.9,1.1,72.7,1.4,73c0.4,0.4,40.4-10,40.4-10L963.1,1327.4L963.1,1327.4z
				"/>
		</g>
	</g>
</g>
</svg>
