<?xml version="1.0" encoding="utf-8"?>
<!-- Generator: Adobe Illustrator 18.1.1, SVG Export Plug-In . SVG Version: 6.00 Build 0)  -->
<svg version="1.1" id="Layer_1" xmlns="http://www.w3.org/2000/svg" xmlns:xlink="http://www.w3.org/1999/xlink" x="0px" y="0px"
	 viewBox="0 0 597.5 112.2" enable-background="new 0 0 597.5 112.2" xml:space="preserve">
<g>
	<path fill="#BF2626" d="M109.6,84.7L109.6,84.7l-33.1,27.5h61.7c-0.6-2.2-1.1-4.5-1.4-6.9c-1.1-8.6,2.3-25.8,10.1-51.7L109.6,84.7z
		"/>
	<path fill="#BF2626" d="M101.9,0c0.6,2.2,1.1,4.5,1.4,6.9c1.1,8.5-2.3,25.8-10.1,51.7l37.3-31.1l0,0L163.6,0H101.9z"/>
	<path fill="#BF2626" d="M57.7,90.6l6.8-25c1-3.6,2.6-10.9,4.6-21.7c2-10.8,2.9-18.5,2.4-23.1c-0.4-4.6-2-8.4-4.6-11.6
		c-2.5-3-5.4-4.8-8.7-5.2c-3.3-0.4-6.3,0.6-9.1,2.9c-7,5.9-6.4,14.7,2,26.4L22.8,48.8C15.2,36,12.7,24,15.1,12.6
		c1-4.5,2.5-8.7,4.6-12.6H0v112.2h75.6L57.7,90.6z"/>
	<g>
		<path fill="#BF2626" d="M164.5,0l18,21.6l-6.8,25c-1,3.6-2.6,10.9-4.6,21.7c-2,10.8-2.8,18.5-2.4,23.1c0.4,4.6,2,8.4,4.6,11.6
			c2.5,3,5.4,4.8,8.7,5.2c3.3,0.4,6.3-0.6,9.1-2.9c7-5.9,6.4-14.7-2-26.4l28.1-15.5c7.6,12.8,10.2,24.8,7.7,36.2
			c-1,4.5-2.5,8.7-4.6,12.6h377.1V0H164.5z M312.7,93.5h-11.1l-5-48.8l-4.6,48.8h-11.1l-7.7-68.4v3.9H262v64.4h-9.8V29.1h-11.1v-8.6
			h31.8h0.5h9l4.4,56.5l5.4-56.5h8.8l6.1,56.5l4.6-56.5h9.5L312.7,93.5z M348.3,29.6h-14.4V51h12.8v9.1H334v24.2h14.3v9.2h-24.1v-73
			h24.1V29.6z M382.8,93.5h-10.7l-11.7-53.6l0.8,53.6h-9v-73h10.3l11.5,49.8l-0.4-49.8h9.1V93.5z M439,93.5h-10.4V63l-10.4-40.1v6.2
			h-11.4v64.4h-9.8V29.1h-11.1v-8.6h31.7h0.6h9.2l6.7,29.2l7.3-29.2h9.7L439,62.9V93.5z M467.1,67.8h-18.3v-8.7h18.3V67.8z
			 M537.3,93.5h-11.1l-5-48.8l-4.6,48.8h-11.1L498,25.1v3.9h-11.4v64.4h-9.8V29.1h-11.1v-8.6h31.8h0.5h9l4.4,56.5l5.4-56.5h8.8
			l6.1,56.5l4.6-56.5h9.5L537.3,93.5z M579.2,77.2c0,2.8-0.2,5.8-1.2,8.6c-3.1,8.6-12.6,8.5-14.8,8.5c-0.8,0-3.6,0-6.1-0.9
			c-2-0.7-6.3-3.2-7.9-8.9c-0.6-2.2-0.7-3.5-0.7-7.7V40.4c0-6.5,0-12.8,5.7-17.2c1.8-1.3,4.9-3.2,10-3.2c1.6,0,5.9,0,9.5,2.9
			c1.9,1.4,2.9,3.1,3.3,3.9c2.1,3.6,2.2,7.4,2.2,15.6V77.2z"/>
		<path fill="#BF2626" d="M569.6,39.5c0-4.4,0-7.2-1.1-9c-0.6-0.9-1.9-2.2-4.4-2.2c-0.5,0-2.2,0.1-3.5,1c-2.6,1.7-2.4,4.7-2.4,10.1
			v39.1c0,3.9,0.6,7.7,5.6,7.7c6.2,0,5.9-5.6,5.9-9.9V39.5z"/>
	</g>
</g>
</svg>
