<?xml version="1.0" encoding="utf-8"?>
<!-- Generator: Adobe Illustrator 19.1.0, SVG Export Plug-In . SVG Version: 6.00 Build 0)  -->
<svg version="1.1" id="Layer_1" xmlns="http://www.w3.org/2000/svg" xmlns:xlink="http://www.w3.org/1999/xlink" x="0px" y="0px"
	 viewBox="-155 69.7 648 480" style="enable-background:new -155 69.7 648 480;" xml:space="preserve">
<style type="text/css">
	.st0{fill:#231F20;}
</style>
<g>
	<path class="st0" d="M409.5,298.9L340,337.3c20.6,29.1,22.2,50.8,4.8,65.4c-7,5.8-14.5,8.2-22.6,7.2s-15.3-5.2-21.6-12.8
		c-6.5-7.9-10.3-17.5-11.4-28.7c-1-11.3,1-30.3,6-57.2c5.1-26.8,8.9-44.7,11.4-53.7l16.8-61.9L278,140.9l-83.2,69.2l-0.1-0.1
		l-92.4,76.9c19.3-64.1,27.7-106.7,25.1-127.9c-2.6-21.1-10.3-39.4-23-54.6C85.3,81.5,61.9,69.9,34.2,69.7S-20.2,80-45.9,101.4
		c-23.7,19.8-38.6,43.7-44.7,71.8c-6.1,28.1,0.3,57.9,19.1,89.5l69.6-38.2c-20.7-29.1-22.3-50.9-4.9-65.3c7-5.8,14.5-8.2,22.6-7.2
		s15.3,5.3,21.5,12.8c6.6,7.9,10.4,17.4,11.4,28.7c1.1,11.3-0.9,30.3-6,57.1c-5.1,26.8-8.8,44.8-11.4,53.7l-16.8,61.9l45.4,54.5
		l83.2-69.2l0.1,0.1l92.4-76.9c-19.3,64.1-27.7,106.8-25.1,127.9s10.3,39.3,23,54.6c19.1,22.9,42.5,34.5,70.2,34.7
		c27.8,0.2,54.4-10.3,80.1-31.7c23.7-19.8,38.7-43.7,44.7-71.8C434.7,360.3,428.4,330.5,409.5,298.9"/>
</g>
</svg>
