<?xml version="1.0" encoding="utf-8"?>
<!-- Generator: Adobe Illustrator 19.1.0, SVG Export Plug-In . SVG Version: 6.00 Build 0)  -->
<svg version="1.1" id="Layer_1" xmlns="http://www.w3.org/2000/svg" xmlns:xlink="http://www.w3.org/1999/xlink" x="0px" y="0px"
	 viewBox="-279 81 400 400" style="enable-background:new -279 81 400 400;" xml:space="preserve">
<style type="text/css">
	.st0{fill:#231F20;}
</style>
<g>
	<path class="st0" d="M-166.4,409.4c0,1.8-0.3,3.6-0.8,5.2s-1.1,2.8-1.8,3.6c-1.5,1.6-3.7,3.7-6.5,6c-2.8,2.4-4.8,4.3-6.2,5.6
		c-1.3,1.4-2.5,3.1-3.4,5.2s-1.4,4.6-1.5,7.5h1.9c0.6-1.8,1.9-2.7,4.1-2.7c0.9,0,1.9,0.1,3,0.3c1.1,0.2,2.5,0.6,4.1,1
		c1.7,0.4,2.9,0.7,3.6,0.9c0.8,0.2,1.6,0.3,2.6,0.4c0.5,0,1.3,0.1,2.3,0.1c10.2,0,15.5-5.2,16-15.5h-1.8c-0.3,1.2-0.8,2-1.5,2.4
		s-1.7,0.8-3.1,1c-0.9,0-2.5-0.2-4.8-0.4s-4-0.4-5.4-0.4c-1.7,0-3.3,0.1-4.8,0.4s-2.8,0.6-4.1,1c-1.2,0.4-2.9,1-5.1,1.9
		c-0.1,0-0.3,0.1-0.6,0.3c-0.3-0.1-0.4-0.2-0.4-0.4c0.1-0.6,0.6-1.4,1.6-2.5s2.4-2.2,4.1-3.2c1.7-1,3.7-1.8,5.8-2.2
		c3.8-0.9,7.9-2.3,12.3-4c4.4-1.7,6.6-5.1,6.6-10.2c0-2.2-0.6-4.1-1.7-5.8c-1.1-1.7-2.6-3-4.5-4.1c-1.8-1.1-3.8-1.8-6-2.3
		c-2.1-0.5-4.3-0.7-6.3-0.7c-2.6,0-5.1,0.3-7.8,0.9c-2.6,0.6-4.9,1.6-6.8,3.2c-1.9,1.6-2.8,3.7-2.8,6.4c0,1.3,0.4,2.5,1,3.5
		s1.5,1.8,2.5,2.4c1.1,0.6,2.2,0.8,3.5,0.8c2.1,0,3.7-0.7,4.8-1.8c1.1-1.2,1.7-2.5,1.7-4c0-1.7-0.5-3.1-1.5-4.5
		c-1-1.3-2.5-2-4.5-2.1c-0.2-0.1-0.4-0.3-0.4-0.6c0-0.5,0.5-0.9,1.5-1.4c1-0.4,2-0.7,3.2-0.7s2.3,0.2,3.4,0.7
		c1.1,0.5,1.9,1.3,2.6,2.3C-167.1,404.7-166.6,406.8-166.4,409.4"/>
	<path class="st0" d="M-191.7,408.4c0-1.8,0.3-3.6,0.8-5.2s1.1-2.8,1.8-3.6c1.5-1.6,3.7-3.7,6.5-6c2.8-2.4,4.8-4.3,6.2-5.6
		c1.3-1.4,2.5-3.1,3.4-5.2s1.4-4.6,1.5-7.5h-1.9c-0.6,1.8-1.9,2.7-4.1,2.7c-0.9,0-1.9-0.1-3-0.3c-1.1-0.2-2.5-0.6-4.1-1
		s-2.9-0.7-3.6-0.9c-0.8-0.2-1.6-0.3-2.6-0.4c-0.5,0-1.3-0.1-2.3-0.1c-10.2,0-15.5,5.2-16,15.5h1.8c0.3-1.2,0.8-2,1.5-2.4
		s1.7-0.8,3.1-1c0.9,0,2.5,0.2,4.8,0.4c2.3,0.3,4,0.4,5.4,0.4c1.7,0,3.3-0.1,4.8-0.4s2.8-0.6,4.1-1c1.2-0.4,2.9-1,5.1-1.9
		c0.1,0,0.3-0.1,0.6-0.3c0.3,0.1,0.4,0.2,0.4,0.4c-0.1,0.6-0.6,1.4-1.6,2.5s-2.4,2.2-4.1,3.2c-1.7,1-3.7,1.8-5.8,2.2
		c-3.8,0.9-7.9,2.3-12.3,4c-4.4,1.7-6.6,5.1-6.6,10.2c0,2.2,0.6,4.1,1.7,5.8c1.1,1.7,2.6,3,4.5,4.1c1.8,1.1,3.8,1.8,6,2.3
		c2.1,0.5,4.3,0.7,6.3,0.7c2.5,0,5.1-0.3,7.8-0.9c2.6-0.6,4.9-1.6,6.8-3.2c1.9-1.6,2.8-3.7,2.8-6.4c0-1.3-0.4-2.5-1-3.5
		s-1.5-1.8-2.5-2.4c-1.1-0.6-2.2-0.8-3.5-0.8c-2.1,0-3.7,0.7-4.8,1.8c-1.1,1.2-1.7,2.5-1.7,4c0,1.7,0.5,3.1,1.5,4.5
		c1,1.3,2.5,2,4.5,2.1c0.2,0.1,0.4,0.3,0.4,0.6c0,0.5-0.5,0.9-1.5,1.4c-1,0.4-2,0.7-3.2,0.7s-2.3-0.2-3.4-0.7
		c-1.1-0.5-1.9-1.3-2.6-2.3C-191.1,413.1-191.7,411-191.7,408.4"/>
	<path class="st0" d="M-64.1,383.5c0,1.8-0.3,3.6-0.8,5.2c-0.5,1.6-1.1,2.8-1.8,3.6c-1.5,1.6-3.7,3.7-6.5,6
		c-2.8,2.4-4.8,4.3-6.2,5.6c-1.3,1.4-2.5,3.1-3.4,5.2s-1.4,4.6-1.5,7.5h1.9c0.6-1.8,1.9-2.7,4.1-2.7c0.9,0,1.9,0.1,3,0.3
		c1.1,0.2,2.5,0.6,4.1,1c1.7,0.4,2.9,0.7,3.6,0.9c0.8,0.2,1.6,0.3,2.6,0.4c0.5,0,1.3,0.1,2.3,0.1c10.2,0,15.5-5.2,16-15.5h-1.8
		c-0.3,1.2-0.8,2-1.5,2.4c-0.7,0.4-1.7,0.8-3.1,1c-0.9,0-2.5-0.2-4.8-0.4c-2.3-0.2-4-0.4-5.4-0.4c-1.7,0-3.3,0.1-4.8,0.4
		s-2.8,0.6-4.1,1c-1.2,0.4-2.9,1-5.1,1.9c-0.1,0-0.3,0.1-0.6,0.3c-0.3-0.1-0.4-0.2-0.4-0.4c0.1-0.6,0.6-1.4,1.6-2.5s2.4-2.2,4.1-3.2
		s3.7-1.8,5.8-2.2c3.8-0.9,7.9-2.3,12.3-4s6.6-5.1,6.6-10.2c0-2.2-0.6-4.1-1.7-5.8c-1.1-1.7-2.6-3-4.5-4.1s-3.8-1.8-6-2.3
		c-2.1-0.5-4.3-0.7-6.3-0.7c-2.6,0-5.1,0.3-7.8,0.9c-2.6,0.6-4.9,1.6-6.8,3.2s-2.8,3.7-2.8,6.5c0,1.3,0.4,2.5,1,3.5s1.5,1.8,2.5,2.4
		c1.1,0.6,2.2,0.8,3.5,0.8c2.1,0,3.7-0.7,4.8-1.8c1.1-1.2,1.7-2.5,1.7-4c0-1.7-0.5-3.1-1.5-4.5c-1-1.3-2.5-2-4.5-2.1
		c-0.2-0.1-0.4-0.3-0.4-0.6c0-0.5,0.5-0.9,1.5-1.4c0.9-0.4,2-0.7,3.2-0.7s2.3,0.3,3.4,0.8s1.9,1.3,2.6,2.3
		C-64.6,378.8-64.1,380.9-64.1,383.5"/>
	<path class="st0" d="M-66.8,434.3c0-1.8,0.3-3.6,0.8-5.2s1.1-2.8,1.8-3.6c1.5-1.6,3.7-3.7,6.5-6c2.8-2.4,4.8-4.3,6.2-5.6
		s2.5-3.1,3.4-5.2s1.4-4.6,1.5-7.5h-1.9c-0.6,1.8-1.9,2.7-4.1,2.7c-0.9,0-1.9-0.1-3-0.3c-1.1-0.2-2.5-0.6-4.1-1s-2.9-0.7-3.6-0.9
		s-1.6-0.3-2.6-0.4c-0.5,0-1.3-0.1-2.3-0.1c-10.2,0-15.5,5.2-16,15.5h1.8c0.3-1.2,0.8-2,1.5-2.4s1.7-0.8,3.1-1
		c0.9,0,2.5,0.2,4.8,0.4c2.3,0.3,4,0.4,5.4,0.4c1.7,0,3.3-0.1,4.8-0.4s2.8-0.6,4.1-1c1.2-0.4,2.9-1,5.1-1.9c0.1,0,0.3-0.1,0.6-0.3
		c0.3,0.1,0.4,0.2,0.4,0.4c-0.1,0.6-0.6,1.4-1.6,2.5s-2.4,2.2-4.1,3.2c-1.7,1-3.7,1.8-5.8,2.2c-3.8,0.9-7.9,2.3-12.3,4
		s-6.6,5.1-6.6,10.2c0,2.2,0.6,4.1,1.7,5.8c1.1,1.7,2.6,3,4.5,4.1c1.8,1.1,3.8,1.8,6,2.3c2.1,0.5,4.3,0.7,6.3,0.7
		c2.6,0,5.1-0.3,7.8-0.9c2.6-0.6,4.9-1.6,6.8-3.2s2.8-3.7,2.8-6.4c0-1.3-0.4-2.5-1-3.5s-1.5-1.8-2.5-2.4c-1.1-0.6-2.2-0.8-3.5-0.8
		c-2.1,0-3.7,0.7-4.8,1.8c-1.1,1.2-1.7,2.5-1.7,4c0,1.7,0.5,3.1,1.5,4.5c1,1.3,2.5,2,4.5,2.1c0.2,0.1,0.4,0.3,0.4,0.6
		c0,0.5-0.5,0.9-1.5,1.4c-1,0.4-2,0.7-3.2,0.7c-1.2,0-2.3-0.3-3.4-0.8s-1.9-1.3-2.6-2.3C-66.3,439-66.8,436.9-66.8,434.3"/>
	<path class="st0" d="M48.4,441.1l1.7-12.2h-2.7c-0.3,1.8-0.7,3-1.3,3.5s-1.7,0.9-3.5,0.9H29.4c0.5-1.5,1.4-2.9,2.6-4.4
		c1.2-1.4,2.8-2.8,4.9-4.2c0.5-0.4,1.4-0.9,2.5-1.6c3.2-2,5.6-3.8,7.1-5.3c1.1-1.1,1.9-2.4,2.4-3.8s0.8-2.9,0.8-4.5
		c0-3.4-1.2-6.1-3.7-8.1s-5.8-3.1-9.9-3.1c-3.6,0-6.5,0.9-8.8,2.6c-2.3,1.8-3.4,4-3.4,6.7c0,1.7,0.5,3.1,1.4,4.1s2.2,1.5,3.8,1.5
		c1.4,0,2.5-0.4,3.4-1.3c0.9-0.9,1.3-2,1.3-3.3c0-0.8-0.2-1.5-0.5-2.1c-0.3-0.6-0.8-1-1.4-1.3l-1.8-0.8c-0.2-0.1-0.4-0.2-0.6-0.4
		c-0.1-0.2-0.2-0.3-0.2-0.5c0-0.6,0.5-1.2,1.4-1.7c0.9-0.6,2-0.8,3.2-0.8c2,0,3.5,0.6,4.5,1.9s1.5,3.2,1.5,5.6
		c0,1.6-0.2,3.1-0.7,4.6s-1.1,2.9-1.9,4.2c-1.1,1.7-2.7,3.7-4.8,6.1s-3.5,4-4.1,4.8c-1.7,2.2-2.9,4.3-3.7,6.2s-1.2,4.2-1.3,6.5
		L48.4,441.1"/>
	<path class="st0" d="M48.5,376.7l1.7,12.2h-2.7c-0.3-1.8-0.7-3-1.3-3.5s-1.8-0.8-3.5-0.8H29.4c0.5,1.5,1.4,2.9,2.6,4.4
		c1.2,1.4,2.8,2.8,4.9,4.2c0.5,0.4,1.4,0.9,2.5,1.6c3.2,2,5.6,3.8,7.1,5.3c1.1,1.1,1.9,2.4,2.4,3.8s0.8,2.9,0.8,4.5
		c0,3.4-1.2,6.1-3.7,8.1s-5.8,3.1-9.9,3.1c-3.6,0-6.5-0.9-8.8-2.6c-2.3-1.8-3.4-4-3.4-6.7c0-1.7,0.5-3.1,1.4-4.1
		c1-1,2.2-1.5,3.8-1.5c1.4,0,2.5,0.4,3.4,1.3c0.9,0.9,1.3,2,1.3,3.3c0,0.8-0.2,1.5-0.5,2.1c-0.4,0.6-0.8,1-1.4,1.3l-1.8,0.8
		c-0.2,0.1-0.4,0.2-0.6,0.4c-0.1,0.2-0.2,0.3-0.2,0.5c0,0.6,0.5,1.2,1.4,1.7c0.9,0.6,2,0.8,3.2,0.8c2,0,3.5-0.6,4.5-1.9
		s1.5-3.2,1.5-5.6c0-1.6-0.2-3.1-0.7-4.6c-0.4-1.5-1.1-2.9-1.9-4.2c-1.1-1.7-2.7-3.7-4.8-6.1c-2.2-2.4-3.5-4-4.1-4.8
		c-1.7-2.2-2.9-4.3-3.7-6.2s-1.2-4.2-1.3-6.5L48.5,376.7"/>
	<path class="st0" d="M43.4,264.4c-1.6,1.6-4.2,3.7-7.8,6.3c-4.3,3.1-7,5.6-8.3,7.6s-1.9,4.2-1.9,6.8c0,3.8,1.3,6.9,3.9,9.3
		s6,3.6,10.2,3.6c4.4,0,7.8-1.2,10.3-3.6s3.7-5.7,3.7-10v-0.9H48v0.8c0,2.7-0.8,4.8-2.3,6.5s-3.6,2.5-6,2.5c-2.5,0-4.5-0.8-6.1-2.3
		c-1.5-1.5-2.3-3.5-2.3-5.9c0-1.3,0.2-2.4,0.7-3.6c0.5-1.1,1.2-2.2,2.1-3.3c0.8-0.9,2.5-2.3,4.9-4.1c2.4-1.8,4.3-3.1,5.4-4.1
		c2.9-2.4,5-4.8,6.5-7.2c1.5-2.4,2.3-4.9,2.6-7.7H25.9v4.5h20.8C46.2,261.3,45,262.8,43.4,264.4"/>
	<path class="st0" d="M19.8,288.7c1.6-1.6,4.2-3.7,7.8-6.3c4.3-3.1,7-5.6,8.3-7.6c1.2-2,1.9-4.2,1.9-6.8c0-3.8-1.3-6.9-3.9-9.3
		c-2.6-2.4-6-3.6-10.2-3.6c-4.4,0-7.8,1.2-10.3,3.6s-3.7,5.7-3.7,10v0.9h5.6v-0.8c0-2.7,0.8-4.8,2.3-6.5c1.6-1.7,3.6-2.5,6-2.5
		c2.5,0,4.5,0.8,6.1,2.3s2.3,3.5,2.3,5.9c0,1.3-0.2,2.4-0.7,3.6c-0.5,1.1-1.2,2.2-2.1,3.3c-0.8,0.9-2.5,2.3-4.9,4.1
		c-2.5,1.8-4.3,3.1-5.4,4.1c-2.9,2.4-5,4.8-6.5,7.2c-1.5,2.4-2.3,4.9-2.6,7.7h27.5v-4.7H16.5C17.1,291.8,18.2,290.3,19.8,288.7"/>
	<g>
		<path class="st0" d="M-170.5,310.7l1.7-12.2h-2.7c-0.3,1.8-0.7,3-1.3,3.5s-1.8,0.8-3.5,0.8h-13.2c0.5-1.5,1.4-2.9,2.6-4.4
			c1.2-1.4,2.8-2.8,4.9-4.2c0.5-0.4,1.4-0.9,2.5-1.6c3.2-2,5.6-3.8,7.1-5.3c1.1-1.1,1.9-2.4,2.4-3.8s0.8-2.9,0.8-4.5
			c0-3.4-1.2-6.1-3.7-8.1s-5.8-3.1-9.9-3.1c-3.6,0-6.5,0.9-8.8,2.6c-2.3,1.8-3.4,4-3.4,6.7c0,1.7,0.5,3.1,1.4,4.1
			c1,1,2.2,1.5,3.8,1.5c1.4,0,2.5-0.4,3.4-1.3s1.3-2,1.3-3.3c0-0.8-0.2-1.5-0.5-2.1c-0.4-0.6-0.8-1-1.4-1.3l-1.8-0.8
			c-0.2-0.1-0.4-0.2-0.6-0.4s-0.2-0.3-0.2-0.5c0-0.6,0.5-1.2,1.4-1.7c0.9-0.6,2-0.8,3.2-0.8c2,0,3.5,0.6,4.5,1.9s1.5,3.2,1.5,5.6
			c0,1.6-0.2,3.1-0.7,4.6c-0.4,1.5-1.1,2.9-1.9,4.2c-1.1,1.7-2.7,3.7-4.8,6.1c-2.2,2.4-3.5,4-4.1,4.8c-1.7,2.2-2.9,4.3-3.7,6.2
			c-0.8,2-1.2,4.2-1.3,6.5L-170.5,310.7"/>
		<path class="st0" d="M-208.9,246.1l-1.7,12.2h2.7c0.3-1.8,0.7-3,1.3-3.5s1.8-0.8,3.5-0.8h13.2c-0.5,1.5-1.4,2.9-2.6,4.4
			c-1.2,1.4-2.8,2.8-4.9,4.2c-0.5,0.4-1.4,0.9-2.5,1.6c-3.2,2-5.6,3.8-7.1,5.3c-1.1,1.1-1.9,2.4-2.4,3.8s-0.8,2.9-0.8,4.5
			c0,3.4,1.2,6.1,3.7,8.1s5.8,3.1,9.9,3.1c3.6,0,6.5-0.9,8.8-2.6c2.3-1.8,3.4-4,3.4-6.7c0-1.7-0.5-3.1-1.4-4.1c-1-1-2.2-1.5-3.8-1.5
			c-1.4,0-2.5,0.4-3.4,1.3s-1.3,2-1.3,3.3c0,0.8,0.2,1.5,0.5,2.1s0.8,1,1.4,1.3l1.8,0.8c0.2,0.1,0.4,0.2,0.6,0.4
			c0.1,0.2,0.2,0.3,0.2,0.5c0,0.6-0.5,1.2-1.4,1.7s-2,0.8-3.2,0.8c-2,0-3.5-0.6-4.5-1.9s-1.5-3.2-1.5-5.6c0-1.6,0.2-3.1,0.7-4.6
			c0.4-1.5,1.1-2.9,1.9-4.2c1.1-1.7,2.7-3.7,4.8-6.1c2.2-2.4,3.5-4,4.1-4.8c1.7-2.2,2.9-4.3,3.7-6.2c0.8-2,1.2-4.2,1.3-6.5
			L-208.9,246.1"/>
	</g>
	<g>
		<path class="st0" d="M-72.9,274.8c-1.8,8.8-2.4,14.6-1.8,17.4s1.9,5.1,3.7,7c2.8,2.8,6.1,4.1,9.8,3.8c3.7-0.3,7.1-2,10.3-5.2
			c2.9-2.9,4.6-6.3,5.1-10.1c0.5-3.8-0.7-7.7-3.6-11.7l-8.8,5.9c3.1,3.6,3.6,6.5,1.4,8.7c-0.9,0.9-1.8,1.3-2.9,1.2
			c-1.1,0-2.1-0.5-3-1.4c-1-1-1.6-2.2-1.9-3.7s-0.2-4.1,0.1-7.7c0.3-3.6,0.6-6.1,0.9-7.3l1.5-8.5l-6.7-6.7L-91,278.7l6.8,7.5
			L-72.9,274.8"/>
		<path class="st0" d="M-90.5,278.2c1.8-8.8,2.4-14.6,1.8-17.4s-1.9-5.1-3.7-7c-2.8-2.8-6.1-4.1-9.8-3.8s-7.1,2-10.3,5.2
			c-2.9,2.9-4.6,6.3-5.1,10.1c-0.5,3.8,0.7,7.7,3.6,11.7l8.8-5.9c-3.1-3.6-3.6-6.5-1.4-8.7c0.9-0.9,1.8-1.3,2.9-1.2
			c1.1,0,2.1,0.5,3,1.4c1,1,1.6,2.2,1.9,3.7s0.2,4.1-0.1,7.7c-0.3,3.6-0.6,6.1-0.9,7.3l-1.5,8.5l6.7,6.7l22.2-22.2l-6.8-7.5
			L-90.5,278.2"/>
	</g>
	<path class="st0" d="M-43.5,153.7l-7.4-9.8l-1.9,1.9c1.1,1.5,1.6,2.6,1.6,3.4c0,0.8-0.7,1.8-1.9,3.1l-9.3,9.3
		c-0.7-1.4-1.1-3-1.3-4.9c-0.1-1.9,0-4,0.5-6.4c0.1-0.6,0.3-1.6,0.7-2.9c0.9-3.7,1.3-6.6,1.2-8.8c0-1.6-0.4-3-1-4.4
		s-1.5-2.6-2.6-3.8c-2.4-2.4-5.2-3.4-8.4-3.1c-3.2,0.3-6.3,1.9-9.2,4.8c-2.6,2.6-4,5.2-4.4,8.1c-0.4,2.8,0.4,5.2,2.3,7.2
		c1.2,1.2,2.5,1.8,3.9,1.9c1.4,0.1,2.7-0.5,3.8-1.6c1-1,1.4-2.1,1.5-3.3c0-1.2-0.4-2.3-1.4-3.3c-0.5-0.5-1.2-0.9-1.8-1.1
		c-0.7-0.2-1.3-0.2-1.9,0.1l-1.9,0.7c-0.2,0.1-0.5,0.1-0.7,0.1s-0.4-0.1-0.5-0.2c-0.4-0.4-0.5-1.1-0.2-2.2c0.3-1,0.8-2,1.7-2.9
		c1.4-1.4,2.9-2,4.5-1.8s3.3,1.2,5.1,2.9c1.1,1.1,2,2.3,2.8,3.7s1.3,2.8,1.6,4.3c0.4,1.9,0.7,4.5,0.9,7.7c0.2,3.2,0.3,5.3,0.5,6.3
		c0.3,2.7,0.9,5.1,1.8,7s2.1,3.8,3.7,5.5L-43.5,153.7"/>
	<path class="st0" d="M-118,134.7l7.4,9.8l1.9-1.9c-1.1-1.5-1.6-2.6-1.6-3.4c0-0.8,0.7-1.8,1.9-3.1l9.3-9.3c0.7,1.4,1.1,3,1.3,4.9
		c0.1,1.9,0,4-0.5,6.4c-0.1,0.6-0.3,1.6-0.7,2.9c-0.9,3.7-1.3,6.6-1.2,8.8c0,1.6,0.4,3,1,4.4s1.5,2.6,2.6,3.8
		c2.4,2.4,5.2,3.4,8.4,3.1c3.2-0.3,6.3-1.9,9.2-4.8c2.6-2.6,4-5.3,4.4-8.1s-0.4-5.2-2.3-7.2c-1.2-1.2-2.5-1.8-3.9-1.9
		c-1.4-0.1-2.7,0.5-3.8,1.6c-1,1-1.4,2.1-1.5,3.3c0,1.2,0.4,2.3,1.4,3.3c0.5,0.5,1.1,0.9,1.8,1.1c0.7,0.2,1.3,0.2,1.9-0.1l1.9-0.7
		c0.2-0.1,0.5-0.1,0.7-0.1s0.4,0.1,0.5,0.2c0.4,0.4,0.5,1.1,0.2,2.2c-0.3,1-0.8,2-1.7,2.9c-1.4,1.4-2.9,2-4.5,1.8s-3.3-1.2-5.1-2.9
		c-1.1-1.1-2-2.3-2.8-3.7s-1.3-2.8-1.6-4.3c-0.4-1.9-0.7-4.5-0.9-7.7c-0.2-3.2-0.3-5.3-0.5-6.3c-0.3-2.7-0.9-5.1-1.8-7
		c-0.9-1.9-2.1-3.8-3.7-5.5L-118,134.7"/>
	<path class="st0" d="M-195.1,162.1c7.5-4.9,12-8.6,13.5-11s2.3-4.9,2.3-7.6c0-4-1.4-7.2-4.2-9.6c-2.8-2.4-6.5-3.6-11-3.6
		c-4.1,0-7.7,1.2-10.8,3.6c-3,2.4-4.9,6-5.7,10.8l10.4,2c0.4-4.8,2.1-7.1,5.1-7.1c1.2,0,2.2,0.4,2.9,1.2s1.1,1.9,1.1,3.2
		c0,1.4-0.4,2.7-1.3,3.9c-0.9,1.3-2.7,3-5.5,5.4c-2.8,2.3-4.7,3.8-5.8,4.6l-7,4.9v9.5h31.5l0.5-10.1
		C-179.1,162.1-195.1,162.1-195.1,162.1z"/>
	<path class="st0" d="M-195.7,126.2c-7.5,4.9-12,8.6-13.5,11s-2.3,4.9-2.3,7.6c0,4,1.4,7.2,4.3,9.6c2.8,2.4,6.5,3.6,11,3.6
		c4.1,0,7.7-1.2,10.8-3.6c3-2.4,4.9-6,5.7-10.8l-10.4-2c-0.4,4.8-2.1,7.1-5.1,7.1c-1.2,0-2.2-0.4-2.9-1.2s-1.1-1.9-1.1-3.2
		c0-1.4,0.4-2.7,1.3-3.9c0.9-1.3,2.7-3,5.5-5.4c2.8-2.3,4.7-3.8,5.8-4.6l7-4.9V116h-31.5l-0.5,10.1L-195.7,126.2L-195.7,126.2z"/>
	<path class="st0" d="M19.1,143.9c0.6-1.7,2.6-7,8.9-7c5.1,0,7.5,3.5,7.5,7.4c0,3.3-1.9,5.5-6.8,9.5c-7.3,5.9-11.8,8.6-12.7,18.2
		h24.4v-3.7h-20c0.6-4.5,6-8.1,9.3-10.5c4.7-3.5,10.2-7.4,10.2-13.8c0-5.4-3.7-10.7-11.8-10.7S17,139.6,16,141.8L19.1,143.9"/>
	<path class="st0" d="M36.7,144.5c-0.6,1.7-2.6,7-8.9,7c-5.1,0-7.5-3.5-7.5-7.4c0-3.3,1.9-5.5,6.8-9.5c7.3-5.9,11.8-8.6,12.7-18.2
		H15.3v3.7h19.9c-0.6,4.5-6,8.1-9.3,10.5c-4.7,3.5-10.2,7.4-10.2,13.8c0,5.4,3.7,10.7,11.8,10.7s11.1-6.3,12.1-8.5L36.7,144.5"/>
</g>
</svg>
