<?xml version="1.0" encoding="utf-8"?>
<!-- Generator: Adobe Illustrator 18.1.1, SVG Export Plug-In . SVG Version: 6.00 Build 0)  -->
<svg version="1.1" id="Layer_1" xmlns="http://www.w3.org/2000/svg" xmlns:xlink="http://www.w3.org/1999/xlink" x="0px" y="0px"
	 viewBox="-17.9 3691.6 1733.4 365.6" enable-background="new -17.9 3691.6 1733.4 365.6" xml:space="preserve">
<g>
	<rect x="-17.9" y="3691.6" fill="#222223" width="1733.4" height="365.6"/>
	<g>
		<path fill="#FFFFFF" d="M219.1,3964.5c-5.7,19.5-22,37.5-64.3,37.5c-17.1,0-35.8-2.4-50.5-13.8c-8.1-6.5-11.4-13-13-17.1
			c-2.4-7.3-4.9-11.4-4.9-25.2v-35.8H132v28.5c0,9-0.8,19.5,8.1,25.2c2.4,1.6,7.3,3.3,13.8,3.3c8.1,0,12.2-1.6,15.5-4.9
			c6.5-4.9,6.5-16.3,6.5-32.6c0-3.3,0.8-14.7-4.9-22.8c-3.3-4.9-9-8.1-10.6-9.8l-43.2-29.3c-9.8-6.5-14.7-9.8-20.4-20.4
			c-4.9-9-9-17.9-9-39.1c0-3.3,0-21.2,5.7-34.2c13.8-30.1,56.2-30.1,61.1-30.1c7.3,0,47.2,0,59.4,32.6c2.4,6.5,4.1,9,4.1,20.4v24.4
			h-45.6v-25.2c0-7.3-2.4-17.9-20.4-17.9c-10.6,0-20.4,4.1-20.4,24.4c0,0.8-0.8,15.5,4.9,23.6c1.6,2.4,4.9,4.9,9.8,8.1l44,30.1
			c3.3,2.4,13,9.8,20.4,19.5c10.6,14.7,9.8,25.2,9.8,42.3C221.5,3947.4,221.5,3955.5,219.1,3964.5z"/>
		<path fill="#FFFFFF" d="M318.5,3786.1v211.7h-45.6v-211.7h-45.6v-35.8h136.8v35.8H318.5L318.5,3786.1z"/>
		<path fill="#FFFFFF" d="M497.6,3981.6c-17.1,22.8-51.3,21.2-57,21.2c-17.9,0-37.5-4.1-50.5-17.9c-2.4-2.4-7.3-8.1-10.6-17.1
			s-4.9-18.7-4.9-27.7v-189.7h45.6v184c0,6.5,0,13,2.4,19.5c4.9,9.8,16.3,10.6,18.7,10.6c2.4,0,8.1,0,13-4.1
			c9-5.7,7.3-17.1,7.3-26.1v-184h45.6v191.4C509,3956.3,507.4,3968.5,497.6,3981.6z"/>
		<path fill="#FFFFFF" d="M671.9,3944.9c-1.6,26.1-13,39.9-22.8,44.8c-12.2,7.3-25.2,7.3-39.1,7.3h-73.3v-246.8h83.9
			c6.5,0,20.4,0.8,34.2,12.2c17.1,14.7,17.9,32.6,17.9,52.9v115.6C671.9,3935.1,671.9,3940,671.9,3944.9z M626.3,3811.4
			c0-7.3,0-15.5-6.5-21.2c-5.7-4.9-13.8-4.1-20.4-4.1h-17.9v175.1h16.3c4.1,0,9,0,13-0.8c14.7-2.4,15.5-13.8,15.5-26.1V3811.4z"/>
		<path fill="#FFFFFF" d="M697.1,3997v-246.8h44.8V3997H697.1z"/>
		<path fill="#FFFFFF" d="M890.1,3986.4c-14.7,13.8-35,16.3-53.7,16.3c-17.9,0-36.6-2.4-51.3-14.7c-7.3-5.7-10.6-12.2-12.2-15.5
			c-4.1-9-4.9-19.5-4.9-28.5v-138.4c0-4.9-0.8-30.1,15.5-44.8c9-8.1,26.1-16.3,53.7-16.3c35.8,0,54.6,14.7,61.9,29.3
			c4.1,8.1,5.7,15.5,5.7,32.6v137.6C904.8,3960.4,902.4,3974.2,890.1,3986.4z M859.2,3810.5c0-1.6,0.8-12.2-2.4-19.5
			c-2.4-4.9-7.3-10.6-18.7-10.6c-2.4,0-9,0-14.7,4.9c-9.8,7.3-9,17.9-9,27.7v124.6c0,7.3,0,16.3,4.1,22.8c4.9,7.3,16.3,7.3,18.7,7.3
			c2.4,0,9,0,14.7-4.1c8.1-5.7,8.1-15.5,8.1-25.2v-127.9H859.2z"/>
	</g>
	<path fill="#FFFFFF" d="M1560.1,3951.3c27.2,38.3,29.3,67.1,6.4,86.2c-9.2,7.7-19.1,10.8-29.8,9.5c-10.7-1.3-20.1-6.9-28.4-16.9
		c-8.6-10.4-13.6-23-15-37.9c-1.4-14.9,1.3-40,7.9-75.4c6.7-35.4,11.7-59,15-70.8l22.2-81.7l-59.9-71.9l-109.7,91.3l-0.1-0.1
		L1246.8,3885c25.5-84.6,36.5-140.8,33.1-168.7c-1.1-8.6-2.8-16.8-5.2-24.7h-266.4c-7.4,13.5-12.7,27.9-16.1,43.3
		c-8.1,37.1,0.3,76.4,25.2,118.1l91.8-50.4c-27.3-38.3-29.4-67.1-6.4-86.2c9.2-7.7,19.1-10.8,29.8-9.5c10.7,1.3,20.2,6.9,28.4,16.9
		c8.6,10.4,13.7,23,15,37.9c1.4,14.9-1.3,40-7.9,75.4c-6.7,35.4-11.7,59-15,70.9l-22.2,81.6l56.4,67.7h8.6l104.6-87.1l0.1,0.1
		l121.8-101.4c-25.5,84.6-36.5,140.8-33.1,168.8c0.8,6.8,2.1,13.3,3.7,19.7h270.5c6-12.1,10.5-24.8,13.5-38.4
		c8.1-37.1-0.3-76.4-25.2-118.1L1560.1,3951.3z"/>
</g>
</svg>
