<?xml version="1.0" encoding="utf-8"?>
<!-- Generator: Adobe Illustrator 17.0.0, SVG Export Plug-In . SVG Version: 6.00 Build 0)  -->
<!DOCTYPE svg PUBLIC "-//W3C//DTD SVG 1.1//EN" "http://www.w3.org/Graphics/SVG/1.1/DTD/svg11.dtd">
<svg version="1.1" id="Layer_1" xmlns="http://www.w3.org/2000/svg" xmlns:xlink="http://www.w3.org/1999/xlink" x="0px" y="0px"
	 width="936px" height="1289.34px" viewBox="0 39.477 936 1289.34" enable-background="new 0 39.477 936 1289.34"
	 xml:space="preserve">
<path fill="#844E9F" d="M0,39.477h936v1289.34H0V39.477z"/>
<path fill="#231F20" d="M349.163,953.632l-2.551,5.113l-3.159-4.762L349.163,953.632z"/>
<g>
	<path fill="#FFFFFF" d="M336.292,688.423c-6.321,0-12.643-2.058-16.17-5.292l1.47-16.905c3.969,4.116,8.232,6.321,12.349,6.321
		c5.88,0,9.555-5.733,9.555-14.406c0-9.849-4.557-16.17-11.76-16.758v-11.907c5.586-1.029,9.261-8.82,9.261-16.759
		c0-7.056-2.205-10.731-5.88-10.731c-3.381,0-7.938,3.087-11.172,6.321l-1.029-14.994c4.263-4.41,11.025-7.497,17.493-7.497
		c13.377,0,18.082,10.584,18.082,22.05c0,11.76-4.116,21.61-8.82,23.374c7.056,2.205,12.496,11.172,12.496,25.432
		C362.165,674.311,353.344,688.423,336.292,688.423z"/>
	<path fill="#FFFFFF" d="M386.271,687.541c-9.114,0-19.257-0.441-19.257-0.441v-99.961c0,0,10.731-0.882,21.609-0.882
		c21.756,0,28.666,17.935,28.666,47.923C417.289,668.137,408.615,687.541,386.271,687.541z M387.447,602.426h-1.764v68.797h1.911
		c7.792,0,10.438-14.259,10.438-34.545C398.031,615.215,395.091,602.426,387.447,602.426z"/>
	<path fill="#FFFFFF" d="M462.856,603.75v83.35h-19.11v-83.35h-12.054v-16.611h43.072v16.611H462.856z"/>
	<path fill="#FFFFFF" d="M507.102,646.821V687.1h-18.963v-39.837l-17.053-60.124h20.875l6.614,39.103l6.027-39.103h19.552
		L507.102,646.821z"/>
	<path fill="#FFFFFF" d="M547.23,652.113h-3.381V687.1h-18.521v-99.961c0,0,11.466-0.735,22.49-0.735
		c16.611,0,25.139,11.319,25.139,29.842C572.957,638.736,562.225,652.113,547.23,652.113z M545.908,601.397h-2.059v34.986h1.911
		c5.292,0,8.526-6.909,8.526-18.375C554.287,607.865,551.641,601.397,545.908,601.397z"/>
	<path fill="#FFFFFF" d="M576.924,687.1v-99.961h37.633v16.317h-19.11v24.697h15.142v15.876h-15.142v26.607h19.993V687.1H576.924z"
		/>
	<path fill="#FFFFFF" d="M212.003,827.1v-99.962h37.633v16.317h-19.11v24.696h15.141v15.877h-15.141v26.607h19.992V827.1H212.003z"
		/>
	<path fill="#FFFFFF" d="M282.269,827.1l-8.085-34.986l-7.791,34.986h-19.257l16.905-50.863l-15.876-49.099h21.021l6.762,31.459
		l6.321-31.459h19.992l-16.023,46.894l17.347,53.068H282.269z"/>
	<path fill="#FFFFFF" d="M327.103,792.113h-3.381V827.1h-18.522v-99.962c0,0,11.466-0.735,22.491-0.735
		c16.611,0,25.138,11.319,25.138,29.842C352.828,778.735,342.097,792.113,327.103,792.113z M325.779,741.397h-2.058v34.986h1.911
		c5.292,0,8.526-6.909,8.526-18.375C334.159,747.865,331.513,741.397,325.779,741.397z"/>
	<path fill="#FFFFFF" d="M356.796,827.1v-99.962h19.11v82.321h17.199V827.1H356.796z"/>
	<path fill="#FFFFFF" d="M416.037,828.423c-20.139,0-25.284-21.021-25.284-50.569c0-30.43,6.321-52.039,27.783-52.039
		c19.993,0,24.991,21.021,24.991,50.569C443.527,806.813,437.353,828.423,416.037,828.423z M417.213,741.838
		c-4.998,0-7.056,14.7-7.056,33.811c0,22.051,1.323,36.751,7.056,36.751c4.851,0,6.909-14.7,6.909-33.811
		C424.123,756.538,422.652,741.838,417.213,741.838z"/>
	<path fill="#FFFFFF" d="M479.688,827.1c-4.116-35.134-5.439-38.956-7.792-40.132h-4.557V827.1h-18.375v-99.962
		c0,0,12.642-0.735,23.668-0.735c16.611,0,23.667,10.879,23.667,26.607c0,14.848-5.146,24.403-9.408,27.049
		c4.558,2.353,6.468,7.645,12.349,47.041H479.688z M469.398,741.103h-2.059v31.313h6.469c1.764-2.646,3.675-7.497,3.675-16.171
		C477.483,746.836,474.838,741.103,469.398,741.103z"/>
	<path fill="#FFFFFF" d="M533.195,827.1l-1.91-19.551h-12.79L516.29,827.1h-18.669l16.905-99.962h21.462l16.906,99.962H533.195z
		 M525.698,762.271c-0.44-3.822-0.882-12.937-0.882-12.937s-0.441,9.114-0.882,12.937l-3.822,30.871h9.408L525.698,762.271z"/>
	<path fill="#FFFFFF" d="M577.001,743.749V827.1h-19.11v-83.351h-12.055v-16.611h43.072v16.611H577.001z"/>
	<path fill="#FFFFFF" d="M591.846,827.1v-99.962h19.258V827.1H591.846z"/>
	<path fill="#FFFFFF" d="M641.826,828.423c-20.139,0-25.284-21.021-25.284-50.569c0-30.43,6.321-52.039,27.783-52.039
		c19.993,0,24.991,21.021,24.991,50.569C669.316,806.813,663.142,828.423,641.826,828.423z M643.002,741.838
		c-4.998,0-7.056,14.7-7.056,33.811c0,22.051,1.323,36.751,7.056,36.751c4.852,0,6.91-14.7,6.91-33.811
		C649.912,756.538,648.441,741.838,643.002,741.838z"/>
	<path fill="#FFFFFF" d="M705.771,827.1l-12.789-45.13c-0.883-3.087-2.5-13.818-2.5-13.818s0.883,9.996,0.883,13.672L692.1,827.1
		h-17.346v-99.962h17.787l12.495,44.101c1.029,3.382,2.499,14.406,2.499,14.406s-0.588-11.466-0.588-15.582l-0.882-42.925h17.347
		V827.1H705.771z"/>
</g>
</svg>
