<?xml version="1.0" encoding="utf-8"?>
<!-- Generator: Adobe Illustrator 19.1.0, SVG Export Plug-In . SVG Version: 6.00 Build 0)  -->
<svg version="1.1" id="Layer_1" xmlns="http://www.w3.org/2000/svg" xmlns:xlink="http://www.w3.org/1999/xlink" x="0px" y="0px"
	 viewBox="384 -980.1 1728 2510.1" style="enable-background:new 384 -980.1 1728 2510.1;" xml:space="preserve">
<style type="text/css">
	.st0{fill:#FFFFFF;}
	.st1{fill:#D6EEF0;stroke:#000000;stroke-linejoin:round;stroke-miterlimit:10;}
	.st2{fill:#F5F0EC;stroke:#000000;stroke-linejoin:round;stroke-miterlimit:10;}
	.st3{fill:none;stroke:#000000;stroke-linejoin:round;}
	.st4{fill:#FFFFFF;stroke:#000000;stroke-width:0.25;stroke-linejoin:round;stroke-miterlimit:10;}
	.st5{fill:#FFFFFF;stroke:#000000;stroke-linejoin:round;stroke-miterlimit:10;}
	.st6{fill:#D9C2A3;stroke:#000000;stroke-linejoin:round;stroke-miterlimit:10;}
	.st7{fill:none;stroke:#000000;stroke-linejoin:round;stroke-miterlimit:10;}
	.st8{fill:#F7AFA8;stroke:#000000;stroke-linejoin:round;stroke-miterlimit:10;}
	.st9{fill:none;stroke:#000000;stroke-width:0.25;stroke-linejoin:round;stroke-miterlimit:10;}
	.st10{fill:#D9C2A3;stroke:#000000;stroke-width:0.6;stroke-linejoin:round;stroke-miterlimit:10;}
	.st11{stroke:#000000;stroke-width:0.6;stroke-linejoin:round;stroke-miterlimit:10;}
	.st12{fill:#FFFFFF;stroke:#000000;stroke-width:0.6;stroke-linejoin:round;stroke-miterlimit:10;}
	.st13{fill:#D1CED1;stroke:#000000;stroke-linejoin:round;stroke-miterlimit:10;}
	.st14{fill:#FFFFFF;stroke:#000000;stroke-width:0.75;stroke-linejoin:round;stroke-miterlimit:10;}
	.st15{fill:#FFFFFF;stroke:#000000;stroke-miterlimit:10;}
	.st16{fill:none;stroke:#000000;stroke-miterlimit:10;}
	.st17{opacity:0.7;fill:#FFFFFF;stroke:#FFFFFF;stroke-width:0.25;stroke-miterlimit:10;enable-background:new    ;}
	.st18{fill:#FFCD60;stroke:#000000;stroke-linejoin:round;stroke-miterlimit:10;}
	.st19{fill:#F5F0EC;stroke:#000000;stroke-miterlimit:10;}
	.st20{fill:#FFFFFF;stroke:#000000;stroke-width:0.769;stroke-linejoin:round;stroke-miterlimit:10;}
	.st21{stroke:#000000;stroke-width:0.769;stroke-linejoin:round;stroke-miterlimit:10;}
	.st22{fill:#DCDDDE;stroke:#000000;stroke-width:0.769;stroke-linejoin:round;stroke-miterlimit:10;}
	.st23{fill:#2E2E2F;}
	.st24{fill:#B2D6BD;stroke:#000000;stroke-linejoin:round;stroke-miterlimit:10;}
	.st25{fill:none;stroke:#2E2E2F;stroke-width:0.5;stroke-miterlimit:10;}
</style>
<g>
	<path class="st0" d="M384-970.8h1728V1530H384V-970.8z"/>
	<g>
		<g>
			<path class="st1" d="M620.7,1130.7L462,1077.4l129.1-58.6l158.7,53.3L620.7,1130.7z"/>
			<g>
				<path class="st2" d="M1026.1-276.9l-79.4-26.6l-32.2-73.2l129.1-58.6l32.2,73.2l79.4,26.7L1026.1-276.9z"/>
				<path class="st2" d="M946.7-303.6l129.1-58.6"/>
			</g>
		</g>
		<path class="st3" d="M1121-381.8c-3.6-18-19.5-31.6-38.5-31.6"/>
	</g>
	<path d="M1126-384l-4.2,9.8l-6.3-8.6L1126-384z"/>
	<path d="M1394.9-299.5l-2.6-5.4h2.4l1.4,3.1l1.4-3.1h2.4l-2.6,5.4l2.8,5.6h-2.4l-1.5-3.4l-1.5,3.4h-2.4L1394.9-299.5"/>
	<path d="M1405.4-296.2h-4.4v-2.1l3.2-11.1h2.4l-3.3,11.1h2.2v-4.4h2.2v4.4h1.1v2.1h-1.1v2.3h-2.2L1405.4-296.2L1405.4-296.2z"/>
	<path d="M1411.3-308.3c0.6-0.8,1.5-1.2,2.5-1.2s1.9,0.4,2.5,1.2c0.6,0.7,0.8,1.3,0.8,3c0,1.8,0,2.5-1.1,3.3
		c1.1,0.8,1.1,1.5,1.1,3.8c0,1.9-0.2,2.4-0.6,3.1c-0.5,0.8-1.4,1.4-2.7,1.4c-1.3,0-2.2-0.6-2.7-1.4c-0.5-0.7-0.6-1.2-0.6-3.1
		c0-2.4,0-3,1.1-3.8c-1.1-0.9-1.1-1.5-1.1-3.3C1410.5-307,1410.7-307.6,1411.3-308.3 M1414.9-306.2c0-0.6-0.5-1.1-1.1-1.1
		s-1.1,0.5-1.1,1.1v2.3c0,0.6,0.5,1.1,1.1,1.1s1.1-0.5,1.1-1.1V-306.2 M1414.9-300.1c0-0.6-0.5-1.1-1.1-1.1s-1.1,0.5-1.1,1.1v3.1
		c0,0.6,0.5,1.1,1.1,1.1s1.1-0.5,1.1-1.1V-300.1"/>
	<g>
		<path class="st2" d="M622.4-174.1l-158.8-53.3L592.7-286l158.7,53.3L622.4-174.1z"/>
		<path class="st2" d="M1017.5-187.5l-129.1,58.6l79.4,26.6l129.1-58.6L1017.5-187.5z"/>
		<path class="st2" d="M1186.4-130.7l-79.4-26.7L977.9-98.8l79.4,26.6L1186.4-130.7z"/>
		<path class="st2" d="M1350.7-379.2l79.4,26.7L1301-293.9l-79.4-26.7L1350.7-379.2z"/>
	</g>
	<path d="M1394.9-90.6l-2.6-5.4h2.4l1.4,3.1l1.4-3.1h2.4l-2.6,5.4l2.8,5.6h-2.4l-1.5-3.4l-1.5,3.4h-2.4L1394.9-90.6"/>
	<path d="M1404.9-91.5L1404.9-91.5c-0.2,0.1-0.5,0.2-1,0.2c-0.8,0-1.5-0.4-1.9-1s-0.5-1.2-0.5-3.6c0-2,0.1-2.5,0.5-3.2
		c0.6-1,1.6-1.5,2.8-1.5c1.2,0,2.2,0.6,2.8,1.5c0.4,0.7,0.5,1.1,0.5,3.2c0,1.9-0.1,2.4-0.4,3.2l-2.9,7.8h-2.5L1404.9-91.5
		 M1403.7-94.4c0,0.7,0.5,1.1,1.1,1.1c0.6,0,1.1-0.4,1.1-1.1v-2.9c0-0.7-0.5-1.1-1.1-1.1c-0.6,0-1.1,0.4-1.1,1.1V-94.4"/>
	<path d="M1413.2-94L1413.2-94c0.2-0.1,0.5-0.2,1-0.2c0.8,0,1.5,0.4,1.9,1s0.5,1.2,0.5,3.6c0,2-0.1,2.5-0.5,3.2
		c-0.6,1-1.6,1.5-2.8,1.5c-1.2,0-2.2-0.6-2.8-1.5c-0.4-0.7-0.5-1.1-0.5-3.2c0-1.9,0.1-2.4,0.4-3.2l2.9-7.8h2.5L1413.2-94
		 M1414.3-91.1c0-0.7-0.5-1.1-1.1-1.1s-1.1,0.4-1.1,1.1v2.9c0,0.7,0.5,1.1,1.1,1.1s1.1-0.4,1.1-1.1V-91.1"/>
	<g>
		<path class="st2" d="M1350.7-170.3l79.4,26.6L1301-85l-79.4-26.7L1350.7-170.3z"/>
		<path class="st2" d="M1937.3-240.9l79.4,26.7l-129.1,58.6l-79.4-26.7L1937.3-240.9z"/>
		<path class="st2" d="M1887.6-140.3l-79.4-26.7v-15.3l79.4,26.7V-140.3z"/>
		<path class="st2" d="M2016.7-198.9l-129.1,58.6v-15.3l129.1-58.6V-198.9z"/>
	</g>
	<g>
		<path id="_x30_" class="st4" d="M2016.7-202l-129.1,58.6"/>
	</g>
	<g>
		<path id="_x30__1_" class="st4" d="M2016.7-202l-129.1,58.6"/>
	</g>
	<g>
		<path class="st4" d="M2016.7-205l-129.1,58.6"/>
		<path class="st4" d="M2016.7-208.1l-129.1,58.6"/>
		<path class="st4" d="M2016.7-211.2l-129.1,58.6"/>
	</g>
	<g>
		<path id="_x30__2_" class="st4" d="M2016.7-202l-129.1,58.6"/>
	</g>
	<g>
		<g>
			<path class="st4" d="M1808.4-170.1l79.2,26.7"/>
			<path class="st4" d="M1808.4-173.1l79.2,26.7"/>
			<path class="st4" d="M1808.4-176.2l79.2,26.7"/>
			<path class="st4" d="M1808.4-179.2l79.2,26.7"/>
		</g>
		<path class="st0" d="M1152.9,601v46.2"/>
	</g>
	<path class="st3" d="M1152.9,601v38.5"/>
	<path d="M1147.5,637.9l5.3,9.3l5.3-9.3H1147.5z"/>
	<g>
		<g>
			<path class="st5" d="M1187.6,502.2h26.9v76.7h-26.9V502.2z"/>
			<path class="st5" d="M1159.4,566.5h23v8.5h-23V566.5z"/>
			<path class="st5" d="M1165.3,571.2l5.1,5.1l-15.5,13.3l-2.9-2.9L1165.3,571.2z"/>
		</g>
		<g>
			<ellipse class="st6" cx="1152.9" cy="689.3" rx="22.9" ry="9"/>
			<path class="st6" d="M1188.9,673.4c0-7.8-16.1-14.2-36-14.2s-36,6.3-36,14.2c0,1.9,1,3.7,2.6,5.3l0,0l11.5,13.2l0,0l0.2,0.3l0,0
				c3.1,3.5,11.6,6,21.6,6s18.4-2.5,21.6-6l0,0l11.8-13.5l0,0C1187.9,677.1,1188.9,675.3,1188.9,673.4L1188.9,673.4z"/>
			<ellipse class="st6" cx="1152.9" cy="673.4" rx="36" ry="14.2"/>
			<path class="st6" d="M1174.5,692.2l11.8-13.5"/>
			<path class="st6" d="M1131.3,692.2l-11.8-13.5"/>
		</g>
		<path class="st7" d="M1133.3,685.5c0-4.3,8.8-7.7,19.6-7.7c10.8,0,19.6,3.5,19.6,7.7"/>
		<g>
			<path class="st8" d="M1266.6,238.8l14,4.7l-129.1,58.6l-14-4.7L1266.6,238.8z"/>
			<path class="st8" d="M1266.6,314l14,4.7l-129.1,58.6l-14-4.7L1266.6,314z"/>
			<path class="st8" d="M1280.6,243.5l-129.1,58.6v75.2l129.1-58.6V243.5z"/>
			<path class="st8" d="M1151.5,377.3l-14-4.7v-75.2l14,4.7V377.3z"/>
		</g>
		<g>
			<path class="st2" d="M1280.6,243.5l14,4.7L1165.5,307l-14-4.7L1280.6,243.5z"/>
			<path class="st2" d="M1280.6,318.7l14,4.7L1165.5,382l-14-4.7L1280.6,318.7z"/>
			<path class="st2" d="M1294.5,248.2l-129.1,58.6V382l129.1-58.6V248.2z"/>
			<path class="st2" d="M1165.5,382l-14-4.7v-75.2l14,4.7V382z"/>
		</g>
		<g>
			<g>
				<path class="st4" d="M1160.2,305.3v74.9"/>
				<path class="st4" d="M1157.3,304v75.3"/>
				<path class="st4" d="M1154.4,303.1v75.2"/>
				<path class="st4" d="M1163.1,306v75.2"/>
				<path class="st4" d="M1160.2,305.3l129.4-58.8"/>
				<path class="st4" d="M1157.3,304l128.9-58.6"/>
				<path class="st4" d="M1154.4,303.1l128.7-58.8"/>
				<path class="st4" d="M1163.1,306l129-58.7"/>
			</g>
			<path class="st9" d="M1292.1,247.4l1.3,1.3"/>
		</g>
		<g>
			<path class="st8" d="M1294.5,248.2l14,4.7l-129.1,58.7l-14-4.7L1294.5,248.2z"/>
			<path class="st8" d="M1294.5,323.4l14,4.7l-129.1,58.6l-14-4.7L1294.5,323.4z"/>
			<path class="st8" d="M1308.5,252.9l-129.1,58.7v75.2l129.1-58.6V252.9z"/>
			<path class="st8" d="M1179.4,386.7l-14-4.7v-75.2l14,4.7V386.7z"/>
			<path class="st8" d="M637.1,238.8l14,4.7L522,302.1l-14-4.7L637.1,238.8z"/>
			<path class="st8" d="M637.1,314l14,4.7L522,377.3l-14-4.7L637.1,314z"/>
			<path class="st8" d="M651.1,243.5L522,302.1v75.2l129.1-58.6V243.5z"/>
			<path class="st8" d="M522,377.3l-14-4.7v-75.2l14,4.7V377.3z"/>
			<path class="st8" d="M662.6,216l1.3,1.3"/>
			<path class="st8" d="M665.1,248.2l14,4.7L550,311.6l-14-4.7L665.1,248.2z"/>
			<path class="st8" d="M665.1,323.4l14,4.7L550,386.7l-14-4.7L665.1,323.4z"/>
			<path class="st8" d="M679.1,252.9L550,311.6v75.2l129.1-58.6V252.9z"/>
			<path class="st8" d="M550,386.7l-14-4.7v-75.2l14,4.7V386.7z"/>
		</g>
	</g>
	<path class="st0" d="M1307.7,601v46.2"/>
	<path class="st3" d="M1307.7,601v38.5"/>
	<path d="M1302.4,637.9l5.3,9.3l5.3-9.3H1302.4z"/>
	<g>
		<ellipse class="st6" cx="1307.7" cy="689.3" rx="22.9" ry="9"/>
		<path class="st6" d="M1343.7,673.4c0-7.8-16.1-14.2-36-14.2c-19.9,0-36,6.3-36,14.2c0,1.9,1,3.7,2.6,5.3l0,0l11.5,13.2l0,0
			l0.2,0.3l0,0c3.1,3.5,11.6,6,21.6,6s18.4-2.5,21.6-6l0,0l11.8-13.5l0,0C1342.8,677.1,1343.7,675.3,1343.7,673.4L1343.7,673.4z"/>
		<ellipse class="st6" cx="1307.7" cy="673.4" rx="36" ry="14.2"/>
	</g>
	<path class="st0" d="M1288.1,685.5c0-4.3,8.8-7.7,19.6-7.7s19.6,3.5,19.6,7.7c0,0-11.3,2.1-19.7,2.1
		C1299.3,687.6,1288.1,685.5,1288.1,685.5"/>
	<g>
		<g>
			<path class="st6" d="M1329.3,692.2l11.8-13.5"/>
			<path class="st6" d="M1286.2,692.2l-11.8-13.5"/>
		</g>
		<path class="st7" d="M1288.1,685.5c0-4.3,8.8-7.7,19.6-7.7s19.6,3.5,19.6,7.7"/>
		<g>
			<path class="st10" d="M1316,577.3c-0.8,0.8-2.1,0.8-2.9,0c-0.8-0.8-0.8-2.1,0-2.9l22.7-22.7c0.8-0.8,2.1-0.8,2.9,0s0.8,2.1,0,2.9
				L1316,577.3z"/>
			<path class="st11" d="M1304.3,570.5h14v17.2h-14V570.5z"/>
		</g>
		<ellipse class="st7" cx="1307.7" cy="673.4" rx="36" ry="14.2"/>
	</g>
	<path class="st0" d="M499.6,1344.3v46.2"/>
	<path class="st3" d="M499.6,1344.3v38.5"/>
	<path d="M494.3,1381.2l5.3,9.2l5.3-9.2H494.3z"/>
	<g>
		<g>
			<path class="st5" d="M534.4,1245.6h26.9v76.7h-26.9V1245.6z"/>
			<path class="st5" d="M506.2,1309.8h23v8.6h-23V1309.8z"/>
			<path class="st5" d="M512.1,1314.5l5.1,5.1l-15.5,13.2l-2.9-2.9L512.1,1314.5z"/>
		</g>
		<g>
			<ellipse class="st6" cx="499.6" cy="1432.6" rx="22.9" ry="9"/>
			<path class="st6" d="M535.6,1416.7c0-7.8-16.1-14.2-36-14.2s-36,6.3-36,14.2c0,1.9,1,3.7,2.6,5.3l0,0l11.5,13.2l0,0l0.2,0.3l0,0
				c3.1,3.5,11.6,6,21.6,6s18.4-2.5,21.6-6l0,0l11.8-13.5l0,0C534.7,1420.4,535.6,1418.6,535.6,1416.7L535.6,1416.7z"/>
			<ellipse class="st6" cx="499.6" cy="1416.7" rx="36" ry="14.2"/>
			<path class="st6" d="M521.2,1435.6l11.8-13.5"/>
			<path class="st6" d="M478.1,1435.6l-11.8-13.5"/>
		</g>
		<path class="st7" d="M480,1428.8c0-4.3,8.8-7.7,19.6-7.7c10.8,0,19.6,3.5,19.6,7.7"/>
	</g>
	<path class="st0" d="M663.9,1344.3v46.2"/>
	<path class="st3" d="M663.9,1344.3v38.5"/>
	<path d="M658.6,1381.2l5.3,9.2l5.3-9.2H658.6z"/>
	<g>
		<g>
			<path class="st12" d="M672.2,1320.6c-0.8,0.8-2.1,0.8-2.9,0c-0.8-0.8-0.8-2.1,0-2.9L692,1295c0.8-0.8,2.1-0.8,2.9,0
				s0.8,2.1,0,2.9L672.2,1320.6z"/>
			<path class="st11" d="M660.5,1313.8h14v17.1h-14V1313.8z"/>
		</g>
		<g>
			<ellipse class="st6" cx="663.9" cy="1432.6" rx="22.9" ry="9"/>
			<path class="st6" d="M699.9,1416.7c0-7.8-16.1-14.2-36-14.2c-19.9,0-36,6.3-36,14.2c0,1.9,1,3.7,2.6,5.3l0,0l11.5,13.2l0,0
				l0.2,0.3l0,0c3.1,3.5,11.6,6,21.6,6s18.4-2.5,21.6-6l0,0l11.8-13.5l0,0C699,1420.4,699.9,1418.6,699.9,1416.7L699.9,1416.7z"/>
			<ellipse class="st6" cx="663.9" cy="1416.7" rx="36" ry="14.2"/>
		</g>
	</g>
	<path class="st0" d="M644.4,1428.8c0-4.3,8.8-7.7,19.6-7.7c10.8,0,19.6,3.5,19.6,7.7c0,0-11.3,2.1-19.7,2.1
		S644.3,1428.8,644.4,1428.8"/>
	<g>
		<g>
			<path class="st6" d="M685.5,1435.5l11.8-13.5"/>
			<path class="st6" d="M642.4,1435.5l-11.8-13.5"/>
		</g>
		<g>
			<path class="st7" d="M644.4,1428.8c0-4.3,8.8-7.7,19.6-7.7c10.8,0,19.6,3.5,19.6,7.7"/>
			<ellipse class="st7" cx="663.9" cy="1416.7" rx="36" ry="14.2"/>
		</g>
		<path class="st5" d="M1485.3,644.3v15.3"/>
		<path class="st2" d="M1485.3,644.3h129.1v15.3h-129.1V644.3z"/>
	</g>
	<g>
		<path id="_x31_" class="st4" d="M1614.3,656.5h-129.1"/>
	</g>
	<g>
		<path id="_x31__1_" class="st4" d="M1614.3,656.5h-129.1"/>
	</g>
	<g>
		<path class="st4" d="M1614.3,653.5h-129.1"/>
		<path class="st4" d="M1614.3,650.4h-129.1"/>
		<path class="st4" d="M1614.3,647.3h-129.1"/>
	</g>
	<g>
		<path id="_x31__2_" class="st4" d="M1614.3,656.5h-129.1"/>
	</g>
	<g>
		<g>
			<g>
				<path class="st8" d="M1465,659.6h169.6v15.9H1465V659.6z"/>
				<path class="st8" d="M1465,628.3h169.6v15.9H1465V628.3z"/>
			</g>
			<g>
				<path class="st5" d="M1438.6,520.7h64v2.8h-64V520.7z"/>
				<path class="st5" d="M1493.8,520.7V518h-6.2v2.7v2.8v59.4v16.6v20.8h1.4v3.8h-4.1v4.3h11.8v-4.3h-4.1v-3.8h1.4v-20.8v-16.6
					v-59.4v-2.8H1493.8z"/>
				<circle class="st5" cx="1502.6" cy="521.9" r="2.7"/>
				<path class="st5" d="M1487.5,518h6.2v102.2h-6.2V518z"/>
			</g>
			<path class="st13" d="M1487.1,582.8c0,0-3.7-0.4-3.7,2c-17.5,0-37.1-2.9-43.9,4c-11.3,11.3-11.5,22.1-11.5,46.7
				c0,24.6,0,46.8,9,55.8c2.9,2.9,11.3,6.9,26.9,6.9c24.3,0,34.9-22.8,34.9-22.8h-15.4v6c0,0-26,3.5-29.5,0c-3.2-3.2-3-35.2-3-45.2
				c0-9.9,0.6-34.9,3.1-37.4c2.5-2.5,19.7-1.4,29.3-1.4v1.9h3.7h7.1h3.8v-14.6c0-2.3-3.7-2-3.7-2L1487.1,582.8L1487.1,582.8z"/>
			<g>
				<circle class="st5" cx="1440.2" cy="521.9" r="2.7"/>
				<path class="st14" d="M1596.9,520.7h64v2.8h-64V520.7z"/>
			</g>
		</g>
		<g>
			<path class="st15" d="M1605.8,520.7V518h6.2v2.7v2.8v59.4v16.6v20.8h-1.4v3.8h4.1v4.3H1603v-4.3h4.1v-3.8h-1.4v-20.8v-16.6v-59.4
				v-2.8H1605.8z"/>
			<circle class="st14" cx="1596.9" cy="521.9" r="2.7"/>
		</g>
		<path class="st16" d="M1605.8,518h6.2v102.2h-6.2V518z"/>
		<g>
			<path class="st13" d="M1612.5,582.8c0,0,3.7-0.4,3.7,2c17.5,0,37.1-2.9,43.9,4c11.3,11.3,11.5,22.1,11.5,46.7
				c0,24.6,0,46.8-9,55.8c-2.9,2.9-11.3,6.9-26.9,6.9c-24.3,0-34.9-22.8-34.9-22.8h15.4v6c0,0,26,3.5,29.5,0c3.2-3.2,3-35.2,3-45.2
				s-0.6-34.9-3.1-37.4c-2.5-2.5-19.7-1.4-29.3-1.4v1.9h-3.7h-7.1h-3.8v-14.6c0-2.3,3.7-2,3.7-2L1612.5,582.8L1612.5,582.8z"/>
			<g>
				<circle class="st14" cx="1659.4" cy="521.9" r="2.7"/>
				<g>
					<path class="st4" d="M1485.2,644.8l15.2,15.2"/>
					<path class="st4" d="M1497.9,644.8l15.2,15.2"/>
					<path class="st4" d="M1510.5,644.8l15.2,15.2"/>
					<path class="st4" d="M1523.2,644.8l15.2,15.2"/>
					<path class="st4" d="M1535.8,644.8L1551,660"/>
					<path class="st4" d="M1548.5,644.8l15.2,15.2"/>
					<path class="st4" d="M1561.2,644.8l15.2,15.2"/>
					<path class="st4" d="M1573.8,644.8L1589,660"/>
					<path class="st4" d="M1586.5,644.8l15.2,15.2"/>
					<path class="st4" d="M1599.2,644.8l15.2,15.2"/>
					<path class="st4" d="M1614.4,644.8l-15.2,15.2"/>
					<path class="st4" d="M1601.7,644.8l-15.2,15.2"/>
					<path class="st4" d="M1589,644.8l-15.2,15.2"/>
					<path class="st4" d="M1576.4,644.8l-15.2,15.2"/>
					<path class="st4" d="M1563.7,644.8l-15.2,15.2"/>
					<path class="st4" d="M1551.1,644.8l-15.2,15.2"/>
					<path class="st4" d="M1538.4,644.8l-15.2,15.2"/>
					<path class="st4" d="M1525.7,644.8l-15.2,15.2"/>
					<path class="st4" d="M1513.1,644.8l-15.2,15.2"/>
					<path class="st4" d="M1500.4,644.8l-15.2,15.2"/>
				</g>
			</g>
		</g>
	</g>
	<path class="st0" d="M1526.7,705.7h46.2"/>
	<path class="st3" d="M1526.7,705.7h38.5"/>
	<path d="M1563.6,711l9.2-5.3l-9.2-5.3V711z"/>
	<path class="st0" d="M1486.3,645.8h37v13.1h-37V645.8z"/>
	<g>
		<g>
			<path class="st10" d="M1536.6,654.5c-1.1,0-2.1-0.9-2.1-2.1c0-1.1,0.9-2,2.1-2h32.1c1.1,0,2,0.9,2,2s-0.9,2.1-2,2.1H1536.6z"/>
			<path class="st11" d="M1523.3,645.4h17.2v14h-17.2V645.4z"/>
		</g>
		<g>
			<path class="st5" d="M1805.4,644.3v15.3"/>
			<path class="st5" d="M1805.4,644.3h129.1v15.3h-129.1V644.3z"/>
		</g>
	</g>
	<g>
		<path id="_x32_" class="st4" d="M1934.5,656.5h-129.1"/>
	</g>
	<g>
		<path id="_x32__1_" class="st4" d="M1934.5,656.5h-129.1"/>
	</g>
	<g>
		<path class="st4" d="M1934.5,653.5h-129.1"/>
		<path class="st4" d="M1934.5,650.4h-129.1"/>
		<path class="st4" d="M1934.5,647.3h-129.1"/>
	</g>
	<g>
		<path id="_x32__2_" class="st4" d="M1934.5,656.5h-129.1"/>
	</g>
	<g>
		<g>
			<g>
				<path class="st8" d="M1785.1,659.6h169.6v15.9h-169.6V659.6z"/>
				<path class="st8" d="M1785.1,628.3h169.6v15.9h-169.6V628.3z"/>
			</g>
			<path class="st14" d="M1758.8,520.7h64v2.8h-64V520.7z"/>
		</g>
		<g>
			<path class="st15" d="M1813.9,520.7V518h-6.2v2.7v2.8v59.4v16.6v20.7h1.4v3.8h-4.1v4.3h11.7V624h-4.1v-3.8h1.3v-20.8v-16.6v-59.4
				L1813.9,520.7z"/>
			<circle class="st14" cx="1822.8" cy="521.9" r="2.7"/>
		</g>
		<path class="st16" d="M1807.7,518h6.2v102.2h-6.2V518z"/>
		<g>
			<path class="st13" d="M1807.2,582.8c0,0-3.7-0.4-3.7,2c-17.5,0-37.1-2.9-43.9,4c-11.3,11.3-11.5,22.1-11.5,46.7
				c0,24.6,0,46.8,9,55.8c2.9,2.9,11.3,6.9,26.9,6.9c24.3,0,34.9-22.8,34.9-22.8h-15.4v6c0,0-26,3.5-29.5,0c-3.2-3.2-3-35.2-3-45.2
				s0.6-34.9,3.1-37.4c2.5-2.5,19.7-1.4,29.3-1.4v1.9h3.7h7.1h3.8v-14.6c0-2.3-3.7-2-3.7-2L1807.2,582.8L1807.2,582.8z"/>
			<g>
				<circle class="st14" cx="1760.3" cy="521.9" r="2.7"/>
				<path class="st14" d="M1917.1,520.6h64v2.8h-64V520.6z"/>
			</g>
		</g>
		<g>
			<path class="st15" d="M1926,520.6v-2.7h6.2v2.7v2.8v59.4v16.6v20.7h-1.4v3.8h4.1v4.3h-11.8v-4.3h4.1v-3.8h-1.4v-20.8v-16.6v-59.4
				v-2.7H1926z"/>
			<circle class="st14" cx="1917.1" cy="521.9" r="2.7"/>
		</g>
		<path class="st16" d="M1926,518h6.2v102.2h-6.2V518z"/>
		<g>
			<path class="st13" d="M1932.6,582.8c0,0,3.7-0.4,3.7,2c17.5,0,37.1-2.9,43.9,4c11.3,11.3,11.5,22.1,11.5,46.7
				c0,24.6,0,46.8-9,55.8c-2.9,2.9-11.3,6.9-26.9,6.9c-24.3,0-34.9-22.8-34.9-22.8h15.4v6c0,0,26,3.5,29.5,0c3.2-3.2,3-35.2,3-45.2
				c0-9.9-0.6-34.9-3.1-37.4c-2.5-2.5-19.7-1.4-29.3-1.4v1.9h-3.7h-7.1h-3.8v-14.6c0-2.3,3.7-2,3.7-2L1932.6,582.8L1932.6,582.8z"/>
			<circle class="st14" cx="1979.5" cy="521.9" r="2.7"/>
		</g>
	</g>
	<path class="st0" d="M1806.5,645.4h126.8v13.1h-126.8V645.4z"/>
	<g>
		<g>
			<path class="st10" d="M2015.5,654c-1.1,0-2-0.9-2-2s0.9-2.1,2-2.1h32.1c1.1,0,2.1,0.9,2.1,2.1c0,1.1-0.9,2-2.1,2H2015.5z"/>
			<path class="st11" d="M2002.3,644.9h17.2v14h-17.2V644.9z"/>
		</g>
		<path class="st1" d="M961.3,1130.7l-158.7-53.3l129.1-58.6l158.7,53.3L961.3,1130.7z"/>
		<g>
			<path class="st4" d="M874.1,1101.4l129.1-58.6"/>
			<path class="st4" d="M877.7,1102.6l129.1-58.6"/>
			<path class="st4" d="M886.1,1105.4l129.1-58.6"/>
			<path class="st4" d="M889.7,1106.7l61.2-27.7"/>
		</g>
		<path class="st7" d="M1017.3,1018.9c4,4,11.1-4.3,7.3-7.9c-2.2-2-3.5-2.3-11,5.2c-25.2,25.2-33,33-33,33"/>
	</g>
	<path d="M983.4,1047.9l-32.6,31l31-32.6L983.4,1047.9z"/>
	<path class="st0" d="M1039.9,1028.6l43.5-19.8"/>
	<path class="st3" d="M1039.9,1028.6l36.5-16.6"/>
	<path d="M1077.2,1017.5l6.2-8.7l-10.6-1L1077.2,1017.5z"/>
	<g>
		<path class="st1" d="M1295.9,1130.7l-158.7-53.3l129.1-58.6l158.7,53.3L1295.9,1130.7z"/>
		<g>
			<path class="st4" d="M1208.8,1101.4l129.1-58.6"/>
			<path class="st4" d="M1212.4,1102.6l129.1-58.6"/>
			<path class="st4" d="M1220.7,1105.4l45.7-20.8"/>
		</g>
		<path class="st7" d="M1332.8,1024.6c4,4,11.1-4.3,7.3-7.9c-2.2-2-3.5-2.3-11,5.2c-25.2,25.2-33,33-33,33"/>
	</g>
	<path d="M1299,1053.6l-32.6,31.1l31-32.6L1299,1053.6z"/>
	<path class="st0" d="M1374.6,1028.6l43.5-19.8"/>
	<path class="st3" d="M1374.6,1028.6l36.5-16.6"/>
	<path d="M1411.9,1017.5l6.2-8.7l-10.6-1L1411.9,1017.5z"/>
	<path class="st3" d="M1678,1014.2c-3.6-18-19.5-31.6-38.5-31.6"/>
	<path d="M1683,1012.1l-4.2,9.8l-6.3-8.6L1683,1012.1z"/>
	<g>
		<g>
			<path class="st1" d="M1586.6,1130.7l-71.6-24l-15.6-5.2l-24.5-71.2l129.1-58.7l24.5,71.2l15.7,5.3l71.4,24L1586.6,1130.7z"/>
			<g>
				<path class="st4" d="M1499.4,1101.4l129.1-58.6"/>
				<path class="st4" d="M1503,1102.6l129.1-58.6"/>
				<path class="st4" d="M1511.3,1105.4l129.1-58.6"/>
				<path class="st4" d="M1514.9,1106.7l129.3-58.6"/>
			</g>
		</g>
		<path class="st3" d="M1964.7,987.7c18,3.6,31.6,19.5,31.6,38.5"/>
	</g>
	<path d="M1965.6,993.3l-8.6-6.3l9.8-4.2L1965.6,993.3z"/>
	<g>
		<g>
			<path class="st1" d="M1831.7,1107.6l-24.5,23.1l-15.5-5.2l-24.5-71.1l129.1-58.6l24.5,71.2l15.8,5.3l24.3-54.6L1831.7,1107.6z"/>
			<path class="st1" d="M1791.7,1125.4l129.1-58.6"/>
			<path class="st1" d="M1795.3,1126.6l129.1-58.6"/>
			<path class="st1" d="M1803.6,1129.4l129.1-58.6"/>
			<path class="st1" d="M1807.2,1130.7l129.3-58.6"/>
			<path class="st1" d="M1936.5,1072.1l-129.3,58.6l24.5-54.5l129.1-58.6L1936.5,1072.1z"/>
			<path class="st1" d="M1232.6,1428.6l-24.5,23.1l-15.6-5.2l-24.5-71.2l129.1-58.6l24.5,71.2l15.7,5.3l24.3-54.6L1232.6,1428.6z"/>
			<path class="st1" d="M1192.6,1446.5l129.1-58.6"/>
			<path class="st1" d="M1196.2,1447.7l129.1-58.6"/>
			<path class="st1" d="M1204.6,1450.5l129.1-58.6"/>
			<path class="st1" d="M1208.2,1451.7l129.3-58.6"/>
			<path class="st1" d="M1337.4,1393.1l-129.2,58.6l24.5-54.5l129.1-58.6L1337.4,1393.1z"/>
		</g>
		<path class="st2" d="M1322.5,1205.8l14,4.7l-129.1,58.6l-14-4.7L1322.5,1205.8z"/>
		<path class="st5" d="M1322.5,1312.4l14,4.7l-129.1,58.6l-14-4.7L1322.5,1312.4z"/>
		<g>
			<path class="st2" d="M1336.5,1210.6l-129.1,58.6v106.6l129.1-58.6V1210.6z"/>
			<path class="st2" d="M1207.4,1375.8l-14-4.7v-106.6l14,4.7V1375.8z"/>
		</g>
		<g>
			<path class="st4" d="M1202.1,1267.4V1374"/>
			<path class="st4" d="M1199.2,1266.4V1373"/>
			<path class="st4" d="M1196.3,1265.5v106.6"/>
			<path class="st4" d="M1205,1268.4V1375"/>
			<path class="st4" d="M1202.1,1267.4l129.4-58.5"/>
			<path class="st4" d="M1199.2,1266.4l128.9-58.7"/>
			<path class="st4" d="M1196.3,1265.5l128.7-58.8"/>
			<path class="st4" d="M1205,1268.4l129-58.7"/>
		</g>
	</g>
	<path class="st0" d="M1378.5,1244.6v46.2"/>
	<path class="st3" d="M1378.5,1244.6v38.5"/>
	<path d="M1373.2,1281.6l5.3,9.2l5.3-9.2H1373.2z"/>
	<g>
		<g>
			<path class="st17" d="M1213.4,1437.1l-19.9,9.3l13.5,4.6L1213.4,1437.1z"/>
			<g>
				<path class="st5" d="M1506.4,1417.1l-24.5,23.1l-15.6-5.2l0.8-91.3l129.1-58.6l-0.8,91.3l15.7,5.3l-0.1-92.3L1506.4,1417.1z"/>
				<g>
					<path class="st4" d="M1466.4,1435l129.1-58.6"/>
					<path class="st4" d="M1470,1436.2l129.1-58.6"/>
					<path class="st4" d="M1478.3,1439l129.1-58.6"/>
					<path class="st4" d="M1481.9,1440.3l129.3-58.6"/>
				</g>
			</g>
		</g>
		<g>
			<path class="st2" d="M1596.2,1269.8l14,4.7l-129.1,58.6l-14-4.7L1596.2,1269.8z"/>
			<path class="st5" d="M1596.2,1376.4l14,4.7l-129.1,58.6l-14-4.7L1596.2,1376.4z"/>
			<g>
				<path class="st2" d="M1610.2,1274.6l-129.1,58.6v106.6l129.1-58.6V1274.6z"/>
				<path class="st2" d="M1481.1,1439.8l-14-4.7v-106.6l14,4.7V1439.8z"/>
			</g>
			<g>
				<path class="st4" d="M1475.8,1331.4V1438"/>
				<path class="st4" d="M1472.9,1330.4V1437"/>
				<path class="st4" d="M1470,1329.5v106.6"/>
				<path class="st4" d="M1478.7,1332.4V1439"/>
				<path class="st4" d="M1475.8,1331.4l129.4-58.5"/>
				<path class="st4" d="M1472.9,1330.4l128.9-58.7"/>
				<path class="st4" d="M1470,1329.5l128.7-58.8"/>
				<path class="st4" d="M1478.7,1332.4l129-58.7"/>
			</g>
			<path class="st1" d="M1611.2,1381.6l-129.3,58.6l0.1-92.3l129.1-58.6L1611.2,1381.6z"/>
		</g>
	</g>
	<path class="st0" d="M1875,1438l43.5-19.8"/>
	<path class="st3" d="M1875,1438l36.5-16.6"/>
	<path d="M1912.3,1426.9l6.2-8.7l-10.6-1L1912.3,1426.9z"/>
	<g>
		<path class="st2" d="M1799.4,1439.2l-79.4-26.6v-15.3l79.4,26.7V1439.2z"/>
		<path class="st2" d="M1928.5,1380.6l-129.1,58.6V1427l129.1-58.6V1380.6z"/>
	</g>
	<g>
		<path id="_x33_" class="st4" d="M1928.5,1377.5l-129.1,58.6"/>
	</g>
	<g>
		<path id="_x33__1_" class="st4" d="M1928.5,1377.5l-129.1,58.6"/>
	</g>
	<g>
		<path class="st4" d="M1928.5,1374.5l-129.1,58.6"/>
		<path class="st4" d="M1928.5,1371.4l-129.1,58.6"/>
		<path class="st4" d="M1928.5,1368.3l-129.1,58.6"/>
	</g>
	<g>
		<path id="_x33__2_" class="st4" d="M1928.5,1377.5l-129.1,58.6"/>
	</g>
	<g>
		<g>
			<g>
				<g>
					<path class="st4" d="M1720.2,1409.5l79.2,26.7"/>
					<path class="st4" d="M1720.2,1406.4l79.2,26.7"/>
					<path class="st4" d="M1720.2,1403.3l79.2,26.7"/>
					<path class="st4" d="M1720.2,1400.3l79.2,26.7"/>
				</g>
				<path class="st2" d="M1849.1,1338.6l70.3,23.6v3l9,3.1l-129.1,58.6l-9-3.1v-3l-70.4-23.6L1849.1,1338.6z"/>
				<path class="st1" d="M1849.1,1338.6l70.4,23.6l-129.1,58.6l-70.4-23.6L1849.1,1338.6z"/>
				<path class="st4" d="M1790.5,1423.9l129.1-58.6"/>
				<path class="st18" d="M1961.7,1321.9c0.5,1.4-13.4,10-15.9,12.2s-24.2,21.1-24.7,22.3c-0.4,1.2,0.5,1.7-0.3,2s-3.1-1-3.1-1
					l-6.5,6.5h-0.9l-7,7l-2.5-8.8l4.1-4.1l-0.2-0.9l5-5c0,0-1-0.7,0-1.7c0.9-1,29.4-30.8,29.4-30.8s4.5-4.4,9.1-3.7
					C1952.7,1316.8,1960.5,1318.8,1961.7,1321.9L1961.7,1321.9z"/>
			</g>
			<path class="st19" d="M1949.5,1324.8l-5.7-5.7l-43,43l2.6,8.8L1949.5,1324.8z"/>
			<g>
				<path class="st18" d="M1909.6,1352.2c0,0-1-0.7,0-1.7c0.9-1,29.4-30.8,29.4-30.8s4.5-4.4,9.1-3.7c4.6,0.8,12.4,2.8,13.6,5.9
					c0.5,1.4-13.4,10-15.9,12.2s-24.2,21.1-24.7,22.3c-0.4,1.2,0.5,1.7-0.3,2s-3.1-1-3.1-1L1909.6,1352.2L1909.6,1352.2z"/>
				<path class="st2" d="M1938.4,1333l-2.7-2.7l-23.5,23.5l3.1,2.4L1938.4,1333z"/>
				<g>
					<path class="st20" d="M1953.4,1323.3c-0.4,0.4-0.4,1.1,0,1.5s1.1,0.4,1.5,0l1.7-1.7c0.4-0.4,0.4-1.1,0-1.5s-1.1-0.4-1.5,0
						L1953.4,1323.3L1953.4,1323.3z"/>
					<path class="st4" d="M1907.7,1358l1.2,4.7"/>
					<g>
						<path class="st20" d="M1946.1,1325.6l-4.6-1.2l-3.5,3.4l2.9,2.9L1946.1,1325.6z"/>
						<path class="st20" d="M1912.1,1353.6l20.3-20.3"/>
						<path class="st20" d="M1915.5,1356.1l20-20"/>
					</g>
					<g>
						<path class="st4" d="M1924.1,1341.6l1.2,4.7"/>
						<path class="st4" d="M1920.8,1344.9l1.2,4.7"/>
						<path class="st4" d="M1917.6,1348.2l1.2,4.7"/>
						<path class="st4" d="M1914.3,1351.4l1.2,4.7"/>
						<path class="st4" d="M1911,1354.7l1.2,4.7"/>
						<path class="st4" d="M1903.8,1359.1l2.4,9"/>
					</g>
				</g>
				<g>
					<circle class="st21" cx="1936.8" cy="1331.4" r="4.9"/>
					<circle class="st20" cx="1936.8" cy="1331.4" r="1.6"/>
					<g>
						<path class="st22" d="M1911.2,1363.9h-3c0,0-1.7-0.4,0.7-2.8c0,0,1.1-1.3,1.7-1.6c0.7-0.3,2-0.5,2.2-0.7s2.7-2.7,2.7-2.7
							l2.2,1.3L1911.2,1363.9L1911.2,1363.9z"/>
						<path class="st22" d="M1904.7,1357.2c0,0,0.4,2.7,1.2,2.4c0.8-0.3,2-1.7,2.7-2.3c0.7-0.7,3.5-3.6,3.5-3.6l-2.4-1.5
							L1904.7,1357.2L1904.7,1357.2z"/>
					</g>
				</g>
				<g>
					<path class="st1" d="M944.5,1446.5l-158.7-53.3l129.1-58.6l158.7,53.3L944.5,1446.5z"/>
					<path class="st1" d="M857.4,1417.3l129.1-58.6"/>
					<path class="st1" d="M861,1418.5l129.1-58.6"/>
					<path class="st1" d="M869.3,1421.3l129.1-58.6"/>
					<path class="st1" d="M872.9,1422.5l128.8-58.4"/>
				</g>
			</g>
		</g>
		<path class="st17" d="M954.4,1373.2l-97,44.1l15.5,5.3l90.4-41L954.4,1373.2z"/>
	</g>
	<path class="st0" d="M1001,1353.6l43.5-19.8"/>
	<path class="st3" d="M1001,1353.6l36.5-16.6"/>
	<path d="M1038.3,1342.5l6.2-8.7l-10.6-1L1038.3,1342.5z"/>
	<g>
		<path class="st12" d="M968.6,1369.9c-0.8,0.8-2.1,0.8-2.9,0c-0.8-0.8-0.8-2.1,0-2.9l22.7-22.7c0.8-0.8,2.1-0.8,2.9,0
			c0.8,0.8,0.8,2.1,0,2.9L968.6,1369.9z"/>
		<path class="st11" d="M956.8,1363.2h14v17.1h-14V1363.2z"/>
	</g>
	<g>
		<path class="st23" d="M468.2-970.4h6.4l8.6,24.7h0.1l8.5-24.7h6.5v46.6h-6.7v-28.3h-0.1l-6.6,20h-3.3l-6.5-20H475v28.3h-6.7
			L468.2-970.4"/>
		<path class="st23" d="M513.5-970.4h5.6l10.4,46.6h-6.7l-2-10h-9.1l-2,10H503L513.5-970.4 M516.3-957L516.3-957l-3.4,16.9h6.7
			L516.3-957"/>
		<path class="st23" d="M534.2-970.4h6.7v21.3h0.1l9.8-21.3h6.7l-9.1,18.7l10.8,27.9H552l-7.6-20.7l-3.6,6.7v13.9h-6.7L534.2-970.4
			L534.2-970.4z"/>
		<path class="st23" d="M563.7-970.4h19.9v6.3h-13.2v13.7h11.5v6.3h-11.5v13.7h13.2v6.7h-19.9V-970.4"/>
		<path class="st23" d="M608.8-970.4h5.6l10.4,46.6h-6.7l-2-10H607l-2,10h-6.7L608.8-970.4 M611.6-957L611.6-957l-3.4,16.9h6.7
			L611.6-957"/>
		<path class="st23" d="M641.5-970.4h9.8c8.6,0,11.8,5.7,11.8,11.8v1.7c0,5-1.6,6.8-4.6,8.6c3.1,1.5,4.6,4.3,4.6,9.2v2.6
			c0,8.1-3.9,12.7-12.5,12.7h-9.1V-970.4 M648.2-951.3h3c4.5,0,5.6-2.3,5.6-6.5c0-4.1-1.5-6.3-5.9-6.3h-2.7V-951.3 M648.2-930.5h2.9
			c5.4,0,5.8-3.3,5.8-7.9c0-4.6-0.9-7.1-5.7-7.1h-2.9L648.2-930.5"/>
		<path class="st23" d="M669.1-959.4c0-7.6,5.8-11.4,11.2-11.4s11.2,3.8,11.2,11.4v24.6c0,7.6-5.8,11.4-11.2,11.4
			s-11.2-3.8-11.2-11.4V-959.4 M675.8-934.8c0,3.2,2.1,4.7,4.5,4.7s4.5-1.5,4.5-4.7v-24.6c0-3.2-2.1-4.7-4.5-4.7s-4.5,1.5-4.5,4.7
			V-934.8"/>
		<path class="st23" d="M697.2-959.4c0-7.6,5.8-11.4,11.2-11.4s11.2,3.8,11.2,11.4v24.6c0,7.6-5.8,11.4-11.2,11.4
			s-11.2-3.8-11.2-11.4V-959.4 M703.9-934.8c0,3.2,2.1,4.7,4.5,4.7c2.4,0,4.5-1.5,4.5-4.7v-24.6c0-3.2-2.1-4.7-4.5-4.7
			c-2.4,0-4.5,1.5-4.5,4.7V-934.8"/>
		<path class="st23" d="M725.7-970.4h6.7v21.3h0.1l9.8-21.3h6.7l-9.1,18.7l10.8,27.9h-7.1l-7.6-20.7l-3.6,6.7v13.9h-6.7L725.7-970.4
			L725.7-970.4z"/>
		<path class="st23" d="M475-477.9h-2.7v-0.6c0-1.2-0.5-2.2-1.9-2.2c-1.5,0-1.8,1.2-1.8,2.4c0,1.4,0.1,1.9,1.5,2.5l2,0.8
			c2.4,0.9,2.8,2.4,2.8,5.1c0,3.1-1.2,5.5-4.6,5.5c-2.6,0-4.6-1.9-4.6-4.4v-1h2.7v0.8c0,1,0.5,1.9,1.9,1.9c1.8,0,1.9-1.1,1.9-2.8
			c0-2-0.2-2.3-1.5-2.8l-1.9-0.8c-2.3-0.9-2.9-2.5-2.9-4.8c0-2.8,1.5-5.1,4.6-5.1c2.7,0,4.4,2.1,4.4,4.2v1.3"/>
		<path class="st23" d="M479.7-480.8h-3.1v-2.5h8.8v2.5h-3.1v16.1h-2.7L479.7-480.8L479.7-480.8z"/>
		<path class="st23" d="M489.4-483.3h2.2l4.2,18.6h-2.7l-0.8-4h-3.6l-0.8,4h-2.7L489.4-483.3 M490.5-478L490.5-478l-1.4,6.8h2.7
			L490.5-478"/>
		<path class="st23" d="M506-468.9c0,2.3-1.9,4.3-4.2,4.3c-2,0-4.4-1-4.4-4.4v-10.3c0-2.4,1.8-4.3,4.3-4.3s4.3,1.9,4.3,4.4v1h-2.7
			v-0.9c0-1-0.6-1.9-1.6-1.9c-1.3,0-1.6,0.9-1.6,2.2v9.5c0,1.1,0.4,1.9,1.6,1.9c0.7,0,1.7-0.4,1.7-1.9v-0.9h2.7L506-468.9"/>
		<path class="st23" d="M508.5-483.3h2.7v8.5h0.1l3.9-8.5h2.7l-3.6,7.5l4.3,11.2h-2.8l-3-8.3l-1.4,2.7v5.6h-2.7v-18.7"/>
		<path class="st23" d="M525-483.3h4c1.5,0,2.5,0.3,3.5,1.3c0.9,1,1.2,2.1,1.2,4.4c0,1.6-0.1,2.7-0.8,3.7c-0.7,1.2-1.9,1.9-3.9,1.9
			h-1.4v7.3H525V-483.3 M527.7-474.5h1.3c2.2,0,2.2-1.3,2.2-3.1s0-3.2-2.1-3.2h-1.4V-474.5"/>
		<path class="st23" d="M538.4-483.3h2.2l4.2,18.6h-2.7l-0.8-4h-3.6l-0.8,4h-2.7L538.4-483.3 M539.5-478L539.5-478l-1.4,6.8h2.7
			L539.5-478"/>
		<path class="st23" d="M546.8-483.3h4c1.5,0,2.5,0.3,3.5,1.3c0.9,1,1.2,2.1,1.2,4.4c0,1.6-0.1,2.7-0.8,3.7
			c-0.7,1.2-1.9,1.9-3.9,1.9h-1.4v7.3h-2.7L546.8-483.3 M549.5-474.5h1.3c2.2,0,2.2-1.3,2.2-3.1s0-3.2-2.1-3.2h-1.4V-474.5"/>
		<path class="st23" d="M557.8-483.3h8v2.5h-5.3v5.5h4.6v2.5h-4.6v5.5h5.3v2.7h-8V-483.3"/>
		<path class="st23" d="M568-483.3h4.3c3.2,0,4.7,1.9,4.7,5.5c0,2.1-0.6,3.7-2.3,4.7l2.9,8.5h-2.8l-2.5-8h-1.6v8H568V-483.3
			 M570.7-475h1.5c1.9,0,2.1-1,2.1-2.9s-0.3-2.9-2.3-2.9h-1.4v5.8"/>
	</g>
	<path d="M831.4-332.7h6.6v2.1h-4.4v4.7h3.8v2.1h-3.8v6.6h-2.2V-332.7"/>
	<path d="M839.9-329.1c0-2.5,1.9-3.8,3.7-3.8c1.8,0,3.7,1.3,3.7,3.8v8.2c0,2.5-1.9,3.8-3.7,3.8c-1.8,0-3.7-1.3-3.7-3.8V-329.1
		 M842.1-320.9c0,1.1,0.7,1.6,1.5,1.6c0.8,0,1.5-0.5,1.5-1.6v-8.2c0-1.1-0.7-1.6-1.5-1.6c-0.8,0-1.5,0.5-1.5,1.6V-320.9"/>
	<path d="M849.7-332.7h2.2v13.3h4.4v2.2h-6.6V-332.7"/>
	<path d="M858.4-332.7h2.2v15.5h-2.2V-332.7"/>
	<path d="M863-329.1c0-2.5,1.9-3.8,3.7-3.8s3.7,1.3,3.7,3.8v8.2c0,2.5-1.9,3.8-3.7,3.8s-3.7-1.3-3.7-3.8V-329.1 M865.2-320.9
		c0,1.1,0.7,1.6,1.5,1.6s1.5-0.5,1.5-1.6v-8.2c0-1.1-0.7-1.6-1.5-1.6s-1.5,0.5-1.5,1.6V-320.9"/>
	<path d="M831.4-155.8h2.2v13.3h4.4v2.2h-6.6V-155.8"/>
	<path d="M840-155.8h6.6v2.1h-4.4v4.6h3.8v2.1h-3.8v4.6h4.4v2.2H840V-155.8"/>
	<path d="M851.7-155.8h1.9l3.5,15.5h-2.2l-0.7-3.3h-3l-0.7,3.3h-2.2L851.7-155.8 M852.6-151.3L852.6-151.3l-1.1,5.6h2.2L852.6-151.3
		"/>
	<path d="M858.9-155.8h6.6v2.1h-4.4v4.7h3.8v2.1h-3.8v6.6h-2.2V-155.8"/>
	<g>
		<path class="st23" d="M466.4,67.8h3.9c3.5,0,4.7,2.3,4.7,4.7v0.7c0,2-0.7,2.7-1.8,3.5c1.3,0.6,1.8,1.7,1.8,3.7v1
			c0,3.2-1.5,5.1-5,5.1h-3.6V67.8 M469,75.4h1.2c1.8,0,2.3-0.9,2.3-2.6c0-1.6-0.6-2.5-2.4-2.5H469V75.4 M469,83.8h1.2
			c2.1,0,2.3-1.3,2.3-3.1c0-1.9-0.3-2.8-2.3-2.8H469V83.8"/>
		<path class="st23" d="M477.7,67.8h2.7v18.6h-2.7V67.8"/>
		<path class="st23" d="M483,67.8h2.6l4,11.2h0.1V67.8h2.7v18.6h-2.5l-4.1-11.2h-0.1v11.2H483V67.8"/>
		<path class="st23" d="M495,67.8h4c3,0,4.7,1.8,4.7,4.8v8.7c0,3.5-1.8,5.1-4.9,5.1H495V67.8 M497.6,83.9h1.2c1.5,0,2.1-0.7,2.1-2.3
			v-9c0-1.5-0.5-2.3-2.1-2.3h-1.2V83.9"/>
		<path class="st23" d="M511.5,67.8h4c1.5,0,2.5,0.3,3.5,1.3c0.9,1,1.2,2.1,1.2,4.4c0,1.6-0.1,2.7-0.8,3.7c-0.7,1.2-1.9,1.9-3.9,1.9
			h-1.4v7.3h-2.7L511.5,67.8 M514.2,76.6h1.3c2.2,0,2.2-1.3,2.2-3.1c0-1.8,0-3.2-2.1-3.2h-1.4V76.6"/>
		<path class="st23" d="M524.9,67.8h2.2l4.2,18.6h-2.7l-0.8-4h-3.6l-0.8,4h-2.7L524.9,67.8 M526,73.2L526,73.2l-1.4,6.8h2.7
			L526,73.2"/>
		<path class="st23" d="M533.3,67.8h4c1.5,0,2.5,0.3,3.5,1.3c0.9,1,1.2,2.1,1.2,4.4c0,1.6-0.1,2.7-0.8,3.7c-0.7,1.2-1.9,1.9-3.9,1.9
			H536v7.3h-2.7V67.8 M536,76.6h1.3c2.2,0,2.2-1.3,2.2-3.1c0-1.8,0-3.2-2.1-3.2H536V76.6"/>
		<path class="st23" d="M544.3,67.8h8v2.5H547v5.5h4.6v2.5H547v5.5h5.3v2.7h-8V67.8"/>
		<path class="st23" d="M554.5,67.8h4.3c3.2,0,4.7,1.9,4.7,5.5c0,2.1-0.6,3.7-2.3,4.7l2.9,8.5h-2.8l-2.5-8h-1.6v8h-2.7V67.8
			L554.5,67.8z M557.2,76.1h1.5c1.9,0,2.1-1,2.1-2.9s-0.3-2.9-2.3-2.9h-1.4v5.8"/>
		<path class="st23" d="M469.3,873.5h2.2l4.2,18.6H473l-0.8-4h-3.6l-0.8,4h-2.7L469.3,873.5 M470.4,878.9L470.4,878.9l-1.4,6.8h2.7
			L470.4,878.9"/>
		<path class="st23" d="M478.6,876h-3.1v-2.5h8.8v2.5h-3.1v16.1h-2.7L478.6,876"/>
		<path class="st23" d="M488.7,876h-3.1v-2.5h8.8v2.5h-3.1v16.1h-2.7V876"/>
		<path class="st23" d="M498.5,873.5h2.2l4.2,18.6h-2.7l-0.8-4h-3.6l-0.8,4h-2.7L498.5,873.5 M499.6,878.9L499.6,878.9l-1.4,6.8h2.7
			L499.6,878.9"/>
		<path class="st23" d="M515.1,888c0,2.3-1.9,4.3-4.2,4.3c-2,0-4.4-1-4.4-4.4v-10.3c0-2.4,1.8-4.3,4.3-4.3c2.5,0,4.3,1.9,4.3,4.4v1
			h-2.7v-0.9c0-1-0.6-1.9-1.6-1.9c-1.3,0-1.6,0.9-1.6,2.2v9.5c0,1.1,0.4,1.9,1.6,1.9c0.7,0,1.7-0.4,1.7-1.9v-0.9h2.7L515.1,888"/>
		<path class="st23" d="M517.5,873.5h2.7v8h3.3v-8h2.7v18.6h-2.7v-8.3h-3.3v8.3h-2.7V873.5"/>
		<path class="st23" d="M542.6,888c0,2.3-1.9,4.3-4.2,4.3c-2,0-4.4-1-4.4-4.4v-10.3c0-2.4,1.8-4.3,4.3-4.3s4.3,1.9,4.3,4.4v1h-2.7
			v-0.9c0-1-0.6-1.9-1.6-1.9c-1.3,0-1.6,0.9-1.6,2.2v9.5c0,1.1,0.4,1.9,1.6,1.9c0.7,0,1.7-0.4,1.7-1.9v-0.9h2.7L542.6,888L542.6,888
			z"/>
		<path class="st23" d="M545,877.9c0-3,2.3-4.6,4.5-4.6s4.5,1.5,4.5,4.6v9.8c0,3-2.3,4.6-4.5,4.6s-4.5-1.5-4.5-4.6V877.9
			 M547.6,887.7c0,1.3,0.8,1.9,1.8,1.9s1.8-0.6,1.8-1.9v-9.8c0-1.3-0.8-1.9-1.8-1.9s-1.8,0.6-1.8,1.9V887.7"/>
		<path class="st23" d="M561.8,892.1h-2.4l-3.8-18.6h2.8l2.1,13h0.1l2.1-13h2.8L561.8,892.1"/>
		<path class="st23" d="M567.8,873.5h8v2.5h-5.3v5.5h4.6v2.5h-4.6v5.5h5.3v2.7h-8V873.5"/>
		<path class="st23" d="M578,873.5h4.3c3.2,0,4.7,1.9,4.7,5.5c0,2.1-0.6,3.7-2.3,4.7l2.9,8.5h-2.8l-2.5-8h-1.6v8H578V873.5
			L578,873.5z M580.7,881.8h1.5c1.9,0,2.1-1,2.1-2.9S584,876,582,876h-1.4v5.8"/>
	</g>
	<path d="M1988.7,1419.4h4c3,0,4.7,1.8,4.7,4.8v8.7c0,3.5-1.8,5.1-4.9,5.1h-3.7L1988.7,1419.4 M1991.4,1435.5h1.2
		c1.5,0,2.1-0.7,2.1-2.3v-9c0-1.5-0.5-2.3-2.1-2.3h-1.2V1435.5"/>
	<path d="M1999.9,1423.8c0-3,2.3-4.6,4.5-4.6s4.5,1.5,4.5,4.6v9.8c0,3-2.3,4.6-4.5,4.6s-4.5-1.5-4.5-4.6V1423.8 M2002.6,1433.6
		c0,1.3,0.8,1.9,1.8,1.9s1.8-0.6,1.8-1.9v-9.8c0-1.3-0.8-1.9-1.8-1.9s-1.8,0.6-1.8,1.9V1433.6"/>
	<path d="M2011.4,1419.4h2.6l4,11.2h0.1v-11.2h2.7v18.6h-2.5l-4.1-11.2h-0.1v11.2h-2.7V1419.4"/>
	<path d="M2023.4,1419.4h8v2.5h-5.3v5.5h4.6v2.5h-4.6v5.5h5.3v2.7h-8V1419.4"/>
	<g>
		<path class="st2" d="M1668.5-233.2l79.4,26.7l-129.1,58.6l-79.4-26.7L1668.5-233.2z"/>
		<path class="st2" d="M1668.5-243.9l79.4,26.7l-129.1,58.6l-79.4-26.6L1668.5-243.9z"/>
		<path class="st2" d="M1668.5-254.5l79.4,26.7l-129.1,58.6l-79.4-26.7L1668.5-254.5z"/>
		<path class="st2" d="M1668.5-265.1l79.4,26.7l-129.1,58.6l-79.4-26.6L1668.5-265.1z"/>
		<path class="st2" d="M1668.5-275.8l79.4,26.7l-129.1,58.6l-79.4-26.7L1668.5-275.8z"/>
		<path class="st2" d="M1668.5-286.4l79.4,26.7l-129.1,58.6l-79.4-26.6L1668.5-286.4z"/>
		<path class="st2" d="M1668.5-297.1l79.4,26.6l-129.1,58.6l-79.4-26.7L1668.5-297.1z"/>
		<path class="st2" d="M1668.5-307.8l79.4,26.7l-129.1,58.6l-79.4-26.7L1668.5-307.8z"/>
		<path class="st2" d="M1668.5-318.4l79.4,26.6l-129.1,58.6l-79.4-26.7L1668.5-318.4z"/>
		<path class="st2" d="M1668.5-329.1l79.4,26.7l-129.1,58.6l-79.4-26.7L1668.5-329.1z"/>
	</g>
	<path class="st0" d="M1775.7-262.6v46.2"/>
	<path class="st3" d="M1775.7-262.6v38.5"/>
	<path d="M1770.3-225.7l5.3,9.2l5.3-9.2H1770.3z"/>
	<g>
		<path class="st5" d="M1827.9,324.8v15.3"/>
		<path class="st2" d="M1827.9,324.8H1957v15.3h-129.1V324.8z"/>
	</g>
	<g>
		<path id="_x34_" class="st4" d="M1957,337h-129.1"/>
	</g>
	<g>
		<path id="_x34__1_" class="st4" d="M1957,337h-129.1"/>
	</g>
	<g>
		<path class="st4" d="M1957,333.9h-129.1"/>
		<path class="st4" d="M1957,330.9h-129.1"/>
		<path class="st4" d="M1957,327.8h-129.1"/>
	</g>
	<g>
		<path id="_x34__2_" class="st4" d="M1957,337h-129.1"/>
	</g>
	<g>
		<g>
			<g>
				<path class="st8" d="M1807.7,340h169.6v15.9h-169.6V340z"/>
				<path class="st8" d="M1807.7,308.8h169.6v15.9h-169.6V308.8z"/>
			</g>
			<path class="st14" d="M1781.3,201.2h64v2.8h-64V201.2z"/>
		</g>
		<g>
			<path class="st15" d="M1836.4,201.2v-2.7h-6.2v2.7v2.8v59.4V280v20.7h1.4v3.8h-4.1v4.3h11.7v-4.3h-4.1v-3.8h1.3v-20.8v-16.6
				v-59.4L1836.4,201.2z"/>
			<circle class="st14" cx="1845.3" cy="202.4" r="2.7"/>
		</g>
		<path class="st16" d="M1830.2,198.5h6.2v102.2h-6.2V198.5z"/>
		<g>
			<path class="st13" d="M1829.8,263.3c0,0-3.7-0.4-3.7,2c-17.5,0-37.1-2.9-43.9,4c-11.3,11.3-11.5,22.1-11.5,46.7s0,46.8,9,55.8
				c2.9,2.9,11.3,6.9,26.9,6.9c24.3,0,34.9-22.8,34.9-22.8H1826v6c0,0-26,3.5-29.5,0c-3.2-3.2-3-35.2-3-45.2
				c0-9.9,0.6-34.9,3.1-37.4s19.7-1.4,29.3-1.4v1.9h3.7h7.1h3.8v-14.6c0-2.3-3.7-2-3.7-2L1829.8,263.3L1829.8,263.3z"/>
			<g>
				<circle class="st14" cx="1782.9" cy="202.4" r="2.7"/>
				<path class="st14" d="M1939.6,201.2h64v2.8h-64V201.2z"/>
			</g>
		</g>
		<g>
			<path class="st15" d="M1948.5,201.2v-2.7h6.2v2.7v2.8v59.4V280v20.7h-1.4v3.8h4.1v4.3h-11.8v-4.3h4.1v-3.8h-1.3v-20.8v-16.6
				v-59.4v-2.7H1948.5z"/>
			<circle class="st14" cx="1939.6" cy="202.4" r="2.7"/>
		</g>
		<path class="st16" d="M1948.5,198.5h6.2v102.2h-6.2V198.5z"/>
		<g>
			<path class="st13" d="M1955.2,263.3c0,0,3.7-0.4,3.7,2c17.5,0,37.1-2.9,43.9,4c11.3,11.3,11.5,22.1,11.5,46.7s0,46.8-9,55.8
				c-2.9,2.9-11.3,6.9-26.9,6.9c-24.3,0-34.9-22.8-34.9-22.8h15.4v6c0,0,26,3.5,29.5,0c3.2-3.2,3-35.2,3-45.2
				c0-9.9-0.6-34.9-3.1-37.4s-19.7-1.4-29.3-1.4v1.9h-3.7h-7.1h-3.8v-14.6c0-2.3,3.7-2,3.7-2L1955.2,263.3L1955.2,263.3z"/>
			<g>
				<circle class="st14" cx="2002.1" cy="202.4" r="2.7"/>
				<path class="st5" d="M1486.6,324.8v15.3"/>
			</g>
			<path class="st2" d="M1486.6,324.8h129.1v15.3h-129.1V324.8z"/>
		</g>
	</g>
	<g>
		<path id="_x35_" class="st4" d="M1615.6,337h-129.1"/>
	</g>
	<g>
		<path id="_x35__1_" class="st4" d="M1615.6,337h-129.1"/>
	</g>
	<g>
		<path class="st4" d="M1615.6,333.9h-129.1"/>
		<path class="st4" d="M1615.6,330.9h-129.1"/>
		<path class="st4" d="M1615.6,327.8h-129.1"/>
	</g>
	<g>
		<path id="_x35__2_" class="st4" d="M1615.6,337h-129.1"/>
	</g>
	<g>
		<g>
			<g>
				<path class="st8" d="M1466.3,340h169.6v15.9h-169.6V340z"/>
				<path class="st8" d="M1466.3,308.8h169.6v15.9h-169.6V308.8z"/>
			</g>
			<path class="st14" d="M1477.7,180h64v2.8h-64V180z"/>
		</g>
		<g>
			<path class="st15" d="M1495.1,180v-2.7h-6.2v2.7v2.8v59.4v16.6v20.8h1.4v3.8h-4.1v4.3h11.8v-4.3h-4.1v-3.8h1.4v-20.8v-16.6v-59.4
				V180H1495.1z"/>
			<circle class="st14" cx="1541.7" cy="181.2" r="2.7"/>
		</g>
		<path class="st16" d="M1488.9,177.3h6.2v102.2h-6.2V177.3z"/>
		<g>
			<path class="st13" d="M1488.4,263.3c0,0-3.7-0.4-3.7,2c-17.5,0-37.1-2.9-43.9,4c-11.3,11.3-11.5,22.1-11.5,46.7s0,46.8,9,55.8
				c2.9,2.9,11.3,6.9,26.9,6.9c24.3,0,34.9-22.8,34.9-22.8h-15.4v6c0,0-26,3.5-29.5,0c-3.2-3.2-3-35.2-3-45.2
				c0-9.9,0.6-34.9,3.1-37.4s19.7-1.4,29.3-1.4v1.9h3.7h7.1h3.8v-14.6c0-2.3-3.7-2-3.7-2L1488.4,263.3L1488.4,263.3z"/>
			<g>
				<circle class="st14" cx="1479.2" cy="181.2" r="2.7"/>
				<path class="st14" d="M1560.5,180h64v2.8h-64V180z"/>
			</g>
		</g>
		<g>
			<path class="st15" d="M1607.1,180v-2.7h6.2v2.7v2.8v59.4v16.6v20.8h-1.4v3.8h4.1v4.3h-11.8v-4.3h4.1v-3.8h-1.3v-20.8v-16.6v-59.4
				L1607.1,180z"/>
			<circle class="st14" cx="1560.5" cy="181.2" r="2.7"/>
		</g>
		<path class="st16" d="M1607.1,177.3h6.2v102.2h-6.2V177.3z"/>
		<g>
			<path class="st13" d="M1613.8,263.3c0,0,3.7-0.4,3.7,2c17.5,0,37.1-2.9,43.9,4c11.3,11.3,11.5,22.1,11.5,46.7s0,46.8-9,55.8
				c-2.9,2.9-11.3,6.9-26.9,6.9c-24.3,0-34.9-22.8-34.9-22.8h15.4v6c0,0,26,3.5,29.5,0c3.2-3.2,3-35.2,3-45.2
				c0-9.9-0.6-34.9-3.1-37.4s-19.7-1.4-29.3-1.4v1.9h-3.7h-7.1h-3.8v-14.6c0-2.3,3.7-2,3.7-2L1613.8,263.3L1613.8,263.3z"/>
			<circle class="st14" cx="1623" cy="181.2" r="2.7"/>
		</g>
	</g>
	<path d="M1186.1-598.9c-1.5,0-2.9-0.6-3.9-1.6c-1.4-1.4-1.4-2.8-1.4-6.3s0-4.9,1.4-6.3c1-1,2.4-1.6,3.9-1.6c2.8,0,4.8,1.7,5.3,4.5
		h-1.2c-0.5-2.1-2-3.5-4.1-3.5c-1.1,0-2.2,0.4-2.9,1.2c-1.1,1.1-1.2,2.3-1.2,5.6s0.1,4.5,1.2,5.6c0.8,0.8,1.8,1.2,2.9,1.2
		c2.1,0,3.7-1.4,4.1-3.5h1.2C1190.9-600.6,1188.8-598.9,1186.1-598.9"/>
	<path d="M1197.9-599c-1.7,0-2.5-1.1-2.5-2.7v-12.8h1.1v12.8c0,1.2,0.4,1.8,1.6,1.8h0.8v1L1197.9-599"/>
	<path d="M1208.6-599v-1c-0.9,0.9-1.7,1.2-3.2,1.2s-2.4-0.3-3.1-1c-0.5-0.5-0.8-1.3-0.8-2c0-1.9,1.4-3,3.7-3h3.4v-1.2
		c0-1.7-0.8-2.6-3-2.6c-1.5,0-2.2,0.4-2.9,1.3l-0.8-0.7c0.9-1.2,2-1.6,3.7-1.6c2.8,0,4.1,1.2,4.1,3.4v7.2L1208.6-599 M1208.6-604
		h-3.3c-1.8,0-2.7,0.7-2.7,2.1s0.9,2,2.7,2c1,0,1.9-0.1,2.6-0.8c0.4-0.4,0.6-1,0.6-2L1208.6-604"/>
	<path d="M1228.1-599v-6.5c0-2-1-3.1-2.9-3.1c-1.8,0-3,1.2-3,2.9v6.7h-1.1v-6.5c0-2-1-3.1-2.9-3.1s-3,1.2-3,3.1v6.5h-1.1v-10.5h1.1
		v1.2c0.8-0.9,1.9-1.4,3.1-1.4c1.5,0,2.7,0.7,3.4,1.9c0.8-1.2,2-1.9,3.6-1.9c1.2,0,2.1,0.4,2.8,1c0.7,0.7,1.1,1.7,1.1,2.9v6.7
		L1228.1-599L1228.1-599z"/>
	<path d="M1240.4-599.8c-0.5,0.5-1.5,0.9-2.6,0.9c-1.2,0-2.2-0.3-3.1-1.5v6.4h-1.1v-15.5h1.1v1.4c0.9-1.2,1.9-1.5,3.1-1.5
		c1.1,0,2,0.4,2.6,0.9c1.1,1.1,1.4,2.8,1.4,4.5C1241.7-602.6,1241.4-600.9,1240.4-599.8 M1237.6-608.7c-2.6,0-3,2.2-3,4.4
		s0.4,4.4,3,4.4s3-2.2,3-4.4S1240.2-608.7,1237.6-608.7"/>
	<path d="M1257-599l-2.8-4.4l-2.8,4.4h-1.4l3.6-5.4l-3.4-5.1h1.4l2.7,4.2l2.6-4.2h1.4l-3.4,5.1l3.6,5.4H1257"/>
	<path d="M1261.7-599v-1l6.2-8.2c0.6-0.8,0.9-1.5,0.9-2.4c0-1.9-1.1-3.1-3-3.1c-1.6,0-3,0.9-3,3.1h-1.1c0-2.3,1.5-4.1,4.1-4.1
		c2.5,0,4.1,1.6,4.1,4.1c0,1.2-0.3,2-1.1,3l-5.8,7.6h6.9v1L1261.7-599"/>
	<g>
		<g>
			<path class="st14" d="M1189.2-822.9h64v2.8h-64V-822.9z"/>
			<path class="st15" d="M1198.1-822.9v-2.7h6.2v2.7v2.8v59.4v16.6v20.7h-1.3v3.8h4.1v4.3h-11.8v-4.3h4.1v-3.8h-1.4v-20.8v-16.6
				v-59.4L1198.1-822.9z"/>
			<circle class="st14" cx="1189.2" cy="-821.7" r="2.7"/>
		</g>
		<path class="st16" d="M1198.1-825.6h6.2v102.2h-6.2V-825.6z"/>
		<g>
			<path class="st13" d="M1204.8-760.8c0,0,3.7-0.4,3.7,2c17.5,0,37.1-2.9,43.9,4c11.3,11.3,11.5,22.1,11.5,46.7
				c0,24.6,0,46.8-9,55.8c-2.9,2.9-11.3,6.9-26.9,6.9c-24.3,0-34.9-22.8-34.9-22.8h15.4v6c0,0,26,3.5,29.5,0c3.2-3.2,3-35.2,3-45.2
				s-0.6-34.9-3.1-37.4s-19.7-1.4-29.3-1.4v1.9h-3.7h-7.1h-3.8v-14.6c0-2.3,3.7-2,3.7-2L1204.8-760.8L1204.8-760.8z"/>
			<circle class="st14" cx="1251.7" cy="-821.7" r="2.7"/>
		</g>
	</g>
	<path d="M538.2-827.5c-2.5,0-4.4-1.8-4.4-4.3c0-1.8,1-3.1,2.5-3.9c-1.4-0.7-2.1-1.9-2.1-3.5c0-2.3,1.7-4.1,4.1-4.1
		c2.4,0,4.1,1.8,4.1,4.1c0,1.6-0.7,2.8-2.1,3.5c1.5,0.8,2.4,2.1,2.4,3.9C542.7-829.3,540.7-827.5,538.2-827.5 M538.2-835.2
		c-1.9,0-3.3,1.5-3.3,3.4s1.4,3.3,3.3,3.3c1.9,0,3.3-1.4,3.3-3.3S540.1-835.2,538.2-835.2 M538.2-842.3c-1.8,0-3,1.3-3,3.1
		s1.2,3.1,3,3.1s3-1.3,3-3.1C541.2-841,540-842.3,538.2-842.3"/>
	<path d="M546.4-827.6v-1.6h1.6v1.6H546.4"/>
	<path d="M559.1-828.6c-0.7,0.7-1.7,1.1-3,1.1c-1.3,0-2.3-0.3-3-1c-0.6-0.6-1-1.4-1-2.5h1.1c0.2,1.7,1.1,2.6,2.9,2.6
		c0.9,0,1.6-0.3,2.1-0.8c0.9-0.9,0.9-2.3,0.9-3.5c0-1.9-0.3-4.1-2.9-4.1c-1.4,0-2.5,0.6-2.8,1.6h-1v-7.9h7.5v1h-6.5v5.5
		c0.7-0.8,1.7-1.2,2.9-1.2c1.1,0,2,0.3,2.6,0.9c1.1,1.1,1.3,2.7,1.3,4.2C560.3-831.2,560.2-829.7,559.1-828.6"/>
	<path d="M568.9-841.8v-1.4h1.4v1.4H568.9 M569-827.6v-10.5h1.1v10.5H569"/>
	<path d="M581.6-827.6v-6.5c0-2-1-3.1-2.9-3.1s-3,1.2-3,3.1v6.5h-1.1v-10.5h1.1v1.2c0.8-0.9,1.8-1.4,3.1-1.4c1.2,0,2.1,0.3,2.8,1
		s1.1,1.7,1.1,2.9v6.7L581.6-827.6"/>
	<path d="M461.6-724.5v-14.3l-2.8,2.5v-1.3l2.8-2.4h1.1v15.5H461.6"/>
	<path d="M471.5-724.5v-14.3l-2.8,2.5v-1.3l2.8-2.4h1.1v15.5H471.5"/>
	<path d="M517.2-605.6h-4.5v6.6h-1.2v-15.5h5.7c2.7,0,4.7,1.6,4.7,4.5S519.9-605.6,517.2-605.6 M517.1-613.5h-4.4v6.8h4.4
		c2.1,0,3.6-1.1,3.6-3.4C520.7-612.4,519.2-613.5,517.1-613.5"/>
	<path d="M531.8-599v-1c-0.9,0.9-1.7,1.2-3.2,1.2s-2.4-0.3-3.1-1c-0.5-0.5-0.8-1.3-0.8-2c0-1.9,1.4-3,3.7-3h3.4v-1.2
		c0-1.7-0.8-2.6-3-2.6c-1.5,0-2.2,0.4-2.9,1.3l-0.8-0.7c0.9-1.2,2-1.6,3.7-1.6c2.8,0,4.1,1.2,4.1,3.4v7.2L531.8-599 M531.8-604h-3.3
		c-1.8,0-2.7,0.7-2.7,2.1s0.9,2,2.7,2c1,0,1.9-0.1,2.6-0.8c0.4-0.4,0.6-1,0.6-2L531.8-604"/>
	<path d="M544.2-599.8c-0.5,0.5-1.5,0.9-2.6,0.9c-1.2,0-2.2-0.3-3.1-1.5v6.4h-1.1v-15.5h1.1v1.4c0.9-1.2,1.9-1.5,3.1-1.5
		c1.1,0,2,0.4,2.6,0.9c1.1,1.1,1.4,2.8,1.4,4.5C545.5-602.6,545.2-600.9,544.2-599.8 M541.4-608.7c-2.6,0-3,2.2-3,4.4s0.4,4.4,3,4.4
		c2.6,0,3-2.2,3-4.4S544-608.7,541.4-608.7"/>
	<path d="M550.1-604c0,2.7,1.2,4.1,3.4,4.1c1.2,0,2-0.4,2.9-1.3l0.8,0.7c-1.1,1.1-2,1.6-3.8,1.6c-2.9,0-4.5-1.9-4.5-5.4
		c0-3.4,1.6-5.4,4.2-5.4c2.6,0,4.2,1.9,4.2,5.1v0.5h-7.2 M555.9-606.9c-0.5-1.1-1.5-1.8-2.7-1.8s-2.3,0.7-2.7,1.8
		c-0.3,0.7-0.3,1-0.4,2h6.2C556.3-605.9,556.2-606.2,555.9-606.9"/>
	<path d="M567.2-607.8c-0.6-0.6-1.1-0.8-2-0.8c-1.8,0-2.8,1.5-2.8,3.2v6.5h-1.1v-10.5h1.1v1.4c0.6-1,1.8-1.5,3.1-1.5
		c1,0,1.8,0.3,2.5,1L567.2-607.8"/>
	<path d="M581.9-599l-2.8-4.4l-2.8,4.4H575l3.6-5.4l-3.4-5.1h1.4l2.7,4.2l2.6-4.2h1.4l-3.4,5.1l3.6,5.4H581.9"/>
	<path d="M592.8-601.5v2.6h-1.1v-2.6h-6.1v-1l5.7-12h1.2l-5.7,12h5v-4.9h1.1v4.9h2.1v1H592.8"/>
	<path d="M602.6-598.9c-2.5,0-4.4-1.8-4.4-4.3c0-1.8,1-3.1,2.5-3.9c-1.4-0.7-2.1-1.9-2.1-3.5c0-2.3,1.7-4.1,4.1-4.1
		c2.4,0,4.1,1.8,4.1,4.1c0,1.6-0.7,2.8-2.1,3.5c1.5,0.8,2.4,2.1,2.4,3.9C607-600.7,605.1-598.9,602.6-598.9 M602.6-606.5
		c-1.9,0-3.3,1.5-3.3,3.4s1.4,3.3,3.3,3.3c1.9,0,3.3-1.4,3.3-3.3S604.4-606.5,602.6-606.5 M602.6-613.7c-1.8,0-3,1.3-3,3.1
		s1.2,3.1,3,3.1c1.8,0,3-1.3,3-3.1C605.5-612.4,604.3-613.7,602.6-613.7"/>
	<path class="st2" d="M492.2-817.9h133.2v172.4H492.2V-817.9z"/>
	<path d="M778-598.9c-1.5,0-2.9-0.6-3.9-1.6c-1.4-1.4-1.4-2.8-1.4-6.3s0-4.9,1.4-6.3c1-1,2.4-1.6,3.9-1.6c2.8,0,4.8,1.7,5.3,4.5
		h-1.2c-0.5-2.1-2-3.5-4.1-3.5c-1.1,0-2.2,0.4-2.9,1.2c-1.1,1.1-1.2,2.3-1.2,5.6s0.1,4.5,1.2,5.6c0.8,0.8,1.8,1.2,2.9,1.2
		c2.1,0,3.7-1.4,4.1-3.5h1.2C782.8-600.6,780.7-598.9,778-598.9"/>
	<path d="M794.1-600c-0.7,0.7-1.7,1.2-2.9,1.2s-2.2-0.4-2.9-1.2c-1.1-1.1-1.3-2.7-1.3-4.2s0.2-3.1,1.3-4.2c0.7-0.7,1.7-1.2,2.9-1.2
		s2.2,0.4,2.9,1.2c1.1,1.1,1.3,2.7,1.3,4.2S795.2-601.1,794.1-600 M793.4-607.8c-0.6-0.6-1.3-0.9-2.2-0.9c-0.9,0-1.6,0.3-2.2,0.9
		c-0.9,0.9-0.9,2.3-0.9,3.5s0.1,2.6,0.9,3.5c0.6,0.6,1.3,0.9,2.2,0.9s1.6-0.3,2.2-0.9c0.9-0.9,0.9-2.3,0.9-3.5
		S794.2-606.9,793.4-607.8"/>
	<path d="M802.6-599h-1.1l-3.8-10.5h1.2l3.2,9.2l3.2-9.2h1.2L802.6-599"/>
	<path d="M809.8-604c0,2.7,1.2,4.1,3.4,4.1c1.2,0,2-0.4,2.9-1.3l0.8,0.7c-1.1,1.1-2,1.6-3.8,1.6c-2.9,0-4.5-1.9-4.5-5.4
		c0-3.4,1.6-5.4,4.2-5.4s4.2,1.9,4.2,5.1v0.5h-7.2 M815.6-606.9c-0.5-1.1-1.5-1.8-2.7-1.8c-1.2,0-2.3,0.7-2.7,1.8
		c-0.3,0.7-0.3,1-0.4,2h6.2C816-605.9,815.9-606.2,815.6-606.9"/>
	<path d="M826.9-607.8c-0.6-0.6-1.1-0.8-2-0.8c-1.8,0-2.8,1.5-2.8,3.2v6.5H821v-10.5h1.1v1.4c0.6-1,1.8-1.5,3.1-1.5
		c1,0,1.8,0.3,2.5,1L826.9-607.8"/>
	<path class="st1" d="M732.8-817.9H866v172.4H732.8V-817.9z"/>
	<path d="M982.3-599h-5.9v-15.5h5.7c2.6,0,4.5,1.5,4.5,4.1c0,1.6-0.9,3-2.4,3.5c1.7,0.6,2.7,2,2.7,3.8
		C986.8-600.5,985-599,982.3-599 M981.9-613.5h-4.4v6h4.4c1.9,0,3.4-0.9,3.4-3C985.4-612.6,983.8-613.5,981.9-613.5 M982.1-606.4
		h-4.6v6.4h4.6c2.1,0,3.5-1.2,3.5-3.2S984.2-606.4,982.1-606.4"/>
	<path d="M993.4-599c-1.7,0-2.5-1.1-2.5-2.7v-12.8h1.1v12.8c0,1.2,0.4,1.8,1.6,1.8h0.8v1L993.4-599"/>
	<path d="M1004.1-600c-0.7,0.7-1.7,1.2-2.9,1.2s-2.2-0.4-2.9-1.2c-1.1-1.1-1.3-2.7-1.3-4.2s0.2-3.1,1.3-4.2c0.7-0.7,1.7-1.2,2.9-1.2
		s2.2,0.4,2.9,1.2c1.1,1.1,1.3,2.7,1.3,4.2C1005.4-602.7,1005.2-601.1,1004.1-600 M1003.3-607.8c-0.6-0.6-1.3-0.9-2.2-0.9
		s-1.6,0.3-2.2,0.9c-0.9,0.9-0.9,2.3-0.9,3.5s0.1,2.6,0.9,3.5c0.6,0.6,1.3,0.9,2.2,0.9s1.6-0.3,2.2-0.9c0.9-0.9,0.9-2.3,0.9-3.5
		S1004.2-606.9,1003.3-607.8"/>
	<path d="M1013.4-598.9c-2.9,0-4.6-2-4.6-5.4c0-3.3,1.8-5.4,4.6-5.4c1.4,0,2.3,0.4,3.5,1.6l-0.8,0.7c-0.9-1-1.6-1.3-2.7-1.3
		c-1.2,0-2.2,0.5-2.8,1.4c-0.5,0.8-0.7,1.6-0.7,3s0.2,2.2,0.7,3c0.6,0.9,1.6,1.4,2.8,1.4c1.1,0,1.8-0.3,2.7-1.3l0.8,0.7
		C1015.8-599.2,1014.9-598.9,1013.4-598.9"/>
	<path d="M1027.6-599l-3.6-5.8l-2.4,2.8v3h-1.1v-15.5h1.1v11l5.2-5.9h1.4l-3.5,3.9l4.2,6.6L1027.6-599L1027.6-599z"/>
	<path d="M1043.7-599l-2.8-4.4l-2.8,4.4h-1.4l3.6-5.4l-3.4-5.1h1.4l2.7,4.2l2.6-4.2h1.4l-3.4,5.1l3.6,5.4H1043.7"/>
	<path d="M1048.3-599v-1l6.2-8.2c0.6-0.8,0.9-1.5,0.9-2.4c0-1.9-1.1-3.1-3-3.1c-1.6,0-3,0.9-3,3.1h-1.1c0-2.3,1.5-4.1,4.1-4.1
		c2.5,0,4.1,1.6,4.1,4.1c0,1.2-0.3,2-1.1,3l-5.8,7.6h6.9v1L1048.3-599"/>
	<path class="st8" d="M975.8-778.6h80.6v133.2h-80.6V-778.6z"/>
	<path d="M1829.7-599h-5.9v-15.5h5.7c2.6,0,4.5,1.5,4.5,4.1c0,1.6-0.9,3-2.4,3.5c1.7,0.6,2.7,2,2.7,3.8
		C1834.2-600.5,1832.4-599,1829.7-599 M1829.4-613.5h-4.4v6h4.4c1.9,0,3.4-0.9,3.4-3C1832.8-612.6,1831.2-613.5,1829.4-613.5
		 M1829.5-606.4h-4.6v6.4h4.6c2.1,0,3.5-1.2,3.5-3.2S1831.7-606.4,1829.5-606.4"/>
	<path d="M1844.3-607.8c-0.6-0.6-1.1-0.8-2-0.8c-1.8,0-2.8,1.5-2.8,3.2v6.5h-1.1v-10.5h1.1v1.4c0.6-1,1.8-1.5,3.1-1.5
		c1,0,1.8,0.3,2.5,1L1844.3-607.8"/>
	<path d="M1855-599v-1.2c-0.8,0.9-1.8,1.4-3.1,1.4c-1.2,0-2.1-0.3-2.8-1c-0.7-0.7-1.1-1.7-1.1-2.9v-6.7h1.1v6.5c0,2,1,3.1,2.9,3.1
		s3-1.2,3-3.1v-6.5h1.1v10.5L1855-599"/>
	<path d="M1863.9-598.9c-1.8,0-3.2-0.5-4.3-1.5l0.8-0.8c0.8,0.9,1.9,1.3,3.4,1.3c2,0,3.2-0.7,3.2-2.1c0-1.1-0.6-1.6-2-1.8l-1.7-0.2
		c-2.1-0.2-3.2-1.1-3.2-2.7c0-1.8,1.5-3,3.8-3c1.4,0,2.8,0.4,3.7,1.1l-0.7,0.7c-0.8-0.6-1.8-0.9-2.9-0.9c-1.7,0-2.7,0.7-2.7,2
		c0,1.1,0.7,1.6,2.1,1.8l1.7,0.2c1.7,0.2,3.1,0.7,3.1,2.7C1868.2-600.1,1866.5-598.9,1863.9-598.9"/>
	<path d="M1878.8-599v-6.5c0-2-1-3.1-2.9-3.1s-3,1.2-3,3.1v6.5h-1.1v-15.5h1.1v6.3c0.8-0.9,1.8-1.4,3.1-1.4c2.4,0,3.9,1.5,3.9,3.9
		v6.7H1878.8"/>
	<g>
		<path class="st10" d="M1849.7-679.4c0-1.1,0.9-2.1,2.1-2.1c1.1,0,2,0.9,2,2.1v32c0,1.1-0.9,2.1-2.1,2.1c-1.1,0-2-0.9-2-2.1V-679.4
			z"/>
		<path class="st11" d="M1844.7-692.7h14v17.2h-14V-692.7z"/>
	</g>
	<path d="M1401.6-600.7c-1,1.1-2.5,1.8-4.1,1.8c-1.5,0-2.9-0.6-3.9-1.6c-1.4-1.4-1.4-2.8-1.4-6.3s0-4.9,1.4-6.3c1-1,2.4-1.6,3.9-1.6
		c2.7,0,4.8,1.8,5.3,4.5h-1.2c-0.5-2.1-2-3.5-4.1-3.5c-1.1,0-2.2,0.4-2.9,1.2c-1.1,1.1-1.2,2.3-1.2,5.6s0.1,4.5,1.2,5.6
		c0.8,0.8,1.8,1.2,2.9,1.2c1.2,0,2.4-0.5,3.2-1.5c0.7-0.8,0.9-1.7,0.9-3.1v-1.4h-4.2v-1h5.3v2.5
		C1402.8-602.8,1402.5-601.6,1401.6-600.7"/>
	<path d="M1409.5-599c-1.7,0-2.5-1.1-2.5-2.7v-12.8h1.1v12.8c0,1.2,0.4,1.8,1.6,1.8h0.8v1L1409.5-599"/>
	<path d="M1420.4-599v-1.2c-0.8,0.9-1.8,1.4-3.1,1.4c-1.2,0-2.1-0.3-2.8-1c-0.7-0.7-1.1-1.7-1.1-2.9v-6.7h1.1v6.5c0,2,1,3.1,2.9,3.1
		s3-1.2,3-3.1v-6.5h1.1v10.5L1420.4-599"/>
	<path d="M1426.6-604c0,2.7,1.2,4.1,3.4,4.1c1.2,0,2-0.4,2.9-1.3l0.8,0.7c-1.1,1.1-2,1.6-3.8,1.6c-2.9,0-4.5-1.9-4.5-5.4
		c0-3.4,1.6-5.4,4.2-5.4s4.2,1.9,4.2,5.1v0.5h-7.2 M1432.4-606.9c-0.5-1.1-1.5-1.8-2.7-1.8s-2.3,0.7-2.7,1.8c-0.3,0.7-0.3,1-0.4,2
		h6.2C1432.7-605.9,1432.6-606.2,1432.4-606.9"/>
	<g>
		<path class="st5" d="M1399.5-721.7h26.9v76.7h-26.9V-721.7z"/>
		<path class="st5" d="M1401.5-730.3h23v8.5h-23V-730.3z"/>
		<path class="st5" d="M1416.6-730.3h-7.2l1.6-20.3h4.1L1416.6-730.3z"/>
	</g>
	<path d="M1694.4-599l-5-8.7l-3.7,4.5v4.2h-1.2v-15.5h1.2v9.7l7.9-9.7h1.4l-4.8,5.9l5.6,9.6H1694.4"/>
	<path d="M1706.1-599v-6.5c0-2-1-3.1-2.9-3.1s-3,1.2-3,3.1v6.5h-1.1v-10.5h1.1v1.2c0.8-0.9,1.8-1.4,3.1-1.4c1.2,0,2.1,0.3,2.8,1
		c0.7,0.7,1.1,1.7,1.1,2.9v6.7L1706.1-599"/>
	<path d="M1711.4-613.1v-1.4h1.4v1.4H1711.4 M1711.6-599v-10.5h1.1v10.5H1711.6"/>
	<path d="M1718.7-608.7v9.7h-1.1v-9.7h-1.4v-0.8h1.4v-2.3c0-1.6,0.9-2.7,2.5-2.7h1v1h-0.8c-1.1,0-1.6,0.7-1.6,1.7v2.3h2.4v0.8
		H1718.7"/>
	<path d="M1724.6-604c0,2.7,1.2,4.1,3.4,4.1c1.2,0,2-0.4,2.9-1.3l0.8,0.7c-1.1,1.1-2,1.6-3.8,1.6c-2.9,0-4.5-1.9-4.5-5.4
		c0-3.4,1.6-5.4,4.2-5.4s4.2,1.9,4.2,5.1v0.5h-7.2 M1730.5-606.9c-0.5-1.1-1.5-1.8-2.7-1.8s-2.3,0.7-2.7,1.8c-0.3,0.7-0.3,1-0.4,2
		h6.2C1730.8-605.9,1730.7-606.2,1730.5-606.9"/>
	<g>
		<path class="st24" d="M1699.4-645.6c-1.5-0.7,2.8-18.7,3-22.5s2.5-36.2,1.9-37.6c-0.7-1.3-1.8-1-1.3-1.9c0.4-0.9,3.3-1.6,3.3-1.6
			v-10.4l0.7-0.7v-11.2l9,5v6.6l0.9,0.5v8c0,0,1.3-0.2,1.4,1.3c0.1,1.6,1.1,48.2,1.1,48.2s-0.1,7.1-4.3,10.2
			C1710.7-648.7,1702.8-644.1,1699.4-645.6L1699.4-645.6z"/>
		<path class="st2" d="M1706.9-657.6h9.1v-68.8l-9.1-5V-657.6z"/>
		<path class="st18" d="M1716.8-711.4c0,0,1.3-0.2,1.4,1.3c0.1,1.6,1.1,48.2,1.1,48.2s-0.1,7.1-4.3,10.2c-4.3,3-12.2,7.6-15.6,6.1
			c-1.5-0.7,2.8-18.7,3-22.5s2.5-36.2,1.9-37.6c-0.7-1.3-1.8-1-1.3-1.9c0.4-0.9,3.3-1.6,3.3-1.6L1716.8-711.4L1716.8-711.4z"/>
		<path class="st2" d="M1709.2-673h4.4v-37.6l-4.4,0.5V-673z"/>
		<g>
			<path class="st20" d="M1704.9-653.3c0-0.7-0.5-1.2-1.2-1.2s-1.2,0.5-1.2,1.2v2.8c0,0.7,0.5,1.2,1.2,1.2s1.2-0.5,1.2-1.2V-653.3z"
				/>
			<path class="st4" d="M1713.7-717.6l-4.7-2.8"/>
			<g>
				<path class="st20" d="M1709-661l4.6-2.8v-5.5h-4.6V-661z"/>
				<path class="st20" d="M1713.7-710.6v32.4"/>
				<path class="st20" d="M1709-709.9v32"/>
			</g>
			<g>
				<path class="st4" d="M1713.7-691.3l-4.7-2.8"/>
				<path class="st4" d="M1713.7-696.6l-4.7-2.8"/>
				<path class="st4" d="M1713.7-701.8l-4.7-2.8"/>
				<path class="st4" d="M1713.7-707.1l-4.7-2.8"/>
				<path class="st4" d="M1713.7-712.4l-4.7-2.8"/>
				<path class="st4" d="M1716-721.6l-9.1-5.3"/>
			</g>
		</g>
		<g>
			<circle class="st21" cx="1711.7" cy="-673" r="5.5"/>
			<circle class="st20" cx="1711.7" cy="-673" r="1.8"/>
			<g>
				<path class="st22" d="M1706.2-719.5l2.4-2.4c0,0,1.7-1.1,1.7,2.8c0,0,0.2,1.9-0.1,2.6c-0.3,0.7-1.2,2-1.2,2.4c0,0.3,0,4.3,0,4.3
					l-2.8,0.7V-719.5L1706.2-719.5z"/>
				<path class="st22" d="M1716.8-719.4c0,0-2.5-1.8-2.9-0.9c-0.4,0.9-0.3,3-0.3,4c0,1.1,0.1,5.6,0.1,5.6l3.1-0.8L1716.8-719.4
					L1716.8-719.4z"/>
			</g>
		</g>
	</g>
	<path d="M1969.5-599h-5.9v-15.5h5.7c2.6,0,4.5,1.5,4.5,4.1c0,1.6-0.9,3-2.4,3.5c1.7,0.6,2.7,2,2.7,3.8
		C1974-600.5,1972.2-599,1969.5-599 M1969.2-613.5h-4.4v6h4.4c1.9,0,3.4-0.9,3.4-3C1972.6-612.6,1971-613.5,1969.2-613.5
		 M1969.3-606.4h-4.6v6.4h4.6c2.1,0,3.5-1.2,3.5-3.2S1971.4-606.4,1969.3-606.4"/>
	<path d="M1984.9-600c-0.7,0.7-1.7,1.2-2.9,1.2s-2.2-0.4-2.9-1.2c-1.1-1.1-1.3-2.7-1.3-4.2s0.2-3.1,1.3-4.2c0.7-0.7,1.7-1.2,2.9-1.2
		s2.2,0.4,2.9,1.2c1.1,1.1,1.3,2.7,1.3,4.2C1986.2-602.7,1986-601.1,1984.9-600 M1984.2-607.8c-0.6-0.6-1.3-0.9-2.2-0.9
		s-1.6,0.3-2.2,0.9c-0.9,0.9-0.9,2.3-0.9,3.5s0.1,2.6,0.9,3.5c0.6,0.6,1.3,0.9,2.2,0.9s1.6-0.3,2.2-0.9c0.9-0.9,0.9-2.3,0.9-3.5
		S1985.1-606.9,1984.2-607.8"/>
	<path d="M2000.1-599h-1.1l-3-8.8l-3,8.8h-1.1l-3.4-10.5h1.2l2.7,9.2l3-9.2h1.1l3,9.2l2.7-9.2h1.2L2000.1-599"/>
	<path d="M2009.1-599c-1.7,0-2.5-1.1-2.5-2.7v-12.8h1.1v12.8c0,1.2,0.4,1.8,1.6,1.8h0.8v1L2009.1-599"/>
	<g>
		<path class="st6" d="M2007.6-645.3l13.1-33.4h-69.4l13.1,33.4H2007.6z"/>
		<g>
			<path class="st8" d="M959.7,238.8l14,4.7l-129.1,58.6l-14-4.7L959.7,238.8z"/>
			<path class="st8" d="M959.7,314l14,4.7l-129.1,58.6l-14-4.7L959.7,314z"/>
			<path class="st8" d="M973.7,243.5l-129.1,58.6v75.2l129.1-58.6V243.5z"/>
			<path class="st8" d="M844.6,377.3l-14-4.7v-75.2l14,4.7V377.3z"/>
		</g>
		<g>
			<path class="st2" d="M973.7,123.3l14,4.7l-129.1,58.8l-14-4.7L973.7,123.3z"/>
			<path class="st2" d="M973.7,198.5l14,4.7l-129.1,58.6l-14-4.7L973.7,198.5z"/>
			<path class="st2" d="M987.7,128l-129.1,58.6v75.2l129.1-58.6V128z"/>
			<path class="st2" d="M858.6,261.8l-14-4.7v-75.2l14,4.7V261.8z"/>
		</g>
		<g>
			<g>
				<path class="st4" d="M853.3,185.1V260"/>
				<path class="st4" d="M850.4,183.8v75.3"/>
				<path class="st4" d="M847.5,182.9v75.2"/>
				<path class="st4" d="M856.2,185.8V261"/>
				<path class="st4" d="M853.3,185.1l129.4-58.8"/>
				<path class="st4" d="M850.4,183.8l128.9-58.7"/>
				<path class="st4" d="M847.5,182.9l128.7-58.8"/>
				<path class="st4" d="M856.2,185.8l129-58.7"/>
			</g>
			<path class="st9" d="M985.2,247.4l1.3,1.3"/>
		</g>
		<g>
			<path class="st8" d="M987.7,248.2l14,4.7l-129.1,58.7l-14-4.7L987.7,248.2z"/>
			<path class="st8" d="M987.7,323.4l14,4.7l-129.1,58.6l-14-4.7L987.7,323.4z"/>
			<path class="st8" d="M1001.7,252.9l-129.1,58.7v75.2l129.1-58.6V252.9z"/>
			<path class="st8" d="M872.6,386.7l-14-4.7v-75.2l14,4.7V386.7z"/>
		</g>
	</g>
	<path class="st0" d="M1006.1,186.8V233"/>
	<path class="st3" d="M1006.1,186.8v38.5"/>
	<path d="M1000.8,223.8l5.3,9.3l5.3-9.3H1000.8z"/>
	<path class="st0" d="M1892.5,253.7v46.2"/>
	<path class="st3" d="M1892.5,253.7v38.5"/>
	<path d="M1887.1,290.6l5.3,9.2l5.3-9.2H1887.1z"/>
	<g>
		<path class="st25" d="M2034.6-518.4H463.7"/>
		<g>
			<path class="st25" d="M2034.6,32.7H463.7"/>
			<path class="st25" d="M2034.6,838.4H463.7"/>
		</g>
		<path class="st3" d="M1139,1113.3c-15.3-10.2-36.1-8.6-49.6,4.9"/>
	</g>
	<path d="M1141,1108.3l3.9,9.9l-10.6-1.5L1141,1108.3z"/>
	<path d="M1557.6-599l-1.4-3.8h-7.2l-1.4,3.8h-1.3l5.7-15.5h1l5.7,15.5H1557.6 M1552.6-613l-3.3,9.1h6.5L1552.6-613"/>
	<path d="M1571.5-599h-1.1l-3-8.8l-3,8.8h-1.1l-3.4-10.5h1.2l2.7,9.2l3-9.2h1.1l3,9.2l2.7-9.2h1.2L1571.5-599"/>
	<path d="M1580.5-599c-1.7,0-2.5-1.1-2.5-2.7v-12.8h1.1v12.8c0,1.2,0.4,1.8,1.6,1.8h0.8v1L1580.5-599"/>
	<path class="st7" d="M1567.9-734.6c5.6,0,4.8-10.9-0.4-10.7c-3,0.1-4.1,0.8-4.1,11.5c0,35.6,0,46.6,0,46.6"/>
	<path d="M1564.5-690.1l-1.1,45l-1.1-45H1564.5z"/>
	<g>
		<path class="st7" d="M754.7-268.9l48.6-48.6"/>
		<path class="st7" d="M754.7-203.2l48.6,48.6"/>
		<path class="st7" d="M1509.7-268.9l-48.6-48.6"/>
		<path class="st7" d="M1509.7-203.2l-48.6,48.6"/>
	</g>
	<path class="st0" d="M1126.8-71.2l43.5-19.8"/>
	<path class="st3" d="M1126.8-71.2l36.5-16.6"/>
	<path d="M1164.1-82.3l6.2-8.7l-10.6-1L1164.1-82.3z"/>
	<g>
		<path class="st18" d="M1174-217.2c0.5,1.4-13.4,10-15.9,12.2s-24.2,21.1-24.7,22.3c-0.4,1.2,0.5,1.7-0.3,2s-3.1-1-3.1-1l-6.5,6.5
			h-0.9l-7,7l-2.5-8.8l4.1-4.1l-0.2-0.9l5-5c0,0-1-0.7,0-1.7c0.9-1,29.4-30.8,29.4-30.8s4.5-4.4,9.1-3.7
			C1164.9-222.3,1172.8-220.2,1174-217.2L1174-217.2z"/>
		<path class="st19" d="M1161.8-214.3l-5.7-5.7l-43,43l2.5,8.8L1161.8-214.3z"/>
		<g>
			<path class="st18" d="M1121.9-187c0,0-1-0.7,0-1.7c0.9-1,29.4-30.8,29.4-30.8s4.5-4.4,9.1-3.7c4.6,0.8,12.4,2.8,13.6,5.9
				c0.5,1.4-13.4,10-15.9,12.2s-24.2,21.1-24.7,22.3c-0.4,1.2,0.5,1.7-0.3,2s-3.1-1-3.1-1L1121.9-187L1121.9-187z"/>
			<path class="st2" d="M1150.6-206.1l-2.7-2.7l-23.5,23.5l3.1,2.4L1150.6-206.1z"/>
			<g>
				<path class="st20" d="M1165.7-215.8c-0.4,0.4-0.4,1.1,0,1.5c0.4,0.4,1.1,0.4,1.5,0l1.7-1.7c0.4-0.4,0.4-1.1,0-1.5
					s-1.1-0.4-1.5,0L1165.7-215.8L1165.7-215.8z"/>
				<path class="st4" d="M1119.9-181.1l1.2,4.7"/>
				<g>
					<path class="st20" d="M1158.3-213.5l-4.6-1.2l-3.5,3.5l2.9,2.9L1158.3-213.5z"/>
					<path class="st20" d="M1124.3-185.5l20.3-20.3"/>
					<path class="st20" d="M1127.8-183l20-20"/>
				</g>
				<g>
					<path class="st4" d="M1136.4-197.5l1.2,4.7"/>
					<path class="st4" d="M1133.1-194.2l1.2,4.7"/>
					<path class="st4" d="M1129.8-191l1.2,4.7"/>
					<path class="st4" d="M1126.5-187.7l1.2,4.7"/>
					<path class="st4" d="M1123.2-184.4l1.2,4.7"/>
					<path class="st4" d="M1116.1-180l2.4,9"/>
				</g>
			</g>
			<g>
				<circle class="st21" cx="1149.1" cy="-207.7" r="4.9"/>
				<circle class="st20" cx="1149.1" cy="-207.7" r="1.6"/>
				<g>
					<path class="st22" d="M1123.5-175.2h-3c0,0-1.7-0.4,0.7-2.8c0,0,1.1-1.3,1.7-1.6c0.7-0.3,2-0.5,2.2-0.7
						c0.2-0.2,2.7-2.7,2.7-2.7l2.2,1.3L1123.5-175.2z"/>
					<path class="st22" d="M1116.9-182c0,0,0.4,2.7,1.2,2.4c0.8-0.3,2-1.7,2.7-2.3c0.7-0.7,3.5-3.6,3.5-3.6l-2.4-1.5L1116.9-182
						L1116.9-182z"/>
				</g>
			</g>
			<path class="st5" d="M841.7,644.8v15.3"/>
			<path class="st2" d="M841.7,644.8h129.1v15.3H841.7V644.8z"/>
		</g>
	</g>
	<g>
		<path id="_x36_" class="st4" d="M970.8,657.1H841.7"/>
	</g>
	<g>
		<path id="_x36__1_" class="st4" d="M970.8,657.1H841.7"/>
	</g>
	<g>
		<path class="st4" d="M970.8,654H841.7"/>
		<path class="st4" d="M970.8,650.9H841.7"/>
		<path class="st4" d="M970.8,647.9H841.7"/>
	</g>
	<g>
		<path id="_x36__2_" class="st4" d="M970.8,657.1H841.7"/>
	</g>
	<g>
		<g>
			<g>
				<path class="st8" d="M821.4,660.1H991V676H821.4V660.1z"/>
				<path class="st8" d="M821.4,628.9H991v15.9H821.4V628.9z"/>
			</g>
			<path class="st14" d="M795.1,521.2h64v2.8h-64V521.2z"/>
		</g>
		<g>
			<path class="st15" d="M850.2,521.2v-2.7H844v2.7v2.8v59.4V600v20.7h1.4v3.8h-4.1v4.3H853v-4.3h-4.1v-3.8h1.4V600v-16.6V524
				L850.2,521.2z"/>
			<circle class="st14" cx="859.1" cy="522.5" r="2.7"/>
		</g>
		<path class="st16" d="M844,518.6h6.2v102.2H844V518.6z"/>
		<g>
			<path class="st13" d="M843.5,583.4c0,0-3.7-0.4-3.7,2c-17.5,0-37.1-2.9-43.9,4c-11.3,11.3-11.5,22.1-11.5,46.7
				c0,24.6,0,46.8,9,55.8c2.9,2.9,11.3,6.9,26.9,6.9c24.3,0,34.9-22.8,34.9-22.8h-15.4v6c0,0-26,3.5-29.5,0c-3.2-3.2-3-35.2-3-45.2
				s0.6-34.9,3.1-37.4c2.5-2.5,19.7-1.4,29.3-1.4v1.9h3.7h7.1h3.8v-14.6c0-2.3-3.7-2-3.7-2L843.5,583.4L843.5,583.4z"/>
			<g>
				<circle class="st14" cx="796.6" cy="522.5" r="2.7"/>
				<path class="st14" d="M953.4,521.2h64v2.8h-64V521.2z"/>
			</g>
		</g>
		<g>
			<path class="st15" d="M962.2,521.2v-2.7h6.2v2.7v2.8v59.4V600v20.7H967v3.8h4.1v4.3h-11.7v-4.3h4.1v-3.8h-1.3V600v-16.6V524
				L962.2,521.2z"/>
			<circle class="st14" cx="953.4" cy="522.5" r="2.7"/>
		</g>
		<path class="st16" d="M962.2,518.6h6.2v102.2h-6.2V518.6z"/>
		<g>
			<path class="st13" d="M968.9,583.4c0,0,3.7-0.4,3.7,2c17.5,0,37.1-2.9,43.9,4c11.3,11.3,11.5,22.1,11.5,46.7
				c0,24.6,0,46.8-9,55.8c-2.9,2.9-11.3,6.9-26.9,6.9c-24.3,0-34.9-22.8-34.9-22.8h15.4v6c0,0,26,3.5,29.5,0c3.2-3.2,3-35.2,3-45.2
				s-0.6-34.9-3.1-37.4c-2.5-2.5-19.7-1.4-29.3-1.4v1.9H969h-7.1h-3.8v-14.6c0-2.3,3.7-2,3.7-2L968.9,583.4L968.9,583.4z"/>
			<g>
				<circle class="st14" cx="1015.8" cy="522.5" r="2.7"/>
				<g>
					<path class="st4" d="M841.7,644.8l15.2,15.2"/>
					<path class="st4" d="M854.3,644.8l15.2,15.2"/>
					<path class="st4" d="M867,644.8l15.2,15.2"/>
					<path class="st4" d="M879.7,644.8l15.2,15.2"/>
					<path class="st4" d="M892.3,644.8l15.2,15.2"/>
					<path class="st4" d="M905,644.8l15.2,15.2"/>
					<path class="st4" d="M917.7,644.8l15.2,15.2"/>
					<path class="st4" d="M930.3,644.8l15.2,15.2"/>
					<path class="st4" d="M943,644.8l15.2,15.2"/>
					<path class="st4" d="M955.6,644.8l15.2,15.2"/>
					<path class="st4" d="M970.8,644.8L955.6,660"/>
					<path class="st4" d="M958.1,644.8L942.9,660"/>
					<path class="st4" d="M945.5,644.8L930.3,660"/>
					<path class="st4" d="M932.8,644.8L917.6,660"/>
					<path class="st4" d="M920.2,644.8L905,660"/>
					<path class="st4" d="M907.5,644.8L892.3,660"/>
					<path class="st4" d="M894.8,644.8L879.6,660"/>
					<path class="st4" d="M882.2,644.8L867,660"/>
					<path class="st4" d="M869.5,644.8L854.3,660"/>
					<path class="st4" d="M856.8,644.8L841.6,660"/>
				</g>
			</g>
		</g>
	</g>
	<path class="st0" d="M884.6,585.6l32.6,32.6"/>
	<path class="st3" d="M884.6,585.6l27.2,27.2"/>
	<path d="M907,615.5l10.3,2.7l-2.7-10.3L907,615.5z"/>
	<g>
		<path class="st18" d="M993.2,704c-1.4,0.5-10-13.4-12.2-15.9s-21.1-24.2-22.3-24.7c-1.2-0.4-1.7,0.5-2-0.3s1-3.1,1-3.1l-6.5-6.5
			v-0.9l-7-7l8.8-2.5l4.1,4.1l0.9-0.2l5,5c0,0,0.7-1,1.7-0.1s30.8,29.4,30.8,29.4s4.4,4.5,3.7,9.1
			C998.4,694.9,996.3,702.7,993.2,704L993.2,704z"/>
		<path class="st19" d="M990.4,691.7l5.7-5.7l-43-43l-8.8,2.6L990.4,691.7z"/>
		<g>
			<path class="st18" d="M963,651.9c0,0,0.7-1,1.7-0.1s30.8,29.4,30.8,29.4s4.4,4.5,3.7,9.1c-0.8,4.6-2.8,12.4-5.9,13.6
				c-1.4,0.5-10-13.4-12.2-15.9s-21.1-24.2-22.3-24.7c-1.2-0.4-1.7,0.5-2-0.3s1-3.1,1-3.1L963,651.9L963,651.9z"/>
			<path class="st2" d="M982.2,680.6l2.7-2.8l-23.5-23.5l-2.4,3.1L982.2,680.6z"/>
			<g>
				<path class="st20" d="M991.9,695.7c-0.4-0.4-1.1-0.4-1.5,0s-0.4,1.1,0,1.5l1.7,1.7c0.4,0.4,1.1,0.4,1.5,0s0.4-1.1,0-1.5
					L991.9,695.7L991.9,695.7z"/>
				<path class="st4" d="M957.2,649.9l-4.7,1.2"/>
				<g>
					<path class="st20" d="M989.6,688.3l1.2-4.6l-3.5-3.4l-2.9,2.9L989.6,688.3z"/>
					<path class="st20" d="M961.5,654.3l20.3,20.3"/>
					<path class="st20" d="M959.1,657.8l20,20"/>
				</g>
				<g>
					<path class="st4" d="M973.6,666.4l-4.7,1.2"/>
					<path class="st4" d="M970.3,663.1l-4.7,1.2"/>
					<path class="st4" d="M967,659.8l-4.7,1.2"/>
					<path class="st4" d="M963.7,656.5l-4.7,1.2"/>
					<path class="st4" d="M960.5,653.2l-4.7,1.2"/>
					<path class="st4" d="M956.1,646.1l-9,2.4"/>
				</g>
			</g>
			<g>
				<circle class="st21" cx="983.7" cy="679.1" r="4.9"/>
				<circle class="st20" cx="983.7" cy="679.1" r="1.6"/>
				<g>
					<path class="st22" d="M951.3,653.5v-3c0,0,0.4-1.7,2.8,0.7c0,0,1.3,1.1,1.6,1.7c0.3,0.7,0.5,2,0.7,2.2s2.7,2.7,2.7,2.7
						l-1.3,2.2L951.3,653.5L951.3,653.5z"/>
					<path class="st22" d="M958,646.9c0,0-2.7,0.4-2.4,1.2s1.7,2,2.3,2.7c0.7,0.7,3.6,3.5,3.6,3.5l1.5-2.4L958,646.9z"/>
				</g>
			</g>
		</g>
	</g>
	<path class="st0" d="M1017.6,711.7l19.6,19.6"/>
	<path class="st3" d="M1017.6,711.7l14.2,14.2"/>
	<path d="M1026.9,728.6l10.3,2.8l-2.7-10.3L1026.9,728.6z"/>
	<g>
		<path class="st5" d="M544.1,644.8v15.3"/>
		<path class="st2" d="M544.1,644.8h129.1v15.3H544.1V644.8z"/>
	</g>
	<g>
		<path id="_x37_" class="st4" d="M673.2,657.1H544.1"/>
	</g>
	<g>
		<path id="_x37__1_" class="st4" d="M673.2,657.1H544.1"/>
	</g>
	<g>
		<path class="st4" d="M673.2,654H544.1"/>
		<path class="st4" d="M673.2,650.9H544.1"/>
		<path class="st4" d="M673.2,647.9H544.1"/>
	</g>
	<g>
		<path id="_x37__2_" class="st4" d="M673.2,657.1H544.1"/>
	</g>
	<g>
		<g>
			<g>
				<path class="st8" d="M523.8,660.1h169.6V676H523.8V660.1z"/>
				<path class="st8" d="M523.8,628.9h169.6v15.9H523.8V628.9z"/>
			</g>
			<path class="st14" d="M497.5,521.2h64v2.8h-64V521.2z"/>
		</g>
		<g>
			<path class="st15" d="M552.6,521.2v-2.7h-6.2v2.7v2.8v59.4V600v20.7h1.4v3.8h-4.1v4.3h11.8v-4.3h-4.1v-3.8h1.4V600v-16.6V524
				L552.6,521.2z"/>
			<circle class="st14" cx="561.5" cy="522.5" r="2.7"/>
		</g>
		<path class="st16" d="M546.4,518.6h6.2v102.2h-6.2V518.6z"/>
		<g>
			<path class="st13" d="M545.9,583.4c0,0-3.7-0.4-3.7,2c-17.5,0-37.1-2.9-43.9,4c-11.3,11.3-11.5,22.1-11.5,46.7
				c0,24.6,0,46.8,9,55.8c2.9,2.9,11.3,6.9,26.9,6.9c24.3,0,34.9-22.8,34.9-22.8h-15.4v6c0,0-26,3.5-29.5,0c-3.2-3.2-3-35.2-3-45.2
				s0.6-34.9,3.1-37.4c2.5-2.5,19.7-1.4,29.3-1.4v1.9h3.7h7.1h3.8v-14.6c0-2.3-3.7-2-3.7-2L545.9,583.4L545.9,583.4z"/>
			<g>
				<circle class="st14" cx="499" cy="522.5" r="2.7"/>
				<path class="st14" d="M655.8,521.2h64v2.8h-64V521.2z"/>
			</g>
		</g>
		<g>
			<path class="st15" d="M664.6,521.2v-2.7h6.2v2.7v2.8v59.4V600v20.7h-1.4v3.8h4.1v4.3h-11.7v-4.3h4.1v-3.8h-1.3V600v-16.6V524
				L664.6,521.2L664.6,521.2z"/>
			<circle class="st14" cx="655.8" cy="522.5" r="2.7"/>
		</g>
		<path class="st16" d="M664.6,518.6h6.2v102.2h-6.2V518.6z"/>
		<g>
			<path class="st13" d="M671.3,583.4c0,0,3.7-0.4,3.7,2c17.5,0,37.1-2.9,43.9,4c11.3,11.3,11.5,22.1,11.5,46.7
				c0,24.6,0,46.8-9,55.8c-2.9,2.9-11.3,6.9-26.9,6.9c-24.3,0-34.9-22.8-34.9-22.8H675v6c0,0,26,3.5,29.5,0c3.2-3.2,3-35.2,3-45.2
				s-0.6-34.9-3.1-37.4c-2.5-2.5-19.7-1.4-29.3-1.4v1.9h-3.7h-7.1h-3.8v-14.6c0-2.3,3.7-2,3.7-2L671.3,583.4L671.3,583.4z"/>
			<g>
				<circle class="st14" cx="718.2" cy="522.5" r="2.7"/>
				<g>
					<path class="st4" d="M673.2,644.8L658,660"/>
					<path class="st4" d="M660.5,644.8L645.3,660"/>
					<path class="st4" d="M647.9,644.8L632.7,660"/>
					<path class="st4" d="M635.2,644.8L620,660"/>
					<path class="st4" d="M622.5,644.8L607.3,660"/>
					<path class="st4" d="M609.9,644.8L594.7,660"/>
					<path class="st4" d="M597.2,644.8L582,660"/>
					<path class="st4" d="M584.6,644.8L569.4,660"/>
					<path class="st4" d="M571.9,644.8L556.7,660"/>
					<path class="st4" d="M559.2,644.8L544,660"/>
				</g>
			</g>
		</g>
	</g>
	<path class="st0" d="M624.9,585.6l-32.6,32.6"/>
	<path class="st3" d="M624.9,585.6l-27.2,27.2"/>
	<path d="M595,607.9l-2.7,10.3l10.3-2.7L595,607.9z"/>
	<g>
		<path class="st18" d="M521.8,703.6c1.4,0.5,10-13.4,12.2-15.9s21.1-24.2,22.3-24.7c1.2-0.4,1.7,0.5,2-0.3s-1-3.1-1-3.1l6.5-6.5
			v-0.9l7-7l-8.8-2.5l-4.1,4.1l-0.9-0.2l-5,5c0,0-0.7-1-1.7-0.1s-30.8,29.4-30.8,29.4s-4.4,4.5-3.7,9.1
			C516.6,694.6,518.7,702.4,521.8,703.6L521.8,703.6z"/>
		<path class="st19" d="M524.6,691.4l-5.7-5.7l43-43l8.8,2.6L524.6,691.4z"/>
		<g>
			<path class="st18" d="M552,651.6c0,0-0.7-1-1.7-0.1s-30.8,29.4-30.8,29.4s-4.4,4.5-3.7,9.1c0.8,4.6,2.8,12.4,5.9,13.6
				c1.4,0.5,10-13.4,12.2-15.9c2.2-2.5,21.1-24.2,22.3-24.7c1.2-0.4,1.7,0.5,2-0.3s-1-3.1-1-3.1L552,651.6L552,651.6z"/>
			<path class="st2" d="M532.8,680.3l-2.7-2.7l23.5-23.5l2.4,3.1L532.8,680.3z"/>
			<g>
				<path class="st20" d="M523.1,695.4c0.4-0.4,1.1-0.4,1.5,0c0.4,0.4,0.4,1.1,0,1.5l-1.7,1.7c-0.4,0.4-1.1,0.4-1.5,0
					c-0.4-0.4-0.4-1.1,0-1.5L523.1,695.4L523.1,695.4z"/>
				<path class="st4" d="M557.8,649.6l4.7,1.2"/>
				<g>
					<path class="st20" d="M525.4,688l-1.2-4.6l3.5-3.4l2.9,2.9L525.4,688z"/>
					<path class="st20" d="M553.4,654l-20.3,20.3"/>
					<path class="st20" d="M555.9,657.4l-20,20"/>
				</g>
				<g>
					<path class="st4" d="M541.4,666.1l4.7,1.2"/>
					<path class="st4" d="M544.7,662.8l4.7,1.2"/>
					<path class="st4" d="M548,659.5l4.7,1.2"/>
					<path class="st4" d="M551.3,656.2l4.7,1.2"/>
					<path class="st4" d="M554.5,652.9l4.7,1.2"/>
					<path class="st4" d="M558.9,645.8l9,2.4"/>
				</g>
			</g>
			<g>
				<circle class="st21" cx="531.3" cy="678.8" r="4.9"/>
				<circle class="st20" cx="531.3" cy="678.8" r="1.6"/>
				<g>
					<path class="st22" d="M563.7,653.1v-3c0,0-0.4-1.7-2.8,0.7c0,0-1.3,1.1-1.6,1.7c-0.3,0.7-0.5,2-0.7,2.2
						c-0.2,0.2-2.7,2.7-2.7,2.7l1.3,2.2L563.7,653.1L563.7,653.1z"/>
					<path class="st22" d="M557,646.6c0,0,2.7,0.4,2.4,1.2c-0.3,0.8-1.7,2-2.3,2.7c-0.7,0.7-3.6,3.5-3.6,3.5l-1.5-2.4L557,646.6z"/>
				</g>
			</g>
		</g>
	</g>
	<path class="st0" d="M498.8,711.7l-19.6,19.6"/>
	<path class="st3" d="M498.8,711.7l-14.2,14.2"/>
	<path d="M481.9,721.1l-2.8,10.3l10.3-2.8L481.9,721.1z"/>
</g>
</svg>
