<?xml version="1.0" encoding="utf-8"?>
<!-- Generator: Adobe Illustrator 21.1.0, SVG Export Plug-In . SVG Version: 6.00 Build 0)  -->
<svg version="1.1" id="Layer_1" xmlns="http://www.w3.org/2000/svg" xmlns:xlink="http://www.w3.org/1999/xlink" x="0px" y="0px"
	 viewBox="0 0 60 60" style="enable-background:new 0 0 60 60;" xml:space="preserve">
<path style='stroke: black; fill: white;' d="M30,0C13.4,0,0,13.4,0,30s13.4,30,30,30s30-13.4,30-30S46.6,0,30,0z M47.7,34.6c-2.1,8.1-9.4,13.7-17.7,13.7
	s-15.6-5.6-17.7-13.7c-0.3-1.1,0.4-2.2,1.4-2.4c1.1-0.3,2.2,0.4,2.4,1.4c1.6,6.3,7.3,10.7,13.8,10.7s12.2-4.4,13.8-10.7
	c0.3-1.1,1.4-1.7,2.4-1.4C47.3,32.4,48,33.5,47.7,34.6z"/>
</svg>
