<?xml version="1.0" encoding="utf-8"?>
<!-- Generator: Adobe Illustrator 17.0.0, SVG Export Plug-In . SVG Version: 6.00 Build 0)  -->
<!DOCTYPE svg PUBLIC "-//W3C//DTD SVG 1.1//EN" "http://www.w3.org/Graphics/SVG/1.1/DTD/svg11.dtd">
<svg version="1.1" id="Layer_1" xmlns="http://www.w3.org/2000/svg" xmlns:xlink="http://www.w3.org/1999/xlink" x="0px" y="0px"
	 width="936px" height="1289.34px" viewBox="0 39.477 936 1289.34" enable-background="new 0 39.477 936 1289.34"
	 xml:space="preserve">
<path fill="#064F8A" d="M0,39.477h936v1289.34H0V39.477z"/>
<path fill="#231F20" d="M349.163,953.632l-2.551,5.113l-3.159-4.762L349.163,953.632z"/>
<g>
	<path fill="#FFFFFF" d="M286.386,603.455v26.755h13.965v16.758h-13.965V687.1h-18.669v-99.961h36.31v16.317H286.386z"/>
	<path fill="#FFFFFF" d="M306.523,687.1v-99.961h19.11v82.321h17.199v17.64H306.523z"/>
	<path fill="#FFFFFF" d="M345.331,687.1v-99.961h19.257V687.1H345.331z"/>
	<path fill="#FFFFFF" d="M394.135,652.113h-3.381V687.1h-18.522v-99.961c0,0,11.466-0.735,22.491-0.735
		c16.611,0,25.138,11.319,25.138,29.842C419.86,638.736,409.129,652.113,394.135,652.113z M392.812,601.397h-2.058v34.986h1.911
		c5.292,0,8.526-6.909,8.526-18.375C401.191,607.865,398.545,601.397,392.812,601.397z"/>
	<path fill="#FFFFFF" d="M445.438,687.541c-9.702,0-21.609-0.441-21.609-0.441v-99.961c0,0,11.907-0.735,23.079-0.735
		c16.759,0,23.668,9.702,23.668,23.227c0,11.76-4.557,20.581-9.408,22.197c7.203,2.058,12.937,9.997,12.937,24.256
		C474.104,675.928,463.813,687.541,445.438,687.541z M444.261,600.515h-2.205v28.519h6.174c2.058-2.793,3.822-7.644,3.822-14.994
		C452.053,605.66,449.554,600.515,444.261,600.515z M445.584,642.705h-3.528v30.283h3.087c5.88,0,9.555-5.733,9.555-15.583
		C454.699,647.997,451.023,642.705,445.584,642.705z"/>
	<path fill="#FFFFFF" d="M501.59,688.423c-20.139,0-25.283-21.021-25.283-50.569c0-30.43,6.32-52.039,27.783-52.039
		c19.992,0,24.99,21.021,24.99,50.569C529.08,666.813,522.906,688.423,501.59,688.423z M502.767,601.838
		c-4.998,0-7.056,14.7-7.056,33.811c0,22.051,1.322,36.751,7.056,36.751c4.851,0,6.909-14.7,6.909-33.811
		C509.676,616.539,508.205,601.838,502.767,601.838z"/>
	<path fill="#FFFFFF" d="M557.597,688.423c-20.14,0-25.284-21.021-25.284-50.569c0-30.43,6.32-52.039,27.783-52.039
		c19.992,0,24.99,21.021,24.99,50.569C585.086,666.813,578.912,688.423,557.597,688.423z M558.773,601.838
		c-4.998,0-7.057,14.7-7.057,33.811c0,22.051,1.323,36.751,7.057,36.751c4.851,0,6.908-14.7,6.908-33.811
		C565.682,616.539,564.212,601.838,558.773,601.838z"/>
	<path fill="#FFFFFF" d="M620.66,687.1c-8.086-41.749-9.408-44.688-11.025-45.57h-0.588v45.57h-18.522v-99.961h18.522v44.395
		c2.352-6.468,11.613-44.395,11.613-44.395h20.139l-15.436,46.453c1.765,1.029,4.558,5.733,15.877,53.509H620.66z"/>
	<path fill="#FFFFFF" d="M650.057,701.653h-12.643l22.639-124.953h12.496L650.057,701.653z"/>
	<path fill="#FFFFFF" d="M283.225,827.1l-1.911-19.551h-12.79L266.32,827.1H247.65l16.905-99.962h21.463l16.905,99.962H283.225z
		 M275.728,762.271c-0.441-3.822-0.882-12.937-0.882-12.937s-0.441,9.114-0.882,12.937l-3.822,30.871h9.408L275.728,762.271z"/>
	<path fill="#FFFFFF" d="M336.144,827.1l-12.79-45.13c-0.882-3.087-2.499-13.818-2.499-13.818s0.882,9.996,0.882,13.672
		l0.735,45.276h-17.346v-99.962h17.787l12.495,44.101c1.029,3.382,2.5,14.406,2.5,14.406s-0.588-11.466-0.588-15.582l-0.882-42.925
		h17.346V827.1H336.144z"/>
	<path fill="#FFFFFF" d="M361.427,827.1v-99.962h19.257V827.1H361.427z"/>
	<path fill="#FFFFFF" d="M438.602,827.1l-0.588-48.952c0-1.47-0.147-11.319-0.147-11.319s-1.176,9.85-1.323,11.173l-8.673,49.099
		h-13.965l-9.114-49.54c-0.294-1.323-1.176-11.025-1.176-11.025s0,9.556,0,11.025l-0.588,49.54h-17.052l4.851-99.962h19.992
		l10.144,53.362c0.735,3.234,1.029,12.054,1.029,12.054s0.441-8.673,1.029-11.907l9.408-53.509h19.993l4.263,99.962H438.602z"/>
	<path fill="#FFFFFF" d="M492.108,827.1l-1.911-19.551h-12.789l-2.205,19.551h-18.669l16.906-99.962h21.463l16.904,99.962H492.108z
		 M484.611,762.271c-0.441-3.822-0.882-12.937-0.882-12.937s-0.44,9.114-0.882,12.937l-3.822,30.871h9.408L484.611,762.271z"/>
	<path fill="#FFFFFF" d="M535.914,743.749V827.1h-19.11v-83.351h-12.055v-16.611h43.072v16.611H535.914z"/>
	<path fill="#FFFFFF" d="M550.76,827.1v-99.962h19.257V827.1H550.76z"/>
	<path fill="#FFFFFF" d="M600.739,828.423c-20.14,0-25.284-21.021-25.284-50.569c0-30.43,6.32-52.039,27.783-52.039
		c19.992,0,24.99,21.021,24.99,50.569C628.229,806.813,622.055,828.423,600.739,828.423z M601.916,741.838
		c-4.998,0-7.057,14.7-7.057,33.811c0,22.051,1.323,36.751,7.057,36.751c4.851,0,6.908-14.7,6.908-33.811
		C608.824,756.538,607.354,741.838,601.916,741.838z"/>
	<path fill="#FFFFFF" d="M664.685,827.1l-12.79-45.13c-0.881-3.087-2.498-13.818-2.498-13.818s0.882,9.996,0.882,13.672
		l0.735,45.276h-17.347v-99.962h17.787l12.495,44.101c1.029,3.382,2.5,14.406,2.5,14.406s-0.589-11.466-0.589-15.582l-0.882-42.925
		h17.346V827.1H664.685z"/>
</g>
</svg>
