<?xml version="1.0" encoding="utf-8"?>
<!-- Generator: Adobe Illustrator 22.1.0, SVG Export Plug-In . SVG Version: 6.00 Build 0)  -->
<svg version="1.1" id="Layer_1" xmlns="http://www.w3.org/2000/svg" xmlns:xlink="http://www.w3.org/1999/xlink" x="0px" y="0px"
	 viewBox="0 0 154.2 158.7" style="enable-background:new 0 0 154.2 158.7;" xml:space="preserve">
<style type="text/css">
	.st0{fill:#FFFFFF;}
</style>
<g>
	<polygon class="st0" points="93.1,31.8 85.3,42.6 85.3,104.4 46.5,158.7 46.5,31.8 38.8,42.6 38.8,104.4 0,158.7 0,54.3 38.8,0 
		38.8,26.1 32.2,35.3 23,48.2 23,31.8 15.8,41.8 15.8,126.9 22.9,116.9 23,64.8 18.6,71 18.6,61.3 62.3,0 62.3,126.9 69.5,116.9 
		69.5,31.8 65.1,38 65.1,28.3 85.3,0 85.3,33 108.9,0 108.9,31.9 131.6,0 131.6,31.6 154.2,0 154.2,136.5 138.4,158.7 138.4,31.8 
		131.7,41.2 131.6,104.9 115.8,127.1 115.8,31.8 108.9,41.5 108.9,136.5 93.1,158.7 	"/>
</g>
</svg>
