<svg xmlns="http://www.w3.org/2000/svg" viewBox="0 0 1728 3456" enable-background="new 0 0 1728 3456"><g fill="#fff"><g stroke="#000" stroke-linejoin="round" stroke-width="2" stroke-miterlimit="10"><path d="m851.2 202.17l144.92 27.83-136 82-157.34-35.33z"/><path d="m856.12 344.33l-173 107.67 183 53 151-112z"/><path d="m850.86 331.5l-167.74 104.5 183 53 151-112z"/><path d="m997 382.67l-136 96v-166.67l136-82z"/><path d="m861 312l-157.78-35.33 4.89 158.66 152.89 43.34z"/><path d="m802.01 383.16c0 14.522-13.1 23.03-29.04 19.05-15.687-3.911-28.23-18.479-28.23-32.594 0-14.12 12.538-22.753 28.23-19.245 15.937 3.563 29.04 18.265 29.04 32.788z"/></g><path d="m732.92 370.27l20.29-17.05 42.71 44.49-20.15 16.35z"/><path stroke="#000" stroke-width="2" stroke-linejoin="round" stroke-miterlimit="10" d="m782.74 398.3c0 14.783-13.212 23.337-29.28 19.17-15.821-4.104-28.466-19.03-28.466-33.401 0-14.371 12.645-23.06 28.466-19.367 16.07 3.753 29.28 18.821 29.28 33.601z"/></g><g stroke="#000" stroke-linejoin="round" stroke-miterlimit="10"><g stroke-width="2"><path fill="none" d="m686 437v16"/><g fill="#fff"><path d="m1018 377l-151 112v16l151-112z"/><path d="m867 489l-183-53v16l183 53z"/></g><g fill="none"><path d="m795.92 397.71l-20.16 16.356"/><path d="m753.39 353.1l-21.278 15.396"/></g></g><g fill="none"><path d="m826.37 761.61c-6.334-4.334-9.334-9-22.334-3.667s-26.333 22.667-31 40c-4.666 17.333-13.666 59.08-15.332 83.87-1.668 24.792-3.334 24.792-4 28.625-.668 3.833-4 22.833 0 31.5s10 15 18 10.667 25-19.667 28-30.17 1.666-28.667 3.332-36.25"/><g stroke-width="2"><path d="m811 771h29v105h-29z"/><ellipse cx="827.7" cy="772.94" rx="16.667" ry="5.667"/><ellipse cx="827.7" cy="765.28" rx="16.667" ry="4"/><path transform="matrix(.0246.9997-.9997.0246 1598.7-97.61)" d="m846.65 751.44h5.443v38.01h-5.443z"/></g></g><g stroke-width="2"><g fill="#fff"><path d="m857 743h27v154h-27z"/><path d="m883.79 742.88c0-2.124-6.04-3.845-13.5-3.845-7.457 0-13.506 1.722-13.506 3.845s6.05 3.845 13.506 3.845c7.455 0 13.5-1.721 13.5-3.845z"/></g><path fill="none" d="m826.37 928.19c0-16.707 27.423-30.25 61.26-30.25 33.827 0 61.25 13.543 61.25 30.25s-27.423 30.25-61.25 30.25c-33.836 0-61.26-13.544-61.26-30.25z"/><g fill="#fff"><path d="m826.37 918.19c0-16.707 27.423-30.25 61.26-30.25 33.827 0 61.25 13.543 61.25 30.25s-27.423 30.25-61.25 30.25c-33.836 0-61.26-13.544-61.26-30.25z"/><ellipse cx="898.37" cy="896.69" rx="36" ry="25.75"/></g></g><g fill="none"><ellipse cx="906.38" cy="878.82" rx="4.875" ry="4.375"/><ellipse cx="892.38" cy="878.82" rx="4.875" ry="4.375"/><ellipse cx="879.38" cy="883.82" rx="4.875" ry="4.375"/><ellipse cx="872.38" cy="894.82" rx="4.875" ry="4.375"/><ellipse cx="878.38" cy="907.82" rx="4.875" ry="4.375"/><ellipse cx="891.38" cy="914.82" rx="4.875" ry="4.375"/><ellipse cx="906.38" cy="914.82" rx="4.875" ry="4.375"/><ellipse cx="918.38" cy="908.82" rx="4.875" ry="4.375"/><ellipse cx="924.38" cy="897.82" rx="4.875" ry="4.375"/><g stroke-width="2"><ellipse cx="826.37" cy="873.44" rx="30.752" ry="17.17"/><ellipse cx="826.7" cy="873.61" rx="26.667" ry="9.333"/></g></g><g stroke-width="2"><g fill="#fff"><path d="m863 697h16v46h-16z"/><path d="m924.89 693.78c0 21.08-15.894 38.17-35.5 38.17s-35.508-17.09-35.508-38.17 15.901-38.17 35.508-38.17 35.5 17.09 35.5 38.17z"/><ellipse cx="907.6" cy="689.69" rx="19.12" ry="21.25"/></g><g fill="none"><path d="m997.5 1324.21c-1.98-21.245-42.573-34.834-90.66-30.351-48.1 4.482-85.48 25.339-83.5 46.585 1.98 21.243 42.583 34.833 90.67 30.351 48.09-4.484 85.47-25.34 83.49-46.585z"/><ellipse cx="983.19" cy="1235.79" rx="33.486" ry="13.5"/></g><g fill="#fff"><ellipse cx="814.16" cy="1273.79" rx="37.993" ry="15.5"/><path d="m996.77 1320.61c0 0-15.939-23.22-28.9-24.09s-45.2-12.234-50.2-38.23 7-27 21-31 13.5-10.5 13.5-10.5-2.5 8-2.5 16 65 8 65 8 3-3 0-13.5-5-30-7-33.5-10-2-15.5-7-5.5-10-16.5-10-24.5 2.5-34 0-39-.5-50 0c-23.396 1.063-48.01 16-58.51 17.5s-18.5 9-23.5 10-12.5 12-15.5 14-7.5 7-8.5 14-1.5 14.5-4.5 19.5-5.5 13.5-5 22 76 0 76 0-1-19.5-3-25-8-6.5-7.5-16.5 2-16.5 10.5-8.5c8.505 8-1 10 14.509 12 15.5 2 20.18 5 16.838 9.5s-3.338 34.468-27.344 51.23c-24 16.766-33.16 31.09-32.831 43.927"/></g><path fill="none" d="m798.32 1214.09c0 0-26.651-4.304-43.15 10.696s-75 85.5-71 128.5 28.371 70 91.94 63 113.07-64 73.06-91.5c-40-27.5-99.21-6.243-130-3s-56 8.968-8.5-18.266 129.53-31.802 161.02-24.02"/><g fill="#fff"><ellipse transform="matrix(.9976-.0688.0688.9976-87.55 66.63)" cx="922.92" cy="1303.52" rx="44.972" ry="38.973"/><ellipse transform="matrix(.9976-.0688.0688.9976-87.34 66.764)" cx="924.92" cy="1300.52" rx="22.642" ry="19.621"/></g><g fill="none"><path d="m848.19 1883l-40.67-2.67-7.08-8.75.25-15.25 12-28.25 4.25-104.75-3.75-21.75-.5-50.5 37.17-6.41 42.67 20.33 6.17 204.33z"/><path d="m876.7 1657.65l-1.25-52.07-3-6.5-1-42.25-6.5.25 1.25 40.5-2.75 7 .5 46.75"/><path d="m855.94 1714.33l-2.75-15-36.5 3.75 2.75 15z"/><path d="m872 1655v220"/><path d="m886.7 1662.83l5.5 208.5"/><path d="m830.27 1739.58l-8.58.09-.17-7 8.59-.25z"/><path d="m842.27 1738.58l-8.58.09-.17-7 8.59-.25z"/><path d="m856.28 1737.58l-8.59.09-.17-7 8.59-.25z"/><path d="m830.27 1751.58l-8.58.09-.17-7 8.59-.25z"/><path d="m842.27 1750.58l-8.58.09-.17-7 8.59-.25z"/><path d="m856.28 1749.58l-8.59.09-.17-7 8.59-.25z"/><path d="m830.27 1763.58l-8.58.09-.17-7 8.59-.25z"/><path d="m842.27 1762.58l-8.58.09-.17-7 8.59-.25z"/><path d="m856.28 1761.58l-8.59.09-.17-7 8.59-.25z"/><path d="m830.27 1775.58l-8.58.09-.17-7 8.59-.25z"/><path d="m842.27 1774.58l-8.58.09-.17-7 8.59-.25z"/><path d="m856.28 1773.58l-8.59.09-.17-7 8.59-.25z"/><path d="m829.27 1793.58l-8.58.09-.17-7 8.59-.25z"/><path d="m842.27 1794.58l-8.58.09-.17-7 8.59-.25z"/><path d="m856.28 1793.58l-8.59.09-.17-7 8.59-.25z"/><path d="m828.27 1807.58l-8.58.09-.17-7 8.59-.25z"/><path d="m842.27 1808.58l-8.58.09-.17-7 8.59-.25z"/><path d="m856.28 1806.58l-8.59.09-.17-7 8.59-.25z"/><path d="m828.27 1819.58l-8.58.09-.17-7 8.59-.25z"/><path d="m855.28 1821.58l-8.59.09-.17-7 8.59-.25z"/></g></g></g><circle cx="829.02" cy="1670.5" r="1.334"/><circle cx="835.02" cy="1670.5" r="1.334"/><circle cx="841.02" cy="1669.5" r="1.334"/><circle cx="838.02" cy="1672.5" r="1.334"/><circle cx="832.02" cy="1673.5" r="1.334"/><circle cx="830.02" cy="1676.5" r="1.334"/><circle cx="835.02" cy="1675.5" r="1.334"/><circle cx="841.02" cy="1675.5" r="1.334"/><circle cx="842.02" cy="1680.5" r="1.334"/><circle cx="838.02" cy="1678.5" r="1.334"/><circle cx="836.02" cy="1681.5" r="1.334"/><circle cx="830.02" cy="1682.5" r="1.334"/><circle cx="833.02" cy="1679.5" r="1.334"/><g stroke-linejoin="round" stroke-width="2" stroke-miterlimit="10"><g fill="none"><path stroke="#000" d="m845.82 1645.46c0 0 6.376.625 6.251 4.25-.125 3.625 3.752 45.875 4.503 47.875s4.378 19.375 4.753 21.25c.375 1.875.458 88.83.458 88.58s.168 18.17-.417 20c-.584 1.833-12.548 32.542-16.05 33.17s-37.875.375-40.12-.375-4.625-5.625-4.625-5.625"/><g stroke="#231f20"><path d="m898.26 2247.54c0 0 109.5 1 118.5-7s12.5-19.5 12.5-27.5 1.5-19.5-6-25-69.5-16.5-91.5-16.5-123.01 7-136.01 10-25.5 31-24.5 38 7 23 15.5 28 111.51 0 111.51 0z"/><path d="m946.01 2195.29c0 0 29.75 3.75 41.5 5s36.75 8 36.75 8 2-12-6-21.5"/><path d="m1029.26 2213.04c0 0-31-14.25-121.75-14.25-90.76 0-130.76 16-136.51 18.5"/><path d="m949.76 2173.04c0 0-.25 14.75 4.5 16s21.75 8 34.75 8.5 34.25-.75 34.25-.75-1.75-8.5-6.25-11"/><path d="m757.59 2191.2c0 0-18.666 20.666-34.33 37.666s-38.33 37-31 43.667 27.667 24.333 70 11.333 10.999-6.667 2.333-24-8-20.333 1-24.333 10.334-2.667 10.334-2.667l7 11.334c0 0 3.667 6 6 8.333s16.666 8 17.666 19.333-10.667 39-67 39-68.33-27.333-68.33-42.33 26.667-43.33 36.667-53.33 42-42 46-44"/></g></g><path fill="#fff" stroke="#231f20" d="m979.26 2072.04c-40-2.5-99.5 21-124.01 31.5-24.502 10.5-99.5 42.5-100.5 66.5s19 52 31 53 53.5-31.5 89.51-46.5c36-15 67-25.5 67-25.5s-2 2.5 5 2.5 42-7.5 51-18.5 13.5-9.5 6.5-29.5-10.663-32.573-25.5-33.5z"/></g><g fill="#231f20"><circle cx="800.17" cy="2164.54" r="1.146"/><circle cx="802.17" cy="2169.35" r="1.146"/><circle cx="804.17" cy="2174.16" r="1.146"/><circle cx="806.17" cy="2178.97" r="1.146"/><circle cx="808.17" cy="2183.79" r="1.146"/><circle cx="810.17" cy="2188.6" r="1.146"/><circle cx="795.86" cy="2167.47" r="1.146"/><circle cx="797.86" cy="2172.29" r="1.146"/><circle cx="799.86" cy="2177.1" r="1.146"/><circle cx="801.86" cy="2181.91" r="1.146"/><circle cx="803.86" cy="2186.72" r="1.146"/><circle cx="805.86" cy="2191.54" r="1.146"/><circle cx="791.55" cy="2170.41" r="1.146"/><circle cx="793.55" cy="2175.22" r="1.146"/><circle cx="795.55" cy="2180.04" r="1.146"/><circle cx="797.55" cy="2184.85" r="1.146"/><circle cx="799.55" cy="2189.66" r="1.146"/><circle cx="801.55" cy="2194.47" r="1.146"/><circle cx="787.23" cy="2173.35" r="1.146"/><circle cx="789.23" cy="2178.16" r="1.146"/><circle cx="791.23" cy="2182.97" r="1.146"/><circle cx="793.23" cy="2187.79" r="1.146"/><circle cx="795.23" cy="2192.6" r="1.146"/><circle cx="797.23" cy="2197.41" r="1.146"/><circle cx="782.92" cy="2176.29" r="1.146"/><circle cx="784.92" cy="2181.1" r="1.146"/><circle cx="786.92" cy="2185.91" r="1.146"/><circle cx="788.92" cy="2190.72" r="1.146"/><circle cx="790.92" cy="2195.54" r="1.146"/><circle cx="792.92" cy="2200.35" r="1.146"/><circle cx="778.61" cy="2179.22" r="1.146"/><circle cx="780.61" cy="2184.04" r="1.146"/><circle cx="782.61" cy="2188.85" r="1.146"/><circle cx="784.61" cy="2193.66" r="1.146"/><circle cx="786.61" cy="2198.47" r="1.146"/><circle cx="788.61" cy="2203.29" r="1.146"/></g><path fill="none" stroke="#231f20" stroke-miterlimit="10" d="m899.26 2100.2c-4.47-3.353-27.667 5.333-42.673 13-15 7.667-44.669 25-44.669 28s11.333 22 11.333 22 9.667 24 12.667 24.667 39.34-20 47.34-22.333c8-2.333 38.33-10.667 39.667-15.333 1.333-4.668-21-48-23.667-50z"/><g fill="#231f20"><circle cx="958.43" cy="2111.66" r="1.146"/><circle cx="964.24" cy="2113.1" r="1.146"/><circle cx="966.39" cy="2118.16" r="1.146"/><circle cx="962.89" cy="2122.22" r="1.146"/><circle cx="957.08" cy="2120.66" r="1.146"/><circle cx="954.76" cy="2115.47" r="1.146"/></g><g fill="none" stroke="#231f20" stroke-miterlimit="10"><ellipse cx="894.01" cy="2113.79" rx="4.5" ry="5"/><ellipse cx="901.01" cy="2128.79" rx="4.5" ry="5"/><ellipse cx="909.01" cy="2143.79" rx="4.5" ry="5"/><ellipse cx="877.01" cy="2119.79" rx="4.5" ry="5"/><ellipse cx="884.01" cy="2134.79" rx="4.5" ry="5"/><ellipse cx="892.01" cy="2149.79" rx="4.5" ry="5"/><ellipse cx="860.01" cy="2125.79" rx="4.503" ry="5"/><ellipse cx="867.01" cy="2140.79" rx="4.501" ry="5"/><ellipse cx="875.01" cy="2155.79" rx="4.5" ry="5"/><ellipse cx="843" cy="2131.79" rx="4.5" ry="5"/><ellipse cx="850.01" cy="2146.79" rx="4.501" ry="5"/><ellipse cx="858.01" cy="2161.79" rx="4.503" ry="5"/><path d="m837.25 2164.54c-.925 2.776-7.5 4.75-7.5 4.75l-6.25-14.25c0 0 2-5.5 5.5-4.75s4.25 4 6 6.75 3.333 4.25 2.25 7.5z"/><g stroke-linejoin="round" stroke-width="2"><path d="m761.58 2792.7c21.562 10.892 47.33 16 53.33 14s27.334-38.667 41.34-58c14.01-19.333 24.34-37.667 31.01-42.33s11.666-13 12.333-17 1-9-.333-11.333c-.333-.583-.666-1.333-.838-2.41-.517-3.234.42-9.421 7.171-22.924 9-18 36.666-77.83 36.666-77.83s7-14.5 6-24-24-23-33.5-27.5-40.5-7-47-2.5c-6.503 4.5-51.51 101.5-51.51 101.5l-6 15c0 0-3.5-1.5-7.5 3.5s-7.5 28.5-10 31.5-56 75-56 75-8 7.5-6 14 14.668 23.17 30.834 31.33z"/><path d="m947.58 2604.03l-49.17 71.59"/></g></g><path transform="matrix(.8266.5628-.5628.8266 1625.34-87.25)" fill="#231f20" d="m950.25 2571.36h8v45h-8z"/><g stroke="#231f20" stroke-miterlimit="10"><g fill="none"><g stroke-linejoin="round" stroke-width="2"><ellipse transform="matrix(.9021.4316-.4316.9021 1247.53-75.48)" cx="790.08" cy="2711.03" rx="10.05" ry="3.656"/><ellipse transform="matrix(.9021.4316-.4316.9021 1254.53-84.33)" cx="813.08" cy="2722.03" rx="10.05" ry="3.656"/><ellipse transform="matrix(.9021.4316-.4316.9021 1261.53-93.18)" cx="836.08" cy="2733.03" rx="10.05" ry="3.656"/><ellipse transform="matrix(.9021.4316-.4316.9021 1251.13-71.6)" cx="783.33" cy="2720.91" rx="10.05" ry="3.656"/><ellipse transform="matrix(.9021.4316-.4316.9021 1258.13-80.45)" cx="806.33" cy="2731.91" rx="10.05" ry="3.656"/><ellipse transform="matrix(.9021.4316-.4316.9021 1265.14-89.3)" cx="829.33" cy="2742.91" rx="10.05" ry="3.656"/><ellipse transform="matrix(.9021.4316-.4316.9021 1254.73-67.72)" cx="776.58" cy="2730.78" rx="10.05" ry="3.656"/><ellipse transform="matrix(.9021.4316-.4316.9021 1261.74-76.57)" cx="799.58" cy="2741.78" rx="10.05" ry="3.656"/><ellipse transform="matrix(.9021.4316-.4316.9021 1268.74-85.42)" cx="822.58" cy="2752.78" rx="10.05" ry="3.656"/><ellipse transform="matrix(.9021.4316-.4316.9021 1258.34-63.837)" cx="769.83" cy="2740.66" rx="10.05" ry="3.656"/><ellipse transform="matrix(.9021.4316-.4316.9021 1265.34-72.69)" cx="792.83" cy="2751.66" rx="10.05" ry="3.656"/><ellipse transform="matrix(.9021.4316-.4316.9021 1272.34-81.54)" cx="815.83" cy="2762.66" rx="10.05" ry="3.656"/></g><path d="m910.62 2528.36c11.84 4.21 39.834 17.667 33.17 37.667s-38.834 10-52.667 4-38.511-21.667-28.669-37.667c9.836-16 33.17-9.333 48.17-4z"/><g stroke-linejoin="round" stroke-width="2"><ellipse transform="matrix(.9021.4316-.4316.9021 1261.94-59.956)" cx="763.08" cy="2750.53" rx="10.05" ry="3.656"/><ellipse transform="matrix(.9021.4316-.4316.9021 1268.94-68.806)" cx="786.08" cy="2761.53" rx="10.05" ry="3.656"/></g></g><path fill="#fff" d="m912.37 2529.36c14.509 7.106 34.5 24.75 22.25 43.5s-36 12.25-46.25 8.25-37.519-21-25.25-40.5c12.251-19.5 37-17.25 49.25-11.25z"/><g fill="none" stroke-linejoin="round" stroke-width="2"><ellipse transform="matrix(.9021.4316-.4316.9021 1275.94-77.66)" cx="809.08" cy="2772.53" rx="10.05" ry="3.656"/><path d="m856.4 2722.27c-2.503 5.05-8.823 7.02-14.11 4.405l-43.46-21.515c-5.292-2.619-7.552-8.839-5.05-13.891l9.812-19.819c2.5-5.05 8.818-7.02 14.11-4.405l43.47 21.514c5.295 2.619 7.556 8.839 5.05 13.892l-9.816 19.819z"/><path d="m794.74 2670.11l10.5-23.5 82.76 38.5-5 24.88"/></g></g><g fill="#231f20"><circle cx="903.12" cy="2551.36" r="1.375"/><circle cx="899.12" cy="2554.36" r="1.375"/><circle cx="904.12" cy="2556.36" r="1.375"/><circle cx="894.12" cy="2557.36" r="1.375"/><circle cx="898.87" cy="2559.99" r="1.375"/><circle cx="904.12" cy="2561.8" r="1.375"/></g><path fill="none" stroke="#231f20" stroke-width="2" stroke-linejoin="round" stroke-miterlimit="10" d="m930 3289.32c0 9.11-6.454 17.682-15.49 17.682h-125.01c-9.04 0-16.495-8.571-16.495-17.682v-275.63c0-9.11 7.458-15.689 16.495-15.689h125.01c9.04 0 15.49 6.58 15.49 15.689v275.63z"/><g fill="#231f20"><path d="m774 3099.75c0 .692-.562 1.253-1.254 1.253h-.491c-.693 0-1.254-.561-1.254-1.253v-13.494c0-.692.562-1.253 1.254-1.253h.491c.693 0 1.254.561 1.254 1.253v13.494"/><path d="m774 3064.75c0 .692-.562 1.254-1.254 1.254h-.491c-.693 0-1.254-.562-1.254-1.254v-13.492c0-.692.562-1.254 1.254-1.254h.491c.693 0 1.254.562 1.254 1.254v13.492"/></g><g fill="none" stroke="#231f20" stroke-linejoin="round" stroke-miterlimit="10"><path d="m925.5 3284.41c0 8.787-7.527 17.09-15.857 17.09h-115.25c-8.33 0-14.897-8.307-14.897-17.09v-265.82c0-8.786 6.568-16.09 14.897-16.09h115.25c8.33 0 15.857 7.299 15.857 16.09v265.82z"/><path d="m811.5 3081.32c0 2.312-1.874 4.185-4.186 4.185h-14.629c-2.312 0-4.186-1.874-4.186-4.185v-16.63c0-2.312 1.874-4.185 4.186-4.185h14.629c2.312 0 4.186 1.874 4.186 4.185v16.63z"/><path d="m846.5 3080.76c0 2.311-2.436 3.738-4.749 3.738h-14.878c-2.312 0-4.374-1.427-4.374-3.738v-16.247c0-2.312 2.062-4.02 4.374-4.02h14.878c2.313 0 4.749 1.704 4.749 4.02v16.247z"/><path d="m880.5 3081.32c0 2.312-2.049 4.185-4.36 4.185h-14.631c-2.313 0-4.01-1.874-4.01-4.185v-16.63c0-2.312 1.695-4.185 4.01-4.185h14.631c2.312 0 4.36 1.874 4.36 4.185v16.63z"/><path d="m914.5 3080.76c0 2.311-2.047 3.738-4.359 3.738h-14.878c-2.312 0-3.763-1.427-3.763-3.738v-16.247c0-2.312 1.451-4.02 3.763-4.02h14.878c2.313 0 4.359 1.704 4.359 4.02v16.247z"/><path d="m811.5 3122.32c0 2.312-1.874 4.185-4.186 4.185h-14.629c-2.312 0-4.186-1.874-4.186-4.185v-16.63c0-2.312 1.874-4.185 4.186-4.185h14.629c2.312 0 4.186 1.874 4.186 4.185v16.63z"/><path d="m845.5 3122.32c0 2.312-1.874 4.185-4.186 4.185h-14.629c-2.312 0-4.186-1.874-4.186-4.185v-16.63c0-2.312 1.874-4.185 4.186-4.185h14.629c2.312 0 4.186 1.874 4.186 4.185v16.63z"/><path d="m880.5 3122.32c0 2.312-2.049 4.185-4.36 4.185h-14.631c-2.313 0-4.01-1.874-4.01-4.185v-16.63c0-2.312 1.695-4.185 4.01-4.185h14.631c2.312 0 4.36 1.874 4.36 4.185v16.63z"/><path d="m914.5 3122.32c0 2.312-1.874 4.185-4.186 4.185h-14.629c-2.312 0-4.186-1.874-4.186-4.185v-16.63c0-2.312 1.874-4.185 4.186-4.185h14.629c2.312 0 4.186 1.874 4.186 4.185v16.63z"/><path d="m811.5 3163.32c0 2.311-1.874 4.185-4.186 4.185h-14.629c-2.312 0-4.186-1.874-4.186-4.185v-16.631c0-2.311 1.874-4.185 4.186-4.185h14.629c2.312 0 4.186 1.874 4.186 4.185v16.631z"/><path d="m846.5 3162.82c0 2.311-2.436 4.682-4.749 4.682h-14.878c-2.312 0-4.374-2.371-4.374-4.682v-16.247c0-2.311 2.062-4.071 4.374-4.071h14.878c2.313 0 4.749 1.76 4.749 4.071v16.247z"/><path d="m880.5 3163.32c0 2.311-2.049 4.185-4.36 4.185h-14.631c-2.313 0-4.01-1.874-4.01-4.185v-16.631c0-2.311 1.695-4.185 4.01-4.185h14.631c2.312 0 4.36 1.874 4.36 4.185v16.631z"/><path d="m914.5 3162.82c0 2.311-2.047 4.682-4.359 4.682h-14.878c-2.312 0-3.763-2.371-3.763-4.682v-16.247c0-2.311 1.451-4.071 3.763-4.071h14.878c2.313 0 4.359 1.76 4.359 4.071v16.247z"/><path d="m811.5 3247.32c0 2.312-1.874 4.185-4.186 4.185h-14.628c-2.312 0-4.186-1.874-4.186-4.185v-16.63c0-2.312 1.874-4.185 4.186-4.185h14.628c2.312 0 4.186 1.874 4.186 4.185v16.63z"/><path d="m846.5 3247.32c0 2.312-1.874 4.185-4.186 4.185h-14.629c-2.312 0-4.186-1.874-4.186-4.185v-16.63c0-2.312 1.874-4.185 4.186-4.185h14.629c2.312 0 4.186 1.874 4.186 4.185v16.63z"/><path d="m880.5 3247.32c0 2.312-2.049 4.185-4.36 4.185h-14.631c-2.313 0-4.01-1.874-4.01-4.185v-16.63c0-2.312 1.695-4.185 4.01-4.185h14.631c2.312 0 4.36 1.874 4.36 4.185v16.63z"/><path d="m856.5 3280.89c0 .891-.746 1.614-1.666 1.614h-5.668c-.92 0-1.666-.723-1.666-1.614v-4.772c0-.891.746-1.614 1.666-1.614h5.668c.92 0 1.666.723 1.666 1.614v4.772z"/><path d="m914.5 3246.93c0 2.311-1.913 4.575-4.226 4.575h-14.878c-2.312 0-3.896-2.264-3.896-4.575v-16.247c0-2.312 1.585-4.179 3.896-4.179h14.878c2.313 0 4.226 1.867 4.226 4.179v16.247z"/><path d="m867.22 3278.12c0-8.465-6.866-15.328-15.337-15.328-8.466 0-15.328 6.863-15.328 15.328 0 8.466 6.862 15.328 15.328 15.328 8.471-.0001 15.337-6.863 15.337-15.328z"/><path d="m780 3258.5h146"/><path d="m780.43 3218.97l144.97-1.368"/><path d="m780 3041.5h146"/></g><path fill="#231f20" d="m907 2996.18c0 1.01-.814 1.82-1.819 1.82h-19.361c-1 0-1.819-.815-1.819-1.82v-.359c0-1.01.814-1.82 1.819-1.82h19.361c1 0 1.819.815 1.819 1.82v.359"/><path d="m1084.24 3274.02h2.664v-16.417h-1.393c-1.271 0-3.336.12-4.441 4.056h-.264v-4.392h14.594v4.392h-.264c-1.104-3.936-3.168-4.056-4.441-4.056h-1.391v16.417h2.664v.336h-7.729v-.336"/><path d="m1096.91 3274.02h1.85v-16.633h-1.85v-.336h3.914v9.433h.047c.336-.864 1.465-2.688 4.08-2.688 2.113 0 3.576.984 3.576 3.216v7.01h1.85v.336h-5.762v-.336h1.85v-7.753c0-1.248-.576-2.136-1.824-2.136-2.064 0-3.816 1.92-3.816 4.464v5.425h1.848v.336h-5.762v-.337"/><path d="m1114.48 3268.4c0 .312-.023.624-.023 1.128 0 2.136.336 4.824 3.168 4.824s3.457-1.944 3.697-2.712l.359.072c-.215.696-.863 2.976-4.08 2.976s-5.545-2.16-5.545-5.424c0-2.833 2.377-5.521 5.4-5.521 1.777 0 4.416 1.152 4.416 4.656h-7.392m4.946-.335c.049-.456.049-.816.049-1.224 0-2.16-.865-2.76-2.113-2.76-2.16 0-2.713 1.896-2.855 3.984h4.919"/><path d="m1130.37 3274.02h2.664v-16.417h-2.664v-.336h4.465c.455 0 .887-.024 1.344-.048.455 0 .912-.024 1.344-.024 1.943 0 2.904.12 4.225.552 3.912 1.272 5.617 4.44 5.617 8.06 0 4.201-2.186 6.721-4.945 7.897-1.561.672-2.568.744-4.824.744-.48 0-1.031-.024-1.584-.048s-1.08-.048-1.561-.048h-4.08v-.336m5.064 0c.553.048 1.271.096 2.137.096 2.184 0 4.32-.336 5.664-2.592 1.031-1.729 1.367-3.48 1.367-5.617 0-5.064-1.752-8.377-7.129-8.377-.791 0-1.439.048-2.039.072v16.418"/><path d="m1152.71 3268.4c0 .312-.023.624-.023 1.128 0 2.136.336 4.824 3.168 4.824s3.455-1.944 3.695-2.712l.361.072c-.217.696-.865 2.976-4.08 2.976-3.217 0-5.545-2.16-5.545-5.424 0-2.833 2.375-5.521 5.4-5.521 1.775 0 4.416 1.152 4.416 4.656h-7.392m4.945-.335c.047-.456.047-.816.047-1.224 0-2.16-.863-2.76-2.111-2.76-2.16 0-2.713 1.896-2.857 3.984h4.921"/><path d="m1171.92 3271.72c-.217.696-.865 2.976-4.08 2.976-2.449 0-5.545-1.416-5.545-5.424 0-3.12 2.496-5.521 5.592-5.521 1.705 0 3.889.768 3.889 2.736 0 .672-.457 1.152-1.248 1.152-.553 0-1.152-.216-1.152-.792 0-.456.336-1.2.336-1.608 0-.744-.863-1.152-1.824-1.152-1.416 0-3.191.36-3.191 5.256 0 2.736.576 5.02 3.168 5.02 2.832 0 3.455-1.944 3.695-2.712l.36.072"/><path d="m1173.43 3274.02h1.85v-16.633h-1.85v-.336h3.912v16.97h1.85v.336h-5.762v-.337"/><path d="m1191.33 3274.09c-.406.312-.982.6-1.799.6-1.537 0-2.113-.696-2.377-1.872h-.047c-.24.6-.793 1.872-3.17 1.872-2.664 0-3.096-1.344-3.096-2.328 0-2.256 1.969-2.472 3.744-3.048 2.137-.696 2.617-.84 2.617-2.76 0-1.536-.264-2.472-1.85-2.472-1.055 0-1.824.36-1.824 1.176 0 .552.145 1.128.145 1.392 0 .432-.336.792-.936.792-1.057 0-1.176-.432-1.176-1.032 0-1.416 1.295-2.664 3.744-2.664 2.951 0 3.889 1.608 3.889 3.312v5.977c0 .912.311 1.176.84 1.176.336 0 .768-.144 1.104-.384l.192.263m-4.199-5.616h-.049c-.023.192-.311.432-.791.624l-1.801.72c-1.01.408-1.584 1.152-1.584 2.28 0 .984.287 2.112 1.775 2.112 2.137 0 2.449-2.04 2.449-3.336v-2.4"/><path d="m1192.05 3274.02h1.848v-9.625h-1.848v-.336h3.863v2.424h.049c.264-.936 1.127-2.688 3.145-2.688 1.486 0 2.135 1.032 2.135 1.992 0 1.056-.576 1.32-1.199 1.32-.697 0-1.057-.264-1.057-.672 0-.576.313-.576.313-1.392 0-.48-.289-.768-.84-.768-1.01 0-2.496 1.584-2.496 4.249v5.497h2.088v.336h-6v-.337"/><path d="m1212.64 3274.09c-.408.312-.984.6-1.801.6-1.535 0-2.111-.696-2.375-1.872h-.049c-.24.6-.791 1.872-3.168 1.872-2.664 0-3.096-1.344-3.096-2.328 0-2.256 1.967-2.472 3.744-3.048 2.135-.696 2.615-.84 2.615-2.76 0-1.536-.264-2.472-1.848-2.472-1.057 0-1.824.36-1.824 1.176 0 .552.145 1.128.145 1.392 0 .432-.336.792-.938.792-1.055 0-1.176-.432-1.176-1.032 0-1.416 1.297-2.664 3.744-2.664 2.953 0 3.889 1.608 3.889 3.312v5.977c0 .912.313 1.176.84 1.176.336 0 .77-.144 1.105-.384l.193.263m-4.202-5.616h-.047c-.025.192-.313.432-.793.624l-1.799.72c-1.01.408-1.586 1.152-1.586 2.28 0 .984.289 2.112 1.777 2.112 2.137 0 2.447-2.04 2.447-3.336v-2.4"/><path d="m1213.12 3264.06h1.848v-3.096c.24.096.385.168.938.168.479 0 .816-.12 1.127-.36v3.288h3.408v.336h-3.408v7.849c0 1.8.793 2.112 1.441 2.112 1.127 0 1.824-.96 2.02-2.02l.336.12c-.168.816-.695 2.232-2.641 2.232-2.4 0-3.217-.984-3.217-2.664v-7.633h-1.848v-.336"/><path d="m1221.38 3274.02h1.85v-9.625h-1.85v-.336h3.912v9.961h1.85v.336h-5.762v-.336m2.832-16.826c.697 0 1.273.576 1.273 1.272 0 .696-.576 1.272-1.273 1.272-.695 0-1.271-.576-1.271-1.272 0-.695.576-1.272 1.271-1.272"/><path d="m1234.48 3263.75c2.568 0 5.592 2.304 5.592 5.473 0 3.02-2.785 5.472-5.592 5.472-2.809 0-5.594-2.448-5.594-5.472.0001-3.169 3.03-5.473 5.594-5.473m0 10.609c1.703 0 3.191-.6 3.191-5.136 0-3.816-1.031-5.137-3.191-5.137s-3.193 1.32-3.193 5.137c0 4.536 1.488 5.136 3.193 5.136"/><path d="m1241.75 3274.02h1.85v-9.625h-1.85v-.336h3.865v2.568h.049c.383-.84 1.367-2.833 4.127-2.833 2.113 0 3.576.984 3.576 3.216v7.01h1.85v.336h-5.762v-.336h1.85v-7.753c0-1.248-.576-2.136-1.824-2.136-2.064 0-3.816 1.92-3.816 4.464v5.425h1.848v.336h-5.762v-.335"/><path d="m1259.15 3263.8c.697 0 1.273.576 1.273 1.272 0 .696-.576 1.272-1.273 1.272-.695 0-1.271-.576-1.271-1.272 0-.696.576-1.272 1.271-1.272m0 8.281c.697 0 1.273.576 1.273 1.272 0 .696-.576 1.272-1.273 1.272-.695 0-1.271-.576-1.271-1.272 0-.696.576-1.272 1.271-1.272"/><path d="m1080.62 3302.82h2.664v-16.417h-2.664v-.336h4.512c.457 0 .889-.024 1.344-.048.434 0 .889-.024 1.32-.024 3.648 0 6.361 1.824 6.361 4.561 0 2.856-3.145 4.537-6.672 4.537-.434 0-1.273-.096-1.801-.192v7.921h2.664v.336h-7.729v-.338m5.066-8.257c.623.12 1.416.192 1.943.192 2.354 0 3.77-1.392 3.77-4.2 0-3.288-1.225-4.225-4.32-4.225-.602 0-1.129.048-1.393.072v8.161"/><path d="m1096.1 3302.82h1.848v-9.625h-1.848v-.336h3.863v2.424h.049c.264-.936 1.127-2.688 3.145-2.688 1.486 0 2.135 1.032 2.135 1.992 0 1.056-.576 1.32-1.199 1.32-.697 0-1.057-.264-1.057-.672 0-.576.313-.576.313-1.392 0-.48-.289-.768-.84-.768-1.01 0-2.496 1.584-2.496 4.249v5.497h2.088v.336h-6v-.337"/><path d="m1111.89 3292.55c2.568 0 5.592 2.304 5.592 5.473 0 3.02-2.783 5.472-5.592 5.472s-5.592-2.448-5.592-5.472c0-3.169 3.02-5.473 5.592-5.473m0 10.609c1.705 0 3.193-.6 3.193-5.136 0-3.816-1.033-5.137-3.193-5.137s-3.191 1.32-3.191 5.137c-.0001 4.536 1.488 5.136 3.191 5.136"/><path d="m1121.9 3298.74c-.912-.624-1.393-1.512-1.393-2.592 0-2.256 2.4-3.6 4.273-3.6 1.439 0 2.52.744 3 1.224.359-.6 1.031-1.224 2.064-1.224.646 0 1.295.192 1.295 1.08 0 .576-.455.864-.84.864-.863 0-.648-1.2-1.32-1.2-.313 0-.695.336-.936.672.287.312.889 1.104.889 2.256 0 1.896-2.064 3.336-4.273 3.336-1.104 0-1.969-.408-2.424-.625-.695.313-1.705.769-1.705 1.824 0 .984.816 1.176 1.633 1.176h3.793c2.232 0 3.672 1.032 3.672 3.336 0 2.784-2.664 4.752-5.424 4.752-2.473 0-4.297-1.176-4.297-2.88 0-1.68 1.465-2.712 2.809-3.216v-.048c-2.113 0-3.098-.624-3.098-2.28.0001-1.726 1.443-2.47 2.282-2.855m1.321 5.137c-.84.504-1.777 1.032-1.777 2.688 0 2.28 1.777 2.977 3.24 2.977 2.305 0 3.865-1.512 3.865-3.192 0-1.776-1.057-2.472-2.736-2.472h-2.592m1.56-10.994c-1.633 0-2.473.936-2.473 3.192 0 1.92.504 3.144 2.496 3.144 1.656 0 2.305-1.032 2.305-3.144 0-1.464-.216-3.192-2.328-3.192"/><path d="m1131.67 3302.82h1.848v-9.625h-1.848v-.336h3.865v2.424h.047c.264-.936 1.129-2.688 3.145-2.688 1.488 0 2.137 1.032 2.137 1.992 0 1.056-.576 1.32-1.201 1.32-.695 0-1.055-.264-1.055-.672 0-.576.311-.576.311-1.392 0-.48-.287-.768-.84-.768-1.01 0-2.496 1.584-2.496 4.249v5.497h2.088v.336h-6v-.337"/><path d="m1144.29 3297.2c0 .312-.023.624-.023 1.128 0 2.136.336 4.824 3.168 4.824s3.457-1.944 3.697-2.712l.359.072c-.215.696-.863 2.976-4.08 2.976s-5.545-2.16-5.545-5.424c0-2.833 2.377-5.521 5.4-5.521 1.777 0 4.416 1.152 4.416 4.656h-7.392m4.945-.335c.049-.456.049-.816.049-1.224 0-2.16-.865-2.76-2.113-2.76-2.16 0-2.713 1.896-2.855 3.984h4.919"/><path d="m1154.13 3299.8h.266c.432 1.512 1.367 3.36 3.791 3.36 1.033 0 1.969-.6 1.969-1.992 0-1.224-.744-1.584-1.561-1.872l-1.871-.648c-.984-.336-2.377-.816-2.377-2.928 0-1.8 1.465-3.168 3.457-3.168 1.391 0 1.631.504 2.303.504.217 0 .313-.072.385-.192h.264v2.736h-.264c-.455-1.44-1.057-2.712-2.688-2.712-1.537 0-2.426.744-2.426 1.896 0 1.032.744 1.464 2.137 1.896l1.752.576c1.488.504 2.568 1.368 2.568 2.832 0 1.752-1.393 3.408-3.816 3.408-1.416 0-2.328-.672-3.047-.672-.361 0-.48.168-.576.336h-.266v-3.36"/><path d="m1164.35 3299.8h.264c.432 1.512 1.369 3.36 3.793 3.36 1.031 0 1.967-.6 1.967-1.992 0-1.224-.742-1.584-1.559-1.872l-1.873-.648c-.984-.336-2.375-.816-2.375-2.928 0-1.8 1.463-3.168 3.455-3.168 1.393 0 1.633.504 2.305.504.217 0 .313-.072.385-.192h.264v2.736h-.264c-.457-1.44-1.057-2.712-2.689-2.712-1.535 0-2.424.744-2.424 1.896 0 1.032.744 1.464 2.137 1.896l1.752.576c1.488.504 2.568 1.368 2.568 2.832 0 1.752-1.393 3.408-3.816 3.408-1.416 0-2.328-.672-3.049-.672-.359 0-.48.168-.576.336h-.264v-3.36"/><path d="m1187.7 3285.85h3.912v16.97h1.85v.336h-3.865v-2.088h-.049c-.238.744-.982 2.424-3.168 2.424-2.832 0-5.232-2.616-5.232-5.544 0-2.88 2.328-5.4 5.064-5.4 1.752 0 2.857.984 3.289 2.232h.047v-8.592h-1.848v-.338m-1.295 17.306c2.664 0 3.143-2.592 3.143-4.705 0-2.472-.168-3.6-.84-4.464-.479-.624-1.223-1.104-2.4-1.104-2.23 0-2.76 1.848-2.76 4.776 0 3.337.217 5.497 2.857 5.497"/><path d="m1200.81 3292.55c2.568 0 5.592 2.304 5.592 5.473 0 3.02-2.783 5.472-5.592 5.472s-5.592-2.448-5.592-5.472c0-3.169 3.02-5.473 5.592-5.473m0 10.609c1.705 0 3.193-.6 3.193-5.136 0-3.816-1.033-5.137-3.193-5.137s-3.191 1.32-3.191 5.137c-.0001 4.536 1.487 5.136 3.191 5.136"/><path d="m1210.98 3297.2c0 .312-.023.624-.023 1.128 0 2.136.336 4.824 3.168 4.824s3.455-1.944 3.695-2.712l.361.072c-.217.696-.865 2.976-4.08 2.976-3.217 0-5.545-2.16-5.545-5.424 0-2.833 2.375-5.521 5.4-5.521 1.775 0 4.416 1.152 4.416 4.656h-7.392m4.946-.335c.047-.456.047-.816.047-1.224 0-2.16-.863-2.76-2.111-2.76-2.16 0-2.713 1.896-2.857 3.984h4.921"/><path d="m1220.82 3299.8h.264c.432 1.512 1.369 3.36 3.793 3.36 1.031 0 1.967-.6 1.967-1.992 0-1.224-.742-1.584-1.559-1.872l-1.873-.648c-.984-.336-2.375-.816-2.375-2.928 0-1.8 1.463-3.168 3.455-3.168 1.393 0 1.633.504 2.305.504.217 0 .313-.072.385-.192h.264v2.736h-.264c-.457-1.44-1.057-2.712-2.689-2.712-1.535 0-2.424.744-2.424 1.896 0 1.032.744 1.464 2.137 1.896l1.752.576c1.488.504 2.568 1.368 2.568 2.832 0 1.752-1.393 3.408-3.816 3.408-1.416 0-2.328-.672-3.049-.672-.359 0-.48.168-.576.336h-.264v-3.36"/><path d="m1236.97 3302.82h1.85v-9.625h-1.85v-.336h3.865v2.568h.049c.383-.84 1.367-2.833 4.127-2.833 2.113 0 3.576.984 3.576 3.216v7.01h1.85v.336h-5.762v-.336h1.85v-7.753c0-1.248-.576-2.136-1.824-2.136-2.064 0-3.816 1.92-3.816 4.464v5.425h1.848v.336h-5.762v-.335"/><path d="m1257.71 3292.55c2.568 0 5.592 2.304 5.592 5.473 0 3.02-2.785 5.472-5.592 5.472-2.809 0-5.594-2.448-5.594-5.472 0-3.169 3.03-5.473 5.594-5.473m0 10.609c1.703 0 3.191-.6 3.191-5.136 0-3.816-1.031-5.137-3.191-5.137s-3.193 1.32-3.193 5.137c0 4.536 1.488 5.136 3.193 5.136"/><path d="m1264.79 3292.86h1.848v-3.096c.24.096.385.168.938.168.479 0 .816-.12 1.127-.36v3.288h3.408v.336h-3.408v7.849c0 1.8.793 2.112 1.441 2.112 1.127 0 1.824-.96 2.02-2.02l.336.12c-.168.816-.695 2.232-2.641 2.232-2.4 0-3.217-.984-3.217-2.664v-7.633h-1.848v-.336"/><path d="m1289.75 3300.52c-.215.696-.863 2.976-4.08 2.976-2.447 0-5.545-1.416-5.545-5.424 0-3.12 2.496-5.521 5.594-5.521 1.703 0 3.887.768 3.887 2.736 0 .672-.455 1.152-1.248 1.152-.551 0-1.15-.216-1.15-.792 0-.456.336-1.2.336-1.608 0-.744-.865-1.152-1.824-1.152-1.416 0-3.193.36-3.193 5.256 0 2.736.576 5.02 3.168 5.02 2.832 0 3.457-1.944 3.697-2.712l.358.072"/><path d="m1297.26 3292.55c2.568 0 5.592 2.304 5.592 5.473 0 3.02-2.783 5.472-5.592 5.472s-5.592-2.448-5.592-5.472c0-3.169 3.02-5.473 5.592-5.473m0 10.609c1.705 0 3.193-.6 3.193-5.136 0-3.816-1.033-5.137-3.193-5.137s-3.191 1.32-3.191 5.137c-.0001 4.536 1.488 5.136 3.191 5.136"/><path d="m1304.42 3302.82h1.848v-9.625h-1.848v-.336h3.863v2.52h.049c.672-1.896 1.967-2.784 3.744-2.784 1.584 0 2.951.648 3.336 2.28h.049c.432-1.152 1.535-2.28 3.527-2.28 2.377 0 3.504 1.224 3.504 3.577v6.648h1.848v.336h-5.76v-.336h1.848v-8.161c0-1.08-.623-1.729-1.656-1.729-1.584 0-3.359 1.176-3.359 3.769v6.121h1.848v.336h-5.76v-.336h1.848v-7.825c0-1.392-.623-2.064-1.584-2.064-1.367 0-3.432 1.249-3.432 4.561v5.329h1.848v.336h-5.76v-.337"/><path d="m1328.32 3297.2c0 .312-.023.624-.023 1.128 0 2.136.336 4.824 3.168 4.824s3.457-1.944 3.697-2.712l.359.072c-.215.696-.863 2.976-4.08 2.976s-5.545-2.16-5.545-5.424c0-2.833 2.377-5.521 5.4-5.521 1.777 0 4.416 1.152 4.416 4.656h-7.392m4.946-.335c.049-.456.049-.816.049-1.224 0-2.16-.865-2.76-2.113-2.76-2.16 0-2.713 1.896-2.855 3.984h4.919"/><path d="m1343.39 3292.86h5.785v.336h-1.992l2.688 7.489 2.496-5.929-.6-1.56h-1.01v-.336h4.775v.336h-1.607l2.785 7.441 3-7.441h-2.258v-.336h3.914v.336h-1.273l-4.295 10.753-3.266-8.713-3.648 8.713-3.863-10.753h-1.633v-.336"/><path d="m1361.94 3302.82h1.848v-9.625h-1.848v-.336h3.912v9.961h1.848v.336h-5.76v-.336m2.832-16.826c.695 0 1.271.576 1.271 1.272 0 .696-.576 1.272-1.271 1.272s-1.271-.576-1.271-1.272c0-.696.576-1.272 1.271-1.272"/><path d="m1368.78 3292.86h1.848v-3.096c.24.096.385.168.936.168.48 0 .816-.12 1.129-.36v3.288h3.408v.336h-3.408v7.849c0 1.8.791 2.112 1.439 2.112 1.129 0 1.824-.96 2.02-2.02l.336.12c-.168.816-.695 2.232-2.639 2.232-2.4 0-3.217-.984-3.217-2.664v-7.633h-1.848v-.336"/><path d="m1376.97 3302.82h1.848v-16.633h-1.848v-.336h3.912v9.433h.049c.336-.864 1.463-2.688 4.08-2.688 2.111 0 3.576.984 3.576 3.216v7.01h1.848v.336h-5.76v-.336h1.848v-7.753c0-1.248-.576-2.136-1.824-2.136-2.064 0-3.816 1.92-3.816 4.464v5.425h1.848v.336h-5.76v-.337"/><path d="m1397.7 3292.55c2.568 0 5.592 2.304 5.592 5.473 0 3.02-2.783 5.472-5.592 5.472s-5.592-2.448-5.592-5.472c0-3.169 3.02-5.473 5.592-5.473m0 10.609c1.705 0 3.193-.6 3.193-5.136 0-3.816-1.033-5.137-3.193-5.137s-3.191 1.32-3.191 5.137c0 4.536 1.488 5.136 3.191 5.136"/><path d="m1418.03 3303.16h-3.863v-2.424h-.049c-.576 1.296-1.561 2.76-3.672 2.76-1.271 0-2.064-.36-2.496-.672-.457-.336-1.152-.864-1.152-2.808v-6.817h-1.848v-.336h3.912v7.369c0 1.656.408 2.928 2.039 2.928 1.393 0 3.217-1.728 3.217-4.393v-5.568h-1.824v-.336h3.889v9.961h1.848v.336"/><path d="m1419.01 3292.86h1.848v-3.096c.24.096.385.168.938.168.479 0 .816-.12 1.127-.36v3.288h3.408v.336h-3.408v7.849c0 1.8.793 2.112 1.441 2.112 1.127 0 1.824-.96 2.02-2.02l.336.12c-.168.816-.695 2.232-2.641 2.232-2.4 0-3.217-.984-3.217-2.664v-7.633h-1.848v-.336"/><path d="m1444.74 3302.89c-.406.312-.982.6-1.799.6-1.537 0-2.113-.696-2.377-1.872h-.047c-.24.6-.793 1.872-3.17 1.872-2.664 0-3.096-1.344-3.096-2.328 0-2.256 1.969-2.472 3.744-3.048 2.137-.696 2.617-.84 2.617-2.76 0-1.536-.264-2.472-1.85-2.472-1.055 0-1.824.36-1.824 1.176 0 .552.145 1.128.145 1.392 0 .432-.336.792-.936.792-1.057 0-1.176-.432-1.176-1.032 0-1.416 1.295-2.664 3.744-2.664 2.951 0 3.889 1.608 3.889 3.312v5.977c0 .912.311 1.176.84 1.176.336 0 .768-.144 1.104-.384l.192.263m-4.199-5.617h-.049c-.023.192-.311.432-.791.624l-1.801.72c-1.01.408-1.584 1.152-1.584 2.28 0 .984.287 2.112 1.775 2.112 2.137 0 2.449-2.04 2.449-3.336v-2.4"/><path d="m1451.89 3292.86h1.848v-3.096c.24.096.385.168.936.168.48 0 .816-.12 1.129-.36v3.288h3.408v.336h-3.408v7.849c0 1.8.791 2.112 1.439 2.112 1.129 0 1.824-.96 2.02-2.02l.336.12c-.168.816-.695 2.232-2.639 2.232-2.4 0-3.217-.984-3.217-2.664v-7.633h-1.848v-.336"/><path d="m1460.13 3302.82h1.848v-9.625h-1.848v-.336h3.863v2.424h.049c.264-.936 1.127-2.688 3.145-2.688 1.486 0 2.135 1.032 2.135 1.992 0 1.056-.576 1.32-1.199 1.32-.697 0-1.057-.264-1.057-.672 0-.576.313-.576.313-1.392 0-.48-.289-.768-.84-.768-1.01 0-2.496 1.584-2.496 4.249v5.497h2.088v.336h-6v-.337"/><path d="m1480.72 3302.89c-.408.312-.984.6-1.801.6-1.535 0-2.111-.696-2.375-1.872h-.049c-.24.6-.791 1.872-3.168 1.872-2.664 0-3.096-1.344-3.096-2.328 0-2.256 1.967-2.472 3.744-3.048 2.135-.696 2.615-.84 2.615-2.76 0-1.536-.264-2.472-1.848-2.472-1.057 0-1.824.36-1.824 1.176 0 .552.145 1.128.145 1.392 0 .432-.336.792-.938.792-1.055 0-1.176-.432-1.176-1.032 0-1.416 1.297-2.664 3.744-2.664 2.953 0 3.889 1.608 3.889 3.312v5.977c0 .912.313 1.176.84 1.176.336 0 .77-.144 1.105-.384l.193.263m-4.201-5.617h-.047c-.025.192-.313.432-.793.624l-1.799.72c-1.01.408-1.586 1.152-1.586 2.28 0 .984.289 2.112 1.777 2.112 2.137 0 2.447-2.04 2.447-3.336v-2.4"/><path d="m1481.39 3302.82h1.85v-9.625h-1.85v-.336h3.865v2.568h.049c.383-.84 1.367-2.833 4.127-2.833 2.113 0 3.576.984 3.576 3.216v7.01h1.85v.336h-5.762v-.336h1.85v-7.753c0-1.248-.576-2.136-1.824-2.136-2.064 0-3.816 1.92-3.816 4.464v5.425h1.848v.336h-5.762v-.335"/><path d="m1496.8 3299.8h.266c.432 1.512 1.367 3.36 3.791 3.36 1.033 0 1.969-.6 1.969-1.992 0-1.224-.744-1.584-1.561-1.872l-1.871-.648c-.984-.336-2.377-.816-2.377-2.928 0-1.8 1.465-3.168 3.457-3.168 1.391 0 1.631.504 2.303.504.217 0 .313-.072.385-.192h.264v2.736h-.264c-.455-1.44-1.057-2.712-2.688-2.712-1.537 0-2.426.744-2.426 1.896 0 1.032.744 1.464 2.137 1.896l1.752.576c1.488.504 2.568 1.368 2.568 2.832 0 1.752-1.393 3.408-3.816 3.408-1.416 0-2.328-.672-3.047-.672-.361 0-.48.168-.576.336h-.266v-3.36"/><path d="m1506.35 3302.82h1.848v-9.625h-1.848v-.336h1.848v-1.272c0-2.232.457-3.192 1.08-3.984.84-1.056 2.16-1.968 3.553-1.968 2.088 0 2.977 1.368 2.977 2.232 0 .6-.313 1.224-1.152 1.224-.408 0-1.104-.12-1.104-.768 0-.552.455-.912.455-1.464 0-.72-.721-.888-1.32-.888-1.32 0-2.424 1.104-2.424 3.552v3.336h2.977v.336h-2.977v9.625h2.184v.336h-6.096v-.336"/><path d="m1520.1 3292.55c2.568 0 5.592 2.304 5.592 5.473 0 3.02-2.783 5.472-5.592 5.472s-5.592-2.448-5.592-5.472c0-3.169 3.02-5.473 5.592-5.473m0 10.609c1.705 0 3.193-.6 3.193-5.136 0-3.816-1.033-5.137-3.193-5.137s-3.191 1.32-3.191 5.137c-.0001 4.536 1.487 5.136 3.191 5.136"/><path d="m1527.42 3302.82h1.848v-9.625h-1.848v-.336h3.863v2.424h.049c.264-.936 1.127-2.688 3.145-2.688 1.486 0 2.135 1.032 2.135 1.992 0 1.056-.576 1.32-1.199 1.32-.697 0-1.057-.264-1.057-.672 0-.576.313-.576.313-1.392 0-.48-.289-.768-.84-.768-1.01 0-2.496 1.584-2.496 4.249v5.497h2.088v.336h-6v-.337"/><path d="m1537.02 3302.82h1.848v-9.625h-1.848v-.336h3.863v2.52h.049c.672-1.896 1.967-2.784 3.744-2.784 1.584 0 2.951.648 3.336 2.28h.049c.432-1.152 1.535-2.28 3.527-2.28 2.377 0 3.504 1.224 3.504 3.577v6.648h1.848v.336h-5.76v-.336h1.848v-8.161c0-1.08-.623-1.729-1.656-1.729-1.584 0-3.359 1.176-3.359 3.769v6.121h1.848v.336h-5.76v-.336h1.848v-7.825c0-1.392-.623-2.064-1.584-2.064-1.367 0-3.432 1.249-3.432 4.561v5.329h1.848v.336h-5.76v-.337"/><path d="m1568.89 3302.89c-.406.312-.982.6-1.799.6-1.537 0-2.113-.696-2.377-1.872h-.047c-.24.6-.793 1.872-3.17 1.872-2.664 0-3.096-1.344-3.096-2.328 0-2.256 1.969-2.472 3.744-3.048 2.137-.696 2.617-.84 2.617-2.76 0-1.536-.264-2.472-1.85-2.472-1.055 0-1.824.36-1.824 1.176 0 .552.145 1.128.145 1.392 0 .432-.336.792-.936.792-1.057 0-1.176-.432-1.176-1.032 0-1.416 1.295-2.664 3.744-2.664 2.951 0 3.889 1.608 3.889 3.312v5.977c0 .912.311 1.176.84 1.176.336 0 .768-.144 1.104-.384l.192.263m-4.2-5.617h-.049c-.023.192-.311.432-.791.624l-1.801.72c-1.01.408-1.584 1.152-1.584 2.28 0 .984.287 2.112 1.775 2.112 2.137 0 2.449-2.04 2.449-3.336v-2.4"/><path d="m1569.37 3292.86h1.848v-3.096c.24.096.385.168.936.168.48 0 .816-.12 1.129-.36v3.288h3.408v.336h-3.408v7.849c0 1.8.791 2.112 1.439 2.112 1.129 0 1.824-.96 2.02-2.02l.336.12c-.168.816-.695 2.232-2.639 2.232-2.4 0-3.217-.984-3.217-2.664v-7.633h-1.848v-.336"/><path d="m1577.63 3302.82h1.848v-9.625h-1.848v-.336h3.912v9.961h1.848v.336h-5.76v-.336m2.832-16.826c.695 0 1.271.576 1.271 1.272 0 .696-.576 1.272-1.271 1.272s-1.271-.576-1.271-1.272c-.0001-.696.576-1.272 1.271-1.272"/><path d="m1590.73 3292.55c2.568 0 5.592 2.304 5.592 5.473 0 3.02-2.783 5.472-5.592 5.472s-5.592-2.448-5.592-5.472c.0001-3.169 3.02-5.473 5.592-5.473m0 10.609c1.705 0 3.193-.6 3.193-5.136 0-3.816-1.033-5.137-3.193-5.137s-3.191 1.32-3.191 5.137c0 4.536 1.488 5.136 3.191 5.136"/><path d="m1598 3302.82h1.848v-9.625h-1.848v-.336h3.865v2.568h.047c.385-.84 1.369-2.833 4.129-2.833 2.111 0 3.576.984 3.576 3.216v7.01h1.848v.336h-5.76v-.336h1.848v-7.753c0-1.248-.576-2.136-1.824-2.136-2.064 0-3.816 1.92-3.816 4.464v5.425h1.848v.336h-5.76v-.335"/><path d="m1615.4 3300.87c.695 0 1.271.576 1.271 1.272 0 .696-.576 1.272-1.271 1.272s-1.271-.576-1.271-1.272c0-.695.576-1.272 1.271-1.272"/></svg>