<svg xmlns="http://www.w3.org/2000/svg" xmlns:xlink="http://www.w3.org/1999/xlink" viewBox="0 0 1728 3456" enable-background="new 0 0 1728 3456"><defs><path id="1" d="m1047.93 1717.53c74.15-62.35 56.41-117.89-39.631-124.05-96.04-6.156-234.01 39.4-308.16 101.75-74.15 62.35-56.41 117.89 39.63 124.05s234.01-39.4 308.16-101.75"/><clipPath id="0"><use xlink:href="#1"/></clipPath></defs><g stroke="#231f20" stroke-width="8" stroke-miterlimit="10"><g fill="#fff"><g stroke-linejoin="round"><path clip-path="url(#0)" d="m1047.93 1773.29c74.15-62.35 56.41-117.89-39.631-124.05-96.04-6.157-234.01 39.4-308.16 101.75-74.15 62.35-56.41 117.89 39.63 124.05s234.01-39.4 308.16-101.75z"/><path d="m943.16 1993.23l-299.08-19.17-299.08-19.18 230.92-194.17 230.92-194.17 299.08 19.17 299.08 19.17-230.92 194.18z"/><path d="m1049.66 1791.08c74.48-62.63 56.658-118.41-39.806-124.59-96.46-6.184-235.04 39.572-309.52 102.2-74.48 62.63-56.659 118.41 39.805 124.59 96.46 6.184 235.04-39.572 309.52-102.2z"/><path d="m943.16 1920.23l-299.08-19.17-299.08-19.18 230.92-194.17 230.92-194.17 299.08 19.17 299.08 19.17-230.92 194.18z"/><path d="m1049.66 1718.08c74.48-62.63 56.658-118.41-39.806-124.59-96.46-6.184-235.04 39.572-309.52 102.2-74.48 62.63-56.659 118.41 39.805 124.59 96.46 6.184 235.04-39.572 309.52-102.2z"/><path d="m1405 1531.88l-462 388.35v73l462-388.35z"/><path d="m943 1993.23l-598-38.35v-73l598 38.35z"/></g><path d="m664.79 1793.87l-240.25-240.25 375.73-100.68 375.74-100.67-83.29 310.84"/></g><path fill="none" d="m1022.03 1926.91l-47.38 176.82-115.91-115.9"/></g><g fill="#231f20"><path d="m1089.75 1658.92c0 0-1.256 4.315-2.828 8.109-1.598 3.858 7.641-3.25 7.641-3.25l-4.813-4.859"/><path d="m666.25 1789.69c0 0-1.363 3.295-2.935 7.089-1.598 3.858 7.665-2.38 7.665-2.38l-4.73-4.709"/></g><g fill="none" stroke="#c71e28" stroke-width="8" stroke-miterlimit="10"><path d="m348.45 1201.45l1053.11 1053.11"/><path d="m1401.55 1201.45l-1053.11 1053.11"/></g><path d="m1084.24 3274.02h2.664v-16.417h-1.393c-1.271 0-3.336.12-4.44 4.056h-.264v-4.392h14.593v4.392h-.264c-1.104-3.936-3.168-4.056-4.44-4.056h-1.392v16.417h2.664v.336h-7.729v-.336"/><path d="m1096.91 3274.02h1.849v-16.633h-1.849v-.336h3.913v9.433h.048c.336-.864 1.464-2.688 4.08-2.688 2.112 0 3.576.984 3.576 3.216v7.01h1.849v.336h-5.761v-.336h1.849v-7.753c0-1.248-.576-2.136-1.824-2.136-2.064 0-3.816 1.92-3.816 4.464v5.425h1.848v.336h-5.761v-.337"/><path d="m1114.48 3268.4c0 .312-.023.624-.023 1.128 0 2.136.336 4.824 3.168 4.824s3.456-1.944 3.696-2.712l.36.072c-.216.696-.864 2.976-4.08 2.976-3.217 0-5.545-2.16-5.545-5.424 0-2.833 2.376-5.521 5.4-5.521 1.776 0 4.416 1.152 4.416 4.656h-7.392m4.946-.335c.048-.456.048-.816.048-1.224 0-2.16-.864-2.76-2.112-2.76-2.16 0-2.713 1.896-2.856 3.984h4.92"/><path d="m1130.37 3274.02h2.665v-16.417h-2.665v-.336h4.465c.456 0 .888-.024 1.344-.048.456 0 .912-.024 1.345-.024 1.943 0 2.904.12 4.224.552 3.913 1.272 5.617 4.44 5.617 8.06 0 4.201-2.185 6.721-4.944 7.897-1.561.672-2.568.744-4.825.744-.479 0-1.031-.024-1.584-.048-.552-.024-1.08-.048-1.56-.048h-4.081v-.336m5.064 0c.553.048 1.272.096 2.137.096 2.184 0 4.32-.336 5.664-2.592 1.032-1.729 1.368-3.48 1.368-5.617 0-5.064-1.752-8.377-7.129-8.377-.792 0-1.439.048-2.04.072v16.418"/><path d="m1152.71 3268.4c0 .312-.023.624-.023 1.128 0 2.136.336 4.824 3.168 4.824s3.456-1.944 3.696-2.712l.36.072c-.216.696-.864 2.976-4.08 2.976-3.217 0-5.545-2.16-5.545-5.424 0-2.833 2.376-5.521 5.4-5.521 1.776 0 4.416 1.152 4.416 4.656h-7.392m4.945-.335c.048-.456.048-.816.048-1.224 0-2.16-.864-2.76-2.112-2.76-2.16 0-2.713 1.896-2.856 3.984h4.92"/><path d="m1171.92 3271.72c-.216.696-.864 2.976-4.08 2.976-2.448 0-5.545-1.416-5.545-5.424 0-3.12 2.496-5.521 5.593-5.521 1.704 0 3.888.768 3.888 2.736 0 .672-.456 1.152-1.248 1.152-.552 0-1.151-.216-1.151-.792 0-.456.336-1.2.336-1.608 0-.744-.864-1.152-1.824-1.152-1.416 0-3.192.36-3.192 5.256 0 2.736.576 5.02 3.168 5.02 2.832 0 3.456-1.944 3.696-2.712l.359.072"/><path d="m1173.43 3274.02h1.849v-16.633h-1.849v-.336h3.912v16.97h1.849v.336h-5.761v-.337"/><path d="m1191.33 3274.09c-.407.312-.983.6-1.8.6-1.536 0-2.112-.696-2.376-1.872h-.048c-.24.6-.792 1.872-3.169 1.872-2.664 0-3.096-1.344-3.096-2.328 0-2.256 1.968-2.472 3.744-3.048 2.136-.696 2.616-.84 2.616-2.76 0-1.536-.264-2.472-1.849-2.472-1.056 0-1.824.36-1.824 1.176 0 .552.145 1.128.145 1.392 0 .432-.336.792-.937.792-1.056 0-1.176-.432-1.176-1.032 0-1.416 1.296-2.664 3.744-2.664 2.952 0 3.889 1.608 3.889 3.312v5.977c0 .912.312 1.176.84 1.176.336 0 .769-.144 1.104-.384l.193.263m-4.2-5.616h-.048c-.024.192-.312.432-.792.624l-1.8.72c-1.01.408-1.585 1.152-1.585 2.28 0 .984.288 2.112 1.776 2.112 2.137 0 2.448-2.04 2.448-3.336v-2.4"/><path d="m1192.05 3274.02h1.848v-9.625h-1.848v-.336h3.864v2.424h.048c.264-.936 1.128-2.688 3.145-2.688 1.487 0 2.136 1.032 2.136 1.992 0 1.056-.576 1.32-1.2 1.32-.696 0-1.056-.264-1.056-.672 0-.576.312-.576.312-1.392 0-.48-.288-.768-.84-.768-1.01 0-2.496 1.584-2.496 4.249v5.497h2.088v.336h-6v-.337"/><path d="m1212.64 3274.09c-.407.312-.983.6-1.8.6-1.536 0-2.112-.696-2.376-1.872h-.048c-.24.6-.792 1.872-3.169 1.872-2.664 0-3.096-1.344-3.096-2.328 0-2.256 1.968-2.472 3.744-3.048 2.136-.696 2.616-.84 2.616-2.76 0-1.536-.264-2.472-1.849-2.472-1.056 0-1.824.36-1.824 1.176 0 .552.145 1.128.145 1.392 0 .432-.336.792-.937.792-1.056 0-1.176-.432-1.176-1.032 0-1.416 1.296-2.664 3.744-2.664 2.952 0 3.889 1.608 3.889 3.312v5.977c0 .912.312 1.176.84 1.176.336 0 .769-.144 1.104-.384l.193.263m-4.201-5.616h-.048c-.024.192-.313.432-.792.624l-1.8.72c-1.01.408-1.585 1.152-1.585 2.28 0 .984.288 2.112 1.776 2.112 2.137 0 2.448-2.04 2.448-3.336v-2.4"/><path d="m1213.12 3264.06h1.848v-3.096c.24.096.385.168.937.168.479 0 .816-.12 1.128-.36v3.288h3.408v.336h-3.408v7.849c0 1.8.792 2.112 1.44 2.112 1.128 0 1.824-.96 2.02-2.02l.336.12c-.168.816-.695 2.232-2.64 2.232-2.4 0-3.217-.984-3.217-2.664v-7.633h-1.848v-.336"/><path d="m1221.38 3274.02h1.849v-9.625h-1.849v-.336h3.912v9.961h1.849v.336h-5.761v-.336m2.832-16.826c.696 0 1.272.576 1.272 1.272 0 .696-.576 1.272-1.272 1.272-.695 0-1.271-.576-1.271-1.272 0-.695.576-1.272 1.271-1.272"/><path d="m1234.48 3263.75c2.568 0 5.592 2.304 5.592 5.473 0 3.02-2.784 5.472-5.592 5.472-2.809 0-5.593-2.448-5.593-5.472.0001-3.169 3.03-5.473 5.593-5.473m0 10.609c1.704 0 3.192-.6 3.192-5.136 0-3.816-1.032-5.137-3.192-5.137s-3.192 1.32-3.192 5.137c0 4.536 1.488 5.136 3.192 5.136"/><path d="m1241.75 3274.02h1.849v-9.625h-1.849v-.336h3.865v2.568h.048c.384-.84 1.368-2.833 4.128-2.833 2.112 0 3.576.984 3.576 3.216v7.01h1.849v.336h-5.761v-.336h1.849v-7.753c0-1.248-.576-2.136-1.824-2.136-2.064 0-3.816 1.92-3.816 4.464v5.425h1.848v.336h-5.761v-.335"/><path d="m1259.15 3263.8c.696 0 1.272.576 1.272 1.272 0 .696-.576 1.272-1.272 1.272-.695 0-1.271-.576-1.271-1.272 0-.696.576-1.272 1.271-1.272m0 8.281c.696 0 1.272.576 1.272 1.272 0 .696-.576 1.272-1.272 1.272-.695 0-1.271-.576-1.271-1.272 0-.696.576-1.272 1.271-1.272"/><path d="m1080.62 3302.82h2.665v-16.417h-2.665v-.336h4.513c.456 0 .888-.024 1.344-.048.433 0 .889-.024 1.32-.024 3.648 0 6.36 1.824 6.36 4.561 0 2.856-3.144 4.537-6.672 4.537-.433 0-1.272-.096-1.801-.192v7.921h2.664v.336h-7.729v-.338zm5.065-8.257c.624.12 1.416.192 1.944.192 2.353 0 3.769-1.392 3.769-4.2 0-3.288-1.225-4.225-4.32-4.225-.601 0-1.128.048-1.393.072v8.161"/><path d="m1096.1 3302.82h1.848v-9.625h-1.848v-.336h3.864v2.424h.048c.264-.936 1.128-2.688 3.145-2.688 1.487 0 2.136 1.032 2.136 1.992 0 1.056-.576 1.32-1.2 1.32-.696 0-1.056-.264-1.056-.672 0-.576.312-.576.312-1.392 0-.48-.288-.768-.84-.768-1.01 0-2.496 1.584-2.496 4.249v5.497h2.088v.336h-6v-.337"/><path d="m1111.89 3292.55c2.568 0 5.592 2.304 5.592 5.473 0 3.02-2.784 5.472-5.592 5.472-2.809 0-5.593-2.448-5.593-5.472 0-3.169 3.02-5.473 5.593-5.473m0 10.609c1.704 0 3.192-.6 3.192-5.136 0-3.816-1.032-5.137-3.192-5.137s-3.192 1.32-3.192 5.137c-.0001 4.536 1.488 5.136 3.192 5.136"/><path d="m1121.9 3298.74c-.912-.624-1.392-1.512-1.392-2.592 0-2.256 2.4-3.6 4.272-3.6 1.439 0 2.52.744 3 1.224.36-.6 1.032-1.224 2.064-1.224.647 0 1.296.192 1.296 1.08 0 .576-.456.864-.84.864-.864 0-.648-1.2-1.32-1.2-.313 0-.696.336-.937.672.288.312.889 1.104.889 2.256 0 1.896-2.064 3.336-4.272 3.336-1.104 0-1.969-.408-2.425-.625-.695.313-1.704.769-1.704 1.824 0 .984.816 1.176 1.633 1.176h3.792c2.232 0 3.673 1.032 3.673 3.336 0 2.784-2.665 4.752-5.425 4.752-2.473 0-4.297-1.176-4.297-2.88 0-1.68 1.465-2.712 2.809-3.216v-.048c-2.112 0-3.097-.624-3.097-2.28.0001-1.726 1.442-2.47 2.281-2.855m1.321 5.137c-.84.504-1.776 1.032-1.776 2.688 0 2.28 1.776 2.977 3.24 2.977 2.305 0 3.865-1.512 3.865-3.192 0-1.776-1.057-2.472-2.736-2.472h-2.593m1.56-10.994c-1.633 0-2.473.936-2.473 3.192 0 1.92.504 3.144 2.496 3.144 1.656 0 2.305-1.032 2.305-3.144 0-1.464-.215-3.192-2.328-3.192"/><path d="m1131.67 3302.82h1.848v-9.625h-1.848v-.336h3.864v2.424h.048c.264-.936 1.128-2.688 3.145-2.688 1.487 0 2.136 1.032 2.136 1.992 0 1.056-.576 1.32-1.2 1.32-.696 0-1.056-.264-1.056-.672 0-.576.312-.576.312-1.392 0-.48-.288-.768-.84-.768-1.01 0-2.496 1.584-2.496 4.249v5.497h2.088v.336h-6v-.337"/><path d="m1144.29 3297.2c0 .312-.023.624-.023 1.128 0 2.136.336 4.824 3.168 4.824s3.456-1.944 3.696-2.712l.36.072c-.216.696-.864 2.976-4.08 2.976-3.217 0-5.545-2.16-5.545-5.424 0-2.833 2.376-5.521 5.4-5.521 1.776 0 4.416 1.152 4.416 4.656h-7.392m4.945-.335c.048-.456.048-.816.048-1.224 0-2.16-.864-2.76-2.112-2.76-2.16 0-2.713 1.896-2.856 3.984h4.92"/><path d="m1154.13 3299.8h.265c.432 1.512 1.368 3.36 3.792 3.36 1.032 0 1.968-.6 1.968-1.992 0-1.224-.743-1.584-1.56-1.872l-1.872-.648c-.984-.336-2.376-.816-2.376-2.928 0-1.8 1.464-3.168 3.456-3.168 1.392 0 1.632.504 2.304.504.217 0 .313-.072.385-.192h.264v2.736h-.264c-.456-1.44-1.057-2.712-2.688-2.712-1.536 0-2.425.744-2.425 1.896 0 1.032.744 1.464 2.137 1.896l1.752.576c1.488.504 2.568 1.368 2.568 2.832 0 1.752-1.393 3.408-3.816 3.408-1.416 0-2.328-.672-3.048-.672-.36 0-.48.168-.576.336h-.265v-3.36"/><path d="m1164.35 3299.8h.265c.432 1.512 1.368 3.36 3.792 3.36 1.032 0 1.968-.6 1.968-1.992 0-1.224-.743-1.584-1.56-1.872l-1.872-.648c-.984-.336-2.376-.816-2.376-2.928 0-1.8 1.464-3.168 3.456-3.168 1.392 0 1.632.504 2.304.504.217 0 .313-.072.385-.192h.264v2.736h-.264c-.456-1.44-1.057-2.712-2.688-2.712-1.536 0-2.425.744-2.425 1.896 0 1.032.744 1.464 2.137 1.896l1.752.576c1.488.504 2.568 1.368 2.568 2.832 0 1.752-1.393 3.408-3.816 3.408-1.416 0-2.328-.672-3.048-.672-.36 0-.48.168-.576.336h-.265v-3.36"/><path d="m1187.71 3285.85h3.912v16.97h1.849v.336h-3.864v-2.088h-.049c-.239.744-.983 2.424-3.168 2.424-2.832 0-5.232-2.616-5.232-5.544 0-2.88 2.328-5.4 5.064-5.4 1.752 0 2.856.984 3.288 2.232h.048v-8.592h-1.848v-.338m-1.296 17.306c2.664 0 3.144-2.592 3.144-4.705 0-2.472-.168-3.6-.84-4.464-.479-.624-1.224-1.104-2.4-1.104-2.231 0-2.76 1.848-2.76 4.776 0 3.337.215 5.497 2.856 5.497"/><path d="m1200.81 3292.55c2.568 0 5.592 2.304 5.592 5.473 0 3.02-2.784 5.472-5.592 5.472-2.809 0-5.593-2.448-5.593-5.472 0-3.169 3.02-5.473 5.593-5.473m0 10.609c1.704 0 3.192-.6 3.192-5.136 0-3.816-1.032-5.137-3.192-5.137s-3.192 1.32-3.192 5.137c-.0001 4.536 1.487 5.136 3.192 5.136"/><path d="m1210.99 3297.2c0 .312-.023.624-.023 1.128 0 2.136.336 4.824 3.168 4.824s3.456-1.944 3.696-2.712l.36.072c-.216.696-.864 2.976-4.08 2.976-3.217 0-5.545-2.16-5.545-5.424 0-2.833 2.376-5.521 5.4-5.521 1.776 0 4.416 1.152 4.416 4.656h-7.392m4.946-.335c.048-.456.048-.816.048-1.224 0-2.16-.864-2.76-2.112-2.76-2.16 0-2.713 1.896-2.856 3.984h4.92"/><path d="m1220.83 3299.8h.265c.432 1.512 1.368 3.36 3.792 3.36 1.032 0 1.968-.6 1.968-1.992 0-1.224-.743-1.584-1.56-1.872l-1.872-.648c-.984-.336-2.376-.816-2.376-2.928 0-1.8 1.464-3.168 3.456-3.168 1.392 0 1.632.504 2.304.504.217 0 .313-.072.385-.192h.264v2.736h-.264c-.456-1.44-1.057-2.712-2.688-2.712-1.536 0-2.425.744-2.425 1.896 0 1.032.744 1.464 2.137 1.896l1.752.576c1.488.504 2.568 1.368 2.568 2.832 0 1.752-1.393 3.408-3.816 3.408-1.416 0-2.328-.672-3.048-.672-.36 0-.48.168-.576.336h-.265v-3.36"/><path d="m1236.98 3302.82h1.849v-9.625h-1.849v-.336h3.865v2.568h.048c.384-.84 1.368-2.833 4.128-2.833 2.112 0 3.576.984 3.576 3.216v7.01h1.849v.336h-5.761v-.336h1.849v-7.753c0-1.248-.576-2.136-1.824-2.136-2.064 0-3.816 1.92-3.816 4.464v5.425h1.848v.336h-5.761v-.335"/><path d="m1257.71 3292.55c2.568 0 5.592 2.304 5.592 5.473 0 3.02-2.784 5.472-5.592 5.472-2.809 0-5.593-2.448-5.593-5.472 0-3.169 3.02-5.473 5.593-5.473m0 10.609c1.704 0 3.192-.6 3.192-5.136 0-3.816-1.032-5.137-3.192-5.137s-3.192 1.32-3.192 5.137c-.0001 4.536 1.488 5.136 3.192 5.136"/><path d="m1264.8 3292.86h1.848v-3.096c.24.096.385.168.937.168.479 0 .816-.12 1.128-.36v3.288h3.408v.336h-3.408v7.849c0 1.8.792 2.112 1.44 2.112 1.128 0 1.824-.96 2.02-2.02l.336.12c-.168.816-.695 2.232-2.64 2.232-2.4 0-3.217-.984-3.217-2.664v-7.633h-1.848v-.336"/><path d="m1289.76 3300.52c-.216.696-.864 2.976-4.08 2.976-2.448 0-5.545-1.416-5.545-5.424 0-3.12 2.496-5.521 5.593-5.521 1.704 0 3.888.768 3.888 2.736 0 .672-.456 1.152-1.248 1.152-.552 0-1.151-.216-1.151-.792 0-.456.336-1.2.336-1.608 0-.744-.864-1.152-1.824-1.152-1.416 0-3.192.36-3.192 5.256 0 2.736.576 5.02 3.168 5.02 2.832 0 3.456-1.944 3.696-2.712l.359.072"/><path d="m1297.27 3292.55c2.568 0 5.592 2.304 5.592 5.473 0 3.02-2.784 5.472-5.592 5.472-2.809 0-5.593-2.448-5.593-5.472 0-3.169 3.02-5.473 5.593-5.473m0 10.609c1.704 0 3.192-.6 3.192-5.136 0-3.816-1.032-5.137-3.192-5.137s-3.192 1.32-3.192 5.137c-.0001 4.536 1.488 5.136 3.192 5.136"/><path d="m1304.42 3302.82h1.848v-9.625h-1.848v-.336h3.864v2.52h.048c.672-1.896 1.968-2.784 3.744-2.784 1.584 0 2.952.648 3.336 2.28h.049c.432-1.152 1.535-2.28 3.527-2.28 2.377 0 3.505 1.224 3.505 3.577v6.648h1.848v.336h-5.76v-.336h1.848v-8.161c0-1.08-.624-1.729-1.656-1.729-1.584 0-3.36 1.176-3.36 3.769v6.121h1.849v.336h-5.761v-.336h1.849v-7.825c0-1.392-.624-2.064-1.585-2.064-1.367 0-3.432 1.249-3.432 4.561v5.329h1.848v.336h-5.76v-.337"/><path d="m1328.32 3297.2c0 .312-.023.624-.023 1.128 0 2.136.336 4.824 3.168 4.824s3.456-1.944 3.696-2.712l.36.072c-.216.696-.864 2.976-4.08 2.976-3.217 0-5.545-2.16-5.545-5.424 0-2.833 2.376-5.521 5.4-5.521 1.776 0 4.416 1.152 4.416 4.656h-7.392m4.945-.335c.049-.456.049-.816.049-1.224 0-2.16-.864-2.76-2.112-2.76-2.16 0-2.713 1.896-2.856 3.984h4.919"/><path d="m1343.39 3292.86h5.784v.336h-1.992l2.688 7.489 2.496-5.929-.601-1.56h-1.01v-.336h4.776v.336h-1.608l2.785 7.441 3-7.441h-2.257v-.336h3.913v.336h-1.272l-4.296 10.753-3.265-8.713-3.648 8.713-3.864-10.753h-1.632v-.336"/><path d="m1361.94 3302.82h1.849v-9.625h-1.849v-.336h3.912v9.961h1.849v.336h-5.761v-.336m2.832-16.826c.696 0 1.272.576 1.272 1.272 0 .696-.576 1.272-1.272 1.272-.695 0-1.271-.576-1.271-1.272 0-.696.576-1.272 1.271-1.272"/><path d="m1368.79 3292.86h1.848v-3.096c.24.096.385.168.937.168.479 0 .816-.12 1.128-.36v3.288h3.408v.336h-3.408v7.849c0 1.8.792 2.112 1.44 2.112 1.128 0 1.824-.96 2.02-2.02l.336.12c-.168.816-.695 2.232-2.64 2.232-2.4 0-3.217-.984-3.217-2.664v-7.633h-1.848v-.336"/><path d="m1376.97 3302.82h1.849v-16.633h-1.849v-.336h3.913v9.433h.048c.336-.864 1.464-2.688 4.08-2.688 2.112 0 3.576.984 3.576 3.216v7.01h1.849v.336h-5.761v-.336h1.849v-7.753c0-1.248-.576-2.136-1.824-2.136-2.064 0-3.816 1.92-3.816 4.464v5.425h1.848v.336h-5.761v-.337"/><path d="m1397.71 3292.55c2.568 0 5.592 2.304 5.592 5.473 0 3.02-2.784 5.472-5.592 5.472-2.809 0-5.593-2.448-5.593-5.472 0-3.169 3.03-5.473 5.593-5.473m0 10.609c1.704 0 3.192-.6 3.192-5.136 0-3.816-1.032-5.137-3.192-5.137s-3.192 1.32-3.192 5.137c0 4.536 1.488 5.136 3.192 5.136"/><path d="m1418.03 3303.16h-3.864v-2.424h-.048c-.576 1.296-1.561 2.76-3.673 2.76-1.271 0-2.063-.36-2.496-.672-.456-.336-1.152-.864-1.152-2.808v-6.817h-1.848v-.336h3.912v7.369c0 1.656.408 2.928 2.04 2.928 1.393 0 3.217-1.728 3.217-4.393v-5.568h-1.824v-.336h3.888v9.961h1.849v.336"/><path d="m1419.02 3292.86h1.848v-3.096c.24.096.385.168.937.168.479 0 .816-.12 1.128-.36v3.288h3.408v.336h-3.408v7.849c0 1.8.792 2.112 1.44 2.112 1.128 0 1.824-.96 2.02-2.02l.336.12c-.168.816-.695 2.232-2.64 2.232-2.4 0-3.217-.984-3.217-2.664v-7.633h-1.848v-.336"/><path d="m1444.74 3302.89c-.407.312-.983.6-1.8.6-1.536 0-2.112-.696-2.376-1.872h-.048c-.24.6-.792 1.872-3.169 1.872-2.664 0-3.096-1.344-3.096-2.328 0-2.256 1.968-2.472 3.744-3.048 2.136-.696 2.616-.84 2.616-2.76 0-1.536-.264-2.472-1.849-2.472-1.056 0-1.824.36-1.824 1.176 0 .552.145 1.128.145 1.392 0 .432-.336.792-.937.792-1.056 0-1.176-.432-1.176-1.032 0-1.416 1.296-2.664 3.744-2.664 2.952 0 3.889 1.608 3.889 3.312v5.977c0 .912.312 1.176.84 1.176.336 0 .769-.144 1.104-.384l.193.263m-4.2-5.617h-.048c-.024.192-.312.432-.792.624l-1.8.72c-1.01.408-1.585 1.152-1.585 2.28 0 .984.288 2.112 1.776 2.112 2.137 0 2.448-2.04 2.448-3.336v-2.4"/><path d="m1451.9 3292.86h1.848v-3.096c.24.096.385.168.937.168.479 0 .816-.12 1.128-.36v3.288h3.408v.336h-3.408v7.849c0 1.8.792 2.112 1.44 2.112 1.128 0 1.824-.96 2.02-2.02l.336.12c-.168.816-.695 2.232-2.64 2.232-2.4 0-3.217-.984-3.217-2.664v-7.633h-1.848v-.336"/><path d="m1460.13 3302.82h1.848v-9.625h-1.848v-.336h3.864v2.424h.048c.264-.936 1.128-2.688 3.145-2.688 1.487 0 2.136 1.032 2.136 1.992 0 1.056-.576 1.32-1.2 1.32-.696 0-1.056-.264-1.056-.672 0-.576.312-.576.312-1.392 0-.48-.288-.768-.84-.768-1.01 0-2.496 1.584-2.496 4.249v5.497h2.088v.336h-6v-.337"/><path d="m1480.72 3302.89c-.407.312-.983.6-1.8.6-1.536 0-2.112-.696-2.376-1.872h-.048c-.24.6-.792 1.872-3.169 1.872-2.664 0-3.096-1.344-3.096-2.328 0-2.256 1.968-2.472 3.744-3.048 2.136-.696 2.616-.84 2.616-2.76 0-1.536-.264-2.472-1.849-2.472-1.056 0-1.824.36-1.824 1.176 0 .552.145 1.128.145 1.392 0 .432-.336.792-.937.792-1.056 0-1.176-.432-1.176-1.032 0-1.416 1.296-2.664 3.744-2.664 2.952 0 3.889 1.608 3.889 3.312v5.977c0 .912.312 1.176.84 1.176.336 0 .769-.144 1.104-.384l.193.263m-4.2-5.617h-.048c-.024.192-.313.432-.792.624l-1.8.72c-1.01.408-1.585 1.152-1.585 2.28 0 .984.288 2.112 1.776 2.112 2.137 0 2.448-2.04 2.448-3.336v-2.4"/><path d="m1481.39 3302.82h1.849v-9.625h-1.849v-.336h3.865v2.568h.048c.384-.84 1.368-2.833 4.128-2.833 2.112 0 3.576.984 3.576 3.216v7.01h1.849v.336h-5.761v-.336h1.849v-7.753c0-1.248-.576-2.136-1.824-2.136-2.064 0-3.816 1.92-3.816 4.464v5.425h1.848v.336h-5.761v-.335"/><path d="m1496.8 3299.8h.265c.432 1.512 1.368 3.36 3.792 3.36 1.032 0 1.968-.6 1.968-1.992 0-1.224-.743-1.584-1.56-1.872l-1.872-.648c-.984-.336-2.376-.816-2.376-2.928 0-1.8 1.464-3.168 3.456-3.168 1.392 0 1.632.504 2.304.504.217 0 .313-.072.385-.192h.264v2.736h-.264c-.456-1.44-1.057-2.712-2.688-2.712-1.536 0-2.425.744-2.425 1.896 0 1.032.744 1.464 2.137 1.896l1.752.576c1.488.504 2.568 1.368 2.568 2.832 0 1.752-1.393 3.408-3.816 3.408-1.416 0-2.328-.672-3.048-.672-.36 0-.48.168-.576.336h-.265v-3.36"/><path d="m1506.35 3302.82h1.849v-9.625h-1.849v-.336h1.849v-1.272c0-2.232.456-3.192 1.08-3.984.84-1.056 2.16-1.968 3.552-1.968 2.089 0 2.977 1.368 2.977 2.232 0 .6-.313 1.224-1.152 1.224-.408 0-1.104-.12-1.104-.768 0-.552.456-.912.456-1.464 0-.72-.721-.888-1.32-.888-1.32 0-2.425 1.104-2.425 3.552v3.336h2.977v.336h-2.977v9.625h2.185v.336h-6.097v-.336"/><path d="m1520.1 3292.55c2.568 0 5.592 2.304 5.592 5.473 0 3.02-2.784 5.472-5.592 5.472-2.809 0-5.593-2.448-5.593-5.472.0001-3.169 3.03-5.473 5.593-5.473m0 10.609c1.704 0 3.192-.6 3.192-5.136 0-3.816-1.032-5.137-3.192-5.137s-3.192 1.32-3.192 5.137c0 4.536 1.488 5.136 3.192 5.136"/><path d="m1527.42 3302.82h1.848v-9.625h-1.848v-.336h3.864v2.424h.048c.264-.936 1.128-2.688 3.145-2.688 1.487 0 2.136 1.032 2.136 1.992 0 1.056-.576 1.32-1.2 1.32-.696 0-1.056-.264-1.056-.672 0-.576.312-.576.312-1.392 0-.48-.288-.768-.84-.768-1.01 0-2.496 1.584-2.496 4.249v5.497h2.088v.336h-6v-.337"/><path d="m1537.02 3302.82h1.848v-9.625h-1.848v-.336h3.864v2.52h.048c.672-1.896 1.968-2.784 3.744-2.784 1.584 0 2.952.648 3.336 2.28h.049c.432-1.152 1.535-2.28 3.527-2.28 2.377 0 3.505 1.224 3.505 3.577v6.648h1.848v.336h-5.76v-.336h1.848v-8.161c0-1.08-.624-1.729-1.656-1.729-1.584 0-3.36 1.176-3.36 3.769v6.121h1.849v.336h-5.761v-.336h1.849v-7.825c0-1.392-.624-2.064-1.585-2.064-1.367 0-3.432 1.249-3.432 4.561v5.329h1.848v.336h-5.76v-.337"/><path d="m1568.9 3302.89c-.407.312-.983.6-1.8.6-1.536 0-2.112-.696-2.376-1.872h-.048c-.24.6-.792 1.872-3.169 1.872-2.664 0-3.096-1.344-3.096-2.328 0-2.256 1.968-2.472 3.744-3.048 2.136-.696 2.616-.84 2.616-2.76 0-1.536-.264-2.472-1.849-2.472-1.056 0-1.824.36-1.824 1.176 0 .552.145 1.128.145 1.392 0 .432-.336.792-.937.792-1.056 0-1.176-.432-1.176-1.032 0-1.416 1.296-2.664 3.744-2.664 2.952 0 3.889 1.608 3.889 3.312v5.977c0 .912.312 1.176.84 1.176.336 0 .769-.144 1.104-.384l.193.263m-4.201-5.617h-.048c-.024.192-.312.432-.792.624l-1.8.72c-1.01.408-1.585 1.152-1.585 2.28 0 .984.288 2.112 1.776 2.112 2.137 0 2.448-2.04 2.448-3.336v-2.4"/><path d="m1569.37 3292.86h1.848v-3.096c.24.096.385.168.937.168.479 0 .816-.12 1.128-.36v3.288h3.408v.336h-3.408v7.849c0 1.8.792 2.112 1.44 2.112 1.128 0 1.824-.96 2.02-2.02l.336.12c-.168.816-.695 2.232-2.64 2.232-2.4 0-3.217-.984-3.217-2.664v-7.633h-1.848v-.336"/><path d="m1577.63 3302.82h1.849v-9.625h-1.849v-.336h3.912v9.961h1.849v.336h-5.761v-.336m2.832-16.826c.696 0 1.272.576 1.272 1.272 0 .696-.576 1.272-1.272 1.272-.695 0-1.271-.576-1.271-1.272-.0001-.696.576-1.272 1.271-1.272"/><path d="m1590.73 3292.55c2.568 0 5.592 2.304 5.592 5.473 0 3.02-2.784 5.472-5.592 5.472-2.809 0-5.593-2.448-5.593-5.472.0001-3.169 3.03-5.473 5.593-5.473m0 10.609c1.704 0 3.192-.6 3.192-5.136 0-3.816-1.032-5.137-3.192-5.137s-3.192 1.32-3.192 5.137c0 4.536 1.488 5.136 3.192 5.136"/><path d="m1598.01 3302.82h1.849v-9.625h-1.849v-.336h3.865v2.568h.048c.384-.84 1.368-2.833 4.128-2.833 2.112 0 3.576.984 3.576 3.216v7.01h1.849v.336h-5.761v-.336h1.849v-7.753c0-1.248-.576-2.136-1.824-2.136-2.064 0-3.816 1.92-3.816 4.464v5.425h1.848v.336h-5.761v-.335"/><path d="m1615.41 3300.87c.696 0 1.272.576 1.272 1.272 0 .696-.576 1.272-1.272 1.272-.695 0-1.271-.576-1.271-1.272 0-.695.576-1.272 1.271-1.272"/></svg>