<svg id="Layer_1" data-name="Layer 1" xmlns="http://www.w3.org/2000/svg" viewBox="0 0 10.3 10.28"><defs><style>.cls-1{fill:#fff;}</style></defs><title>Artboard 1</title><path id="rect3687" class="cls-1" d="M3,0A3,3,0,0,0,0,3V7.3a3,3,0,0,0,3,3H7.32a3,3,0,0,0,3-3V3a3,3,0,0,0-3-3ZM3,.88H7.32A2.09,2.09,0,0,1,9.42,3V7.3a2.08,2.08,0,0,1-2.1,2.1H3A2.08,2.08,0,0,1,.88,7.3V3A2.08,2.08,0,0,1,3,.88Zm4.94.88a.62.62,0,1,0,.62.62A.62.62,0,0,0,7.92,1.77Zm-2.77.73A2.65,2.65,0,1,0,7.8,5.14,2.65,2.65,0,0,0,5.15,2.49Zm0,.88A1.76,1.76,0,1,1,3.39,5.14,1.76,1.76,0,0,1,5.15,3.38Z"/></svg>