<?xml version="1.0" encoding="utf-8"?>
<!-- Generator: Adobe Illustrator 17.0.0, SVG Export Plug-In . SVG Version: 6.00 Build 0)  -->
<!DOCTYPE svg PUBLIC "-//W3C//DTD SVG 1.1//EN" "http://www.w3.org/Graphics/SVG/1.1/DTD/svg11.dtd">
<svg version="1.1" id="Layer_1" xmlns="http://www.w3.org/2000/svg" xmlns:xlink="http://www.w3.org/1999/xlink" x="0px" y="0px"
	 width="936px" height="1289.34px" viewBox="0 39.477 936 1289.34" enable-background="new 0 39.477 936 1289.34"
	 xml:space="preserve">
<path fill="#064F8A" d="M0,39.477h936v1289.34H0V39.477z"/>
<g>
	<path fill="#043761" d="M203.979,553.656H239.9l48.018,138.188h0.733l47.651-138.188h36.288v260.981h-37.388V655.923h-0.733
		l-37.021,112.164h-18.694L242.1,655.923h-0.733v158.715h-37.388V553.656z"/>
	<path fill="#043761" d="M400.594,553.656h37.388v260.981h-37.388V553.656z"/>
	<path fill="#043761" d="M589.292,628.798h-37.388v-8.43c0-17.228-7.331-31.523-26.392-31.523
		c-20.526,0-25.292,16.495-25.292,33.723c0,20.16,1.833,27.125,21.26,34.822l28.591,11.363
		c32.989,12.463,39.221,33.356,39.221,71.477c0,43.986-16.128,76.608-64.513,76.608c-36.288,0-63.779-26.758-63.779-61.946v-13.929
		h37.388v11.729c0,13.563,7.331,26.758,26.392,26.758c25.292,0,27.125-15.028,27.125-38.854c0-27.857-3.299-32.256-21.627-39.587
		l-26.758-10.997c-32.256-13.195-40.687-34.455-40.687-67.078c0-39.587,21.26-71.477,64.146-71.477
		c37.388,0,62.313,30.057,62.313,59.014V628.798z"/>
	<path fill="#043761" d="M732.021,756.357c0,32.256-26.025,60.479-59.381,60.479c-28.591,0-61.58-13.929-61.58-61.579V611.571
		c0-34.089,24.559-60.114,60.847-60.114c34.456,0,60.114,26.025,60.114,62.313v14.662h-37.388v-12.463
		c0-14.662-8.798-27.125-23.093-27.125c-18.694,0-23.093,12.83-23.093,30.424v133.423c0,15.028,5.865,26.758,22.727,26.758
		c10.263,0,23.459-5.864,23.459-26.392v-12.829h37.388V756.357z"/>
</g>
<path fill="#231F20" d="M349.163,953.632l-2.551,5.113l-3.159-4.762L349.163,953.632z"/>
<g>
	<path fill="#FFFFFF" d="M146.875,638.044h12.691l16.965,48.823h0.259l16.835-48.823h12.821v92.206h-13.209v-56.074h-0.259
		l-13.08,39.628h-6.604l-12.95-39.628h-0.259v56.074h-13.209V638.044z"/>
	<path fill="#FFFFFF" d="M216.344,638.044h13.209v92.206h-13.209V638.044z"/>
	<path fill="#FFFFFF" d="M283.012,664.593h-13.209v-2.979c0-6.087-2.59-11.137-9.324-11.137c-7.252,0-8.936,5.828-8.936,11.915
		c0,7.122,0.647,9.583,7.511,12.303l10.101,4.014c11.655,4.403,13.857,11.785,13.857,25.253c0,15.54-5.698,27.066-22.792,27.066
		c-12.82,0-22.533-9.454-22.533-21.886v-4.921h13.209v4.144c0,4.792,2.59,9.454,9.324,9.454c8.936,0,9.583-5.31,9.583-13.728
		c0-9.842-1.166-11.396-7.641-13.986l-9.454-3.885c-11.396-4.662-14.375-12.173-14.375-23.699c0-13.987,7.511-25.253,22.663-25.253
		c13.209,0,22.016,10.619,22.016,20.851V664.593z"/>
	<path fill="#FFFFFF" d="M333.441,709.659c0,11.396-9.194,21.368-20.979,21.368c-10.101,0-21.756-4.922-21.756-21.757v-50.765
		c0-12.043,8.677-21.239,21.498-21.239c12.173,0,21.238,9.195,21.238,22.016v5.18h-13.209v-4.402c0-5.181-3.108-9.583-8.159-9.583
		c-6.604,0-8.158,4.533-8.158,10.749v47.139c0,5.31,2.072,9.454,8.029,9.454c3.626,0,8.288-2.072,8.288-9.324v-4.533h13.209V709.659
		z"/>
	<path fill="#FFFFFF" d="M341.888,638.044h39.368v12.433h-26.159v27.066h22.792v12.432h-22.792v27.066h26.159v13.209h-39.368
		V638.044z"/>
	<path fill="#FFFFFF" d="M388.717,638.044h13.209v78.997h26.159v13.209h-39.369V638.044z"/>
	<path fill="#FFFFFF" d="M435.547,638.044h13.209v78.997h26.159v13.209h-39.369V638.044z"/>
	<path fill="#FFFFFF" d="M500.288,638.044h11.008l20.591,92.206h-13.209l-3.886-19.813h-18l-3.886,19.813h-13.209L500.288,638.044z
		 M505.856,664.593h-0.259l-6.475,33.411h13.209L505.856,664.593z"/>
	<path fill="#FFFFFF" d="M538.182,638.044h12.691l19.942,55.557h0.26v-55.557h13.209v92.206h-12.433l-20.202-55.427h-0.259v55.427
		h-13.209V638.044z"/>
	<path fill="#FFFFFF" d="M593.714,638.044h39.368v12.433h-26.159v27.066h22.793v12.432h-22.793v27.066h26.159v13.209h-39.368
		V638.044z"/>
	<path fill="#FFFFFF" d="M639.767,659.801c0-15.022,11.396-22.534,22.145-22.534c10.748,0,22.145,7.512,22.145,22.534v48.693
		c0,15.021-11.396,22.533-22.145,22.533c-10.749,0-22.145-7.512-22.145-22.533V659.801z M652.976,708.494
		c0,6.345,4.144,9.324,8.936,9.324c4.791,0,8.936-2.979,8.936-9.324v-48.693c0-6.345-4.145-9.324-8.936-9.324
		c-4.792,0-8.936,2.979-8.936,9.324V708.494z"/>
	<path fill="#FFFFFF" d="M735.755,709.529c0,12.044-9.583,21.498-21.367,21.498c-11.785,0-21.368-9.454-21.368-21.498v-71.485
		h13.209v70.19c0,6.476,3.497,9.584,8.159,9.584s8.158-3.108,8.158-9.584v-70.19h13.209V709.529z"/>
	<path fill="#FFFFFF" d="M789.125,664.593h-13.209v-2.979c0-6.087-2.59-11.137-9.324-11.137c-7.252,0-8.936,5.828-8.936,11.915
		c0,7.122,0.647,9.583,7.512,12.303l10.101,4.014c11.655,4.403,13.856,11.785,13.856,25.253c0,15.54-5.697,27.066-22.792,27.066
		c-12.82,0-22.533-9.454-22.533-21.886v-4.921h13.209v4.144c0,4.792,2.59,9.454,9.324,9.454c8.936,0,9.583-5.31,9.583-13.728
		c0-9.842-1.165-11.396-7.641-13.986l-9.453-3.885c-11.396-4.662-14.375-12.173-14.375-23.699c0-13.987,7.511-25.253,22.663-25.253
		c13.209,0,22.015,10.619,22.015,20.851V664.593z"/>
</g>
</svg>
