<?xml version="1.0" encoding="utf-8"?>
<!-- Generator: Adobe Illustrator 18.1.1, SVG Export Plug-In . SVG Version: 6.00 Build 0)  -->
<svg version="1.1" id="Layer_1" xmlns="http://www.w3.org/2000/svg" xmlns:xlink="http://www.w3.org/1999/xlink" x="0px" y="0px"
	 viewBox="144 -320.2 936 1289" enable-background="new 144 -320.2 936 1289" xml:space="preserve">
<g>
	<g>
		<polygon fill="#E5403B" points="144,969 1080,969 1080,711.1 144,711.1 		"/>
		<polyline fill="#5BC4C3" points="1080,195.4 1080,-62.5 144,-62.5 144,195.4 		"/>
		<polyline fill="#84C341" points="1080,-62.5 1080,-320.3 144,-320.3 144,-62.5 		"/>
		<polygon fill="#162C3D" points="1080,195.4 144,195.4 144,453.3 144,453.3 1080,453.3 		"/>
		<polygon fill="#E39C27" points="1080,711.1 1080,453.3 144,453.3 144,711.1 		"/>
	</g>
	<g>
		<path fill="#FFFFFF" d="M754.5,239.3l-8.8,88.4L709,239.3h-36.6h-6.3H511.5l0.1,0.1c-1.7-0.1-3.4-0.1-5.2-0.1h-60.5L425,409.4
			h44.4l6.8-56.7h16.1c47.4,0,67.1-27,70.7-56.7c0.7-6,0.8-11.9,0-17.5h20l-15.9,130.8h44.4l15.9-130.8h33.8l-16,130.8h44.4
			l8.6-88.4l37,88.4h42.9L799,239.3H754.5z M515.9,296.2c-0.9,6.8-5.4,17.9-18.6,17.9H481l4.3-35.8h16.3
			C514.8,278.3,516.6,289.9,515.9,296.2z"/>
	</g>
</g>
</svg>
