<svg id="Layer_1" data-name="Layer 1" xmlns="http://www.w3.org/2000/svg" viewBox="0 0 10.03 8.15"><defs><style>.cls-1{fill:#fff;}</style></defs><title>twitter_icon</title><path id="path22" class="cls-1" d="M10,1a4.11,4.11,0,0,1-1.18.32A2.06,2.06,0,0,0,9.75.15a4.11,4.11,0,0,1-1.31.5,2.06,2.06,0,0,0-3.5,1.88A5.84,5.84,0,0,1,.7.38a2.06,2.06,0,0,0,.64,2.75A2,2,0,0,1,.4,2.87v0a2.06,2.06,0,0,0,1.65,2,2.07,2.07,0,0,1-.93,0A2.06,2.06,0,0,0,3,6.37a4.13,4.13,0,0,1-2.55.88L0,7.22a5.82,5.82,0,0,0,3.15.92A5.81,5.81,0,0,0,9,2.3Q9,2.16,9,2A4.19,4.19,0,0,0,10,1"/></svg>