<?xml version="1.0" encoding="utf-8"?>
<!-- Generator: Adobe Illustrator 16.0.0, SVG Export Plug-In . SVG Version: 6.00 Build 0)  -->
<!DOCTYPE svg PUBLIC "-//W3C//DTD SVG 1.1//EN" "http://www.w3.org/Graphics/SVG/1.1/DTD/svg11.dtd">
<svg version="1.1" id="Layer_1" xmlns="http://www.w3.org/2000/svg" xmlns:xlink="http://www.w3.org/1999/xlink" x="0px" y="0px"
	 width="347.98px" height="233.9px" viewBox="0 0 347.98 233.9" enable-background="new 0 0 347.98 233.9" xml:space="preserve">
<path fill="#191A1A" d="M272.33,105.144c-0.091-0.277-0.19-0.55-0.295-0.824l-0.001-0.024l-0.004-0.013
	c-0.019-0.036,0.033,0.065-0.044-0.087l-0.016-0.041l-0.033-0.079l-0.063-0.161l-0.032-0.083l-0.064-0.13l-0.125-0.256
	c-0.625-1.244-1.461-2.248-2.353-3.118c-0.903-0.857-1.848-1.511-2.742-2.09c-0.908-0.559-1.783-1.021-2.593-1.454
	c-0.825-0.413-1.581-0.813-2.282-1.188c-1.413-0.752-2.502-1.484-3.4-2.365c-0.893-0.884-1.631-2.037-2.21-3.52
	c-0.601-1.469-0.989-3.185-1.446-5.021l-0.15-0.016c-0.357-0.548-0.975-0.917-1.68-0.917c-1.105,0-2.003,0.894-2.003,1.997v42.375
	c-2.579-1.187-6.075-1.228-9.453,0.151c-5.476,2.236-8.553,7.347-6.877,11.416c1.674,4.066,7.468,5.552,12.94,3.315
	c4.202-1.716,6.984-5.128,7.294-8.461c0.061-0.19,0.102-0.389,0.102-0.6V99.514c0.971,0.971,2.04,1.778,3.061,2.431
	c0.887,0.57,1.767,1.034,2.58,1.487c0.826,0.424,1.597,0.817,2.274,1.207c1.393,0.748,2.356,1.473,2.972,2.216l0.047,0.04
	l0.021,0.022l0.048,0.074l0.095,0.146l0.047,0.073l0.022,0.038c-0.015-0.035-0.024-0.051-0.03-0.062h0.002l0.007,0.014
	c0.093,0.144,0.183,0.292,0.269,0.439c0.162,0.303,0.335,0.603,0.481,0.92c0.286,0.633,0.537,1.3,0.716,2.017
	c0.731,2.857,0.485,6.43-0.567,10.163c0.891-0.479,1.647-1.165,2.339-1.893c0.696-0.736,1.307-1.559,1.841-2.447
	c1.067-1.779,1.783-3.874,1.943-6.134c0.076-1.127,0.019-2.289-0.204-3.431c-0.107-0.568-0.238-1.143-0.426-1.695"/>
<g>
	<circle fill="none" stroke="#191A1A" stroke-miterlimit="10" cx="243.476" cy="116.951" r="88.014"/>
	<circle fill="none" stroke="#191A1A" stroke-miterlimit="10" cx="104.511" cy="116.951" r="88.014"/>
</g>
<g>
	<path fill="#191A1A" d="M109.47,104.209l-19.52,33.813l-2.77-1.586l19.521-33.839l2.769,1.609 M83.76,134.467l19.542-33.839
		l2.169,1.252l-19.543,33.84L83.76,134.467 M92.448,141.125l-5.652,3.439l-1.582,0.983l-2.191-1.273l0.043-1.855l0.18-6.611
		L92.448,141.125 M112.886,106.168L93.339,139.99l-2.166-1.254l19.545-33.813l2.168,1.25 M115.743,101.215l-9.582-5.54l3.575-6.208
		l9.581,5.539L115.743,101.215 M117.844,104.073l0.715-1.249l4.377-7.595c0.447-0.782,0.179-1.765-0.581-2.211l-12.396-7.172
		c-0.782-0.446-1.766-0.177-2.211,0.604l-4.401,7.595l-0.715,1.25l-1.429,2.478l-0.716,1.229l-19.544,33.839l-0.714,1.229
		c-0.156,0.29-0.223,0.603-0.202,0.918l-0.2,7.35l-0.179,7.481c-0.023,0.313,0.067,0.626,0.224,0.896
		c0.469,0.758,1.474,1.004,2.231,0.534l6.385-3.908l6.277-3.843c0.268-0.134,0.514-0.356,0.669-0.648l0.716-1.228l19.544-33.84
		l0.714-1.23l1.432-2.479 M105.444,96.905l9.582,5.54l-1.43,2.479l-9.583-5.541L105.444,96.905"/>
	<path fill="#191A1A" d="M171.692,129.475h3.607v-3.6h-3.607V129.475 M168.081,111.56h3.606v-2.05c0-1.166,0.991-1.804,1.843-1.804
		c0.991,0,1.772,0.814,1.772,1.804v1.873c0,0.708-0.106,1.449-0.463,2.05l-2.266,3.675c-0.529,0.884-0.883,1.837-0.883,2.863v3.288
		h3.607v-2.828c0-0.636,0.283-1.237,0.601-1.804l2.444-4.17c0.459-0.778,0.565-1.627,0.565-4.029c0-2.156-0.247-3.04-1.202-4.311
		c-0.955-1.27-2.441-2.011-4.177-2.011c-3.009,0-5.449,2.399-5.449,5.366L168.081,111.56L168.081,111.56z"/>
</g>
</svg>
