<?xml version="1.0" encoding="utf-8"?>
<!-- Generator: Adobe Illustrator 18.1.1, SVG Export Plug-In . SVG Version: 6.00 Build 0)  -->
<svg version="1.1" id="Layer_1" xmlns="http://www.w3.org/2000/svg" xmlns:xlink="http://www.w3.org/1999/xlink" x="0px" y="0px"
	 viewBox="356.1 0 625.5 864" enable-background="new 356.1 0 625.5 864" xml:space="preserve">
<g id="Layer_5">
	<path fill="#BE2526" d="M356.1,0h625.5v864H356.1V0z"/>
</g>
<path fill="#FFFFFF" d="M931.1,517.2c31.7,44.6,34.1,78,7.4,100.2c-10.7,8.9-22.2,12.6-34.7,11.1c-12.4-1.5-23.4-8.1-33-19.5
	c-10.1-12.1-15.9-26.8-17.5-44.1c-1.6-17.4,1.5-46.6,9.2-87.7c7.8-41.2,13.6-68.6,17.5-82.4l25.7-94.9L836,216.3L708.5,322.4
	l-0.1-0.2L566.8,440.1c29.6-98.3,42.5-163.6,38.5-196.2c-4-32.4-15.8-60.3-35.3-83.8c-29.2-35.1-65.2-52.9-107.7-53.3
	c-36.5-0.3-72,11.7-106.2,35.9v229.4l50.7-27.8c-31.7-44.6-34.2-78-7.5-100.2c10.7-8.9,22.2-12.6,34.7-11.1
	c12.5,1.5,23.4,8.1,33,19.6c10.1,12.1,15.9,26.7,17.5,44.1c1.6,17.4-1.5,46.5-9.2,87.7c-7.8,41.2-13.6,68.6-17.5,82.4l-25.7,94.8
	l69.6,83.7l127.5-106.2l0.1,0.2l141.6-118c-29.6,98.3-42.5,163.7-38.5,196.3c4,32.4,15.8,60.3,35.3,83.8
	c29.2,35.1,65.1,52.9,107.7,53.3c36.6,0.3,71.9-11.6,106.1-35.8V489.4L931.1,517.2z"/>
<g id="Layer_3">
	<rect x="534.2" y="92.5" fill="#222223" width="269.6" height="677.5"/>
</g>
<g id="Layer_2">
	<g>
		<path fill="#FFFFFF" d="M734.2,629.4c14,4.1,26.8,15.8,26.8,46.1c0,12.2-1.7,25.7-9.9,36.2c-4.6,5.8-9.3,8.2-12.2,9.3
			c-5.3,1.7-8.2,3.5-18.1,3.5h-25.7v-32.7h20.4c6.4,0,14,0.5,18.1-5.8c1.2-1.7,2.4-5.3,2.4-9.9c0-5.8-1.2-8.7-3.5-11.1
			c-3.5-4.6-11.7-4.6-23.3-4.6c-2.4,0-10.5-0.5-16.3,3.5c-3.5,2.4-5.8,6.4-7,7.6l-21,30.9c-4.6,7-7,10.5-14.6,14.6
			c-6.4,3.5-12.8,6.4-28,6.4c-2.4,0-15.1,0-24.5-4.1c-21.6-9.9-21.6-40.3-21.6-43.7c0-5.3,0-33.8,23.3-42.5
			c4.6-1.7,6.4-2.9,14.6-2.9h17.5V663h-18.1c-5.3,0-12.8,1.7-12.8,14.6c0,7.6,2.9,14.6,17.5,14.6c0.5,0,11.1,0.5,16.9-3.5
			c1.7-1.2,3.5-3.5,5.8-7l21.6-31.5c1.7-2.4,7-9.3,14-14.6c10.5-7.6,18.1-7,30.3-7C722,627.6,727.8,627.6,734.2,629.4z"/>
		<path fill="#FFFFFF" d="M606.5,558.2h151.6v32.7H606.5v32.7h-25.7v-98h25.7V558.2L606.5,558.2z"/>
		<path fill="#FFFFFF" d="M746.5,430c16.3,12.2,15.1,36.7,15.1,40.8c0,12.8-2.9,26.8-12.8,36.2c-1.7,1.7-5.8,5.3-12.2,7.6
			c-6.4,2.4-13.4,3.5-19.9,3.5H580.9v-32.7h131.8c4.6,0,9.3,0,14-1.7c7-3.5,7.6-11.7,7.6-13.4c0-1.7,0-5.8-2.9-9.3
			c-4.1-6.4-12.2-5.3-18.7-5.3H580.9V423h137.1C728.4,421.8,737.1,423,746.5,430z"/>
		<path fill="#FFFFFF" d="M720.2,305.2c18.7,1.2,28.6,9.3,32.1,16.3c5.3,8.7,5.3,18.1,5.3,28v52.5H580.9v-60
			c0-4.6,0.5-14.6,8.7-24.5c10.5-12.2,23.3-12.8,37.9-12.8h82.8C713.2,305.2,716.7,305.2,720.2,305.2z M624.6,337.9
			c-5.3,0-11.1,0-15.1,4.6c-3.5,4.1-2.9,9.9-2.9,14.6v12.8h125.4v-11.7c0-2.9,0-6.4-0.5-9.3c-1.7-10.5-9.9-11.1-18.7-11.1
			L624.6,337.9L624.6,337.9z"/>
		<path fill="#FFFFFF" d="M757.6,287.1H580.9v-32h176.7V287.1z"/>
		<path fill="#FFFFFF" d="M749.9,148.9c9.9,10.5,11.7,25,11.7,38.5c0,12.8-1.7,26.2-10.5,36.7c-4.1,5.3-8.7,7.6-11.1,8.7
			c-6.4,2.9-14,3.5-20.4,3.5h-99.1c-3.5,0-21.6,0.5-32.1-11.1c-5.8-6.4-11.7-18.7-11.7-38.5c0-25.7,10.5-39.1,21-44.4
			c5.8-2.9,11.1-4.1,23.3-4.1h98.5C731.3,138.4,741.2,140.2,749.9,148.9z M624,171.1c-1.2,0-8.7-0.5-14,1.7
			c-3.5,1.7-7.6,5.3-7.6,13.4c0,1.7,0,6.4,3.5,10.5c5.3,7,12.8,6.4,19.9,6.4h89.2c5.3,0,11.7,0,16.3-2.9c5.3-3.5,5.3-11.7,5.3-13.4
			s0-6.4-2.9-10.5c-4.1-5.8-11.1-5.8-18.1-5.8H624V171.1z"/>
	</g>
</g>
</svg>
