<?xml version="1.0" encoding="utf-8"?>
<!-- Generator: Adobe Illustrator 17.0.0, SVG Export Plug-In . SVG Version: 6.00 Build 0)  -->
<!DOCTYPE svg PUBLIC "-//W3C//DTD SVG 1.1//EN" "http://www.w3.org/Graphics/SVG/1.1/DTD/svg11.dtd">
<svg version="1.1" id="Layer_1" xmlns="http://www.w3.org/2000/svg" xmlns:xlink="http://www.w3.org/1999/xlink" x="0px" y="0px"
	 width="1046.8px" height="1046.8px" viewBox="0 0 1046.8 1046.8" enable-background="new 0 0 1046.8 1046.8" xml:space="preserve">
<g id="Smoke">
	<g>
		<g>
			<path d="M788.8,949.6c-0.5,0-1,0-1.5,0c-50.8-0.7-93.3-20.6-122.8-57.5c-33.9-42.5-51.1-106.6-51.1-190.6c0-1.9,1.6-3.5,3.5-3.5
				s3.5,1.6,3.5,3.5c0,207.8,104.6,240.2,166.9,241c22.4,0.3,41.8-6.5,54.6-19.1c9.6-9.4,14.8-21.8,14.8-34.8
				c0-14.4-5.4-27.3-15.2-36.5c-8.6-8.1-19.9-12.3-31.1-11.5c-24,1.6-34.6,17.8-34.2,32.1c0.3,11.7,7.9,23.6,24.3,23.9
				c1.9,0,3.5,1.6,3.4,3.6c0,1.9-1.6,3.4-3.5,3.4c0,0,0,0-0.1,0c-20.9-0.4-30.8-16.2-31.1-30.7c-0.4-17.6,12.2-37.4,40.8-39.3
				c13-0.9,26.3,4,36.3,13.4c11.2,10.5,17.4,25.3,17.4,41.6c0,14.9-6,29.1-16.9,39.8C833,942.2,812.5,949.6,788.8,949.6z"/>
		</g>
		<g>
			<path d="M645.4,1033.8c-8.5,0-17.3-1.8-26.3-5.5c-32.2-13.3-51.8-43.2-61.6-93.8c-8.6-44.4-8.7-99.3-8.8-157.5
				c0-8.2,0-16.4-0.1-24.6c0-1.9,1.6-3.5,3.5-3.5l0,0c1.9,0,3.5,1.6,3.5,3.5c0,8.3,0,16.5,0.1,24.7c0.1,57.8,0.1,112.4,8.6,156.1
				c9.3,48.1,27.6,76.3,57.4,88.7c18.1,7.5,35.7,6.5,49.6-2.8c12.1-8.1,19.7-21.8,19.7-35.9c0-12.3-4.5-23.8-12.3-31.6
				c-6.5-6.4-14.8-9.9-24.2-9.9h-0.1c-16.8,0.1-25.9,11.2-27.4,21.5c-1.2,8.4,2.6,19.7,17,23.8c1.9,0.5,2.9,2.5,2.4,4.3
				c-0.5,1.9-2.5,2.9-4.3,2.4c-17.5-5-23.7-19.4-22-31.5c1.8-13.2,13.3-27.5,34.3-27.5c0.1,0,0.1,0,0.2,0c11.2,0,21.3,4.1,29.1,11.9
				c9.1,9.1,14.4,22.4,14.4,36.6c0,16.3-8.7,32.3-22.8,41.7C666.4,1030.8,656.2,1033.8,645.4,1033.8z"/>
		</g>
		<g>
			<path d="M839.8,814.5c-45.3,0-84.9-9.2-114.5-26.6c-33.2-19.5-53.1-49.3-57.5-86.1c-0.2-1.9,1.1-3.7,3.1-3.9
				c1.9-0.2,3.7,1.1,3.9,3.1c8,66.8,69.7,106.6,165.1,106.6c0.3,0,0.5,0,0.8,0c64-0.1,106-20.8,118.3-58.1
				c6.1-18.5,3.3-38.5-7.6-53.6c-9.2-12.8-22.7-20.1-36.8-20.1s-25.7,4.3-33.7,12.4c-6.9,7-10.7,16.3-10.7,26.4
				c0,16,10.1,33.2,32.4,33.2c1.9,0,3.5,1.6,3.5,3.5s-1.6,3.5-3.5,3.5c-25.9,0-39.4-20.2-39.4-40.2c0-11.9,4.5-23,12.7-31.3
				c9.3-9.4,22.7-14.4,38.7-14.4c16.5,0,32,8.4,42.5,23c12.2,16.9,15.4,39.2,8.6,59.8c-13.3,40.4-57.7,62.7-124.9,62.9
				C840.3,814.5,840,814.5,839.8,814.5z"/>
		</g>
	</g>
	<g>
		<g>
			<path d="M276.9,949.6c-23.7,0-44.3-7.5-58.1-21.1c-10.9-10.8-16.9-24.9-16.9-39.8c0-16.3,6.2-31.1,17.4-41.6
				c10-9.4,23.3-14.3,36.3-13.4c28.6,1.9,41.2,21.7,40.8,39.3c-0.3,14.5-10.2,30.3-31.1,30.7c0,0,0,0-0.1,0c-1.9,0-3.5-1.5-3.5-3.4
				s1.5-3.5,3.4-3.6c16.4-0.3,24-12.2,24.3-23.9c0.3-14.4-10.2-30.5-34.2-32.1c-11.1-0.7-22.4,3.5-31.1,11.5
				c-9.8,9.2-15.2,22.1-15.2,36.5c0,13,5.3,25.4,14.8,34.8c12.8,12.6,32.1,19.4,54.6,19.1c62.3-0.8,166.9-33.3,166.9-241
				c0-1.9,1.6-3.5,3.5-3.5s3.5,1.6,3.5,3.5c0,84-17.2,148.1-51.1,190.6c-29.5,36.9-71.9,56.8-122.8,57.5
				C277.9,949.6,277.4,949.6,276.9,949.6z"/>
		</g>
		<g>
			<path d="M420.3,1033.8c-10.8,0-21-3-29.9-9c-14.1-9.4-22.8-25.4-22.8-41.7c0-14.1,5.2-27.5,14.4-36.6
				c7.8-7.8,17.9-11.9,29.1-11.9c0.1,0,0.1,0,0.2,0c21,0.1,32.5,14.3,34.3,27.5c1.7,12.1-4.5,26.5-22,31.5c-1.9,0.5-3.8-0.6-4.3-2.4
				c-0.5-1.9,0.6-3.8,2.4-4.3c14.4-4.1,18.2-15.4,17-23.8c-1.4-10.3-10.6-21.4-27.4-21.5h-0.1c-9.3,0-17.7,3.4-24.2,9.9
				c-7.8,7.8-12.3,19.3-12.3,31.6c0,14,7.5,27.7,19.7,35.9c13.9,9.3,31.5,10.3,49.6,2.8c29.9-12.4,48.1-40.6,57.4-88.7
				c8.5-43.7,8.6-98.3,8.6-156.1c0-8.2,0-16.4,0.1-24.7c0-1.9,1.6-3.5,3.5-3.5l0,0c1.9,0,3.5,1.6,3.5,3.5c0,8.3,0,16.5-0.1,24.6
				c-0.1,58.2-0.1,113.1-8.8,157.5c-9.8,50.7-29.4,80.5-61.6,93.8C437.6,1032,428.7,1033.8,420.3,1033.8z"/>
		</g>
		<g>
			<path d="M225.9,814.5c-0.3,0-0.5,0-0.8,0c-67.2-0.2-111.6-22.5-124.9-62.9c-6.8-20.6-3.6-43,8.6-59.8c10.6-14.6,26.1-23,42.5-23
				c16,0,29.4,5,38.7,14.4c8.2,8.3,12.7,19.4,12.7,31.3c0,20-13.5,40.2-39.4,40.2c-1.9,0-3.5-1.6-3.5-3.5s1.6-3.5,3.5-3.5
				c22.3,0,32.4-17.2,32.4-33.2c0-10.1-3.8-19.4-10.7-26.4c-8-8.1-19.6-12.4-33.7-12.4c-14.2,0-27.6,7.3-36.8,20.1
				c-10.9,15.1-13.7,35.1-7.6,53.6c12.3,37.3,54.3,57.9,118.3,58.1c0.3,0,0.5,0,0.8,0c95.4,0,157.1-39.8,165.1-106.6
				c0.2-1.9,2-3.3,3.9-3.1s3.3,2,3.1,3.9c-4.4,36.8-24.3,66.6-57.5,86.1C310.9,805.3,271.3,814.5,225.9,814.5z"/>
		</g>
	</g>
</g>
<g id="Ship">
	<g>
		<g>
			<path fill="#FFFFFF" d="M736,654.8h-60.1h-9.6h-51.8H605h-3c-1.4-9.1-6.4-17-13.5-22.2H605h9.6h51.8h2.8c2,0,3.6-1.6,3.6-3.6
				s-1.6-3.6-3.6-3.6h-2.8h-51.8H605h-16.7v-7.3H605h9.6h35.6c2,0,3.6-1.6,3.6-3.6s-1.6-3.6-3.6-3.6h-35.6H605h-16.7v-7.3H605h9.6
				h15.6c2,0,3.6-1.6,3.6-3.6s-1.6-3.6-3.6-3.6h-15.6H605h-16.7V589H605h7.2c0.9,0,1.7-0.3,2.3-0.9c0.8-0.7,1.2-1.6,1.2-2.7
				c0-1.1-0.5-2-1.2-2.7c-0.6-0.6-1.4-0.9-2.3-0.9H605h-16.7v-7.3h14.1c1.1,0,2-0.5,2.6-1.2c0.6-0.6,0.9-1.5,0.9-2.4
				s-0.4-1.8-0.9-2.4c-0.7-0.7-1.6-1.2-2.6-1.2h-14.1V560h5.2c2,0,3.6-1.6,3.6-3.6s-1.6-3.6-3.6-3.6h-5.2v-16.7v-9.6v-81.4
				c3.9,18.3,8.8,37.2,14.3,54.2c0.8,2.3,1.6,4.7,2.4,7.2c2.7,7.8,6,16.2,9.6,23.2c2.4,4.8,5,9,7.6,12
				c11.1,12.6,27.6,27.5,44.2,41.6c3.2,2.7,6.4,5.4,9.6,8c23.6,19.5,45.5,35.9,50.4,39.5C729.7,637.4,734.2,647.8,736,654.8z"/>
		</g>
		<g>
			<polygon fill="#FFFFFF" points="724,681.6 725.8,690.6 619.1,694.7 612.7,695 602.4,695.4 602.4,681.6 			"/>
		</g>
		<g>
			<path fill="#FFFFFF" d="M666.4,303.4v267.2c-14.2-12.2-27.7-24.7-37.1-35.3c-4.3-4.8-9.4-15.5-14.7-30.5V362.6h6.6
				c2,0,3.6-1.6,3.6-3.6s-1.6-3.6-3.6-3.6h-6.6v-7.3h14.9c2,0,3.6-1.6,3.6-3.6s-1.6-3.6-3.6-3.6h-14.9v-7.3h24.1
				c2,0,3.6-1.6,3.6-3.6s-1.6-3.6-3.6-3.6h-24.1V319h31.6c2,0,3.6-1.6,3.6-3.6s-1.6-3.6-3.6-3.6h-31.6v-8.5h51.8V303.4z"/>
		</g>
		<g>
			<path fill="#FFFFFF" d="M665,244.1h-49c1.9-6,5.2-16.4,9-27.1c8.8-24.3,13.6-31.6,15.5-33.7c1.9,2.1,6.7,9.3,15.5,33.7
				C659.8,227.7,663.1,238.1,665,244.1z"/>
		</g>
		<g>
			<path fill="#FFFFFF" d="M605,247.3v226.5c-9.1-33.7-15.5-71-15.5-92.3c0-16.2-4.9-49.1-14.1-78c-11.7-37.2-26.1-56-42.6-56
				s-30.8,18.8-42.6,56c-9.1,29-14.1,61.8-14.1,78c0,22.7-6.8,59.6-15.5,91.9V247.3v-31.9H605V247.3z"/>
		</g>
		<g>
			<rect x="587.7" y="159.7" fill="#FFFFFF" width="17.3" height="48.5"/>
		</g>
		<g>
			<path fill="#FFFFFF" d="M605,149.3v3.2h-20.9h-25.7h-25.7h-25.6h-25.7h-20.9v-3.2c0-14.6,11.8-39.3,31.6-66.1
				c4.3-5.8,8.5-11,12.4-15.7h56c3.9,4.5,8.1,9.7,12.4,15.5C593.1,109.7,605,134.5,605,149.3z"/>
		</g>
		<g>
			<path fill="#FFFFFF" d="M594.6,705.3v4.8H580h-43.4v-2.6v-4.8v-4.8v-16.3v-0.9v-3.9V676v-3.9v-0.9v-6.3v-0.5v-4.3v-0.5v-4.3v-0.5
				v-19.1v-1.2h32.6c4.4,0,8.5,1.1,12.1,3.1c1.2,0.7,2.4,1.4,3.5,2.3c4.7,3.7,8,8.9,9.2,14.9c0,0.2,0.1,0.3,0.1,0.5
				c0.3,1.4,0.4,2.8,0.4,4.3c0,0.1,0,0.2,0,0.2v0.3v4.3v0.5v6.3v0.9v3.9v0.9v3.9v0.9v14.1v4.8v4.7L594.6,705.3L594.6,705.3z"/>
		</g>
		<g>
			<path fill="#FFFFFF" d="M581.1,614.5v14c-3.8-1.5-8-2.4-12.4-2.4h-72.4c-4.2,0-8.2,0.8-11.9,2.2V571v-14.5v-20.3v-9.6V401.8
				c0.8-7.5,1.3-14.4,1.3-20.3c0-17.9,5.4-49.8,14.2-76.9c2-0.7,6-1.7,12.8-2.5c5-0.6,11.6-1,20-1c8.5,0,15,0.4,20.1,1
				c6.9,0.8,10.9,1.8,12.9,2.5c8.8,27.1,14.2,59,14.2,76.9c0,5.7,0.4,12.4,1.2,19.7v125.3v9.6v20.3v14.5v14.5V600V614.5z
				 M547.9,336.2l8.2-13.2l-23.1-5.2l-23.6,5.2l8.2,13.3h30.3V336.2z M546.8,362.5v-4.6c0-1.3-1.1-2.4-2.4-2.4h-6.8
				c-1.3,0-2.4,1.1-2.4,2.4v4.6c0,1.3,1.1,2.4,2.4,2.4h6.8C545.8,364.9,546.8,363.8,546.8,362.5z M530.3,362.5v-4.6
				c0-1.3-1.1-2.4-2.4-2.4h-6.8c-1.3,0-2.4,1.1-2.4,2.4v4.6c0,1.3,1.1,2.4,2.4,2.4h6.8C529.2,364.9,530.3,363.8,530.3,362.5z"/>
		</g>
		<g>
			<rect x="562.1" y="159.7" fill="#FFFFFF" width="18.5" height="48.5"/>
		</g>
		<g>
			<polygon fill="#FFFFFF" points="578.4,717.3 578.4,746.2 486.7,746.2 486.7,717.3 529.5,717.3 536.6,717.3 			"/>
		</g>
		<g>
			<polygon points="556.2,323 547.9,336.2 517.7,336.2 509.4,323 533.1,317.7 			"/>
		</g>
		<g>
			<path fill="#FFFFFF" d="M555.6,279.3h-45.5c6.7-13.3,14.5-22.2,22.7-22.2C541.1,257,548.8,266,555.6,279.3z"/>
		</g>
		<g>
			<rect x="536.4" y="159.7" fill="#FFFFFF" width="18.5" height="48.5"/>
		</g>
		<g>
			<path d="M546.8,357.9v4.6c0,1.3-1.1,2.4-2.4,2.4h-6.8c-1.3,0-2.4-1.1-2.4-2.4v-4.6c0-1.3,1.1-2.4,2.4-2.4h6.8
				C545.8,355.5,546.8,356.6,546.8,357.9z"/>
		</g>
		<g>
			<path d="M530.3,357.9v4.6c0,1.3-1.1,2.4-2.4,2.4h-6.8c-1.3,0-2.4-1.1-2.4-2.4v-4.6c0-1.3,1.1-2.4,2.4-2.4h6.8
				C529.2,355.5,530.3,356.6,530.3,357.9z"/>
		</g>
		<g>
			<path fill="#FFFFFF" d="M529.5,672.1v1.6c0,0.2,0,0.4,0,0.6v1.7v0.9v3.9v0.9V698v4.8v4.8v2.6h-44.3h-13.6v-4.8v-4.8v-4.8v-14.1
				v-0.9v-3.9V676v-3.9v-0.9v-6.3v-0.5v-4.3v-0.3c0-0.1,0-0.2,0-0.2c0-1.5,0.2-2.9,0.4-4.3c0-0.2,0-0.3,0.1-0.5
				c0.9-4.7,3.2-8.8,6.3-12.2c1.8-1.9,3.9-3.6,6.2-4.9c3.7-2.1,7.9-3.3,12.4-3.3h32.6v1.2v19.1v0.5v4.3v0.5v4.3v0.5v6.3v1
				L529.5,672.1L529.5,672.1z"/>
		</g>
		<g>
			<rect x="510.7" y="159.7" fill="#FFFFFF" width="18.5" height="48.5"/>
		</g>
		<g>
			<rect x="485.1" y="159.7" fill="#FFFFFF" width="18.5" height="48.5"/>
		</g>
		<g>
			<rect x="460.6" y="159.7" fill="#FFFFFF" width="17.3" height="48.5"/>
		</g>
		<g>
			<path fill="#FFFFFF" d="M477.3,618.1v7.3h-16.7H451h-51.8h-2.8c-2,0-3.6,1.6-3.6,3.6s1.6,3.6,3.6,3.6h2.8H451h9.6h15.9
				c-7.1,5.2-12.1,13.1-13.5,22.2h-2.4H451h-51.8h-9.6h-60.1c1.8-7,6.3-17.4,9.6-24c4.9-3.6,26.8-20,50.4-39.5
				c3.2-2.6,6.4-5.3,9.6-8c16.6-14.1,33.1-29,44.2-41.6c2.5-2.8,5-6.9,7.6-12c3.2-6.3,6.4-14.3,9.6-23.2
				c6.3-17.9,12.2-39.8,16.7-61.1v81.2v9.6v16.7H472c-2,0-3.6,1.6-3.6,3.6s1.6,3.6,3.6,3.6h5.2v7.3h-14.1c-1,0-1.9,0.4-2.6,1.1
				c-0.6,0.6-1,1.5-1,2.5s0.4,1.8,1,2.5c0.7,0.7,1.6,1.1,2.6,1.1h14.1v7.3h-16.7h-7.3c-0.9,0-1.7,0.3-2.3,0.8
				c-0.8,0.7-1.3,1.6-1.3,2.8c0,1.1,0.5,2.1,1.3,2.8c0.6,0.5,1.4,0.8,2.3,0.8h7.3h16.7v7.3h-16.7h-9.6h-15.7c-2,0-3.6,1.6-3.6,3.6
				s1.6,3.6,3.6,3.6h15.7h9.6h16.7v7.3h-16.7h-9.6h-35.7c-2,0-3.6,1.6-3.6,3.6s1.6,3.6,3.6,3.6h35.7h9.6L477.3,618.1L477.3,618.1z"
				/>
		</g>
		<g>
			<polygon fill="#FFFFFF" points="462.6,681.6 462.6,695.4 448.3,694.8 442.2,694.6 339.3,690.6 341.1,681.6 			"/>
		</g>
		<g>
			<path fill="#FFFFFF" d="M451.1,362.6v142c-5.1,14.5-10.3,25.7-14.7,30.7c-9.4,10.6-22.9,23.1-37.1,35.3V303.4h51.8v8.5h-31.6
				c-2,0-3.6,1.6-3.6,3.6s1.6,3.6,3.6,3.6h31.6v7.4H427c-2,0-3.6,1.6-3.6,3.6s1.6,3.6,3.6,3.6h24.1v7.3h-14.9c-2,0-3.6,1.6-3.6,3.6
				s1.6,3.6,3.6,3.6h14.9v7.3h-6.6c-2,0-3.6,1.6-3.6,3.6s1.6,3.6,3.6,3.6h6.6V362.6z"/>
		</g>
		<g>
			<rect x="510.7" y="159.7" fill="none" width="18.5" height="48.5"/>
		</g>
		<g>
			<rect x="536.4" y="159.7" fill="none" width="18.5" height="48.5"/>
		</g>
		<g>
			<path fill="none" d="M490.2,303.5c11.7-37.2,26.1-56,42.6-56s30.8,18.8,42.6,56c9.1,29,14.1,61.8,14.1,78
				c0,21.2,6.4,58.5,15.5,92.3V247.3v-31.9H460.6v31.9v226.1c8.7-32.3,15.5-69.2,15.5-91.9C476.2,365.3,481.1,332.4,490.2,303.5z"/>
		</g>
		<g>
			<rect x="587.7" y="159.7" fill="none" width="17.3" height="48.5"/>
		</g>
		<g>
			<rect x="485.1" y="159.7" fill="none" width="18.5" height="48.5"/>
		</g>
		<g>
			<rect x="460.6" y="159.7" fill="none" width="17.3" height="48.5"/>
		</g>
		<g>
			<path fill="none" d="M666.4,570.6V303.4h-51.8v8.5h31.6c2,0,3.6,1.6,3.6,3.6s-1.6,3.6-3.6,3.6h-31.6v7.4h24.1
				c2,0,3.6,1.6,3.6,3.6s-1.6,3.6-3.6,3.6h-24.1v7.3h14.9c2,0,3.6,1.6,3.6,3.6s-1.6,3.6-3.6,3.6h-14.9v7.3h6.6c2,0,3.6,1.6,3.6,3.6
				s-1.6,3.6-3.6,3.6h-6.6V505c5.3,15,10.5,25.7,14.7,30.5C638.7,545.9,652.2,558.4,666.4,570.6z"/>
		</g>
		<g>
			<path fill="none" d="M507.2,152.5h25.6h25.7h25.7H605v-3.2c0-14.8-11.9-39.6-31.9-66.4c-4.3-5.8-8.5-10.9-12.4-15.5h-56
				c-3.9,4.6-8.1,9.9-12.4,15.7c-19.8,26.8-31.6,51.5-31.6,66.1v3.2h20.9h25.6L507.2,152.5L507.2,152.5z"/>
		</g>
		<g>
			<path fill="none" d="M656,217.1c-8.8-24.3-13.6-31.6-15.5-33.7c-1.9,2.1-6.7,9.3-15.5,33.7c-3.8,10.7-7.2,21.1-9,27.1h49
				C663.1,238.1,659.8,227.7,656,217.1z"/>
		</g>
		<g>
			<rect x="562.1" y="159.7" fill="none" width="18.5" height="48.5"/>
		</g>
		<g>
			<path fill="none" d="M529.4,707.5v-4.8V698v-16.3v-0.9v-3.9V676v-1.7c0-0.2,0-0.4,0-0.6v-1.6v-0.9v-6.3v-0.5v-4.3v-0.5v-4.3v-0.5
				v-19.1v-1.2h-32.6c-4.5,0-8.7,1.2-12.4,3.3c-2.3,1.3-4.4,3-6.2,4.9c-3.1,3.3-5.4,7.5-6.3,12.2c0,0.2,0,0.3-0.1,0.5
				c-0.3,1.4-0.4,2.8-0.4,4.3c0,0.1,0,0.2,0,0.2v0.3v4.3v0.5v6.3v0.9v3.9v0.9v3.9v0.9v14.1v4.8v4.8v4.8H485h44.3v-2.8L529.4,707.5
				L529.4,707.5z"/>
		</g>
		<g>
			<polygon fill="none" points="602.4,681.6 602.4,695.4 612.7,695 619.1,694.7 725.8,690.6 724,681.6 			"/>
		</g>
		<g>
			<path fill="none" d="M594.1,655.3c0-0.2,0-0.3-0.1-0.5c-1.2-6-4.6-11.3-9.2-14.9c-1.1-0.8-2.2-1.6-3.5-2.3
				c-3.6-2-7.7-3.1-12.1-3.1h-32.6v1.2v19.1v0.5v4.3v0.5v4.3v0.5v6.3v0.9v3.9v0.9v3.9v0.9V698v4.8v4.8v2.6H580h14.6v-4.8v-4.8v-4.8
				v-14.1v-0.9v-3.9V676v-3.9v-0.9v-6.3v-0.5v-4.3v-0.3c0-0.1,0-0.2,0-0.2C594.5,658.1,594.4,656.7,594.1,655.3z"/>
		</g>
		<g>
			<path fill="none" d="M532.8,257c-8.3,0-16,8.9-22.7,22.2h45.5C548.8,266,541.1,257,532.8,257z"/>
		</g>
		<g>
			<path fill="none" d="M675.9,591.2c-3.2-2.6-6.4-5.3-9.6-8c-16.6-14.1-33.1-29-44.2-41.6c-2.6-2.9-5.2-7.1-7.6-12
				c-3.6-7-6.8-15.4-9.6-23.2c-0.9-2.5-1.7-4.9-2.4-7.2c-5.5-16.9-10.5-35.9-14.3-54.2v81.4v9.6v16.7h5.2c2,0,3.6,1.6,3.6,3.6
				s-1.6,3.6-3.6,3.6h-5.2v7.3h14.1c1.1,0,2,0.5,2.6,1.2c0.6,0.6,0.9,1.5,0.9,2.4s-0.4,1.8-0.9,2.4c-0.7,0.7-1.6,1.2-2.6,1.2h-14.1
				v7.3H605h7.2c0.9,0,1.7,0.3,2.3,0.9c0.8,0.7,1.2,1.6,1.2,2.7c0,1.1-0.5,2-1.2,2.7c-0.6,0.6-1.4,0.9-2.3,0.9H605h-16.7v7.3H605
				h9.6h15.6c2,0,3.6,1.6,3.6,3.6s-1.6,3.6-3.6,3.6h-15.6H605h-16.7v7.3H605h9.6h35.6c2,0,3.6,1.6,3.6,3.6s-1.6,3.6-3.6,3.6h-35.6
				H605h-16.7v7.3H605h9.6h51.8h2.8c2,0,3.6,1.6,3.6,3.6s-1.6,3.6-3.6,3.6h-2.8h-51.8H605h-16.4c7.1,5.2,12.1,13.1,13.5,22.2h3h9.6
				h51.8h9.6H736c-1.8-7-6.3-17.4-9.6-24C721.5,627.1,699.6,610.7,675.9,591.2z"/>
		</g>
		<g>
			<polygon fill="none" points="529.5,717.3 486.7,717.3 486.7,746.2 578.4,746.2 578.4,717.3 536.6,717.3 			"/>
		</g>
		<g>
			<path fill="none" d="M476.5,632.6h-15.9H451h-51.8h-2.8c-2,0-3.6-1.6-3.6-3.6s1.6-3.6,3.6-3.6h2.8H451h9.6h16.7v-7.3h-16.7H451
				h-35.7c-2,0-3.6-1.6-3.6-3.6s1.6-3.6,3.6-3.6H451h9.6h16.7v-7.3h-16.7H451h-15.7c-2,0-3.6-1.6-3.6-3.6s1.6-3.6,3.6-3.6H451h9.6
				h16.7V589h-16.7h-7.3c-0.9,0-1.7-0.3-2.3-0.8c-0.8-0.7-1.3-1.6-1.3-2.8s0.5-2.1,1.3-2.8c0.6-0.5,1.4-0.8,2.3-0.8h7.3h16.7v-7.3
				h-14.1c-1,0-1.9-0.4-2.6-1.1c-0.6-0.6-1-1.5-1-2.5s0.4-1.8,1-2.5c0.7-0.7,1.6-1.1,2.6-1.1h14.1V560H472c-2,0-3.6-1.6-3.6-3.6
				s1.6-3.6,3.6-3.6h5.2v-16.7v-9.6v-81.2c-4.5,21.3-10.4,43.2-16.7,61.1c-3.1,8.9-6.4,16.9-9.6,23.2c-2.6,5.1-5.1,9.2-7.6,12
				c-11.2,12.6-27.6,27.5-44.2,41.6c-3.2,2.7-6.4,5.4-9.6,8c-23.6,19.5-45.5,35.9-50.4,39.5c-3.3,6.6-7.9,17-9.6,24h60.1h9.6H451
				h9.6h2.4C464.4,645.7,469.4,637.8,476.5,632.6z"/>
		</g>
		<g>
			<path fill="none" d="M436.3,535.3c4.5-5,9.6-16.3,14.7-30.7v-142h-6.6c-2,0-3.6-1.6-3.6-3.6s1.6-3.6,3.6-3.6h6.6v-7.3h-14.9
				c-2,0-3.6-1.6-3.6-3.6s1.6-3.6,3.6-3.6H451v-7.3h-24c-2,0-3.6-1.6-3.6-3.6s1.6-3.6,3.6-3.6h24.1V319h-31.6c-2,0-3.6-1.6-3.6-3.6
				s1.6-3.6,3.6-3.6h31.6v-8.5h-51.8v267.2C413.4,558.4,426.9,545.9,436.3,535.3z"/>
		</g>
		<g>
			<path fill="none" d="M485.7,381.5c0,5.9-0.4,12.7-1.3,20.3v124.7v9.6v20.3v14.5v57.3c3.7-1.4,7.7-2.2,11.9-2.2h72.4
				c4.4,0,8.6,0.8,12.4,2.4v-14V600v-14.5V571v-14.5v-20.3v-9.6V401.3c-0.8-7.4-1.2-14.1-1.2-19.7c0-17.9-5.4-49.8-14.2-76.9
				c-2-0.7-6-1.7-12.9-2.5c-5-0.6-11.6-1-20.1-1s-15,0.4-20,1c-6.8,0.8-10.8,1.8-12.8,2.5C491.1,331.7,485.7,363.7,485.7,381.5z"/>
		</g>
		<g>
			<path fill="none" d="M440.7,217.1c-8.8-24.3-13.6-31.6-15.5-33.7c-1.9,2.1-6.7,9.4-15.5,33.7c-3.8,10.6-7.2,21.1-9,27h49
				C447.8,238.1,444.5,227.7,440.7,217.1z"/>
		</g>
		<g>
			<polygon fill="none" points="339.3,690.6 442.2,694.6 448.3,694.8 462.6,695.4 462.6,681.6 341.1,681.6 			"/>
		</g>
		<g>
			<rect x="485.1" y="159.7" fill="none" width="18.5" height="48.5"/>
		</g>
		<g>
			<rect x="510.7" y="159.7" fill="none" width="18.5" height="48.5"/>
		</g>
		<g>
			<rect x="562.1" y="159.7" fill="none" width="18.5" height="48.5"/>
		</g>
		<g>
			<rect x="536.4" y="159.7" fill="none" width="18.5" height="48.5"/>
		</g>
		<g>
			<rect x="460.6" y="159.7" fill="none" width="17.3" height="48.5"/>
		</g>
		<g>
			<path fill="none" d="M656,217.1c-8.8-24.3-13.6-31.6-15.5-33.7c-1.9,2.1-6.7,9.3-15.5,33.7c-3.8,10.7-7.2,21.1-9,27.1h49
				C663.1,238.1,659.8,227.7,656,217.1z"/>
		</g>
		<g>
			<rect x="587.7" y="159.7" fill="none" width="17.3" height="48.5"/>
		</g>
		<g>
			<path fill="none" d="M666.4,570.6V303.4h-51.8v8.5h31.6c2,0,3.6,1.6,3.6,3.6s-1.6,3.6-3.6,3.6h-31.6v7.4h24.1
				c2,0,3.6,1.6,3.6,3.6s-1.6,3.6-3.6,3.6h-24.1v7.3h14.9c2,0,3.6,1.6,3.6,3.6s-1.6,3.6-3.6,3.6h-14.9v7.3h6.6c2,0,3.6,1.6,3.6,3.6
				s-1.6,3.6-3.6,3.6h-6.6V505c5.3,15,10.5,25.7,14.7,30.5C638.7,545.9,652.2,558.4,666.4,570.6z"/>
		</g>
		<g>
			<path fill="none" d="M507.2,152.5h25.6h25.7h25.7H605v-3.2c0-14.8-11.9-39.6-31.9-66.4c-4.3-5.8-8.5-10.9-12.4-15.5h-56
				c-3.9,4.6-8.1,9.9-12.4,15.7c-19.8,26.8-31.6,51.5-31.6,66.1v3.2h20.9h25.6L507.2,152.5L507.2,152.5z"/>
		</g>
		<g>
			<path fill="none" d="M532.8,257c-8.3,0-16,8.9-22.7,22.2h45.5C548.8,266,541.1,257,532.8,257z"/>
		</g>
		<g>
			<path fill="none" d="M490.2,303.5c11.7-37.2,26.1-56,42.6-56s30.8,18.8,42.6,56c9.1,29,14.1,61.8,14.1,78
				c0,21.2,6.4,58.5,15.5,92.3V247.3v-31.9H460.6v31.9v226.1c8.7-32.3,15.5-69.2,15.5-91.9C476.2,365.3,481.1,332.4,490.2,303.5z"/>
		</g>
		<g>
			<polygon fill="none" points="602.4,681.6 602.4,695.4 612.7,695 619.1,694.7 725.8,690.6 724,681.6 			"/>
		</g>
		<g>
			<polygon fill="none" points="529.5,717.3 486.7,717.3 486.7,746.2 578.4,746.2 578.4,717.3 536.6,717.3 			"/>
		</g>
		<g>
			<path fill="none" d="M594.1,655.3c0-0.2,0-0.3-0.1-0.5c-1.2-6-4.6-11.3-9.2-14.9c-1.1-0.8-2.2-1.6-3.5-2.3
				c-3.6-2-7.7-3.1-12.1-3.1h-32.6v1.2v19.1v0.5v4.3v0.5v4.3v0.5v6.3v0.9v3.9v0.9v3.9v0.9V698v4.8v4.8v2.6H580h14.6v-4.8v-4.8v-4.8
				v-14.1v-0.9v-3.9V676v-3.9v-0.9v-6.3v-0.5v-4.3v-0.3c0-0.1,0-0.2,0-0.2C594.5,658.1,594.4,656.7,594.1,655.3z"/>
		</g>
		<g>
			<path fill="none" d="M675.9,591.2c-3.2-2.6-6.4-5.3-9.6-8c-16.6-14.1-33.1-29-44.2-41.6c-2.6-2.9-5.2-7.1-7.6-12
				c-3.6-7-6.8-15.4-9.6-23.2c-0.9-2.5-1.7-4.9-2.4-7.2c-5.5-16.9-10.5-35.9-14.3-54.2v81.4v9.6v16.7h5.2c2,0,3.6,1.6,3.6,3.6
				s-1.6,3.6-3.6,3.6h-5.2v7.3h14.1c1.1,0,2,0.5,2.6,1.2c0.6,0.6,0.9,1.5,0.9,2.4s-0.4,1.8-0.9,2.4c-0.7,0.7-1.6,1.2-2.6,1.2h-14.1
				v7.3H605h7.2c0.9,0,1.7,0.3,2.3,0.9c0.8,0.7,1.2,1.6,1.2,2.7c0,1.1-0.5,2-1.2,2.7c-0.6,0.6-1.4,0.9-2.3,0.9H605h-16.7v7.3H605
				h9.6h15.6c2,0,3.6,1.6,3.6,3.6s-1.6,3.6-3.6,3.6h-15.6H605h-16.7v7.3H605h9.6h35.6c2,0,3.6,1.6,3.6,3.6s-1.6,3.6-3.6,3.6h-35.6
				H605h-16.7v7.3H605h9.6h51.8h2.8c2,0,3.6,1.6,3.6,3.6s-1.6,3.6-3.6,3.6h-2.8h-51.8H605h-16.4c7.1,5.2,12.1,13.1,13.5,22.2h3h9.6
				h51.8h9.6H736c-1.8-7-6.3-17.4-9.6-24C721.5,627.1,699.6,610.7,675.9,591.2z"/>
		</g>
		<g>
			<path fill="none" d="M485.7,381.5c0,5.9-0.4,12.7-1.3,20.3v124.7v9.6v20.3v14.5v57.3c3.7-1.4,7.7-2.2,11.9-2.2h72.4
				c4.4,0,8.6,0.8,12.4,2.4v-14V600v-14.5V571v-14.5v-20.3v-9.6V401.3c-0.8-7.4-1.2-14.1-1.2-19.7c0-17.9-5.4-49.8-14.2-76.9
				c-2-0.7-6-1.7-12.9-2.5c-5-0.6-11.6-1-20.1-1s-15,0.4-20,1c-6.8,0.8-10.8,1.8-12.8,2.5C491.1,331.7,485.7,363.7,485.7,381.5z"/>
		</g>
		<g>
			<path fill="none" d="M529.4,707.5v-4.8V698v-16.3v-0.9v-3.9V676v-1.7c0-0.2,0-0.4,0-0.6v-1.6v-0.9v-6.3v-0.5v-4.3v-0.5v-4.3v-0.5
				v-19.1v-1.2h-32.6c-4.5,0-8.7,1.2-12.4,3.3c-2.3,1.3-4.4,3-6.2,4.9c-3.1,3.3-5.4,7.5-6.3,12.2c0,0.2,0,0.3-0.1,0.5
				c-0.3,1.4-0.4,2.8-0.4,4.3c0,0.1,0,0.2,0,0.2v0.3v4.3v0.5v6.3v0.9v3.9v0.9v3.9v0.9v14.1v4.8v4.8v4.8H485h44.3v-2.8L529.4,707.5
				L529.4,707.5z"/>
		</g>
		<g>
			<path fill="none" d="M436.3,535.3c4.5-5,9.6-16.3,14.7-30.7v-142h-6.6c-2,0-3.6-1.6-3.6-3.6s1.6-3.6,3.6-3.6h6.6v-7.3h-14.9
				c-2,0-3.6-1.6-3.6-3.6s1.6-3.6,3.6-3.6H451v-7.3h-24c-2,0-3.6-1.6-3.6-3.6s1.6-3.6,3.6-3.6h24.1V319h-31.6c-2,0-3.6-1.6-3.6-3.6
				s1.6-3.6,3.6-3.6h31.6v-8.5h-51.8v267.2C413.4,558.4,426.9,545.9,436.3,535.3z"/>
		</g>
		<g>
			<polygon fill="none" points="339.3,690.6 442.2,694.6 448.3,694.8 462.6,695.4 462.6,681.6 341.1,681.6 			"/>
		</g>
		<g>
			<path fill="none" d="M440.7,217.1c-8.8-24.3-13.6-31.6-15.5-33.7c-1.9,2.1-6.7,9.4-15.5,33.7c-3.8,10.6-7.2,21.1-9,27h49
				C447.8,238.1,444.5,227.7,440.7,217.1z"/>
		</g>
		<g>
			<path fill="none" d="M476.5,632.6h-15.9H451h-51.8h-2.8c-2,0-3.6-1.6-3.6-3.6s1.6-3.6,3.6-3.6h2.8H451h9.6h16.7v-7.3h-16.7H451
				h-35.7c-2,0-3.6-1.6-3.6-3.6s1.6-3.6,3.6-3.6H451h9.6h16.7v-7.3h-16.7H451h-15.7c-2,0-3.6-1.6-3.6-3.6s1.6-3.6,3.6-3.6H451h9.6
				h16.7V589h-16.7h-7.3c-0.9,0-1.7-0.3-2.3-0.8c-0.8-0.7-1.3-1.6-1.3-2.8s0.5-2.1,1.3-2.8c0.6-0.5,1.4-0.8,2.3-0.8h7.3h16.7v-7.3
				h-14.1c-1,0-1.9-0.4-2.6-1.1c-0.6-0.6-1-1.5-1-2.5s0.4-1.8,1-2.5c0.7-0.7,1.6-1.1,2.6-1.1h14.1V560H472c-2,0-3.6-1.6-3.6-3.6
				s1.6-3.6,3.6-3.6h5.2v-16.7v-9.6v-81.2c-4.5,21.3-10.4,43.2-16.7,61.1c-3.1,8.9-6.4,16.9-9.6,23.2c-2.6,5.1-5.1,9.2-7.6,12
				c-11.2,12.6-27.6,27.5-44.2,41.6c-3.2,2.7-6.4,5.4-9.6,8c-23.6,19.5-45.5,35.9-50.4,39.5c-3.3,6.6-7.9,17-9.6,24h60.1h9.6H451
				h9.6h2.4C464.4,645.7,469.4,637.8,476.5,632.6z"/>
		</g>
		<g>
			<rect x="485.1" y="159.7" fill="none" width="18.5" height="48.5"/>
		</g>
		<g>
			<path fill="none" d="M502.7,296.5L502.7,296.5c0.3,0,0.6-0.1,0.9-0.2C503.3,296.4,503,296.4,502.7,296.5z"/>
		</g>
		<g>
			<rect x="460.6" y="159.7" fill="none" width="17.3" height="48.5"/>
		</g>
		<g>
			<rect x="536.4" y="159.7" fill="none" width="18.5" height="48.5"/>
		</g>
		<g>
			<path fill="none" d="M490.2,303.5c11.7-37.2,26.1-56,42.6-56s30.8,18.8,42.6,56c9.1,29,14.1,61.8,14.1,78
				c0,21.2,6.4,58.5,15.5,92.3V247.3v-31.9H460.6v31.9v226.1c8.7-32.3,15.5-69.2,15.5-91.9C476.2,365.3,481.1,332.4,490.2,303.5z"/>
		</g>
		<g>
			<path fill="none" d="M562.9,296.5L562.9,296.5c-0.3-0.1-0.5-0.1-0.8-0.2C562.4,296.4,562.6,296.4,562.9,296.5z"/>
		</g>
		<g>
			<path fill="none" d="M532.8,257c-8.3,0-16,8.9-22.7,22.2h45.5C548.8,266,541.1,257,532.8,257z"/>
		</g>
		<g>
			<rect x="510.7" y="159.7" fill="none" width="18.5" height="48.5"/>
		</g>
		<g>
			<path fill="none" d="M666.4,570.6V303.4h-51.8v8.5h31.6c2,0,3.6,1.6,3.6,3.6s-1.6,3.6-3.6,3.6h-31.6v7.4h24.1
				c2,0,3.6,1.6,3.6,3.6s-1.6,3.6-3.6,3.6h-24.1v7.3h14.9c2,0,3.6,1.6,3.6,3.6s-1.6,3.6-3.6,3.6h-14.9v7.3h6.6c2,0,3.6,1.6,3.6,3.6
				s-1.6,3.6-3.6,3.6h-6.6V505c5.3,15,10.5,25.7,14.7,30.5C638.7,545.9,652.2,558.4,666.4,570.6z"/>
		</g>
		<g>
			<rect x="562.1" y="159.7" fill="none" width="18.5" height="48.5"/>
		</g>
		<g>
			<path fill="none" d="M656,217.1c-8.8-24.3-13.6-31.6-15.5-33.7c-1.9,2.1-6.7,9.3-15.5,33.7c-3.8,10.7-7.2,21.1-9,27.1h49
				C663.1,238.1,659.8,227.7,656,217.1z"/>
		</g>
		<g>
			<rect x="587.7" y="159.7" fill="none" width="17.3" height="48.5"/>
		</g>
		<g>
			<path fill="none" d="M507.2,152.5h25.6h25.7h25.7H605v-3.2c0-14.8-11.9-39.6-31.9-66.4c-4.3-5.8-8.5-10.9-12.4-15.5h-56
				c-3.9,4.6-8.1,9.9-12.4,15.7c-19.8,26.8-31.6,51.5-31.6,66.1v3.2h20.9h25.6L507.2,152.5L507.2,152.5z"/>
		</g>
		<g>
			<polygon fill="none" points="602.4,681.6 602.4,695.4 612.7,695 619.1,694.7 725.8,690.6 724,681.6 			"/>
		</g>
		<g>
			<polygon fill="none" points="529.5,717.3 486.7,717.3 486.7,746.2 578.4,746.2 578.4,717.3 536.6,717.3 			"/>
		</g>
		<g>
			<path fill="none" d="M594.1,655.3c0-0.2,0-0.3-0.1-0.5c-1.2-6-4.6-11.3-9.2-14.9c-1.1-0.8-2.2-1.6-3.5-2.3
				c-3.6-2-7.7-3.1-12.1-3.1h-32.6v1.2v19.1v0.5v4.3v0.5v4.3v0.5v6.3v0.9v3.9v0.9v3.9v0.9V698v4.8v4.8v2.6H580h14.6v-4.8v-4.8v-4.8
				v-14.1v-0.9v-3.9V676v-3.9v-0.9v-6.3v-0.5v-4.3v-0.3c0-0.1,0-0.2,0-0.2C594.5,658.1,594.4,656.7,594.1,655.3z"/>
		</g>
		<g>
			<path fill="none" d="M675.9,591.2c-3.2-2.6-6.4-5.3-9.6-8c-16.6-14.1-33.1-29-44.2-41.6c-2.6-2.9-5.2-7.1-7.6-12
				c-3.6-7-6.8-15.4-9.6-23.2c-0.9-2.5-1.7-4.9-2.4-7.2c-5.5-16.9-10.5-35.9-14.3-54.2v81.4v9.6v16.7h5.2c2,0,3.6,1.6,3.6,3.6
				s-1.6,3.6-3.6,3.6h-5.2v7.3h14.1c1.1,0,2,0.5,2.6,1.2c0.6,0.6,0.9,1.5,0.9,2.4s-0.4,1.8-0.9,2.4c-0.7,0.7-1.6,1.2-2.6,1.2h-14.1
				v7.3H605h7.2c0.9,0,1.7,0.3,2.3,0.9c0.8,0.7,1.2,1.6,1.2,2.7c0,1.1-0.5,2-1.2,2.7c-0.6,0.6-1.4,0.9-2.3,0.9H605h-16.7v7.3H605
				h9.6h15.6c2,0,3.6,1.6,3.6,3.6s-1.6,3.6-3.6,3.6h-15.6H605h-16.7v7.3H605h9.6h35.6c2,0,3.6,1.6,3.6,3.6s-1.6,3.6-3.6,3.6h-35.6
				H605h-16.7v7.3H605h9.6h51.8h2.8c2,0,3.6,1.6,3.6,3.6s-1.6,3.6-3.6,3.6h-2.8h-51.8H605h-16.4c7.1,5.2,12.1,13.1,13.5,22.2h3h9.6
				h51.8h9.6H736c-1.8-7-6.3-17.4-9.6-24C721.5,627.1,699.6,610.7,675.9,591.2z"/>
		</g>
		<g>
			<path fill="none" d="M436.3,535.3c4.5-5,9.6-16.3,14.7-30.7v-142h-6.6c-2,0-3.6-1.6-3.6-3.6s1.6-3.6,3.6-3.6h6.6v-7.3h-14.9
				c-2,0-3.6-1.6-3.6-3.6s1.6-3.6,3.6-3.6H451v-7.3h-24c-2,0-3.6-1.6-3.6-3.6s1.6-3.6,3.6-3.6h24.1V319h-31.6c-2,0-3.6-1.6-3.6-3.6
				s1.6-3.6,3.6-3.6h31.6v-8.5h-51.8v267.2C413.4,558.4,426.9,545.9,436.3,535.3z"/>
		</g>
		<g>
			<path fill="none" d="M485.7,381.5c0,5.9-0.4,12.7-1.3,20.3v124.7v9.6v20.3v14.5v57.3c3.7-1.4,7.7-2.2,11.9-2.2h72.4
				c4.4,0,8.6,0.8,12.4,2.4v-14V600v-14.5V571v-14.5v-20.3v-9.6V401.3c-0.8-7.4-1.2-14.1-1.2-19.7c0-17.9-5.4-49.8-14.2-76.9
				c-2-0.7-6-1.7-12.9-2.5c-5-0.6-11.6-1-20.1-1s-15,0.4-20,1c-6.8,0.8-10.8,1.8-12.8,2.5C491.1,331.7,485.7,363.7,485.7,381.5z"/>
		</g>
		<g>
			<path fill="none" d="M440.7,217.1c-8.8-24.3-13.6-31.6-15.5-33.7c-1.9,2.1-6.7,9.4-15.5,33.7c-3.8,10.6-7.2,21.1-9,27h49
				C447.8,238.1,444.5,227.7,440.7,217.1z"/>
		</g>
		<g>
			<path fill="none" d="M529.4,707.5v-4.8V698v-16.3v-0.9v-3.9V676v-1.7c0-0.2,0-0.4,0-0.6v-1.6v-0.9v-6.3v-0.5v-4.3v-0.5v-4.3v-0.5
				v-19.1v-1.2h-32.6c-4.5,0-8.7,1.2-12.4,3.3c-2.3,1.3-4.4,3-6.2,4.9c-3.1,3.3-5.4,7.5-6.3,12.2c0,0.2,0,0.3-0.1,0.5
				c-0.3,1.4-0.4,2.8-0.4,4.3c0,0.1,0,0.2,0,0.2v0.3v4.3v0.5v6.3v0.9v3.9v0.9v3.9v0.9v14.1v4.8v4.8v4.8H485h44.3v-2.8L529.4,707.5
				L529.4,707.5z"/>
		</g>
		<g>
			<polygon fill="none" points="339.3,690.6 442.2,694.6 448.3,694.8 462.6,695.4 462.6,681.6 341.1,681.6 			"/>
		</g>
		<g>
			<path fill="none" d="M476.5,632.6h-15.9H451h-51.8h-2.8c-2,0-3.6-1.6-3.6-3.6s1.6-3.6,3.6-3.6h2.8H451h9.6h16.7v-7.3h-16.7H451
				h-35.7c-2,0-3.6-1.6-3.6-3.6s1.6-3.6,3.6-3.6H451h9.6h16.7v-7.3h-16.7H451h-15.7c-2,0-3.6-1.6-3.6-3.6s1.6-3.6,3.6-3.6H451h9.6
				h16.7V589h-16.7h-7.3c-0.9,0-1.7-0.3-2.3-0.8c-0.8-0.7-1.3-1.6-1.3-2.8s0.5-2.1,1.3-2.8c0.6-0.5,1.4-0.8,2.3-0.8h7.3h16.7v-7.3
				h-14.1c-1,0-1.9-0.4-2.6-1.1c-0.6-0.6-1-1.5-1-2.5s0.4-1.8,1-2.5c0.7-0.7,1.6-1.1,2.6-1.1h14.1V560H472c-2,0-3.6-1.6-3.6-3.6
				s1.6-3.6,3.6-3.6h5.2v-16.7v-9.6v-81.2c-4.5,21.3-10.4,43.2-16.7,61.1c-3.1,8.9-6.4,16.9-9.6,23.2c-2.6,5.1-5.1,9.2-7.6,12
				c-11.2,12.6-27.6,27.5-44.2,41.6c-3.2,2.7-6.4,5.4-9.6,8c-23.6,19.5-45.5,35.9-50.4,39.5c-3.3,6.6-7.9,17-9.6,24h60.1h9.6H451
				h9.6h2.4C464.4,645.7,469.4,637.8,476.5,632.6z"/>
		</g>
		<g>
			<rect x="485.1" y="159.7" fill="none" width="18.5" height="48.5"/>
		</g>
		<g>
			<rect x="460.6" y="159.7" fill="none" width="17.3" height="48.5"/>
		</g>
		<g>
			<rect x="510.7" y="159.7" fill="none" width="18.5" height="48.5"/>
		</g>
		<g>
			<path fill="none" d="M485.7,381.5c0,5.9-0.4,12.7-1.3,20.3v124.7v9.6v20.3v14.5v57.3c3.7-1.4,7.7-2.2,11.9-2.2h72.4
				c4.4,0,8.6,0.8,12.4,2.4v-14V600v-14.5V571v-14.5v-20.3v-9.6V401.3c-0.8-7.4-1.2-14.1-1.2-19.7c0-17.9-5.4-49.8-14.2-76.9
				c-2-0.7-6-1.7-12.9-2.5c-5-0.6-11.6-1-20.1-1s-15,0.4-20,1c-6.8,0.8-10.8,1.8-12.8,2.5C491.1,331.7,485.7,363.7,485.7,381.5z"/>
		</g>
		<g>
			<path fill="none" d="M490.2,303.5c11.7-37.2,26.1-56,42.6-56s30.8,18.8,42.6,56c9.1,29,14.1,61.8,14.1,78
				c0,21.2,6.4,58.5,15.5,92.3V247.3v-31.9H460.6v31.9v226.1c8.7-32.3,15.5-69.2,15.5-91.9C476.2,365.3,481.1,332.4,490.2,303.5z"/>
		</g>
		<g>
			<rect x="536.4" y="159.7" fill="none" width="18.5" height="48.5"/>
		</g>
		<g>
			<path fill="none" d="M507.2,152.5h25.6h25.7h25.7H605v-3.2c0-14.8-11.9-39.6-31.9-66.4c-4.3-5.8-8.5-10.9-12.4-15.5h-56
				c-3.9,4.6-8.1,9.9-12.4,15.7c-19.8,26.8-31.6,51.5-31.6,66.1v3.2h20.9h25.6L507.2,152.5L507.2,152.5z"/>
		</g>
		<g>
			<rect x="562.1" y="159.7" fill="none" width="18.5" height="48.5"/>
		</g>
		<g>
			<path fill="none" d="M666.4,570.6V303.4h-51.8v8.5h31.6c2,0,3.6,1.6,3.6,3.6s-1.6,3.6-3.6,3.6h-31.6v7.4h24.1
				c2,0,3.6,1.6,3.6,3.6s-1.6,3.6-3.6,3.6h-24.1v7.3h14.9c2,0,3.6,1.6,3.6,3.6s-1.6,3.6-3.6,3.6h-14.9v7.3h6.6c2,0,3.6,1.6,3.6,3.6
				s-1.6,3.6-3.6,3.6h-6.6V505c5.3,15,10.5,25.7,14.7,30.5C638.7,545.9,652.2,558.4,666.4,570.6z"/>
		</g>
		<g>
			<path fill="none" d="M532.8,257c-8.3,0-16,8.9-22.7,22.2h45.5C548.8,266,541.1,257,532.8,257z"/>
		</g>
		<g>
			<rect x="587.7" y="159.7" fill="none" width="17.3" height="48.5"/>
		</g>
		<g>
			<path fill="none" d="M656,217.1c-8.8-24.3-13.6-31.6-15.5-33.7c-1.9,2.1-6.7,9.3-15.5,33.7c-3.8,10.7-7.2,21.1-9,27.1h49
				C663.1,238.1,659.8,227.7,656,217.1z"/>
		</g>
		<g>
			<polygon fill="none" points="602.4,681.6 602.4,695.4 612.7,695 619.1,694.7 725.8,690.6 724,681.6 			"/>
		</g>
		<g>
			<path fill="none" d="M594.1,655.3c0-0.2,0-0.3-0.1-0.5c-1.2-6-4.6-11.3-9.2-14.9c-1.1-0.8-2.2-1.6-3.5-2.3
				c-3.6-2-7.7-3.1-12.1-3.1h-32.6v1.2v19.1v0.5v4.3v0.5v4.3v0.5v6.3v0.9v3.9v0.9v3.9v0.9V698v4.8v4.8v2.6H580h14.6v-4.8v-4.8v-4.8
				v-14.1v-0.9v-3.9V676v-3.9v-0.9v-6.3v-0.5v-4.3v-0.3c0-0.1,0-0.2,0-0.2C594.5,658.1,594.4,656.7,594.1,655.3z"/>
		</g>
		<g>
			<path fill="none" d="M675.9,591.2c-3.2-2.6-6.4-5.3-9.6-8c-16.6-14.1-33.1-29-44.2-41.6c-2.6-2.9-5.2-7.1-7.6-12
				c-3.6-7-6.8-15.4-9.6-23.2c-0.9-2.5-1.7-4.9-2.4-7.2c-5.5-16.9-10.5-35.9-14.3-54.2v81.4v9.6v16.7h5.2c2,0,3.6,1.6,3.6,3.6
				s-1.6,3.6-3.6,3.6h-5.2v7.3h14.1c1.1,0,2,0.5,2.6,1.2c0.6,0.6,0.9,1.5,0.9,2.4s-0.4,1.8-0.9,2.4c-0.7,0.7-1.6,1.2-2.6,1.2h-14.1
				v7.3H605h7.2c0.9,0,1.7,0.3,2.3,0.9c0.8,0.7,1.2,1.6,1.2,2.7c0,1.1-0.5,2-1.2,2.7c-0.6,0.6-1.4,0.9-2.3,0.9H605h-16.7v7.3H605
				h9.6h15.6c2,0,3.6,1.6,3.6,3.6s-1.6,3.6-3.6,3.6h-15.6H605h-16.7v7.3H605h9.6h35.6c2,0,3.6,1.6,3.6,3.6s-1.6,3.6-3.6,3.6h-35.6
				H605h-16.7v7.3H605h9.6h51.8h2.8c2,0,3.6,1.6,3.6,3.6s-1.6,3.6-3.6,3.6h-2.8h-51.8H605h-16.4c7.1,5.2,12.1,13.1,13.5,22.2h3h9.6
				h51.8h9.6H736c-1.8-7-6.3-17.4-9.6-24C721.5,627.1,699.6,610.7,675.9,591.2z"/>
		</g>
		<g>
			<path fill="none" d="M440.7,217.1c-8.8-24.3-13.6-31.6-15.5-33.7c-1.9,2.1-6.7,9.4-15.5,33.7c-3.8,10.6-7.2,21.1-9,27h49
				C447.8,238.1,444.5,227.7,440.7,217.1z"/>
		</g>
		<g>
			<polygon fill="none" points="529.5,717.3 486.7,717.3 486.7,746.2 578.4,746.2 578.4,717.3 536.6,717.3 			"/>
		</g>
		<g>
			<polygon fill="none" points="339.3,690.6 442.2,694.6 448.3,694.8 462.6,695.4 462.6,681.6 341.1,681.6 			"/>
		</g>
		<g>
			<path fill="none" d="M529.4,707.5v-4.8V698v-16.3v-0.9v-3.9V676v-1.7c0-0.2,0-0.4,0-0.6v-1.6v-0.9v-6.3v-0.5v-4.3v-0.5v-4.3v-0.5
				v-19.1v-1.2h-32.6c-4.5,0-8.7,1.2-12.4,3.3c-2.3,1.3-4.4,3-6.2,4.9c-3.1,3.3-5.4,7.5-6.3,12.2c0,0.2,0,0.3-0.1,0.5
				c-0.3,1.4-0.4,2.8-0.4,4.3c0,0.1,0,0.2,0,0.2v0.3v4.3v0.5v6.3v0.9v3.9v0.9v3.9v0.9v14.1v4.8v4.8v4.8H485h44.3v-2.8L529.4,707.5
				L529.4,707.5z"/>
		</g>
		<g>
			<path fill="none" d="M436.3,535.3c4.5-5,9.6-16.3,14.7-30.7v-142h-6.6c-2,0-3.6-1.6-3.6-3.6s1.6-3.6,3.6-3.6h6.6v-7.3h-14.9
				c-2,0-3.6-1.6-3.6-3.6s1.6-3.6,3.6-3.6H451v-7.3h-24c-2,0-3.6-1.6-3.6-3.6s1.6-3.6,3.6-3.6h24.1V319h-31.6c-2,0-3.6-1.6-3.6-3.6
				s1.6-3.6,3.6-3.6h31.6v-8.5h-51.8v267.2C413.4,558.4,426.9,545.9,436.3,535.3z"/>
		</g>
		<g>
			<path fill="none" d="M476.5,632.6h-15.9H451h-51.8h-2.8c-2,0-3.6-1.6-3.6-3.6s1.6-3.6,3.6-3.6h2.8H451h9.6h16.7v-7.3h-16.7H451
				h-35.7c-2,0-3.6-1.6-3.6-3.6s1.6-3.6,3.6-3.6H451h9.6h16.7v-7.3h-16.7H451h-15.7c-2,0-3.6-1.6-3.6-3.6s1.6-3.6,3.6-3.6H451h9.6
				h16.7V589h-16.7h-7.3c-0.9,0-1.7-0.3-2.3-0.8c-0.8-0.7-1.3-1.6-1.3-2.8s0.5-2.1,1.3-2.8c0.6-0.5,1.4-0.8,2.3-0.8h7.3h16.7v-7.3
				h-14.1c-1,0-1.9-0.4-2.6-1.1c-0.6-0.6-1-1.5-1-2.5s0.4-1.8,1-2.5c0.7-0.7,1.6-1.1,2.6-1.1h14.1V560H472c-2,0-3.6-1.6-3.6-3.6
				s1.6-3.6,3.6-3.6h5.2v-16.7v-9.6v-81.2c-4.5,21.3-10.4,43.2-16.7,61.1c-3.1,8.9-6.4,16.9-9.6,23.2c-2.6,5.1-5.1,9.2-7.6,12
				c-11.2,12.6-27.6,27.5-44.2,41.6c-3.2,2.7-6.4,5.4-9.6,8c-23.6,19.5-45.5,35.9-50.4,39.5c-3.3,6.6-7.9,17-9.6,24h60.1h9.6H451
				h9.6h2.4C464.4,645.7,469.4,637.8,476.5,632.6z"/>
		</g>
		<g>
			<rect x="485.1" y="159.7" fill="none" width="18.5" height="48.5"/>
		</g>
		<g>
			<rect x="510.7" y="159.7" fill="none" width="18.5" height="48.5"/>
		</g>
		<g>
			<rect x="536.4" y="159.7" fill="none" width="18.5" height="48.5"/>
		</g>
		<g>
			<rect x="562.1" y="159.7" fill="none" width="18.5" height="48.5"/>
		</g>
		<g>
			<path fill="none" d="M490.2,303.5c11.7-37.2,26.1-56,42.6-56s30.8,18.8,42.6,56c9.1,29,14.1,61.8,14.1,78
				c0,21.2,6.4,58.5,15.5,92.3V247.3v-31.9H460.6v31.9v226.1c8.7-32.3,15.5-69.2,15.5-91.9C476.2,365.3,481.1,332.4,490.2,303.5z"/>
		</g>
		<g>
			<rect x="460.6" y="159.7" fill="none" width="17.3" height="48.5"/>
		</g>
		<g>
			<rect x="587.7" y="159.7" fill="none" width="17.3" height="48.5"/>
		</g>
		<g>
			<path fill="none" d="M485.7,381.5c0,5.9-0.4,12.7-1.3,20.3v124.7v9.6v20.3v14.5v57.3c3.7-1.4,7.7-2.2,11.9-2.2h72.4
				c4.4,0,8.6,0.8,12.4,2.4v-14V600v-14.5V571v-14.5v-20.3v-9.6V401.3c-0.8-7.4-1.2-14.1-1.2-19.7c0-17.9-5.4-49.8-14.2-76.9
				c-2-0.7-6-1.7-12.9-2.5c-5-0.6-11.6-1-20.1-1s-15,0.4-20,1c-6.8,0.8-10.8,1.8-12.8,2.5C491.1,331.7,485.7,363.7,485.7,381.5z"/>
		</g>
		<g>
			<path fill="none" d="M656,217.1c-8.8-24.3-13.6-31.6-15.5-33.7c-1.9,2.1-6.7,9.3-15.5,33.7c-3.8,10.7-7.2,21.1-9,27.1h49
				C663.1,238.1,659.8,227.7,656,217.1z"/>
		</g>
		<g>
			<path fill="none" d="M666.4,570.6V303.4h-51.8v8.5h31.6c2,0,3.6,1.6,3.6,3.6s-1.6,3.6-3.6,3.6h-31.6v7.4h24.1
				c2,0,3.6,1.6,3.6,3.6s-1.6,3.6-3.6,3.6h-24.1v7.3h14.9c2,0,3.6,1.6,3.6,3.6s-1.6,3.6-3.6,3.6h-14.9v7.3h6.6c2,0,3.6,1.6,3.6,3.6
				s-1.6,3.6-3.6,3.6h-6.6V505c5.3,15,10.5,25.7,14.7,30.5C638.7,545.9,652.2,558.4,666.4,570.6z"/>
		</g>
		<g>
			<path fill="none" d="M507.2,152.5h25.6h25.7h25.7H605v-3.2c0-14.8-11.9-39.6-31.9-66.4c-4.3-5.8-8.5-10.9-12.4-15.5h-56
				c-3.9,4.6-8.1,9.9-12.4,15.7c-19.8,26.8-31.6,51.5-31.6,66.1v3.2h20.9h25.6L507.2,152.5L507.2,152.5z"/>
		</g>
		<g>
			<path fill="none" d="M594.1,655.3c0-0.2,0-0.3-0.1-0.5c-1.2-6-4.6-11.3-9.2-14.9c-1.1-0.8-2.2-1.6-3.5-2.3
				c-3.6-2-7.7-3.1-12.1-3.1h-32.6v1.2v19.1v0.5v4.3v0.5v4.3v0.5v6.3v0.9v3.9v0.9v3.9v0.9V698v4.8v4.8v2.6H580h14.6v-4.8v-4.8v-4.8
				v-14.1v-0.9v-3.9V676v-3.9v-0.9v-6.3v-0.5v-4.3v-0.3c0-0.1,0-0.2,0-0.2C594.5,658.1,594.4,656.7,594.1,655.3z"/>
		</g>
		<g>
			<polygon fill="none" points="602.4,681.6 602.4,695.4 612.7,695 619.1,694.7 725.8,690.6 724,681.6 			"/>
		</g>
		<g>
			<path fill="none" d="M529.4,707.5v-4.8V698v-16.3v-0.9v-3.9V676v-1.7c0-0.2,0-0.4,0-0.6v-1.6v-0.9v-6.3v-0.5v-4.3v-0.5v-4.3v-0.5
				v-19.1v-1.2h-32.6c-4.5,0-8.7,1.2-12.4,3.3c-2.3,1.3-4.4,3-6.2,4.9c-3.1,3.3-5.4,7.5-6.3,12.2c0,0.2,0,0.3-0.1,0.5
				c-0.3,1.4-0.4,2.8-0.4,4.3c0,0.1,0,0.2,0,0.2v0.3v4.3v0.5v6.3v0.9v3.9v0.9v3.9v0.9v14.1v4.8v4.8v4.8H485h44.3v-2.8L529.4,707.5
				L529.4,707.5z"/>
		</g>
		<g>
			<path fill="none" d="M675.9,591.2c-3.2-2.6-6.4-5.3-9.6-8c-16.6-14.1-33.1-29-44.2-41.6c-2.6-2.9-5.2-7.1-7.6-12
				c-3.6-7-6.8-15.4-9.6-23.2c-0.9-2.5-1.7-4.9-2.4-7.2c-5.5-16.9-10.5-35.9-14.3-54.2v81.4v9.6v16.7h5.2c2,0,3.6,1.6,3.6,3.6
				s-1.6,3.6-3.6,3.6h-5.2v7.3h14.1c1.1,0,2,0.5,2.6,1.2c0.6,0.6,0.9,1.5,0.9,2.4s-0.4,1.8-0.9,2.4c-0.7,0.7-1.6,1.2-2.6,1.2h-14.1
				v7.3H605h7.2c0.9,0,1.7,0.3,2.3,0.9c0.8,0.7,1.2,1.6,1.2,2.7c0,1.1-0.5,2-1.2,2.7c-0.6,0.6-1.4,0.9-2.3,0.9H605h-16.7v7.3H605
				h9.6h15.6c2,0,3.6,1.6,3.6,3.6s-1.6,3.6-3.6,3.6h-15.6H605h-16.7v7.3H605h9.6h35.6c2,0,3.6,1.6,3.6,3.6s-1.6,3.6-3.6,3.6h-35.6
				H605h-16.7v7.3H605h9.6h51.8h2.8c2,0,3.6,1.6,3.6,3.6s-1.6,3.6-3.6,3.6h-2.8h-51.8H605h-16.4c7.1,5.2,12.1,13.1,13.5,22.2h3h9.6
				h51.8h9.6H736c-1.8-7-6.3-17.4-9.6-24C721.5,627.1,699.6,610.7,675.9,591.2z"/>
		</g>
		<g>
			<path fill="none" d="M532.8,257c-8.3,0-16,8.9-22.7,22.2h45.5C548.8,266,541.1,257,532.8,257z"/>
		</g>
		<g>
			<polygon fill="none" points="529.5,717.3 486.7,717.3 486.7,746.2 578.4,746.2 578.4,717.3 536.6,717.3 			"/>
		</g>
		<g>
			<path fill="none" d="M440.7,217.1c-8.8-24.3-13.6-31.6-15.5-33.7c-1.9,2.1-6.7,9.4-15.5,33.7c-3.8,10.6-7.2,21.1-9,27h49
				C447.8,238.1,444.5,227.7,440.7,217.1z"/>
		</g>
		<g>
			<path fill="none" d="M436.3,535.3c4.5-5,9.6-16.3,14.7-30.7v-142h-6.6c-2,0-3.6-1.6-3.6-3.6s1.6-3.6,3.6-3.6h6.6v-7.3h-14.9
				c-2,0-3.6-1.6-3.6-3.6s1.6-3.6,3.6-3.6H451v-7.3h-24c-2,0-3.6-1.6-3.6-3.6s1.6-3.6,3.6-3.6h24.1V319h-31.6c-2,0-3.6-1.6-3.6-3.6
				s1.6-3.6,3.6-3.6h31.6v-8.5h-51.8v267.2C413.4,558.4,426.9,545.9,436.3,535.3z"/>
		</g>
		<g>
			<path fill="none" d="M476.5,632.6h-15.9H451h-51.8h-2.8c-2,0-3.6-1.6-3.6-3.6s1.6-3.6,3.6-3.6h2.8H451h9.6h16.7v-7.3h-16.7H451
				h-35.7c-2,0-3.6-1.6-3.6-3.6s1.6-3.6,3.6-3.6H451h9.6h16.7v-7.3h-16.7H451h-15.7c-2,0-3.6-1.6-3.6-3.6s1.6-3.6,3.6-3.6H451h9.6
				h16.7V589h-16.7h-7.3c-0.9,0-1.7-0.3-2.3-0.8c-0.8-0.7-1.3-1.6-1.3-2.8s0.5-2.1,1.3-2.8c0.6-0.5,1.4-0.8,2.3-0.8h7.3h16.7v-7.3
				h-14.1c-1,0-1.9-0.4-2.6-1.1c-0.6-0.6-1-1.5-1-2.5s0.4-1.8,1-2.5c0.7-0.7,1.6-1.1,2.6-1.1h14.1V560H472c-2,0-3.6-1.6-3.6-3.6
				s1.6-3.6,3.6-3.6h5.2v-16.7v-9.6v-81.2c-4.5,21.3-10.4,43.2-16.7,61.1c-3.1,8.9-6.4,16.9-9.6,23.2c-2.6,5.1-5.1,9.2-7.6,12
				c-11.2,12.6-27.6,27.5-44.2,41.6c-3.2,2.7-6.4,5.4-9.6,8c-23.6,19.5-45.5,35.9-50.4,39.5c-3.3,6.6-7.9,17-9.6,24h60.1h9.6H451
				h9.6h2.4C464.4,645.7,469.4,637.8,476.5,632.6z"/>
		</g>
		<g>
			<polygon fill="none" points="339.3,690.6 442.2,694.6 448.3,694.8 462.6,695.4 462.6,681.6 341.1,681.6 			"/>
		</g>
		<g>
			<path d="M734.4,625.4c-0.3-0.7-0.8-1.2-1.4-1.7c-0.5-0.3-28.5-21.2-57-45V247.3l-0.2-0.7c-0.1-0.2-5.3-17.9-11.7-35.3
				c-7.1-19.3-14.7-38.1-23.6-38.1c-8.9,0-16.5,18.8-23.6,38.1c-0.8,2.2-1.6,4.3-2.3,6.4v-68.4c0-24.3-23.8-58.8-34.1-72.4
				c-12.2-16.3-36.1-44-48-44c-14.5,0-44.3,39.7-47.7,44.2c-10.2,13.7-33.8,48.2-33.8,72.2v68.4c-0.7-2.1-1.5-4.3-2.3-6.4
				c-7.1-19.3-14.7-38.1-23.6-38.1s-16.5,18.8-23.6,38.1c-6.4,17.5-11.6,35.1-11.7,35.3l-0.2,0.7v331.4c-28.5,23.9-56.6,44.7-57,45
				c-0.6,0.4-1.1,1-1.4,1.7c-1.2,2.4-11.9,23.6-11.9,34.2c0,2.6,2.1,4.8,4.8,4.8h3.4v12.5c0,2.3,1.6,4.2,3.8,4.7l-2.5,12.7
				c-0.3,1.4,0.1,2.8,0.9,3.9c0.9,1.1,2.2,1.8,3.6,1.8l52.5,2l8.4,0.3l46.7,1.8l8.4,0.3l13.3,0.5v8.7c0,2.6,2.1,4.8,4.8,4.8h9.8V751
				c0,2.6,2.2,4.8,4.8,4.8h15.6h8.4h49.2h8.4h19.6c2.6,0,4.8-2.2,4.8-4.8v-32.5h9.7c1.2,0,2.5-0.6,3.1-1.2c0.4-0.4,0.6-0.6,1-1.1
				c0.4-0.6,0.7-1.6,0.7-2.5V705l9.4-0.4l8.4-0.3l46.7-1.8l8.4-0.3l56.4-2.2c1.4,0,2.7-0.7,3.6-1.8c0.9-1.1,1.2-2.5,0.9-3.9
				l-2.5-12.7c2.2-0.5,3.8-2.4,3.8-4.7v-12.5h4c2.6,0,4.8-2.2,4.8-4.8C746.3,649,735.6,627.8,734.4,625.4z M625,217.1
				c8.8-24.3,13.6-31.6,15.5-33.7c1.9,2.1,6.7,9.3,15.5,33.7c3.8,10.7,7.2,21.1,9,27.1h-49C617.8,238.1,621.1,227.7,625,217.1z
				 M614.6,362.6h6.6c2,0,3.6-1.6,3.6-3.6s-1.6-3.6-3.6-3.6h-6.6v-7.3h14.9c2,0,3.6-1.6,3.6-3.6s-1.6-3.6-3.6-3.6h-14.9v-7.3h24.1
				c2,0,3.6-1.6,3.6-3.6s-1.6-3.6-3.6-3.6h-24.1V319h31.6c2,0,3.6-1.6,3.6-3.6s-1.6-3.6-3.6-3.6h-31.6v-8.5h51.8v267.2
				c-14.2-12.2-27.7-24.7-37.1-35.3c-4.3-4.8-9.4-15.5-14.7-30.5V362.6z M460.6,149.3c0-14.6,11.8-39.3,31.6-66.1
				c4.3-5.8,8.5-11,12.4-15.7h56c3.9,4.5,8.1,9.7,12.4,15.5c20,26.7,31.9,51.6,31.9,66.4v3.2H584h-25.7h-25.7H507h-25.7h-20.9v-3.3
				H460.6z M605,159.7v48.5h-17.3v-48.5H605z M580.5,159.7v48.5H562v-48.5H580.5z M554.9,159.7v48.5h-18.5v-48.5H554.9z
				 M529.2,159.7v48.5h-18.5v-48.5H529.2z M503.6,159.7v48.5h-18.5v-48.5H503.6z M460.6,159.7h17.3v48.5h-17.3V159.7z M460.6,247.3
				v-31.9H605v31.9v226.5c-9.1-33.7-15.5-71-15.5-92.3c0-16.2-4.9-49.1-14.1-78c-11.7-37.2-26.1-56-42.6-56s-30.8,18.8-42.6,56
				c-9.1,29-14.1,61.8-14.1,78c0,22.7-6.8,59.6-15.5,91.9L460.6,247.3L460.6,247.3z M512.7,302.2c5-0.6,11.6-1,20-1
				c8.5,0,15,0.4,20.1,1c6.9,0.8,10.9,1.8,12.9,2.5c8.8,27.1,14.2,59,14.2,76.9c0,5.7,0.4,12.4,1.2,19.7v125.3v9.6v20.3V571v14.5
				V600v14.5v14c-3.8-1.5-8-2.4-12.4-2.4h-72.4c-4.2,0-8.2,0.8-11.9,2.2V571v-14.5v-20.3v-9.6V401.8c0.8-7.5,1.3-14.4,1.3-20.3
				c0-17.9,5.4-49.8,14.2-76.9C501.9,304,505.9,302.9,512.7,302.2z M510.1,279.3c6.7-13.3,14.5-22.2,22.7-22.2
				c8.3,0,16,8.9,22.8,22.2H510.1z M409.6,217.1c8.8-24.4,13.6-31.6,15.5-33.7c1.9,2.1,6.7,9.3,15.5,33.7c3.8,10.7,7.2,21.1,9,27.1
				h-49C402.5,238.2,405.8,227.7,409.6,217.1z M399.3,303.4h51.8v8.5h-31.6c-2,0-3.6,1.6-3.6,3.6s1.6,3.6,3.6,3.6h31.6v7.4H427
				c-2,0-3.6,1.6-3.6,3.6s1.6,3.6,3.6,3.6h24.1v7.3h-14.9c-2,0-3.6,1.6-3.6,3.6s1.6,3.6,3.6,3.6h14.9v7.3h-6.6c-2,0-3.6,1.6-3.6,3.6
				s1.6,3.6,3.6,3.6h6.6v142c-5.1,14.5-10.3,25.7-14.7,30.7c-9.4,10.6-22.9,23.1-37.1,35.3V303.4z M462.6,695.4l-14.3-0.6l-6.1-0.2
				l-102.9-4l1.8-9h121.6v13.8H462.6z M463,654.8h-2.4H451h-51.8h-9.6h-60.1c1.8-7,6.3-17.4,9.6-24c4.9-3.6,26.8-20,50.4-39.5
				c3.2-2.6,6.4-5.3,9.6-8c16.6-14.1,33.1-29,44.2-41.6c2.5-2.8,5-6.9,7.6-12c3.2-6.3,6.4-14.3,9.6-23.2
				c6.3-17.9,12.2-39.8,16.7-61.1v81.2v9.6v16.7H472c-2,0-3.6,1.6-3.6,3.6s1.6,3.6,3.6,3.6h5.2v7.3h-14.1c-1,0-1.9,0.4-2.6,1.1
				c-0.6,0.6-1,1.5-1,2.5s0.4,1.8,1,2.5c0.7,0.7,1.6,1.1,2.6,1.1h14.1v7.3h-16.7h-7.3c-0.9,0-1.7,0.3-2.3,0.8
				c-0.8,0.7-1.3,1.6-1.3,2.8s0.5,2.1,1.3,2.8c0.6,0.5,1.4,0.8,2.3,0.8h7.3h16.7v7.3h-16.7h-9.6h-15.7c-2,0-3.6,1.6-3.6,3.6
				s1.6,3.6,3.6,3.6h15.7h9.6h16.7v7.3h-16.7h-9.6h-35.7c-2,0-3.6,1.6-3.6,3.6s1.6,3.6,3.6,3.6h35.7h9.6h16.7v7.3h-16.7h-9.6h-51.8
				h-2.8c-2,0-3.6,1.6-3.6,3.6s1.6,3.6,3.6,3.6h2.8h51.8h9.6h15.9C469.4,637.8,464.4,645.7,463,654.8z M471.5,710.1v-4.8v-4.8v-4.8
				v-14.1v-0.9v-3.9V676v-3.9v-0.9v-6.3v-0.5v-4.3v-0.3c0-0.1,0-0.2,0-0.2c0-1.5,0.2-2.9,0.4-4.3c0-0.2,0-0.3,0.1-0.5
				c0.9-4.7,3.2-8.8,6.3-12.2c1.8-1.9,3.9-3.6,6.2-4.9c3.7-2.1,7.9-3.3,12.4-3.3h32.6v1.2v19.1v0.5v4.3v0.5v4.3v0.5v6.3v0.9v1.6
				c0,0.2,0,0.4,0,0.6v1.7v0.9v3.9v0.9V698v4.8v4.8v2.6h-44.3h-13.7V710.1z M578.4,746.2h-91.6v-29h42.7h7.1h41.8L578.4,746.2
				L578.4,746.2z M594.6,660.1v4.3v0.5v6.3v0.9v3.9v0.9v3.9v0.9v14.1v4.8v4.8v4.8H580h-43.4v-2.6v-4.8V698v-16.3v-0.9v-3.9V676v-3.9
				v-0.9v-6.3v-0.5v-4.3v-0.5v-4.3v-0.5v-19.1v-1.2h32.6c4.4,0,8.5,1.1,12.1,3.1c1.2,0.7,2.4,1.4,3.5,2.3c4.7,3.7,8,8.9,9.2,14.9
				c0,0.2,0.1,0.3,0.1,0.5c0.3,1.4,0.4,2.8,0.4,4.3c0,0.1,0,0.2,0,0.2v0.3H594.6z M619.1,694.7l-6.4,0.3l-10.3,0.4v-13.7H724l1.8,9
				L619.1,694.7z M675.9,654.8h-9.6h-51.8H605h-3c-1.4-9.1-6.4-17-13.5-22.2H605h9.6h51.8h2.8c2,0,3.6-1.6,3.6-3.6s-1.6-3.6-3.6-3.6
				h-2.8h-51.8H605h-16.7v-7.3H605h9.6h35.6c2,0,3.6-1.6,3.6-3.6s-1.6-3.6-3.6-3.6h-35.6H605h-16.7v-7.3H605h9.6h15.6
				c2,0,3.6-1.6,3.6-3.6s-1.6-3.6-3.6-3.6h-15.6H605h-16.7V589H605h7.2c0.9,0,1.7-0.3,2.3-0.9c0.8-0.7,1.2-1.6,1.2-2.7
				c0-1.1-0.5-2-1.2-2.7c-0.6-0.5-1.4-0.9-2.3-0.9H605h-16.7v-7.3h14.1c1.1,0,2-0.5,2.6-1.2c0.6-0.6,0.9-1.5,0.9-2.4
				s-0.4-1.8-0.9-2.4c-0.7-0.7-1.6-1.2-2.6-1.2h-14.1V560h5.2c2,0,3.6-1.6,3.6-3.6s-1.6-3.6-3.6-3.6h-5.2v-16.7v-9.6v-81.4
				c3.9,18.3,8.8,37.2,14.3,54.2c0.8,2.3,1.6,4.7,2.4,7.2c2.7,7.8,6,16.2,9.6,23.2c2.4,4.8,5,9,7.6,12
				c11.1,12.6,27.6,27.5,44.2,41.6c3.2,2.7,6.4,5.4,9.6,8c23.6,19.5,45.5,35.9,50.4,39.5c3.3,6.6,7.9,17,9.6,24L675.9,654.8
				L675.9,654.8z"/>
		</g>
		<g>
			<path fill="#FFFFFF" d="M449.7,244.1h-49c1.9-6,5.2-16.4,9-27c8.8-24.4,13.6-31.6,15.5-33.7c1.9,2.1,6.7,9.3,15.5,33.7
				C444.5,227.7,447.8,238.1,449.7,244.1z"/>
		</g>
	</g>
</g>
<g id="Stars">
	<g>
		<g>
			<g>
				<path d="M311.4,169.6c-1.1,0-2-0.9-2-2v-44.4c0-1.1,0.9-2,2-2s2,0.9,2,2v44.4C313.4,168.7,312.5,169.6,311.4,169.6z"/>
			</g>
			<g>
				<path d="M327.8,147.4h-32.7c-1.1,0-2-0.9-2-2s0.9-2,2-2h32.7c1.1,0,2,0.9,2,2S328.9,147.4,327.8,147.4z"/>
			</g>
			<g>
				<path d="M300.8,158c-0.5,0-1-0.2-1.4-0.6c-0.8-0.8-0.8-2,0-2.8l21.2-21.2c0.8-0.8,2-0.8,2.8,0s0.8,2,0,2.8l-21.2,21.2
					C301.8,157.8,301.3,158,300.8,158z"/>
			</g>
			<g>
				<path d="M322,158c-0.5,0-1-0.2-1.4-0.6l-21.2-21.2c-0.8-0.8-0.8-2,0-2.8s2-0.8,2.8,0l21.2,21.2c0.8,0.8,0.8,2,0,2.8
					C323,157.8,322.5,158,322,158z"/>
			</g>
		</g>
		<g>
			<g>
				<path d="M162.8,582.2c-1.1,0-2-0.9-2-2v-46.4c0-1.1,0.9-2,2-2s2,0.9,2,2v46.4C164.8,581.3,163.9,582.2,162.8,582.2z"/>
			</g>
			<g>
				<path d="M181.1,559h-36.7c-1.1,0-2-0.9-2-2s0.9-2,2-2h36.7c1.1,0,2,0.9,2,2S182.2,559,181.1,559z"/>
			</g>
			<g>
				<path d="M152.8,569c-0.5,0-1-0.2-1.4-0.6c-0.8-0.8-0.8-2,0-2.8l20-20c0.8-0.8,2-0.8,2.8,0s0.8,2,0,2.8l-20,20
					C153.8,568.8,153.3,569,152.8,569z"/>
			</g>
			<g>
				<path d="M172.8,569c-0.5,0-1-0.2-1.4-0.6l-20-20c-0.8-0.8-0.8-2,0-2.8s2-0.8,2.8,0l20,20c0.8,0.8,0.8,2,0,2.8
					C173.8,568.8,173.3,569,172.8,569z"/>
			</g>
		</g>
		<g>
			<g>
				<path d="M885.3,402.9c-1.1,0-2-0.9-2-2v-72c0-1.1,0.9-2,2-2s2,0.9,2,2v72C887.3,402,886.4,402.9,885.3,402.9z"/>
			</g>
			<g>
				<path d="M912.7,366.9h-54.9c-1.1,0-2-0.9-2-2s0.9-2,2-2h54.9c1.1,0,2,0.9,2,2S913.8,366.9,912.7,366.9z"/>
			</g>
			<g>
				<path d="M900.3,381.9c-0.5,0-1-0.2-1.4-0.6l-30-30c-0.8-0.8-0.8-2,0-2.8s2-0.8,2.8,0l30,30c0.8,0.8,0.8,2,0,2.8
					C901.3,381.7,900.8,381.9,900.3,381.9z"/>
			</g>
			<g>
				<path d="M900.3,381.9c-0.5,0-1-0.2-1.4-0.6l-30-30c-0.8-0.8-0.8-2,0-2.8s2-0.8,2.8,0l30,30c0.8,0.8,0.8,2,0,2.8
					C901.3,381.7,900.8,381.9,900.3,381.9z"/>
			</g>
			<g>
				<path d="M870.3,381.9c-0.5,0-1-0.2-1.4-0.6c-0.8-0.8-0.8-2,0-2.8l30-30c0.8-0.8,2-0.8,2.8,0s0.8,2,0,2.8l-30,30
					C871.3,381.7,870.8,381.9,870.3,381.9z"/>
			</g>
		</g>
		<g>
			<g>
				<path d="M763.3,175.1c-1.1,0-2-0.9-2-2v-55.5c0-1.1,0.9-2,2-2s2,0.9,2,2v55.5C765.3,174.3,764.4,175.1,763.3,175.1z"/>
			</g>
			<g>
				<path d="M786.1,147.4h-45.5c-1.1,0-2-0.9-2-2s0.9-2,2-2h45.5c1.1,0,2,0.9,2,2S787.2,147.4,786.1,147.4z"/>
			</g>
			<g>
				<path d="M775.6,158.1c-0.5,0-0.9-0.2-1.3-0.5l-24.5-21.5c-0.8-0.7-0.9-2-0.2-2.8s2-0.9,2.8-0.2l24.5,21.5c0.8,0.7,0.9,2,0.2,2.8
					C776.7,157.9,776.1,158.1,775.6,158.1z"/>
			</g>
			<g>
				<path d="M752.6,159.6c-0.5,0-0.9-0.2-1.3-0.5c-0.8-0.7-0.9-2-0.2-2.8l21.5-24.5c0.7-0.8,2-0.9,2.8-0.2s0.9,2,0.2,2.8L754.1,159
					C753.7,159.4,753.1,159.6,752.6,159.6z"/>
			</g>
		</g>
		<g>
			<g>
				<path d="M846.4,616.2c-1.1,0-2-0.9-2-2v-45.3c0-1.1,0.9-2,2-2s2,0.9,2,2v45.3C848.4,615.3,847.5,616.2,846.4,616.2z"/>
			</g>
			<g>
				<path d="M865.3,593.5h-37.8c-1.1,0-2-0.9-2-2s0.9-2,2-2h37.8c1.1,0,2,0.9,2,2S866.4,593.5,865.3,593.5z"/>
			</g>
			<g>
				<path d="M856.6,603.7c-0.5,0-1-0.2-1.4-0.6l-20.4-20.4c-0.8-0.8-0.8-2,0-2.8s2-0.8,2.8,0l20.4,20.4c0.8,0.8,0.8,2,0,2.8
					C857.6,603.5,857.1,603.7,856.6,603.7z"/>
			</g>
			<g>
				<path d="M836.2,603.7c-0.5,0-1-0.2-1.4-0.6c-0.8-0.8-0.8-2,0-2.8l20.4-20.4c0.8-0.8,2-0.8,2.8,0s0.8,2,0,2.8l-20.4,20.4
					C837.3,603.5,836.7,603.7,836.2,603.7z"/>
			</g>
		</g>
		<g>
			<g>
				<path d="M144.5,300c-1.1,0-2-0.9-2-2v-56c0-1.1,0.9-2,2-2s2,0.9,2,2v56C146.5,299.1,145.6,300,144.5,300z"/>
			</g>
			<g>
				<path d="M167.2,272h-45.5c-1.1,0-2-0.9-2-2s0.9-2,2-2h45.5c1.1,0,2,0.9,2,2S168.3,272,167.2,272z"/>
			</g>
			<g>
				<path d="M132.2,284.3c-0.5,0-1-0.2-1.4-0.6c-0.8-0.8-0.8-2,0-2.8l24.5-24.5c0.8-0.8,2-0.8,2.8,0c0.8,0.8,0.8,2,0,2.8l-24.5,24.5
					C133.2,284.1,132.7,284.3,132.2,284.3z"/>
			</g>
			<g>
				<path d="M156.7,284.3c-0.5,0-1-0.2-1.4-0.6l-24.5-24.5c-0.8-0.8-0.8-2,0-2.8c0.8-0.8,2-0.8,2.8,0l24.5,24.5c0.8,0.8,0.8,2,0,2.8
					C157.8,284.1,157.2,284.3,156.7,284.3z"/>
			</g>
		</g>
	</g>
	<g>
		<g>
			<circle cx="299.5" cy="517.1" r="5"/>
		</g>
		<g>
			<circle cx="238.2" cy="380.7" r="6.7"/>
		</g>
		<g>
			<circle cx="62.6" cy="600.9" r="6.7"/>
		</g>
		<g>
			<circle cx="752.8" cy="520.7" r="6.7"/>
		</g>
		<g>
			<circle cx="95.4" cy="447.5" r="4.5"/>
		</g>
		<g>
			<circle cx="670.1" cy="46.7" r="6.7"/>
		</g>
		<g>
			<circle cx="763.3" cy="295.2" r="5"/>
		</g>
		<g>
			<circle cx="895.9" cy="213" r="6.7"/>
		</g>
		<g>
			<circle cx="965.7" cy="383.3" r="6.7"/>
		</g>
		<g>
			<circle cx="987.3" cy="570.6" r="5"/>
		</g>
		<g>
			<circle cx="386.8" cy="20.6" r="6.7"/>
		</g>
		<g>
			<circle cx="221.7" cy="137.5" r="5"/>
		</g>
	</g>
</g>
</svg>
