<svg xmlns="http://www.w3.org/2000/svg" viewBox="0 0 200 200" enable-background="new 0 0 200 200"><g fill="#fff"><path d="m0 0h200v200h-200z"/><g stroke="#231f20" stroke-miterlimit="10"><path stroke-width="1.258" stroke-linejoin="round" d="m73.992 26.521h49.21v2.138h-49.21z"/><path stroke-width="1.678" d="m80.82 26.521v-2.058h4.78v2.058 2.138 45.651 12.78 15.97h-1.04v2.94h3.17v3.32h-9.04v-3.32h3.17v-2.94h-1.04l.02-15.99-.02-12.76v-45.651z"/><circle stroke-width="1.258" stroke-linejoin="round" cx="73.994" cy="27.481" r="2.102"/></g></g><g stroke="#231f20" stroke-miterlimit="10"><g stroke-width="1.678"><path fill="none" d="m80.82 24.463h4.774v78.59h-4.774z"/><path fill="#d0cdd0" stroke-linejoin="round" d="m85.959 74.31c0 0 2.874-.272 2.874 1.568 13.448 0 28.515-2.215 33.784 3.044 8.664 8.666 8.864 16.999 8.864 35.907 0 18.914.016 36-6.908 42.927-2.198 2.202-8.7 5.331-20.723 5.331-18.704 0-26.827-17.503-26.827-17.503h11.81v4.589c0 0 19.973 2.69 22.663 0 2.449-2.447 2.309-27.08 2.309-34.728 0-7.653-.488-26.849-2.407-28.764-1.914-1.916-15.179-1.083-22.564-1.083v1.488h-2.877l-5.476-.017-2.894.017v-11.208c0-1.758 2.877-1.568 2.877-1.568h5.495z"/></g><path fill="#fff" stroke-width="1.258" stroke-linejoin="round" d="m124.13 27.481c0-1.16-.941-2.102-2.102-2.102-1.167 0-2.11.942-2.11 2.102 0 1.162.943 2.104 2.11 2.104 1.161 0 2.102-.942 2.102-2.104z"/></g></svg>