<?xml version="1.0" encoding="utf-8"?>
<!-- Generator: Adobe Illustrator 17.0.0, SVG Export Plug-In . SVG Version: 6.00 Build 0)  -->
<!DOCTYPE svg PUBLIC "-//W3C//DTD SVG 1.1//EN" "http://www.w3.org/Graphics/SVG/1.1/DTD/svg11.dtd">
<svg version="1.1" id="Layer_1" xmlns="http://www.w3.org/2000/svg" xmlns:xlink="http://www.w3.org/1999/xlink" x="0px" y="0px"
	 width="936px" height="1289.34px" viewBox="0 39.477 936 1289.34" enable-background="new 0 39.477 936 1289.34"
	 xml:space="preserve">
<path fill="#38803D" d="M0,39.477h936v1289.34H0V39.477z"/>
<path fill="#231F20" d="M349.163,953.632l-2.551,5.113l-3.159-4.762L349.163,953.632z"/>
<g>
	<path fill="#FFFFFF" d="M197.67,608.012c-2.94-2.352-7.35-4.557-11.319-4.557c-6.909,0-10.143,13.965-10.143,32.194
		c0,22.639,2.352,34.987,10.731,34.987c4.263,0,8.526-3.234,11.76-6.615l-0.588,18.816c-3.381,3.234-9.261,5.586-16.758,5.586
		c-18.669,0-24.696-18.669-24.696-49.54c0-31.753,7.35-53.068,27.489-53.068c6.468,0,11.907,2.058,14.701,4.116L197.67,608.012z"/>
	<path fill="#FFFFFF" d="M223.984,688.423c-20.139,0-25.284-21.021-25.284-50.569c0-30.43,6.321-52.039,27.783-52.039
		c19.993,0,24.991,21.021,24.991,50.569C251.474,666.813,245.3,688.423,223.984,688.423z M225.161,601.838
		c-4.998,0-7.056,14.7-7.056,33.811c0,22.051,1.323,36.751,7.056,36.751c4.851,0,6.909-14.7,6.909-33.811
		C232.07,616.539,230.6,601.838,225.161,601.838z"/>
	<path fill="#FFFFFF" d="M280.727,688.423c-16.758,0-24.108-9.849-24.108-27.636v-73.648h19.11v71.443
		c0,9.996,2.058,13.23,6.321,13.23c3.969,0,6.027-3.087,6.027-12.496v-72.178h18.669v71.149
		C306.746,679.015,299.102,688.423,280.727,688.423z"/>
	<path fill="#FFFFFF" d="M345.259,687.1l-12.79-45.129c-0.882-3.087-2.499-13.818-2.499-13.818s0.882,9.996,0.882,13.671
		l0.735,45.276h-17.346v-99.961h17.787l12.496,44.101c1.029,3.381,2.499,14.406,2.499,14.406s-0.588-11.466-0.588-15.582
		l-0.882-42.925h17.346V687.1H345.259z"/>
	<path fill="#FFFFFF" d="M396.708,603.75v83.35h-19.11v-83.35h-12.054v-16.611h43.072v16.611H396.708z"/>
	<path fill="#FFFFFF" d="M411.554,687.1v-99.961h37.633v16.317h-19.11v24.697h15.141v15.876h-15.141v26.607h19.992V687.1H411.554z"
		/>
	<path fill="#FFFFFF" d="M484.025,687.1c-4.117-35.133-5.439-38.956-7.792-40.131h-4.558V687.1h-18.375v-99.961
		c0,0,12.642-0.735,23.667-0.735c16.611,0,23.668,10.878,23.668,26.607c0,14.848-5.146,24.403-9.408,27.049
		c4.557,2.352,6.468,7.644,12.348,47.041H484.025z M473.734,601.103h-2.059v31.312h6.469c1.764-2.646,3.676-7.497,3.676-16.17
		C481.82,606.836,479.174,601.103,473.734,601.103z"/>
	<path fill="#FFFFFF" d="M502.399,654.465v-15.876h21.462v15.876H502.399z"/>
	<path fill="#FFFFFF" d="M539.445,688.423c-7.497,0-13.671-2.352-18.081-5.586l1.765-17.787c4.115,3.822,9.701,6.615,14.259,6.615
		c3.969,0,6.909-2.646,6.909-9.408c0-14.994-21.757-27.342-21.757-51.304c0-13.377,7.351-25.138,22.639-25.138
		c7.351,0,12.642,1.764,16.759,4.263l-1.323,16.611c-3.382-2.205-8.968-4.41-13.23-4.41c-3.675,0-5.88,2.94-5.88,7.203
		c0,15.141,21.903,27.931,21.903,50.863C563.407,677.104,554.881,688.423,539.445,688.423z"/>
	<path fill="#FFFFFF" d="M593.688,603.75v83.35h-19.109v-83.35h-12.055v-16.611h43.072v16.611H593.688z"/>
	<path fill="#FFFFFF" d="M639.257,687.1c-4.116-35.133-5.439-38.956-7.792-40.131h-4.557V687.1h-18.375v-99.961
		c0,0,12.643-0.735,23.668-0.735c16.611,0,23.667,10.878,23.667,26.607c0,14.848-5.146,24.403-9.408,27.049
		c4.558,2.352,6.468,7.644,12.349,47.041H639.257z M628.967,601.103h-2.059v31.312h6.469c1.764-2.646,3.675-7.497,3.675-16.17
		C637.052,606.836,634.406,601.103,628.967,601.103z"/>
	<path fill="#FFFFFF" d="M662.629,687.1v-99.961h19.258V687.1H662.629z"/>
	<path fill="#FFFFFF" d="M719.665,687.1c-8.085-41.749-9.408-44.688-11.024-45.57h-0.589v45.57h-18.522v-99.961h18.522v44.395
		c2.353-6.468,11.613-44.395,11.613-44.395h20.14l-15.436,46.453c1.764,1.029,4.557,5.733,15.877,53.509H719.665z"/>
	<path fill="#FFFFFF" d="M742.447,687.1v-99.961h37.633v16.317h-19.11v24.697h15.142v15.876H760.97v26.607h19.993V687.1H742.447z"/>
	<path fill="#FFFFFF" d="M285.647,827.1v-99.962h37.633v16.317h-19.11v24.696h15.141v15.877H304.17v26.607h19.992V827.1H285.647z"/>
	<path fill="#FFFFFF" d="M364.588,748.012c-2.94-2.352-7.35-4.557-11.319-4.557c-6.909,0-10.143,13.965-10.143,32.193
		c0,22.639,2.352,34.987,10.731,34.987c4.263,0,8.526-3.234,11.76-6.615l-0.588,18.816c-3.381,3.234-9.261,5.586-16.758,5.586
		c-18.669,0-24.696-18.669-24.696-49.54c0-31.753,7.35-53.068,27.489-53.068c6.468,0,11.907,2.059,14.701,4.116L364.588,748.012z"/>
	<path fill="#FFFFFF" d="M390.903,828.423c-20.139,0-25.284-21.021-25.284-50.569c0-30.43,6.321-52.039,27.784-52.039
		c19.992,0,24.99,21.021,24.99,50.569C418.393,806.813,412.219,828.423,390.903,828.423z M392.079,741.838
		c-4.998,0-7.056,14.7-7.056,33.811c0,22.051,1.323,36.751,7.056,36.751c4.851,0,6.909-14.7,6.909-33.811
		C398.988,756.538,397.518,741.838,392.079,741.838z"/>
	<path fill="#FFFFFF" d="M454.848,827.1l-12.79-45.13c-0.882-3.087-2.499-13.818-2.499-13.818s0.882,9.996,0.882,13.672
		l0.735,45.276H423.83v-99.962h17.787l12.495,44.101c1.029,3.382,2.5,14.406,2.5,14.406s-0.588-11.466-0.588-15.582l-0.882-42.925
		h17.347V827.1H454.848z"/>
	<path fill="#FFFFFF" d="M503.209,828.423c-20.139,0-25.283-21.021-25.283-50.569c0-30.43,6.32-52.039,27.783-52.039
		c19.992,0,24.99,21.021,24.99,50.569C530.699,806.813,524.525,828.423,503.209,828.423z M504.386,741.838
		c-4.998,0-7.056,14.7-7.056,33.811c0,22.051,1.322,36.751,7.056,36.751c4.851,0,6.909-14.7,6.909-33.811
		C511.295,756.538,509.824,741.838,504.386,741.838z"/>
	<path fill="#FFFFFF" d="M586.412,827.1l-0.588-48.952c0-1.47-0.147-11.319-0.147-11.319s-1.177,9.85-1.323,11.173L575.68,827.1
		h-13.965l-9.113-49.54c-0.295-1.323-1.177-11.025-1.177-11.025s0,9.556,0,11.025l-0.588,49.54h-17.052l4.851-99.962h19.992
		l10.144,53.362c0.734,3.234,1.029,12.054,1.029,12.054s0.44-8.673,1.028-11.907l9.408-53.509h19.993l4.263,99.962H586.412z"/>
	<path fill="#FFFFFF" d="M639.184,786.821V827.1H620.22v-39.838l-17.052-60.124h20.874l6.615,39.103l6.026-39.103h19.552
		L639.184,786.821z"/>
</g>
</svg>
