<?xml version="1.0" encoding="utf-8"?>
<!-- Generator: Adobe Illustrator 17.0.0, SVG Export Plug-In . SVG Version: 6.00 Build 0)  -->
<!DOCTYPE svg PUBLIC "-//W3C//DTD SVG 1.1//EN" "http://www.w3.org/Graphics/SVG/1.1/DTD/svg11.dtd">
<svg version="1.1" id="Layer_1" xmlns="http://www.w3.org/2000/svg" xmlns:xlink="http://www.w3.org/1999/xlink" x="0px" y="0px"
	 width="778.412px" height="740.962px" viewBox="0 0 778.412 740.962" enable-background="new 0 0 778.412 740.962"
	 xml:space="preserve">
<g>
	<g>
		<g>
			<g>
				<g>
					<path fill="#FFFFFF" d="M493.241,286.409c2.035,0.577,3.245,2.719,2.69,4.76l-3.023,11.021
						c-0.553,2.042-2.673,3.238-4.705,2.659l-22.958-6.526c-2.033-0.579-3.244-2.72-2.69-4.762l3.024-11.021
						c0.555-2.039,2.673-3.237,4.706-2.658L493.241,286.409z"/>
				</g>
				<g>
					<path d="M489.242,307.995c-0.628,0-1.254-0.088-1.861-0.261l-22.956-6.526c-3.61-1.027-5.748-4.811-4.766-8.433l3.027-11.029
						c0.801-2.947,3.499-5.01,6.559-5.01c0.628,0,1.255,0.088,1.862,0.261l22.954,6.526c3.612,1.024,5.75,4.808,4.765,8.433
						l-3.024,11.028C495.002,305.931,492.303,307.995,489.242,307.995z M469.245,282.737c-0.294,0-0.661,0.185-0.771,0.591
						l-3.026,11.027c-0.12,0.444,0.168,0.954,0.619,1.083l22.957,6.526c0.375,0.107,0.852-0.054,0.989-0.559l3.025-11.029
						c0.121-0.444-0.166-0.953-0.615-1.08l-22.958-6.527C469.389,282.747,469.318,282.737,469.245,282.737z"/>
				</g>
			</g>
			<g>
				<g>
					<path fill="#FFFFFF" d="M462.843,278.131c2.033,0.577,3.244,2.72,2.69,4.76l-3.023,11.021c-0.553,2.041-2.673,3.237-4.706,2.66
						l-22.956-6.529c-2.034-0.576-3.246-2.718-2.691-4.759l3.023-11.022c0.556-2.039,2.673-3.236,4.707-2.657L462.843,278.131z"/>
				</g>
				<g>
					<path d="M458.842,299.717c-0.627,0-1.252-0.087-1.857-0.259l-22.957-6.529c-3.612-1.023-5.751-4.806-4.767-8.432l3.025-11.029
						c0.804-2.948,3.502-5.01,6.56-5.01c0.629,0,1.255,0.088,1.862,0.261l22.955,6.526c3.612,1.025,5.749,4.808,4.764,8.433
						l-3.023,11.028C464.605,297.653,461.907,299.717,458.842,299.717z M438.846,274.458c-0.294,0-0.661,0.186-0.771,0.592
						l-3.024,11.027c-0.121,0.444,0.166,0.952,0.615,1.08l22.959,6.53c0.361,0.104,0.853-0.055,0.99-0.559l3.024-11.031
						c0.121-0.445-0.165-0.953-0.615-1.081l-22.957-6.526C438.993,274.469,438.92,274.458,438.846,274.458z"/>
				</g>
			</g>
			<g>
				<g>
					<path fill="#FFFFFF" d="M416.694,269.647c0.577-2.034,2.72-3.245,4.76-2.69l11.021,3.023c2.041,0.554,3.237,2.673,2.66,4.706
						l-6.528,22.957c-0.576,2.034-2.719,3.244-4.76,2.69l-11.022-3.024c-2.039-0.556-3.235-2.672-2.657-4.707L416.694,269.647z"/>
				</g>
				<g>
					<path d="M424.852,303.468c-0.604,0-1.207-0.081-1.791-0.239l-11.03-3.027c-1.761-0.48-3.229-1.623-4.129-3.218
						c-0.9-1.594-1.12-3.442-0.62-5.202l6.526-22.956c0.836-2.946,3.566-5.005,6.64-5.005c0.604,0,1.208,0.081,1.793,0.24
						l11.028,3.025c1.758,0.477,3.227,1.619,4.129,3.214s1.123,3.443,0.623,5.205l-6.528,22.958
						C430.658,301.409,427.927,303.468,424.852,303.468z M420.448,269.822c-0.341,0-0.748,0.221-0.868,0.644l-6.526,22.957
						c-0.075,0.265-0.002,0.479,0.073,0.612s0.221,0.308,0.487,0.38l11.026,3.026c0.355,0.097,0.936-0.101,1.08-0.615l6.529-22.96
						c0.075-0.263,0.001-0.478-0.074-0.611s-0.221-0.307-0.485-0.378l-11.03-3.026C420.594,269.833,420.521,269.822,420.448,269.822
						z"/>
				</g>
			</g>
			<g>
				<g>
					<path fill="#FFFFFF" d="M408.416,300.154c1.068-3.988,2.72-3.244,4.761-2.69l11.021,3.023c2.041,0.554,3.236,2.673,2.659,4.706
						l-6.528,22.956c-0.576,2.034-2.572,3.277-4.76,2.691C413.381,330.253,403.114,319.937,408.416,300.154z"/>
				</g>
				<g>
					<path d="M416.651,333.986c-0.62,0-1.245-0.083-1.858-0.248c-3.511-0.944-15.162-12.393-9.274-34.361
						c0.951-3.555,2.812-5.357,5.529-5.357c0.955,0,1.812,0.24,2.567,0.452l11.377,3.122c1.758,0.477,3.227,1.619,4.128,3.213
						c0.902,1.595,1.123,3.444,0.623,5.206l-6.528,22.958C422.365,331.969,419.727,333.986,416.651,333.986z M416.491,327.974
						c0.452,0.067,0.818-0.176,0.951-0.642l6.529-22.959c0.075-0.264,0.001-0.479-0.074-0.612s-0.221-0.306-0.484-0.377
						l-11.418-3.133c-0.132-0.037-0.282-0.08-0.427-0.118c-0.073,0.188-0.161,0.448-0.254,0.798
						C406.733,318.023,414.586,326.813,416.491,327.974z"/>
				</g>
			</g>
		</g>
		<g>
			<g>
				<path fill="#FFFFFF" d="M458.542,327.446h209.859c0,66.627-11.181,291.485-330.811,291.485
					c-158.133,0-237.435-134.961-237.435-223.428c0-127.078,90.299-204.171,202.43-204.171c216.03,0,200.289,308.313,1.91,308.313
					c-140.019,0-154.277-207.464-10.338-207.464c110.636,0,112.757,151.699,10.168,142.41c-70.867-6.416-63.86-100.675,2.505-98.765
					c31.751,0.914,47.478,46.012,20.501,59.414c-36.417,18.091-45.583-28-20.417-28c11.741,0,14.167,10.724,7.667,16"/>
			</g>
			<g>
				<path d="M337.589,622.432c-91.068,0-148.498-43.353-180.64-79.721c-37.191-42.082-60.295-98.488-60.295-147.207
					c0-61.745,20.831-114.397,60.241-152.264c37.187-35.73,88.926-55.407,145.689-55.407c50.128,0,91.834,16.553,120.608,47.868
					c21.625,23.535,34.959,54.385,38.402,88.245H671.9v3.5c0,68.358-15.52,126.449-46.126,172.66
					c-24.278,36.656-57.969,65.524-100.135,85.805C475.253,610.145,411.983,622.432,337.589,622.432z M302.585,194.833
					c-117.127,0-198.93,82.519-198.93,200.671c0,47.084,22.431,101.714,58.54,142.571c31.188,35.289,86.935,77.356,175.395,77.356
					c281.729,0,326.37-176.567,327.297-284.485H462.164c0.214,3.535,0.322,7.101,0.322,10.688
					c0,41.101-14.688,81.445-40.296,110.689c-29.116,33.247-69.814,50.821-117.695,50.821c-44.05,0-71.033-19.646-85.912-36.128
					c-18.71-20.725-29.44-49.09-29.44-77.822c0-26.828,9.188-51.497,25.87-69.463c18.862-20.313,46.23-31.051,79.145-31.051
					c35.448,0,64.231,15.715,78.97,43.116c13.534,25.162,12.83,55.723-1.793,77.86c-13.874,21.002-37.78,31.104-67.324,28.42
					c-38.775-3.511-54.841-31.864-53.359-56.723c0.794-13.325,6.331-25.582,15.589-34.511c10.331-9.964,24.411-14.981,40.691-14.515
					c19.662,0.566,33.391,16.532,36.789,32.01c3.257,14.831-2.426,27.874-14.832,34.037c-18.369,9.125-28.936,2.276-32.626-1.092
					c-6.396-5.838-8.776-15.294-5.79-22.996c2.599-6.703,8.592-10.547,16.442-10.547c6.895,0,12.139,3.179,14.028,8.504
					c1.73,4.877,0.099,10.26-4.156,13.714l-4.412-5.436c1.923-1.561,2.697-3.892,1.971-5.938c-0.867-2.443-3.576-3.845-7.431-3.845
					c-6.248,0-8.841,3.305-9.916,6.077c-1.935,4.99-0.26,11.423,3.982,15.295c5.631,5.14,14.436,5.139,24.792-0.007
					c9.528-4.733,13.681-14.553,11.109-26.267c-2.816-12.825-14.078-26.051-30.153-26.514
					c-31.964-0.947-47.834,21.357-49.091,42.445c-1.331,22.318,12.687,46.229,47.002,49.336
					c26.863,2.428,48.465-6.557,60.853-25.308c13.223-20.017,13.799-47.762,1.469-70.686
					c-13.479-25.059-40.016-39.432-72.805-39.432c-30.918,0-56.512,9.964-74.015,28.813c-15.477,16.667-24,39.645-24,64.7
					c0,51.847,37.975,106.95,108.353,106.95c99.127,0,150.991-77.729,150.991-154.511c0-38.977-13.299-74.917-37.447-101.197
					C390.625,210.603,350.701,194.833,302.585,194.833z"/>
			</g>
		</g>
		<g>
			<g>
				<g>
					<path d="M553.178,412.847c-5.612,0-11.272-0.156-16.938-0.474c-37.51-2.106-68.31-10.59-84.503-23.276l1.85-2.361
						c15.491,12.136,46.452,20.601,82.821,22.642c36.348,2.048,72.462-2.631,96.608-12.501c19.822-8.101,31.224-19.436,32.973-32.78
						l2.975,0.39c-1.897,14.475-13.935,26.636-34.812,35.168C613.393,408.137,584.002,412.847,553.178,412.847z"/>
				</g>
			</g>
			<g>
				<g>
					<path d="M475.796,594.322c-5.464,0-10.99-0.357-16.573-1.073c-21.723-2.783-43.696-11.063-63.544-23.94
						c-32.633-21.174-54.583-51.664-53.379-74.147l2.996,0.16c-1.15,21.463,20.239,50.853,52.016,71.471
						c20.538,13.326,74.573,41.114,132.588,11.41l1.367,2.67C513.79,589.82,495.191,594.322,475.796,594.322z"/>
				</g>
			</g>
			<g>
				<g>
					<path d="M345.739,620.647c-25.952,0-50.377-16.364-67.866-45.811c-18.27-30.761-23.202-66.584-11.473-83.326l2.457,1.721
						c-10.913,15.579-5.82,50.751,11.596,80.073c8.715,14.675,33.172,48.33,71.937,43.968l0.336,2.98
						C350.387,620.517,348.056,620.647,345.739,620.647z"/>
				</g>
			</g>
			<g>
				<g>
					<path d="M174.519,562.274c-18.812-21.724-16.942-62.98-9.624-91.709c6.959-27.324,19.252-47.899,31.318-52.417l1.052,2.809
						c-11.173,4.185-22.739,23.947-29.463,50.349c-7.139,28.028-9.069,68.156,8.985,89.004L174.519,562.274z"/>
				</g>
			</g>
			<g>
				<g>
					<path d="M98.658,406.158c-1.379-21.447,5.217-38.725,19.606-51.352c22.916-20.107,61.688-23.683,88.013-18.497l-0.58,2.943
						c-25.63-5.049-63.302-1.631-85.454,17.808c-13.653,11.981-19.908,28.435-18.591,48.903L98.658,406.158z"/>
				</g>
			</g>
			<g>
				<g>
					<path d="M269.951,292.765c-2.061-18.754-15.938-34.524-38.073-43.267c-24.374-9.627-59.914-9.95-84.375,11.031l-1.953-2.277
						c25.409-21.793,62.219-21.501,87.43-11.544c23.204,9.166,37.766,25.833,39.953,45.729L269.951,292.765z"/>
				</g>
			</g>
			<g>
				<g>
					<path d="M352.053,312.413l-2.293-1.935c10.813-12.822,9.914-55.062-1.817-85.278c-7.327-18.873-17.797-30.104-29.482-31.627
						l0.388-2.975c16.436,2.141,26.415,19.408,31.892,33.516C363.019,255.743,363.657,298.654,352.053,312.413z"/>
				</g>
			</g>
			<g>
				<g>
					<path d="M377.169,376.314c-0.388,0-0.773-0.006-1.16-0.018l0.087-2.998c16.432,0.452,34.55-10.009,48.479-28.05
						c17.397-22.533,24.164-50.328,17.659-72.537l2.879-0.843c6.77,23.114-0.189,51.934-18.163,75.213
						C412.758,365.463,394.235,376.313,377.169,376.314z"/>
				</g>
			</g>
			<g>
				<g>
					<path d="M387.223,469.111c-6.36,0-13.337-1.097-20.548-3.315c-20.875-6.424-37.605-20.033-42.624-34.674l2.838-0.973
						c4.717,13.762,20.681,26.629,40.668,32.779c16.176,4.978,30.954,4.107,39.533-2.328l1.801,2.4
						C403.489,467.053,395.936,469.111,387.223,469.111z"/>
				</g>
			</g>
			<g>
				<g>
					<path d="M255.076,491.093c-18.235-12.198-21.687-38.211-19.102-56.78c2.436-17.498,9.898-30.294,19.474-33.392l0.924,2.854
						c-8.345,2.7-15.185,14.85-17.427,30.952c-2.465,17.71,0.717,42.446,17.799,53.872L255.076,491.093z"/>
				</g>
			</g>
			<g>
				<g>
					<path d="M196.947,364.696l-2.888-0.812c5.687-20.24,23.865-25.638,34.194-27.055c16.625-2.277,35.443,2.68,40.268,10.612
						L265.958,349c-3.792-6.236-20.55-11.494-37.296-9.199C219.06,341.119,202.171,346.104,196.947,364.696z"/>
				</g>
			</g>
			<g>
				<g>
					<path d="M311.041,335.713l-2.628-1.447c2.362-4.29,4.512-16.901-1.227-26.612c-5.359-9.069-16.028-13.667-31.71-13.667v-3
						c16.818,0,28.356,5.094,34.293,15.142C316.194,317,313.768,330.761,311.041,335.713z"/>
				</g>
			</g>
			<g>
				<g>
					<path d="M550.203,510.075c-3.015,0-5.948-0.066-8.78-0.183c-25.972-1.066-54.003-6.895-78.931-16.409
						c-24.402-9.315-43.244-21.096-53.053-33.171l2.328-1.891c19.993,24.61,78.211,46.355,129.778,48.474
						c28.545,1.164,67.748-2.83,92.409-28.555l2.166,2.076C613.155,504.372,578.233,510.075,550.203,510.075z"/>
				</g>
			</g>
			<g>
				<g>
					<path d="M337.129,396.62c-3.141,0-5.792-0.68-7.523-2.095l1.898-2.322c2.685,2.192,11.965,2.218,21.728-3.476
						c7.41-4.321,24.076-17.674,18.816-48.263l2.957-0.509c5.578,32.441-12.312,46.727-20.262,51.364
						C348.822,394.771,342.309,396.62,337.129,396.62z"/>
				</g>
			</g>
			<g>
				<g>
					<path d="M312.039,436.456c-22.612-4.962-24.441-20.34-24.463-24.935c-0.044-9.238,5.36-17.191,12.85-18.91l0.671,2.924
						c-6.035,1.386-10.558,8.252-10.521,15.972c0.052,10.762,8.316,18.993,22.106,22.02L312.039,436.456z"/>
				</g>
			</g>
			<g>
				<g>
					<path d="M255.642,380.906l-2.943-0.578c4.071-20.729,22.104-28.599,37.13-27.135c10.943,1.064,18.585,6.841,18.585,14.048h-3
						c0-5.604-6.528-10.153-15.876-11.062C275.353,354.801,259.373,361.911,255.642,380.906z"/>
				</g>
			</g>
		</g>
	</g>
	<g>
		<g>
			<path fill="none" stroke="#231F20" stroke-width="7" stroke-miterlimit="10" d="M700.441,225.416"/>
		</g>
	</g>
	<g>
		<g>
			<g>
				<g>
					<path fill="#FFFFFF" d="M493.859,261.19c1.472,1.517,1.449,3.978-0.05,5.467l-8.131,8.035c-1.499,1.49-3.931,1.465-5.404-0.05
						l-16.618-17.131c-1.472-1.518-1.451-3.979,0.051-5.469l8.128-8.032c1.5-1.489,3.934-1.467,5.405,0.051L493.859,261.19z"/>
				</g>
				<g>
					<path d="M483.003,278.794c-1.855,0-3.588-0.732-4.88-2.062L461.504,259.6c-2.614-2.696-2.574-7.042,0.091-9.687l8.134-8.037
						c1.276-1.268,2.979-1.969,4.786-1.969c1.856,0,3.591,0.733,4.882,2.065l16.616,17.129c2.614,2.694,2.574,7.038-0.089,9.684
						l-8.137,8.04C486.512,278.093,484.811,278.794,483.003,278.794z M474.514,245.907c-0.151,0-0.371,0.04-0.564,0.231
						l-8.134,8.037c-0.327,0.325-0.332,0.91-0.006,1.247l16.617,17.13c0.204,0.209,0.448,0.241,0.575,0.241
						c0.15,0,0.37-0.04,0.562-0.23l8.137-8.041c0.326-0.324,0.331-0.908,0.005-1.244l-16.617-17.13
						C474.894,245.949,474.67,245.907,474.514,245.907z"/>
				</g>
			</g>
			<g>
				<g>
					<path fill="#FFFFFF" d="M471.672,238.823c1.474,1.517,1.449,3.978-0.051,5.467l-8.13,8.034
						c-1.498,1.49-3.933,1.466-5.403-0.051l-16.619-17.13c-1.472-1.518-1.449-3.978,0.051-5.47l8.128-8.032
						c1.502-1.489,3.934-1.466,5.405,0.052L471.672,238.823z"/>
				</g>
				<g>
					<path d="M460.817,256.427c-1.857,0-3.592-0.734-4.883-2.066l-16.617-17.129c-2.612-2.694-2.572-7.039,0.088-9.686l8.136-8.039
						c1.278-1.268,2.979-1.968,4.785-1.968c1.857,0,3.591,0.733,4.883,2.065l16.617,17.129c2.615,2.692,2.575,7.038-0.09,9.685
						l-8.136,8.04C464.327,255.725,462.626,256.427,460.817,256.427z M452.326,223.539c-0.15,0-0.371,0.04-0.564,0.232l-8.132,8.035
						c-0.326,0.325-0.332,0.911-0.006,1.248l16.618,17.13c0.205,0.211,0.448,0.243,0.575,0.243c0.149,0,0.368-0.04,0.559-0.229
						l8.138-8.041c0.327-0.325,0.333-0.908,0.007-1.243l-16.619-17.131C452.707,223.581,452.481,223.539,452.326,223.539z"/>
				</g>
			</g>
			<g>
				<g>
					<path fill="#FFFFFF" d="M435.948,208.4c1.518-1.472,3.978-1.448,5.467,0.051l8.032,8.129c1.491,1.5,1.468,3.932-0.048,5.404
						l-17.131,16.618c-1.518,1.473-3.978,1.449-5.469-0.051l-8.033-8.129c-1.488-1.5-1.466-3.932,0.052-5.404L435.948,208.4z"/>
				</g>
				<g>
					<path d="M429.561,242.693c-1.854,0-3.591-0.72-4.89-2.026l-8.039-8.135c-1.285-1.296-1.985-3.021-1.968-4.854
						c0.019-1.831,0.752-3.541,2.065-4.813l17.129-16.618c1.287-1.248,2.99-1.936,4.795-1.936c1.855,0,3.592,0.719,4.89,2.025
						l8.037,8.136c1.284,1.292,1.985,3.016,1.97,4.848c-0.017,1.831-0.749,3.542-2.062,4.817l-17.132,16.619
						C433.071,242.005,431.368,242.693,429.561,242.693z M438.654,210.312c-0.137,0-0.4,0.031-0.617,0.242l-17.13,16.618
						c-0.197,0.191-0.24,0.413-0.242,0.565c-0.001,0.153,0.037,0.377,0.231,0.573l8.037,8.132c0.215,0.217,0.486,0.25,0.628,0.25
						c0.138,0,0.4-0.032,0.617-0.243l17.132-16.618c0.195-0.19,0.238-0.413,0.24-0.565c0.001-0.153-0.038-0.376-0.231-0.571
						l-8.037-8.135C439.067,210.345,438.796,210.312,438.654,210.312z"/>
				</g>
			</g>
			<g>
				<g>
					<path fill="#FFFFFF" d="M413.526,230.681c2.919-2.917,3.978-1.448,5.467,0.051l8.032,8.129
						c1.491,1.499,1.468,3.933-0.049,5.404l-17.132,16.618c-1.517,1.473-3.866,1.551-5.468-0.05
						C402.776,259.231,399.043,245.165,413.526,230.681z"/>
				</g>
				<g>
					<path d="M407.129,265.011c-1.816,0-3.547-0.73-4.873-2.057c-2.569-2.57-6.937-18.308,9.149-34.395
						c1.098-1.098,2.809-2.556,4.985-2.556s3.562,1.418,4.479,2.357l0.252,0.257l8.038,8.135c1.284,1.291,1.986,3.015,1.97,4.847
						c-0.017,1.833-0.749,3.544-2.063,4.819l-17.132,16.618C410.623,264.31,408.916,265.011,407.129,265.011z M406.609,258.811
						c0.365,0.294,0.808,0.25,1.146-0.08l17.133-16.619c0.197-0.191,0.24-0.413,0.241-0.566c0.002-0.153-0.037-0.375-0.23-0.57
						l-8.321-8.423c-0.096-0.098-0.204-0.209-0.311-0.314c-0.157,0.126-0.363,0.307-0.619,0.563
						C403.133,245.316,405.54,256.854,406.609,258.811z"/>
				</g>
			</g>
		</g>
		<g>
			<g>
				<g>
					<path fill="#FFFFFF" d="M641.981,286.409c-2.034,0.577-3.244,2.719-2.689,4.76l3.022,11.021
						c0.554,2.042,2.672,3.238,4.706,2.659l22.956-6.526c2.033-0.579,3.244-2.72,2.69-4.762l-3.023-11.021
						c-0.556-2.039-2.672-3.237-4.706-2.658L641.981,286.409z"/>
				</g>
				<g>
					<path d="M645.98,307.995L645.98,307.995c-3.062,0-5.76-2.064-6.562-5.02l-3.021-11.012c-0.986-3.632,1.15-7.415,4.764-8.44
						l22.955-6.526c0.606-0.172,1.232-0.26,1.86-0.26c3.059,0,5.756,2.063,6.561,5.015l3.022,11.015
						c0.984,3.631-1.153,7.414-4.763,8.441l-22.957,6.527C647.234,307.907,646.608,307.995,645.98,307.995z M665.977,282.737
						c-0.073,0-0.145,0.01-0.219,0.031l-22.958,6.527c-0.45,0.128-0.736,0.636-0.614,1.088l3.021,11.014
						c0.14,0.515,0.621,0.673,0.992,0.567l22.956-6.526c0.45-0.128,0.738-0.638,0.615-1.091l-3.021-11.012
						C666.638,282.922,666.271,282.737,665.977,282.737z"/>
				</g>
			</g>
			<g>
				<g>
					<path fill="#FFFFFF" d="M672.378,278.131c-2.033,0.577-3.243,2.72-2.69,4.76l3.024,11.021c0.553,2.041,2.672,3.237,4.705,2.66
						l22.958-6.529c2.034-0.576,3.244-2.718,2.689-4.759l-3.022-11.022c-0.556-2.039-2.673-3.236-4.707-2.657L672.378,278.131z"/>
				</g>
				<g>
					<path d="M676.379,299.717L676.379,299.717c-3.063,0-5.762-2.065-6.563-5.021l-3.021-11.012
						c-0.984-3.633,1.153-7.415,4.763-8.439l22.956-6.526c0.606-0.172,1.232-0.26,1.861-0.26c3.058,0,5.756,2.062,6.561,5.015
						l3.021,11.017c0.986,3.632-1.151,7.415-4.765,8.439l-22.956,6.529C677.63,299.63,677.005,299.717,676.379,299.717z
						 M696.376,274.458c-0.073,0-0.146,0.011-0.22,0.031l-22.958,6.527c-0.45,0.128-0.737,0.637-0.614,1.089l3.021,11.012
						c0.142,0.516,0.624,0.673,0.991,0.568l22.958-6.529c0.451-0.128,0.737-0.635,0.614-1.087l-3.021-11.015
						C697.037,274.644,696.669,274.458,696.376,274.458z"/>
				</g>
			</g>
			<g>
				<g>
					<path fill="#FFFFFF" d="M718.528,269.647c-0.578-2.034-2.72-3.245-4.761-2.69l-11.021,3.023
						c-2.039,0.554-3.237,2.673-2.659,4.706l6.527,22.957c0.578,2.034,2.721,3.244,4.761,2.69l11.022-3.024
						c2.039-0.556,3.236-2.672,2.657-4.707L718.528,269.647z"/>
				</g>
				<g>
					<path d="M710.37,303.468L710.37,303.468c-3.074,0-5.806-2.059-6.642-5.006l-6.527-22.956c-0.5-1.76-0.279-3.608,0.622-5.203
						c0.901-1.596,2.37-2.739,4.137-3.218l11.014-3.021c0.592-0.161,1.195-0.242,1.801-0.242c3.071,0,5.802,2.058,6.64,5.005
						l6.525,22.956c0.501,1.759,0.281,3.606-0.619,5.201c-0.899,1.595-2.368,2.739-4.135,3.221l-11.017,3.023
						C711.576,303.388,710.973,303.468,710.37,303.468z M714.774,269.822c-0.074,0-0.147,0.01-0.22,0.03l-11.015,3.021
						c-0.272,0.074-0.418,0.248-0.493,0.381s-0.149,0.348-0.074,0.611l6.527,22.958c0.146,0.515,0.68,0.726,1.09,0.615l11.013-3.022
						c0.271-0.074,0.417-0.248,0.492-0.382c0.075-0.133,0.148-0.346,0.073-0.61l-6.525-22.957
						C715.522,270.044,715.114,269.822,714.774,269.822z"/>
				</g>
			</g>
			<g>
				<g>
					<path fill="#FFFFFF" d="M726.806,300.154c-1.069-3.988-2.72-3.244-4.76-2.69l-11.021,3.023
						c-2.041,0.554-3.237,2.673-2.658,4.706l6.526,22.956c0.577,2.034,2.573,3.277,4.761,2.691
						C721.84,330.253,732.108,319.937,726.806,300.154z"/>
				</g>
				<g>
					<path d="M718.571,333.986L718.571,333.986c-3.075,0-5.713-2.017-6.564-5.018l-6.526-22.955c-0.501-1.76-0.281-3.608,0.62-5.204
						s2.371-2.738,4.139-3.218l11.367-3.119c0.756-0.212,1.612-0.453,2.567-0.453c2.717,0,4.577,1.802,5.53,5.357
						c5.888,21.968-5.764,33.417-9.272,34.36C719.816,333.903,719.191,333.986,718.571,333.986z M723.653,300.132
						c-0.144,0.038-0.294,0.081-0.426,0.117l-11.409,3.131c-0.273,0.074-0.418,0.248-0.493,0.38s-0.149,0.347-0.073,0.611
						l6.526,22.958c0.133,0.468,0.499,0.713,0.953,0.645c1.905-1.161,9.758-9.951,5.178-27.043
						C723.814,300.58,723.727,300.321,723.653,300.132z"/>
				</g>
			</g>
		</g>
		<g>
			<g>
				<g>
					<path fill="#FFFFFF" d="M641.362,261.19c-1.472,1.517-1.449,3.978,0.052,5.467l8.129,8.035c1.499,1.49,3.934,1.465,5.405-0.05
						l16.618-17.131c1.471-1.518,1.448-3.979-0.052-5.469l-8.129-8.032c-1.499-1.489-3.932-1.467-5.406,0.051L641.362,261.19z"/>
				</g>
				<g>
					<path d="M652.219,278.794L652.219,278.794c-1.809,0-3.511-0.701-4.791-1.974l-8.124-8.029c-2.67-2.649-2.711-6.995-0.096-9.69
						l16.617-17.129c1.293-1.332,3.026-2.064,4.882-2.064c1.808,0,3.51,0.701,4.791,1.974l8.124,8.027
						c2.668,2.652,2.709,6.996,0.098,9.69l-16.619,17.132C655.809,278.062,654.075,278.794,652.219,278.794z M660.708,245.907
						c-0.155,0-0.381,0.042-0.576,0.243l-16.616,17.129c-0.326,0.336-0.32,0.919,0.012,1.249l8.125,8.03
						c0.196,0.196,0.416,0.236,0.567,0.236c0.127,0,0.371-0.031,0.576-0.242l16.617-17.13c0.325-0.335,0.319-0.921-0.014-1.252
						l-8.122-8.026C661.079,245.947,660.859,245.907,660.708,245.907z"/>
				</g>
			</g>
			<g>
				<g>
					<path fill="#FFFFFF" d="M663.548,238.823c-1.472,1.517-1.449,3.978,0.051,5.467l8.13,8.034c1.5,1.49,3.933,1.466,5.404-0.051
						l16.617-17.13c1.473-1.518,1.45-3.978-0.05-5.47l-8.13-8.032c-1.5-1.489-3.934-1.466-5.404,0.052L663.548,238.823z"/>
				</g>
				<g>
					<path d="M674.405,256.427L674.405,256.427c-1.808,0-3.509-0.701-4.79-1.974l-8.124-8.029c-2.669-2.651-2.71-6.995-0.096-9.69
						l16.618-17.13c1.29-1.331,3.023-2.065,4.881-2.065c1.808,0,3.509,0.7,4.79,1.972l8.125,8.027
						c2.67,2.656,2.708,7.001,0.094,9.694l-16.616,17.129C677.996,255.693,676.261,256.427,674.405,256.427z M682.894,223.539
						c-0.154,0-0.38,0.042-0.573,0.241l-16.619,17.131c-0.326,0.336-0.32,0.92,0.012,1.25l8.124,8.029
						c0.198,0.196,0.417,0.236,0.567,0.236c0,0,0,0,0.001,0c0.126,0,0.369-0.032,0.574-0.242l16.617-17.131
						c0.327-0.337,0.321-0.922-0.013-1.254l-8.122-8.025C683.265,223.579,683.045,223.539,682.894,223.539z"/>
				</g>
			</g>
			<g>
				<g>
					<path fill="#FFFFFF" d="M699.274,208.4c-1.518-1.472-3.977-1.448-5.468,0.051l-8.033,8.129c-1.49,1.5-1.467,3.932,0.05,5.404
						l17.131,16.618c1.516,1.473,3.977,1.449,5.467-0.051l8.035-8.129c1.488-1.5,1.465-3.932-0.052-5.404L699.274,208.4z"/>
				</g>
				<g>
					<path d="M705.66,242.693L705.66,242.693c-1.807,0-3.51-0.688-4.796-1.938l-17.129-16.616c-1.314-1.275-2.048-2.986-2.064-4.818
						c-0.017-1.832,0.685-3.555,1.975-4.854l8.027-8.124c1.304-1.312,3.04-2.031,4.896-2.031c1.805,0,3.508,0.688,4.795,1.936
						l17.13,16.618c1.313,1.275,2.046,2.986,2.063,4.817s-0.682,3.554-1.97,4.853l-8.031,8.125
						C709.252,241.973,707.515,242.693,705.66,242.693z M696.568,210.312c-0.143,0-0.413,0.033-0.634,0.255l-8.027,8.124
						c-0.199,0.2-0.238,0.423-0.236,0.575c0.001,0.153,0.045,0.375,0.242,0.567l17.131,16.618c0.218,0.211,0.479,0.243,0.616,0.243
						l0,0c0.143,0,0.413-0.033,0.633-0.255l8.03-8.124c0.196-0.198,0.235-0.421,0.234-0.574c-0.002-0.153-0.045-0.376-0.243-0.568
						l-17.129-16.618C696.968,210.343,696.705,210.312,696.568,210.312z"/>
				</g>
			</g>
			<g>
				<g>
					<path fill="#FFFFFF" d="M721.697,230.681c-2.918-2.917-3.978-1.448-5.467,0.051l-8.035,8.129
						c-1.489,1.499-1.466,3.933,0.051,5.404l17.131,16.618c1.518,1.473,3.866,1.551,5.469-0.05
						C732.446,259.231,736.179,245.165,721.697,230.681z"/>
				</g>
				<g>
					<path d="M728.092,265.011L728.092,265.011c-1.786,0-3.493-0.702-4.805-1.975l-17.131-16.617
						c-1.313-1.274-2.047-2.985-2.063-4.817c-0.018-1.832,0.684-3.556,1.973-4.854l8.288-8.387c0.917-0.938,2.304-2.356,4.479-2.356
						c2.177,0,3.887,1.458,4.984,2.556c16.085,16.087,11.718,31.825,9.149,34.395C731.639,264.281,729.909,265.011,728.092,265.011z
						 M718.956,232.239c-0.105,0.105-0.216,0.218-0.312,0.315l-8.315,8.416c-0.198,0.2-0.237,0.422-0.235,0.575
						c0.001,0.153,0.044,0.375,0.241,0.567l17.131,16.618c0.187,0.181,0.409,0.281,0.627,0.281l0,0c0.18,0,0.354-0.067,0.521-0.2
						c1.069-1.958,3.474-13.495-9.038-26.009C719.319,232.545,719.114,232.365,718.956,232.239z"/>
				</g>
			</g>
		</g>
		<g>
			<g>
				<g>
					<path fill="#FFFFFF" d="M609.447,229.945c-1.947,1.494-2.316,4.307-0.822,6.252l13.352,17.391
						c1.494,1.946,4.309,2.314,6.253,0.822l21.959-16.86c1.944-1.494,2.315-4.307,0.821-6.254l-13.351-17.39
						c-1.494-1.945-4.308-2.315-6.253-0.822L609.447,229.945z"/>
				</g>
				<g>
					<path d="M625.523,258.327C625.522,258.327,625.522,258.327,625.523,258.327c-2.346,0-4.506-1.062-5.927-2.912l-13.352-17.391
						c-1.21-1.577-1.734-3.535-1.474-5.513c0.26-1.979,1.271-3.735,2.85-4.946l21.958-16.861c1.311-1.006,2.879-1.537,4.534-1.537
						c2.346,0,4.505,1.062,5.926,2.912l13.352,17.389c2.503,3.263,1.887,7.955-1.373,10.46l-21.961,16.861
						C628.746,257.795,627.178,258.327,625.523,258.327z M634.113,215.167c-0.226,0-0.562,0.051-0.881,0.296l-21.958,16.861
						c-0.413,0.317-0.524,0.743-0.555,0.968c-0.029,0.226-0.032,0.665,0.284,1.077l13.353,17.391
						c0.275,0.359,0.701,0.565,1.166,0.565l0,0c0.226,0,0.562-0.051,0.881-0.296l21.959-16.86c0.627-0.482,0.75-1.42,0.269-2.048
						l-13.352-17.389C635.003,215.374,634.578,215.167,634.113,215.167z"/>
				</g>
			</g>
			<g>
				<g>
					<path fill="#FFFFFF" d="M629.046,212.863c-1.257,2.106-0.56,4.857,1.546,6.112l18.836,11.223
						c2.107,1.255,4.857,0.558,6.114-1.55l14.17-23.782c1.257-2.107,0.559-4.857-1.548-6.113l-18.835-11.222
						c-2.106-1.256-4.86-0.56-6.113,1.547L629.046,212.863z"/>
				</g>
				<g>
					<path d="M651.698,233.823L651.698,233.823c-1.339,0-2.654-0.362-3.805-1.047l-18.836-11.223
						c-1.708-1.017-2.918-2.643-3.407-4.578c-0.49-1.936-0.198-3.941,0.82-5.648l14.169-23.783c1.333-2.243,3.793-3.637,6.419-3.637
						c1.34,0,2.657,0.363,3.808,1.049l18.834,11.221c1.708,1.018,2.918,2.644,3.408,4.578c0.49,1.936,0.199,3.942-0.819,5.65
						l-14.169,23.781C656.782,232.429,654.321,233.823,651.698,233.823z M647.058,189.906c-0.408,0-0.954,0.186-1.263,0.706
						L631.623,214.4c-0.267,0.447-0.213,0.884-0.157,1.104c0.056,0.221,0.216,0.63,0.661,0.896l18.836,11.223
						c0.225,0.134,0.472,0.202,0.734,0.202c0.408,0,0.956-0.187,1.268-0.71l14.17-23.782c0.267-0.446,0.212-0.883,0.156-1.103
						c-0.056-0.221-0.217-0.631-0.663-0.898l-18.834-11.221C647.568,189.974,647.321,189.906,647.058,189.906z"/>
				</g>
			</g>
			<g>
				<g>
					<g>
						<path fill="#FFFFFF" d="M644.519,168.322c2.03-15.464-6.163-49.721,12.294-47.296c-2.16,16.445-0.21,25.747,3.327,31.35
							L644.519,168.322z"/>
					</g>
					<g>
						<path d="M640.376,176.839l1.169-8.907c0.522-3.981,0.318-9.467,0.103-15.275c-0.461-12.399-0.938-25.219,4.959-31.341
							c2.63-2.729,6.213-3.84,10.598-3.264l2.975,0.391l-0.391,2.974c-1.788,13.611-0.815,23.488,2.89,29.359l1.266,2.006
							L640.376,176.839z M653.435,124.068c-0.995,0.226-1.813,0.689-2.508,1.411c-4.128,4.284-3.66,16.854-3.284,26.955
							c0.105,2.831,0.208,5.589,0.228,8.181l8.556-8.733C653.168,145.335,652.184,136.182,653.435,124.068z"/>
					</g>
				</g>
				<g>
					<g>
						<path fill="#FFFFFF" d="M678.36,167.414c2.28-17.364,15.605-44.704-10.839-48.179c-7.441,56.649-21.275,31.268-23.556,48.632
							c-2.28,17.365-12.488,25.37,13.389,28.77C683.229,200.037,676.08,184.777,678.36,167.414z"/>
					</g>
					<g>
						<path d="M663.877,200.116C663.876,200.116,663.878,200.116,663.877,200.116c-2.046,0-4.372-0.169-6.914-0.503
							c-10.316-1.356-15.792-3.546-18.311-7.323c-2.732-4.098-1.415-8.972,0.111-14.615c0.809-2.994,1.727-6.386,2.227-10.197
							c0.979-7.457,4.09-9.06,8.054-10.381c4.363-1.454,10.958-3.651,15.502-38.251l0.391-2.975l2.975,0.391
							c7.183,0.944,12.382,3.671,15.451,8.106c5.805,8.386,2.854,21.036,0.25,32.197c-0.942,4.042-1.834,7.861-2.277,11.241
							c-0.479,3.652-0.522,7.208-0.563,10.647C680.645,189.102,680.512,200.116,663.877,200.116z M670.068,122.741
							c-4.659,32.591-11.706,37.575-19.127,40.047c-2.568,0.856-3.434,1.144-4.002,5.47c-0.553,4.208-1.525,7.807-2.384,10.981
							c-1.191,4.407-2.133,7.889-0.911,9.721c1.382,2.072,6.126,3.654,14.1,4.702c2.284,0.3,4.348,0.453,6.133,0.453
							c10.19,0,10.757-4.043,10.896-15.735c0.041-3.446,0.088-7.352,0.613-11.357c0.482-3.674,1.406-7.632,2.384-11.823
							c2.32-9.947,4.95-21.22,0.66-27.419C676.731,125.33,673.982,123.667,670.068,122.741z"/>
					</g>
				</g>
			</g>
		</g>
		<g>
			<g>
				<g>
					<path fill="#FFFFFF" d="M525.11,229.945c1.947,1.494,2.316,4.307,0.823,6.252l-13.353,17.391
						c-1.494,1.946-4.308,2.314-6.253,0.822l-21.961-16.86c-1.944-1.494-2.315-4.307-0.818-6.254l13.349-17.39
						c1.494-1.945,4.309-2.315,6.253-0.822L525.11,229.945z"/>
				</g>
				<g>
					<path d="M509.035,258.327c-1.655,0-3.223-0.531-4.533-1.536L482.54,239.93c-3.263-2.508-3.876-7.201-1.368-10.462
						l13.347-17.388c1.422-1.851,3.582-2.912,5.927-2.912c1.655,0,3.223,0.531,4.533,1.537l21.96,16.861
						c3.262,2.504,3.879,7.196,1.375,10.458l-13.353,17.391C513.539,257.266,511.379,258.327,509.035,258.327z M500.445,215.167
						c-0.466,0-0.892,0.206-1.168,0.566l-13.348,17.389c-0.483,0.629-0.361,1.566,0.266,2.049l21.96,16.859
						c0.318,0.245,0.654,0.296,0.88,0.296c0.465,0,0.891-0.206,1.166-0.566l13.353-17.391c0.481-0.626,0.358-1.563-0.27-2.045
						l-21.96-16.861C501.005,215.219,500.67,215.167,500.445,215.167z"/>
				</g>
			</g>
			<g>
				<g>
					<path fill="#FFFFFF" d="M505.511,212.863c1.257,2.106,0.561,4.857-1.547,6.112l-18.833,11.223
						c-2.109,1.255-4.86,0.558-6.117-1.55l-14.17-23.782c-1.256-2.107-0.558-4.857,1.549-6.113l18.834-11.222
						c2.106-1.256,4.858-0.56,6.111,1.547L505.511,212.863z"/>
				</g>
				<g>
					<path d="M482.86,233.823c-2.624,0-5.085-1.395-6.422-3.639l-14.17-23.782c-1.018-1.707-1.309-3.713-0.818-5.648
						c0.49-1.935,1.701-3.56,3.408-4.578l18.835-11.222c1.149-0.686,2.466-1.048,3.807-1.048c2.625,0,5.084,1.395,6.419,3.64
						l14.17,23.782c1.018,1.706,1.31,3.712,0.819,5.647c-0.49,1.936-1.7,3.562-3.408,4.579l-18.832,11.222
						C485.515,233.461,484.199,233.823,482.86,233.823z M487.5,189.906c-0.263,0-0.51,0.068-0.735,0.202L467.93,201.33
						c-0.446,0.267-0.607,0.677-0.663,0.897s-0.11,0.657,0.155,1.102l14.171,23.784c0.312,0.523,0.859,0.71,1.268,0.71
						c0.264,0,0.512-0.068,0.737-0.203l18.831-11.222c0.447-0.266,0.607-0.675,0.663-0.896s0.109-0.657-0.156-1.103l-14.173-23.786
						C488.452,190.091,487.906,189.906,487.5,189.906z"/>
				</g>
			</g>
			<g>
				<g>
					<g>
						<path fill="#FFFFFF" d="M490.04,168.322c-2.032-15.464,6.161-49.721-12.296-47.296c2.161,16.445,0.21,25.747-3.327,31.35
							L490.04,168.322z"/>
					</g>
					<g>
						<path d="M494.185,176.839l-23.571-24.058l1.266-2.006c3.706-5.872,4.679-15.749,2.89-29.358l-0.391-2.975l2.975-0.391
							c4.387-0.574,7.967,0.535,10.597,3.264c5.897,6.12,5.421,18.94,4.961,31.338c-0.216,5.809-0.42,11.296,0.104,15.277
							L494.185,176.839z M478.13,151.881l8.557,8.733c0.02-2.593,0.122-5.351,0.228-8.183c0.375-10.1,0.842-22.668-3.285-26.952
							c-0.696-0.722-1.513-1.185-2.507-1.411C482.374,136.182,481.39,145.334,478.13,151.881z"/>
					</g>
				</g>
				<g>
					<g>
						<path fill="#FFFFFF" d="M456.197,167.414c-2.281-17.364-15.605-44.704,10.84-48.179c7.441,56.649,21.275,31.268,23.557,48.632
							c2.28,17.365,12.487,25.37-13.39,28.77C451.327,200.037,458.477,184.777,456.197,167.414z"/>
					</g>
					<g>
						<path d="M470.68,200.116c-16.638,0-16.769-11.014-16.896-21.664c-0.04-3.439-0.083-6.995-0.563-10.647
							c-0.443-3.379-1.334-7.197-2.277-11.238c-2.604-11.162-5.556-23.813,0.25-32.199c3.07-4.435,8.269-7.163,15.451-8.106
							l2.975-0.391l0.391,2.975c4.545,34.6,11.139,36.797,15.502,38.251c3.965,1.321,7.075,2.924,8.055,10.381
							c0.5,3.81,1.417,7.203,2.227,10.196c1.525,5.644,2.844,10.518,0.11,14.616c-2.518,3.777-7.994,5.967-18.311,7.323
							C475.052,199.946,472.726,200.116,470.68,200.116z M464.489,122.741c-3.914,0.927-6.663,2.589-8.36,5.041
							c-4.291,6.199-1.661,17.474,0.659,27.421c0.978,4.19,1.901,8.147,2.384,11.82c0.525,4.005,0.572,7.911,0.613,11.357
							c0.139,11.692,0.705,15.735,10.896,15.735c1.785,0,3.849-0.152,6.133-0.453c7.975-1.048,12.719-2.63,14.101-4.703
							c1.222-1.833,0.28-5.314-0.911-9.721c-0.858-3.175-1.831-6.773-2.384-10.981c-0.568-4.326-1.434-4.614-4.002-5.47
							C476.195,160.315,469.148,155.332,464.489,122.741z"/>
					</g>
				</g>
			</g>
		</g>
		<g>
			<g>
				<path fill="#FFFFFF" d="M657.22,323.552c0-56.03-27.403-95.023-89.941-95.023s-89.94,38.993-89.94,95.023"/>
			</g>
			<g>
				<path d="M660.22,323.552h-6c0-59.342-30.876-92.023-86.941-92.023c-56.064,0-86.94,32.681-86.94,92.023h-6
					c0-29.91,7.489-53.629,22.261-70.499c15.991-18.264,39.771-27.524,70.68-27.524s54.688,9.26,70.68,27.524
					C652.73,269.924,660.22,293.643,660.22,323.552z"/>
			</g>
		</g>
		<g>
			<g>
				<g>
					<polyline fill="#FFFFFF" points="553.811,248.174 553.811,209.782 537.962,209.782 537.962,248.174 					"/>
				</g>
				<g>
					<polygon points="556.811,248.174 550.811,248.174 550.811,212.782 540.961,212.782 540.961,248.174 534.961,248.174 
						534.961,206.782 556.811,206.782 					"/>
				</g>
			</g>
			<g>
				<g>
					<path fill="#FFFFFF" d="M559.651,204.498c0-7.599-6.162-13.764-13.763-13.764c-7.604,0-13.764,6.165-13.764,13.764
						c0,7.602,6.16,13.767,13.764,13.767C553.489,218.265,559.651,212.1,559.651,204.498"/>
				</g>
				<g>
					<path d="M545.888,221.265c-9.243,0-16.764-7.521-16.764-16.767c0-9.244,7.521-16.764,16.764-16.764s16.763,7.52,16.763,16.764
						C562.651,213.744,555.131,221.265,545.888,221.265z M545.888,193.734c-5.936,0-10.764,4.829-10.764,10.764
						c0,5.937,4.828,10.767,10.764,10.767c5.935,0,10.763-4.83,10.763-10.767C556.651,198.563,551.823,193.734,545.888,193.734z"/>
				</g>
			</g>
			<g>
				<g>
					<polyline fill="#FFFFFF" points="596.594,246.082 596.594,207.691 580.745,207.691 580.745,246.082 					"/>
				</g>
				<g>
					<polygon points="599.594,246.082 593.594,246.082 593.594,210.691 583.745,210.691 583.745,246.082 577.745,246.082 
						577.745,204.691 599.594,204.691 					"/>
				</g>
			</g>
			<g>
				<g>
					<path fill="#FFFFFF" d="M602.434,202.408c0-7.6-6.162-13.767-13.765-13.767c-7.602,0-13.763,6.166-13.763,13.767
						s6.162,13.765,13.763,13.765C596.272,216.173,602.434,210.009,602.434,202.408"/>
				</g>
				<g>
					<path d="M588.669,219.173c-9.243,0-16.763-7.521-16.763-16.765c0-9.245,7.52-16.767,16.763-16.767
						c9.244,0,16.765,7.521,16.765,16.767C605.434,211.652,597.914,219.173,588.669,219.173z M588.669,191.642
						c-5.935,0-10.763,4.83-10.763,10.767c0,5.936,4.828,10.765,10.763,10.765c5.936,0,10.765-4.829,10.765-10.765
						C599.434,196.472,594.605,191.642,588.669,191.642z"/>
				</g>
			</g>
		</g>
	</g>
	<g>
		<g>
			<path d="M386.66,133.887c-2.854,0-5.175-2.322-5.175-5.176c0-2.854,2.321-5.175,5.175-5.175s5.175,2.322,5.175,5.175
				C391.835,131.565,389.513,133.887,386.66,133.887z M386.66,127.887c-0.455,0-0.826,0.37-0.826,0.824s0.371,0.825,0.826,0.825
				s0.825-0.37,0.825-0.825S387.115,127.887,386.66,127.887z"/>
		</g>
	</g>
	<g>
		<g>
			<path d="M177.11,156.727c-2.854,0-5.175-2.322-5.175-5.175s2.321-5.175,5.175-5.175s5.175,2.322,5.175,5.175
				S179.964,156.727,177.11,156.727z M177.11,150.727c-0.455,0-0.825,0.37-0.825,0.825s0.37,0.825,0.825,0.825
				s0.825-0.37,0.825-0.825S177.566,150.727,177.11,150.727z"/>
		</g>
	</g>
	<g>
		<g>
			<path d="M58.469,143.131c-2.854,0-5.175-2.322-5.175-5.175s2.321-5.175,5.175-5.175s5.175,2.321,5.175,5.175
				S61.322,143.131,58.469,143.131z M58.469,137.131c-0.455,0-0.825,0.37-0.825,0.825s0.37,0.825,0.825,0.825
				s0.825-0.37,0.825-0.825C59.294,137.501,58.924,137.131,58.469,137.131z"/>
		</g>
	</g>
	<g>
		<g>
			<path d="M299.741,79.052c-2.854,0-5.175-2.322-5.175-5.175s2.321-5.175,5.175-5.175s5.175,2.322,5.175,5.175
				S302.594,79.052,299.741,79.052z M299.741,73.052c-0.455,0-0.825,0.37-0.825,0.825s0.37,0.825,0.825,0.825
				s0.825-0.37,0.825-0.825S300.196,73.052,299.741,73.052z"/>
		</g>
	</g>
	<g>
		<g>
			<path d="M211.915,77.511c-2.854,0-5.175-2.322-5.175-5.175s2.321-5.175,5.175-5.175s5.175,2.321,5.175,5.175
				S214.769,77.511,211.915,77.511z M211.915,71.511c-0.455,0-0.825,0.37-0.825,0.825c0,0.455,0.37,0.825,0.825,0.825
				s0.825-0.37,0.825-0.825C212.74,71.881,212.37,71.511,211.915,71.511z"/>
		</g>
	</g>
	<g>
		<g>
			<path d="M738.596,444.222c-2.854,0-5.175-2.321-5.175-5.175s2.321-5.175,5.175-5.175c2.853,0,5.174,2.321,5.174,5.175
				S741.449,444.222,738.596,444.222z M738.596,438.222c-0.455,0-0.826,0.37-0.826,0.825s0.371,0.825,0.826,0.825
				s0.825-0.37,0.825-0.825S739.051,438.222,738.596,438.222z"/>
		</g>
	</g>
	<g>
		<g>
			<path d="M214.09,722.473c-2.854,0-5.175-2.322-5.175-5.176s2.321-5.175,5.175-5.175c2.853,0,5.174,2.321,5.174,5.175
				S216.943,722.473,214.09,722.473z M214.09,716.473c-0.456,0-0.826,0.37-0.826,0.824c0,0.455,0.371,0.825,0.826,0.825
				s0.825-0.37,0.825-0.825C214.915,716.843,214.545,716.473,214.09,716.473z"/>
		</g>
	</g>
	<g>
		<g>
			<path d="M480.648,640.811c-2.854,0-5.175-2.322-5.175-5.176s2.321-5.175,5.175-5.175s5.175,2.321,5.175,5.175
				S483.502,640.811,480.648,640.811z M480.648,634.811c-0.455,0-0.825,0.37-0.825,0.824c0,0.455,0.37,0.825,0.825,0.825
				s0.825-0.37,0.825-0.825C481.473,635.181,481.103,634.811,480.648,634.811z"/>
		</g>
	</g>
	<g>
		<g>
			<path d="M549.078,112.95c-2.854,0-5.175-2.322-5.175-5.175s2.321-5.175,5.175-5.175c2.853,0,5.174,2.322,5.174,5.175
				S551.93,112.95,549.078,112.95z M549.078,106.95c-0.455,0-0.826,0.37-0.826,0.825s0.371,0.825,0.826,0.825
				s0.825-0.37,0.825-0.825S549.533,106.95,549.078,106.95z"/>
		</g>
	</g>
	<g>
		<g>
			<path d="M22.397,441.141c-2.854,0-5.175-2.322-5.175-5.176s2.321-5.175,5.175-5.175c2.853,0,5.174,2.321,5.174,5.175
				S25.25,441.141,22.397,441.141z M22.397,435.141c-0.455,0-0.826,0.37-0.826,0.824c0,0.455,0.371,0.825,0.826,0.825
				s0.825-0.37,0.825-0.825C23.222,435.511,22.852,435.141,22.397,435.141z"/>
		</g>
	</g>
	<g>
		<g>
			<path d="M53.846,363.466c-2.854,0-5.175-2.322-5.175-5.175s2.321-5.175,5.175-5.175c2.853,0,5.174,2.321,5.174,5.175
				S56.699,363.466,53.846,363.466z M53.846,357.466c-0.455,0-0.826,0.37-0.826,0.825c0,0.455,0.371,0.825,0.826,0.825
				s0.825-0.37,0.825-0.825S54.301,357.466,53.846,357.466z"/>
		</g>
	</g>
	<g>
		<g>
			<path d="M741.952,202.316c-2.854,0-5.176-2.322-5.176-5.175s2.322-5.175,5.176-5.175c2.853,0,5.174,2.322,5.174,5.175
				S744.804,202.316,741.952,202.316z M741.952,196.316c-0.455,0-0.826,0.37-0.826,0.825s0.371,0.825,0.826,0.825
				c0.454,0,0.824-0.37,0.824-0.825S742.406,196.316,741.952,196.316z"/>
		</g>
	</g>
	<g>
		<g>
			<path d="M695.727,60.563c-2.854,0-5.175-2.322-5.175-5.175s2.321-5.175,5.175-5.175c2.853,0,5.174,2.322,5.174,5.175
				S698.58,60.563,695.727,60.563z M695.727,54.563c-0.455,0-0.826,0.37-0.826,0.825s0.371,0.825,0.826,0.825
				s0.825-0.37,0.825-0.825S696.182,54.563,695.727,54.563z"/>
		</g>
	</g>
	<g>
		<g>
			<path d="M122.56,623.187L122.56,623.187c-2.651,0-4.863-1.989-5.144-4.627c-0.303-2.836,1.758-5.391,4.594-5.695
				c2.89-0.303,5.396,1.778,5.696,4.597c0.303,2.837-1.758,5.392-4.595,5.696C122.925,623.177,122.741,623.187,122.56,623.187z
				 M122.56,617.187l-0.085,0.004c-0.454,0.049-0.783,0.456-0.734,0.907c0.045,0.42,0.399,0.737,0.823,0.737
				c0.538-0.053,0.866-0.46,0.818-0.912C123.337,617.503,122.983,617.187,122.56,617.187z"/>
		</g>
	</g>
	<g>
		<g>
			<path d="M365.316,716.025c-2.649,0-4.86-1.988-5.143-4.625c-0.303-2.838,1.758-5.393,4.595-5.697
				c2.923-0.305,5.395,1.779,5.696,4.597c0.303,2.837-1.758,5.392-4.595,5.696C365.684,716.016,365.499,716.025,365.316,716.025z
				 M365.316,710.025l-0.086,0.004c-0.452,0.049-0.78,0.456-0.731,0.908c0.045,0.421,0.398,0.736,0.822,0.736
				c0.539-0.053,0.867-0.46,0.819-0.911C366.095,710.342,365.741,710.025,365.316,710.025z"/>
		</g>
	</g>
	<g>
		<g>
			<path d="M207.927,25.547c-7.042,0-12.772-5.73-12.772-12.773S200.884,0,207.927,0c7.042,0,12.771,5.73,12.771,12.774
				S214.969,25.547,207.927,25.547z M207.927,6c-3.734,0-6.772,3.039-6.772,6.774s3.038,6.773,6.772,6.773
				c3.733,0,6.771-3.039,6.771-6.773C214.698,9.039,211.66,6,207.927,6z"/>
		</g>
	</g>
	<g>
		<g>
			<path d="M696.361,648.514c-4.591,0-8.325-3.734-8.325-8.325c0-4.591,3.734-8.326,8.325-8.326c4.59,0,8.324,3.735,8.324,8.326
				C704.685,644.78,700.951,648.514,696.361,648.514z M696.361,637.862c-1.282,0-2.325,1.044-2.325,2.326s1.043,2.325,2.325,2.325
				c1.281,0,2.324-1.043,2.324-2.325S697.642,637.862,696.361,637.862z"/>
		</g>
	</g>
	<g>
		<g>
			<path d="M583.882,707.064c-5.426,0-9.841-4.415-9.841-9.842c0-5.426,4.415-9.841,9.841-9.841c5.425,0,9.839,4.415,9.839,9.841
				C593.721,702.649,589.307,707.064,583.882,707.064z M583.882,693.382c-2.118,0-3.841,1.723-3.841,3.841
				c0,2.118,1.723,3.842,3.841,3.842c2.117,0,3.839-1.724,3.839-3.842S586,693.382,583.882,693.382z"/>
		</g>
	</g>
	<g>
		<g>
			<path d="M480.81,47.669c-4.729,0-8.576-3.848-8.576-8.578c0-4.729,3.848-8.577,8.576-8.577s8.576,3.848,8.576,8.577
				C489.386,43.821,485.539,47.669,480.81,47.669z M480.81,36.514c-1.421,0-2.576,1.156-2.576,2.577s1.155,2.578,2.576,2.578
				s2.576-1.157,2.576-2.578C483.386,37.67,482.231,36.514,480.81,36.514z"/>
		</g>
	</g>
	<g>
		<g>
			<path d="M386.083,26.094c-6.047,0-10.966-4.92-10.966-10.968s4.919-10.968,10.966-10.968s10.966,4.92,10.966,10.968
				S392.129,26.094,386.083,26.094z M386.083,10.158c-2.738,0-4.966,2.229-4.966,4.968s2.228,4.968,4.966,4.968
				s4.966-2.229,4.966-4.968S388.821,10.158,386.083,10.158z"/>
		</g>
	</g>
	<g>
		<g>
			<path d="M271.065,109.297c-5.264,0-9.546-4.283-9.546-9.547s4.282-9.547,9.546-9.547c5.263,0,9.545,4.283,9.545,9.547
				S276.328,109.297,271.065,109.297z M271.065,96.204c-1.955,0-3.546,1.591-3.546,3.547s1.591,3.547,3.546,3.547
				s3.545-1.591,3.545-3.547S273.02,96.204,271.065,96.204z"/>
		</g>
	</g>
	<g>
		<g>
			<path d="M99.544,222.241c-7.042,0-12.771-5.73-12.771-12.773s5.729-12.773,12.771-12.773s12.771,5.73,12.771,12.773
				S106.586,222.241,99.544,222.241z M99.544,202.694c-3.734,0-6.771,3.039-6.771,6.773s3.038,6.773,6.771,6.773
				s6.771-3.039,6.771-6.773S103.278,202.694,99.544,202.694z"/>
		</g>
	</g>
	<g>
		<g>
			<path d="M446.751,710.146c-7.042,0-12.771-5.73-12.771-12.773c0-7.043,5.729-12.773,12.771-12.773s12.771,5.73,12.771,12.773
				C459.522,704.416,453.793,710.146,446.751,710.146z M446.751,690.6c-3.733,0-6.771,3.038-6.771,6.773s3.038,6.773,6.771,6.773
				s6.771-3.038,6.771-6.773S450.484,690.6,446.751,690.6z"/>
		</g>
	</g>
	<g>
		<g>
			<path d="M312.701,740.962c-5.264,0-9.546-4.282-9.546-9.547c0-5.264,4.282-9.547,9.546-9.547c5.263,0,9.545,4.283,9.545,9.547
				C322.247,736.68,317.964,740.962,312.701,740.962z M312.701,727.868c-1.955,0-3.546,1.591-3.546,3.547
				c0,1.956,1.591,3.547,3.546,3.547s3.545-1.591,3.545-3.547C316.246,729.459,314.656,727.868,312.701,727.868z"/>
		</g>
	</g>
	<g>
		<g>
			<path d="M520.327,109.617c-5.263,0-9.545-4.283-9.545-9.547s4.282-9.547,9.545-9.547c5.264,0,9.546,4.283,9.546,9.547
				S525.59,109.617,520.327,109.617z M520.327,96.523c-1.955,0-3.545,1.591-3.545,3.547s1.59,3.547,3.545,3.547
				s3.546-1.591,3.546-3.547S522.282,96.523,520.327,96.523z"/>
		</g>
	</g>
	<g>
		<g>
			<path d="M9.211,303.423c-5.079,0-9.21-4.132-9.21-9.211S4.132,285,9.211,285c5.078,0,9.209,4.132,9.209,9.211
				S14.289,303.423,9.211,303.423z M9.211,291c-1.77,0-3.21,1.44-3.21,3.211s1.44,3.211,3.21,3.211s3.209-1.44,3.209-3.211
				S10.98,291,9.211,291z"/>
		</g>
	</g>
	<g>
		<g>
			<path d="M709.526,145.375c-4.591,0-8.325-3.735-8.325-8.326s3.734-8.326,8.325-8.326c4.59,0,8.324,3.735,8.324,8.326
				S714.116,145.375,709.526,145.375z M709.526,134.724c-1.282,0-2.325,1.043-2.325,2.326s1.043,2.326,2.325,2.326
				c1.281,0,2.324-1.043,2.324-2.326S710.807,134.724,709.526,134.724z"/>
		</g>
	</g>
	<g>
		<g>
			<path d="M117.126,688.683c-6.811,0-12.351-5.541-12.351-12.353s5.541-12.353,12.351-12.353s12.351,5.541,12.351,12.353
				S123.936,688.683,117.126,688.683z M117.126,669.978c-3.502,0-6.351,2.85-6.351,6.353s2.849,6.353,6.351,6.353
				s6.351-2.85,6.351-6.353S120.628,669.978,117.126,669.978z"/>
		</g>
	</g>
	<g>
		<g>
			<path d="M303.456,663.743c-4.153,0-7.532-3.379-7.532-7.533c0-4.153,3.379-7.532,7.532-7.532s7.532,3.379,7.532,7.532
				C310.988,660.364,307.609,663.743,303.456,663.743z M303.456,654.678c-0.845,0-1.532,0.688-1.532,1.532
				c0,0.846,0.688,1.533,1.532,1.533s1.532-0.688,1.532-1.533C304.988,655.365,304.301,654.678,303.456,654.678z"/>
		</g>
	</g>
	<g>
		<g>
			<path d="M692.273,561.694c-3.908,0-7.087-3.18-7.087-7.088c0-3.908,3.179-7.088,7.087-7.088s7.088,3.18,7.088,7.088
				C699.361,558.514,696.181,561.694,692.273,561.694z M692.273,553.519c-0.6,0-1.087,0.488-1.087,1.088
				c0,0.6,0.487,1.088,1.087,1.088s1.088-0.488,1.088-1.088S692.873,553.519,692.273,553.519z"/>
		</g>
	</g>
	<g>
		<g>
			<path d="M131.466,117.473c-3.908,0-7.087-3.18-7.087-7.088s3.179-7.088,7.087-7.088c3.908,0,7.087,3.18,7.087,7.088
				S135.375,117.473,131.466,117.473z M131.466,109.297c-0.6,0-1.087,0.488-1.087,1.088s0.488,1.088,1.087,1.088
				s1.087-0.488,1.087-1.088S132.066,109.297,131.466,109.297z"/>
		</g>
	</g>
	<g>
		<g>
			<path d="M325.563,145.678c-3.908,0-7.087-3.18-7.087-7.088s3.179-7.088,7.087-7.088c3.908,0,7.087,3.18,7.087,7.088
				S329.471,145.678,325.563,145.678z M325.563,137.502c-0.599,0-1.087,0.488-1.087,1.088s0.488,1.088,1.087,1.088
				c0.6,0,1.087-0.488,1.087-1.088S326.162,137.502,325.563,137.502z"/>
		</g>
	</g>
	<g>
		<g>
			<path d="M771.325,364.472c-3.908,0-7.087-3.18-7.087-7.088s3.179-7.088,7.087-7.088s7.087,3.18,7.087,7.088
				S775.233,364.472,771.325,364.472z M771.325,356.296c-0.6,0-1.087,0.488-1.087,1.088s0.487,1.088,1.087,1.088
				s1.087-0.488,1.087-1.088S771.924,356.296,771.325,356.296z"/>
		</g>
	</g>
	<g>
		<g>
			<path d="M170.412,675.714c-3.908,0-7.087-3.18-7.087-7.088c0-3.908,3.179-7.088,7.087-7.088s7.087,3.18,7.087,7.088
				C177.499,672.534,174.32,675.714,170.412,675.714z M170.412,667.538c-0.6,0-1.087,0.488-1.087,1.088
				c0,0.6,0.488,1.088,1.087,1.088s1.087-0.488,1.087-1.088C171.499,668.026,171.012,667.538,170.412,667.538z"/>
		</g>
	</g>
	<g>
		<g>
			<path d="M56.928,474.403c-3.908,0-7.088-3.18-7.088-7.088s3.18-7.088,7.088-7.088s7.087,3.18,7.087,7.088
				S60.836,474.403,56.928,474.403z M56.928,466.228c-0.6,0-1.088,0.488-1.088,1.088s0.488,1.088,1.088,1.088
				c0.599,0,1.087-0.488,1.087-1.088S57.527,466.228,56.928,466.228z"/>
		</g>
	</g>
	<g>
		<g>
			<g>
				<path d="M608.566,69.21c-2.508,0-5.152-0.351-7.893-1.118c-14.105-3.951-24.742-17.32-21.888-27.511
					c3.005-10.729,18.38-12.479,32.018-8.658c6.771,1.896,12.228,4.915,15.78,8.729c3.957,4.249,5.356,9.37,3.941,14.42
					l-0.651-0.183C627.705,62.636,619.426,69.209,608.566,69.21z M598.041,36.085c-7.024,0-12.38,2.196-13.478,6.114
					c-1.734,6.192,6.265,16.904,17.729,20.115c11.039,3.089,19.912-2.288,21.805-9.042l1.823,0.511l-1.172-0.329
					c0.853-3.044-0.007-5.976-2.556-8.712c-2.761-2.964-7.38-5.465-13.007-7.042C605.275,36.606,601.46,36.085,598.041,36.085z"/>
			</g>
		</g>
	</g>
	<g>
		<g>
			<g>
				<path d="M532.696,693.167c-0.887,0-1.781-0.083-2.684-0.251c-5.796-1.077-11.385-5.747-14.948-12.493
					c-5.944-11.25-4.02-23.972,4.79-31.654l0.368,0.422c5.392-4.654,12.114-6.778,18.017-5.682
					c4.931,0.916,8.856,3.898,11.353,8.624c5.773,10.928,2.448,28.922-6.843,37.026C539.713,691.807,536.28,693.167,532.696,693.167
					z M523.699,653.377c-6.687,5.912-7.996,15.412-3.33,24.243c2.715,5.139,6.73,8.652,10.74,9.397
					c2.715,0.505,5.306-0.295,7.696-2.38c7.179-6.263,9.945-21.253,5.481-29.702c-1.633-3.091-4.037-4.95-7.145-5.528
					c-4.157-0.771-9.038,0.871-13.076,4.392L523.699,653.377z"/>
			</g>
		</g>
	</g>
	<g>
		<g>
			<g>
				<path d="M73.483,596.897c-3.42,0-6.782-0.935-9.812-2.855l0.26-0.409c-4.731-3.029-7.937-7.818-8.583-12.828
					c-0.579-4.496,0.913-8.918,4.2-12.449c7.383-7.933,22.47-10.29,31.045-4.851c3.387,2.147,5.438,5.306,5.93,9.134
					c0.672,5.22-1.729,11.348-6.425,16.393C85.297,594.189,79.306,596.897,73.483,596.897z M66.961,589.023
					c5.746,3.588,13.093,1.993,18.747-4.08c3.441-3.698,5.306-8.119,4.866-11.538c-0.265-2.059-1.31-3.64-3.193-4.834
					c-6.062-3.843-18.11-1.854-23.44,3.872c-2.08,2.234-2.993,4.86-2.64,7.595c0.423,3.288,2.637,6.493,5.92,8.576L66.961,589.023z"
					/>
			</g>
		</g>
	</g>
</g>
</svg>
