<svg id="Layer_1" data-name="Layer 1" xmlns="http://www.w3.org/2000/svg" viewBox="0 0 630.42 431.79"><defs><style>.cls-1{fill:#fff;}</style></defs><title>Artboard 1</title><path class="cls-1" d="M529.42,164.81c15.76,0,38.74-13.2,50.34-22.07,1.29-1,2.9-2.18,4.76-3.56,14.36-10.63,44.23-32.74,45.83-48.9a10.93,10.93,0,0,0-2.9-8.85c-2-2.22-4.71-3.29-8.28-3.29-16.91,0-46.61,24.71-60.88,36.59-2.9,2.42-5.19,4.32-6.73,5.49l-1.95,1.48.35-2.42c1.58-10.83,4.29-21.12,6.91-31.07,1.69-6.42,3.44-13.07,4.9-19.88.82-3.83,1.94-8,3.13-12.32,3.45-12.68,7.36-27,4.71-38.29-2.54-10.79-7.72-16-15.84-16-17.49,0-43.06,24.39-52.68,33.57l-.1.1-2.31,2.21.64-3.13c1.87-9.1-.44-20.52-5.36-26.56a12.27,12.27,0,0,0-9.76-5,19.14,19.14,0,0,0-9.4,2.91c-18.43,10.61-37.69,36.51-54.68,59.37-4.22,5.67-8.2,11-12.1,16.08l-4,5.13,2.23-6.08c1.28-3.48,3.07-7.65,5.15-12.48C420.85,46,435.06,13,416.61,3.26a18.49,18.49,0,0,0-8.72-2.16c-17.43,0-37,23.11-48.75,36.92-2,2.41-3.81,4.5-5.38,6.25l-2.85,3.18L352,43.35c3.59-13,2.47-24.22-3.16-31.61A17.29,17.29,0,0,0,335,4.55c-6.48,0-12.64,3.56-17.36,10-14.69,20.17-32.77,52.27-48.72,80.59l-5.06,9-1.94,3.44.07-3.94c.07-4.13.89-11,1.83-18.87,3-24.88,7.45-62.49-3.29-75.1a11.18,11.18,0,0,0-8.43-4.15l-1.32,0c-27.42,0-49.35,36-67,65-3,4.95-5.85,9.62-8.59,13.9l-3.23,5,1.41-5.82c5.92-24.34,2.15-46.69-10.61-62.92A54.08,54.08,0,0,0,120,0,64.24,64.24,0,0,0,96.43,4.64C85.81,8.81,74.92,17.34,64.92,29.31A138.93,138.93,0,0,0,41.65,69.83c-9.12,25-9,48.26.26,65.35,10.3,19,25.19,29.39,41.91,29.39,19.24,0,37.83-13.86,49.74-37.08l2.47-4.83-.59,5.39c-2.08,19-8.07,31.51-19.11,49.27-5.24,8.43-11.3,16.88-17.16,25-4.18,5.83-8.51,11.87-12.45,17.77-7.42,11.13-14.53,21.24-21.41,31-11.94,17-23.21,33-35,52.65-2.46,4.1-5.07,8.06-7.84,12.24C8.37,337.39-6.25,359.45,2.79,399.68A38.78,38.78,0,0,0,19,423.76c7.64,5.18,17.52,8,27.82,8a58.51,58.51,0,0,0,21.38-4.08c12.5-5,23.79-13.76,33.57-26.17,8.45-10.72,16-24.5,22.58-40.94,12-30.28,18.65-65,23.49-90.35l1-5.15c3.43-17.84,5.44-39.11,6.66-53.56l.11-1.28c1.42-16.82,2.64-31.34,9.57-44.54C176.08,145,195,120.39,216.89,91.84l8-10.39,1.91-2.5-.12,3.15c-.11,2.77-.46,6.45-.87,10.71-1.81,18.78-4.84,50.22,8,64.37,4.47,4.92,10.64,7.42,18.35,7.42h.48c19.82-.26,43.87-43.39,58.24-69.16,4-7.21,7.49-13.44,10.14-17.49l1.22-1.87.58,2.16c3.58,13.33,9.49,20.09,17.58,20.09,13.43,0,30.47-18.53,38.65-31l3.08-4.7-1.27,5.47a250.81,250.81,0,0,1-9.65,30.73c-4.06,11.1-7.89,21.59-10.45,35.54-1.7,9.27.43,19.14,5.43,25.15a14.89,14.89,0,0,0,11.68,5.68,23.37,23.37,0,0,0,11-3.19c13-7.06,21.83-19.51,30.35-31.55l1.89-2.67c14.68-20.63,28.55-40.11,46.7-61.77L470,63.46l-.39,3.32c-1.07,9.14.31,16.22,4,20.48,2.76,3.2,6.86,4.9,12.2,5.06h.85C501,92.34,515.06,81,524.32,62l1.86.7q-1.44,5.22-2.9,10.35c-7.19,25.52-14,49.63-12.33,72C511.93,158.16,518.14,164.81,529.42,164.81Zm-411.21,78.3q-1,5.26-1.94,10.74c-7.54,42-16.92,94.36-44.22,128.37-5,6.28-16.48,16.24-25.73,16.24a11.14,11.14,0,0,1-9.65-5.34c-8.93-13.29,8.88-41.81,18.44-57.13,1.07-1.71,2-3.18,2.74-4.43,14.51-24.07,30.52-47.72,46-70.6,4.12-6.09,8.38-12.38,12.55-18.58l2.68-4ZM137.38,61.19c-1,25.28-24.63,65.53-50.69,65.53a24.39,24.39,0,0,1-10.23-2.27C68,120.57,65,109.56,68.39,94.26,71.21,81.37,78.11,67,86.86,55.89c9.83-12.51,20.65-19.4,30.48-19.4.56,0,1.13,0,1.69.07C131.46,37.56,138,46.31,137.38,61.19Z"/></svg>