<svg xmlns="http://www.w3.org/2000/svg" xmlns:xlink="http://www.w3.org/1999/xlink" viewBox="0 0 800 1102.251" enable-background="new 0 0 800 1102.251"><defs><path id="1" d="m561.5 461.96c25.02-21.03 19.03-39.77-13.37-41.845-32.398-2.077-78.939 13.291-103.96 34.33-25.01 21.03-19.03 39.768 13.37 41.845 32.398 2.078 78.941-13.291 103.96-34.33"/><clipPath id="0"><use xlink:href="#1"/></clipPath></defs><path fill="#fff" d="m0 .251h800v1102h-800z"/><g stroke="#231f20" stroke-miterlimit="10"><g fill="#fff"><g stroke-linejoin="round"><g stroke-width="2.699"><path clip-path="url(#0)" d="m561.5 480.77c25.02-21.04 19.03-39.77-13.37-41.847-32.398-2.078-78.939 13.291-103.96 34.32-25.01 21.03-19.03 39.769 13.37 41.846 32.398 2.078 78.941-13.29 103.96-34.32z"/><path d="m526.16 554.96l-100.89-6.46-100.9-6.47 77.9-65.5 77.9-65.51 100.89 6.47 100.9 6.47-77.9 65.5z"/><path d="m562.09 486.77c25.13-21.13 19.12-39.944-13.428-42.03-32.54-2.085-79.29 13.35-104.41 34.478-25.13 21.13-19.11 39.945 13.427 42.03 32.539 2.086 79.29-13.349 104.41-34.476z"/><path d="m526.16 530.34l-100.89-6.47-100.9-6.47 77.9-65.5 77.9-65.5 100.89 6.47 100.9 6.46-77.9 65.5z"/><path d="m562.09 462.14c25.13-21.13 19.12-39.944-13.428-42.03-32.54-2.086-79.29 13.35-104.41 34.478-25.13 21.13-19.11 39.944 13.427 42.03 32.539 2.086 79.29-13.349 104.41-34.476z"/></g><path d="m681.5 399.33l-155 131.01v24.62l155-131z"/><path d="m526.5 554.96l-202-12.93v-24.63l202 12.94z"/></g><path stroke-width="2.699" d="m432.25 487.71l-81.04-81.04 126.75-33.97 126.75-33.96-28.1 104.86"/></g><path fill="none" stroke-width="2.699" d="m552.76 532.59l-15.98 59.65-39.1-39.1"/></g><g fill="#231f20"><path d="m575.61 442.19c0 0-.424 1.455-.952 2.734-.541 1.302 2.576-1.096 2.576-1.096l-1.624-1.638"/><path d="m432.75 486.3c0 0-.462 1.111-.989 2.392-.543 1.301 2.583-.803 2.583-.803l-1.594-1.589"/></g><g fill="none" stroke="#c71e28" stroke-width="2.699" stroke-miterlimit="10"><path d="m325.54 287.86l355.26 355.26"/><path d="m680.79 287.86l-355.26 355.26"/></g><path d="m148.73 657.15h-16.581v-49.742h-13.705v-14.04h43.99v14.04h-13.705v49.742z"/><path d="m181.35 586.93v32.32h.169c1.805-2.369 3.807-4.116 6.01-5.246 2.2-1.127 4.822-1.692 7.867-1.692 2.763 0 5.161.438 7.191 1.311 2.03.875 3.722 2.115 5.076 3.723s2.369 3.525 3.045 5.752c.677 2.229 1.016 4.725 1.016 7.487v26.563h-15.396v-22.249c0-1.24-.071-2.481-.212-3.723-.142-1.24-.452-2.354-.93-3.341-.48-.986-1.185-1.777-2.115-2.369-.93-.592-2.157-.888-3.68-.888-1.522 0-2.791.296-3.807.888-1.015.592-1.848 1.383-2.495 2.369-.649.987-1.1 2.102-1.354 3.341-.253 1.242-.381 2.482-.381 3.723v22.249h-15.396v-70.21h15.396"/><path d="m264.82 638.03h-32.4c0 3.159.804 5.556 2.411 7.19 1.607 1.637 4.02 2.454 7.233 2.454 1.636 0 3.059-.296 4.272-.888 1.212-.592 2.242-1.621 3.088-3.088h14.804c-.621 2.538-1.65 4.752-3.088 6.641-1.438 1.89-3.159 3.441-5.16 4.653-2 1.214-4.188 2.115-6.556 2.707s-4.794.889-7.275.889c-3.61 0-6.951-.508-10.03-1.523-3.074-1.015-5.725-2.496-7.952-4.441-2.229-1.946-3.976-4.357-5.245-7.233s-1.903-6.176-1.903-9.898c0-3.608.592-6.852 1.776-9.728 1.185-2.876 2.834-5.301 4.949-7.275 2.115-1.974 4.639-3.496 7.571-4.568 2.932-1.071 6.176-1.607 9.729-1.607 3.778 0 7.134.564 10.07 1.692 2.932 1.129 5.414 2.736 7.444 4.822 2.03 2.087 3.581 4.611 4.653 7.572 1.071 2.961 1.607 6.302 1.607 10.02v1.604m-14.297-8.883c-.395-2.086-1.425-3.75-3.088-4.991-1.664-1.24-3.54-1.861-5.625-1.861-2.256 0-4.23.579-5.922 1.734-1.692 1.157-2.764 2.863-3.215 5.118h17.85"/><path d="m123.35 671.74h23.519c4.454 0 8.642.818 12.562 2.453 3.919 1.637 7.346 3.892 10.278 6.768 2.932 2.876 5.259 6.26 6.979 10.151s2.581 8.07 2.581 12.52c0 4.514-.86 8.701-2.581 12.563-1.72 3.863-4.047 7.232-6.979 10.11-2.933 2.877-6.374 5.133-10.32 6.768-3.949 1.637-8.121 2.454-12.52 2.454h-23.519v-63.785m16.581 49.743h3.723c2.48 0 4.835-.352 7.06-1.058 2.227-.705 4.173-1.776 5.836-3.215 1.663-1.438 2.989-3.284 3.977-5.541.986-2.255 1.48-4.935 1.48-8.04 0-2.875-.452-5.414-1.353-7.613-.903-2.199-2.157-4.06-3.765-5.583-1.607-1.522-3.525-2.678-5.752-3.468-2.229-.79-4.667-1.185-7.318-1.185h-3.892v35.7"/><path d="m229.78 716.4h-32.4c0 3.159.804 5.556 2.411 7.19 1.607 1.637 4.02 2.454 7.233 2.454 1.635 0 3.059-.297 4.272-.889 1.212-.593 2.242-1.62 3.087-3.088h14.805c-.622 2.538-1.65 4.752-3.088 6.641-1.438 1.891-3.159 3.441-5.16 4.653-2 1.214-4.187 2.114-6.556 2.707-2.368.592-4.794.889-7.275.889-3.61 0-6.951-.508-10.03-1.523s-5.724-2.495-7.952-4.441c-2.229-1.945-3.976-4.356-5.245-7.232s-1.904-6.176-1.904-9.898c0-3.608.593-6.852 1.776-9.728 1.185-2.877 2.834-5.301 4.949-7.276 2.115-1.973 4.638-3.496 7.571-4.568 2.932-1.07 6.175-1.607 9.729-1.607 3.778 0 7.134.564 10.07 1.692 2.932 1.129 5.415 2.736 7.444 4.822 2.03 2.087 3.581 4.611 4.653 7.571 1.071 2.961 1.607 6.303 1.607 10.02v1.606zm-14.296-8.881c-.396-2.086-1.425-3.751-3.088-4.992-1.664-1.24-3.54-1.861-5.625-1.861-2.256 0-4.23.579-5.922 1.734-1.692 1.157-2.764 2.863-3.214 5.119h17.849"/><path d="m266.97 706.25c-1.129-.846-2.369-1.564-3.722-2.157-1.354-.592-2.764-.888-4.23-.888-1.467 0-2.848.268-4.145.803-1.298.537-2.426 1.284-3.384 2.242-.959.96-1.706 2.072-2.241 3.342-.537 1.269-.804 2.665-.804 4.188 0 3.159 1 5.725 3 7.698 2 1.975 4.61 2.961 7.825 2.961 1.354 0 2.72-.254 4.103-.762 1.381-.508 2.58-1.24 3.595-2.199v13.03c-1.692.847-3.455 1.466-5.287 1.861-1.833.394-3.68.593-5.541.593-3.215 0-6.247-.564-9.09-1.692-2.849-1.128-5.359-2.707-7.529-4.737-2.171-2.03-3.878-4.427-5.118-7.19-1.241-2.763-1.861-5.781-1.861-9.05 0-3.495.62-6.696 1.861-9.601 1.24-2.904 2.961-5.385 5.161-7.445 2.199-2.058 4.779-3.666 7.74-4.822 2.961-1.155 6.134-1.734 9.518-1.734 1.804 0 3.566.211 5.287.634 1.72.423 3.342 1.058 4.864 1.904v13.03"/><path d="m290.23 735.52h-15.396v-70.22h15.396v70.22"/><path d="m346.48 735.52h-15.396v-4.822h-.169c-1.354 2.145-3.244 3.722-5.668 4.737-2.425 1.016-4.906 1.523-7.444 1.523-3.215 0-6.163-.622-8.84-1.861-2.679-1.24-4.991-2.919-6.937-5.03-1.946-2.114-3.456-4.581-4.526-7.401-1.072-2.819-1.607-5.78-1.607-8.883 0-3.101.536-6.05 1.607-8.84 1.071-2.792 2.551-5.246 4.441-7.36 1.889-2.115 4.173-3.792 6.852-5.03 2.678-1.24 5.626-1.861 8.84-1.861 2.538 0 5 .465 7.403 1.396 2.396.931 4.412 2.355 6.05 4.272v-4.23h15.396v43.4m-24.787-31.469c-1.58 0-2.976.268-4.188.804-1.214.536-2.242 1.241-3.088 2.114-.846.875-1.495 1.904-1.946 3.088-.452 1.185-.676 2.453-.676 3.807 0 2.765.859 5.076 2.58 6.938 1.719 1.861 4.158 2.791 7.317 2.791 3.158 0 5.596-.93 7.317-2.791 1.719-1.861 2.58-4.173 2.58-6.938 0-1.354-.226-2.622-.677-3.807-.452-1.184-1.1-2.213-1.945-3.088-.846-.873-1.876-1.578-3.088-2.114-1.212-.537-2.608-.804-4.186-.804"/><path d="m370.22 699.23h.169c1.466-2.708 3.412-4.667 5.837-5.88 2.424-1.212 5.16-1.818 8.206-1.818h2.961v14.804c-1.072-.62-2.129-1.016-3.172-1.185-1.044-.169-2.157-.254-3.341-.254-2.144 0-3.906.338-5.288 1.016-1.382.676-2.468 1.594-3.256 2.749-.791 1.156-1.34 2.538-1.65 4.146-.311 1.607-.465 3.341-.465 5.202v17.512h-15.396v-43.4h15.396v7.106z"/><path d="m439.61 735.52h-15.396v-4.822h-.169c-1.354 2.145-3.243 3.722-5.668 4.737s-4.906 1.523-7.443 1.523c-3.215 0-6.163-.622-8.841-1.861-2.679-1.24-4.991-2.919-6.937-5.03-1.946-2.114-3.456-4.581-4.526-7.401-1.071-2.819-1.607-5.78-1.607-8.883 0-3.101.536-6.05 1.607-8.84 1.071-2.792 2.552-5.246 4.442-7.36 1.889-2.115 4.173-3.792 6.852-5.03 2.679-1.24 5.627-1.861 8.841-1.861 2.537 0 5 .465 7.401 1.396 2.397.931 4.413 2.355 6.05 4.272v-4.23h15.396v43.4m-24.787-31.469c-1.58 0-2.976.268-4.188.804-1.213.536-2.241 1.241-3.087 2.114-.847.875-1.496 1.904-1.947 3.088-.451 1.185-.677 2.453-.677 3.807 0 2.765.86 5.076 2.581 6.938 1.719 1.861 4.158 2.791 7.317 2.791 3.158 0 5.597-.93 7.317-2.791 1.72-1.861 2.581-4.173 2.581-6.938 0-1.354-.227-2.622-.678-3.807-.452-1.184-1.099-2.213-1.945-3.088-.846-.873-1.876-1.578-3.088-2.114-1.211-.537-2.607-.804-4.186-.804"/><path d="m465.55 735.52h-15.396v-30.709h-4.992v-12.689h4.992v-13.03h15.396v13.03h8.713v12.689h-8.713v30.709"/><path d="m485.73 666.83c1.185 0 2.297.226 3.342.676 1.042.452 1.959 1.072 2.749 1.861.789.79 1.409 1.707 1.861 2.75.45 1.044.676 2.157.676 3.341s-.226 2.299-.676 3.342c-.452 1.044-1.072 1.96-1.861 2.749-.79.791-1.707 1.411-2.749 1.861-1.045.452-2.157.677-3.342.677s-2.299-.225-3.342-.677c-1.044-.451-1.961-1.071-2.749-1.861-.79-.789-1.41-1.705-1.861-2.749-.452-1.043-.677-2.157-.677-3.342s.225-2.297.677-3.341c.451-1.043 1.071-1.959 1.861-2.75.788-.789 1.705-1.409 2.749-1.861 1.044-.45 2.158-.676 3.342-.676m7.699 68.69h-15.396v-43.4h15.396v43.4"/><path d="m524.88 690.69c3.495 0 6.822.507 9.981 1.522 3.157 1.016 5.935 2.51 8.333 4.484 2.396 1.975 4.299 4.399 5.71 7.275 1.409 2.876 2.114 6.176 2.114 9.897 0 3.667-.705 6.938-2.114 9.813-1.411 2.876-3.313 5.302-5.71 7.275-2.398 1.975-5.176 3.468-8.333 4.483-3.159 1.016-6.486 1.523-9.981 1.523-3.498 0-6.811-.508-9.94-1.523s-5.908-2.509-8.333-4.483c-2.426-1.974-4.344-4.384-5.752-7.233-1.411-2.847-2.115-6.133-2.115-9.855 0-3.722.704-7.02 2.115-9.897 1.408-2.876 3.313-5.3 5.71-7.275 2.396-1.974 5.173-3.468 8.332-4.484 3.158-1.015 6.485-1.522 9.983-1.522m0 13.366c-1.58 0-2.977.268-4.188.804-1.213.536-2.242 1.241-3.088 2.114-.846.875-1.494 1.904-1.945 3.088-.452 1.185-.677 2.453-.677 3.807 0 2.765.859 5.076 2.58 6.938 1.72 1.861 4.159 2.791 7.318 2.791 3.157 0 5.596-.93 7.317-2.791 1.719-1.861 2.579-4.173 2.579-6.938 0-1.354-.226-2.622-.677-3.807-.451-1.184-1.1-2.213-1.945-3.088-.846-.873-1.875-1.578-3.088-2.114-1.214-.537-2.609-.804-4.186-.804"/><path d="m571.77 697.71h.169c1.804-2.65 3.806-4.483 6.01-5.499 2.199-1.015 4.822-1.522 7.867-1.522 2.932 0 5.428.438 7.486 1.311 2.059.875 3.736 2.102 5.03 3.68 1.296 1.58 2.255 3.483 2.876 5.71.62 2.229.931 4.667.931 7.317v26.817h-15.396v-21.15c0-1.015 0-2.17 0-3.469 0-1.354-.198-2.622-.593-3.806-.395-1.185-1.072-2.171-2.029-2.961-.961-.79-2.398-1.185-4.314-1.185-1.58 0-2.876.268-3.893.804-1.015.536-1.832 1.269-2.452 2.199-.622.931-1.058 2-1.312 3.214-.254 1.214-.38 2.496-.38 3.85v22.503h-15.396v-43.4h15.396v5.584"/><g fill="#fff"><g stroke="#000" stroke-linejoin="round" stroke-width=".727" stroke-miterlimit="10"><path d="m175.63 86.72l52.65 10.11-49.41 29.79-57.16-12.84z"/><path d="m177.42 138.37l-62.86 39.11 66.49 19.26 54.86-40.69z"/><path d="m175.5 133.7l-60.94 37.97 66.49 19.25 54.86-40.69z"/><path d="m228.6 152.29l-49.41 34.88v-60.55l49.41-29.79z"/><path d="m179.19 126.62l-57.32-12.84 1.77 57.65 55.55 15.74z"/><path d="m157.76 152.47c0 5.276-4.761 8.365-10.55 6.921-5.699-1.421-10.254-6.713-10.254-11.841 0-5.128 4.555-8.267 10.254-6.992 5.789 1.295 10.55 6.636 10.55 11.912z"/></g><path d="m132.66 147.79l7.37-6.19 15.52 16.16-7.33 5.94z"/><path stroke="#000" stroke-width=".727" stroke-linejoin="round" stroke-miterlimit="10" d="m150.76 157.97c0 5.371-4.8 8.479-10.639 6.963-5.748-1.491-10.341-6.915-10.341-12.135 0-5.221 4.594-8.379 10.341-7.04 5.839 1.364 10.639 6.839 10.639 12.208z"/></g><g stroke="#000" stroke-linejoin="round" stroke-miterlimit="10"><g stroke-width=".727"><path fill="none" d="m115.61 172.03v5.813"/><g fill="#fff"><path d="m236.23 150.23l-54.86 40.69v5.82l54.86-40.69z"/><path d="m181.37 190.92l-66.48-19.25v5.81l66.48 19.26z"/></g><g fill="none"><path d="m155.55 157.76l-7.323 5.942"/><path d="m140.1 141.55l-7.731 5.594"/></g></g><g fill="none"><path stroke-width=".363" d="m396.1 125.23c-2.301-1.574-3.391-3.27-8.114-1.332-4.723 1.938-9.567 8.235-11.262 14.532-1.695 6.297-4.965 21.465-5.57 30.472-.606 9.01-1.211 9.01-1.453 10.4-.243 1.393-1.453 8.295 0 11.444s3.633 5.449 6.54 3.875 9.08-7.145 10.172-10.959.605-10.415 1.21-13.17"/><g stroke-width=".727"><path d="m390.52 128.64h10.536v38.15h-10.536z"/><ellipse cx="396.58" cy="129.34" rx="6.05" ry="2.059"/><ellipse cx="396.58" cy="126.56" rx="6.05" ry="1.453"/><path transform="matrix(.0247.9997-.9997.0247 522.87-279.07)" d="m403.47 121.53h1.978v13.809h-1.978z"/></g></g><g stroke-width=".727"><g fill="#fff"><path d="m407.23 118.46h9.81v55.949h-9.81z"/><ellipse cx="412.06" cy="118.42" rx="4.906" ry="1.397"/></g><ellipse fill="none" cx="418.35" cy="185.75" rx="22.254" ry="10.99"/><g fill="#fff"><ellipse cx="418.35" cy="182.11" rx="22.254" ry="10.99"/><ellipse cx="422.26" cy="174.3" rx="13.08" ry="9.355"/></g></g><g fill="none"><g stroke-width=".363"><ellipse cx="425.17" cy="167.81" rx="1.771" ry="1.589"/><ellipse cx="420.08" cy="167.81" rx="1.771" ry="1.589"/><ellipse cx="415.36" cy="169.62" rx="1.771" ry="1.589"/><ellipse cx="412.81" cy="173.62" rx="1.771" ry="1.589"/><ellipse cx="414.99" cy="178.34" rx="1.771" ry="1.589"/><ellipse cx="419.72" cy="180.89" rx="1.771" ry="1.589"/><ellipse cx="425.17" cy="180.89" rx="1.771" ry="1.589"/><ellipse cx="429.52" cy="178.71" rx="1.771" ry="1.589"/><ellipse cx="431.71" cy="174.71" rx="1.771" ry="1.589"/></g><g stroke-width=".727"><ellipse cx="396.1" cy="165.85" rx="11.172" ry="6.237"/><ellipse cx="396.22" cy="165.92" rx="9.688" ry="3.391"/></g></g><g stroke-width=".727"><g fill="#fff"><path d="m409.41 101.75h5.813v16.712h-5.813z"/><ellipse cx="418.99" cy="100.58" rx="12.899" ry="13.866"/><ellipse cx="425.61" cy="99.1" rx="6.948" ry="7.72"/></g><g fill="none"><ellipse transform="matrix(.9957-.0928.0928.9957-12.229 58.51)" cx="622.93" cy="160.74" rx="31.774" ry="14.04"/><ellipse cx="649.37" cy="125.66" rx="12.166" ry="4.904"/></g><g fill="#fff"><ellipse cx="587.96" cy="139.47" rx="13.803" ry="5.631"/><path d="m654.31 156.48c0 0-5.79-8.438-10.499-8.751-4.708-.313-16.42-4.445-18.237-13.891-1.816-9.446 2.544-9.809 7.63-11.262 5.087-1.453 4.905-3.815 4.905-3.815s-.908 2.907-.908 5.813 23.613 2.906 23.613 2.906 1.091-1.09 0-4.904c-1.09-3.815-1.816-10.899-2.543-12.171-.727-1.271-3.633-.727-5.631-2.543s-1.998-3.633-5.994-3.633-8.9.908-12.353 0c-3.451-.908-14.169-.182-18.16 0-8.5.386-17.441 5.813-21.256 6.358-3.815.545-6.722 3.27-8.538 3.633s-4.542 4.359-5.632 5.086c-1.09.727-2.725 2.543-3.088 5.086s-.545 5.268-1.635 7.084-1.998 4.905-1.816 7.993 27.611 0 27.611 0-.363-7.084-1.09-9.08-2.906-2.361-2.725-5.995c.182-3.633.727-5.995 3.814-3.088 3.09 2.906-.363 3.633 5.271 4.359 5.631.727 7.33 1.816 6.117 3.452-1.213 1.635-1.213 12.522-9.935 18.613-8.72 6.091-12.05 11.294-11.928 15.959"/></g><path fill="none" d="m582.21 117.78c0 0-9.683-1.563-15.677 3.886-5.994 5.449-27.25 31.06-25.795 46.684s10.308 25.431 33.4 22.888c23.09-2.543 41.08-23.25 26.545-33.24-14.532-9.991-36.04-2.268-47.23-1.09s-20.345 3.258-3.088-6.636 47.06-11.554 58.5-8.726"/><g fill="#fff"><ellipse transform="matrix(.9976-.0688.0688.9976-8.856 43.554)" cx="627.48" cy="150.27" rx="16.338" ry="14.159"/><ellipse transform="matrix(.9976-.0689.0689.9976-8.78 43.607)" cx="628.21" cy="149.18" rx="8.227" ry="7.128"/></g><g fill="none"><path d="m174.54 966.53l-14.78-.97-2.57-3.17.09-5.54 4.36-10.27 1.54-38.05-1.36-7.91-.18-18.34 13.5-2.33 15.51 7.38 2.24 74.24z"/><path d="m184.89 884.66l-.45-18.91-1.09-2.36-.36-15.35-2.37.09.46 14.71-1 2.54.18 16.99"/><path d="m177.35 905.26l-1-5.45-13.26 1.36 1 5.45z"/><path d="m183.19 883.7v79.927"/><path d="m188.53 886.55l1.999 75.75"/><path d="m168.03 914.43l-3.12.03-.06-2.54 3.12-.09z"/><path d="m172.39 914.07l-3.12.03-.06-2.55 3.12-.09z"/><path d="m177.47 913.7l-3.12.03-.06-2.54 3.12-.09z"/><path d="m168.03 918.79l-3.12.03-.06-2.54 3.12-.09z"/><path d="m172.39 918.43l-3.12.03-.06-2.55 3.12-.09z"/><path d="m177.47 918.06l-3.12.03-.06-2.54 3.12-.09z"/><path d="m168.03 923.15l-3.12.03-.06-2.54 3.12-.1z"/><path d="m172.39 922.79l-3.12.03-.06-2.55 3.12-.09z"/><path d="m177.47 922.42l-3.12.03-.06-2.54 3.12-.09z"/><path d="m168.03 927.51l-3.12.03-.06-2.54 3.12-.1z"/><path d="m172.39 927.15l-3.12.03-.06-2.55 3.12-.09z"/><path d="m177.47 926.78l-3.12.03-.06-2.54 3.12-.09z"/><path d="m167.66 934.05l-3.12.03-.05-2.55 3.11-.09z"/><path d="m172.39 934.41l-3.12.03-.06-2.54 3.12-.09z"/><path d="m177.47 934.05l-3.12.03-.06-2.55 3.12-.09z"/><path d="m167.3 939.13l-3.12.03-.06-2.54 3.12-.09z"/><path d="m172.39 939.5l-3.12.03-.06-2.54 3.12-.1z"/><path d="m177.47 938.77l-3.12.03-.06-2.54 3.12-.09z"/><path d="m167.3 943.49l-3.12.03-.06-2.54 3.12-.09z"/><path d="m177.11 944.22l-3.12.03-.06-2.54 3.12-.09z"/></g></g></g><circle cx="167.57" cy="889.33" r=".485"/><circle cx="169.75" cy="889.33" r=".485"/><circle cx="171.93" cy="888.97" r=".485"/><circle cx="170.84" cy="890.06" r=".485"/><circle cx="168.66" cy="890.42" r=".485"/><circle cx="167.94" cy="891.51" r=".485"/><circle cx="169.75" cy="891.15" r=".485"/><circle cx="171.93" cy="891.15" r=".485"/><circle cx="172.29" cy="892.97" r=".485"/><circle cx="170.84" cy="892.24" r=".485"/><circle cx="170.12" cy="893.33" r=".485"/><circle cx="167.94" cy="893.69" r=".485"/><circle cx="169.03" cy="892.6" r=".485"/><g stroke-linejoin="round" stroke-width=".727" stroke-miterlimit="10"><g fill="none"><path stroke="#000" d="m173.67 880.23c0 0 2.316.228 2.271 1.545-.045 1.316 1.363 16.666 1.636 17.393.272.727 1.59 7.04 1.727 7.721.137.681.167 32.27.167 32.18 0-.09.061 6.601-.151 7.267s-4.559 11.822-5.831 12.05c-1.271.227-13.76.136-14.577-.137s-1.681-2.043-1.681-2.043"/><g stroke="#231f20"><path d="m357.16 939.24c0 0 39.782.363 43.05-2.544 3.27-2.906 4.541-7.084 4.541-9.99s.545-7.085-2.18-9.08-25.25-5.994-33.24-5.994c-7.993 0-44.689 2.543-49.41 3.633-4.723 1.09-9.264 11.263-8.901 13.806s2.543 8.355 5.631 10.173c3.089 1.816 40.513-.0001 40.513-.0001z"/><path d="m374.51 920.26c0 0 10.808 1.362 15.08 1.817 4.269.454 13.351 2.906 13.351 2.906s.727-4.36-2.18-7.812"/><path d="m404.76 926.71c0 0-11.262-5.178-44.23-5.178-32.973 0-47.5 5.813-49.594 6.722"/><path d="m375.87 912.17c0 0-.091 5.358 1.635 5.813 1.726.454 7.902 2.906 12.625 3.088s12.443-.272 12.443-.272-.636-3.088-2.271-3.996"/><path d="m306.06 918.77c0 0-6.781 7.509-12.473 13.685s-13.926 13.442-11.262 15.864 10.05 8.84 25.431 4.117c15.379-4.723 3.996-2.422.848-8.719-3.148-6.298-2.907-7.388.363-8.841 3.27-1.453 3.754-.969 3.754-.969l2.543 4.118c0 0 1.332 2.18 2.18 3.03s6.06 2.906 6.418 7.02c.363 4.117-3.875 14.169-24.341 14.169s-24.826-9.931-24.826-15.38 9.688-15.743 13.321-19.376c3.633-3.633 15.259-15.259 16.712-15.985"/></g></g><path fill="#fff" stroke="#231f20" d="m386.59 875.48c-14.532-.908-36.15 7.629-45.05 11.443-8.901 3.814-36.15 15.441-36.512 24.16s6.902 18.892 11.262 19.255c4.359.363 19.437-11.444 32.519-16.894 13.08-5.449 24.341-9.265 24.341-9.265s-.727.909 1.816.909 15.259-2.725 18.528-6.722c3.27-3.996 4.905-3.451 2.362-10.718-2.543-7.263-3.874-11.832-9.264-12.168z"/></g><g fill="#231f20"><circle cx="321.53" cy="909.09" r=".416"/><circle cx="322.25" cy="910.83" r=".416"/><circle cx="322.98" cy="912.58" r=".416"/><circle cx="323.71" cy="914.33" r=".416"/><circle cx="324.43" cy="916.08" r=".416"/><circle cx="325.16" cy="917.83" r=".416"/><circle cx="319.96" cy="910.15" r=".416"/><circle cx="320.69" cy="911.9" r=".416"/><circle cx="321.41" cy="913.65" r=".416"/><circle cx="322.14" cy="915.4" r=".416"/><circle cx="322.87" cy="917.15" r=".416"/><circle cx="323.59" cy="918.89" r=".416"/><circle cx="318.39" cy="911.22" r=".416"/><circle cx="319.12" cy="912.97" r=".416"/><circle cx="319.85" cy="914.72" r=".416"/><circle cx="320.57" cy="916.46" r=".416"/><circle cx="321.3" cy="918.21" r=".416"/><circle cx="322.03" cy="919.96" r=".416"/><circle cx="316.83" cy="912.29" r=".416"/><circle cx="317.55" cy="914.03" r=".416"/><circle cx="318.28" cy="915.78" r=".416"/><circle cx="319.01" cy="917.53" r=".416"/><circle cx="319.73" cy="919.28" r=".416"/><circle cx="320.46" cy="921.03" r=".416"/><circle cx="315.26" cy="913.35" r=".416"/><circle cx="315.99" cy="915.1" r=".416"/><circle cx="316.71" cy="916.85" r=".416"/><circle cx="317.44" cy="918.6" r=".416"/><circle cx="318.17" cy="920.35" r=".416"/><circle cx="318.89" cy="922.1" r=".416"/><circle cx="313.69" cy="914.42" r=".416"/><circle cx="314.42" cy="916.17" r=".416"/><circle cx="315.15" cy="917.92" r=".416"/><circle cx="315.87" cy="919.67" r=".416"/><circle cx="316.6" cy="921.41" r=".416"/><circle cx="317.33" cy="923.16" r=".416"/></g><path fill="none" stroke="#231f20" stroke-width=".363" stroke-miterlimit="10" d="m357.53 885.71c-1.624-1.217-10.05 1.938-15.503 4.724-5.451 2.784-16.229 9.08-16.229 10.173s4.117 7.992 4.117 7.992 3.512 8.719 4.602 8.961 14.293-7.266 17.2-8.113c2.906-.848 13.927-3.876 14.411-5.57.484-1.696-7.629-17.441-8.598-18.17z"/><g fill="#231f20"><circle cx="379.02" cy="889.87" r=".416"/><circle cx="381.13" cy="890.4" r=".416"/><circle cx="381.91" cy="892.24" r=".416"/><circle cx="380.64" cy="893.71" r=".416"/><circle cx="378.53" cy="893.15" r=".416"/><circle cx="377.69" cy="891.26" r=".416"/></g><g fill="none" stroke="#231f20" stroke-miterlimit="10"><g stroke-width=".363"><ellipse cx="355.62" cy="890.65" rx="1.635" ry="1.816"/><ellipse cx="358.16" cy="896.1" rx="1.635" ry="1.816"/><ellipse cx="361.07" cy="901.55" rx="1.635" ry="1.816"/><ellipse cx="349.44" cy="892.83" rx="1.635" ry="1.816"/><ellipse cx="351.99" cy="898.28" rx="1.635" ry="1.816"/><ellipse cx="354.89" cy="903.73" rx="1.635" ry="1.817"/><ellipse cx="343.27" cy="895.01" rx="1.636" ry="1.816"/><ellipse cx="345.81" cy="900.46" rx="1.635" ry="1.816"/><ellipse cx="348.72" cy="905.91" rx="1.635" ry="1.816"/><ellipse cx="337.09" cy="897.19" rx="1.635" ry="1.816"/><ellipse cx="339.63" cy="902.64" rx="1.635" ry="1.816"/><ellipse cx="342.54" cy="908.09" rx="1.636" ry="1.816"/><path d="m335 909.09c-.336 1.01-2.725 1.726-2.725 1.726l-2.271-5.177c0 0 .727-1.998 1.999-1.727 1.271.272 1.544 1.454 2.18 2.453s1.211 1.544.817 2.725z"/></g><g stroke-linejoin="round" stroke-width=".727"><path d="m462.48 965.97c7.834 3.957 17.197 5.813 19.377 5.086 2.18-.727 9.93-14.05 15.02-21.07 5.088-7.02 8.843-13.685 11.265-15.38s4.238-4.723 4.48-6.176c.243-1.453.364-3.27-.121-4.117-.12-.212-.241-.484-.304-.876-.188-1.175.152-3.423 2.605-8.328 3.27-6.539 13.32-28.28 13.32-28.28s2.543-5.268 2.18-8.719-8.719-8.356-12.171-9.991c-3.451-1.635-14.714-2.543-17.07-.908-2.362 1.635-18.713 36.875-18.713 36.875l-2.18 5.45c0 0-1.271-.545-2.725 1.271s-2.726 10.354-3.634 11.443c-.908 1.091-20.345 27.25-20.345 27.25s-2.906 2.725-2.18 5.086c.729 2.362 5.33 8.417 11.203 11.384z"/><path d="m530.06 897.43l-17.864 26.01"/></g></g><path transform="matrix(.8267.5627-.5627.8267 595.15-144.71)" fill="#231f20" d="m531.03 885.56h2.907v16.349h-2.907z"/><g stroke="#231f20" stroke-miterlimit="10"><g fill="none"><g stroke-linejoin="round" stroke-width=".727"><ellipse transform="matrix(.902.4316-.4316.902 450.46-112.38)" cx="472.84" cy="936.3" rx="3.653" ry="1.329"/><ellipse transform="matrix(.902.4317-.4317.902 453.13-115.6)" cx="481.19" cy="940.3" rx="3.653" ry="1.329"/><ellipse transform="matrix(.902.4316-.4316.902 455.55-118.81)" cx="489.55" cy="944.29" rx="3.653" ry="1.328"/><ellipse transform="matrix(.902.4316-.4316.902 451.77-110.97)" cx="470.39" cy="939.89" rx="3.653" ry="1.328"/><ellipse transform="matrix(.902.4316-.4316.902 454.31-114.19)" cx="478.74" cy="943.88" rx="3.653" ry="1.329"/><ellipse transform="matrix(.902.4316-.4316.902 456.86-117.4)" cx="487.1" cy="947.88" rx="3.653" ry="1.329"/><ellipse transform="matrix(.902.4316-.4316.902 453.08-109.56)" cx="467.93" cy="943.48" rx="3.653" ry="1.327"/><ellipse transform="matrix(.902.4316-.4316.902 455.62-112.78)" cx="476.29" cy="947.47" rx="3.653" ry="1.328"/><ellipse transform="matrix(.902.4316-.4316.902 458.16-115.99)" cx="484.65" cy="951.47" rx="3.653" ry="1.329"/><ellipse transform="matrix(.902.4316-.4316.902 454.39-108.15)" cx="465.48" cy="947.06" rx="3.653" ry="1.329"/><ellipse transform="matrix(.902.4316-.4316.902 456.93-111.37)" cx="473.84" cy="951.06" rx="3.653" ry="1.328"/><ellipse transform="matrix(.902.4316-.4316.902 459.47-114.58)" cx="482.19" cy="955.05" rx="3.653" ry="1.327"/></g><path stroke-width=".363" d="m516.63 869.94c4.301 1.53 14.472 6.419 12.05 13.686-2.422 7.266-14.11 3.633-19.13 1.453s-13.992-7.872-10.416-13.686c3.573-5.813 12.05-3.39 17.5-1.453z"/><g stroke-linejoin="round" stroke-width=".727"><ellipse transform="matrix(.902.4316-.4316.902 455.69-106.74)" cx="463.03" cy="950.65" rx="3.653" ry="1.327"/><ellipse transform="matrix(.902.4316-.4316.902 458.24-109.96)" cx="471.39" cy="954.65" rx="3.653" ry="1.329"/></g></g><path fill="#fff" stroke-width=".363" d="m517.27 870.3c5.271 2.582 12.534 8.992 8.08 15.804-4.45 6.813-13.08 4.451-16.803 2.997-3.724-1.453-13.631-7.629-9.174-14.713 4.451-7.085 13.443-6.268 17.894-4.088z"/><g fill="none" stroke-linejoin="round" stroke-width=".727"><ellipse transform="matrix(.902.4316-.4316.902 460.78-113.17)" cx="479.74" cy="958.64" rx="3.653" ry="1.328"/><path d="m496.94 940.38c-.909 1.835-3.205 2.552-5.127 1.601l-15.79-7.816c-1.923-.951-2.743-3.212-1.835-5.05l3.564-7.2c.908-1.835 3.203-2.552 5.125-1.601l15.793 7.816c1.923.951 2.744 3.211 1.836 5.05l-3.566 7.2z"/><path d="m474.53 921.43l3.82-8.53 30.07 13.98-1.82 9.04"/></g></g><g fill="#231f20"><circle cx="513.91" cy="878.29" r=".5"/><circle cx="512.46" cy="879.38" r=".5"/><circle cx="514.27" cy="880.11" r=".5"/><circle cx="510.64" cy="880.47" r=".5"/><circle cx="512.37" cy="881.43" r=".5"/><circle cx="514.27" cy="882.08" r=".5"/></g><path fill="none" stroke="#231f20" stroke-width=".727" stroke-linejoin="round" stroke-miterlimit="10" d="m658.87 970.39c0 3.31-2.345 6.424-5.627 6.424h-45.42c-3.282 0-5.992-3.114-5.992-6.424v-100.14c0-3.31 2.71-5.7 5.992-5.7h45.42c3.282 0 5.627 2.391 5.627 5.7v100.14z"/><g fill="#231f20"><path d="m602.19 901.52c0 .251-.204.455-.456.455h-.178c-.252 0-.456-.204-.456-.455v-4.902c0-.252.204-.455.456-.455h.178c.252 0 .456.203.456.455v4.902"/><path d="m602.19 888.81c0 .251-.204.455-.456.455h-.178c-.252 0-.456-.204-.456-.455v-4.901c0-.252.204-.456.456-.456h.178c.252 0 .456.204.456.456v4.901"/></g><g fill="none" stroke="#231f20" stroke-linejoin="round" stroke-width=".363" stroke-miterlimit="10"><path d="m657.23 968.61c0 3.192-2.734 6.21-5.762 6.21h-41.868c-3.03 0-5.412-3.02-5.412-6.21v-96.57c0-3.192 2.386-5.844 5.412-5.844h41.868c3.03 0 5.762 2.651 5.762 5.844v96.57z"/><path d="m615.82 894.83c0 .84-.682 1.521-1.521 1.521h-5.314c-.84 0-1.521-.681-1.521-1.521v-6.04c0-.84.681-1.521 1.521-1.521h5.314c.84 0 1.521.681 1.521 1.521v6.04z"/><path d="m628.53 894.62c0 .84-.885 1.358-1.725 1.358h-5.405c-.84 0-1.589-.519-1.589-1.358v-5.902c0-.84.749-1.459 1.589-1.459h5.405c.84 0 1.725.619 1.725 1.459v5.902z"/><path d="m640.88 894.83c0 .84-.744 1.521-1.584 1.521h-5.315c-.841 0-1.457-.681-1.457-1.521v-6.04c0-.84.616-1.521 1.457-1.521h5.315c.84 0 1.584.681 1.584 1.521v6.04z"/><path d="m653.24 894.62c0 .84-.744 1.358-1.584 1.358h-5.405c-.84 0-1.366-.519-1.366-1.358v-5.902c0-.84.526-1.459 1.366-1.459h5.405c.84 0 1.584.619 1.584 1.459v5.902z"/><path d="m615.82 909.72c0 .84-.682 1.521-1.521 1.521h-5.314c-.84 0-1.521-.681-1.521-1.521v-6.04c0-.84.681-1.521 1.521-1.521h5.314c.84 0 1.521.681 1.521 1.521v6.04z"/><path d="m628.17 909.72c0 .84-.681 1.521-1.52 1.521h-5.315c-.84 0-1.521-.681-1.521-1.521v-6.04c0-.84.681-1.521 1.521-1.521h5.315c.839 0 1.52.681 1.52 1.521v6.04z"/><path d="m640.88 909.72c0 .84-.744 1.521-1.584 1.521h-5.315c-.841 0-1.457-.681-1.457-1.521v-6.04c0-.84.616-1.521 1.457-1.521h5.315c.84 0 1.584.681 1.584 1.521v6.04z"/><path d="m653.24 909.72c0 .84-.682 1.521-1.521 1.521h-5.315c-.84 0-1.52-.681-1.52-1.521v-6.04c0-.84.68-1.521 1.52-1.521h5.314c.84 0 1.521.681 1.521 1.521v6.04z"/><path d="m615.82 924.62c0 .84-.682 1.521-1.521 1.521h-5.314c-.84 0-1.521-.682-1.521-1.521v-6.04c0-.839.681-1.52 1.521-1.52h5.314c.84 0 1.521.681 1.521 1.52v6.04z"/><path d="m628.53 924.44c0 .839-.885 1.701-1.725 1.701h-5.405c-.84 0-1.589-.862-1.589-1.701v-5.903c0-.839.749-1.479 1.589-1.479h5.405c.84 0 1.725.64 1.725 1.479v5.903z"/><path d="m640.88 924.62c0 .84-.744 1.521-1.584 1.521h-5.315c-.841 0-1.457-.682-1.457-1.521v-6.04c0-.839.616-1.52 1.457-1.52h5.315c.84 0 1.584.681 1.584 1.52v6.04z"/><path d="m653.24 924.44c0 .839-.744 1.701-1.584 1.701h-5.405c-.84 0-1.366-.862-1.366-1.701v-5.903c0-.839.526-1.479 1.366-1.479h5.405c.84 0 1.584.64 1.584 1.479v5.903z"/><path d="m615.82 955.13c0 .84-.682 1.521-1.521 1.521h-5.314c-.84 0-1.521-.681-1.521-1.521v-6.04c0-.84.681-1.521 1.521-1.521h5.314c.84 0 1.521.681 1.521 1.521v6.04z"/><path d="m628.53 955.13c0 .84-.681 1.521-1.52 1.521h-5.315c-.84 0-1.521-.681-1.521-1.521v-6.04c0-.84.681-1.521 1.521-1.521h5.315c.839 0 1.52.681 1.52 1.521v6.04z"/><path d="m640.88 955.13c0 .84-.744 1.521-1.584 1.521h-5.315c-.841 0-1.457-.681-1.457-1.521v-6.04c0-.84.616-1.521 1.457-1.521h5.315c.84 0 1.584.681 1.584 1.521v6.04z"/><path d="m632.16 967.33c0 .324-.271.587-.604.587h-2.06c-.334 0-.605-.263-.605-.587v-1.733c0-.323.271-.586.605-.586h2.06c.334 0 .604.263.604.586v1.733z"/><path d="m653.24 954.99c0 .84-.695 1.662-1.535 1.662h-5.405c-.84 0-1.415-.822-1.415-1.662v-5.902c0-.84.575-1.518 1.415-1.518h5.405c.84 0 1.535.678 1.535 1.518v5.902z"/><circle cx="630.49" cy="966.33" r="5.571"/><path d="m604.37 959.2h53.04"/><path d="m604.53 944.84l52.67-.497"/><path d="m604.37 880.36h53.04"/></g><path fill="#231f20" d="m650.51 863.9c0 .364-.297.661-.661.661h-7.03c-.365 0-.661-.297-.661-.661v-.131c0-.365.296-.661.661-.661h7.03c.364 0 .661.296.661.661v.131"/></svg>