<svg xmlns="http://www.w3.org/2000/svg" viewBox="0 0 800 1102.251" enable-background="new 0 0 800 1102.251"><path fill="#fff" d="m0 .251h800v1102h-800z"/><path fill="#ffb921" d="m569.52 595.95c-3.355 0-6.077-2.722-6.077-6.078 0-3.361 2.722-6.083 6.077-6.083 3.358 0 6.079 2.722 6.079 6.083.0001 3.356-2.72 6.078-6.079 6.078"/><path fill="#34b7e2" d="m615.4 595.95c-3.357 0-6.079-2.722-6.079-6.078 0-3.361 2.722-6.083 6.079-6.083 3.358 0 6.076 2.722 6.076 6.083.0001 3.356-2.717 6.078-6.076 6.078"/><path fill="#8ebf72" d="m546.25 595.95c-3.355 0-6.078-2.722-6.078-6.078 0-3.361 2.723-6.083 6.078-6.083 3.358 0 6.08 2.722 6.08 6.083 0 3.356-2.721 6.078-6.08 6.078"/><path fill="#ed6d61" d="m592.75 595.95c-3.355 0-6.076-2.722-6.076-6.078 0-3.361 2.721-6.083 6.076-6.083 3.36 0 6.081 2.722 6.081 6.083 0 3.356-2.721 6.078-6.081 6.078"/><g fill="#323031"><path d="m97.54 518.25c-.712-5.05-5.55-8.891-11.1-8.891-10.03 0-13.801 8.538-13.801 17.429 0 8.468 3.771 17.01 13.801 17.01 6.831 0 10.673-4.696 11.526-11.384h10.813c-1.137 12.664-9.887 20.774-22.339 20.774-15.723 0-24.972-11.741-24.972-26.396 0-15.08 9.249-26.82 24.972-26.82 11.17 0 20.563 6.545 21.914 18.283h-10.814"/><path d="m115.97 501.18h10.1v50.798h-10.1v-50.798"/><path d="m133.98 526.5c.569-9.461 9.03-12.307 17.289-12.307 7.329 0 16.15 1.634 16.15 10.457v19.14c0 3.341.355 6.687 1.279 8.18h-10.244c-.356-1.138-.641-2.346-.711-3.557-3.201 3.345-7.896 4.553-12.38 4.553-6.972 0-12.521-3.484-12.521-11.02 0-8.327 6.261-10.318 12.521-11.172 6.189-.923 11.953-.711 11.953-4.838 0-4.339-2.988-4.98-6.545-4.98-3.842 0-6.332 1.565-6.689 5.55h-10.1m23.336 7.47c-1.708 1.493-5.264 1.565-8.395 2.135-3.13.638-5.976 1.706-5.976 5.407 0 3.768 2.916 4.696 6.189 4.696 7.898 0 8.182-6.26 8.182-8.468v-3.77"/><path d="m183.43 540.02c.069 4.41 3.771 6.191 7.754 6.191 2.917 0 6.617-1.14 6.617-4.696 0-3.061-4.198-4.127-11.455-5.692-5.833-1.279-11.667-3.345-11.667-9.817 0-9.391 8.11-11.81 16.01-11.81 8.04 0 15.44 2.703 16.221 11.737h-9.604c-.285-3.912-3.273-4.98-6.901-4.98-2.276 0-5.62.427-5.62 3.414 0 3.631 5.69 4.128 11.454 5.481 5.905 1.35 11.668 3.483 11.668 10.313 0 9.675-8.395 12.806-16.79 12.806-8.538 0-16.862-3.2-17.288-12.948h9.605"/><path d="m222 540.02c.07 4.41 3.77 6.191 7.755 6.191 2.916 0 6.617-1.14 6.617-4.696 0-3.061-4.199-4.127-11.455-5.692-5.834-1.279-11.668-3.345-11.668-9.817 0-9.391 8.11-11.81 16.01-11.81 8.04 0 15.438 2.703 16.221 11.737h-9.604c-.286-3.912-3.273-4.98-6.903-4.98-2.276 0-5.62.427-5.62 3.414 0 3.631 5.692 4.128 11.455 5.481 5.904 1.35 11.668 3.483 11.668 10.313 0 9.675-8.396 12.806-16.792 12.806-8.538 0-16.86-3.2-17.289-12.948h9.607"/><path d="m273.94 501.18h11.17v19.494h20.56v-19.494h11.171v50.798h-11.171v-21.912h-20.56v21.912h-11.17v-50.798"/><path d="m334.28 536.04c.286 6.404 3.416 9.323 9.04 9.323 4.056 0 7.329-2.493 7.969-4.77h8.894c-2.846 8.68-8.894 12.379-17.218 12.379-11.597 0-18.783-7.968-18.783-19.352 0-11.02 7.613-19.42 18.783-19.42 12.521 0 18.569 10.529 17.857 21.839h-26.538m16.434-6.402c-.925-5.123-3.129-7.826-8.04-7.826-6.405 0-8.252 4.98-8.396 7.826h16.434"/><path d="m366.74 526.5c.567-9.461 9.04-12.307 17.287-12.307 7.329 0 16.15 1.634 16.15 10.457v19.14c0 3.341.356 6.687 1.281 8.18h-10.246c-.354-1.138-.64-2.346-.71-3.557-3.201 3.345-7.898 4.553-12.38 4.553-6.972 0-12.522-3.484-12.522-11.02 0-8.327 6.263-10.318 12.522-11.172 6.191-.923 11.952-.711 11.952-4.838 0-4.339-2.987-4.98-6.545-4.98-3.841 0-6.332 1.565-6.688 5.55h-10.1m23.334 7.47c-1.706 1.493-5.263 1.565-8.394 2.135-3.132.638-5.978 1.706-5.978 5.407 0 3.768 2.917 4.696 6.191 4.696 7.896 0 8.18-6.26 8.18-8.468v-3.77z"/><path d="m408.65 501.18h10.1v50.798h-10.1v-50.798"/><path d="m439.88 515.19h7.399v6.757h-7.399v18.212c0 3.416.854 4.269 4.269 4.269 1.066 0 2.063-.07 3.131-.284v7.898c-1.708.285-3.914.355-5.906.355-6.189 0-11.597-1.424-11.597-8.75v-21.7h-6.117v-6.757h6.117v-11.03h10.1v11.03"/><path d="m452.48 501.18h10.1v19.14h.214c2.56-4.127 6.972-6.119 10.743-6.119 10.742 0 13.444 6.05 13.444 15.15v22.625h-10.1v-20.774c0-6.05-1.777-9.03-6.473-9.03-5.479 0-7.826 3.057-7.826 10.53v19.278h-10.1v-50.799z"/><path d="m523.85 535.11c0 6.757 5.263 9.392 11.24 9.392 3.913 0 9.889-1.138 9.889-6.333 0-5.476-7.61-6.404-15.08-8.396-7.542-1.992-15.15-4.907-15.15-14.441 0-10.387 9.818-15.367 18.997-15.367 10.602 0 20.348 4.624 20.348 16.364h-10.814c-.357-6.119-4.696-7.684-10.03-7.684-3.558 0-7.685 1.492-7.685 5.761 0 3.915 2.42 4.412 15.15 7.684 3.7.927 15.08 3.272 15.08 14.798 0 9.322-7.327 16.293-21.13 16.293-11.242 0-21.772-5.548-21.628-18.07h10.813"/><path d="m596.21 551.97h-9.602v-5.123h-.214c-2.563 4.126-6.973 6.119-11.241 6.119-10.743 0-13.446-6.04-13.446-15.15v-22.623h10.1v20.774c0 6.05 1.777 9.03 6.475 9.03 5.478 0 7.824-3.057 7.824-10.53v-19.278h10.1v36.78"/><path d="m604.25 515.19h9.604v6.83h.143c1.85-4.626 6.83-7.826 11.737-7.826.711 0 1.565.143 2.205.354v9.391c-.923-.211-2.419-.354-3.627-.354-7.398 0-9.96 5.335-9.96 11.811v16.575h-10.1v-36.781"/><path d="m652.64 551.97h-11.24l-12.594-36.78h10.601l7.754 25.11h.145l7.752-25.11h10.03l-12.451 36.78"/><path d="m677.97 536.04c.284 6.404 3.414 9.323 9.03 9.323 4.054 0 7.327-2.493 7.965-4.77h8.898c-2.849 8.68-8.898 12.379-17.22 12.379-11.596 0-18.781-7.968-18.781-19.352 0-11.02 7.613-19.42 18.781-19.42 12.521 0 18.57 10.529 17.857 21.839h-26.535m16.435-6.402c-.928-5.123-3.134-7.826-8.04-7.826-6.402 0-8.252 4.98-8.394 7.826h16.436"/><path d="m728.99 556.6c-2.207 5.903-5.691 8.323-12.664 8.323-2.062 0-4.123-.141-6.188-.356v-8.324c1.92.141 3.914.427 5.905.357 3.483-.357 4.623-3.984 3.483-6.902l-12.947-34.504h10.815l8.324 25.19h.143l8.04-25.19h10.458l-15.365 41.41"/><path d="m79.72 601.59h-4.389l-10.242-29.02h4.186l8.292 25.16h.081l8.371-25.16h4.02l-10.323 29.02"/><path d="m96.23 576.8h-3.454v-4.23h3.454v4.23m-3.454 3.777h3.454v21.01h-3.454v-21.01"/><path d="m103.72 594.97c.122 3.087 2.805 4.064 5.649 4.064 2.154 0 5.08-.488 5.08-3.13 0-2.683-3.413-3.126-6.866-3.9-3.415-.772-6.868-1.909-6.868-5.933 0-4.226 4.185-5.976 7.842-5.976 4.633 0 8.332 1.464 8.615 6.583h-3.453c-.245-2.683-2.601-3.531-4.878-3.531-2.073 0-4.47.569-4.47 2.677 0 2.481 3.657 2.887 6.869 3.658 3.455.775 6.866 1.912 6.866 5.978 0 4.996-4.672 6.623-8.938 6.623-4.716 0-8.698-1.912-8.902-7.111h3.454z"/><path d="m139.33 601.59h-3.252v-3.332h-.081c-1.464 2.599-3.822 3.819-6.829 3.819-5.525 0-7.233-3.17-7.233-7.681v-13.816h3.455v14.221c0 2.56 1.625 4.229 4.268 4.229 4.187 0 6.216-2.805 6.216-6.583v-11.867h3.457v21.01"/><path d="m163.16 601.51c-.609.362-1.383.566-2.481.566-1.787 0-2.925-.974-2.925-3.25-1.91 2.237-4.47 3.25-7.396 3.25-3.819 0-6.95-1.705-6.95-5.891 0-4.756 3.537-5.771 7.114-6.463 3.819-.73 7.07-.487 7.07-3.086 0-3.01-2.479-3.496-4.674-3.496-2.927 0-5.08.891-5.244 3.979h-3.452c.2-5.2 4.224-7.03 8.897-7.03 3.781 0 7.885.854 7.885 5.771v10.808c0 1.626 0 2.36 1.096 2.36.285 0 .609-.042 1.058-.203v2.686zm-5.609-10.772c-1.343.975-3.941 1.017-6.26 1.423-2.275.406-4.226 1.217-4.226 3.78 0 2.273 1.951 3.087 4.066 3.087 4.55 0 6.419-2.844 6.419-4.754v-3.536"/><path d="m166.58 572.57h3.455v29.02h-3.455v-29.02"/><path d="m207.68 581.31c-.813-4.105-4.106-6.18-8.127-6.18-6.91 0-9.834 5.695-9.834 11.746 0 6.623 2.925 12.152 9.874 12.152 5.081 0 8.01-3.576 8.372-8.369h3.863c-.732 7.229-5.244 11.621-12.559 11.621-9.02 0-13.412-6.665-13.412-15.12 0-8.41 4.796-15.279 13.736-15.279 6.06 0 11.05 3.249 11.949 9.429h-3.862"/><path d="m225.12 580.09c6.667 0 10.202 4.838 10.202 11.02 0 6.136-3.535 10.971-10.202 10.971-6.665 0-10.2-4.835-10.2-10.971 0-6.178 3.536-11.02 10.2-11.02m0 18.94c3.619 0 6.544-2.844 6.544-7.924 0-5.125-2.925-7.964-6.544-7.964-3.618 0-6.542 2.84-6.542 7.964 0 5.08 2.925 7.924 6.542 7.924"/><path d="m239.4 580.58h3.25v3.086h.081c1.546-2.354 3.903-3.576 6.789-3.576 2.56 0 4.917 1.02 5.771 3.576 1.422-2.232 3.9-3.576 6.583-3.576 4.187 0 6.99 1.75 6.99 6.099v15.401h-3.455v-13.777c0-2.601-.691-4.671-4.063-4.671-3.333 0-5.488 2.112-5.488 5.362v13.09h-3.453v-13.777c0-2.721-.854-4.671-3.943-4.671-4.103 0-5.607 3.778-5.607 5.362v13.09h-3.455v-21.01"/><path d="m274.09 580.58h3.25v3.086h.081c1.543-2.354 3.901-3.576 6.786-3.576 2.562 0 4.918 1.02 5.771 3.576 1.425-2.232 3.903-3.576 6.584-3.576 4.187 0 6.99 1.75 6.99 6.099v15.401h-3.455v-13.777c0-2.601-.69-4.671-4.063-4.671-3.334 0-5.486 2.112-5.486 5.362v13.09h-3.456v-13.777c0-2.721-.853-4.671-3.942-4.671-4.103 0-5.607 3.778-5.607 5.362v13.09h-3.453v-21.01"/><path d="m326.17 601.59h-3.252v-3.332h-.081c-1.465 2.599-3.821 3.819-6.829 3.819-5.525 0-7.234-3.17-7.234-7.681v-13.816h3.456v14.221c0 2.56 1.624 4.229 4.266 4.229 4.185 0 6.218-2.805 6.218-6.583v-11.867h3.455v21.01"/><path d="m331.38 580.58h3.253v3.333h.08c1.462-2.601 3.821-3.822 6.829-3.822 5.525 0 7.232 3.169 7.232 7.683v13.816h-3.453v-14.224c0-2.561-1.627-4.225-4.268-4.225-4.187 0-6.218 2.804-6.218 6.582v11.867h-3.455v-21.01"/><path d="m357.65 576.8h-3.457v-4.23h3.457v4.23m-3.456 3.777h3.457v21.01h-3.457v-21.01"/><path d="m377.28 587.33c-.526-2.646-2.354-4.187-5.201-4.187-4.998 0-6.541 3.94-6.541 8.205 0 3.861 1.745 7.683 6.136 7.683 3.333 0 5.324-1.951 5.771-5.122h3.534c-.772 5.122-3.982 8.169-9.267 8.169-6.418 0-9.834-4.469-9.834-10.73 0-6.297 3.251-11.256 9.917-11.256 4.751 0 8.574 2.237 9.06 7.238h-3.576"/><path d="m403.46 601.51c-.611.362-1.383.566-2.479.566-1.786 0-2.924-.974-2.924-3.25-1.912 2.237-4.471 3.25-7.398 3.25-3.818 0-6.95-1.705-6.95-5.891 0-4.756 3.537-5.771 7.114-6.463 3.819-.73 7.07-.487 7.07-3.086 0-3.01-2.481-3.496-4.673-3.496-2.928 0-5.08.891-5.243 3.979h-3.455c.203-5.2 4.227-7.03 8.902-7.03 3.777 0 7.883.854 7.883 5.771v10.808c0 1.626 0 2.36 1.097 2.36.285 0 .608-.042 1.056-.203v2.686m-5.61-10.772c-1.341.975-3.943 1.017-6.259 1.423-2.274.406-4.226 1.217-4.226 3.78 0 2.273 1.951 3.087 4.063 3.087 4.551 0 6.421-2.844 6.421-4.754v-3.536z"/><path d="m411.48 580.58h4.187v3.047h-4.187v13.04c0 1.588.45 1.872 2.602 1.872h1.585v3.048h-2.641c-3.577 0-4.998-.733-4.998-4.596v-13.367h-3.577v-3.047h3.577v-6.3h3.452v6.301"/><path d="m423.15 576.8h-3.454v-4.23h3.454v4.23m-3.454 3.777h3.454v21.01h-3.454v-21.01"/><path d="m437.58 580.09c6.666 0 10.202 4.838 10.202 11.02 0 6.136-3.536 10.971-10.202 10.971-6.663 0-10.201-4.835-10.201-10.971 0-6.178 3.538-11.02 10.201-11.02m0 18.94c3.616 0 6.544-2.844 6.544-7.924 0-5.125-2.928-7.964-6.544-7.964s-6.542 2.84-6.542 7.964c0 5.08 2.926 7.924 6.542 7.924"/><path d="m451.86 580.58h3.252v3.333h.082c1.461-2.601 3.819-3.822 6.827-3.822 5.527 0 7.232 3.169 7.232 7.683v13.816h-3.453v-14.224c0-2.561-1.627-4.225-4.268-4.225-4.187 0-6.218 2.804-6.218 6.582v11.867h-3.455v-21.01"/><path d="m486.5 572.57h3.862v29.02h-3.862v-29.02"/><path d="m497.03 572.57h3.861v29.02h-3.861v-29.02"/><path d="m507.56 572.57h3.861v29.02h-3.861v-29.02"/></g><path fill="#8ebf72" d="m153 640.25h20v462h-20z"/><path fill="#ffb921" d="m305 640.25h20v462h-20z"/><path fill="#ed6d61" d="m457 640.25h20v462h-20z"/><path fill="#34b7e2" d="m609 640.25h20v462h-20z"/><path fill="#8ebf72" d="m153 .251h20v462h-20z"/><path fill="#ffb921" d="m305 .251h20v462h-20z"/><path fill="#ed6d61" d="m457 .251h20v462h-20z"/><path fill="#34b7e2" d="m609 .251h20v462h-20z"/></svg>