<?xml version="1.0" encoding="utf-8"?>
<!-- Generator: Adobe Illustrator 20.0.0, SVG Export Plug-In . SVG Version: 6.00 Build 0)  -->
<svg version="1.1" id="Layer_1" xmlns="http://www.w3.org/2000/svg" xmlns:xlink="http://www.w3.org/1999/xlink" x="0px" y="0px"
	 viewBox="0 0 284.9 92.8" style="enable-background:new 0 0 284.9 92.8;" xml:space="preserve">
<style type="text/css">
	.st0{fill:#191A1A;}
</style>
<path class="st0" d="M270.2,92h13.1V78.9h-13.1V92 M273.5,69.5h6.4l5-68.8h-16.4L273.5,69.5 M223.5,22.2c0-6.3,4.1-9.2,8.9-9.2
	s8.9,3,8.9,9.2v48.2c0,6.3-4.1,9.2-8.9,9.2s-8.9-2.9-8.9-9.2V22.2 M210.4,70.5c0,14.9,11.3,22.3,21.9,22.3
	c10.7,0,21.9-7.4,21.9-22.3V22.3C254.2,7.4,242.9,0,232.3,0c-10.7,0-21.9,7.4-21.9,22.3V70.5 M161.2,92h39V78.9h-25.9V0.7h-13.1V92
	 M109.3,92h39V78.9h-25.9V0.7h-13.1V92 M57.5,92h39V78.9H70.6V52.1h22.6V39.8H70.6V13h25.9V0.7h-39V92 M0,92h13.1V51.3h16.2V92h13.1
	V0.7H29.3v39.1H13.1V0.7H0V92"/>
</svg>
