<?xml version="1.0" encoding="utf-8"?>
<!-- Generator: Adobe Illustrator 17.0.0, SVG Export Plug-In . SVG Version: 6.00 Build 0)  -->
<!DOCTYPE svg PUBLIC "-//W3C//DTD SVG 1.1//EN" "http://www.w3.org/Graphics/SVG/1.1/DTD/svg11.dtd">
<svg version="1.1" xmlns="http://www.w3.org/2000/svg" xmlns:xlink="http://www.w3.org/1999/xlink" x="0px" y="0px"
	 width="1046.77px" height="1046.77px" viewBox="0 0 1046.77 1046.77" enable-background="new 0 0 1046.77 1046.77"
	 xml:space="preserve">
<g id="Landscape">
	<g>
		<g>
			<path d="M159.083,863.164c-14.002,0-18.24-11.277-18.524-17.24c-0.105-2.206,1.598-4.08,3.805-4.186
				c2.199-0.147,4.068,1.585,4.185,3.781c0.103,1.623,1.091,9.645,10.535,9.645c9.584,0,10.881-8.161,11.044-9.797
				c0.218-2.187,2.154-3.81,4.349-3.602c2.188,0.201,3.806,2.116,3.62,4.306C177.594,851.983,172.975,863.164,159.083,863.164z"/>
		</g>
		<g>
			<path d="M159.29,898.411c-2.209,0-4-1.791-4-4v-70.496c0-2.209,1.791-4,4-4s4,1.791,4,4v70.496
				C163.29,896.62,161.499,898.411,159.29,898.411z"/>
		</g>
		<g>
			<path d="M854.33,157.54c-14.003,0-18.24-11.277-18.524-17.241c-0.105-2.207,1.598-4.081,3.805-4.186
				c2.21-0.097,4.067,1.587,4.185,3.782c0.103,1.623,1.091,9.645,10.535,9.645c9.926,0,10.956-8.769,11.041-9.769
				c0.187-2.202,2.119-3.829,4.323-3.648c2.201,0.187,3.834,2.123,3.647,4.324C872.841,146.359,868.223,157.54,854.33,157.54z"/>
		</g>
		<g>
			<path d="M854.537,192.788c-2.209,0-4-1.791-4-4v-70.496c0-2.209,1.791-4,4-4s4,1.791,4,4v70.496
				C858.537,190.997,856.746,192.788,854.537,192.788z"/>
		</g>
		<g>
			<path d="M144.305,197.537c-14.002,0-18.24-11.277-18.524-17.24c-0.105-2.207,1.598-4.081,3.805-4.187
				c2.191-0.108,4.067,1.585,4.185,3.78c0.102,1.62,1.089,9.646,10.535,9.646c9.926,0,10.957-8.769,11.042-9.769
				c0.187-2.202,2.118-3.841,4.324-3.648c2.201,0.187,3.834,2.123,3.648,4.324C162.816,186.356,158.197,197.537,144.305,197.537z"/>
		</g>
		<g>
			<path d="M144.512,232.785c-2.209,0-4-1.791-4-4v-70.496c0-2.209,1.791-4,4-4s4,1.791,4,4v70.496
				C148.512,230.994,146.721,232.785,144.512,232.785z"/>
		</g>
		<g>
			<path d="M816.773,827.916c-14.002,0-18.24-11.277-18.524-17.241c-0.105-2.206,1.598-4.08,3.805-4.186
				c2.181-0.132,4.066,1.584,4.185,3.779c0.102,1.62,1.089,9.647,10.535,9.647c9.926,0,10.957-8.77,11.042-9.77
				c0.187-2.202,2.14-3.827,4.323-3.647c2.201,0.187,3.835,2.122,3.647,4.323C835.285,816.734,830.665,827.916,816.773,827.916z"/>
		</g>
		<g>
			<path d="M816.98,863.163c-2.209,0-4-1.791-4-4v-70.496c0-2.209,1.791-4,4-4s4,1.791,4,4v70.496
				C820.98,861.372,819.189,863.163,816.98,863.163z"/>
		</g>
		<g>
			<path d="M298.701,918.915c-0.829,0-1.5-0.672-1.5-1.5c0-11.891-2.588-15.3-2.615-15.328c-0.554-0.616-0.504-1.564,0.111-2.118
				c0.615-0.557,1.563-0.506,2.118,0.11c0.347,0.385,3.385,4.141,3.385,17.336C300.201,918.243,299.53,918.915,298.701,918.915z"/>
		</g>
		<g>
			<path d="M304.701,918.915c-0.829,0-1.5-0.672-1.5-1.5c0-14.387,1.979-21.15,2.063-21.431c0.238-0.794,1.071-1.244,1.868-1.006
				c0.793,0.237,1.244,1.074,1.005,1.867c-0.019,0.063-1.937,6.692-1.937,20.569C306.201,918.243,305.53,918.915,304.701,918.915z"
				/>
		</g>
		<g>
			<path d="M310.701,918.915c-0.829,0-1.5-0.672-1.5-1.5c0-8.386,2.999-15.313,3.126-15.603c0.333-0.759,1.219-1.103,1.975-0.771
				c0.758,0.332,1.104,1.216,0.772,1.975c-0.029,0.066-2.874,6.665-2.874,14.398C312.201,918.243,311.53,918.915,310.701,918.915z"
				/>
		</g>
		<g>
			<path d="M88.809,751.262c-0.829,0-1.5-0.672-1.5-1.5c0-11.966-2.614-15.326-2.64-15.358c-0.513-0.632-0.44-1.571,0.178-2.101
				c0.618-0.527,1.533-0.481,2.077,0.122c0.347,0.386,3.385,4.143,3.385,17.337C90.309,750.59,89.637,751.262,88.809,751.262z"/>
		</g>
		<g>
			<path d="M94.809,751.262c-0.829,0-1.5-0.672-1.5-1.5c0-14.388,1.979-21.15,2.063-21.431c0.238-0.794,1.071-1.243,1.868-1.006
				c0.793,0.238,1.244,1.074,1.005,1.867c-0.019,0.063-1.937,6.691-1.937,20.569C96.309,750.59,95.637,751.262,94.809,751.262z"/>
		</g>
		<g>
			<path d="M100.809,751.262c-0.829,0-1.5-0.672-1.5-1.5c0-8.386,2.999-15.313,3.126-15.603c0.333-0.759,1.218-1.101,1.975-0.771
				c0.758,0.332,1.104,1.216,0.772,1.975c-0.029,0.066-2.874,6.665-2.874,14.398C102.309,750.59,101.637,751.262,100.809,751.262z"
				/>
		</g>
		<g>
			<path d="M751.224,987.236c-0.828,0-1.5-0.672-1.5-1.5c0-11.966-2.614-15.326-2.641-15.358c-0.512-0.632-0.44-1.571,0.179-2.101
				c0.619-0.528,1.533-0.48,2.077,0.122c0.346,0.386,3.385,4.143,3.385,17.337C752.724,986.564,752.052,987.236,751.224,987.236z"/>
		</g>
		<g>
			<path d="M757.224,987.236c-0.828,0-1.5-0.672-1.5-1.5c0-14.388,1.979-21.15,2.063-21.431c0.237-0.795,1.079-1.241,1.867-1.006
				c0.794,0.238,1.244,1.074,1.006,1.867c-0.019,0.063-1.937,6.691-1.937,20.569C758.724,986.564,758.052,987.236,757.224,987.236z"
				/>
		</g>
		<g>
			<path d="M763.224,987.236c-0.828,0-1.5-0.672-1.5-1.5c0-8.386,2.999-15.313,3.127-15.603c0.331-0.759,1.215-1.104,1.975-0.771
				c0.759,0.332,1.104,1.216,0.772,1.975c-0.029,0.066-2.874,6.665-2.874,14.398C764.724,986.564,764.052,987.236,763.224,987.236z"
				/>
		</g>
		<g>
			<path d="M911.553,311.292c-0.828,0-1.5-0.671-1.5-1.5c0-11.965-2.614-15.326-2.641-15.359c-0.512-0.632-0.44-1.571,0.179-2.1
				c0.619-0.53,1.533-0.482,2.077,0.122c0.346,0.385,3.385,4.142,3.385,17.336C913.053,310.62,912.381,311.292,911.553,311.292z"/>
		</g>
		<g>
			<path d="M917.553,311.292c-0.828,0-1.5-0.671-1.5-1.5c0-14.388,1.979-21.15,2.063-21.431c0.238-0.794,1.08-1.243,1.867-1.005
				c0.794,0.238,1.244,1.074,1.006,1.868c-0.019,0.063-1.937,6.691-1.937,20.569C919.053,310.62,918.381,311.292,917.553,311.292z"
				/>
		</g>
		<g>
			<path d="M923.553,311.292c-0.828,0-1.5-0.671-1.5-1.5c0-8.385,2.999-15.312,3.127-15.603c0.332-0.758,1.214-1.104,1.975-0.771
				c0.759,0.333,1.104,1.217,0.772,1.976c-0.029,0.065-2.874,6.665-2.874,14.398C925.053,310.62,924.381,311.292,923.553,311.292z"
				/>
		</g>
		<g>
			<path d="M52.554,321.292c-0.829,0-1.5-0.671-1.5-1.5c0-11.965-2.614-15.326-2.64-15.359c-0.513-0.632-0.44-1.571,0.178-2.1
				s1.533-0.483,2.077,0.122c0.347,0.385,3.385,4.142,3.385,17.336C54.054,320.62,53.382,321.292,52.554,321.292z"/>
		</g>
		<g>
			<path d="M58.554,321.292c-0.829,0-1.5-0.671-1.5-1.5c0-14.388,1.979-21.15,2.063-21.431c0.238-0.793,1.071-1.246,1.868-1.005
				c0.793,0.238,1.244,1.074,1.005,1.868c-0.019,0.063-1.937,6.691-1.937,20.569C60.054,320.62,59.382,321.292,58.554,321.292z"/>
		</g>
		<g>
			<path d="M64.554,321.292c-0.829,0-1.5-0.671-1.5-1.5c0-8.385,2.999-15.312,3.126-15.603c0.334-0.758,1.219-1.101,1.975-0.771
				c0.758,0.333,1.104,1.217,0.772,1.976c-0.029,0.065-2.874,6.665-2.874,14.398C66.054,320.62,65.382,321.292,64.554,321.292z"/>
		</g>
		<g>
			<path d="M241.259,106.824c-0.829,0-1.5-0.671-1.5-1.5c0-11.965-2.614-15.326-2.64-15.359c-0.513-0.632-0.44-1.571,0.178-2.1
				s1.533-0.483,2.077,0.122c0.347,0.385,3.385,4.142,3.385,17.336C242.759,106.152,242.087,106.824,241.259,106.824z"/>
		</g>
		<g>
			<path d="M247.259,106.824c-0.829,0-1.5-0.671-1.5-1.5c0-14.388,1.979-21.15,2.063-21.431c0.238-0.793,1.072-1.246,1.868-1.005
				c0.793,0.238,1.244,1.074,1.005,1.868c-0.019,0.063-1.937,6.691-1.937,20.569C248.759,106.152,248.087,106.824,247.259,106.824z"
				/>
		</g>
		<g>
			<path d="M253.259,106.824c-0.829,0-1.5-0.671-1.5-1.5c0-8.385,2.999-15.312,3.126-15.603c0.333-0.757,1.219-1.102,1.975-0.771
				c0.758,0.333,1.104,1.217,0.772,1.976c-0.029,0.065-2.874,6.665-2.874,14.398C254.759,106.152,254.087,106.824,253.259,106.824z"
				/>
		</g>
		<g>
			<path d="M202.262,524.887c-0.829,0-1.5-0.672-1.5-1.5c0-14.388,1.979-21.15,2.063-21.431c0.238-0.792,1.072-1.245,1.868-1.005
				c0.793,0.238,1.244,1.074,1.005,1.868c-0.019,0.063-1.937,6.691-1.937,20.569C203.762,524.215,203.091,524.887,202.262,524.887z"
				/>
		</g>
		<g>
			<path d="M519.614,524.886c-0.829,0-1.5-0.671-1.5-1.5c0-11.965-2.614-15.326-2.64-15.359c-0.513-0.632-0.44-1.571,0.178-2.1
				c0.617-0.528,1.533-0.483,2.077,0.122c0.347,0.385,3.385,4.142,3.385,17.336C521.114,524.215,520.443,524.886,519.614,524.886z"
				/>
		</g>
		<g>
			<path d="M525.614,524.887c-0.828,0-1.5-0.672-1.5-1.5c0-14.388,1.979-21.15,2.063-21.431c0.238-0.794,1.08-1.243,1.867-1.005
				c0.794,0.238,1.244,1.074,1.006,1.868c-0.019,0.063-1.937,6.691-1.937,20.569C527.114,524.215,526.442,524.887,525.614,524.887z"
				/>
		</g>
		<g>
			<path d="M531.614,524.887c-0.828,0-1.5-0.672-1.5-1.5c0-8.385,2.998-15.312,3.126-15.603c0.332-0.758,1.215-1.104,1.975-0.771
				c0.759,0.332,1.104,1.217,0.772,1.975c-0.028,0.066-2.873,6.665-2.873,14.398C533.114,524.215,532.442,524.887,531.614,524.887z"
				/>
		</g>
		<g>
			<path d="M519.614,170.288c-0.829,0-1.5-0.671-1.5-1.5c0-11.965-2.614-15.326-2.64-15.359c-0.513-0.632-0.44-1.571,0.178-2.1
				c0.617-0.529,1.533-0.482,2.077,0.122c0.347,0.385,3.385,4.142,3.385,17.336C521.114,169.617,520.443,170.288,519.614,170.288z"
				/>
		</g>
		<g>
			<path d="M525.614,170.288c-0.828,0-1.5-0.671-1.5-1.5c0-14.388,1.979-21.15,2.063-21.431c0.238-0.794,1.08-1.243,1.867-1.005
				c0.794,0.238,1.244,1.074,1.006,1.868c-0.019,0.063-1.937,6.691-1.937,20.569C527.114,169.617,526.442,170.288,525.614,170.288z"
				/>
		</g>
		<g>
			<path d="M531.614,170.288c-0.828,0-1.5-0.671-1.5-1.5c0-8.385,2.998-15.312,3.126-15.603c0.332-0.758,1.215-1.104,1.975-0.771
				c0.759,0.332,1.104,1.217,0.772,1.975c-0.028,0.066-2.873,6.665-2.873,14.398C533.114,169.617,532.442,170.288,531.614,170.288z"
				/>
		</g>
		<g>
			<path d="M519.614,908.415c-0.829,0-1.5-0.672-1.5-1.5c0-11.891-2.588-15.3-2.615-15.328c-0.554-0.616-0.504-1.564,0.111-2.118
				c0.615-0.556,1.563-0.506,2.118,0.11c0.347,0.385,3.385,4.141,3.385,17.336C521.114,907.743,520.443,908.415,519.614,908.415z"/>
		</g>
		<g>
			<path d="M525.614,908.415c-0.828,0-1.5-0.672-1.5-1.5c0-14.387,1.979-21.15,2.063-21.431c0.238-0.795,1.08-1.241,1.867-1.006
				c0.794,0.237,1.244,1.074,1.006,1.867c-0.019,0.063-1.937,6.692-1.937,20.569C527.114,907.743,526.442,908.415,525.614,908.415z"
				/>
		</g>
		<g>
			<path d="M531.614,908.415c-0.828,0-1.5-0.672-1.5-1.5c0-8.386,2.998-15.313,3.126-15.603c0.332-0.759,1.215-1.104,1.975-0.771
				c0.759,0.332,1.104,1.216,0.772,1.975c-0.028,0.065-2.873,6.665-2.873,14.398C533.114,907.743,532.442,908.415,531.614,908.415z"
				/>
		</g>
		<g>
			<path d="M879.269,545.886c-0.828,0-1.5-0.672-1.5-1.5c0-11.966-2.614-15.326-2.641-15.358c-0.512-0.632-0.44-1.571,0.179-2.101
				c0.619-0.528,1.532-0.481,2.077,0.122c0.346,0.386,3.385,4.143,3.385,17.337C880.769,545.214,880.097,545.886,879.269,545.886z"
				/>
		</g>
		<g>
			<path d="M885.269,545.886c-0.828,0-1.5-0.672-1.5-1.5c0-14.388,1.979-21.15,2.063-21.431c0.238-0.794,1.079-1.243,1.867-1.005
				c0.794,0.238,1.244,1.074,1.006,1.867c-0.019,0.063-1.937,6.691-1.937,20.569C886.769,545.214,886.097,545.886,885.269,545.886z"
				/>
		</g>
		<g>
			<path d="M891.269,545.886c-0.828,0-1.5-0.672-1.5-1.5c0-8.386,2.999-15.313,3.127-15.603c0.331-0.759,1.215-1.104,1.975-0.771
				c0.759,0.332,1.104,1.216,0.772,1.975c-0.029,0.066-2.874,6.665-2.874,14.398C892.769,545.214,892.097,545.886,891.269,545.886z"
				/>
		</g>
		<g>
			<path d="M709.565,106.792c-0.828,0-1.5-0.671-1.5-1.5c0-11.965-2.614-15.326-2.641-15.359c-0.512-0.632-0.44-1.571,0.179-2.1
				c0.619-0.529,1.532-0.482,2.077,0.122c0.346,0.385,3.385,4.142,3.385,17.336C711.065,106.12,710.394,106.792,709.565,106.792z"/>
		</g>
		<g>
			<path d="M715.565,106.792c-0.828,0-1.5-0.671-1.5-1.5c0-14.388,1.979-21.15,2.063-21.431c0.238-0.794,1.079-1.244,1.867-1.005
				c0.794,0.238,1.244,1.074,1.006,1.868c-0.019,0.063-1.937,6.691-1.937,20.569C717.065,106.12,716.394,106.792,715.565,106.792z"
				/>
		</g>
		<g>
			<path d="M721.565,106.792c-0.828,0-1.5-0.671-1.5-1.5c0-8.385,2.999-15.312,3.127-15.603c0.331-0.758,1.214-1.104,1.975-0.771
				c0.759,0.333,1.104,1.217,0.772,1.976c-0.029,0.065-2.874,6.665-2.874,14.398C723.065,106.12,722.394,106.792,721.565,106.792z"
				/>
		</g>
		<g>
			<path d="M957.553,782.762c-0.828,0-1.5-0.672-1.5-1.5c0-11.966-2.614-15.326-2.641-15.358c-0.512-0.632-0.44-1.571,0.179-2.101
				c0.619-0.528,1.532-0.48,2.077,0.122c0.346,0.386,3.385,4.143,3.385,17.337C959.053,782.09,958.381,782.762,957.553,782.762z"/>
		</g>
		<g>
			<path d="M963.553,782.762c-0.828,0-1.5-0.672-1.5-1.5c0-14.388,1.979-21.15,2.063-21.431c0.237-0.795,1.081-1.241,1.867-1.006
				c0.794,0.238,1.244,1.074,1.006,1.867c-0.019,0.063-1.937,6.691-1.937,20.569C965.053,782.09,964.381,782.762,963.553,782.762z"
				/>
		</g>
		<g>
			<path d="M969.553,782.762c-0.828,0-1.5-0.672-1.5-1.5c0-8.386,2.999-15.313,3.127-15.603c0.332-0.759,1.214-1.104,1.975-0.771
				c0.759,0.332,1.104,1.216,0.772,1.975c-0.029,0.066-2.874,6.665-2.874,14.398C971.053,782.09,970.381,782.762,969.553,782.762z"
				/>
		</g>
		<g>
			<path d="M196.262,524.886c-0.829,0-1.5-0.671-1.5-1.5c0-11.965-2.614-15.326-2.64-15.358c-0.513-0.632-0.441-1.572,0.178-2.1
				c0.617-0.528,1.533-0.483,2.077,0.122c0.346,0.385,3.385,4.142,3.385,17.336C197.762,524.215,197.091,524.886,196.262,524.886"/>
		</g>
		<g>
			<path d="M208.262,524.887c-0.829,0-1.5-0.672-1.5-1.5c0-8.386,2.999-15.312,3.126-15.604c0.334-0.757,1.22-1.102,1.976-0.77
				c0.758,0.332,1.104,1.217,0.772,1.976c-0.029,0.065-2.874,6.664-2.874,14.398C209.762,524.215,209.091,524.887,208.262,524.887"
				/>
		</g>
	</g>
</g>
<g id="Roads">
	<g>
		<path fill="#FFFFFF" d="M625.83,1046.77h-48V0h48v842.309c29.134-57.955,71.273-111.063,125.697-157.825
			c49.338-42.392,109.241-73.154,178.048-91.431c58.795-15.618,105.332-16.832,118.195-16.832v48
			c-15.604,0-155.61,2.713-264.962,96.669C680.112,809.128,625.83,921.816,625.83,1046.77z"/>
	</g>
	<g>
		<path fill="#FFFFFF" d="M469.94,1046.77h-48V204.461c-29.134,57.955-71.273,111.063-125.697,157.825
			c-49.338,42.392-109.242,73.154-178.048,91.431C59.4,469.335,12.862,470.549,0,470.549v-48c15.604,0,155.608-2.713,264.962-96.67
			C367.658,237.641,421.94,124.954,421.94,0h48V1046.77z"/>
	</g>
	<g>
		<path fill="#FFFFFF" d="M466.983,1045.77h-48c0-143.765-10.833-201.138-29.544-251.654
			c-11.836-31.953-27.052-60.569-41.768-88.244c-25.583-48.112-49.748-93.556-53.838-150.137
			c-6.443-89.134,13.548-145.498,71.303-201.031c28.785-27.678,65.875-47.362,107.259-56.926
			c39.877-9.214,82.129-8.736,122.187,1.387c37.811,9.555,66.571,25.69,97.021,42.774c32.5,18.234,66.107,37.089,116.94,52.04
			c96.894,28.499,234.838,23.103,236.219,23.046l2.022,47.958c-5.962,0.251-147.174,5.814-251.786-24.954
			c-56.04-16.482-93.676-37.598-126.882-56.228c-28.792-16.153-53.657-30.104-85.294-38.099
			c-66.901-16.907-139.289,0.208-184.417,43.602c-47.273,45.454-62.109,88.101-56.697,162.97
			c3.359,46.463,24.206,85.667,48.344,131.063c15.459,29.072,31.444,59.134,44.399,94.107
			C455.054,833.071,466.983,894.809,466.983,1045.77z"/>
	</g>
	<g>
		<path fill="#FFFFFF" d="M515.326,756.571c-21.545,0.001-43.14-2.656-64.137-7.962c-37.81-9.555-66.57-25.69-97.02-42.773
			c-32.501-18.234-66.109-37.09-116.941-52.041c-86.747-25.513-182.164-23.892-222.91-23.202C8.697,630.688,3.842,630.77,0,630.77
			v-48c3.435,0,8.101-0.079,13.504-0.171c42.937-0.729,143.49-2.436,237.268,25.146c56.041,16.482,93.677,37.598,126.883,56.228
			c28.792,16.153,53.657,30.104,85.294,38.099c66.897,16.904,139.286-0.21,184.416-43.602
			c47.272-45.455,62.109-88.101,56.697-162.97c-3.358-46.463-24.205-85.667-48.344-131.062
			c-15.459-29.072-31.443-59.135-44.398-94.109c-24.02-64.846-32.533-135.585-32.533-270.326h48
			c0,145.438,10.833,203.138,29.545,253.653c11.836,31.954,27.053,60.571,41.769,88.246c25.583,48.112,49.747,93.556,53.837,150.137
			c6.443,89.134-13.548,145.497-71.303,201.03c-28.785,27.678-65.874,47.362-107.259,56.926
			C554.4,754.38,534.884,756.571,515.326,756.571z"/>
	</g>
	<g>
		<path d="M0.23,425.715v-8c56.404,0,111.104-11.04,162.584-32.814c49.738-21.039,94.412-51.161,132.781-89.531
			c38.37-38.369,68.493-83.044,89.531-132.782c21.774-51.48,32.814-106.181,32.814-162.583h8
			c0,57.478-11.253,113.228-33.446,165.699c-21.441,50.693-52.139,96.222-91.242,135.323c-39.101,39.102-84.63,69.8-135.322,91.242
			C113.459,414.462,57.71,425.715,0.23,425.715"/>
	</g>
	<g>
		<path d="M297.198,547.124c4.159,62.772,24.824,99.421,46.701,138.221c18.035,31.985,36.683,65.059,51.549,118.898
			c17.387,62.966,25.839,142.298,25.839,242.529h-8c0-99.502-8.358-178.137-25.55-240.4
			c-14.605-52.894-33.009-85.533-50.807-117.098c-21.903-38.846-42.615-75.574-47.446-137.885"/>
	</g>
	<g>
		<path d="M806.597,387.312c-52.889-14.602-85.53-33.007-117.098-50.806c-44.228-24.938-86.003-48.493-165.885-48.493l-24.236,1.423
			l-0.172,0.014c-54.121,5.546-103.186,28.935-141.891,67.639c-27.93,27.931-47.963,61.533-58.992,98.321
			c-0.297,0.983-0.574,1.974-0.858,2.962c-0.194,0.68-0.399,1.357-0.587,2.039c-5.654,20.358-8.581,41.611-8.581,63.316
			c0,32.786,4.71,66.5,15.527,97.56l9.87,3.788c-11.1-29.087-16.396-60.91-17.26-92.136l-0.002-9.551
			c0-30.244,5.873-59.585,17.075-86.724c0.04-0.098,0.078-0.197,0.119-0.295c11.271-27.199,27.9-52.177,49.346-73.622
			c37.368-37.369,84.729-59.958,136.964-65.33l23.796-1.404c77.709,0.023,118.572,23.066,161.839,47.462
			c31.987,18.036,65.062,36.685,118.897,51.548c62.963,17.387,142.295,25.839,242.529,25.839v-8
			C947.493,412.862,868.857,404.504,806.597,387.312"/>
	</g>
	<g>
		<line fill="#FFFFFF" x1="469.94" y1="0.005" x2="465.287" y2="1046.772"/>
	</g>
	<g>
		<line fill="#FFFFFF" x1="577.287" y1="1046.772" x2="581.94" y2="0.005"/>
	</g>
	<g>
		<rect x="573.287" y="0.005" width="8" height="1046.767"/>
	</g>
	<g>
		<path d="M629.287,1046.772h-8c0-57.479,11.253-113.229,33.446-165.7c21.443-50.693,52.14-96.222,91.242-135.321
			c39.102-39.105,84.631-69.803,135.322-91.243c52.47-22.194,108.22-33.447,165.7-33.447v8c-56.403,0-111.105,11.041-162.583,32.815
			c-49.737,21.037-94.412,51.16-132.783,89.531c-38.368,38.368-68.491,83.042-89.531,132.782
			C640.327,935.668,629.287,990.37,629.287,1046.772"/>
	</g>
	<g>
		<path d="M621.283,856.89l0.001-173.824c-29.135,17.922-62.697,27.506-97.671,27.506l-11.596-0.002
			c-59.663-2.051-91.012-19.726-130.703-42.103c-65.233-36.784-146.403-82.553-381.084-82.553v-8
			c236.782,0,318.966,46.342,385.002,83.578c38.734,21.839,69.327,39.085,126.989,41.08h11.392c35.162,0,68.833-10.12,97.671-28.982
			l0.001-392.228l7.726,19.761c12.68,32.436,26.301,56.594,39.475,79.955c23.636,41.923,42.304,75.033,42.304,142.311v1.434
			c-0.385,49.644-20.047,96.277-55.364,131.342c-8.14,8.082-16.89,15.328-26.142,21.693l-0.001,145.263
			c21.881-40.843,49.665-78.228,82.751-111.313c43.491-43.493,94.148-77.645,150.564-101.508
			c58.424-24.71,120.464-37.239,184.399-37.239v8c-62.858,0-123.85,12.317-181.282,36.607
			c-55.462,23.46-105.265,57.037-148.025,99.797c-36.416,36.417-66.299,78.127-88.817,123.972L621.283,856.89z M629.285,322.592
			l-0.001,345.45c7.196-5.286,14.051-11.146,20.505-17.554c33.81-33.568,52.633-78.208,53.001-125.696v-1.403
			c0-65.178-18.213-97.482-41.271-138.379C651.315,366.915,640.018,346.882,629.285,322.592"/>
	</g>
	<g>
		<path fill="#FFFFFF" d="M303.618,629.895c20.382,6.378,114.327,58.196,114.327,58.196v43.681c0,0-68.349-34.989-81.16-42.241"/>
	</g>
	<g>
		<path d="M523.883,732.262h-1.5c-1.875,0-3.727-0.013-5.555-0.041l0.045-3c1.324,0.021,2.66,0.033,4.01,0.039v-0.19h1.5
			c2.095,0,4.2-0.031,6.257-0.094l0.092,2.998c-1.597,0.049-3.222,0.079-4.849,0.091V732.262z M492.766,731.008
			c-4.042-0.361-8.074-0.808-11.985-1.329l0.397-2.974c3.867,0.515,7.855,0.958,11.854,1.314L492.766,731.008z M552.852,729.862
			l-0.434-2.969c3.932-0.575,7.887-1.271,11.757-2.071l0.607,2.938C560.856,728.571,556.841,729.278,552.852,729.862
			 M457.069,725.34c-3.912-0.923-7.836-1.96-11.665-3.081l0.843-2.879c3.778,1.106,7.651,2.129,11.511,3.04L457.069,725.34z
			 M588.189,721.482l-0.946-2.847c3.767-1.25,7.548-2.63,11.238-4.1l1.109,2.787C595.847,718.813,592.011,720.213,588.189,721.482
			 M422.642,714.267c-3.594-1.47-7.313-3.091-11.051-4.818l1.258-2.723c3.698,1.708,7.375,3.311,10.929,4.764L422.642,714.267z
			 M621.535,707.055l-1.427-2.638c3.485-1.886,6.964-3.902,10.342-5.991l1.579,2.551
			C628.602,703.097,625.071,705.142,621.535,707.055 M390.079,698.61c-3.155-1.699-6.503-3.538-10.537-5.789l1.462-2.619
			c4.02,2.242,7.356,4.075,10.498,5.767L390.079,698.61z M651.856,687.06l-1.864-2.351c3.105-2.46,6.182-5.045,9.147-7.685
			l1.995,2.24C658.126,681.942,655.005,684.565,651.856,687.06 M358.61,681.061c-3.835-2.138-7.269-4.028-10.501-5.777l1.428-2.639
			c3.243,1.756,6.688,3.652,10.534,5.797L358.61,681.061z M326.843,664.286c-3.629-1.777-7.267-3.504-10.812-5.13l1.251-2.727
			c3.568,1.637,7.228,3.374,10.881,5.164L326.843,664.286z M678.258,662.14l-2.24-1.996c2.643-2.968,5.227-6.043,7.678-9.138
			l2.352,1.863C683.562,656.009,680.941,659.129,678.258,662.14 M294.036,649.763c-3.684-1.456-7.448-2.884-11.187-4.247
			l1.027-2.818c3.764,1.371,7.554,2.81,11.263,4.275L294.036,649.763z M260.169,637.915c-3.773-1.158-7.639-2.295-11.489-3.376
			l0.812-2.889c3.873,1.089,7.762,2.232,11.558,3.398L260.169,637.915z M699.961,633.052l-2.551-1.578
			c2.08-3.362,4.092-6.835,5.98-10.32l2.639,1.428C704.113,626.119,702.071,629.641,699.961,633.052 M225.495,628.584
			c-3.848-0.9-7.783-1.779-11.695-2.611l0.624-2.933c3.932,0.836,7.886,1.719,11.754,2.622L225.495,628.584z M190.277,621.426
			c-3.855-0.674-7.835-1.336-11.829-1.967l0.468-2.963c4.01,0.633,8.007,1.298,11.879,1.975L190.277,621.426z M154.713,616.082
			c-3.911-0.499-7.919-0.982-11.913-1.436l0.338-2.98c4.008,0.455,8.03,0.939,11.953,1.439L154.713,616.082z M118.932,612.237
			c-3.91-0.347-7.935-0.681-11.963-0.992l0.231-2.99c4.039,0.311,8.076,0.646,11.997,0.994L118.932,612.237z M83.021,609.647
			c-3.94-0.224-7.937-0.432-11.992-0.624l0.142-2.996c4.064,0.191,8.071,0.399,12.021,0.624L83.021,609.647z M47.038,608.103
			c-3.951-0.118-7.954-0.22-12.009-0.308l0.066-3c4.062,0.089,8.073,0.192,12.033,0.31L47.038,608.103z M11.015,607.454
			c-3.958-0.028-7.963-0.041-12.015-0.041v-3c4.059,0,8.071,0.013,12.036,0.041L11.015,607.454z M716.292,600.661l-2.787-1.111
			c1.472-3.689,2.85-7.462,4.096-11.214l2.847,0.945C719.184,593.089,717.785,596.918,716.292,600.661 M726.735,565.892
			l-2.938-0.607c0.8-3.866,1.499-7.821,2.078-11.758l2.969,0.438C728.256,557.958,727.546,561.97,726.735,565.892 M730.968,529.843
			l-2.998-0.09c0.054-1.785,0.085-3.604,0.094-5.421l-0.004-0.945c0-1.885-0.014-3.746-0.042-5.584l3-0.045
			c0.02,1.363,0.034,2.739,0.039,4.129h0.004l0.006,1.5C731.066,525.549,731.032,527.72,730.968,529.843 M726.811,493.975
			c-0.359-4.015-0.802-8.004-1.317-11.854l2.974-0.398c0.52,3.894,0.968,7.927,1.331,11.984L726.811,493.975z M721.202,458.7
			c-0.913-3.867-1.937-7.739-3.044-11.511l2.879-0.845c1.121,3.823,2.159,7.748,3.085,11.666L721.202,458.7z M710.265,424.722
			c-1.457-3.557-3.062-7.235-4.769-10.93l2.723-1.259c1.727,3.736,3.349,7.454,4.821,11.052L710.265,424.722z M694.736,392.447
			c-1.71-3.173-3.543-6.509-5.77-10.499l2.619-1.461c2.235,4.002,4.074,7.35,5.791,10.537L694.736,392.447z M677.205,361.016
			c-2.141-3.842-4.037-7.288-5.794-10.533l2.639-1.428c1.751,3.234,3.64,6.669,5.776,10.5L677.205,361.016z M660.359,329.106
			c-1.785-3.646-3.521-7.306-5.161-10.879l2.727-1.251c1.629,3.55,3.354,7.188,5.129,10.811L660.359,329.106z M645.748,296.083
			c-1.474-3.732-2.913-7.522-4.273-11.263l2.818-1.025c1.353,3.715,2.78,7.479,4.246,11.186L645.748,296.083z M633.826,261.994
			c-1.157-3.77-2.299-7.658-3.396-11.556l2.889-0.813c1.089,3.876,2.225,7.741,3.375,11.489L633.826,261.994z M624.446,227.123
			c-0.9-3.852-1.782-7.807-2.62-11.754l2.934-0.624c0.835,3.928,1.712,7.863,2.608,11.696L624.446,227.123z M617.258,191.739
			c-0.681-3.891-1.345-7.888-1.975-11.878l2.963-0.468c0.628,3.974,1.289,7.954,1.967,11.829L617.258,191.739z"/>
	</g>
	<g>
		<path d="M20.587,446.549l-0.162-2.996c4.051-0.219,8.161-0.499,12.215-0.83l0.244,2.991
			C28.803,446.047,24.665,446.328,20.587,446.549 M57.385,443.035l-0.408-2.973c4.017-0.551,8.09-1.167,12.105-1.832l0.49,2.96
			C65.53,441.859,61.429,442.48,57.385,443.035 M93.768,436.493l-0.653-2.928c3.971-0.886,7.978-1.838,11.911-2.83l0.734,2.909
			C101.8,434.643,97.766,435.601,93.768,436.493 M129.483,426.951l-0.893-2.863c3.869-1.208,7.783-2.491,11.634-3.812l0.973,2.838
			C137.321,424.444,133.38,425.736,129.483,426.951 M164.283,414.471l-1.129-2.779c3.744-1.522,7.526-3.12,11.24-4.751l1.206,2.747
			C171.861,411.329,168.053,412.939,164.283,414.471 M197.852,399.176l-1.356-2.676c3.622-1.836,7.262-3.744,10.818-5.67
			l1.428,2.638C205.163,395.407,201.499,397.327,197.852,399.176 M230.059,381.145l-1.572-2.554
			c3.457-2.128,6.93-4.331,10.321-6.549l1.641,2.511C237.036,376.785,233.54,379.003,230.059,381.145 M260.687,360.51l-1.778-2.417
			c3.273-2.407,6.554-4.891,9.753-7.381l1.843,2.367C267.285,355.586,263.981,358.086,260.687,360.51 M289.526,337.413l-1.97-2.263
			c3.065-2.668,6.133-5.414,9.119-8.161l2.031,2.208C295.7,331.962,292.612,334.726,289.526,337.413 M316.382,312.016l-2.148-2.093
			c2.835-2.911,5.668-5.9,8.422-8.887l2.206,2.033C322.089,306.076,319.237,309.087,316.382,312.016 M341.072,284.491l-2.314-1.91
			c2.588-3.135,5.168-6.35,7.668-9.554l2.366,1.845C346.275,278.098,343.677,281.334,341.072,284.491 M363.425,255.016l-2.463-1.713
			c2.327-3.346,4.634-6.764,6.858-10.159l2.51,1.645C368.091,248.206,365.767,251.647,363.425,255.016 M383.279,223.786
			l-2.597-1.503c2.042-3.527,4.06-7.126,5.999-10.697l2.637,1.43C387.366,216.612,385.334,220.235,383.279,223.786 M400.487,191.005
			l-2.712-1.283c1.745-3.689,3.459-7.446,5.093-11.166l2.746,1.207C403.969,183.508,402.243,187.29,400.487,191.005
			 M414.918,156.888l-2.81-1.052c1.427-3.806,2.822-7.696,4.149-11.561l2.838,0.974
			C417.759,149.141,416.354,153.057,414.918,156.888 M426.446,121.72l-2.888-0.814c1.102-3.904,2.166-7.884,3.162-11.829
			l2.909,0.735C428.626,113.783,427.555,117.79,426.446,121.72"/>
	</g>
	<g>
		<path d="M435.025,930.216c-0.349-4.09-0.725-8.199-1.116-12.216l2.985-0.291c0.393,4.028,0.77,8.15,1.12,12.251L435.025,930.216z
			 M431.214,893.648c-0.504-4.063-1.043-8.151-1.6-12.148l2.972-0.414c0.559,4.013,1.099,8.114,1.605,12.193L431.214,893.648z
			 M425.856,857.302c-0.696-4.04-1.431-8.094-2.185-12.05l2.947-0.563c0.758,3.975,1.496,8.046,2.195,12.103L425.856,857.302z
			 M418.626,821.308c-0.928-3.997-1.901-7.997-2.894-11.892l2.907-0.741c0.998,3.915,1.976,7.937,2.909,11.955L418.626,821.308z
			 M409.137,785.87c-1.198-3.91-2.454-7.828-3.733-11.644l2.845-0.954c1.286,3.842,2.55,7.785,3.756,11.719L409.137,785.87z
			 M397.021,751.271c-1.497-3.774-3.066-7.575-4.663-11.298l2.756-1.184c1.609,3.749,3.189,7.576,4.696,11.376L397.021,751.271z
			 M382.117,717.776c-1.771-3.59-3.581-7.158-5.534-10.905l2.66-1.387c1.964,3.768,3.784,7.355,5.565,10.966L382.117,717.776z
			 M364.896,685.349c-1.702-3.044-3.391-6.04-5.063-9.004l-0.947-1.681l2.613-1.473l0.947,1.68c1.673,2.967,3.365,5.967,5.068,9.013
			L364.896,685.349z M347.005,653.161c-2.069-3.888-3.911-7.466-5.631-10.936l2.688-1.332c1.707,3.445,3.536,6.997,5.591,10.86
			L347.005,653.161z M331.34,619.729c-1.51-3.851-2.923-7.751-4.2-11.59l2.847-0.948c1.26,3.791,2.655,7.641,4.146,11.443
			L331.34,619.729z M320.647,584.353c-0.852-3.951-1.62-8.026-2.285-12.114l2.961-0.48c0.657,4.037,1.415,8.061,2.257,11.961
			L320.647,584.353z M315.543,547.77c-0.286-4-0.501-8.137-0.639-12.297l2.998-0.1c0.137,4.122,0.35,8.221,0.633,12.184
			L315.543,547.77z M318.069,510.979l-2.996-0.178c0.245-4.107,0.614-8.252,1.099-12.321l2.979,0.355
			C318.673,502.845,318.309,506.931,318.069,510.979 M323.462,474.844l-2.916-0.706c0.966-3.991,2.065-8.005,3.268-11.932
			l2.868,0.878C325.497,466.954,324.414,470.911,323.462,474.844 M1046.767,442.361c-4.147,0-8.243-0.014-12.292-0.042l0.021-3
			c4.041,0.028,8.132,0.042,12.271,0.042V442.361z M1009.904,441.961c-4.149-0.092-8.246-0.2-12.288-0.323l0.092-2.999
			c4.034,0.123,8.121,0.231,12.263,0.323L1009.904,441.961z M973.061,440.674c-4.153-0.201-8.244-0.419-12.277-0.653l0.174-2.995
			c4.023,0.234,8.105,0.451,12.247,0.652L973.061,440.674z M335.198,440.243l-2.743-1.214c1.657-3.745,3.451-7.495,5.333-11.144
			l2.666,1.375C338.599,432.856,336.831,436.552,335.198,440.243 M936.269,438.339c-4.101-0.325-8.222-0.677-12.249-1.045
			l0.271-2.987c4.017,0.366,8.126,0.717,12.216,1.042L936.269,438.339z M899.574,434.756c-4.094-0.479-8.199-0.989-12.201-1.514
			l0.391-2.975c3.988,0.524,8.079,1.032,12.16,1.51L899.574,434.756z M863.057,429.669c-4.067-0.663-8.145-1.364-12.121-2.084
			l0.535-2.952c3.959,0.717,8.019,1.415,12.068,2.075L863.057,429.669z M826.836,422.757c-4.02-0.887-8.053-1.82-11.983-2.775
			l0.707-2.915c3.911,0.949,7.923,1.878,11.923,2.761L826.836,422.757z M791.101,413.64c-3.951-1.155-7.909-2.366-11.764-3.599
			l0.914-2.858c3.831,1.226,7.765,2.43,11.692,3.578L791.101,413.64z M352.887,408.302l-2.485-1.681
			c2.297-3.397,4.728-6.772,7.226-10.033l2.382,1.824C357.548,401.626,355.151,404.954,352.887,408.302 M756.124,401.931
			c-3.819-1.452-7.668-2.976-11.438-4.531l1.142-2.773c3.745,1.543,7.569,3.057,11.363,4.499L756.124,401.931z M722.216,387.412
			c-3.612-1.723-7.324-3.551-11.033-5.431l1.357-2.676c3.687,1.87,7.377,3.686,10.967,5.399L722.216,387.412z M375.95,379.968
			l-2.15-2.092c2.864-2.943,5.853-5.84,8.885-8.609l2.024,2.214C381.719,374.211,378.773,377.067,375.95,379.968 M689.491,370.44
			c-3.638-2.011-7.201-4.009-10.712-5.985l1.471-2.614c3.505,1.972,7.062,3.966,10.693,5.973L689.491,370.44z M403.65,356.127
			l-1.748-2.437c3.341-2.397,6.796-4.723,10.27-6.915l1.6,2.537C410.349,351.473,406.944,353.766,403.65,356.127 M657.393,352.5
			c-3.907-2.132-7.443-4.014-10.808-5.751l1.377-2.666c3.386,1.749,6.941,3.64,10.868,5.784L657.393,352.5z M435.132,337.545
			l-1.288-2.709c3.715-1.767,7.531-3.444,11.342-4.986l1.125,2.781C442.555,334.15,438.794,335.804,435.132,337.545
			 M624.533,336.339c-3.784-1.596-7.593-3.094-11.322-4.451l1.026-2.819c3.775,1.374,7.632,2.89,11.462,4.507L624.533,336.339z
			 M469.427,324.854l-0.785-2.896c3.963-1.074,8.011-2.043,12.032-2.879l0.611,2.937
			C477.322,322.84,473.333,323.795,469.427,324.854 M589.947,324.82c-3.884-0.953-7.882-1.821-11.884-2.581l0.56-2.948
			c4.053,0.77,8.104,1.65,12.039,2.615L589.947,324.82z M553.968,318.868c-3.953-0.37-8.043-0.668-12.157-0.885l0.158-2.996
			c4.154,0.22,8.285,0.52,12.278,0.893L553.968,318.868z M505.404,318.479l-0.259-2.989c4.087-0.353,8.241-0.59,12.349-0.704
			l0.083,2.999C513.528,317.897,509.432,318.13,505.404,318.479"/>
	</g>
	<g>
		<path d="M622.51,902.498l-2.838-0.974c1.337-3.894,2.742-7.81,4.178-11.639l2.808,1.053
			C625.233,894.74,623.837,898.63,622.51,902.498 M635.899,868.217l-2.746-1.207c1.647-3.747,3.372-7.53,5.127-11.242l2.712,1.283
			C639.249,860.737,637.535,864.494,635.899,868.217 M652.086,835.189l-2.637-1.432c1.95-3.595,3.983-7.218,6.04-10.771l2.596,1.504
			C656.042,828.019,654.023,831.617,652.086,835.189 M670.946,803.628l-2.509-1.644c2.247-3.429,4.57-6.871,6.904-10.228
			l2.463,1.713C675.485,796.804,673.178,800.222,670.946,803.628 M692.34,773.747l-2.365-1.845c2.537-3.252,5.134-6.489,7.72-9.619
			l2.313,1.911C697.44,767.303,694.86,770.517,692.34,773.747 M716.11,745.736l-2.205-2.033c2.773-3.007,5.625-6.016,8.48-8.947
			l2.148,2.094C721.698,739.76,718.864,742.75,716.11,745.736 M742.092,719.784l-2.031-2.207c3.026-2.785,6.115-5.549,9.181-8.217
			l1.969,2.263C748.166,714.273,745.098,717.019,742.092,719.784 M770.105,696.062l-1.843-2.367
			c3.212-2.501,6.514-5.001,9.819-7.431l1.777,2.416C776.576,691.094,773.295,693.577,770.105,696.062 M799.96,674.732l-1.643-2.512
			c3.411-2.23,6.907-4.447,10.391-6.593l1.572,2.555C806.819,670.313,803.347,672.516,799.96,674.732 M831.454,655.944l-1.43-2.639
			c3.594-1.946,7.258-3.866,10.892-5.707l1.356,2.676C838.663,652.102,835.023,654.009,831.454,655.944 M864.373,639.831
			l-1.205-2.746c3.734-1.64,7.542-3.248,11.316-4.782l1.129,2.779C871.864,636.606,868.083,638.203,864.373,639.831
			 M898.542,626.496l-0.973-2.838c3.884-1.333,7.826-2.624,11.714-3.837l0.895,2.864C906.314,623.891,902.4,625.173,898.542,626.496
			 M933.741,616.037l-0.734-2.908c3.977-1.004,8.013-1.963,11.993-2.85l0.652,2.928
			C941.699,614.088,937.691,615.041,933.741,616.037 M969.686,608.542l-0.491-2.959c4.035-0.668,8.135-1.289,12.187-1.846
			l0.408,2.973C977.766,607.263,973.693,607.879,969.686,608.542 M1006.126,604.049l-0.244-2.99
			c4.064-0.331,8.202-0.613,12.298-0.835l0.162,2.996C1014.273,603.441,1010.163,603.72,1006.126,604.049"/>
	</g>
	<g>
		<rect x="417.945" y="207.1" width="8" height="537.107"/>
	</g>
	<g>
		<path d="M665.924,378.318c-39.69-22.379-71.038-40.055-130.687-42.109l-11.624-0.003c-34.973,0-68.533,9.583-97.668,27.504
			V207.099V189.88l-7.59,15.456c-22.515,45.843-52.397,87.555-88.816,123.975c-42.763,42.763-92.566,76.34-148.027,99.798
			c-57.428,24.29-118.42,36.606-181.282,36.606v8c63.939,0,125.979-12.529,184.398-37.238
			c56.414-23.862,107.073-58.014,150.568-101.509c33.088-33.088,60.871-70.473,82.749-111.315v145.265
			c-9.252,6.365-18.004,13.613-26.143,21.694c-35.318,35.065-54.98,81.699-55.365,131.343v1.433
			c0,67.229,18.641,100.341,42.252,142.219l39.594,80.216l7.662,19.602v-4.077V373.187c28.838-18.862,62.506-28.981,97.668-28.981
			h11.419c57.649,2,88.24,19.247,126.962,41.08c66.039,37.236,148.227,83.576,385.003,83.576v-8
			C812.32,460.862,731.147,415.093,665.924,378.318 M344.437,521.986c0.368-47.488,19.191-92.128,53.001-125.696
			c6.455-6.408,13.311-12.269,20.507-17.555v345.459c-10.732-24.287-22.03-44.327-32.236-62.426
			c-23.059-40.897-41.272-73.199-41.272-138.38V521.986z"/>
	</g>
	<g>
		<rect x="465.94" y="0.005" width="8" height="1046.767"/>
	</g>
	<g>
		<path d="M758.737,523.388c-0.032-32.884-4.686-66.803-15.498-98.025l-9.942-4.016c12.252,32.175,17.414,67.74,17.446,102.054
			h-0.072c0,60.683-23.631,117.734-66.54,160.642C646.762,721.41,599.402,744,547.167,749.371l-23.592,1.392
			c-77.755-0.007-118.637-23.057-161.918-47.461c-31.986-18.036-65.061-36.685-118.897-51.547
			c-62.968-17.389-142.3-25.841-242.53-25.841v0.014H0.106v8c99.505,0,178.14,8.357,240.4,25.548
			c52.888,14.602,85.53,33.008,117.097,50.807c44.229,24.938,86.003,48.492,165.886,48.492l24.235-1.422l0.173-0.015
			c0.041-0.004,0.082-0.01,0.123-0.014v0.004c54.12-5.544,103.186-28.933,141.892-67.64c44.419-44.418,68.882-103.477,68.882-166.3
			H758.737z"/>
	</g>
	<g>
		<path d="M757.743,495.388c-4.83-62.312-25.543-99.039-47.447-137.886c-17.799-31.567-36.203-64.208-50.806-117.096
			c-17.192-62.265-25.55-140.901-25.55-240.401h-8v0.011h-0.124c0,100.232,8.451,179.564,25.838,242.53
			c14.866,53.839,33.515,86.913,51.549,118.898c21.878,38.8,42.543,75.448,46.701,138.221l0.248,3.735h0.515"/>
	</g>
	<g>
		<path d="M361.657,703.301c-31.986-18.035-65.061-36.685-118.897-51.547"/>
	</g>
	<g>
		<path d="M417.944,731.772c-20.288-8.173-38.075-18.202-56.287-28.471"/>
	</g>
	<g>
		<path d="M447.44,1046.77h-3v-12.032h3V1046.77z M447.44,1010.674h-3v-12.032h3V1010.674z M447.44,974.578h-3v-12.031h3V974.578z
			 M447.44,938.482h-3V926.45h3V938.482z M447.44,902.386h-3v-12.032h3V902.386z M447.44,866.29h-3v-12.031h3V866.29z
			 M447.44,830.194h-3v-12.032h3V830.194z M447.44,794.098h-3v-12.032h3V794.098z M447.44,758.002h-3V745.97h3V758.002z
			 M447.44,721.906h-3v-12.031h3V721.906z M447.44,685.81h-3v-12.032h3V685.81z M447.44,649.714h-3v-12.032h3V649.714z
			 M447.44,613.618h-3v-12.031h3V613.618z M447.44,577.522h-3V565.49h3V577.522z M447.44,541.426h-3v-12.032h3V541.426z
			 M447.44,505.33h-3v-12.032h3V505.33z M447.44,469.234h-3v-12.032h3V469.234z M447.44,433.138h-3v-12.032h3V433.138z
			 M447.44,397.042h-3V385.01h3V397.042z M447.44,360.946h-3v-12.032h3V360.946z M447.44,324.85h-3v-12.032h3V324.85z
			 M447.44,288.754h-3v-12.032h3V288.754z M447.44,252.658h-3v-12.032h3V252.658z M447.44,216.562h-3V204.53h3V216.562z
			 M447.44,180.466h-3v-12.032h3V180.466z M447.44,144.37h-3v-12.032h3V144.37z M447.44,108.274h-3V96.242h3V108.274z
			 M447.44,72.178h-3V60.146h3V72.178z M447.44,36.082h-3V24.05h3V36.082z"/>
	</g>
	<g>
		<path d="M602.787,1022.724h-3v-12.032h3V1022.724z M602.787,986.628h-3v-12.032h3V986.628z M602.787,950.532h-3v-12.031h3V950.532
			z M602.787,914.436h-3v-12.032h3V914.436z M602.787,878.34h-3v-12.032h3V878.34z M602.787,842.244h-3v-12.032h3V842.244z
			 M602.787,806.148h-3v-12.032h3V806.148z M602.787,770.051h-3V758.02h3V770.051z M602.787,733.956h-3v-12.032h3V733.956z
			 M602.787,697.86h-3v-12.032h3V697.86z M602.787,661.764h-3v-12.032h3V661.764z M602.787,625.667h-3v-12.032h3V625.667z
			 M602.787,589.572h-3V577.54h3V589.572z M602.787,553.475h-3v-12.031h3V553.475z M602.787,517.379h-3v-12.032h3V517.379z
			 M602.787,481.284h-3v-12.032h3V481.284z M602.787,445.187h-3v-12.032h3V445.187z M602.787,409.091h-3v-12.032h3V409.091z
			 M602.787,372.996h-3v-12.032h3V372.996z M602.787,336.899h-3v-12.032h3V336.899z M602.787,300.803h-3v-12.032h3V300.803z
			 M602.787,264.708h-3v-12.032h3V264.708z M602.787,228.611h-3v-12.032h3V228.611z M602.787,192.516h-3v-12.032h3V192.516z
			 M602.787,156.419h-3v-12.032h3V156.419z M602.787,120.323h-3v-12.032h3V120.323z M602.787,84.228h-3V72.196h3V84.228z
			 M602.787,48.131h-3V36.099h3V48.131z M602.787,12.036h-3V0.004h3V12.036z"/>
	</g>
	<g>
		<path fill="#FFFFFF" d="M417.944,731.772c0,0-70.778-35.332-81.16-42.241"/>
	</g>
	<g>
		<path fill="#FFFFFF" d="M362.972,362.747c37.368-37.369,84.729-59.958,136.964-65.33l23.678,38.79
			c-34.974,0-68.534,9.582-97.668,27.504l-8,5.208c-9.252,6.365-18.004,13.613-26.144,21.694L362.972,362.747z"/>
	</g>
	<g>
		<path d="M375.95,379.968l-2.15-2.092c2.864-2.944,5.853-5.841,8.885-8.61l2.024,2.215
			C381.72,374.211,378.773,377.067,375.95,379.968"/>
	</g>
	<g>
		<path d="M403.649,356.127l-1.748-2.438c3.342-2.396,6.797-4.723,10.27-6.914l1.601,2.537
			C410.349,351.472,406.943,353.765,403.649,356.127"/>
	</g>
	<g>
		<path d="M435.132,337.545l-1.288-2.709c3.715-1.767,7.531-3.445,11.342-4.986l1.125,2.781
			C442.555,334.15,438.794,335.803,435.132,337.545"/>
	</g>
	<g>
		<path d="M469.427,324.853l-0.785-2.896c3.963-1.074,8.011-2.042,12.032-2.879l0.611,2.938
			C477.322,322.84,473.332,323.794,469.427,324.853"/>
	</g>
	<g>
		<path d="M505.404,318.479l-0.259-2.989c4.087-0.353,8.241-0.59,12.349-0.704l0.083,2.999
			C513.528,317.897,509.432,318.13,505.404,318.479"/>
	</g>
	<g>
		<path fill="#FFFFFF" d="M621.284,683.066c-14.967,9.206-31.102,16.212-47.996,20.85l-2.455,21.021l2.454,20.23
			c19.638-4.337,38.404-11.222,55.998-20.51L634,698.426l-4.716-20.568L621.284,683.066z"/>
	</g>
	<g>
		<path d="M585.188,721.482l-0.945-2.848c3.766-1.25,7.548-2.63,11.237-4.099l1.109,2.787
			C592.846,718.813,589.01,720.212,585.188,721.482"/>
	</g>
	<g>
		<path d="M618.535,707.055l-1.428-2.639c3.486-1.885,6.965-3.901,10.343-5.99l1.578,2.551
			C625.601,703.097,622.071,705.142,618.535,707.055"/>
	</g>
</g>
<g id="Car_1">
	<g>
		<path d="M871.327,442.695l12.533,1.807c0,0,7.515,2.394,11.14,2.394c3.721,0,8.708-0.199,9.591-0.734s2.226-5.009,3.074-10.628
			s1.004-11.074,0.358-12.107s-6.55-3.528-8.863-4.144c-2.312-0.616-11.165-1.285-11.165-1.285l-13.12-1.602
			c0,0,1.341-1.802,0.747-2.293s-3.101-0.713-3.742-0.008s-1.302,1.541-1.302,1.541l-6.05-0.646c0,0-3.931-1.288-7.82-1.314
			c-4.458-0.03-10.408-0.101-12.516,11.207c-2.108,11.308,2.933,13.138,4.683,14.138s5.5,2.375,11.015,2.264l6.964,0.784
			c0,0,0.338,2.189,1.082,2.569s3.348,0.992,3.688,0.508S871.327,442.695,871.327,442.695z"/>
	</g>
	<g>
		<path fill="none" d="M1045.77,441.004c0,0-142,6-244-24s-140.138-76.14-213.069-94.57s-153.834-1.486-206.931,49.57
			c-52,50-70,99-64,182s61.491,143.541,94.174,231.776c20.826,56.224,31.039,118.224,31.039,259.99"/>
	</g>
</g>
<g id="Road_Overlays_1">
	<g>
		<polygon fill="#FFFFFF" points="425.945,750.145 465.94,765.02 465.94,683.104 425.945,672.102 		"/>
	</g>
	<g>
		<rect x="444.44" y="745.97" width="3" height="12.032"/>
	</g>
	<g>
		<rect x="444.44" y="709.875" width="3" height="12.031"/>
	</g>
	<g>
		<rect x="444.44" y="673.778" width="3" height="12.032"/>
	</g>
	<g>
		<path fill="#FFFFFF" d="M685.57,343.475c13.838,7.803,27.88,15.72,43.718,23.396l15.485,50.473
			c-31.947-12.58-56.348-26.339-78.849-39.026c-12.666-7.141-24.481-13.803-36.637-19.631l-0.002-43.685
			C649.572,323.176,667.358,333.205,685.57,343.475"/>
	</g>
	<g>
		<path d="M722.216,387.411c-3.612-1.723-7.324-3.55-11.033-5.431l1.357-2.675c3.687,1.869,7.377,3.686,10.967,5.398
			L722.216,387.411z"/>
	</g>
	<g>
		<path d="M689.491,370.44c-3.639-2.011-7.201-4.009-10.712-5.985l1.471-2.615c3.505,1.973,7.061,3.967,10.692,5.974L689.491,370.44
			z"/>
	</g>
	<g>
		<path d="M657.393,352.5c-3.907-2.132-7.442-4.014-10.808-5.751l1.377-2.666c3.386,1.749,6.941,3.64,10.868,5.784L657.393,352.5z"
			/>
	</g>
</g>
<g id="Car_2">
	<g>
		<path fill="none" d="M0,606.77c0,0,142-6,244,24s140.138,76.14,213.069,94.57S610.902,726.825,664,675.77c52-50,70-99,64-182
			s-61.491-143.541-94.174-231.776C613,205.77,602.787,141.77,602.787,0.004"/>
	</g>
	<g>
		<path d="M173.494,603.345l-12.543-1.74c0,0-7.527-2.354-11.152-2.334c-3.721,0.02-8.707,0.245-9.587,0.785
			c-0.88,0.54-2.2,5.021-3.018,10.644c-0.818,5.623-0.945,11.079-0.293,12.109c0.651,1.029,6.569,3.493,8.885,4.097
			c2.316,0.604,11.172,1.225,11.172,1.225l13.128,1.532c0,0-1.332,1.809-0.735,2.297s3.105,0.697,3.742-0.012
			c0.637-0.708,1.293-1.548,1.293-1.548l6.053,0.614c0,0,3.938,1.267,7.827,1.273c4.458,0.006,10.409,0.046,12.457-11.273
			c2.048-11.319-3.003-13.122-4.758-14.113s-5.513-2.346-11.027-2.205l-6.968-0.747c0,0-0.349-2.187-1.096-2.563
			c-0.747-0.376-3.353-0.974-3.691-0.489C172.845,601.381,173.494,603.345,173.494,603.345z"/>
	</g>
</g>
<g id="Road_Overlays_2">
	<g>
		<path fill="#FFFFFF" d="M303.618,629.895c7.745,2.424,28.713,12.286,48.51,22.495c32.304,16.659,65.817,35.701,65.817,35.701
			v43.681c0,0-68.349-34.989-81.16-42.241l-24.41-25.245L303.618,629.895z"/>
	</g>
	<g>
		<path d="M323.843,664.286c-3.63-1.777-7.268-3.504-10.812-5.13l1.251-2.726c3.567,1.636,7.228,3.374,10.88,5.163L323.843,664.286z
			"/>
	</g>
	<g>
		<path d="M419.642,714.267c-3.595-1.471-7.313-3.092-11.051-4.818l1.258-2.723c3.698,1.708,7.375,3.311,10.929,4.764
			L419.642,714.267z"/>
	</g>
	<g>
		<path d="M387.079,698.61c-3.155-1.699-6.503-3.538-10.537-5.789l1.462-2.619c4.02,2.242,7.356,4.075,10.498,5.767L387.079,698.61z
			"/>
	</g>
	<g>
		<path d="M355.61,681.061c-3.835-2.139-7.27-4.028-10.501-5.777l1.428-2.639c3.243,1.756,6.688,3.651,10.534,5.797L355.61,681.061z
			"/>
	</g>
	<g>
		<polygon fill="#FFFFFF" points="581.287,379.39 621.285,379.39 621.285,288.013 581.287,276.77 		"/>
	</g>
	<g>
		<rect x="599.787" y="360.964" width="3" height="12.032"/>
	</g>
	<g>
		<rect x="599.787" y="324.867" width="3" height="12.032"/>
	</g>
	<g>
		<rect x="599.787" y="288.771" width="3" height="12.032"/>
	</g>
</g>
</svg>
