<?xml version="1.0" encoding="utf-8"?>
<!-- Generator: Adobe Illustrator 19.1.0, SVG Export Plug-In . SVG Version: 6.00 Build 0)  -->
<svg version="1.1" id="Layer_1" xmlns="http://www.w3.org/2000/svg" xmlns:xlink="http://www.w3.org/1999/xlink" x="0px" y="0px"
	 viewBox="-83 -332 792 1224" style="enable-background:new -83 -332 792 1224;" xml:space="preserve">
<style type="text/css">
	.st0{fill:#FFFFFF;}
	.st1{fill:none;stroke:#231F20;stroke-width:0.25;stroke-miterlimit:10;stroke-dasharray:0.25,3;}
	.st2{fill:none;stroke:#231F20;stroke-width:0.25;stroke-miterlimit:10;stroke-dasharray:1,2;}
	.st3{fill:none;stroke:#000000;stroke-width:0.75;stroke-miterlimit:10;}
</style>
<path class="st0" d="M-83-332.1h792V891.3H-83V-332.1z"/>
<g>
	<g>
		<g>
			<path class="st1" d="M182,825.5l280-225.3"/>
			<path class="st1" d="M127.6,671.2l427,93.9"/>
			<path class="st1" d="M27.4,893.3v-1223"/>
			<path class="st1" d="M598.4,891.3v-1223"/>
			<path class="st1" d="M408.2,892.3v-1223"/>
		</g>
		<path class="st2" d="M209.5,803.6V-330"/>
		<g>
			<path class="st1" d="M141.9,785.6V-330.8"/>
			<path class="st1" d="M246,638v-969"/>
		</g>
		<g>
			<path class="st2" d="M421.4,641.4v-968"/>
			<path class="st2" d="M507,758.6V-332.1"/>
		</g>
		<g>
			<path class="st1" d="M-53.2-112.5h726.5"/>
			<path class="st1" d="M-51.3,243.8h726.5"/>
			<path class="st1" d="M-55.6,79.7H671"/>
			<path class="st1" d="M-50.3,466.2h726.5"/>
			<path class="st1" d="M-50.3,850.6h726.5"/>
			<path class="st1" d="M-50.3,596.3h726.5"/>
			<path class="st1" d="M410.4,469.1L244.5,241.7"/>
			<path class="st1" d="M515.3,384.3l-391.5-75.9"/>
		</g>
		<g>
			<path class="st2" d="M415.8,88.8L238.3-118"/>
			<path class="st2" d="M7.3,16.6L614-55.7"/>
			<path class="st2" d="M517.5,11L135.1-51.3"/>
			<path class="st2" d="M204.7,48.5L430.3-86.7"/>
		</g>
		<g>
			<path class="st1" d="M410.9-109.7l-172.4-183"/>
			<path class="st1" d="M22.8-170.5L611.4-236"/>
			<path class="st1" d="M513.8-176l-380.6-55.8"/>
			<path class="st1" d="M204.9-140.6L431-265.3"/>
			<path class="st1" d="M-50.5-103H676"/>
			<path class="st1" d="M-56.9-284.8h726.5"/>
			<path class="st1" d="M-53.6,271.9H673"/>
			<path class="st1" d="M7.6,88.8h726.5"/>
			<path class="st1" d="M411,275.5L244.4,65.8"/>
			<path class="st1" d="M518.1,197.4l-378.3-66.6"/>
			<path class="st1" d="M-50.5,127.1H676"/>
			<path class="st1" d="M-50.3-53.7h726.5"/>
			<path class="st1" d="M-50.7-234.7h726.5"/>
			<path class="st1" d="M-50.1,308h726.5"/>
			<path class="st1" d="M-50.3,669.9h726.5"/>
			<path class="st1" d="M-40.8,713.7h726.5"/>
			<path class="st1" d="M520.8,719.7c0-54.9-89.6-99.3-200.1-99.3s-200.1,44.5-200.1,99.3c0,54.9,89.6,99.3,200.1,99.3
				S520.8,774.5,520.8,719.7z"/>
		</g>
		<path class="st2" d="M27.4,386.8v-185"/>
		<g>
			<path class="st1" d="M199.7,431.8l235.6-165.6"/>
			<path class="st1" d="M209.5,234.9L421.4,97.3"/>
		</g>
		<g>
			<path class="st2" d="M598.4,223L246,161.2L27.4,299.3l380.8,75.1L598.4,223z"/>
			<path class="st2" d="M321.1,741.9V-323.6"/>
		</g>
		<g>
			<path class="st1" d="M22.6,387.5l593.8-82"/>
			<path class="st1" d="M27.4,201l585.8-75.7"/>
		</g>
		<g>
			<path class="st2" d="M27.4,386.8l218.6-143L598.4,308L408.2,466.2L27.4,386.8z"/>
			<path class="st2" d="M27.4-171.1v931.4"/>
			<path class="st2" d="M408.2-112.6v963.2"/>
			<path class="st2" d="M598.4-234.7v904.6"/>
			<path class="st2" d="M246-284.8v881.1"/>
			<path class="st2" d="M27.4,14.2l218.6-123l352.4,54.9L408.2,79.7L27.4,14.2z"/>
			<path class="st2" d="M27.4-171.1L246-284.8l352.4,50L408.2-112.5L27.4-171.1z"/>
			<path class="st2" d="M27.4,201L246,67.8l352.4,59.4L408.2,271.9L27.4,201z"/>
		</g>
	</g>
	<path class="st3" d="M27.4,760.2L246,596.3l352.4,73.5L408.2,850.6L27.4,760.2z"/>
	<g>
		<path class="st2" d="M124.4,188.3l145.5-90.5l237,41.1l-127.1,97.3L124.4,188.3z"/>
		<path class="st2" d="M534,162.4H107.5"/>
		<path class="st2" d="M27.4,233L246,102.5l352.4,56.7L408.2,304L27.4,233z"/>
		<path class="st2" d="M27.4,521.7L246,364.8l352.4,72.7L408.2,603.9L27.4,521.7z"/>
	</g>
	<g>
		<path class="st3" d="M27.4,760.2V296.5"/>
		<path class="st3" d="M408.2,850.6V443"/>
		<path class="st3" d="M598.4,669.9V221.4"/>
		<path class="st3" d="M246,596.3V252.5"/>
	</g>
	<g>
		<g>
			<path class="st2" d="M10.5,399.8l605.8-83.5"/>
			<path class="st2" d="M27.4,201l585.8-75.7"/>
			<path class="st2" d="M27.4,299.3l571-76.3"/>
			<path class="st2" d="M399.8,348.9V140.4"/>
		</g>
		<g>
			<path class="st1" d="M598.4,318.8L409.7,151.6"/>
			<path class="st1" d="M409.6,344.8l188.8-217.6"/>
		</g>
		<g>
			<path class="st2" d="M504.4,339V115.7"/>
			<path class="st2" d="M589,334.1L421.6,139"/>
			<path class="st2" d="M612,143.2L393.2,331"/>
			<path class="st2" d="M235.1,376V166.3"/>
		</g>
		<g>
			<path class="st1" d="M27.4,397.5l207.7-223.4"/>
			<path class="st1" d="M235.1,368.9L27.4,201"/>
		</g>
		<g>
			<path class="st2" d="M131.7,387.6V169.5"/>
			<path class="st2" d="M193.7,379.2L69.2,190.8"/>
			<path class="st2" d="M238.5,214.7L21,358.4"/>
			<path class="st2" d="M27.4,201v196.5"/>
			<path class="st2" d="M598.4,127.1v191.6"/>
		</g>
	</g>
	<g>
		<ellipse class="st3" cx="131.5" cy="285" rx="107.4" ry="94.5"/>
		<ellipse class="st3" cx="499" cy="236.1" rx="104.3" ry="91.6"/>
		<ellipse class="st3" cx="567.5" cy="643.9" rx="28.5" ry="33.4"/>
	</g>
	<g>
		<g>
			<path class="st2" d="M410.4,479.9L244.5,252.5"/>
			<path class="st2" d="M413.1,278.3L246,67.8"/>
			<path class="st2" d="M321.4,341.5l120-16.8"/>
		</g>
		<path class="st1" d="M347.3,393.4l60.9-121.5"/>
		<g>
			<path class="st2" d="M347.3,402.7V175.2"/>
			<path class="st2" d="M377.2,447V219"/>
			<path class="st2" d="M408.2,374.4L246,161.2"/>
		</g>
		<g>
			<path class="st1" d="M246,254.6l53.5-119.4"/>
			<path class="st1" d="M408.2,477l-60.9-281.7"/>
		</g>
		<g>
			<path class="st2" d="M299.5,330V112.7"/>
			<path class="st2" d="M272.4,305.6V96"/>
		</g>
		<path class="st1" d="M299.5,328L246,67.8"/>
		<g>
			<path class="st2" d="M212.2,203.9l112.4-15.1"/>
			<path class="st2" d="M289.6,324.3L255.8,72.3"/>
		</g>
		<path class="st1" d="M408.2,271.9v205"/>
		<g>
			<path class="st2" d="M246,254.6V67.8"/>
			<path class="st2" d="M395,460.9L359.5,207"/>
		</g>
	</g>
	<g>
		<ellipse class="st3" cx="377" cy="333.5" rx="116" ry="26.3"/>
		<ellipse class="st3" cx="272.5" cy="197" rx="109.5" ry="22.8"/>
	</g>
	<g>
		<g>
			<path class="st2" d="M413.1,717.1L246,506.6"/>
			<path class="st2" d="M266.8,641.4v-94.6"/>
			<path class="st2" d="M534.1,265l-417-81"/>
			<path class="st2" d="M198.9,225.5V121.9"/>
			<path class="st2" d="M445.5,258.6v-84.1"/>
			<path class="st2" d="M508.3,260v-64.3"/>
			<path class="st2" d="M518.1,197.4l-383.8-67.6"/>
		</g>
		<g>
			<path class="st1" d="M141.9,188.8l58-47.4"/>
			<path class="st1" d="M199.9,200.1l-58-68.9"/>
			<path class="st1" d="M508.3,260l-61.4-75.1"/>
			<path class="st1" d="M446.9,248l61.4-52.3"/>
		</g>
		<g>
			<path class="st2" d="M477.5,272.1V165.4"/>
			<path class="st2" d="M477.3,272.3V165.6"/>
			<path class="st2" d="M508.3,227.9L141.9,160"/>
			<path class="st2" d="M170.7,204.3v-75.5"/>
			<path class="st2" d="M140.6,184.3l62.8-39.5"/>
			<path class="st2" d="M518.3,190.9l-91.4,69.6"/>
			<path class="st2" d="M141.9,131.2v57.6"/>
			<path class="st2" d="M442.8,176.8l69.6,91.4"/>
		</g>
	</g>
	<ellipse class="st3" cx="476.1" cy="221.9" rx="35.2" ry="27.7"/>
	<path class="st2" d="M194.4,203l-46.7-74.3"/>
	<ellipse class="st3" cx="170.2" cy="165.4" rx="31.7" ry="26.3"/>
	<g>
		<g>
			<path class="st2" d="M255.5,260.6l-54.1-10.1"/>
			<path class="st2" d="M430.5,141.6l-51.3-10"/>
			<path class="st2" d="M209.5,300.8v-65.9"/>
			<path class="st2" d="M421.4,161.9V97.3"/>
			<path class="st2" d="M246,303V200.2"/>
			<path class="st2" d="M388.8,187.7v-73"/>
			<path class="st2" d="M209.5,300.8l211.9-146.4"/>
			<path class="st2" d="M209.5,234.9L421.4,97.3"/>
		</g>
		<g>
			<path class="st1" d="M246,275.5l-36.6-40.6"/>
			<path class="st1" d="M246,211.2l-36.6,89.6"/>
		</g>
		<path class="st2" d="M228,315.8V205.1"/>
		<g>
			<path class="st1" d="M421.4,97.3L388.8,177"/>
			<path class="st1" d="M421.4,154.5l-32.6-36"/>
		</g>
		<g>
			<path class="st2" d="M405.3,185v-84.1"/>
			<path class="st2" d="M209.5,267.8l211.9-142"/>
			<path class="st2" d="M414.5,89.3l-17.3,89.1"/>
			<path class="st2" d="M237.4,204.9l-21.5,115.3"/>
		</g>
	</g>
	<g>
		<ellipse class="st3" cx="227.8" cy="255.4" rx="33.5" ry="17.9"/>
		<ellipse class="st3" cx="405.3" cy="136.6" rx="30.3" ry="15.2"/>
		<ellipse class="st3" cx="319.8" cy="165.9" rx="169.6" ry="68.7"/>
	</g>
	<path class="st2" d="M78,194.3L256.8,81.4l295.5,51.7L393.7,253.7L78,194.3z"/>
	<g>
		<path class="st3" d="M478.5,68.5c33.5-45-15.1-78.2-73.2-89.3c-81-15.5-198.4-8.1-236.8,16.8c-54,35,29.7,68.6,57.5,72.3
			C343.7,83.7,452.7,73,478.7,26"/>
		<path class="st3" d="M478.6,89.6c43-56-51.9-82.6-73.4-89.6C371-11.1,224.6-12.4,168.6,16.6c-33.8,17.5-21,62.1,57.3,72.4
			c106.5,14,221.6,10.9,253.1-41.6"/>
	</g>
	<g>
		<path class="st2" d="M552.3,133.1V-48.2"/>
		<path class="st2" d="M256.9,81.5V-96.4"/>
	</g>
	<g>
		<path class="st3" d="M150.4,162.4V-21.2"/>
		<path class="st3" d="M489.2,162.4V-21.1"/>
	</g>
	<g>
		<path class="st1" d="M57.3,11.2L252-102.5l319.2,52.4L400,70.1L57.3,11.2z"/>
		<g>
			<path class="st2" d="M78.1,8.3L256.9-96.4l295.5,48.2L393.7,62.9L78.1,8.3z"/>
			<path class="st2" d="M120.2-21.1h401"/>
		</g>
	</g>
	<ellipse class="st3" cx="319.8" cy="-17.3" rx="169.7" ry="63"/>
	<g>
		<path class="st2" d="M78.1,194.3V8.3"/>
		<path class="st2" d="M393.7,253.7V62.9"/>
	</g>
	<path class="st3" d="M468.4-18c0-30.5-65.7-52.3-147.9-52.3c-82.2,0-147.9,21.7-147.9,52.3c0,30.5,65.7,53.8,147.9,53.8
		C402.8,35.7,468.4,12.5,468.4-18z"/>
	<ellipse class="st1" cx="320.5" cy="102.1" rx="148.9" ry="55.3"/>
	<g>
		<ellipse class="st3" cx="320.5" cy="87.6" rx="148.9" ry="55.3"/>
		<ellipse class="st3" cx="320.5" cy="116.5" rx="148.9" ry="55.3"/>
		<ellipse class="st3" cx="319.8" cy="-200.5" rx="169.7" ry="60.8"/>
	</g>
	<path class="st2" d="M29.5-200.5h600"/>
	<g>
		<path class="st3" d="M489.4,81.7c3.9-6.9,5.3-14.5,5.3-21.7c0.3-34.5-46.2-84.4-174.2-84.9C213.5-25.3,141.8-7,141.8,31.9
			c0,42.1,88.8,56.9,178.7,59.1c73.9,1.9,142.2-8,168.7-52.3"/>
		<path class="st3" d="M224.7,90C100,62.3,148.5,2.5,162.7-4c96.8-44.5,207.6-24,244-17.3c93,17,98,72.7,82.3,104.3"/>
	</g>
	<g>
		<path class="st2" d="M614,393.9L7.6,276"/>
		<g>
			<path class="st1" d="M408.2,304l190.2,133.4"/>
			<path class="st1" d="M598.5,159l-190.3,445"/>
			<path class="st1" d="M407.1,458.4l190-162"/>
			<path class="st1" d="M690,443l-364.7-76.7"/>
			<path class="st1" d="M27.4,521.7L246,102.5"/>
			<path class="st1" d="M27.4,233L246,364.8"/>
			<path class="st1" d="M26.3,375.8l210.6-134.2"/>
		</g>
		<g>
			<path class="st2" d="M542.5,190l-76,391.2"/>
			<path class="st2" d="M179.3,109.5l-76,391.2"/>
		</g>
		<g>
			<ellipse class="st1" cx="506.9" cy="372.5" rx="153.5" ry="68.6"/>
			<ellipse class="st1" cx="141.3" cy="302" rx="148.9" ry="61.4"/>
		</g>
	</g>
	<g>
		<path class="st3" d="M541,225.5c48.3,7.2,70.4,72.1,49.4,154.4s-77.2,154.9-125.5,147.8c-48.3-7.2-70.4-79.7-49.4-162
			C436.5,283.3,492.7,218.4,541,225.5L541,225.5z"/>
		<path class="st3" d="M183.5,159.9c54,6.4,77.1,76.4,51.6,156.4c-25.5,80-89.8,139.6-143.8,133.2c-54-6.4-78.9-62.5-54.1-142.8
			C67,210,129.5,153.5,183.5,159.9L183.5,159.9z"/>
	</g>
	<g>
		<g>
			<path class="st1" d="M27.4,521.7L408.2,304"/>
			<path class="st1" d="M408.2,603.9L27.4,233"/>
			<path class="st1" d="M598.4,437.5L246,102.5"/>
			<path class="st1" d="M246,364.8l352.4-205.6"/>
		</g>
		<g>
			<path class="st2" d="M532.1,179.9L42,542.2"/>
			<path class="st2" d="M69,218.6l291.6,394.5"/>
			<path class="st2" d="M280.1,79.8l291.1,393.7"/>
		</g>
		<ellipse class="st1" cx="214.1" cy="414.5" rx="164.3" ry="125.5"/>
	</g>
	<path class="st3" d="M85.5,282.4c75.6-41.4,196.3-15.4,269.4,57.9c73.1,73.3,71.1,166.3-4.5,207.7
		c-75.6,41.4-196.3,15.4-269.4-57.9C7.8,416.8,9.8,323.8,85.5,282.4L85.5,282.4z"/>
	<ellipse class="st1" cx="416.7" cy="265" rx="142.9" ry="123"/>
	<path class="st3" d="M307.9,151.3c74-39.6,173.5-25.8,235.8,37.8c78.8,80.5,68.5,156.2-5.6,195.8c-74,39.6-185.6,13.3-249.2-49
		C225.4,273.5,233.9,190.9,307.9,151.3L307.9,151.3z"/>
	<g>
		<path class="st1" d="M307.7,150c73.8-40.3,184.9-21.6,248.2,41.9c63.3,63.5,54.9,147.7-18.9,188c-73.8,40.3-184.9,21.6-248.2-41.9
			C225.5,274.6,233.9,190.4,307.7,150L307.7,150z"/>
		<g>
			<path class="st2" d="M27.4,134.7L246,8l352.4,55.8l-190.2,139L27.4,134.7z"/>
			<path class="st2" d="M27.4,120.2L246-6.5l352.4,55.8l-190.2,139L27.4,120.2z"/>
			<path class="st2" d="M27.4,149.2L246,22.5l352.4,55.8l-190.2,139L27.4,149.2z"/>
			<path class="st2" d="M44.6,98.7H612"/>
		</g>
	</g>
	<g>
		<ellipse class="st3" cx="321" cy="102.3" rx="199.7" ry="76.7"/>
		<ellipse class="st3" cx="320.1" cy="88.5" rx="184.6" ry="71.5"/>
		<ellipse class="st3" cx="320.1" cy="117.4" rx="184.6" ry="71.5"/>
		<ellipse class="st3" cx="319.8" cy="88.3" rx="169.7" ry="65.2"/>
		<ellipse class="st3" cx="319.8" cy="117.2" rx="169.7" ry="65.2"/>
	</g>
	<g>
		<g>
			<path class="st2" d="M507,130.6l-365-62.3"/>
			<path class="st2" d="M507,116.1l-365-62.3"/>
			<path class="st2" d="M507,145.1l-365-62.3"/>
			<path class="st2" d="M188.7,90.8V-43.7"/>
			<path class="st2" d="M168.9,87.4V-44.3"/>
			<path class="st2" d="M459,136.9V1.5"/>
			<path class="st2" d="M478.6,140.2V2.4"/>
			<path class="st2" d="M155.4,87.1V54"/>
			<path class="st2" d="M492.8,145.3v-33.3"/>
			<path class="st2" d="M507.5,117l-29.4,22.4"/>
			<path class="st2" d="M479.3,110.4l27.4,36"/>
			<path class="st2" d="M167,89.1l-23.3-36.9"/>
			<path class="st2" d="M139.1,80.9l36.9-23.3"/>
		</g>
		<g>
			<path class="st1" d="M141.9,82l27-22.7"/>
			<path class="st1" d="M168.9,86.6l-27-31.9"/>
			<path class="st1" d="M507,116.1l-28.3,24.1"/>
			<path class="st1" d="M478.6,111.3l28.3,33.8"/>
		</g>
	</g>
	<g>
		<ellipse class="st3" cx="155.4" cy="70.6" rx="15.6" ry="12.5"/>
		<ellipse class="st3" cx="492.8" cy="128.1" rx="15.9" ry="12.7"/>
	</g>
	<g>
		<g>
			<path class="st2" d="M217.7,178.7v-33.3"/>
			<path class="st2" d="M229.2,164.3l-24.5-4.6"/>
			<path class="st2" d="M209.5,167.3L421.4,35.8"/>
			<path class="st2" d="M209.5,152.8L421.4,21.3"/>
			<path class="st2" d="M209.5,181.7L421.4,50.2"/>
			<path class="st2" d="M404.4-71.8V60.8"/>
			<path class="st2" d="M392.5-66.4V68.1"/>
			<path class="st2" d="M239.8,27v135.9"/>
		</g>
		<g>
			<path class="st1" d="M209.5,181.7l16.4-39.1"/>
			<path class="st1" d="M209.5,152.8l16.4,18.8"/>
		</g>
		<path class="st2" d="M221,144.4l-6.7,35.6"/>
		<g>
			<path class="st1" d="M421.4,21.3l-17,39.5"/>
			<path class="st1" d="M421.4,50.2l-16.9-18.4"/>
		</g>
		<g>
			<path class="st2" d="M424.9,43.3l-23.9-4.6"/>
			<path class="st2" d="M416.5,22.7l-7,35.9"/>
		</g>
	</g>
	<ellipse class="st3" cx="217.6" cy="162.2" rx="15" ry="7.9"/>
	<path class="st2" d="M412.9,57.7V24.5"/>
	<ellipse class="st3" cx="412.9" cy="41" rx="14.9" ry="8.2"/>
	<g>
		<path class="st2" d="M417.3-7.8l-23.9-4.6"/>
		<path class="st2" d="M408-28.6l-7,35.9"/>
	</g>
	<ellipse class="st3" cx="404.4" cy="-10.3" rx="11.1" ry="5.1"/>
	<g>
		<path class="st2" d="M225.9,33.2v138.3"/>
		<path class="st2" d="M238,80.9l-24.5-4.6"/>
		<path class="st2" d="M229.2,61l-6.7,35.6"/>
	</g>
	<ellipse class="st3" cx="225.9" cy="78.7" rx="11" ry="5.6"/>
	<g>
		<path class="st2" d="M209.5,130.8L421.4,0.3"/>
		<path class="st2" d="M209.5,109.8L421.4-20.7"/>
		<path class="st2" d="M209.5,88.8L421.4-41.7"/>
		<path class="st2" d="M209.5,78.3L421.4-52.2"/>
		<path class="st2" d="M209.5,67.8L421.4-62.7"/>
		<path class="st2" d="M421.4-20.7v-21"/>
		<path class="st2" d="M209.5,120.3L421.4-10.2"/>
		<path class="st2" d="M209.5,99.3L421.4-31.2"/>
		<path class="st2" d="M399,7.1v-28"/>
		<path class="st2" d="M409.9,0.4v-28"/>
		<path class="st2" d="M220,96.3v-28"/>
		<path class="st2" d="M231.8,89V61"/>
		<path class="st2" d="M178.1,20.5L160-8.2"/>
		<path class="st2" d="M156.8,13.5L181.4-2"/>
		<path class="st2" d="M492.8,24.9l-28.3,24.1"/>
		<path class="st2" d="M464.6,20.2L493,53.9"/>
		<path class="st2" d="M492.1,67.4l-26.8,22.8"/>
		<path class="st2" d="M465.3,62.9L491.3,94"/>
		<path class="st2" d="M507,94.1l-365-61.3"/>
		<path class="st2" d="M507,83.6l-365-61.3"/>
		<path class="st2" d="M507,73.1l-365-61.3"/>
		<path class="st2" d="M507,62.6l-365-61.3"/>
		<path class="st2" d="M507,52.1l-365-61.3"/>
		<path class="st2" d="M507,41.6l-365-61.3"/>
		<path class="st2" d="M507,31.1l-365-61.3"/>
		<path class="st2" d="M468.3,90.8V63.2"/>
		<path class="st2" d="M489,93.6V66"/>
		<path class="st2" d="M489,52.6V23.1"/>
		<path class="st2" d="M159,17.8V-9.5"/>
		<path class="st2" d="M178.7,21.1V-7.3"/>
	</g>
	<g>
		<ellipse class="st3" cx="168.8" cy="5.9" rx="11.2" ry="9.3"/>
		<ellipse class="st3" cx="478.6" cy="78.9" rx="11.7" ry="9.3"/>
		<ellipse class="st3" cx="478.6" cy="36.9" rx="11.8" ry="9.2"/>
	</g>
	<g>
		<path class="st2" d="M468.3,48.5V20.2"/>
		<path class="st2" d="M413,858L242.7,590.7"/>
		<path class="st2" d="M413,827.1L242.7,559.7"/>
		<path class="st2" d="M413,796.1L242.7,528.8"/>
		<path class="st2" d="M387.7,832.4v-94.6"/>
		<path class="st2" d="M398.1,843.8V749"/>
		<path class="st2" d="M405.4,854.1l-16.5-113.3"/>
		<path class="st2" d="M371.8,807.4l49.9-7"/>
	</g>
	<ellipse class="st3" cx="398" cy="803.7" rx="34.9" ry="9.1"/>
	<g>
		<path class="st2" d="M256.6,621.6v-94.8"/>
		<path class="st2" d="M263.9,632l-16.5-113.3"/>
		<path class="st2" d="M230.3,585.3l49.9-7"/>
	</g>
	<ellipse class="st3" cx="256.5" cy="581.5" rx="34.9" ry="9.1"/>
	<g>
		<path class="st2" d="M-9,766l656-104"/>
		<path class="st2" d="M-9,735.1l656-104"/>
		<path class="st2" d="M-9,704.2l656-104"/>
		<path class="st2" d="M60.7,826.4V608.3"/>
		<path class="st2" d="M122.7,817.9L-1.8,629.5"/>
		<path class="st2" d="M661.5,727L472.8,559.8"/>
		<path class="st2" d="M567.5,747.2V523.9"/>
	</g>
	<ellipse class="st3" cx="60.7" cy="724.1" rx="29.4" ry="35.2"/>
	<g>
		<path class="st2" d="M94.2,759.4v-94.6"/>
		<path class="st2" d="M536.8,694.1v-94.6"/>
	</g>
	<g>
		<path class="st3" d="M27.8,296.3C25.8,200.3,205.5,96.5,256,89c42-6.2,132.2,10.3,155.2,17.3s132.2,34.4,143.5,43.1"/>
		<path class="st3" d="M520.5,103c0-48.9-102.5-88.5-199.5-88.5c-115.7,0-199.5,35.2-199.5,88.5c0,48.9,97,88.5,199.5,88.5
			C437.5,191.5,520.5,151.9,520.5,103z"/>
		<path class="st3" d="M507,228l0,528.8"/>
		<path class="st3" d="M492.8,142.7l-14.2-2.4v50.6"/>
		<path class="st3" d="M459,1.5l19.6,3.2v106.6l14.2,2.4"/>
		<path class="st3" d="M141.9,160l0,514.4"/>
		<path class="st3" d="M155.4,85.1l13.5,2.3l0,48.4"/>
		<path class="st3" d="M188.6-42.6l-20.1-3.2l0.4,104.3l-13.5-2.3"/>
		<path class="st3" d="M209.5,267.8l0,535.6"/>
		<path class="st3" d="M217.7,176.7l8.2-5.1v52.7"/>
		<path class="st3" d="M239.8,27.5l-13.8,8.3l0,106.8l-8.2,5.1"/>
		<path class="st3" d="M421.4,125.9l0,507.1"/>
		<path class="st3" d="M412.9,55.5l-8.5,5.3v47.6"/>
		<path class="st3" d="M392.5-64l12.9-7.7l0,102.9l7.5-4.7"/>
		<path class="st3" d="M150.1-200.4L172.6-18"/>
		<path class="st3" d="M489.5-200.4L468.4-18"/>
	</g>
</g>
</svg>
