<?xml version="1.0" encoding="utf-8"?>
<!-- Generator: Adobe Illustrator 19.1.1, SVG Export Plug-In . SVG Version: 6.00 Build 0)  -->
<svg version="1.1" xmlns="http://www.w3.org/2000/svg" xmlns:xlink="http://www.w3.org/1999/xlink" x="0px" y="0px"
	 viewBox="131 137.6 1222 687.4" style="enable-background:new 131 137.6 1222 687.4;" xml:space="preserve">
<style type="text/css">
	.st0{fill:none;stroke:#231F20;stroke-width:0.7057;stroke-miterlimit:10;stroke-dasharray:0.7057,8.4683;}
	.st1{fill:none;stroke:#231F20;stroke-width:0.7503;stroke-miterlimit:10;stroke-dasharray:0.7487,4.4922;}
	.st2{fill:none;stroke:#1E1E1E;stroke-miterlimit:10;}
</style>
<g id="Layer_1">
	<g>
		<line class="st0" x1="358.6" y1="2576.1" x2="1149.1" y2="1940"/>
		<line class="st0" x1="205" y1="2140.5" x2="1410.3" y2="2405.6"/>
		<line class="st0" x1="-78" y1="2767.5" x2="-78" y2="-684.8"/>
		<line class="st0" x1="1533.9" y1="2761.8" x2="1533.9" y2="-690.4"/>
		<line class="st0" x1="997" y1="2764.6" x2="997" y2="-687.6"/>
		<line class="st1" x1="436" y1="2514.1" x2="436" y2="-685.9"/>
		<line class="st0" x1="245.4" y1="2463.3" x2="245.4" y2="-688"/>
		<line class="st0" x1="539.2" y1="2046.7" x2="539.2" y2="-688.6"/>
		<line class="st1" x1="1034.2" y1="2056.4" x2="1034.2" y2="-676"/>
		<line class="st1" x1="1275.8" y1="2387" x2="1275.8" y2="-691.6"/>
		<line class="st0" x1="-305.5" y1="-71.8" x2="1745.3" y2="-71.8"/>
		<line class="st0" x1="-300.2" y1="933.9" x2="1750.6" y2="933.9"/>
		<line class="st0" x1="-312.1" y1="470.8" x2="1738.8" y2="470.8"/>
		<line class="st0" x1="-297.2" y1="1561.7" x2="1753.6" y2="1561.7"/>
		<line class="st0" x1="-297.1" y1="1929.1" x2="1753.7" y2="1929.1"/>
		<line class="st0" x1="1003.1" y1="1570" x2="534.9" y2="928"/>
		<line class="st0" x1="1299.4" y1="1330.4" x2="194.4" y2="1116.1"/>
		<line class="st1" x1="1018.6" y1="496.3" x2="517.5" y2="-87.3"/>
		<line class="st1" x1="-134.8" y1="292.7" x2="1577.9" y2="88.7"/>
		<line class="st1" x1="1305.5" y1="276.8" x2="226" y2="100.9"/>
		<line class="st1" x1="422.6" y1="382.6" x2="1059.5" y2="1.1"/>
		<line class="st0" x1="1004.7" y1="-63.8" x2="518" y2="-580.3"/>
		<line class="st0" x1="-90.8" y1="-235.6" x2="1570.5" y2="-420.4"/>
		<line class="st0" x1="1295.2" y1="-251.1" x2="220.9" y2="-408.6"/>
		<line class="st0" x1="423.2" y1="-151" x2="1061.4" y2="-503"/>
		<line class="st0" x1="-297.8" y1="-44.9" x2="1753" y2="-44.9"/>
		<line class="st0" x1="-315.9" y1="-558.1" x2="1734.9" y2="-558.1"/>
		<line class="st0" x1="-306.4" y1="1013.4" x2="1744.4" y2="1013.4"/>
		<line class="st0" x1="-133.9" y1="496.3" x2="1916.9" y2="496.3"/>
		<line class="st0" x1="1004.9" y1="1023.5" x2="534.6" y2="431.4"/>
		<line class="st0" x1="1307.3" y1="803.1" x2="239.5" y2="615.1"/>
		<line class="st0" x1="-297.9" y1="604.7" x2="1752.9" y2="604.7"/>
		<line class="st0" x1="-297.1" y1="94.3" x2="1753.7" y2="94.3"/>
		<line class="st0" x1="-298.5" y1="-416.8" x2="1752.3" y2="-416.8"/>
		<line class="st0" x1="-296.7" y1="1115.3" x2="1754.1" y2="1115.3"/>
		<line class="st0" x1="-297.1" y1="2136.7" x2="1753.7" y2="2136.7"/>
		<line class="st0" x1="-270.6" y1="2260.3" x2="1780.2" y2="2260.3"/>
		<path class="st0" d="M1314.9,2277.2c0-154.9-252.9-280.4-564.8-280.4c-311.9,0-564.8,125.5-564.8,280.4
			c0,154.9,252.9,280.4,564.8,280.4C1062.1,2557.6,1314.9,2432.1,1314.9,2277.2z"/>
		<line class="st1" x1="-78" y1="1337.6" x2="-78" y2="815.6"/>
		<line class="st0" x1="408.4" y1="1464.8" x2="1073.4" y2="997.3"/>
		<line class="st0" x1="436" y1="908.9" x2="1034.2" y2="520.5"/>
		<polygon class="st1" points="1533.9,875.2 539.2,700.8 -78,1090.6 997,1302.7 		"/>
		<line class="st1" x1="751.2" y1="2339.9" x2="751.2" y2="-667.7"/>
		<line class="st0" x1="-91.5" y1="1339.5" x2="1584.5" y2="1108.1"/>
		<line class="st0" x1="-78" y1="813.1" x2="1575.5" y2="599.3"/>
		<polygon class="st1" points="-78,1337.6 539.2,933.9 1533.9,1115.3 997,1561.7 		"/>
		<line class="st1" x1="-78" y1="-237.3" x2="-78" y2="2391.8"/>
		<line class="st1" x1="997" y1="-72" x2="997" y2="2646.9"/>
		<line class="st1" x1="1533.9" y1="-416.8" x2="1533.9" y2="2136.7"/>
		<line class="st1" x1="539.2" y1="-558.1" x2="539.2" y2="1929.1"/>
		<polygon class="st1" points="-78,286 539.2,-61.2 1533.9,93.8 997,470.8 		"/>
		<polygon class="st1" points="-78,-237.1 539.2,-558.1 1533.9,-416.8 997,-71.8 		"/>
		<polygon class="st1" points="-78,813.1 539.2,437.1 1533.9,604.7 997,1013.4 		"/>
		<polygon class="st2" points="-78,2391.8 539.2,1929.1 1533.9,2136.7 997,2646.9 		"/>
		<polygon class="st1" points="196.1,777.4 606.6,522 1275.6,638.1 916.9,912.7 		"/>
		<line class="st1" x1="1352.1" y1="704.1" x2="148.2" y2="704.1"/>
		<polygon class="st1" points="-78,903.6 539.2,535.1 1533.9,695.2 997,1104 		"/>
		<polygon class="st1" points="-78,1718.5 539.2,1275.5 1533.9,1480.6 997,1950.5 		"/>
		<line class="st2" x1="-78" y1="2391.8" x2="-78" y2="1082.9"/>
		<line class="st2" x1="997" y1="2646.9" x2="997" y2="1496.3"/>
		<line class="st2" x1="1533.9" y1="2136.7" x2="1533.9" y2="870.9"/>
		<line class="st2" x1="539.2" y1="1929.1" x2="539.2" y2="958.4"/>
		<line class="st1" x1="-125.6" y1="1374.3" x2="1584.5" y2="1138.6"/>
		<line class="st1" x1="-78" y1="813.1" x2="1575.5" y2="599.3"/>
		<line class="st1" x1="-78" y1="1090.6" x2="1533.9" y2="875.2"/>
		<line class="st1" x1="973.3" y1="1230.6" x2="973.3" y2="642.1"/>
		<line class="st0" x1="1533.9" y1="1145.6" x2="1001.1" y2="673.6"/>
		<line class="st0" x1="1001" y1="1219" x2="1533.9" y2="604.7"/>
		<line class="st1" x1="1268.6" y1="1202.7" x2="1268.6" y2="572.3"/>
		<line class="st1" x1="1507.5" y1="1188.8" x2="1034.7" y2="638.2"/>
		<line class="st1" x1="1572.3" y1="649.9" x2="954.7" y2="1180.1"/>
		<line class="st1" x1="508.4" y1="1307.2" x2="508.4" y2="715.3"/>
		<line class="st0" x1="-78" y1="1367.7" x2="508.4" y2="737.3"/>
		<line class="st0" x1="508.4" y1="1287" x2="-78" y2="813.1"/>
		<line class="st1" x1="216.5" y1="1339.9" x2="216.5" y2="724.2"/>
		<line class="st1" x1="391.6" y1="1316.1" x2="40.2" y2="784.2"/>
		<line class="st1" x1="518" y1="851.9" x2="-96" y2="1257.6"/>
		<line class="st1" x1="-78" y1="813.2" x2="-78" y2="1368"/>
		<line class="st1" x1="1533.9" y1="604.7" x2="1533.9" y2="1145.6"/>
		
			<ellipse transform="matrix(0.8343 -0.5513 0.5513 0.8343 -543.2322 293.0749)" class="st2" cx="216" cy="1050.3" rx="303.1" ry="266.6"/>
		
			<ellipse transform="matrix(0.7587 -0.6514 0.6514 0.7587 -291.897 1036.594)" class="st2" cx="1253.5" cy="912.4" rx="294.3" ry="258.6"/>
		
			<ellipse transform="matrix(-0.7485 -0.6631 0.6631 -0.7485 1161.6055 4567.0742)" class="st2" cx="1446.8" cy="2063.3" rx="80.6" ry="94.4"/>
		<line class="st1" x1="1003.1" y1="1600.4" x2="534.9" y2="958.4"/>
		<line class="st1" x1="1011" y1="1031.2" x2="539.2" y2="437.1"/>
		<line class="st1" x1="751.9" y1="1209.8" x2="1090.5" y2="1162.4"/>
		<line class="st0" x1="825.1" y1="1356.3" x2="997" y2="1013.4"/>
		<line class="st1" x1="825.1" y1="1382.4" x2="825.1" y2="740.2"/>
		<line class="st1" x1="909.6" y1="1507.6" x2="909.6" y2="864"/>
		<line class="st1" x1="997" y1="1302.6" x2="539.2" y2="700.8"/>
		<line class="st0" x1="539.2" y1="964.4" x2="690.3" y2="627.4"/>
		<line class="st0" x1="997.1" y1="1592.1" x2="825.1" y2="797.1"/>
		<line class="st1" x1="690.3" y1="1177.3" x2="690.3" y2="564"/>
		<line class="st1" x1="613.5" y1="1108.5" x2="613.5" y2="516.7"/>
		<line class="st0" x1="690.3" y1="1171.5" x2="539.2" y2="437.1"/>
		<line class="st1" x1="443.7" y1="821.4" x2="761.1" y2="778.8"/>
		<line class="st1" x1="662.2" y1="1161.1" x2="566.8" y2="450"/>
		<line class="st0" x1="997" y1="1013.4" x2="997" y2="1592.1"/>
		<line class="st1" x1="539.2" y1="964.4" x2="539.2" y2="437.1"/>
		<line class="st1" x1="959.8" y1="1546.7" x2="859.6" y2="830.2"/>
		
			<ellipse transform="matrix(-0.1386 -0.9904 0.9904 -0.1386 -140.8492 2251.845)" class="st2" cx="908.9" cy="1187.2" rx="327.4" ry="74.3"/>
		
			<ellipse transform="matrix(-0.1329 -0.9911 0.9911 -0.1329 -99.2994 1517.0713)" class="st2" cx="613.9" cy="802" rx="308.9" ry="64.2"/>
		<line class="st1" x1="1011" y1="2269.8" x2="539.2" y2="1675.7"/>
		<line class="st1" x1="597.9" y1="2056.2" x2="597.9" y2="1789.3"/>
		<line class="st1" x1="1352.4" y1="993.7" x2="175.3" y2="765.2"/>
		<line class="st1" x1="406.3" y1="882.3" x2="406.3" y2="589.8"/>
		<line class="st1" x1="1102.2" y1="975.7" x2="1102.2" y2="738.2"/>
		<line class="st1" x1="1279.7" y1="979.6" x2="1279.7" y2="798.2"/>
		<line class="st1" x1="1307.3" y1="803.1" x2="224.1" y2="612.4"/>
		<line class="st0" x1="245.4" y1="778.8" x2="409.1" y2="644.9"/>
		<line class="st0" x1="409.1" y1="810.6" x2="245.4" y2="616.1"/>
		<line class="st0" x1="1279.7" y1="979.6" x2="1106.3" y2="767.7"/>
		<line class="st0" x1="1106.3" y1="945.9" x2="1279.7" y2="798.2"/>
		<line class="st1" x1="1192.7" y1="1013.9" x2="1192.7" y2="712.7"/>
		<line class="st1" x1="1192.2" y1="1014.3" x2="1192.2" y2="713.2"/>
		<line class="st1" x1="1279.7" y1="889" x2="245.3" y2="697.5"/>
		<line class="st1" x1="326.6" y1="822.3" x2="326.6" y2="609.2"/>
		<line class="st1" x1="241.6" y1="766" x2="418.9" y2="654.4"/>
		<line class="st1" x1="1307.7" y1="784.7" x2="1049.7" y2="981.2"/>
		<line class="st1" x1="245.4" y1="616.1" x2="245.4" y2="778.8"/>
		<line class="st1" x1="1094.8" y1="744.7" x2="1291.2" y2="1002.7"/>
		<path class="st2" d="M1128.5,793.1c34.3-26.1,89.1-11.9,122.3,31.7c33.2,43.6,32.3,100.2-2,126.3c-34.3,26.1-89.1,11.9-122.3-31.7
			C1093.3,875.8,1094.2,819.3,1128.5,793.1z"/>
		<line class="st1" x1="393.4" y1="818.8" x2="261.5" y2="609.2"/>
		<path class="st2" d="M270.9,641.4c32.6-24.8,83.3-13,113.2,26.4c30,39.4,27.8,91.4-4.7,116.2c-32.6,24.8-83.3,13-113.2-26.4
			C236.3,718.2,238.4,666.2,270.9,641.4z"/>
		<line class="st1" x1="566" y1="981.4" x2="413.4" y2="952.9"/>
		<line class="st1" x1="1060" y1="645.4" x2="915.1" y2="617.3"/>
		<line class="st1" x1="436.1" y1="1094.8" x2="436.1" y2="908.9"/>
		<line class="st1" x1="1034.2" y1="702.7" x2="1034.2" y2="520.5"/>
		<line class="st1" x1="539.3" y1="1101" x2="539.3" y2="810.8"/>
		<line class="st1" x1="942.2" y1="775.5" x2="942.2" y2="569.4"/>
		<line class="st1" x1="436.1" y1="1094.8" x2="1034.3" y2="681.7"/>
		<line class="st1" x1="436" y1="908.9" x2="1034.2" y2="520.5"/>
		<line class="st0" x1="539.3" y1="1023.6" x2="436" y2="908.9"/>
		<line class="st0" x1="539.3" y1="841.8" x2="436.1" y2="1094.8"/>
		<line class="st1" x1="488.2" y1="1137.2" x2="488.2" y2="824.9"/>
		<line class="st0" x1="1034.2" y1="520.5" x2="942.2" y2="745.3"/>
		<line class="st0" x1="1034.2" y1="681.8" x2="942.3" y2="580.2"/>
		<line class="st1" x1="988.7" y1="768" x2="988.7" y2="530.7"/>
		<line class="st1" x1="436" y1="1001.8" x2="1034.3" y2="601"/>
		<line class="st1" x1="1014.7" y1="498" x2="965.9" y2="749.4"/>
		<line class="st1" x1="514.9" y1="824.2" x2="454.1" y2="1149.7"/>
		
			<ellipse transform="matrix(0.1837 -0.983 0.983 0.1837 -552.2268 1268.5729)" class="st2" cx="487.7" cy="966.8" rx="94.6" ry="50.5"/>
		
			<ellipse transform="matrix(0.1904 -0.9817 0.9817 0.1904 180.619 1481.7803)" class="st2" cx="988.7" cy="631.4" rx="85.6" ry="43"/>
		<ellipse class="st2" cx="747.4" cy="714.1" rx="478.8" ry="193.9"/>
		<polygon class="st1" points="64.9,794.3 569.7,475.6 1403.8,621.5 956,961.8 		"/>
		<path class="st2" d="M1195.5,439.1c94.6-127-42.7-220.6-206.7-252c-228.6-43.8-559.9-23-668.4,47.4
			C168,333.3,404.1,428.1,482.7,438.4c332.1,43.5,639.8,13.4,713.2-119.3"/>
		<path class="st2" d="M1195.7,498.8c121.4-158.1-146.4-233.1-207.1-252.8c-96.6-31.5-509.9-35.1-668,46.8
			c-95.3,49.4-59.2,175.4,161.7,204.4c300.6,39.5,625.6,30.9,714.6-117.3"/>
		<line class="st1" x1="1403.8" y1="621.5" x2="1403.8" y2="109.6"/>
		<line class="st1" x1="569.9" y1="475.8" x2="569.9" y2="-26.4"/>
		<line class="st2" x1="269.3" y1="704.1" x2="269.3" y2="186.1"/>
		<line class="st2" x1="1225.5" y1="704.1" x2="1225.5" y2="186.2"/>
		<polygon class="st0" points="6.4,277.4 556.1,-43.5 1457.1,104.5 973.9,443.7 		"/>
		<polygon class="st1" points="65.1,269.1 569.9,-26.4 1403.9,109.6 956,423.4 		"/>
		<line class="st1" x1="184" y1="186.2" x2="1316" y2="186.2"/>
		<path class="st2" d="M1226.5,197c0-98.2-214.5-177.8-479.1-177.8c-264.6,0-479.1,79.6-479.1,177.8c0,98.2,214.5,177.8,479.1,177.8
			C1012,374.8,1226.5,295.2,1226.5,197z"/>
		<line class="st1" x1="65.1" y1="794.4" x2="65.1" y2="269.1"/>
		<line class="st1" x1="956" y1="961.8" x2="956" y2="423.4"/>
		<path class="st2" d="M1167,194.9c0-86.2-185.4-147.6-417.5-147.6C517.4,47.3,332,108.7,332,194.9c0,86.2,185.4,151.8,417.5,151.8
			C981.7,346.7,1167,281.1,1167,194.9z"/>
		<path class="st0" d="M1169.8,533.9c0-86.2-188.2-156-420.3-156c-232.1,0-420.3,69.9-420.3,156c0,86.2,188.2,156,420.3,156
			C981.7,689.9,1169.8,620.1,1169.8,533.9z"/>
		<path class="st2" d="M1169.8,493c0-86.2-188.2-156-420.3-156c-232.1,0-420.3,69.9-420.3,156c0,86.2,188.2,156,420.3,156
			C981.7,649,1169.8,579.2,1169.8,493z"/>
		<path class="st2" d="M1169.8,574.7c0-86.2-188.2-156-420.3-156c-232.1,0-420.3,69.9-420.3,156c0,86.2,188.2,156,420.3,156
			C981.7,730.8,1169.8,660.9,1169.8,574.7z"/>
		<path class="st2" d="M1226.5-320.3c0-94.7-214.5-171.6-479.1-171.6c-264.6,0-479.1,76.8-479.1,171.6
			c0,94.8,214.5,171.6,479.1,171.6C1012-148.7,1226.5-225.5,1226.5-320.3z"/>
		<line class="st1" x1="-72" y1="-320.2" x2="1621.7" y2="-320.2"/>
		<path class="st2" d="M1226.2,476.5c11-19.4,14.9-40.8,15-61.3c0.7-97.4-130.4-238.2-491.8-239.7
			c-302.1-1.2-504.4,50.5-504.4,160.4c0,118.8,250.7,160.5,504.4,166.9c208.5,5.2,401.2-22.7,476.3-147.6"/>
		<path class="st2" d="M478.9,499.8c-351.9-78.1-215.1-246.9-175-265.3c273.3-125.6,585.9-67.7,688.8-48.9
			c262.5,48,276.6,205.1,232.4,294.5"/>
		<line class="st1" x1="1577.9" y1="1357.6" x2="-133.9" y2="1024.9"/>
		<line class="st0" x1="997" y1="1104" x2="1533.9" y2="1480.6"/>
		<line class="st0" x1="1534.3" y1="694.5" x2="997" y2="1950.5"/>
		<line class="st0" x1="993.9" y1="1539.8" x2="1530.2" y2="1082.4"/>
		<line class="st0" x1="1792.5" y1="1496.3" x2="763.1" y2="1279.9"/>
		<line class="st0" x1="-78" y1="1718.5" x2="539.2" y2="535.1"/>
		<line class="st0" x1="-78" y1="903.6" x2="539.2" y2="1275.5"/>
		<line class="st0" x1="-80.9" y1="1306.5" x2="513.4" y2="927.6"/>
		<line class="st1" x1="1376.2" y1="782.1" x2="1161.6" y2="1886.3"/>
		<line class="st1" x1="351" y1="554.8" x2="136.4" y2="1659.1"/>
		
			<ellipse transform="matrix(0.1908 -0.9816 0.9816 0.1908 -241.2904 2301.8223)" class="st0" cx="1275.6" cy="1297.3" rx="433.3" ry="193.6"/>
		
			<ellipse transform="matrix(0.1908 -0.9816 0.9816 0.1908 -880.9202 1127.9087)" class="st0" cx="243.7" cy="1098.3" rx="420.4" ry="173.3"/>
		<path class="st2" d="M1372,882.4c136.4,20.2,198.8,203.5,139.5,435.9c-59.3,232.4-218,437.3-354.3,417.1
			c-136.4-20.2-198.8-225-139.5-457.4C1077,1045.5,1235.6,862.2,1372,882.4z"/>
		<path class="st2" d="M362.6,697.1c152.3,18.1,217.6,215.8,145.8,441.5c-71.8,225.8-253.6,394.1-405.9,376
			c-152.3-18.1-222.6-176.6-152.8-402.9C33.9,838.6,210.3,679,362.6,697.1z"/>
		<line class="st0" x1="-78" y1="1718.5" x2="997" y2="1104"/>
		<line class="st0" x1="997" y1="1950.5" x2="-78" y2="903.6"/>
		<line class="st0" x1="1533.9" y1="1480.6" x2="539.2" y2="535.1"/>
		<line class="st0" x1="539.2" y1="1275.5" x2="1533.9" y2="695.2"/>
		<line class="st1" x1="1346.7" y1="753.7" x2="-36.7" y2="1776.4"/>
		<line class="st1" x1="39.6" y1="862.9" x2="862.8" y2="1976.4"/>
		<line class="st1" x1="635.4" y1="471.1" x2="1457" y2="1582.3"/>
		<path class="st0" d="M173.6,1042.7c157.3-116.2,408.2-43.4,560.3,162.6c152.1,206,147.9,467.2-9.4,583.4
			c-157.3,116.2-408.2,43.4-560.3-162.6C12.1,1420.1,16.3,1158.9,173.6,1042.7z"/>
		<path class="st2" d="M86,1043c213.5-116.8,554.1-43.6,760.6,163.4c206.5,207,200.8,469.5-12.8,586.3
			c-213.5,116.8-554.1,43.6-760.6-163.4C-133.3,1422.2-127.5,1159.7,86,1043z"/>
		
			<ellipse transform="matrix(-0.5941 -0.8044 0.8044 -0.5941 827.9787 2405.4565)" class="st0" cx="1020.9" cy="993.8" rx="403.4" ry="347.1"/>
		<path class="st2" d="M714,672.9c209-111.7,489.9-72.8,665.6,106.6c222.4,227.2,193.3,440.8-15.8,552.6
			c-209,111.7-523.9,37.5-703.4-138.4C481,1017.8,504.9,784.6,714,672.9z"/>
		<path class="st0" d="M713.3,669.3c208.2-113.9,521.9-60.9,700.6,118.3c178.7,179.2,154.8,416.8-53.4,530.7
			c-208.2,113.9-521.9,60.9-700.6-118.3C481.2,1020.8,505.1,783.2,713.3,669.3z"/>
		<polygon class="st1" points="-78,626 539.2,268.4 1533.9,425.8 997,818.2 		"/>
		<polygon class="st1" points="-78,585.2 539.2,227.5 1533.9,384.9 997,777.4 		"/>
		<polygon class="st1" points="-78,666.9 539.2,309.2 1533.9,466.6 997,859.1 		"/>
		<line class="st1" x1="-29.5" y1="524.4" x2="1572.4" y2="524.4"/>
		<ellipse class="st2" cx="750.9" cy="534.6" rx="563.6" ry="216.4"/>
		<path class="st2" d="M1269.3,495.6c0-111.5-233.3-201.8-521-201.8c-287.8,0-521,90.4-521,201.8c0,111.5,233.3,201.8,521,201.8
			C1036,697.4,1269.3,607.1,1269.3,495.6z"/>
		<path class="st2" d="M1269.3,577.1c0-111.5-233.3-201.8-521-201.8c-287.8,0-521,90.4-521,201.8c0,111.5,233.3,201.8,521,201.8
			C1036,779,1269.3,688.6,1269.3,577.1z"/>
		<path class="st2" d="M1226.5,495.1c0-101.6-214.5-184-479.1-184c-264.6,0-479.1,82.4-479.1,184c0,101.6,214.5,184,479.1,184
			C1012,679,1226.5,596.7,1226.5,495.1z"/>
		<ellipse class="st2" cx="747.4" cy="576.6" rx="479.1" ry="184"/>
		<line class="st1" x1="1275.8" y1="614.5" x2="245.3" y2="438.7"/>
		<line class="st1" x1="1275.8" y1="573.6" x2="245.3" y2="397.8"/>
		<line class="st1" x1="1275.8" y1="655.3" x2="245.4" y2="479.5"/>
		<line class="st1" x1="377.4" y1="502" x2="377.4" y2="122.5"/>
		<line class="st1" x1="321.5" y1="492.5" x2="321.5" y2="120.7"/>
		<line class="st1" x1="1140.4" y1="632.3" x2="1140.4" y2="250"/>
		<line class="st1" x1="1195.8" y1="641.6" x2="1195.8" y2="252.5"/>
		<line class="st1" x1="283.5" y1="491.7" x2="283.5" y2="398.3"/>
		<line class="st1" x1="1235.8" y1="656" x2="1235.8" y2="562.2"/>
		<line class="st1" x1="1277.4" y1="575.9" x2="1194.3" y2="639.2"/>
		<line class="st1" x1="1197.6" y1="557.4" x2="1275" y2="659.1"/>
		<line class="st1" x1="316.3" y1="497.2" x2="250.6" y2="392.9"/>
		<line class="st1" x1="237.4" y1="474.1" x2="341.7" y2="408.5"/>
		<line class="st0" x1="245.4" y1="477.3" x2="321.5" y2="413.1"/>
		<line class="st0" x1="321.5" y1="490.2" x2="245.3" y2="400.1"/>
		<line class="st0" x1="1275.8" y1="573.6" x2="1195.8" y2="641.6"/>
		<line class="st0" x1="1195.8" y1="560" x2="1275.8" y2="655.3"/>
		
			<ellipse transform="matrix(-0.5328 -0.8463 0.8463 -0.5328 57.717 921.8537)" class="st2" cx="283.3" cy="445" rx="44.1" ry="35.3"/>
		
			<ellipse transform="matrix(-0.6058 -0.7957 0.7957 -0.6058 1500.8749 1958.59)" class="st2" cx="1235.7" cy="607.5" rx="44.9" ry="36"/>
		<line class="st1" x1="459.2" y1="750.3" x2="459.2" y2="656.4"/>
		<line class="st1" x1="491.6" y1="709.6" x2="422.5" y2="696.7"/>
		<line class="st1" x1="436" y1="717.9" x2="1034.2" y2="346.7"/>
		<line class="st1" x1="436" y1="677" x2="1034.2" y2="305.8"/>
		<line class="st1" x1="436" y1="758.7" x2="1034.2" y2="387.5"/>
		<line class="st1" x1="986.3" y1="43.2" x2="986.3" y2="417.3"/>
		<line class="st1" x1="952.8" y1="58.3" x2="952.8" y2="438.1"/>
		<line class="st1" x1="521.7" y1="322" x2="521.7" y2="705.7"/>
		<line class="st0" x1="436" y1="758.7" x2="482.4" y2="648.3"/>
		<line class="st0" x1="436" y1="677" x2="482.4" y2="730"/>
		<line class="st1" x1="468.6" y1="653.4" x2="449.8" y2="753.9"/>
		<line class="st0" x1="1034.2" y1="305.8" x2="986.3" y2="417.3"/>
		<line class="st0" x1="1034.2" y1="387.5" x2="986.5" y2="335.6"/>
		<line class="st1" x1="1044" y1="368.1" x2="976.5" y2="355"/>
		<line class="st1" x1="1020.3" y1="309.8" x2="1000.7" y2="411.1"/>
		
			<ellipse transform="matrix(0.1837 -0.983 0.983 0.1837 -316.8625 1025.6112)" class="st2" cx="459.1" cy="703.6" rx="42.3" ry="22.2"/>
		<line class="st1" x1="1010.3" y1="408.8" x2="1010.3" y2="314.9"/>
		
			<ellipse transform="matrix(0.1905 -0.9817 0.9817 0.1905 462.9033 1284.4949)" class="st2" cx="1010.3" cy="361.6" rx="42" ry="23.1"/>
		<line class="st1" x1="1022.7" y1="223.9" x2="955.2" y2="210.8"/>
		<line class="st1" x1="996.3" y1="165.1" x2="976.7" y2="266.4"/>
		
			<ellipse transform="matrix(0.1904 -0.9817 0.9817 0.1904 585.6603 1143.8584)" class="st2" cx="986.3" cy="216.9" rx="31.4" ry="14.5"/>
		<line class="st1" x1="482.4" y1="339.5" x2="482.4" y2="730"/>
		<line class="st1" x1="516.7" y1="474.2" x2="447.5" y2="461.3"/>
		<line class="st1" x1="491.7" y1="418" x2="473" y2="518.5"/>
		<ellipse transform="matrix(0.1837 -0.983 0.983 0.1837 -66.26 856.0593)" class="st2" cx="482.3" cy="467.9" rx="31" ry="15.9"/>
		<line class="st1" x1="436" y1="614.9" x2="1034.2" y2="246.6"/>
		<line class="st1" x1="436" y1="555.7" x2="1034.2" y2="187.3"/>
		<line class="st1" x1="436" y1="496.4" x2="1034.2" y2="128"/>
		<line class="st1" x1="436" y1="466.7" x2="1034.2" y2="98.4"/>
		<line class="st1" x1="436" y1="437.1" x2="1034.2" y2="68.7"/>
		<line class="st1" x1="1034.2" y1="187.3" x2="1034.2" y2="128"/>
		<line class="st1" x1="436" y1="585.3" x2="1034.2" y2="217"/>
		<line class="st1" x1="436" y1="526" x2="1034.2" y2="157.6"/>
		<line class="st1" x1="970.9" y1="265.9" x2="970.9" y2="186.9"/>
		<line class="st1" x1="1001.7" y1="246.9" x2="1001.7" y2="167.8"/>
		<line class="st1" x1="465.6" y1="517.7" x2="465.6" y2="438.6"/>
		<line class="st1" x1="498.9" y1="497.1" x2="498.9" y2="418.1"/>
		<line class="st1" x1="347.5" y1="303.7" x2="296.4" y2="222.6"/>
		<line class="st1" x1="287.2" y1="284" x2="356.8" y2="240.2"/>
		<line class="st1" x1="1235.7" y1="315.9" x2="1155.7" y2="383.9"/>
		<line class="st1" x1="1156.3" y1="302.7" x2="1236.3" y2="398"/>
		<line class="st1" x1="1233.9" y1="436" x2="1158.2" y2="500.4"/>
		<line class="st1" x1="1158.1" y1="423.4" x2="1231.7" y2="511.2"/>
		<line class="st1" x1="1275.8" y1="511.5" x2="245.3" y2="338.6"/>
		<line class="st1" x1="1275.8" y1="481.9" x2="245.3" y2="308.9"/>
		<line class="st1" x1="1275.8" y1="452.2" x2="245.3" y2="279.3"/>
		<line class="st1" x1="1275.8" y1="422.6" x2="245.3" y2="249.6"/>
		<line class="st1" x1="1275.8" y1="392.9" x2="245.3" y2="220"/>
		<line class="st1" x1="1275.8" y1="363.3" x2="245.3" y2="190.4"/>
		<line class="st1" x1="1275.8" y1="333.7" x2="245.3" y2="160.7"/>
		<line class="st1" x1="1166.6" y1="502" x2="1166.6" y2="424.3"/>
		<line class="st1" x1="1225" y1="509.9" x2="1225" y2="432.1"/>
		<line class="st1" x1="1225" y1="394.2" x2="1225" y2="311.1"/>
		<line class="st1" x1="293.5" y1="296" x2="293.5" y2="219.1"/>
		<line class="st1" x1="349.2" y1="305.4" x2="349.2" y2="225.3"/>
		
			<ellipse transform="matrix(-0.5327 -0.8463 0.8463 -0.5327 270.3891 674.2659)" class="st2" cx="321.3" cy="262.5" rx="31.6" ry="26.3"/>
		
			<ellipse transform="matrix(-0.643 -0.7659 0.7659 -0.643 1605.959 1685.4595)" class="st2" cx="1195.8" cy="468.4" rx="33" ry="26.3"/>
		
			<ellipse transform="matrix(-0.643 -0.7659 0.7659 -0.643 1696.7382 1490.6792)" class="st2" cx="1195.8" cy="349.9" rx="33.2" ry="26"/>
		<line class="st1" x1="1166.6" y1="382.7" x2="1166.6" y2="302.7"/>
		<line class="st1" x1="1010.6" y1="2667.7" x2="529.7" y2="1913.1"/>
		<line class="st1" x1="1010.6" y1="2580.4" x2="529.7" y2="1825.7"/>
		<line class="st1" x1="1010.6" y1="2493" x2="529.7" y2="1738.4"/>
		<line class="st1" x1="939.1" y1="2595.5" x2="939.1" y2="2328.6"/>
		<line class="st1" x1="968.4" y1="2627.6" x2="968.4" y2="2360.1"/>
		<line class="st1" x1="989.1" y1="2656.8" x2="942.5" y2="2336.8"/>
		<line class="st1" x1="894.2" y1="2525" x2="1035.1" y2="2505.2"/>
		
			<ellipse transform="matrix(-0.1442 -0.9895 0.9895 -0.1442 -1380.1844 3835.1174)" class="st2" cx="968.2" cy="2514.4" rx="98.5" ry="25.8"/>
		<line class="st1" x1="569" y1="2000.5" x2="569" y2="1733"/>
		<line class="st1" x1="589.7" y1="2029.6" x2="543.1" y2="1709.7"/>
		<line class="st1" x1="494.7" y1="1897.8" x2="635.7" y2="1878.1"/>
		
			<ellipse transform="matrix(-0.1442 -0.9895 0.9895 -0.1442 -1216.6501 2722.2893)" class="st2" cx="568.8" cy="1887.2" rx="98.5" ry="25.8"/>
		<line class="st1" x1="-180.6" y1="2408" x2="1671.1" y2="2114.5"/>
		<line class="st1" x1="-180.6" y1="2320.8" x2="1671.1" y2="2027.2"/>
		<line class="st1" x1="-180.6" y1="2233.5" x2="1671.1" y2="1939.9"/>
		<line class="st1" x1="16.1" y1="2578.5" x2="16.1" y2="1962.8"/>
		<line class="st1" x1="191.1" y1="2554.6" x2="-160.3" y2="2022.8"/>
		<line class="st1" x1="1712.1" y1="2297.9" x2="1179.3" y2="1825.8"/>
		<line class="st1" x1="1446.8" y1="2355" x2="1446.8" y2="1724.6"/>
		
			<ellipse transform="matrix(-0.5513 -0.8343 0.8343 -0.5513 -1885.444 3565.5452)" class="st2" cx="16.1" cy="2289.8" rx="83" ry="99.3"/>
		<line class="st1" x1="110.7" y1="2389.5" x2="110.7" y2="2122.6"/>
		<line class="st1" x1="1359.9" y1="2205" x2="1359.9" y2="1938.1"/>
		<path class="st2" d="M-76.9,1082c-5.6-271,501.7-563.8,644.3-585c118.5-17.6,373.1,29.2,438,48.9s373.1,97.1,405.1,121.6"/>
		<path class="st2" d="M1314,536.5c0-138-289.3-249.8-563.1-249.8c-326.5,0-563.1,99.3-563.1,249.8c0,138,273.8,249.8,563.1,249.8
			C1079.7,786.3,1314,674.5,1314,536.5z"/>
		<line class="st2" x1="1275.9" y1="889.4" x2="1275.8" y2="2382"/>
		<polyline class="st2" points="1235.8,648.5 1195.8,641.6 1195.8,784.5 		"/>
		<polyline class="st2" points="1140.4,250 1195.8,259 1195.8,559.9 1235.9,566.8 		"/>
		<line class="st2" x1="245.3" y1="697.4" x2="245.4" y2="2149.3"/>
		<polyline class="st2" points="283.4,486 321.5,492.5 321.5,629.2 		"/>
		<polyline class="st2" points="377.2,125.5 320.4,116.3 321.5,410.8 283.5,404.3 		"/>
		<line class="st2" x1="436" y1="1001.8" x2="436" y2="2513.7"/>
		<polyline class="st2" points="459.2,744.5 482.4,730 482.4,878.9 		"/>
		<polyline class="st2" points="521.5,323.4 482.5,346.9 482.4,648.2 459.2,662.7 		"/>
		<line class="st2" x1="1034.3" y1="601" x2="1034.2" y2="2032.4"/>
		<polyline class="st2" points="1010.3,402.4 986.3,417.3 986.3,551.6 		"/>
		<polyline class="st2" points="952.7,65.1 989,43.4 989,333.9 1010.3,320.7 		"/>
		<line class="st2" x1="268.4" y1="-320" x2="332" y2="194.9"/>
		<line class="st2" x1="1226.5" y1="-320" x2="1167" y2="194.9"/>
	</g>
</g>
<g id="Layer_2">
</g>
</svg>
