<svg xmlns="http://www.w3.org/2000/svg" xmlns:xlink="http://www.w3.org/1999/xlink" viewBox="0 0 800 1102.251" enable-background="new 0 0 800 1102.251"><defs><path id="1" d="m0 0h800v1102.25h-800z"/><clipPath id="0"><use xlink:href="#1"/></clipPath></defs><path fill="#f08f78" d="m0 .251h800v1102h-800z"/><g clip-path="url(#0)" fill="none" stroke="#231f20" stroke-miterlimit="10"><g stroke-dasharray="8 12" stroke-width="3"><path d="m315.75 3222.5v-4586.63"/><path d="m62.4 3219.7v-4586.62"/><path d="m452.75 2266.35v-3634.04"/><path d="m-662.4 787.96h2724.77"/><path d="m-678.18 172.64h2724.77"/><path d="m1069.21 1632.95l-622.17-852.94"/><path d="m1462.9 1314.69l-1468.17-284.66"/><path stroke-linecap="round" stroke-linejoin="round" d="m1089.75 206.51l-665.75-775.38"/><path d="m297.89 55.41l846.24-506.77"/><path d="m-670.67 893.52h2724.77"/><path d="m-441.44 206.51h2724.77"/><path d="m1071.62 906.89l-624.96-786.63"/><path d="m1473.33 614.08l-1418.71-249.76"/><path d="m-659.34 350.48h2724.77"/><path d="m-657.78 1028.92h2724.77"/><path d="m278.98 1493.15l883.58-620.95"/><path d="m315.74 754.65l794.84-516.02"/><g stroke-linejoin="round" stroke-linecap="round"><path d="m1774.42 709.85l-1321.61-231.7-819.98 517.93 1428.32 281.75z"/><path d="m734.48 2655.91v-3995.95"/></g><path d="m-385.16 1326.77l2226.85-307.37"/><path d="m-367.23 627.37l2196.89-283.97"/><g stroke-linejoin="round" stroke-linecap="round"><path d="m-367.17 1324.25l819.92-536.29 1321.67 241-713.27 592.99z"/><path d="m452.75-1194.36v3304.49"/><path d="m-367.17-72.908l819.92-461.35 1321.67 206.05-713.27 500.85z"/><path d="m-367.17 627.36l819.92-499.49 1321.67 222.61-713.27 543.04z"/><path d="m-3.096 580.02l545.52-339.34 888.76 154.17-476.53 364.9z"/></g><path d="m1532.91 482.63h-1599.59"/><g stroke-linejoin="round" stroke-linecap="round"><path d="m-367.17 747.68l819.98-489.66 1321.61 212.79-713.27 543.03z"/><path d="m-430.46 1373l2272.15-313.11"/><path d="m-367.23 627.37l2196.89-283.97"/><path d="m-367.16 996.12l2141.59-286.27"/><path d="m411.85 1283.76v-786.28"/></g><path d="m-367.23 1364.27l779.13-837.63"/><path d="m411.9 1256.97l-779.13-629.6"/><g stroke-linejoin="round" stroke-linecap="round"><path d="m24.11 1327.28v-817.97"/><path d="m256.73 1295.63l-466.9-706.56"/><path d="m424.62 678.95l-815.7 538.97"/></g></g><path stroke-width="6" d="m359.27 720.53c-107.86-163.24-345.71-196.18-531.25-73.58-185.53 122.6-248.5 354.31-140.64 517.55 107.86 163.19 345.71 196.13 531.25 73.54 185.53-122.56 248.5-354.27 140.64-517.51z"/><g stroke-dasharray="8 12" stroke-width="3"><g stroke-linejoin="round" stroke-linecap="round"><path d="m1069.21 1673.44l-622.17-852.92"/><path d="m1079.67 917.21l-626.92-789.33"/><path d="m735.38 1154.48l449.98-62.948"/><path d="m1061.13 1277.78l-608.32-799.62"/></g><path d="m452.81 828.37l200.71-447.7"/><g stroke-linejoin="round" stroke-linecap="round"><path d="m653.54 1111.29v-814.83"/><path d="m551.58 1019.94v-786.34"/></g><path d="m653.52 1103.61l-200.77-975.73"/><g stroke-linejoin="round" stroke-linecap="round"><path d="m325.97 638.46l421.67-56.56"/><path d="m616.27 1089.81l-126.75-944.83"/><path d="m452.75 828.37v-700.5"/></g></g><path stroke-width="6" d="m497.53 205.8c46.707-6.264 109 170.8 139.15 395.48 30.13 224.68 16.707 411.9-30 418.16-46.709 6.269-109.01-170.79-139.16-395.47-30.14-224.68-16.707-411.9 30.02-418.16z"/><g stroke-dasharray="8 12" stroke-width="3"><g stroke-linejoin="round" stroke-linecap="round"><path d="m1533.22 867.41l-1563.96-303.62"/><path d="m279.96 720.31v-388.59"/><path d="m1473.36 614.09l-1439.24-253.38"/></g><path d="m62.44 581.84l217.56-177.85"/><path d="m280 624.09l-217.56-258.45"/><g stroke-linejoin="round" stroke-linecap="round"><path d="m1436.63 728.22l-1374.27-254.44"/><path d="m170.33 639.68v-283.15"/><path d="m57.47 564.79l235.44-148.21"/><path d="m62.44 365.65v216.2"/><path d="m259.09 634.97l-175.28-278.45"/></g></g><path stroke-width="6" d="m98.25 399.27c43.27-32.944 110.62-17.263 150.43 35.02 39.805 52.29 36.999 121.38-6.261 154.32-43.28 32.945-110.62 17.266-150.43-35.02-39.805-52.29-37-121.38 6.265-154.33z"/><g stroke-dasharray="8 12" stroke-width="3"><g stroke-linejoin="round" stroke-linecap="round"><path d="m488.38 851.02l-202.73-37.883"/><path d="m315.76 1001.64v-246.99"/><path d="m452.92 1009.96v-385.63"/><path d="m315.76 1001.7l794.88-548.86"/><path d="m315.74 754.65l794.84-516.02"/></g><path d="m452.92 907.07l-137.18-152.42"/><path d="m452.92 665.58l-137.16 336.06"/><g stroke-linejoin="round" stroke-linecap="round"><path d="m385.1 1058.06v-415.03"/><path d="m315.74 878.14l794.87-532.47"/><path d="m420.52 642.11l-80.82 432.49"/></g></g><g stroke-width="6"><ellipse transform="matrix(.1837-.983.983.1837-503.68 1056.64)" cx="384.33" cy="831.57" rx="125.72" ry="67.09"/><path d="m1356.64 495.92c0-139.64-279.57-252.84-624.47-252.84-344.89 0-624.46 113.2-624.46 252.84 0 139.64 279.57 252.84 624.46 252.84 344.9 0 624.47-113.2 624.47-252.84z"/></g><g stroke-dasharray="8 12" stroke-linejoin="round" stroke-linecap="round" stroke-width="3"><path d="m-177.31 602.49l670.62-423.52 1108.2 193.89-594.89 452.15z"/><path d="m493.54 179.25v-667.17"/></g><path stroke-width="6" d="m107.72 482.48v-654.5"/><g stroke-dasharray="8 12" stroke-width="3"><path d="m-255.1-84.32l730.35-426.42 1197.1 196.64-641.95 450.77z"/><path stroke-linecap="round" stroke-linejoin="round" d="m-177.08-95.31l670.62-392.62 1108.13 180.65-595.06 416.99z"/></g><g stroke-width="6"><path d="m1359.76-193.96c0-128.64-280.93-232.92-627.5-232.92-346.56 0-627.48 104.28-627.48 232.92 0 128.64 280.92 232.92 627.48 232.92 346.57 0 627.5-104.28 627.5-232.92z"/><path d="m1290.73-193.96c0-114.49-250.02-207.3-558.48-207.3-308.44 0-558.46 92.81-558.46 207.3 0 114.49 250.02 207.3 558.46 207.3 308.46.0001 558.48-92.81 558.48-207.3z"/><path d="m1290.73 256.44c0-114.49-250.02-207.3-558.48-207.3-308.44 0-558.46 92.81-558.46 207.3 0 114.49 250.02 207.3 558.46 207.3 308.46 0 558.48-92.81 558.48-207.3z"/></g><g stroke-dasharray="8 12" stroke-width="3"><g stroke-linejoin="round" stroke-linecap="round"><path d="m237.86 200.35v-490.52"/><path d="m163.56 187.37v-479.9"/><path d="m1832.87 1350.84l-2274.31-442.05"/></g><path d="m-367.17 1830.29l819.98-1572.27"/><path d="m-367.17 747.68l819.92 494.06"/><path d="m-371.09 1282.92l789.66-503.41"/><path stroke-linecap="round" stroke-linejoin="round" d="m202.76 284.28l-285.18 1467.02"/><path d="m166.75 458.06c124.81 24.265 178.27 289.39 119.41 592.18-58.863 302.74-207.76 528.54-332.57 504.27-124.81-24.26-178.27-289.39-119.41-592.13 58.864-302.79 207.76-528.58 332.57-504.32z"/></g><path stroke-width="6" d="m218.2 473.29c202.4 24.04 289.12 286.69 193.65 586.64-95.46 299.91-336.92 523.59-539.32 499.55-202.41-24.04-295.77-234.58-203.01-535.31 111.92-362.93 346.28-574.91 548.69-550.88z"/><g stroke-dasharray="8 12" stroke-width="3"><path d="m-367.17 1830.29l1428.32-816.45"/><path d="m1061.15 2138.55l-1428.32-1390.87"/><path d="m1774.42 1514.2l-1321.62-1256.18"/><path d="m452.75 1241.74l1321.68-770.93"/><g stroke-linejoin="round" stroke-linecap="round"><path d="m1525.71 548.43l-1838.03 1358.82"/><path d="m-211 693.54l1093.81 1479.32"/><path d="m580.62 173l1091.58 1476.33"/></g><path d="m-32.92 932.44c209.03-154.37 542.35-57.651 744.48 216.03 202.17 273.64 196.57 620.65-12.506 775.02-209.04 154.37-542.35 57.652-744.48-216.03-202.13-273.69-196.53-620.65 12.502-775.03z"/></g><path stroke-width="6" d="m-149.31 932.81c283.72-155.13 736.14-57.936 1010.55 217.1 274.35 274.99 266.74 623.72-16.973 778.86-283.77 155.14-736.19 57.938-1010.55-217.1-274.35-275.04-266.75-623.72 16.97-778.85z"/><path stroke-width="3" stroke-dasharray="8 12" d="m774.46 436.38c204.85-151.29 513.47-80.904 689.32 157.21 175.85 238.11 152.34 553.78-52.5 705.02-204.85 151.29-513.47 80.902-689.36-157.16-175.86-238.11-152.36-553.77 52.54-705.07z"/><path stroke-width="6" d="m685.03 441.08c277.76-148.47 650.91-96.75 884.31 141.69 295.42 301.81 256.78 585.65-20.932 734.08-277.71 148.46-696.12 49.801-934.56-183.83-238.42-233.68-206.55-543.47 71.18-691.94z"/><g stroke-dasharray="8 12" stroke-width="3"><path d="m684.12 436.38c276.66-151.29 693.41-80.904 930.87 157.21 237.46 238.11 205.71 553.78-70.898 705.02-276.62 151.29-693.37 80.902-930.87-157.16-237.48-238.11-205.74-553.77 70.9-705.07z"/><g stroke-linejoin="round" stroke-linecap="round"><path d="m1431.47 363.5l-1369.12-233.52"/><path d="m315.74 500.98l794.84-493.18"/><path d="m-367.17 378.86l819.92-475.17 1321.67 209.1-713.27 521.42z"/><path d="M-367.17 338.35 452.75-136.83 1774.42 72.28 1061.15 593.7z"/><path d="M-367.17 419.38 452.75-55.8 1774.42 153.31 1061.15 674.73z"/><path d="m-302.77 243.84h2128.38"/></g></g><g stroke-width="6"><path d="m1482.91 257.46c0-158.79-335.26-287.53-748.86-287.53-413.59 0-748.85 128.73-748.85 287.53 0 158.79 335.26 287.53 748.85 287.53 413.6-.0001 748.86-128.73 748.86-287.53z"/><path d="m1366.02 259.18c0-134.97-284.96-244.4-636.53-244.4-351.56 0-636.52 109.42-636.52 244.4 0 134.98 284.97 244.4 636.52 244.4 351.57-.0001 636.53-109.42 636.53-244.4z"/></g><g stroke-dasharray="8 12" stroke-linejoin="round" stroke-linecap="round" stroke-width="3"><path d="m1431.47 322.97l-1369.12-233.52"/><path d="m1431.51 403.94l-1369.12-233.52"/><path d="m156.59 207.69l-87.22-138.56"/><path d="m51.891 177.03l138.56-87.23"/></g><ellipse transform="matrix(-.5327-.8463.8463-.5327 56.03 307.7)" stroke-width="6" cx="112.96" cy="138.38" rx="43.33" ry="35.3"/><g stroke-dasharray="8 12" stroke-width="3"><path d="m62.4 170.42l101.16-63.704"/><path d="m163.56 187.37l-101.2-97.92"/></g></g><g fill="#fff"><path d="m50.29 523.34c0-12.689 9.626-19.03 18.706-19.03 9.08 0 18.706 6.344 18.706 19.03v41.13c0 12.689-9.626 19.03-18.706 19.03-9.08 0-18.706-6.345-18.706-19.03v-41.13m11.158 41.13c0 5.36 3.501 7.876 7.548 7.876s7.548-2.516 7.548-7.876v-41.13c0-5.36-3.5-7.876-7.548-7.876s-7.548 2.516-7.548 7.876v41.13"/><path d="m97.54 504.96h16.299c14.439 0 19.8 9.517 19.8 19.69v2.844c0 8.314-2.735 11.376-7.657 14.439 5.25 2.516 7.657 7.22 7.657 15.315v4.375c0 13.564-6.454 21.22-20.894 21.22h-15.205v-77.885m11.158 31.942h5.03c7.438 0 9.408-3.829 9.408-10.939 0-6.892-2.516-10.501-9.845-10.501h-4.594v21.44zm0 34.786h4.813c8.97 0 9.626-5.47 9.626-13.13 0-7.767-1.422-11.814-9.517-11.814h-4.922v24.941"/><path d="m170.07 564.47c0 10.283-7.11 19.03-19.03 19.03-7.11 0-11.814-3.938-14.549-7l8.751-7c1.531 1.532 3.829 2.844 6.126 2.844 2.734 0 7.548-1.641 7.548-9.408v-57.977h11.158v59.51"/><path d="m180.57 504.96h33.25v10.501h-22.1v22.862h19.252v10.501h-19.252v22.863h22.1v11.158h-33.25v-77.885"/><path d="m256.48 565.46c0 9.626-7.767 18.05-17.721 18.05-8.533 0-18.378-4.157-18.378-18.377v-42.881c0-10.173 7.329-17.94 18.16-17.94 10.282 0 17.94 7.767 17.94 18.596v4.375h-11.158v-3.719c0-4.375-2.625-8.095-6.892-8.095-5.579 0-6.891 3.829-6.891 9.08v39.818c0 4.485 1.75 7.985 6.782 7.985 3.063 0 7-1.75 7-7.876v-3.829h11.158v4.815"/><path d="m272.89 515.46h-12.908v-10.501h36.974v10.501h-12.908v67.38h-11.158v-67.38"/><path d="m329.55 515.46h-12.908v-10.501h36.974v10.501h-12.908v67.38h-11.158v-67.38"/><path d="m358.53 504.96h17.94c13.236 0 19.69 7.767 19.69 22.862 0 8.97-2.516 15.534-9.626 19.472l12.03 35.552h-11.814l-10.392-33.25h-6.673v33.25h-11.158v-77.886m11.157 34.786h6.344c7.767 0 8.97-4.376 8.97-12.143 0-7.876-1.313-12.142-9.517-12.142h-5.797v24.285"/><path d="m417.49 504.96h9.299l17.393 77.886h-11.158l-3.281-16.737h-15.205l-3.282 16.737h-11.158l17.392-77.886m4.704 22.425h-.219l-5.47 28.22h11.158l-5.469-28.22"/><path d="m449.21 504.96h10.72l16.847 46.928h.219v-46.928h11.158v77.886h-10.502l-17.06-46.819h-.219v46.819h-11.158v-77.886"/><path d="m534.31 527.39h-11.157v-2.516c0-5.141-2.188-9.407-7.877-9.407-6.125 0-7.548 4.922-7.548 10.06 0 6.02.547 8.095 6.345 10.392l8.532 3.391c9.846 3.719 11.705 9.954 11.705 21.331 0 13.13-4.813 22.862-19.253 22.862-10.829 0-19.03-7.985-19.03-18.487v-4.157h11.157v3.5c0 4.047 2.188 7.985 7.876 7.985 7.548 0 8.096-4.485 8.096-11.595 0-8.314-.985-9.626-6.454-11.814l-7.985-3.282c-9.627-3.938-12.143-10.283-12.143-20.02 0-11.814 6.345-21.331 19.14-21.331 11.157 0 18.596 8.97 18.596 17.612v5.47z"/><path d="m542.63 504.96h11.157v66.728h22.1v11.158h-33.25v-77.886"/><path d="m595.46 504.96h9.298l17.394 77.886h-11.158l-3.281-16.737h-15.206l-3.281 16.737h-11.158l17.392-77.886m4.703 22.425h-.219l-5.469 28.22h11.157l-5.469-28.22"/><path d="m628.93 515.46h-12.908v-10.501h36.974v10.501h-12.908v67.38h-11.157v-67.38"/><path d="m658.25 504.96h11.157v77.886h-11.157v-77.886"/><path d="m679.57 523.34c0-12.689 9.627-19.03 18.706-19.03s18.706 6.344 18.706 19.03v41.13c0 12.689-9.627 19.03-18.706 19.03s-18.706-6.345-18.706-19.03v-41.13m11.158 41.13c0 5.36 3.501 7.876 7.548 7.876 4.048 0 7.548-2.516 7.548-7.876v-41.13c0-5.36-3.5-7.876-7.548-7.876-4.047 0-7.548 2.516-7.548 7.876v41.13"/><path d="m726.39 504.96h10.721l16.846 46.928h.219v-46.928h11.158v77.886h-10.501l-17.07-46.819h-.219v46.819h-11.158v-77.886"/></g></svg>