<svg xmlns="http://www.w3.org/2000/svg" viewBox="0 0 792 1224" enable-background="new 0 0 792 1224"><path d="m189.29 1108.61c2.65.526 5.04 1.896-.119 1.216-5.163-.679-5.099-2.253.119-1.216"/><path d="m225.84 1116.93c2.643.606 5 2.318-.156 1.584-5.157-.733-5.05-2.779.156-1.584"/><path d="m206.87 1112.75c2.647.558 5.03 2.061-.133 1.359-5.162-.7-5.08-2.458.133-1.359"/><path d="m638.44 1041.88c.648.686-.776 1.847-2.265 3.253-1.488 1.404-2.476 2.522-3.125 1.836-.648-.687.032-2.384 1.521-3.79 1.488-1.404 3.22-1.987 3.869-1.299"/><path d="m611.61 1067.23c.649.686-.373 1.874-1.862 3.279-1.487 1.404-2.878 2.495-3.526 1.81-.648-.687.033-2.384 1.52-3.789 1.489-1.405 3.22-1.988 3.868-1.3"/><path d="m141.49 1064.92c.667 0 .792.671.792 1.498 0 .828-.126 1.5-.792 1.5-.667 0-.908-.672-.908-1.5 0-.827.241-1.498.908-1.498m.044 6.82c-.66 0-.894-.672-.894-1.5 0-.827.234-1.498.894-1.498.659 0 .779.671.779 1.498 0 .828-.12 1.5-.779 1.5m.726-7.666c-.605 0-1.095-.816-1.095-1.645 0-.827.49-1.498 1.095-1.498.604 0 .951.671.951 1.498 0 .829-.347 1.645-.951 1.645m1.929-5.602c-.312 1.027-.819 1.718-1.397 1.543-.579-.176-.678-1.044-.366-2.072.313-1.025.917-1.823 1.497-1.647.577.175.579 1.148.266 2.176m2.922-5.507c-.958 1.621-1.817 2.816-2.337 2.51-.52-.31-.038-1.746.92-3.369.958-1.62 2.031-2.813 2.551-2.505.521.307-.176 1.743-1.134 3.364m5.906-7.406c-1.731 1.873-3.278 3.278-3.654 2.933-.374-.349.911-2.052 2.644-3.927 1.731-1.872 3.872-3.106 4.247-2.759.376.346-1.505 1.88-3.237 3.753m10.09-7.371c-2.646 1.486-4.657 2.878-4.918 2.495-.257-.387 1.704-1.939 4.211-3.656 1.504-1.029 4.653-2.875 4.911-2.489.261.383-2.558 2.726-4.204 3.65m48.58 44.14c-3.387-1.526-20.17-7.02-31-8.355-8.125-1-6.945-7.08-6.625-8.06.875-2.688 8.08-6.548 22.5-6.938 9.25-.25 22.285-.119 26.438.125 15.406.906 15.917 2.729 15.917 2.729-.583.333-10.854-2.084-21.667 1.291-3.353 1.047-11.767 10.08-6.313 16.06 3.25 3.563 61.19 22.938 61.19 22.938-.459.479-54.751-17.228-60.44-19.79m163.4 45.33c-6.209-1.84-44.3-9.907-56.677-13.532-12.139-3.556-61.721-16.502-60.66-19.801.833-2.583 39.11-1.139 76.72 7.78 34.08 8.08 64.66 25.761 63.906 28.573-.35 1.313-16.542-1.02-23.292-3.02m235.35-141.9c-.353 1.228-5.769 5.223-7.536 6.979-4.01 3.981-8.51 10.296-13.5 14.334-4.03 3.259-8.385 8.909-12.152 11.918-5.583 4.459-10.708 8.75-11.625 9.584-8.2 7.458-31.1 21.09-52.21 38.75-3.584 2.999-8.538 3.354-10.511 2.78-1.316-.383-2.739-1.614-3.25-3.625-.905-3.563-3.465-28.706-5.715-28.706s-6.216 28.657-6.91 32.706c-1.031 6.01-3.655 7.471-4.625 7.875-1.906.795-1.262 1.37-3.477 1.727-3.626.583-3.658-8.318-5.251-8.704s-1.217 9.673-7.05 10.256c-13.508 1.351-16.1.75-35.91 1.991s-54.52-.96-62.48-2.218-40.866-6.06-45.808-6.749-25.864-4.355-31.17-5.616-43.41-10.229-46.75-11.707-13.778-3.879-23.651-3.696c0 0-23.859-.73-30.526.27-6.917.667-21.07 3.151-22.441 3.193 2.845-4.125 6.533-8.957 10.295-13.12 6.814-7.535 21.949-24.07 32.12-33.22 12.896-11.6 24.69-20.25 37.03-27.843 4.333-2.666 11.155-4.178 18.689-7 7.7-2.89 15.03-3.937 20.13-7.839 4.925-3.768 12.5-13.75 20.917-29 3.176-5.756 14.833-21.584 29.667-21.584 9.672 0 21.25 6.104 26.25 8.354 3.411 1.535 6.9 3.517 7.875 4.313s4.804 2.136 6.625 2.188c2.188.063 5.821-1.837 6.875.271 1.75 3.5.268 5.602 2.625 6.5 2.625 1 5.849-7.07 8.625-6.375 2.5.625 1.191 8.091 2.625 8.75 1.813.833 3.542.313 4.417-.875.583-.791 1.928-4.456 4.25-3.875 3.166.792.542 7.082 2.896 8.354 2.813 1.521 3.986-6.197 6.06-5.104 2.375 1.25 1.436 6.761 4.875 8.917 4.188 2.625 5.939-2.174 9.188-.875 6.563 2.625 6.125 8.438 11.06 9.625 2.788.671 3.092-5.932 8.75-4.667 5.313 1.188 2.944 9.04 5.938 9.417 3.438.438 3.917-6.309 8.375-5.188 3.063.771 2.932 3.612 3.213 5.3.164.987 1.851 1.241 2.704.189s2.345-2.359 3.646-6.094c1.292-3.708 3.875-7.375 5.125-7.125 2.451.49 4.93 9.226 6.313 16.406 1.207 6.267 1.388 16.595 1.902 21.17.644 5.716 2.702 23.511 6.41 25.14s3.699-37.969 3.812-43.04c.125-5.666.194-15.09.657-20.292.221-2.479 1.314-6.737 1.74-7.458.541-.917 3.166-3.417 5.166 1.833.239.628 4.669 4.702 10.212 6.961 4.834 1.97 11.626 2.498 12.99 2.991 2.928 1.06 22.987 4.917 38.24 10.899 9.271 3.636 16.17 4.935 26 6.935 5.512 1.121 16.765 6 19.05 8.5 1.83 2-.223 4.167-.816 6.233m-9.562 49.899c.833-2.554 4.811-11.562 7.749-13.62 2.511-1.759 8.934-8.678 9.858-11.407 4.809-14.191 3.26-9.502 10.813-16.776 1.219-1.174 5.159-6.425 5.38-6.646.563-.563 4.646.854 5.459 2.041.65.95 3.037 7.502 5 9.521-.208.34-1.213 1.266-1.502 1.42-4.29 2.288-6.709 8.996-15.271 16.612-9.741 8.665-20.417 18.382-31.343 28.968-.056.054-1.512.967-1.567 1.021 2.372-4.498 5.083-10.09 5.424-11.134m-377.81 82.22c39.502 9.723 86.34 21.971 126.78 31.15 17.987 4.086 33.418 8.261 48.754 11.526 38.909 8.283 63.12 14.324 64.09 14.542 6.537 1.47 25.15 8.626 29.594 6.813 3.815-1.558 22.351-19.662 28.25-26.313 6.9-6.01 21.796-21.293 36.17-34.06 19.282-17.13 35.592-33.35 35.743-33.486 1.521-1.394 7.625-7.852 17.646-17.916l.664-.951c-19.544 18.217-39.16 36.23-56.59 52.52-5.597 5.232-23.18 22.15-36.904 35.812-10.01 9.962-18.504 21.13-22.504 16.966-3.417-3.56 5.818-11.649 16.03-21.622 20.707-20.22 54.793-50.936 56.75-52.5 3.333-2.667 34.693-35.521 37.645-38.32 2.293-2.177 14.594-13.836 25.445-24.948 3.532-3.617 10.129-9.439 14.13-12.439.305-.229 3.75-3.078 3.682-2.02 1.43-.297 3.088-.375 3.489-.339.917.083 3.619 2.57 2.159 4.11-6.252 6.593-11.608 12.312-16.336 17.14-.083.084-.166.169-.249.253-.104.105-.207.211-.311.315l.367-.243c18.423-17.542 36.887-32.68 37.15-32.891 0 0 6.886-7.821 7.803-9.988s1.407-10.495 1.484-11.476-1.275-72.75-1.444-91.45c-.391-43.22-.577-74.67-.577-98.34s-.358-58.54-.249-65.75c.25-16.5.033-24.24.033-33.743s.078-33.2.048-46.999c-.021-9.363.228-62.79.236-63.67.303-29.24 1.891-45.742-8.109-69.49-3.01-7.151-7.255-13.414-15.08-22.527-6.562-7.643-21.14-16.796-29.624-20.447-8.656-3.727-34.927-10.882-34.927-10.882-.188.5-.178.676-.178.676 20.424 5.71 32.579 12.443 39.08 15.505 3.792 1.785 11.387 8.261 14.887 12.1 5.954 6.521 11.792 15.737 16.01 24.24 3.065 6.18 4.734 12.709 5.667 18.333 2.667 16.08 2.04 30.844 1.916 48.917-.018 2.576-1.132 14.661-2.333 29.75-.912 11.457-.065 27.12-1.333 41.75-.756 8.727 2.624 94.37 2.624 95.49 0 4-.25 71.5-.25 86.5s1.229 32.26 2.229 67.26 6.625 46.4 7.25 54.08c.338 4.157.688 9.308.918 14 .196 3.986-.939 7.783-1.272 9.283s-.916 3.333-3.843 6.52c-1.848 2.01-15.649 11.334-17.323 13.05-2.232 2.291-5.362 3.81-5.938 4.375s-3.859 3.38-4.938 4.736c-3.403 4.279-22.688 22.66-24.19 24.826s-25.709 26.542-29.375 29.875-13.75 15.25-15.25 16.25-26.15 26.878-27.75 28.48c-1.125 1.125-9.654 8.635-20 17.27-10.588 8.837-14.886 14.52-16.625 16s-2.625 2.375-3.625 2.5c3.183-3.03 6.251-6.746 7.384-8.11l66.21-69.962 66.54-66.5c1.413-.477 3.84-2.836 4.681-3.677.666-.666 1.378-2.257 2.625-3.625.858-.941 2.321-1.426 2.781-2.854 1.306-4.055 5.157-4.322 2.512-5.711-3.334-1.75-8.105 5.605-7.605 2.855.998-5.487 1.166-4.979-1.417-5.395-.599-.097-3.374-.738-3.851-1.35-4.232-5.423-34.05-13.02-39.628-16.405-14-8.5-39.12-14.321-49-18.01-12.375-4.625-29.25-8.639-35.07-9.975-7.487-1.718-2.181-.819-13.955-3.339-4.336-.928-4.483-8.554-7.733-11.262-3.554-2.961-7.917 6.125-8.092 11.387-.305 9.171-.315 15.11-.595 19.26-.391 5.802-.887 7.69-1.532 13.655-.732 6.77-1.188 8.859-1.563 10.609-1.234 5.759-2.719 6.797-3.344 6.547-1.166-.467-2.506-10.743-3-14.291-.456-3.275-.833-5.167-3.258-16.648-2.518-11.923-5.826-21.02-7.909-21.436s-3.863 13.625-4.099 17.906c-.073 1.334-.766 8.156-2.609 8.219s-1.688-7.323-4.375-8.375c-2.875-1.125-3.5 7.875-8 7-2.589-.503-3.605-6.234-4.22-8.375s-.655-2.875-2.343-2.958c-2.127-.104-2.476 1.104-3.155 2.115-.938 1.396-2.626 5.28-5.407 4.468-3.247-.948-4.328-4.692-4.75-5.333-.781-1.188-.875-2.25-1.25-2.875s-1.302-2.5-2.406-2.875-3.849-.031-4.594.406-2 1.529-3.406 2.219c-1.719.844-2.032.594-3.375.438-1.344-.156-2.768-2.244-2.875-3.03-.102-.741-.594-2.636-.844-3.573s-.104-3.616-1.166-4.054-1.581 1.321-1.959 2.179c-3.75 8.5-5.304 3.274-5.625 1.625-.292-1.5-.083-6.458-1.417-6.958-1.87-.701-2.897 2.436-3.319 3.125-4.639 7.583-5.889 2.958-6.103-.236-.096-1.426.839-6.306-.849-7.326-1.839-1.112-6.095 5.73-6.688 6.604-3 4.417-5.125 1.084-4.813-3.104.113-1.509.433-5.78-1.063-6.313-2.139-.762-4.414 1.645-5.625 1.875-1.313.25-5.707-1.832-8-3.25-4.75-2.938-14.06-7.25-19.625-9.375s-13.95-2.955-19.14-2.955c-2.542 0-8.258.623-12.579 2.293-4.494 1.736-7.565 4.234-8.996 5.211-2.808 1.917-9.94 12.984-11.914 16.03-1.833 2.834-9.667 13.834-21 23.834-6.603 5.826-30.666 13.223-35.5 16.08-5 2.958-16.646 9.229-35 23.25-15.422 11.78-22.989 19.271-32.25 29.25-4.756 5.125-14.758 10.246-21.25 15-12.271 8.986-15.273 23.682-13.404 30.627.328-.088.769-.193 1.179-.018.475.203.796.729.7 1.227-.096.498-.663.695-1.047.573-.063-.021-.126-.031-.189-.047.689 1.354 1.661 2.138 2.845 2.138 2.25 0 6.41-2.317 11.738-3.926-.044-.411-.265-1.375-.155-2.673.125-1.473.244-3.615.808-6.474.713-3.615 3.907-9.461 5.741-12.461s24.375-27.712 29.75-33.587 42.13-35.558 51.983-41.04c3.594-2 12.241-5.228 20.501-8.493 7-2.77 13.675-5.138 16.409-7.696 4.831-4.521 13.96-14.957 19.475-23.23 4.363-6.545 9.16-13.82 13.167-16.834 9.75-7.333 22.613-6.05 22.613-6.05s-12.688.309-21.521 8.142c-3.911 3.469-7.546 6.956-12.379 13.456-2.507 3.372-14.516 22.619-19.974 26.578-5.711 4.143-13.593 4.971-17.674 6.566-3.852 1.506-14.952 6.369-19.49 9.127-3.695 2.245-8.07 4.339-15.908 10.339-12.706 9.732-25.26 18.692-35.6 28.683-7.977 7.709-14.763 16.861-20.9 23.16-6.667 6.839-11.602 13.2-13.819 18.941-2.424 6.277-2.657 12.1-2.495 13.393.703-.079 3.186-.505 3.762-.509 6.963-.041 25.679 4.683 29.593 5.726s18.719 5.246 21.657 6.684 27.723 9.456 34.28 11.581c10.401 3.369 39.583 10.978 64.04 17.788 26.333 7.334 66.38 16.208 73.36 18.819 4.386 1.641 19.419 4.163 37.36 7.937 9.7 2.04 18.914 3.912 21.438 4.424 2.563.52 8.114 1.514 8.114 1.514.137-.104 1.406-1.937 3.959-5.583 1.531-2.188 4.571-6.906 7.125-11.375 6.083-10.646 9.833-41.584 11.833-41.584s2.493 15.37 4.375 26.12c1.75 10 4.125 21.25 4.875 21.5.655.219.848-8.832 1.75-15.375 1-7.25 2.135-22.11 3.625-32.12 2.583-17.35 4.138-35.752 6.167-35.29 1.834.417 2.648 32.705 3.583 39.729.665 4.997 2.771 15.271 4.313 19.5.709 1.944 1.898 6.913 3.354 9.188 2.114 3.302 5.198 2.339 6.708 1.417 6.416-3.917 17.539-16.748 23.11-23.03 8.155-9.198 28.92-36.552 36.35-48.557 1.717-2.775 6.834-7.168 12.595-15.166 4.239-5.886 7.546-14.07 11.933-20.724 3.325-5.04 7.708-8.839 10.517-12.993 2.506-3.704 7.985-13.327 9.06-15.907.18.28-.295 3.548-1.261 8.667-2 6.833-8.363 18.15-11.328 24.08-1.252 2.506-6.608 9.667-9.06 13.985-.387.681-.513 2.995-1.861 5-3.917 5.833-4.02 7.157-4.722 9.562-.542 1.848-4.438 10.05-6.25 14.14-4.473 4.605-8.54 9.164-12.172 13.563-6.093 7.381-13.175 15.695-17.266 20.391-3.7 4.247-10.59 10.05-17.16 16.641-3.849 3.861-7.536 7.64-11.578 11.344-3.442 3.156-6.656 6.214-10.02 9.467-2.969 2.983-5.508 4.872-8.566 2.486-4.688-3.656-6.358-31.04-6.815-34.12s-2.956-26.306-5.507-26.739c-2.205-.375-4.948 28.573-5.369 38.19-.553 12.624-.875 38-3.188 38s-4.368-23.373-5.75-31.28c-.574-3.287-2.735-19.475-4.063-19.906s-7.521 32.07-9 37.25c-1.5 5.25-4.818 11.666-5.068 12.04s3.489 2.393 4.912 1.823c.625-.25 4.674-9.55 6.489-9.947 5.334-1.167 7.889 6.225 8.96 8.896 3.04 7.576 4.04 9.791 6.111 1.188 1.03-4.278 1.97-11.06 7.06-11.636 4.438-.5 3.375 6.938 6.25 6.875 1.606-.035 2.249-2.885 5.937-1.447 1.234.481-.072 3.998-5.562 7.688-2.01.945-3.547 1.773-5.344 3.094-3.722 2.736-13.796.508-17.312.688-4.379.225-7.745.065-15.845-1.843-13.531-3.188-29.749-6.604-32.844-7.25-4.291-.896-48.865-10.897-52.698-11.897s-49.11-11.429-50.94-11.929c-.979-.268-34.35-7.662-39.854-8.919s-29.446-8.56-34.35-9.78-42.41-11.826-46.31-12.727c-3.371-.777-13.396-2.511-18.729-3.178s-10.667-1.083-15-.583c-2.29.265-7.788.524-13.417.666-10.185.256-19.406-1.614-23.07-2.947s-10.761-4.125-13.845-5.666c-3.02-1.508-6.411-6.752-6.792-8.08-1.167-4.084-1.646-9.226-1.5-12 0 0 .705-7.06 1.75-8.75.936-1.517 2.756-7.02 4.386-11.499.667-1.834 1.917-13 2.375-15.04.658-2.932 1.771-17.75 1.813-19.417s1.157-14.08 1.313-15.75 1.083-23.542 1.125-31.5c.049-9.357-.05-37.36.167-43.33.229-6.32 2.219-90.51 3.496-118.86 1.338-29.709.024-75.3.171-98.5.045-7.112.576-18.929 1.089-32.23 0 0 .404-26.679 1.14-50.41.599-19.299 6.471-43.674 2.084-42.15-17.981 6.236-24.314 53.57-23.331 114.24.418 25.783.619 45.686.619 45.686s.74 56.61.422 94.73c-.164 19.693-.423 40.39-.524 61.33-.191 39.873-.32 74.11-.25 107.5.07 33.422-.152 78.33-.122 82.87.104 15.708 16.04 16.708 21.359 17.833 5.762 1.219 13.575 2.771 22.804 4.48 9.832 2.775 21.477 5.519 34.388 8.518 3.122.725 6.318 1.328 9.581 2.108l-9.455-2.276c-14.343-3.413-32.02-7.949-32.701-8.304-1.854-.97-4.08-2.665 3.547-5.49 3.667-1.358 13.894-4.636 20.4-4.111 16.17 1.304 68.791 16.598 71.62 17.598 1.365.481 14.204 2.762 33.02 7.925.999.274 4.443 1.01 6.609 1.511 19.523 4.506 38.709 8.809 42.16 9.712 7 1.833 48.26 9.974 53.606 11.621 8.647 2.666 41.542 9.156 48.594 10.282 2.048.327 35.34 6.834 36.531 7.303 2.676 1.057 6.855 2.613 9.02 5.113 1.548 1.787 2.854 2.041 2.854 3.208s-.095 7.87-14.626 9.808c-1.875.25-13.416-3.513-34.708-8.224-22.392-4.954-52.22-12.852-84.17-19.859-40.759-8.94-85.61-19.836-124.82-29.28l-2.02-.386"/><path d="m569.44 127.66c-2.49-2.873-2.471-10.138-5.479-10.229-3.094-.094-2.712-1.833-4.99-2.188-4.219-.656-3.219-.969-5.563-3.25-2.63-2.56-2.604-10.985-3.156-12.333-1.125-2.75-14.208-9-17.08-8.5-1.863.324-7.691-1.781-9.166-2.688-14.976-9.207-7.572-4.141-29.04-9.333 0 0 1.853 4.947-4.458 5.796-8.792 1.183-11.249-6.233-19.833-9.484-30.08-11.391-89.35-4.708-101.35-3.875-10.888.756-17.709 1.968-20.922 2.354-29.17 3.5-37.28 4.818-62.61 11.984-1.01.285-.838 3.922-5.172 5.422-1.992.689-4.407 1.201-6.172-.172-2.25-1.75-.125 1.432-2.094 2.797-2.309 1.6-2.632-2.396-4.74.344-1.25 1.625-3.365 1.623-4.12 2.078-1.12.677-4.183 7.185-5.297 7.781-3.625 1.942-6.201.1-6.734.484-1.373.989.725.608-2.719 2.563-3.083 1.75-12.02 9.203-14.02 12.578s-3 7.182-1.927 13.37c2.582 14.836 10.248 17.336 12.248 22.17.787 1.902 2.51 19.81 4.988 39.14 2.541 19.819 5.911 42.782 6.777 49.861-.826.069-2.367.338-2.659.484-.119.06.667 1.335 3.329 3.178 11.826 7.902 39.57 15.34 61.58 21.19-21.339-4.182-45.39-10.849-61.25-18.615-.092-.045 3.525 20.362 5.445 38.4.791 7.425.789 22.342.789 22.342-1.18-.458-4.123-3.561-5.383-4.871-3.888-4.04-5.03-8.974-5.03-8.974.444 2.811 1.462 6.605 3.946 9.661 1.49 1.833 3.076 4.147 6.683 6.783 2.632 1.923 13.655 8.217 13.53 8.446-.498.911-13.04-7.05-13.08-6.16 0 0 1.818 15.388 2.042 17.48-1.81-1.748-3.369-3.701-5.067-5.802-3.676-4.549-6.448-11.792-6.448-11.792s.887 4.542 3.637 9.667c1.156 2.154 4.3 5.881 8.163 9.398 2.555 2.71 34.06 32.854 145.85 32.854 32.762 0 76.13-8.606 82.5-12.5 1.767-1.08 1.957-17.443 3.234-38.06 0-1.661-.926-1.703-2.406-1.13-1.301.503-3.26.604-5.03-1.938-1.473-2.114-4.325-2.186-3.751-2.75 2.653-2.603-1.393-2.516-.789-3.278.479-.607 2.642-1.667 2.659-2.042.074-1.561-.813-3.789-.75-5.391.036-.911 4.217-3.327 4.25-4.25.041-1.155-1.435-1.703-1.75-2.833-.796-2.853-.923-6.246-.084-9.167 2.25-7.833 5.922-7.998 7.756-12.331 1.271-3 2.499-13.417.416-14.583s-2.437 1.103-4.567-.44c-2.385-1.728-3.062-8.819-3.063-9.813-.003-2.461.875-2.75.875-3.085 0-.589-6.5 4.083-7-3.667-.229-3.542 5.339-6.162 6.422-11.662s-1.177-4.32-1.255-5.744 5.339-4.507 7.922-8.173 8.375-8.947 6.911-11.6c-.94-1.705-4.078-2.9-4.15-6.233.185-13.782.15-16.503.15-16.503 3.547-.406 8.398-1.167 13.979-2.5-.069-.103-.119-.207-.119-.299 0-.344-.219-.656-.438-.531s-.125.406-.656.125-1.281-.781-1.188-1 .516-.422.266-.625-.531-.031-.391-.25.531-.141.5-.531-.078-1.031-.469-1.328-.953-.516-.781-.828.391-.266.156-.484-.172-.563-.141-.703-.016-.563-.016-.563.297.016.344-.141.25-.703.078-.781-.297-.375-.219-.531.188-.406.203-.578-.172-.359-.266-.469-.125-.188.016-.375.219-.484 0-.5-.375-.328-.359-.578.422-.281.297-.563.109-.234.016-.391-.469-.219-.234-.375.453 0 .422-.266-.109-.422-.281-.594-.063-.406.078-.516.656-.313.641-.078.047.828.266.875.547.266.609.375.516.125.406.297-.641.281-.469.422.547.172.391.266.109.719.266.484.453-.594.25-.859-.359-.703-.344-.875.156-.172.109-.438-.391-.938-.172-.844.625.219.719.391.422.359.594.344.375.203.156.328-.797.266-.531.313.078.203-.047.297.313.156.484-.031.391-.297.266-.047-.031.422.141.344-.031-.656.219-.438 1.391 1.75 1.547 1.766.656.078.766-.094.234-.188.328-.094.359.109.359-.141.188.016.438-.063.344-.359.516-.313.422.063.609-.047.453-.313.438-.094-.188.578-.031.672.422.297.625.031.391-.25.156-.453-.234-.672 0-.609.406-.266.5-.031.453.453.5.234.281-.281.406-.188.563.188.328.25-.188.297-.094.406.25.141.063.328-.125.219.078.313.516.125.594-.125.234-.531.313-.359.188.938.172.984.094.234.219.297.078.281 0 .531-.156.281-.172.531-.375.875-.391 1.141.016.344-.141.563-.297.594-.516.391c0 0-.25.047-.469-.031s-.25-.094-.375.016-.469.281-.438.094.297-.469.094-.406-.516-.063-.516.094.141.328 0 .469-.078.188-.016.453.391.375.484.328.391 0 .328.141.078.844.078 1.047.063.703.094.844.234.156.406.219.281.25.156.391-.094.422.172.469c.17.03.169.104.182.224 16.808-5.316 37.09-15.771 49.584-36.09 1.683-2.738-2.437-10.334-4.062-12.209"/><path d="m212 451.87c-1.773-5.868-1.192-11.839.505-17.875 2.25-8 9.438-16.688 9.438-16.688-.497-.221-5.938 5.25-8.188 9.188-2.036 3.563-2.375 5.625-3 6.5-.303.425-4.438-.875-.938-10.938 5.455-15.682 15.479-30.521 15.06-30.771-.501-.301-10.708 9.875-16.292 21.875-4.495 9.662-5.317 19.521-3.971 29.05.781 5.531 4.962 12.219 6.622 15.03 2.183 3.699 9.766 12.318 12.516 14.25s14.917 18.583 73.75 29.5c24.343 4.517 66.04 10.715 106.5 10.715 62.965 0 109.42-7.122 140.25-18.215 37.971-13.661 54.55-35.32 56.33-39.5 8.709-20.375 6.854-38.19-19.444-57.54 0 0 7.212 5.742 11.361 16.29 4.917 12.5.538 19.1.538 19.1s-1.705-10.35-3.366-15.311c-1.824-5.448-5.943-10.11-8.672-12.879 0 0 8.167 7.339 10.333 33.839.34 4.159-.458 16.792-.458 16.792s3.5-.042 9.813-7.079c-5.101 6.463-13.06 19.662-37.31 33.29-20.229 11.366-48.812 18.907-79.875 23.23-19.875 2.768-46.24 6.42-79.4 6.42-33.724 0-62.931-4.397-79.1-6.903-16.284-2.524-15.227-2.53-32.583-6.339-18.417-4.04-38.3-10.127-49.917-15.286 0 .003-25.26-12.372-30.505-29.747"/><path d="m491.88 955.79c.094-1.57.104-6.891.874-13.479.625-5.351 1.846-10.699 2.25-11.812 1.333-3.667 2.985-8.58 6.617-8.731 5.666-.236 7.716 3.117 10.133 4.7 3.7 2.423 11.256-.171 20.789 2.241 12.18 3.081 26.982 5.5 36.649 8.912 5.775 2.039 18.243 6.04 28.968 9 8.15 2.252 20.362 7.437 22.12 8.437s10.886 4.263 13.388 5.165 12.631 5.315 17.531 6.734c5.877 1.702 16.183 4.396 18.18 8.539 2.375 4.938-7.125 15.188-7.125 15.188s10.438-8.438 9.125-15.438c-1.019-5.434-7.375-7-7.375-7-1.857-.532-6.176-2.23-10.988-3.418s-4.96-1.561-10.227-3.298c-3.732-1.231-6.711-2.464-9.689-3.801-9.829-4.411-25.21-10.392-42.721-16.01-7.597-2.438-16.833-4.467-25.5-7.219-7.386-2.345-16.909-3.914-22.781-6.125-10.625-4-25.08-2.035-27.582-2.535-5.461-1.092-7.23-12.371-13.23-14.59-4.38-1.619-7.448 15.917-8.781 21.08-.516 1.998-.732 5.93-.804 10-.034 1.925-.622 12.975-2.029 13.12s-3.821-9.908-5.765-15.806c-1.695-5.142-4.987-15.7-8.58-15.299-1.241.139-1.954 5.314-4.681 5.146-1.481-.091-3.218-1.256-4.933-1.311-1.844-.058-3.82 1.256-5.75 1.228-2.524-.037-4.998-1.409-7.292-1.425-2.139-.015-3.985.839-5.567.74-.55-.034-1.692.064-2.335-.036-3.094-.488-6.756-2.228-11.267-3.17-2.16-.451-4.833.267-6.893-.198-3.838-.866-7.279-2.589-9.49-3.129-1.097-.269-2.204-.143-2.595-.24-.413-.104-1.446-.895-3.354-1.419-1.637-.449-3.689-.218-5.923-.831-1.979-.545-4.101-2.023-6.2-2.597-2.628-.718-5.224-.624-7.467-1.223-1.999-.532-3.718-1.778-4.933-2.078-.77-.19-1.727-.144-2.227-.145-2.877-.006-14.429-5.281-21.25-6.666s-26.763-7.393-33.833-9c-7.333-1.667-19.795-2.348-25.833.749-9.75 5-9.114 15.1-14.875 21.5-4.272 4.748-6.874 9.851-16.675 19.17-2.359 2.244-5.325 3.951-9.2 6.701-7.96 5.649-27.84 11.03-43.06 19.515-3.987 2.224-17.273 7.697-21.19 10.944-11.667 9.666-20.667 21.416-35.546 37.533-8.121 8.796-13.01 13.358-20.287 19.55-4.942 4.208-10.667 10.334-14 17.334-2.061 4.33-4.458 10.791-4.458 13.958 0 1.75 3.999 3.31 4.167 4.125-.633-3.181-3.093-16.74 8.321-27.553 1.224-1.159 15.864-15.637 22.53-20.97 10.655-8.523 15.241-16.509 19.866-21.384s11.737-10.201 19.09-15.886c8.519-6.582 18.382-13.663 23.82-16.771 24.792-14.167 40.03-9.521 55.867-23.646 10.233-9.13 18.5-32.5 24.5-36.875 1.927-1.405 5.29-5.464 24.875-3.75 20 1.75 37.75 7.25 51.5 12.25.769.279 3.493.596 7.141 1.52 1.59.402 3.356 1.642 5.211 2.104 2.3.574 4.739.384 7.152.987 2.123.531 4.227 1.955 6.199 2.456 2.268.575 4.361.317 6.114.784 2.228.593 2.955 1.476 3.766 1.731.792.25 1.692-.055 2.819.239 1.904.498 5.113 2.191 9.1 3.057 1.998.434 4.689-.31 7.01.13 3.818.724 7.334 2.189 11.405 2.867 2.264.377 5.01-.381 7.333-.207 1.175.088 4.102 1.412 7.667 1.446 1.712.016 3.604-1.308 5.459-1.242 1.799.063 3.702 1.254 5.39 1.399 1.815.157 3.598-2.497 4.97-2.475s2.465.887 3.376 2.119c1.581 2.139 4.377 7.585 5.598 12.541 1.621 6.578 2.412 11.09 3.333 14.417.75 2.708 2.292 2.25 2.688 1.667s1.269-2.14 1.395-4.244"/><path d="m128.55 1072.12c.069.349.116.543.116.543s-.045-.197-.116-.543"/><path d="m664.63 920.5c-.492-.274-1.465-17.279-2.063-39.563-.168-6.271-.028-11.04-.208-18.15-.379-15.01-.606-31.804-1.042-47.729-.856-31.29-3.221-60.42-4.356-73.56-1.062-12.279-2.653-22.472-3.01-29.333-.438-8.513-2.471-19.257-1.68-31.503.396-6.141-.052-13.08 1.251-20 4.03-21.428 7.75-39.25 7.75-39.25s1.445 81.37 2.778 100.14c.613 8.626-1.44 51.763-1.3 96 .11 34.85 2 70.15 1.625 89.44-.187 9.498.519 13.648.251 13.5"/><path d="m440.74 1168.22c2.625.609 4.981 1.839-.143.91-5.121-.928-5.03-2.113.143-.91"/><path d="m419.51 1163.04c2.624.644 4.957 2.062-.168 1.129-5.124-.933-4.995-2.396.168-1.129"/><path d="m400.56 1158.59c2.641.64 4.987 2.49-.171 1.734-5.158-.754-5.03-2.994.171-1.734"/><path d="m381.24 1153.52c2.635.689 4.962 2.746-.191 1.96-5.153-.787-4.995-3.315.191-1.96"/><path d="m362.21 1149.12c2.642.624 4.995 2.412-.163 1.668-5.157-.746-5.04-2.898.163-1.668"/><path d="m343.19 1144.8c2.641.623 4.994 2.406-.163 1.661-5.156-.745-5.04-2.888.163-1.661"/><path d="m322.32 1140.04c2.646.56 5.03 2.069-.134 1.367-5.162-.702-5.079-2.469.134-1.367"/><path d="m303.9 1135.73c2.591.766 4.849 2.35-.23 1.201s-4.872-2.711.23-1.201"/><path d="m283.19 1131.28c2.65.529 5.04 1.908-.12 1.225-5.163-.682-5.098-2.265.12-1.225"/><path d="m284.16 1130.95c2.65.529 5.04 1.908-.12 1.225-5.163-.682-5.098-2.265.12-1.225"/><path d="m265.26 1126.68c2.652.515 5.05 1.839-.114 1.165s-5.106-2.181.114-1.165"/><path d="m245.37 1121.65c2.644.593 5.01 2.249-.149 1.524-5.161-.724-5.058-2.693.149-1.524"/><path d="m168.32 1103.84c2.615.651 4.968 1.743-.128.668-5.092-1.074-5.02-1.95.128-.668"/><path d="m551.62 314.15c.027-.095.042-.147.042-.147-.017.043-.03.092-.042.147"/><path d="m487.95 369.49c26.852-5.872 49.902-14.261 65.17-25.14 11.559-8.232 18.244-18.1 19.538-29.02 1.5-12.667-10.834-26.11-18.17-30.364l.083 1.167c7.084 4.833 25.828 20.21 14.328 39.05-6.486 10.623-19.406 20.425-32.696 26.821l-48.26 17.485zm-47.621-1.49c-8.3.733-23.396 1.727-38.08 1.727-13.79 0-59.75-3.197-68.37-4.713-14.75-.516-37.12-2.141-55.37-9.641 0 0 31 16.792 63.17 21.377 15.783 2.25 34.629 2.796 53.17 2.797 9.08 0 17.602-.472 25.604-.806 26.396-1.1 54.27-4.618 55.896-5.743 3.999-2.769 15.917-9.875 15.917-9.875l-51.917 4.877"/><path d="m570.83 367.83c.021.039.047.083.07.125-.147-.53-.234-.427-.07-.125"/><path d="m654.47 509.57c-2.625-4.625-9.585-12.825-11.283-14.375-2.875-2.625-11.611-7.733-14.625-9.5-3.625-2.125-15.792-5.792-23.75-8.958-6.58-2.618-14.07-2.316-16.04-2.5-3.449-.321-6.667 3.5-6.667 3.5s-.852 2.605-1.75 7.583c-1.062 5.878-3.599 11.965-4.449 13.465 0 0 5.199-8.882 5.949-10.799s3.573-11.755 3.75-11.75c1.331.037-1.259 6.083-1.259 8.521s-.096 5.813-.221 8c-.051.889-1.902 7.912-5.771 14.229-5.647 9.223-13.805 13.375-14.389 15.209-.231.727 6.535 1.541 14.922 10.583 4.61 4.97 7.364 10.705 9.967 15.875 2.141 4.254 5.854 18.05 6.561 21.18 1 4.417 4 15.417 9.916 9.167 2.02-2.129 8.775-36.23 6.5-46-2.833-12.167-12.485-12.6-18.06-20.01-4.493-5.975-4.547-17.01-4.271-17.1l15.688-1.875c7.05.13 28.12 10.317 34.5 14.563 3.062 2.039 17.5 9.688 19.25 31.25 1.944 23.96 2.264 72.06 2.264 72.06s1.895-39.07.236-66.56c-.365-6.05-.574-10.908-1.25-15.375-1.734-11.454-4.5-18.234-5.716-20.376m-60.38 6.405c3.667 3 5 4.833 5.667 6.833s-4.317 8.01-5.15 7.846-4.167-3.5-8-7.167-8-4.667-8-4.667l8.15-14.345c.5 1.334 3.666 8.5 7.333 11.5"/><path fill="none" stroke="#000" stroke-width=".001" stroke-miterlimit="10" d="m217.91 1091.12c6.167 1.834 40.76 11.708 45.594 13.04 0 0 15.414 4.762 33.29 9.271 21.905 5.524 47.22 11.03 48.874 11.396 3 .667 55.833 13.667 57.833 14.167s52.17 12.166 53.5 12.333 16.833 2.667 25 1.167"/><path d="m206.25 1087.44c-.238.545-1.803.031-2.506-.064-.703-.095-1.584-.346-1.459-.731.125-.385 1.313-.657 2.02-.563.703.096 2.187.815 1.948 1.358"/><path d="m189.94 1084.44c-.258.77-2.158.201-3 .133s-1.915-.335-1.784-.878c.131-.541 1.541-1.021 2.387-.953.847.071 2.66.927 2.401 1.698"/><path d="m220.05 1091.56c0 0-.749-.123-1.586-.261-.838-.138-1.525-.663-1.525-.663.051-.31.934-.6 1.772-.462.838.141 1.392 1.073 1.339 1.386"/><path d="m234.77 1095.79c0 0-.881-.169-1.866-.359-.985-.19-1.786-.8-1.786-.8.066-.341 1.112-.621 2.097-.43.985.194 1.622 1.247 1.555 1.589"/><path d="m249.62 1100.07c0 0-.839-.199-1.777-.425-.939-.226-1.71-.729-1.71-.729.056-.233 1.044-.333 1.982-.107.938.227 1.562 1.028 1.505 1.261"/><path d="m265.74 1104.75c0 0-.738-.176-1.563-.374-.826-.198-1.504-.642-1.504-.642.049-.205.918-.293 1.744-.095.824.201 1.373.905 1.323 1.111"/><path d="m280.78 1109.11c0 0-.738-.176-1.563-.374-.826-.198-1.504-.642-1.504-.642.049-.205.918-.293 1.744-.095.825.201 1.374.905 1.323 1.111"/><path d="m295.17 1113.02c0 0-.875-.271-1.542-.438-.823-.206-1.563-.375-1.563-.375.034-.208.946-.396 1.785-.261.838.139 1.354.865 1.32 1.074"/><path d="m310.19 1116.72c0 0-.737-.161-1.563-.359-.826-.198-1.469-.406-1.469-.406.049-.205.977-.4 1.802-.202.826.199 1.28.761 1.23.967"/><path d="m324.72 1120.12c0 0-.722-.161-1.547-.359-.826-.198-1.484-.344-1.484-.344.049-.205.945-.494 1.771-.296.825.2 1.31.793 1.26.999"/><path d="m337.09 1122.95c0 0-.737-.161-1.563-.359-.826-.198-1.484-.344-1.484-.344.049-.205.961-.447 1.787-.249.825.2 1.31.746 1.26.952"/><path d="m352.92 1126.58c0 0-.581-.146-1.406-.344-.826-.198-1.563-.391-1.563-.391.049-.205.93-.416 1.755-.218.826.201 1.264.747 1.214.953"/><path d="m366.2 1129.81c0 0-.675-.146-1.5-.344-.826-.198-1.516-.375-1.516-.375.049-.205.945-.416 1.771-.218.826.2 1.295.73 1.245.937"/><path d="m378.97 1133c0 0-.519-.177-1.344-.375-.826-.198-1.535-.404-1.535-.404.049-.205.918-.293 1.744-.095.825.2 1.185.668 1.135.874"/><path d="m410.16 1140.61c0 0-.737-.176-1.563-.374-.825-.198-1.563-.409-1.563-.409.049-.205.977-.525 1.803-.327.824.2 1.373.904 1.323 1.11"/><path d="m429.42 1145.05c0 0-.799-.192-1.625-.391-.825-.198-1.516-.357-1.516-.357.049-.205.977-.621 1.803-.423.824.2 1.388.965 1.338 1.171"/><path d="m452.42 1150.34c0 0-1.063-.266-1.621-.403-.824-.203-1.566-.347-1.566-.347.026-.209.883-.518 1.725-.411.841.108 1.488.95 1.462 1.161"/><path d="m471.33 1152.86c0 0-.765-.09-1.614-.113-.849-.023-1.62-.105-1.62-.105.005-.211.854-.688 1.703-.664.849.025 1.537.67 1.531.882"/><path d="m163.08 1080.79c1.897.894 12.477 1.666 24.15 3.775 14.996 2.709 31.581 6.743 31.581 6.743s-16.574-4.231-31.563-7.125c-11.428-2.206-21.795-3.067-24.02-4.02-4.02-1.729-5.982-6.57-6.376-8l-.505.151c.592 2.57 2.549 6.512 6.731 8.481"/><path d="m156.32 1072.32l.026-.011c-.009-.041-.027-.09-.036-.131.004.101.053.13.001.142"/><path d="m538.48 1116.75c.561-.47 1.018-.979 1.353-1.472-.53.543-1.038 1.08-1.514 1.595.053-.042.108-.078.161-.123"/><g fill="#fff"><ellipse transform="matrix(.7032-.711.711.7032-659.4 702.85)" cx="512.21" cy="1141.29" rx="6.074" ry="1.376"/><path d="m525.77 1127.57c.542.531-.934 2.898-3.293 5.284-2.36 2.386-4.711 3.888-5.252 3.353-.539-.533.937-2.9 3.297-5.286 2.36-2.386 4.71-3.888 5.248-3.351"/><ellipse transform="matrix(.7033-.7109.7109.7033-640.47 710.35)" cx="530.8" cy="1122.49" rx="6.076" ry="1.376"/><ellipse transform="matrix(.7033-.7109.7109.7033-631.05 714.24)" cx="540.1" cy="1113.09" rx="6.075" ry="1.374"/><path d="m553.67 1099.37c.541.533-.936 2.899-3.296 5.287-2.357 2.383-4.708 3.885-5.251 3.353-.539-.536.938-2.901 3.297-5.286 2.359-2.387 4.711-3.889 5.25-3.354"/><ellipse transform="matrix(.7032-.711.711.7032-612.19 721.95)" cx="558.7" cy="1094.29" rx="6.075" ry="1.375"/><ellipse transform="matrix(.7033-.7109.7109.7033-602.72 725.71)" cx="568" cy="1084.89" rx="6.076" ry="1.377"/><ellipse transform="matrix(.7032-.711.711.7032-593.3 729.6)" cx="577.3" cy="1075.48" rx="6.075" ry="1.374"/><path d="m590.87 1061.77c.541.535-.935 2.901-3.295 5.286-2.361 2.389-4.708 3.886-5.251 3.354-.539-.534.936-2.899 3.297-5.286 2.36-2.387 4.709-3.888 5.249-3.354"/><ellipse transform="matrix(.7033-.7109.7109.7033-574.38 737.1)" cx="595.9" cy="1056.68" rx="6.076" ry="1.375"/><ellipse transform="matrix(.7032-.711.711.7032-564.97 741.06)" cx="605.2" cy="1047.28" rx="6.075" ry="1.376"/><path d="m618.77 1033.56c.541.535-.937 2.9-3.296 5.286-2.359 2.387-4.708 3.888-5.248 3.354-.543-.534.934-2.901 3.294-5.286 2.36-2.387 4.71-3.889 5.25-3.354"/><ellipse transform="matrix(.7033-.7109.7109.7033-546.07 748.64)" cx="623.79" cy="1028.48" rx="6.076" ry="1.375"/><ellipse transform="matrix(.7033-.7109.7109.7033-536.63 752.46)" cx="633.09" cy="1019.08" rx="6.076" ry="1.373"/><ellipse transform="matrix(.7032-.711.711.7032-527.2 756.35)" cx="642.39" cy="1009.68" rx="6.075" ry="1.374"/><path d="m655.96 995.96c.544.533-.934 2.9-3.292 5.285-2.36 2.387-4.71 3.886-5.25 3.353-.54-.535.936-2.901 3.294-5.286 2.361-2.387 4.711-3.887 5.248-3.352"/></g><ellipse transform="matrix(.727-.6867.6867.727-667.4 664.7)" cx="502.17" cy="1171.62" rx="3.706" ry="1.433"/><ellipse transform="matrix(.727-.6867.6867.727-659.2 668.52)" cx="511.09" cy="1163.23" rx="3.705" ry="1.349"/><ellipse transform="matrix(.7272-.6865.6865.7272-650.67 671.57)" cx="519.52" cy="1154.34" rx="3.707" ry="1.61"/><ellipse transform="matrix(.7271-.6865.6865.7271-642.49 675.57)" cx="528.53" cy="1145.95" rx="3.706" ry="1.521"/><ellipse transform="matrix(.727-.6866.6866.727-634.28 679.48)" cx="537.44" cy="1137.47" rx="3.706" ry="1.571"/><path d="m548.98 1126.37c.647.686-.032 2.382-1.521 3.787-1.487 1.404-3.22 1.987-3.869 1.303-.647-.689.033-2.386 1.521-3.79 1.488-1.404 3.22-1.987 3.869-1.3"/><ellipse transform="matrix(.727-.6866.6866.727-617.75 687.07)" cx="555.24" cy="1120.47" rx="3.707" ry="1.71"/><ellipse transform="matrix(.727-.6866.6866.727-609.51 690.91)" cx="564.18" cy="1112.02" rx="3.707" ry="1.709"/><ellipse transform="matrix(.7268-.6868.6868.7268-601.38 695.06)" cx="573.13" cy="1103.57" rx="3.706" ry="1.71"/><ellipse transform="matrix(.727-.6867.6867.727-593.06 698.69)" cx="582.07" cy="1095.12" rx="3.707" ry="1.71"/><ellipse transform="matrix(.7269-.6867.6867.7269-584.85 702.62)" cx="591.02" cy="1086.67" rx="3.706" ry="1.709"/><path d="m602.66 1075.68c.647.688-.171 2.103-1.66 3.508-1.487 1.405-3.081 2.27-3.729 1.582-.647-.688.032-2.385 1.521-3.789 1.487-1.406 3.219-1.987 3.868-1.301"/><path d="m620.55 1058.78c.647.686-.347 1.47-1.835 2.874-1.488 1.407-2.905 2.9-3.556 2.215-.649-.687.033-2.385 1.521-3.789 1.488-1.405 3.218-1.986 3.87-1.3"/><path d="m629.5 1050.34c.648.685-.658 1.902-2.146 3.309-1.488 1.404-2.596 2.465-3.243 1.779-.648-.686.031-2.383 1.52-3.79 1.489-1.404 3.219-1.987 3.869-1.298"/><path d="m646.21 1034.33c.648.686-.771 2.146-2.26 3.553-1.488 1.404-2.48 2.223-3.13 1.537-.649-.688.032-2.384 1.521-3.79 1.487-1.403 3.219-1.987 3.869-1.3"/><path fill="#fff" d="m659.59 500.55c0 0 9.594 11.162 12.383 22.2 5.53 21.892 7.184 49.762 7.215 74.74.03 25.05.808 47.2.726 57.5 0 0 .047-27.26.552-57.755.486-29.378-1.113-61.754-7.281-75.63-6.354-14.287-13.595-21.07-13.595-21.07"/><path d="m237.31 396.59c-1.27-1.351-1.974-2.21-1.974-2.21s.58.834 1.974 2.21"/><path d="m465.73 405.89c17-2 59.879-14.31 76.39-28.07 43.938-36.632 30.14-53.56 30.14-53.56s5.083 12.75-5.917 25.417c-4.331 4.988-13.07 14.815-23 23.17-16.708 14.04-41.24 20.08-45.743 21.704 0 0 1.22-2.312.577-4.243-.541-1.625-1-8.965.188-9.29 22.667-11 39.68-20.559 58.975-37.488-27.664 18.885-77.63 30.542-84.64 32-12.06 2.516-60.44 4.981-86.6 5.148-25.315.162-65.33-4.565-88.83-14.815-15.452-6.74-32.21-13.4-39.917-18.518-41.963-27.859-18.458-50.988-5.833-61.04 0 0 .402-2 0-1.694-31.875 24.375-15.795 54.52-7 69.17 1.759 3.558 8.298 13.622 17.209 23.505 0 0-4.284-.374-7.997-2.873-3.98-2.678-8.649-4.65-12.211-8.4-2.736-2.88-4.884-5.693-5-5.5-.375.625 2.25 9.5 25.5 24.5 11.874 7.66 58.995 25.01 107.12 25.551 66.71.749 88.28-3.687 96.6-4.665m-186.73-4.743c-10.858-2.188-20.39-4.907-29.5-11.519-7.75-5.625-9.423-8.215-15.731-15.822-4.25-5.125-4.905-19.619-4.303-23.05 1.139-6.5 4.335-10.07 4.335-10.07s-10.134 5.317-9.831 27.13c.144 10.32 6.171 18.242 8.796 21.492 1.94 2.402 5.484 4.822 5.484 4.822s-3.266-3.232-4.963-5.194c-4-4.625-7-11.61-7.912-18.681-.869-6.771-.623-16.75 4.952-25.06-2.665 5.558-4.301 20.11 2.173 31.871 5.125 9.313 12.299 17.13 14.875 19.19 5 4 13.5 11.03 21.958 14.567 1.28.536 2.824 1.31 3.651 1.699s4.515 1.9 9.06 3.209c26.428 7.606 60.696 13.167 111.89 13.167 26.985 0 47.68-.384 64.7-1.691-18.355 2.17-39.721 3.45-64.62 3.45-58.756 0-97.16-7.363-122.28-16.55-.457-.123-.91-.235-1.375-.375-19.883-6-29.359-13.487-33.06-17.14 2.836 3.01 8.506 8.49 15.549 12.391 9.699 5.372 16.14 7.769 16.14 7.769.167 1.917-2.333 10.667-2.417 13.08s2.583 13.25 2.417 15.792c-.09 1.372-13.938-4.208-19.625-7.75-5.955-3.708-12.224-7.748-17.292-15.208-6.655-9.798-2.514-24.479-2.67-24.604s-3.664 6.5-3.976 13.938c-.104 6.417-1.261 19.18 6.313 32.5 2.813 4.948 6.02 8 11.583 13 6.945 6.238 19.294 11.818 28.651 14.938 10.682 3.562 21.01 8.228 48.18 12.395 17.58 2.697 47.17 6.179 71.833 6.833 62.833 1.667 83.67-3.167 120.83-15.333 27.829-9.11 37.31-20.496 42.667-24.5 4.834-4.167 9.03-10.04 9.854-10.893 4.451-4.603 7.771-9.362 9.867-13.215 10-18.375 9.216-34.475 7.278-43.23-2.433-10.987-6.79-18.736-7.5-20 .298 1.074 2.343 7.703.431 17.5-1.449 7.424-1.086 12.12-6.22 24.03-2.462 5.708-7.711 11.396-8.95 12.782-23.01 25.727-61.878 36.419-61.878 36.419-.054-.054 1.525-3.243.43-4.886-.375-.563-.396-1.847-.396-1.847 10.417-4.75 42.08-15.328 56.75-34.912 9.824-13.12 16.413-31.97 17.777-42.33-1.166 2.583-5.438 8.667-9.659 14.06-7.04 9-21.795 21.358-52.33 30.814 23.21-8.807 43.512-23.01 49.745-30.828 5.152-6.462 9.105-11.888 10.214-13.712s2.21-5.02 2.633-5.917c2.143-4.992 5.2-14.13 5.2-22.667 0-13.5-6.5-18.75-6.5-18.75 6.25 8.08 6.298 16.871 2.751 28.75-3.334 11.167-10.167 21.333-26.26 33.07-22.389 16.321-80.916 24.721-106.4 26.12-12.1.666-28.341.294-60.841.36-56.996.115-98.25-10.552-102.5-11.408m268.17 51.856c-12.667 10.25-27.12 17.958-36.14 21.4-13.81 5.271-48.52 15.6-112.02 15.6-48.5 0-80.65-8.259-93.96-10.946s-26.11-6.833-26.11-6.833c-2.496-.68-5.162-1.783-7.662-2.6-1.584-.568-6.673-2.31-9.819-4.04-13.787-7.582-18.422-11.98-24.408-20.916 4.384 5.502 11.188 10.248 17.83 13.882 11.792 6.452 18.276 8.773 30.02 12.916 0 0 8.06 2.507 13.293 3.757s13.927 3.311 17.323 3.811 36.912 10.1 83.24 10.09c55.06-.0001 88.14-7.261 116.08-19.542.816-.359-13.863 3.474-29.416 6.417-18.5 3.5-33.831 3.774-33.831 3.774s23.19-2.641 28.08-3.69c28.334-6.083 41.959-10.04 47.834-13.417 28.616-16.439 43.624-35.12 43.874-35.04.759.254-9.356 13.356-24.21 25.375m34.458-57.5c-3.25 24.25-14.958 31.625-30.625 44.625-15.495 12.857-31.625 20.12-55 24.875-32.31 6.566-67.834 7.58-67.834 5.844s46-3.129 63.834-8.962c31.3-10.237 44.07-17.17 59.5-28.715 6.781-5.073 16.935-14.15 21.17-24.17 5-11.833 4.927-30.33 3.708-39.75-.128-.992 6.861 14.23 5.25 26.25"/><path d="m226.08 407.49c.047-.616.077-.996.077-.996s-.095.31-.077.996"/><path d="m551 316.75c0 0-2.75 10.625-12.25 18.625s-28.375 15.813-28.375 15.813 22.792-7.02 33.375-19.313c7.948-9.231 7.25-15.12 7.25-15.12"/><path d="m534.69 175.44c.698-.395 2.333-.313 2.563.458s.521.979.417 1.417.166.604.271.75.292 1.688.042 1.958-.729 1.25-.604 1.583-.167.625.188.625.688-.25.938.125.141.942-.219 1.396-2.047 2.328-2.078 2.453.344.188.875-.391.828-.281.156.391-.672 1.016-.891 1.297-.406.234-.406.594-.359.563-.766.547-.703-.156-.922.359-.234 1.078-.234 1.438.203 1.75-.391 1.969-1.141.047-.984.578.109.516-.063.641-.328.266-.234.453.109.359-.266.953-2.098 1.698-2.827 2.281-.959.979-.646 1.333.791.958.375 1.25-1.396 1.063-1.771 1.229-.729.271-.354 1.458.604 2.437.563 2.896-.0001 1.542.041 1.917-.166.583-.083 1.104.417.771.354 1.146.167 1.104-.75 1.396-.896.542-.979.667-.5.687-.938.708-1.313-.083-1.563.167-.146.541-.396.833-.418 1.417-.271 1.625.333.438-.125.646-.916-.417-1.604.396-.167 1.188-.604 1.667-.688.792-1.104.375-.624-1.104-1.291-.625-.854 1.042-1.5.625-.604-.516-.792-.344-.547.313-.938-.016-.656-.469-.656-.813.125-.422-.25-.203-.828.141-.797-.188-.078-1.188-.297-.859-.234.719-.359.156-.047-1.125-.469-1.031-.688-.406-.609-.063.313 1.125-.047.906-.422-2.02-.453-2.219.328-2.02.516-2.359 1.063-1.844 1.266-2.02c0 0 1.438-1.813 1.875-2.391s.813-.469 1.047-3.078.703-5.766.109-6.641-1-1.563-1.063-2.031-.906-2.094-1.281-2.594-.656-1.594-.844-2.094-.563-1.344-.906-1.656-.5-2.156-.563-2.781-.219-1.25-.813-1.188-1.656.531-2.438.156-1.344-1.531-1.563-2.063-1.188-5.844-1-6.438 8.844 1.469 8.844 1.469.844.406 1.219.844.781 1.094 1.031 1.063.281.219.25.438.375.875.969 1.031.656.5 2.156.5 1.156.063 1.281.375 1.25 1.781 1.406 1.844.313.688.469.813.5.375.563.625.656.125.438.438-.469.875-.438 1.219-.094.563.094 1.219.109.813.047 1.031-.438 1.375-.219 1.578-.203.438-.156.672.219 1.516.375 1.703.734 1.031 1.188.438.359-1.219.75-1.344.359.25.547-.125.859-1.563.844-1.781.672-1.609.828-1.703-.125-.594-.141-.969.422-.016.719-.406 1.203-1.656 1.625-1.781.516.047.734-.172.984-.875 1.328-.969.359-.422.031-.703-.281-1.219-.234-1.516.047-1.25-.172-1.516-.313-3.03-.031-3.188.563-.922.984-1.156 1.016-.109 1.406-.25.311-.358.671-.561"/><path d="m534.56 275.69c.779-.06 1 .813 1.969.813s3.531-1.063 4.656-2.063 2.281-2.281 2.906-3.094 2.938-4.188 3.219-4.375.875-1.719 1.156-2.281 1.313-1.406 1.531-1.75.063-.625-.25-.438-1.156.781-.875.344.844-2.375.594-2.188-2.781 2.656-2.969 2.188-.156-1.313.125-1.469-.141-.578-.469-.047-1.141.547-1.031.25 1.047-1.719.969-1.984-.313-1.047-.063-1.297.406-.688.484-.984 1.203-1.484.75-1.594-1.359.781-1.781 1.094-1.391 1.516-1.438 1.109.031-1.359.125-1.766.438-1.938.297-2.172.266-1.906.375-2.141.625-1.344.625-1.594.422-1 .609-1.328.484-.891.422-1.125-.234-.688-.328-.797-.141-.875 0-1.094.859-1.484 1.016-1.656.578-.828.828-.906.891-.781.922-.938.094-2.344.234-2.531.828-.609.891-.797.359-.469.641-.531.281-1.844.234-2.063.078-.609-.5-.344-.797.406-1.25.5-.594.047-1.141.563-.875.75-1.063 1.156-.328 1.031-.875 1.313-1.375.875-1.484.688.219-.75.406-.906-.047-.484-.234-.375-.391.484-.609.516-.891.188-1.094.328-.75.422-1.078.563-.531.406-.641.219.078-.281-.016-.609-.578-.75-.844-.953-.813-.297-1.109-.234-.641.016-.984.141-.219.359-.422.406-.734.078-.906.219-.438.313-.703.484-.609.75-.703.844-.563.516-.625.719c0 0 .141.219.031.422s-.406.422-.453.969-.094 1.188.031 1.609.328.875.422.984.047.547.031.813.234.266.25.5-.078.875-.172 1.156-.094.609-.141 1.016-.063.875-.016 1.156-.125.422-.141.828.063.922.141 1.141.234.531.234.75-.109 1.875-.344 2.172-1.016 1.578-1.219 2.047-.875 2.031-1.047 2.484-.688 2.469-.953 3-.438 1.609-.578 1.844-.516 1.781-.625 2.063-.359 1.266-.641 1.641.047.656-.484 1.094-.922.5-1.234.969-.453.703-.594.906-.297.578-.344.906-.078.547.172.891.797.484.656.703-.5.797-.438 1.141.016.859 0 1.047 0 .469.203.703.719.953.984 1.078.641.422.781.609.297.469.578.578 1.078-.25 1.266-.547 1.016-.766 1.234-1.125 1.047-.797 1.25-1.063.457-.503.661-.518"/><path d="m527.56 311.39c.027.3.344.281.625.359s.172.094.25.609.078 1.172-.125 1.266-.266.078-.156.219.078.375-.188.719-.469.344-.625.188-.609-.234-.453-.047.453.609.75.672.531.203.547.563.203.813.031 1.109-.219.375-.156.641.172.203-.078.531-.438.156-.391.484.266.406.016.688-.547.594-.797.828-.094.328-.203.422-.125.234-.344.453-.203.328-.328.578-.172.234-.563.469-.531.344-.922.516-.875.453-.906.75.156.719.219.906.219.156-.203.328-.484 0-.781.094-.672.359-.766.578-.094.641-.422.906-.297.516-.922.609-.625.094-.719.266-.016.594-.375.594-.203-.375-.516-.016-.281.438-.344.641-.156.563-.422.422-.313-.047-.281-.328.281-.5-.234-.25-.297-.016-.375.266-.531.531-.5.203 0-.531-.141-.703-.141-.141-.125-.563.125-1.219.281-1.188.203-.203-.016-.484-.516-.328-.75-.656-.594-1.016-.25-.953c0 0 .625-.031 1 .125s.938.563 1.016.172.25-1.094.063-1.297-.469-.719-.328-1.031.672-.359.625-.547-.094-.984.094-1.109.375-.25.063-.516-.094-1.078.281-1.031.813.281.922.141-.016-.891.063-1.063.688.016.625-.297.172-.641.172-.641.172-.359-.094-.219-.469.578-.703.375-.172-.75 0-.766.516-.031.469-.281.203-.813.484-.828.203.25.406.266.641-.25.313-.453-.594-.469-.813-.406-.422.313-.656 0-.172-.516.047-.672.844-.938.516-.953-.359.391-.516-.016-.094-.594.016-.906.406-.438.484-.734.172-.5.359-.281.359.563.297.703-.156.438.031.438.234-.063.234.234.047.422.156.422c0 0 .103.028.031.219-.141.375-.359.703.031.703s.922.297.813-.031-.703-.281-.516-.516.281-.656.438-.438.313.813.469.406.203-.656.391-.578.453.188.656-.031.609-.328.641-.125.281.547.609.313.828-.703.906-1.047.766-.688 1.063-.875.797-.469.75-.141-.266.451-.25.623"/><path d="m563.23 202.68c.163-.236 1.391-1.469 1.359-1.688s.047-.969.219-1.203.766-1.25.5-1.219-.5.188-.188-.516.281-1.031-.016-.922-.703.797-.594.328.781-.938.813-1.125.234-.469.297-.609.609-.953.234-.922-1.109.547-.938.203.344-.453-.156-.484-1.234.469-1.5.719-.422.391-.625.406-.672.453-.875.859-.484 1.016-.641 1.313-.109.594-.188.656-.484.406-.516.797-.266.859-.297.953-.063.375 0 .734.047 1.344-.063 1.547-.625.797-.719 1 .047.688-.172.859-.141.969-.063 1.344.609.031 1.328-.828.969-.344.734-.172-.438.688-.234.938.891.484 1.016-.125c0 0-.016-.984.125-1.125s.469-.297.672-.688.348-.827.488-1.03"/><g fill="#fff"><path d="m129.82 580.37c-4.594-1-10.203 7.547-16.703 26.797 0 0 9.195-25.773 15.25-24.512 6 1.25 1.823 10.465 3.385 22.34 0 0 3.052-23.54-1.932-24.625"/><path d="m126.92 591.4c-3.992-.482-7.849 3.597-10.168 11.588-2.257 7.775-5.265 25.693-7.508 34.676 0 0 5.286-24.08 8.827-35.667 2.118-6.928 6.05-9.37 8.282-8.676 4.315 1.343 2.677 18.563 4.26 28.15 0 0 1.994-29.379-3.693-30.07"/><path d="m123.85 604.65c-4.375-.813-7.04 6.988-9.748 16.271-2.27 7.771-4.563 29.479-5.313 41.4 0 0 2.852-30.12 6.394-41.707 2.118-6.928 4.642-13.353 7.981-13.09 5.586.447 5 24.896 7 37.646.0001 0 .436-39.27-6.317-40.521"/><path d="m121.75 620.62c-5.136-.32-7.198 10.51-8.19 18.25-2.623 20.458-6.03 137-4.343 148.62 0 0 2.243-129.31 5.512-148.46 1.222-7.158 3.301-15.321 6.627-14.928 6.581.779 5.646 41.13 7.646 55.635 0 0 1.436-58.58-7.252-59.12"/><path d="m277.5 220.5c-.083.417 20.25 10 44.25 12.5s33.33 2.917 33.25 2.5-24-1.995-42.5-5.495-34.917-9.922-35-9.505"/></g><path d="m251.44 287.56l-.014 1.104c-8.208 3.083-15.358 16.833-15.358 16.833-.299.702 6.05-12.688 15.372-17.937"/><path d="m554.65 287.64l.014 1.104c8.208 3.083 15.526 15.197 15.526 15.197s-5.915-10.884-15.54-16.301"/><path d="m388.75 521.26c0 0 40.654.297 72.42-2.422 34.08-2.917 51.33-8.84 69.21-14.878 2.113-.714 35.625-15.635 35.625-15.635-44.25 19.18-76 23.273-94.46 23.548-14.264.213-59.04 1.089-65.958 1.089s-45.667-.406-53.08-.406-28.25-.542-31.25-.625c-7.01-.195-25.09-2.327-29.25-2.95-2.533-.38-4.933-.759-7.207-1.15 16.457 4.547 47.666 9.556 76.39 12.03l27.564 1.402"/><path d="m490.17 538.67c.083-.417 15.166-5.5 31.624-14.488 6.147-3.357 5.316-2.744 7.167-4.917 1.651-1.938.769-12.5 1.132-14.244-13.84 5.232-38.983 12.1-68.26 14.234-35.709 2.604-62.63 2.643-64.68 2.643-19.902 0-42.563-1.708-56.769-3.311-32.15-3.629-54.601-9.414-66.22-12.953-2.267-.576-4.376-1.197-6.293-1.898-4.909-1.797-18.441-5.861-29.19-12.517-8.687-5.383-12.354-9.216-20.937-19.633 0 0 6.833 12.667 13.833 17.833 8.04 5.939 30.18 15.11 31 15.409 4.096 1.476 3.259 3.333 2.675 4.901-.538 1.443-1.021 2.316-1.891 4.099-.725 1.485-1.421 3.599-3.395 5.508s-7.731 5.372-13.43 4.842c-7.396-.688-20.11-.647-25.84-12.884-4.055-8.666-4.204-15.674-4.204-15.674-7.5 4-17.906 12.918-26.591 19.37-10.242 7.608-16.696 13.935-21.21 18.452-4.167 4.167-11.09 14.07-15.365 21.635-2.833 5.02-8.856 17.582-10.877 24.673-7.11 24.941-6.588 23.493-7.64 32.566-.783 6.755-1.48 19.688-1.418 30.866.057 10.262.036 100.22.938 100.22 1.25 0 3.167-56.5 3.333-83.5.091-14.724 2.194-35.12 6.533-47.95 3-8.875 15.997-30.626 19.302-34.736 4.999-6.214 10.88-13.797 16.531-19.731 4-4.201 8.681-8.77 12.808-12.293 4.669-3.986 9.349-7.784 13.902-11.04 7.574-5.408 15.609-9.675 18.619-10.879 0 0 .936.331 2.425.81-4.066 1.219-12.944 5.524-30.3 20.239-27.346 23.19-47.49 52.927-52.987 76.68s-4.907 64.968-4.752 65c.549.151-1.79-52.04 15.71-85.8 17.5-33.75 43.05-52.3 51.11-57.713 13.743-9.232 25.873-15.07 28.895-15.855 0 0 11.646.071 14.919-.51 3.883-.689 6.197-2.549 9.697-2.133.808.422.417 2.175.667 3.175 0 0 18.833 16.333 67 22.917 10.814 1.478 28.737 5.845 73.25 5.845 64.75 0 86.63-7.204 93.25-9.347 19-6.153 31.646-15.837 32.5-16.403 2.25-1.491 5.594-8.04 6.563-8.928l11.188-9.07c-13.781 8.5-10.394 6-20.542 11.917-11.709 6.818-33.875 14.984-33.792 14.568m-32.792 9.234c-6 .75-15.11 1.195-14.625.363.25-.43 12.844-1.322 15.714-1.791 2.798-.457 13.744-2.146 13.744-2.146.214.978-8.833 2.824-14.833 3.574"/><path d="m216.65 484l-.148 6.292c0 0-12.625 3.088-43.75 28.713-11.255 9.266-42.25 41.662-48.75 57.995 0 0 2.302-15.339 49.802-61.33 16.256-15.741 42.846-31.666 42.846-31.666"/><g fill="#fff"><path d="m277.5 220.5c-.417.333 6.667 3.583 8.833 4.25s4.273 1.188 5.44 1.688 2.227 1.116 5.144 1.532 8.167 1.864 10.167 2.614c0 0 7.917 1.583 9 1.75s5.5 1 6.917 1.5 4.5 1.025 5.583 1.192 5.5 1.308 6.25 1.391 3.25.502 4.333.836 5.917 1.081 9.417.164 6-1.333 6.083-1.833-11.727-1.289-13.894-1.455-6.606-1.415-8.19-1.498-4.917-.472-6.083-.389-6.5-1.107-8.5-1.107-6.917-1.801-9.667-2.468-5.25-.865-6.333-1.199-5.416-.833-6.833-1.75-6.697-2.226-7.947-2.476-4-1.47-5.167-1.47-4.136-1.605-4.553-1.272"/><path d="m321.13 293.62c-.899-.386-1.567-1.515-2.02-1.095-.452.421-.872.298-1.034-.057-.16-.354-1.151-.35-1.746-.062-.595.288-1.494.088-2.326-.54-.833-.626-2.646-1.631-2.498-2.211.149-.58 1.749-4.383 2.702-4.175.956.208 2.729 3.144 3.833 3.103 1.103-.042 5.882-.055 6.83.536.947.591 2.261 1.626 3.189 1.666.925.039 3.357 1.967 3.445 3.463.088 1.495-1.237 3.258-2.182 2.996-.947-.263-2.211-.577-2.523-.352-.311.225-2.988-.866-3.542-1.172-.551-.31-1.719-1.925-2.129-2.1"/><path d="m293.2 303.98c1.06.785 1.62.609 2.25.803.63.194 1.171.14 1.712.085s2.306-.408 1.97.414c-.335.821-.872 1.083-1.536 1.182-.666.099-1.999 1.068-2.247 1.158-.248.089-2.492.475-2.767.293-.275-.182-1.434-.676-1.806-.542s-1.052-.393-1.416-.823c-.364-.429-.481-.948-.232-1.037.248-.089.154-.546.207-.985.051-.439 3.483-.831 3.865-.548"/><path d="m262.62 268.25c.712 0 .25-1.375.75-1s1.375 2.25 1.75 2.563 1.25 4.063.938 4.25.625 2.25 1 2.688.563 4.375 1.063 4.313 1.438 3.688 1 3.875-.75 1.5-.75 1.813-.938.625-1.313.188-1.188-1.688-1.5-1.375-1.75.688-1.875.375-1.313-.438-1.563-.125-1.708-16.537-1.708-16.537 1.276 1.938 1.458.975c.151-.801.375-2 .75-2"/></g></svg>