<svg xmlns="http://www.w3.org/2000/svg" xmlns:xlink="http://www.w3.org/1999/xlink" viewBox="0 0 800 1102.251" enable-background="new 0 0 800 1102.251"><defs><path id="2" d="m0 .251h800v1102h-800z"/><path id="3" d="m561.5 461.96c25.02-21.03 19.03-39.77-13.37-41.845-32.398-2.077-78.939 13.291-103.96 34.33-25.01 21.03-19.03 39.768 13.37 41.845 32.398 2.078 78.941-13.291 103.96-34.33"/><clipPath id="0"><use xlink:href="#2"/></clipPath><clipPath id="1"><use xlink:href="#3"/></clipPath></defs><path fill="#fff" d="m0 .251h800v1102h-800z"/><path fill="#231f20" d="m432.75 486.3c0 0-.462 1.111-.989 2.392-.543 1.301 2.583-.803 2.583-.803l-1.594-1.589"/><g clip-path="url(#0)"><path fill="none" stroke="#c71e28" stroke-width="7.423" stroke-miterlimit="10" d="m-17.39-23.06l977.11 977.11" id="4"/><path fill="none" stroke="#c71e28" stroke-width="7.423" stroke-miterlimit="10" d="m-17.39-129.06l977.11 977.11"/><use xlink:href="#4"/><g fill="none" stroke="#c71e28" stroke-width="7.423" stroke-miterlimit="10"><path d="m-17.39 82.937l977.11 977.11"/><path d="m-17.39 188.94l977.11 977.11"/><path d="m-17.39 294.94l977.11 977.11"/><path d="m-17.39 400.94l977.11 977.11"/><path d="m-17.39 506.94l977.11 977.11"/><path d="m-17.39 612.94l977.11 977.11"/><path d="m-17.39 718.94l977.11 977.11"/><path d="m-17.39 824.94l977.11 977.11"/><path d="m-17.39 930.94l977.11 977.11"/><path d="m-17.39 1036.94l977.11 977.11"/><path d="m-17.39-235.06l977.11 977.11"/><path d="m-17.39-341.06l977.11 977.11"/><path d="m-17.39-447.06l977.11 977.11"/><path d="m-17.39-553.06l977.11 977.11"/><path d="m-17.39-659.06l977.11 977.11"/><path d="m-17.39-765.06l977.11 977.11"/></g></g><g fill="#fff" stroke="#231f20" stroke-width="2.699" stroke-miterlimit="10"><g stroke-linejoin="round"><path clip-path="url(#1)" d="m561.5 480.77c25.02-21.04 19.03-39.77-13.37-41.847-32.398-2.078-78.939 13.291-103.96 34.32-25.01 21.03-19.03 39.769 13.37 41.846 32.398 2.078 78.941-13.29 103.96-34.32z"/><path d="m526.16 554.96l-100.89-6.46-100.9-6.47 77.9-65.5 77.9-65.51 100.89 6.47 100.9 6.47-77.9 65.5z"/><path d="m562.09 486.77c25.13-21.13 19.12-39.944-13.428-42.03-32.54-2.085-79.29 13.35-104.41 34.478-25.13 21.13-19.11 39.945 13.427 42.03 32.539 2.086 79.29-13.349 104.41-34.476z"/><path d="m526.16 530.34l-100.89-6.47-100.9-6.47 77.9-65.5 77.9-65.5 100.89 6.47 100.9 6.46-77.9 65.5z"/><path d="m562.09 462.14c25.13-21.13 19.12-39.944-13.428-42.03-32.54-2.086-79.29 13.35-104.41 34.478-25.13 21.13-19.11 39.944 13.427 42.03 32.539 2.086 79.29-13.349 104.41-34.476z"/></g><path d="m432.25 487.71l-81.04-81.04 126.75-33.97 126.75-33.96-28.1 104.86"/></g><path fill="#231f20" d="m575.61 442.19c0 0-.424 1.455-.952 2.734-.541 1.302 2.576-1.096 2.576-1.096l-1.624-1.638"/><path fill="none" stroke="#c71e28" stroke-width="7.423" stroke-miterlimit="10" d="m680.79 287.86l-355.26 355.26"/><path fill="#fff" d="m87 578.25h543v180h-543z"/><path d="m155.86 660.89h-15.338v-46.01h-12.678v-12.991h40.693v12.991h-12.677v46.01"/><path d="m186.03 595.93v29.894h.157c1.669-2.191 3.522-3.807 5.556-4.852 2.035-1.043 4.46-1.565 7.277-1.565 2.556 0 4.774.405 6.652 1.212 1.878.81 3.443 1.957 4.695 3.444s2.191 3.261 2.817 5.321c.626 2.062.939 4.371.939 6.926v24.572h-14.243v-20.581c0-1.147-.065-2.295-.196-3.444-.131-1.147-.418-2.178-.86-3.091-.444-.912-1.096-1.644-1.957-2.191-.861-.548-1.996-.822-3.404-.822s-2.582.274-3.521.822c-.939.547-1.709 1.279-2.309 2.191-.6.913-1.017 1.944-1.252 3.091-.235 1.149-.353 2.296-.353 3.444v20.581h-14.241v-64.952h14.243"/><path d="m263.25 643.2h-29.972c0 2.922.744 5.14 2.23 6.651 1.487 1.514 3.717 2.27 6.691 2.27 1.513 0 2.83-.274 3.952-.822 1.122-.548 2.074-1.499 2.856-2.856h13.695c-.575 2.348-1.526 4.396-2.856 6.143-1.33 1.749-2.922 3.184-4.774 4.305-1.852 1.123-3.874 1.956-6.06 2.504-2.191.548-4.436.822-6.73.822-3.339 0-6.43-.47-9.274-1.409-2.843-.939-5.295-2.309-7.356-4.108-2.062-1.8-3.678-4.03-4.852-6.691-1.174-2.66-1.761-5.712-1.761-9.156 0-3.338.548-6.339 1.643-8.999 1.096-2.661 2.623-4.904 4.578-6.73 1.957-1.826 4.291-3.234 7-4.226 2.712-.991 5.713-1.487 9-1.487 3.495 0 6.599.522 9.313 1.565 2.711 1.045 5.01 2.531 6.886 4.46 1.878 1.931 3.313 4.266 4.304 7s1.487 5.83 1.487 9.273v1.487m-13.226-8.217c-.365-1.929-1.318-3.469-2.856-4.617-1.539-1.147-3.274-1.722-5.204-1.722-2.087 0-3.913.536-5.478 1.604-1.565 1.07-2.557 2.648-2.974 4.734h16.512"/><path d="m132.38 674.38h21.756c4.121 0 7.994.756 11.621 2.269 3.625 1.514 6.795 3.6 9.508 6.261 2.712 2.661 4.864 5.791 6.456 9.391 1.591 3.6 2.387 7.461 2.387 11.581 0 4.176-.796 8.05-2.387 11.622-1.592 3.574-3.744 6.69-6.456 9.351-2.713 2.661-5.896 4.748-9.547 6.261-3.653 1.514-7.513 2.271-11.582 2.271h-21.756v-59.01m15.339 46.01h3.443c2.294 0 4.473-.325 6.534-.979 2.06-.651 3.86-1.644 5.399-2.974 1.538-1.329 2.765-3.038 3.679-5.125.912-2.086 1.369-4.565 1.369-7.436 0-2.66-.418-5.01-1.251-7.04-.835-2.035-1.996-3.755-3.482-5.165-1.487-1.408-3.261-2.477-5.322-3.208-2.062-.73-4.317-1.096-6.769-1.096h-3.6v33.03"/><path d="m230.84 715.7h-29.972c0 2.923.744 5.139 2.23 6.651 1.487 1.514 3.717 2.271 6.691 2.271 1.513 0 2.829-.275 3.952-.822 1.121-.548 2.074-1.499 2.856-2.857h13.695c-.575 2.35-1.526 4.397-2.856 6.144-1.331 1.749-2.922 3.184-4.773 4.305-1.853 1.123-3.873 1.956-6.06 2.504-2.19.547-4.435.822-6.73.822-3.339 0-6.43-.47-9.273-1.409-2.844-.939-5.295-2.308-7.356-4.108-2.061-1.8-3.677-4.03-4.851-6.691-1.174-2.659-1.762-5.712-1.762-9.155 0-3.338.549-6.338 1.644-8.999 1.096-2.661 2.622-4.903 4.578-6.73 1.956-1.825 4.291-3.234 7-4.226 2.712-.99 5.712-1.487 9-1.487 3.495 0 6.6.522 9.312 1.565 2.712 1.044 5.01 2.531 6.887 4.46 1.878 1.931 3.313 4.265 4.304 7 .991 2.738 1.487 5.829 1.487 9.273v1.485zm-13.224-8.216c-.366-1.931-1.319-3.47-2.857-4.618-1.54-1.147-3.275-1.722-5.204-1.722-2.087 0-3.913.535-5.478 1.604s-2.557 2.647-2.974 4.735h16.513"/><path d="m265.24 706.31c-1.044-.782-2.191-1.447-3.443-1.995-1.252-.548-2.557-.822-3.913-.822s-2.634.248-3.834.743c-1.201.497-2.244 1.188-3.131 2.074-.888.888-1.578 1.917-2.073 3.091-.496 1.174-.743 2.466-.743 3.874 0 2.923.925 5.296 2.778 7.121 1.852 1.826 4.265 2.739 7.239 2.739 1.252 0 2.516-.235 3.795-.704 1.278-.471 2.387-1.148 3.326-2.035v12.05c-1.565.783-3.196 1.354-4.891 1.722-1.696.363-3.404.548-5.125.548-2.974 0-5.779-.522-8.413-1.565-2.635-1.044-4.958-2.504-6.965-4.382-2.01-1.879-3.588-4.096-4.735-6.652-1.147-2.555-1.722-5.348-1.722-8.373 0-3.234.574-6.195 1.722-8.882 1.147-2.687 2.739-4.982 4.774-6.887 2.035-1.904 4.421-3.391 7.16-4.461 2.739-1.068 5.674-1.604 8.805-1.604 1.668 0 3.298.196 4.89.587 1.591.391 3.091.978 4.5 1.761v12.05"/><path d="m286.75 733.39h-14.243v-64.953h14.243v64.953"/><path d="m338.79 733.39h-14.242v-4.462h-.157c-1.252 1.984-3 3.443-5.243 4.383-2.243.939-4.539 1.409-6.886 1.409-2.974 0-5.701-.576-8.178-1.722-2.478-1.147-4.617-2.7-6.416-4.657-1.801-1.955-3.197-4.237-4.188-6.846-.992-2.608-1.487-5.348-1.487-8.218 0-2.868.495-5.596 1.487-8.177.991-2.583 2.36-4.853 4.109-6.81 1.747-1.956 3.86-3.508 6.338-4.656 2.478-1.146 5.204-1.722 8.178-1.722 2.348 0 4.629.431 6.848 1.292 2.216.861 4.081 2.179 5.595 3.952v-3.913h14.242v40.15m-22.929-29.11c-1.461 0-2.753.247-3.874.743-1.123.496-2.073 1.148-2.856 1.956-.782.809-1.383 1.761-1.8 2.856-.418 1.096-.625 2.27-.625 3.521 0 2.558.794 4.695 2.387 6.417 1.59 1.723 3.846 2.582 6.769 2.582 2.921 0 5.177-.859 6.769-2.582 1.59-1.722 2.387-3.859 2.387-6.417 0-1.252-.209-2.426-.626-3.521-.418-1.096-1.017-2.048-1.799-2.856-.783-.808-1.735-1.46-2.856-1.956-1.125-.496-2.416-.743-3.876-.743"/><path d="m360.74 699.81h.156c1.356-2.504 3.157-4.316 5.4-5.439 2.242-1.122 4.773-1.682 7.59-1.682h2.739v13.694c-.991-.573-1.97-.939-2.935-1.096-.966-.155-1.996-.234-3.091-.234-1.983 0-3.614.313-4.891.939-1.279.625-2.283 1.474-3.01 2.543-.732 1.069-1.24 2.348-1.526 3.834-.287 1.487-.43 3.091-.43 4.813v16.2h-14.243v-40.14h14.243v6.573"/><path d="m424.93 733.39h-14.242v-4.462h-.156c-1.252 1.984-3 3.443-5.243 4.383-2.242.939-4.537 1.409-6.884 1.409-2.974 0-5.701-.576-8.178-1.722-2.478-1.147-4.617-2.7-6.417-4.657-1.801-1.955-3.197-4.237-4.188-6.846-.991-2.608-1.486-5.348-1.486-8.218 0-2.868.495-5.596 1.486-8.177.991-2.583 2.36-4.853 4.109-6.81 1.747-1.956 3.86-3.508 6.338-4.656 2.478-1.146 5.205-1.722 8.178-1.722 2.348 0 4.628.431 6.845 1.292 2.218.861 4.083 2.179 5.596 3.952v-3.913h14.242v40.15m-22.928-29.11c-1.46 0-2.751.247-3.873.743-1.122.496-2.073 1.148-2.855 1.956-.783.809-1.384 1.761-1.801 2.856s-.626 2.27-.626 3.521c0 2.558.796 4.695 2.387 6.417 1.59 1.723 3.847 2.582 6.768 2.582s5.177-.859 6.769-2.582c1.591-1.722 2.388-3.859 2.388-6.417 0-1.252-.21-2.426-.627-3.521-.418-1.096-1.016-2.048-1.799-2.856-.782-.808-1.736-1.46-2.857-1.956-1.123-.496-2.414-.743-3.874-.743"/><path d="m448.93 733.39h-14.243v-28.408h-4.617v-11.738h4.617v-12.05h14.243v12.05h8.06v11.738h-8.06v28.408"/><path d="m467.6 669.84c1.096 0 2.125.209 3.091.626.964.418 1.813.992 2.544 1.722.729.731 1.304 1.579 1.722 2.543.416.966.625 1.995.625 3.091s-.209 2.126-.625 3.091c-.418.966-.992 1.813-1.722 2.543-.731.731-1.58 1.305-2.544 1.721-.966.418-1.995.626-3.091.626s-2.127-.208-3.091-.626c-.966-.417-1.815-.99-2.544-1.721-.73-.73-1.304-1.577-1.722-2.543-.418-.965-.626-1.996-.626-3.091s.208-2.125.626-3.091c.418-.965.991-1.813 1.722-2.543.729-.729 1.578-1.304 2.544-1.722.964-.416 1.995-.626 3.091-.626m7.121 63.54h-14.242v-40.15h14.242v40.15"/><path d="m503.81 691.91c3.232 0 6.312.47 9.233 1.409 2.921.94 5.489 2.322 7.709 4.148 2.216 1.826 3.977 4.069 5.281 6.729 1.304 2.66 1.956 5.713 1.956 9.156 0 3.392-.652 6.417-1.956 9.08-1.305 2.659-3.065 4.903-5.281 6.729-2.22 1.826-4.788 3.208-7.709 4.147-2.922.939-6 1.409-9.233 1.409-3.235 0-6.3-.47-9.195-1.409-2.895-.939-5.466-2.321-7.708-4.147-2.244-1.826-4.02-4.055-5.321-6.69-1.306-2.635-1.957-5.674-1.957-9.117s.651-6.496 1.957-9.156c1.303-2.66 3.064-4.903 5.282-6.729 2.217-1.826 4.785-3.208 7.707-4.148 2.922-.939 6-1.409 9.235-1.409m0 12.365c-1.462 0-2.753.247-3.875.743s-2.073 1.148-2.855 1.956c-.782.809-1.383 1.761-1.8 2.856-.419 1.096-.626 2.27-.626 3.521 0 2.558.794 4.695 2.387 6.417 1.591 1.723 3.848 2.582 6.77 2.582 2.921 0 5.176-.859 6.77-2.582 1.59-1.722 2.386-3.859 2.386-6.417 0-1.252-.209-2.426-.627-3.521-.416-1.096-1.017-2.048-1.799-2.856-.782-.808-1.735-1.46-2.857-1.956s-2.415-.743-3.874-.743"/><path d="m547.19 698.4h.155c1.668-2.452 3.521-4.147 5.556-5.087 2.035-.939 4.462-1.409 7.278-1.409 2.711 0 5.02.405 6.925 1.213 1.904.81 3.457 1.944 4.656 3.404 1.199 1.461 2.086 3.222 2.661 5.282.574 2.062.861 4.317.861 6.77v24.808h-14.243v-19.566c0-.938 0-2.01 0-3.208 0-1.252-.183-2.426-.548-3.521-.365-1.096-.992-2.01-1.878-2.739-.888-.73-2.218-1.096-3.99-1.096-1.462 0-2.661.248-3.601.743-.939.496-1.695 1.174-2.269 2.034-.576.861-.979 1.854-1.214 2.974-.235 1.122-.351 2.31-.351 3.561v20.817h-14.243v-40.15h14.243v5.165z"/><g stroke-miterlimit="10"><g fill="#fff" stroke="#231f20"><path stroke-width="2.699" d="m552.76 532.59l-15.98 59.65-39.1-39.1"/><g stroke-linejoin="round"><path d="m526.5 554.96l-202-12.93v-24.63l202 12.94z"/><path d="m681.5 399.33l-155 131.01v24.62l155-131z"/></g></g><g fill="none" stroke="#c71e28" stroke-width="7.423"><path d="m456.07 512.58l-47.07 47.07"/><path d="m367.53 361.86l207.06 207.06"/></g></g></svg>