<svg xmlns="http://www.w3.org/2000/svg" viewBox="0 0 800 1102.251" enable-background="new 0 0 800 1102.251"><path fill="#f4f7f9" d="m0 .251h800v1102h-800z"/><g fill="#2c292a"><path d="m306.26 394.67l-47.682 143.93h-26.357l-47.48-143.93h36.625l24.19 80.46 23.891-80.46h36.821"/><path d="m456.36 492.9c-1.251 7.635-3.501 14.462-6.755 20.484-3.255 6.02-7.299 10.975-12.133 14.857-4.834 3.884-10.275 6.779-16.323 8.687-6.05 1.909-12.493 2.863-19.332 2.863-15.982 0-29.3-5.396-39.95-16.19-6.312-6.318-10.324-13.491-12.03-21.521-1.709-8.03-2.563-18.229-2.563-30.603v-4.837-4.837c0-12.372.854-22.59 2.563-30.652 1.709-8.06 5.722-15.252 12.03-21.57 5.393-5.396 11.311-9.428 17.754-12.09 6.443-2.666 13.84-3.999 22.2-3.999 7.168 0 13.743.972 19.726 2.912 5.984 1.942 11.344 4.838 16.08 8.688 4.732 3.851 8.729 8.754 11.983 14.709 3.254 5.957 5.504 12.818 6.755 20.583h-35.933c-1.252-4.672-3.275-8.407-6.071-11.205-2.799-2.796-6.927-4.195-12.39-4.195-3.034 0-5.748.56-8.148 1.678-2.404 1.12-4.33 2.567-5.775 4.344-1.252 1.58-2.256 3.472-3.01 5.676-.758 2.206-1.35 5.563-1.777 10.07-.429 4.509-.641 11.14-.641 19.892 0 11.648.426 19.827 1.282 24.532.854 4.706 2.237 8.375 4.147 11.01 3.158 4.082 7.799 6.121 13.924 6.121 5.328 0 9.428-1.397 12.29-4.195 2.862-2.796 4.919-6.531 6.171-11.205h35.933"/><path d="m615.77 466.64v11.748c0 6.977-.313 12.917-.936 17.819-.627 4.904-2.023 9.741-4.191 14.512-2.171 4.772-5.458 9.363-9.863 13.771-9.404 9.412-22.324 14.12-38.762 14.12h-53.36v-143.93h53.36c16.438 0 29.357 4.707 38.762 14.12 4.405 4.41 7.692 9 9.863 13.771 2.168 4.772 3.564 9.61 4.191 14.511.623 4.904.936 10.844.936 17.819v11.749m-35.34 0c0-11.847-.249-19.661-.742-23.446-.495-3.783-1.503-6.762-3.02-8.934-3.629-5.396-9.303-8.095-17.03-8.095h-15.637v80.95h15.637c7.724 0 13.397-2.698 17.03-8.095 1.121-1.711 1.899-3.406 2.326-5.084.43-1.678.777-4.557 1.04-8.638.264-4.08.397-10.3.397-18.658"/><g fill-rule="evenodd"><path d="m564.97 676.22c5.819-1.412 11.873-1.441 18.612 1.379-.411-2.242-1.316-4.381-2.439-6.422-6.713-1.951-12.742-1.105-18.613.91.711 1.441 1.528 2.826 2.44 4.133"/><path d="m508.5 633.38c3.479-5.762 9.433-12.06 14.373-15.789.906 1.377 2.21 2.706 3.807 3.949-3.865 3.358-7.845 8.873-9.155 11.84h-9.03m12.745 0c2.123-4.047 4.748-7.264 7.559-10.338 1.228.788 2.563 1.532 3.979 2.22-1.644 2.19-3.529 5.358-4.327 8.118h-7.211m-.106 2.719c1.774 4.546 4.269 8.314 6.725 11.416 1.385-.914 2.905-1.813 4.518-2.676-1.886-2.53-3.474-5.803-4.263-8.74h-6.98m11.37 0c.408 2.727 1.254 5.221 2.686 7.303 1.572-.76 3.194-1.481 4.831-2.149-.696-1.634-1.254-3.398-1.553-5.153h-5.964m.299-2.72c.676-2.494 1.441-4.617 2.771-6.87 1.565.637 3.184 1.203 4.822 1.689-.664 1.638-1.097 3.414-1.389 5.181h-6.204m9.397 0c.329-1.511.669-2.858 1.263-4.367 1.69.387 3.373.684 5.01.875-.367 1.12-.634 2.3-.813 3.492h-5.463m-.052 2.719c.206 1.42.574 2.729 1.027 3.945 1.625-.582 3.24-1.098 4.801-1.53-.204-.79-.363-1.6-.484-2.415h-5.344m-33.636 0c3.053 6.329 8.798 12.274 13.656 16.12.887-1.024 2.068-2.083 3.47-3.145-3.717-3.557-7.271-9.564-8.15-12.973h-8.976m42.508-8.122c-11.27-1.556-24.507-7.896-26.21-14.853-7.086 4.331-17.34 14.12-20.895 22.38 4.432 10.195 14.827 18.619 20.837 21.05 2.265-5.506 16.503-13.08 27.798-16.09-1.894-1.806-3.073-4.354-3.073-7.178 0-1.955.567-3.779 1.545-5.316"/><path d="m560.16 643.19c-2.446 7.851-2.168 18.385 1.583 27.17 5.719-2.051 11.579-3.037 18.06-1.451-5.622-8.887-9.518-12.787-4.611-23.03 4.943-10.33 14.33-19.01 5.418-35.13-10.381-18.776-44.639-18.241-53.859 1.257 1.426 7.671 18.05 13.45 25.12 14.835 1.82-2.13 4.527-3.48 7.548-3.48 5.483 0 9.929 4.446 9.929 9.928-.0001 5.23-4.048 9.522-9.183 9.901"/><path d="m559.93 671.05c-3.645-8.795-3.613-20.33-.565-27.833-1.972-.007-3.809-.593-5.353-1.593-11.166 3.434-23.26 10.301-27.598 16.03 4.675 5.273 2.526 16.05-2.074 20.652-4.6 4.6-13.878 8.375-9.797 20.82 0 0 .796-6.125 12.818-8.941l4.444-1.064c11.521-2.615 21.13-9.426 31.32-12.41-.918-1.203-1.723-2.533-2.423-3.957"/><path d="m559.61 624.39c4.836 0 8.758 3.922 8.758 8.754 0 4.836-3.922 8.758-8.758 8.758-4.832 0-8.753-3.922-8.753-8.758 0-4.832 3.921-8.754 8.753-8.754"/><path d="m569.88 589.89c-6.947-23.803 19.617-39.18 37.656-24.404-5.04-.668-10.873.276-15.09 3.272 30.15-7.792 35.563 19.852 33.97 45.06-3.784-4.594-3.522-18.451-12.235-22.06 4.623 5.074 6.317 12.508 8.339 18.407 2.854 8.31 10.765 17.637 20.504 16.358 7.315-.955 11.271-10.534 7.69-16.08 1.148 1.782 1.612 4.216.484 7.07-1.02-4.286-6.793-7.23-11.195-1.383-1.582-12.411 7.782-10.784 11.99-8.178 14.913 9.213 5.953 28.12-8.367 30.485 2.809-3.837 2.936-5.263 2.952-8.852-4.308 11.04-13.868 18.49-27.993 12.244-9.727-4.301-8.04-15.404-6.504-24.03-3.172 4.896-3.648 11.746-2.193 17.1-19.25-6.561 4.745-35.925-24.732-49.11 3.621 3 8.31 6.708 10.701 11.954-7.104 2.631-13.951-2.795-20.386-6.149 1.743-.98 4.835-1.889 6.878-1.598-3.225-2.065-7.855 1.304-9.986 1.364 4.602-15.246 22.748-17.468 33.406-12.85-11.371-6.507-31.01-2.229-34.695 12.655-.574-.2-1.034-.583-1.198-1.276"/><path d="m564.64 608.61c.915-1.374 2.596-3.319 4.089-4.427.436.173 1.265.511 2.068 1.059-.098 1.679-.569 3.609-.85 5.347-1.724-.81-3.479-1.458-5.307-1.979"/></g></g><path fill-rule="evenodd" fill="#fff" d="m559.61 631.07c1.143 0 2.068.926 2.068 2.067 0 1.143-.926 2.069-2.068 2.069-1.142 0-2.067-.927-2.067-2.069 0-1.141.926-2.067 2.067-2.067"/><g fill="#2c292a"><path d="m279.79 611.64c6.787 3.975 9.512 12.369 6.475 19.532h-18.771l10.11-18.868c.425-.795 1.412-1.119 2.189-.664"/><path d="m240.29 627.73l5.816-5.35c2.314 2.844 4.847 6.148 6.538 8.795h-27.683c-2.192-2.438-4.391-5.117-6.564-8.06-.685-.93-1.364-1.884-2.037-2.863-1.02-1.485-.787-3.48.48-4.746l-.705-.754c-.676-.721-.938-1.673-.82-2.584l-16.09-6.248c-1.381-.537-2.066-2.092-1.529-3.474.537-1.381 2.093-2.064 3.473-1.529l12.919 5.02-8.02-10.572c-.895-1.181-.664-2.864.516-3.759 1.182-.896 2.863-.666 3.758.516l7.73 10.184-.68-6.726c-.148-1.476.927-2.792 2.4-2.939 1.479-.148 2.79.927 2.939 2.4l1.033 10.25c.562.147 1.094.441 1.52.896l.734.785c1.336-.945 3.158-.945 4.473.091 1.297 1.022 2.543 2.056 3.744 3.097.293.254 1.025.959 1.313 1.213l-6.121 5.529.729.729.824.824 6.34-5.518c2.734 2.562 5.203 5.144 7.379 7.648l-5.941 5.614"/><path d="m296.61 621.55v12.559 32.475c0 8.01-3.467 11.477-11.477 11.477h-68.856c-8.01 0-11.478-3.467-11.478-11.477l-.143-10.732h-2.376c-.782 0-2.333.324-2.938-1.736-1.619-5.494-3.369-13.555-4.074-16.893-13.771-5.699-40.25 16.795-51.55-2.388-.233-.396-.502-1.126-.483-1.724v-7.247c.239-1 .082-1.12 1.718-1.12l53.32-.001h6.385v-3.184"/></g><g stroke="#2c292a" stroke-miterlimit="10"><path fill="#fff" stroke-width="4" d="m408 606.41h28.19 3.524c0 0 0-8.364 0-16.741s-10.569-8.372-10.569-8.372h-42.28c0 0-10.57.006-10.57 8.372 0 8.365 0 16.741 0 16.741h3.522 28.19z"/><path fill="#2c292a" stroke-width="8" d="m376.28 603.16h63.42v91.16h-63.42z"/></g><g fill="#fff" fill-rule="evenodd"><path d="m378.77 632.93h57.29v15.858h-57.29z"/><path d="m399.49 686.4h15.855v7.93h-15.855z"/></g><text transform="translate(394.81 647.12)" fill="#2c292a" font-family="&apos;Ketchupa-Regular&apos;" font-size="20.873">DEO</text><g fill="none" stroke-width="2" stroke-miterlimit="10"><g stroke="#2c292a"><path d="m402.65 691.37v4.188"/><path d="m407.42 688.8v6.755"/><path d="m412.19 691.37v4.188"/></g><path stroke="#f1f1f2" d="m438.56 680.64h-62.28"/></g><g fill="#2c292a"><path d="m0 351.95h635.58v18h-635.58z"/><path d="m164.42 723.08h635.58v18h-635.58z"/></g></svg>