<svg xmlns="http://www.w3.org/2000/svg" viewBox="0 0 1728 3456" enable-background="new 0 0 1728 3456"><path d="m321.22 1838.73h7.993v-49.25h-7.993v-1.01h13.537c1.368 0 2.665-.071 4.03-.144 1.297 0 2.664-.071 3.961-.071 10.944 0 19.08 5.472 19.08 13.681 0 8.569-9.433 13.608-20.02 13.608-1.296 0-3.816-.287-5.4-.575v23.762h7.993v1.01h-23.19v-1.01zm15.193-24.771c1.872.361 4.249.576 5.833.576 7.06 0 11.305-4.176 11.305-12.601 0-9.864-3.672-12.673-12.961-12.673-1.801 0-3.385.144-4.177.216v24.482"/><path d="m369.41 1838.73h5.545v-28.874h-5.545v-1.01h11.594v7.271h.144c.792-2.808 3.384-8.06 9.433-8.06 4.465 0 6.408 3.097 6.408 5.977 0 3.168-1.728 3.961-3.6 3.961-2.088 0-3.168-.793-3.168-2.02 0-1.728.936-1.728.936-4.177 0-1.439-.863-2.304-2.52-2.304-3.02 0-7.489 4.753-7.489 12.745v16.489h6.265v1.01h-18v-1.01"/><path d="m419.06 1807.91c7.705 0 16.778 6.913 16.778 16.417 0 9.07-8.353 16.418-16.778 16.418-8.424 0-16.777-7.345-16.777-16.418 0-9.504 9.07-16.417 16.777-16.417m0 31.827c5.113 0 9.578-1.801 9.578-15.41 0-11.449-3.097-15.409-9.578-15.409-6.48 0-9.576 3.96-9.576 15.409 0 13.61 4.465 15.41 9.576 15.41"/><path d="m450.07 1826.49c-2.736-1.871-4.176-4.536-4.176-7.776 0-6.769 7.201-10.801 12.816-10.801 4.321 0 7.562 2.231 9 3.673 1.08-1.801 3.096-3.673 6.191-3.673 1.945 0 3.889.576 3.889 3.24 0 1.728-1.367 2.593-2.52 2.593-2.593 0-1.944-3.602-3.961-3.602-.936 0-2.088 1.01-2.809 2.02.865.937 2.665 3.313 2.665 6.769 0 5.689-6.192 10.01-12.817 10.01-3.313 0-5.904-1.225-7.272-1.873-2.089.937-5.112 2.305-5.112 5.473 0 2.952 2.447 3.528 4.896 3.528h11.377c6.696 0 11.02 3.097 11.02 10.01 0 8.354-7.993 14.258-16.273 14.258-7.417 0-12.89-3.529-12.89-8.641 0-5.04 4.393-8.137 8.426-9.649v-.144c-6.337 0-9.289-1.873-9.289-6.841.0001-5.185 4.321-7.417 6.84-8.57m3.961 15.41c-2.52 1.512-5.328 3.096-5.328 8.06 0 6.84 5.328 8.929 9.721 8.929 6.912 0 11.593-4.536 11.593-9.577 0-5.328-3.169-7.416-8.208-7.416h-7.778m4.68-32.979c-4.896 0-7.416 2.809-7.416 9.577 0 5.76 1.512 9.433 7.488 9.433 4.969 0 6.913-3.097 6.913-9.433 0-4.392-.647-9.577-6.985-9.577"/><path d="m483.58 1838.73h5.545v-28.874h-5.545v-1.01h11.593v7.271h.144c.793-2.808 3.385-8.06 9.434-8.06 4.465 0 6.408 3.097 6.408 5.977 0 3.168-1.729 3.961-3.6 3.961-2.089 0-3.169-.793-3.169-2.02 0-1.728.937-1.728.937-4.177 0-1.439-.864-2.304-2.521-2.304-3.02 0-7.489 4.753-7.489 12.745v16.489h6.266v1.01h-18v-1.01z"/><path d="m523.77 1821.88c0 .936-.071 1.871-.071 3.384 0 6.409 1.01 14.474 9.504 14.474 8.497 0 10.369-5.833 11.09-8.137l1.08.215c-.648 2.089-2.593 8.93-12.242 8.93-9.648 0-16.633-6.48-16.633-16.273 0-8.497 7.129-16.562 16.201-16.562 5.328 0 13.25 3.456 13.25 13.97h-22.18zm14.833-1.01c.145-1.368.145-2.448.145-3.673 0-6.48-2.592-8.28-6.336-8.28-6.481 0-8.137 5.688-8.569 11.953h14.76"/><path d="m554.85 1829.65h.791c1.297 4.537 4.105 10.08 11.377 10.08 3.098 0 5.905-1.801 5.905-5.977 0-3.673-2.232-4.753-4.681-5.617l-5.616-1.943c-2.952-1.01-7.129-2.449-7.129-8.785 0-5.4 4.393-9.505 10.369-9.505 4.177 0 4.896 1.513 6.913 1.513.647 0 .936-.217 1.151-.576h.792v8.208h-.792c-1.368-4.32-3.168-8.137-8.06-8.137-4.608 0-7.272 2.232-7.272 5.688 0 3.097 2.232 4.393 6.408 5.688l5.257 1.729c4.464 1.513 7.704 4.104 7.704 8.497 0 5.256-4.176 10.225-11.449 10.225-4.248 0-6.984-2.02-9.145-2.02-1.08 0-1.439.505-1.729 1.01h-.791v-10.08z"/><path d="m586.92 1829.65h.791c1.297 4.537 4.105 10.08 11.377 10.08 3.098 0 5.905-1.801 5.905-5.977 0-3.673-2.232-4.753-4.681-5.617l-5.616-1.943c-2.952-1.01-7.129-2.449-7.129-8.785 0-5.4 4.393-9.505 10.369-9.505 4.177 0 4.896 1.513 6.913 1.513.647 0 .936-.217 1.151-.576h.792v8.208h-.792c-1.368-4.32-3.168-8.137-8.06-8.137-4.608 0-7.272 2.232-7.272 5.688 0 3.097 2.232 4.393 6.408 5.688l5.257 1.729c4.464 1.513 7.704 4.104 7.704 8.497 0 5.256-4.176 10.225-11.449 10.225-4.248 0-6.984-2.02-9.145-2.02-1.08 0-1.439.505-1.729 1.01h-.791v-10.08z"/><path d="m662.73 1787.82h11.738v50.908h5.544v1.01h-11.593v-6.266h-.145c-.72 2.232-2.952 7.273-9.504 7.273-8.498 0-15.698-7.85-15.698-16.634 0-8.641 6.985-16.201 15.193-16.201 5.257 0 8.569 2.952 9.865 6.696h.144v-25.777h-5.545v-1.01m-3.886 51.917c7.993 0 9.433-7.777 9.433-14.11 0-7.417-.504-10.801-2.52-13.394-1.44-1.872-3.673-3.313-7.201-3.313-6.696 0-8.281 5.544-8.281 14.329-.0001 10.01.648 16.491 8.569 16.491"/><path d="m702.05 1807.91c7.705 0 16.777 6.913 16.777 16.417 0 9.07-8.353 16.418-16.777 16.418s-16.777-7.345-16.777-16.418c-.0001-9.504 9.07-16.417 16.777-16.417m0 31.827c5.113 0 9.577-1.801 9.577-15.41 0-11.449-3.097-15.409-9.577-15.409s-9.576 3.96-9.576 15.409c0 13.61 4.463 15.41 9.576 15.41"/><path d="m734.1 1821.88c0 .936-.072 1.871-.072 3.384 0 6.409 1.01 14.474 9.505 14.474s10.368-5.833 11.09-8.137l1.08.215c-.648 2.089-2.592 8.93-12.241 8.93-9.648 0-16.634-6.48-16.634-16.273 0-8.497 7.129-16.562 16.202-16.562 5.328 0 13.249 3.456 13.249 13.97h-22.18zm14.833-1.01c.144-1.368.144-2.448.144-3.673 0-6.48-2.592-8.28-6.336-8.28-6.48 0-8.137 5.688-8.568 11.953h14.76"/><path d="m765.17 1829.65h.792c1.296 4.537 4.104 10.08 11.377 10.08 3.097 0 5.905-1.801 5.905-5.977 0-3.673-2.232-4.753-4.682-5.617l-5.615-1.943c-2.953-1.01-7.129-2.449-7.129-8.785 0-5.4 4.393-9.505 10.369-9.505 4.176 0 4.896 1.513 6.912 1.513.648 0 .936-.217 1.152-.576h.792v8.208h-.792c-1.368-4.32-3.168-8.137-8.06-8.137-4.609 0-7.273 2.232-7.273 5.688 0 3.097 2.232 4.393 6.408 5.688l5.258 1.729c4.464 1.513 7.704 4.104 7.704 8.497 0 5.256-4.177 10.225-11.449 10.225-4.248 0-6.984-2.02-9.145-2.02-1.08 0-1.44.505-1.729 1.01h-.792v-10.08"/><path d="m819.39 1838.73h5.544v-28.874h-5.544v-1.01h11.592v7.704h.145c1.152-2.521 4.104-8.497 12.385-8.497 6.337 0 10.729 2.953 10.729 9.649v21.03h5.544v1.01h-17.281v-1.01h5.545v-23.258c0-3.744-1.729-6.409-5.473-6.409-6.193 0-11.449 5.762-11.449 13.395v16.272h5.545v1.01h-17.281v-1.01z"/><path d="m881.73 1807.91c7.705 0 16.777 6.913 16.777 16.417 0 9.07-8.353 16.418-16.777 16.418s-16.777-7.345-16.777-16.418c-.0001-9.504 9.07-16.417 16.777-16.417m0 31.827c5.113 0 9.577-1.801 9.577-15.41 0-11.449-3.097-15.409-9.577-15.409s-9.576 3.96-9.576 15.409c-.0001 13.61 4.463 15.41 9.576 15.41"/><path d="m903.37 1808.85h5.544v-9.289c.72.287 1.152.504 2.808.504 1.441 0 2.449-.36 3.385-1.08v9.865h10.225v1.01h-10.225v23.546c0 5.4 2.377 6.337 4.32 6.337 3.385 0 5.473-2.881 6.05-6.05l1.01.359c-.504 2.449-2.088 6.697-7.92 6.697-7.201 0-9.649-2.953-9.649-7.992v-22.898h-5.544v-1.01z"/><path d="m984.01 1831.81c-.648 2.089-2.593 8.93-12.242 8.93-7.344 0-16.633-4.248-16.633-16.273 0-9.361 7.488-16.562 16.777-16.562 5.113 0 11.665 2.304 11.665 8.208 0 2.02-1.368 3.457-3.744 3.457-1.656 0-3.456-.648-3.456-2.377 0-1.367 1.01-3.6 1.01-4.824 0-2.232-2.592-3.456-5.473-3.456-4.248 0-9.576 1.08-9.576 15.77 0 8.208 1.728 15.05 9.504 15.05 8.497 0 10.369-5.833 11.09-8.137l1.08.214"/><path d="m1007.88 1807.91c7.705 0 16.778 6.913 16.778 16.417 0 9.07-8.353 16.418-16.778 16.418-8.424 0-16.777-7.345-16.777-16.418 0-9.504 9.07-16.417 16.777-16.417m0 31.827c5.113 0 9.578-1.801 9.578-15.41 0-11.449-3.097-15.409-9.578-15.409-6.48 0-9.576 3.96-9.576 15.409 0 13.61 4.465 15.41 9.576 15.41"/><path d="m1029.88 1838.73h5.545v-28.874h-5.545v-1.01h11.594v7.561h.144c2.02-5.689 5.904-8.354 11.233-8.354 4.752 0 8.856 1.944 10.01 6.841h.145c1.296-3.456 4.608-6.841 10.585-6.841 7.128 0 10.513 3.673 10.513 10.729v19.945h5.545v1.01h-17.281v-1.01h5.544v-24.481c0-3.24-1.872-5.186-4.968-5.186-4.753 0-10.08 3.529-10.08 11.306v18.361h5.545v1.01h-17.281v-1.01h5.545v-23.474c0-4.177-1.873-6.193-4.753-6.193-4.104 0-10.297 3.745-10.297 13.682v15.985h5.544v1.01h-17.281v-1.01z"/><path d="m1101.99 1821.88c0 .936-.072 1.871-.072 3.384 0 6.409 1.01 14.474 9.505 14.474s10.369-5.833 11.09-8.137l1.08.215c-.648 2.089-2.592 8.93-12.241 8.93-9.648 0-16.633-6.48-16.633-16.273 0-8.497 7.128-16.562 16.201-16.562 5.328 0 13.249 3.456 13.249 13.97h-22.18zm14.833-1.01c.144-1.368.144-2.448.144-3.673 0-6.48-2.592-8.28-6.336-8.28-6.48 0-8.137 5.688-8.569 11.953h14.761"/><path d="m1152.97 1808.85h17.354v1.01h-5.977l8.06 22.466 7.489-17.786-1.801-4.68h-3.02v-1.01h14.329v1.01h-4.825l8.354 22.322 9-22.322h-6.769v-1.01h11.737v1.01h-3.816l-12.889 32.26-9.793-26.14-10.945 26.14-11.593-32.26h-4.896v-1.01"/><path d="m1212.84 1838.73h5.544v-28.874h-5.544v-1.01h11.736v29.882h5.545v1.01h-17.281v-1.01m8.496-50.48c2.089 0 3.816 1.728 3.816 3.816 0 2.088-1.728 3.816-3.816 3.816-2.088 0-3.816-1.729-3.816-3.816 0-2.089 1.728-3.816 3.816-3.816"/><path d="m1233.54 1808.85h5.545v-9.289c.72.287 1.152.504 2.809.504 1.439 0 2.448-.36 3.384-1.08v9.865h10.225v1.01h-10.225v23.546c0 5.4 2.376 6.337 4.32 6.337 3.385 0 5.473-2.881 6.05-6.05l1.01.359c-.504 2.449-2.088 6.697-7.921 6.697-7.2 0-9.648-2.953-9.648-7.992v-22.898h-5.545v-1.01"/><path d="m1261.55 1838.73h5.545v-49.899h-5.545v-1.01h11.737v28.3h.145c1.01-2.592 4.392-8.06 12.24-8.06 6.337 0 10.729 2.953 10.729 9.649v21.03h5.544v1.01h-17.281v-1.01h5.545v-23.258c0-3.744-1.729-6.409-5.473-6.409-6.192 0-11.449 5.762-11.449 13.395v16.272h5.545v1.01h-17.282v-1.01"/><path d="m1323.89 1807.91c7.705 0 16.777 6.913 16.777 16.417 0 9.07-8.353 16.418-16.777 16.418s-16.777-7.345-16.777-16.418c-.0001-9.504 9.07-16.417 16.777-16.417m0 31.827c5.112 0 9.577-1.801 9.577-15.41 0-11.449-3.097-15.409-9.577-15.409s-9.577 3.96-9.577 15.409c0 13.61 4.464 15.41 9.577 15.41"/><path d="m1385.01 1839.74h-11.593v-7.273h-.145c-1.728 3.889-4.681 8.281-11.02 8.281-3.816 0-6.192-1.08-7.489-2.02-1.368-1.01-3.456-2.592-3.456-8.425v-20.449h-5.544v-1.01h11.736v22.11c0 4.969 1.225 8.785 6.121 8.785 4.176 0 9.648-5.186 9.648-13.178v-16.705h-5.473v-1.01h11.665v29.882h5.545v1.01z"/><path d="m1388.36 1808.85h5.545v-9.289c.72.287 1.152.504 2.809.504 1.439 0 2.448-.36 3.384-1.08v9.865h10.225v1.01h-10.225v23.546c0 5.4 2.376 6.337 4.32 6.337 3.385 0 5.473-2.881 6.05-6.05l1.01.359c-.504 2.449-2.088 6.697-7.921 6.697-7.2 0-9.648-2.953-9.648-7.992v-22.898h-5.545v-1.01"/><path d="m353.48 1925.34c-1.225.936-2.952 1.801-5.4 1.801-4.608 0-6.336-2.088-7.129-5.617h-.144c-.72 1.801-2.376 5.617-9.505 5.617-7.992 0-9.289-4.03-9.289-6.984 0-6.77 5.904-7.418 11.232-9.145 6.409-2.09 7.85-2.521 7.85-8.281 0-4.609-.793-7.416-5.545-7.416-3.168 0-5.473 1.08-5.473 3.527 0 1.656.433 3.385.433 4.176 0 1.297-1.01 2.377-2.809 2.377-3.168 0-3.528-1.297-3.528-3.096 0-4.248 3.889-7.994 11.232-7.994 8.857 0 11.666 4.826 11.666 9.938v17.93c0 2.736.936 3.529 2.52 3.529 1.01 0 2.305-.434 3.313-1.152l.576.79m-12.602-16.85h-.144c-.071.576-.937 1.297-2.376 1.873l-5.4 2.16c-3.02 1.225-4.752 3.455-4.752 6.84 0 2.953.863 6.338 5.328 6.338 6.408 0 7.344-6.121 7.344-10.01v-7.201"/><path d="m380.69 1895.25h5.544v-9.289c.721.287 1.152.504 2.809.504 1.44 0 2.448-.36 3.385-1.08v9.865h10.225v1.01h-10.225v23.545c0 5.4 2.376 6.338 4.32 6.338 3.385 0 5.473-2.881 6.05-6.05l1.01.359c-.504 2.449-2.088 6.697-7.921 6.697-7.2 0-9.649-2.953-9.649-7.992v-22.898h-5.544v-1.01"/><path d="m408.93 1925.13h5.544v-28.875h-5.544v-1.01h11.593v7.271h.145c.791-2.809 3.384-8.06 9.432-8.06 4.465 0 6.409 3.096 6.409 5.977 0 3.168-1.728 3.961-3.601 3.961-2.088 0-3.168-.793-3.168-2.02 0-1.729.936-1.729.936-4.178 0-1.439-.863-2.303-2.52-2.303-3.02 0-7.488 4.752-7.488 12.744v16.49h6.264v1.01h-18v-1.01z"/><path d="m473.06 1925.34c-1.224.936-2.952 1.801-5.4 1.801-4.608 0-6.337-2.088-7.129-5.617h-.144c-.721 1.801-2.377 5.617-9.505 5.617-7.993 0-9.289-4.03-9.289-6.984 0-6.77 5.905-7.418 11.233-9.145 6.408-2.09 7.848-2.521 7.848-8.281 0-4.609-.791-7.416-5.544-7.416-3.168 0-5.472 1.08-5.472 3.527 0 1.656.432 3.385.432 4.176 0 1.297-1.01 2.377-2.809 2.377-3.168 0-3.528-1.297-3.528-3.096 0-4.248 3.889-7.994 11.233-7.994 8.856 0 11.664 4.826 11.664 9.938v17.93c0 2.736.937 3.529 2.521 3.529 1.01 0 2.304-.434 3.312-1.152l.577.79m-12.601-16.85h-.145c-.072.576-.936 1.297-2.376 1.873l-5.401 2.16c-3.02 1.225-4.752 3.455-4.752 6.84 0 2.953.864 6.338 5.328 6.338 6.409 0 7.346-6.121 7.346-10.01v-7.201"/><path d="m479.05 1925.13h5.545v-28.875h-5.545v-1.01h11.593v7.705h.144c1.152-2.521 4.105-8.498 12.386-8.498 6.337 0 10.729 2.953 10.729 9.648v21.03h5.544v1.01h-17.282v-1.01h5.545v-23.258c0-3.746-1.729-6.41-5.473-6.41-6.192 0-11.449 5.762-11.449 13.395v16.273h5.545v1.01h-17.281v-1.01z"/><path d="m527.18 1916.06h.791c1.297 4.537 4.105 10.08 11.377 10.08 3.098 0 5.905-1.801 5.905-5.977 0-3.672-2.232-4.752-4.681-5.617l-5.616-1.943c-2.952-1.01-7.129-2.449-7.129-8.785 0-5.4 4.393-9.506 10.369-9.506 4.177 0 4.896 1.514 6.913 1.514.647 0 .936-.217 1.151-.576h.792v8.209h-.792c-1.368-4.32-3.168-8.137-8.06-8.137-4.608 0-7.272 2.23-7.272 5.688 0 3.096 2.232 4.393 6.408 5.689l5.257 1.727c4.464 1.514 7.704 4.105 7.704 8.498 0 5.256-4.176 10.225-11.449 10.225-4.248 0-6.984-2.02-9.145-2.02-1.08 0-1.439.504-1.729 1.01h-.791v-10.08z"/><path d="m556.21 1925.13h5.545v-28.875h-5.545v-1.01h5.545v-3.816c0-6.697 1.368-9.577 3.24-11.953 2.521-3.168 6.48-5.904 10.657-5.904 6.265 0 8.929 4.104 8.929 6.695 0 1.801-.936 3.673-3.457 3.673-1.224 0-3.312-.36-3.312-2.304 0-1.656 1.368-2.736 1.368-4.393 0-2.16-2.16-2.664-3.961-2.664-3.96 0-7.271 3.313-7.271 10.656v10.01h8.928v1.01h-8.928v28.875h6.552v1.01h-18.29v-1.01"/><path d="m597.17 1894.31c7.705 0 16.777 6.914 16.777 16.418 0 9.07-8.353 16.418-16.777 16.418s-16.777-7.346-16.777-16.418c0-9.504 9.07-16.418 16.777-16.418m0 31.828c5.113 0 9.577-1.801 9.577-15.41 0-11.449-3.097-15.408-9.577-15.408s-9.576 3.959-9.576 15.408c0 13.609 4.464 15.41 9.576 15.41"/><path d="m619.39 1925.13h5.544v-28.875h-5.544v-1.01h11.593v7.271h.145c.791-2.809 3.384-8.06 9.432-8.06 4.465 0 6.409 3.096 6.409 5.977 0 3.168-1.728 3.961-3.601 3.961-2.088 0-3.168-.793-3.168-2.02 0-1.729.936-1.729.936-4.178 0-1.439-.863-2.303-2.52-2.303-3.02 0-7.488 4.752-7.488 12.744v16.49h6.264v1.01h-18v-1.01"/><path d="m652.21 1925.13h5.544v-28.875h-5.544v-1.01h11.593v7.561h.144c2.02-5.689 5.904-8.354 11.233-8.354 4.753 0 8.856 1.945 10.01 6.842h.145c1.295-3.457 4.607-6.842 10.584-6.842 7.129 0 10.514 3.672 10.514 10.729v19.947h5.544v1.01h-17.281v-1.01h5.544v-24.482c0-3.24-1.871-5.186-4.968-5.186-4.753 0-10.08 3.529-10.08 11.305v18.363h5.545v1.01h-17.281v-1.01h5.544v-23.475c0-4.176-1.872-6.193-4.753-6.193-4.104 0-10.297 3.744-10.297 13.682v15.986h5.545v1.01h-17.281v-1.01z"/><path d="m750.06 1925.34c-1.224.936-2.951 1.801-5.4 1.801-4.607 0-6.336-2.088-7.128-5.617h-.144c-.721 1.801-2.377 5.617-9.506 5.617-7.992 0-9.289-4.03-9.289-6.984 0-6.77 5.905-7.418 11.233-9.145 6.409-2.09 7.849-2.521 7.849-8.281 0-4.609-.792-7.416-5.545-7.416-3.168 0-5.472 1.08-5.472 3.527 0 1.656.433 3.385.433 4.176 0 1.297-1.01 2.377-2.809 2.377-3.168 0-3.529-1.297-3.529-3.096 0-4.248 3.889-7.994 11.233-7.994 8.856 0 11.665 4.826 11.665 9.938v17.93c0 2.736.936 3.529 2.521 3.529 1.01 0 2.304-.434 3.312-1.152l.576.79m-12.601-16.85h-.144c-.072.576-.937 1.297-2.377 1.873l-5.4 2.16c-3.02 1.225-4.752 3.455-4.752 6.84 0 2.953.863 6.338 5.328 6.338 6.408 0 7.345-6.121 7.345-10.01v-7.201"/><path d="m752.07 1895.25h5.544v-9.289c.72.287 1.152.504 2.808.504 1.441 0 2.449-.36 3.385-1.08v9.865h10.225v1.01h-10.225v23.545c0 5.4 2.377 6.338 4.32 6.338 3.385 0 5.473-2.881 6.05-6.05l1.01.359c-.504 2.449-2.088 6.697-7.92 6.697-7.201 0-9.649-2.953-9.649-7.992v-22.898h-5.544v-1.01z"/><path d="m780.33 1925.13h5.545v-28.875h-5.545v-1.01h11.738v29.883h5.544v1.01h-17.282v-1.01m8.497-50.48c2.089 0 3.816 1.728 3.816 3.816 0 2.088-1.728 3.816-3.816 3.816-2.088 0-3.815-1.729-3.815-3.816 0-2.088 1.727-3.816 3.815-3.816"/><path d="m819.54 1894.31c7.705 0 16.778 6.914 16.778 16.418 0 9.07-8.353 16.418-16.778 16.418-8.424 0-16.777-7.346-16.777-16.418 0-9.504 9.07-16.418 16.777-16.418m0 31.828c5.113 0 9.578-1.801 9.578-15.41 0-11.449-3.097-15.408-9.578-15.408-6.48 0-9.576 3.959-9.576 15.408 0 13.609 4.465 15.41 9.576 15.41"/><path d="m841.7 1925.13h5.544v-28.875h-5.544v-1.01h11.593v7.705h.145c1.152-2.521 4.104-8.498 12.385-8.498 6.336 0 10.729 2.953 10.729 9.648v21.03h5.545v1.01h-17.281v-1.01h5.544v-23.258c0-3.746-1.728-6.41-5.472-6.41-6.193 0-11.449 5.762-11.449 13.395v16.273h5.544v1.01h-17.281v-1.01z"/><path d="m895.26 1919.3c2.089 0 3.816 1.729 3.816 3.816s-1.728 3.816-3.816 3.816c-2.088 0-3.816-1.729-3.816-3.816s1.728-3.816 3.816-3.816"/><path d="m319.06 2035.94h12v.336h-12v-.336"/><path d="m358.23 2035.21h-1.92v5.449h-.287c-.337-.361-.48-.457-.961-.457-1.152 0-2.184 1.488-5.209 1.488-2.256 0-3.936-.721-5.568-2.352-1.584-1.584-2.783-3.793-2.783-6.506 0-3.672 1.92-5.76 2.76-6.6 1.439-1.439 3.288-2.424 5.641-2.424 2.448 0 2.904.936 4.08.936.624 0 .84-.191 1.08-.504h.36v4.801h-.265c-.264-1.656-1.271-4.896-5.279-4.896-4.777 0-5.617 4.439-5.617 8.688 0 2.904.408 5.834 2.112 7.369.96.865 1.849 1.152 3.479 1.152 1.992 0 4.152-1.297 4.152-4.129v-2.02h-3.096v-.336h7.32v.337z"/><path d="m371.36 2041.07c-.408.311-.984.6-1.8.6-1.536 0-2.112-.697-2.376-1.873h-.049c-.239.6-.791 1.873-3.168 1.873-2.664 0-3.096-1.344-3.096-2.328 0-2.256 1.968-2.473 3.744-3.049 2.137-.695 2.616-.84 2.616-2.76 0-1.537-.265-2.473-1.849-2.473-1.056 0-1.824.359-1.824 1.176 0 .553.145 1.129.145 1.393 0 .432-.336.793-.936.793-1.057 0-1.177-.434-1.177-1.033 0-1.416 1.296-2.664 3.744-2.664 2.952 0 3.889 1.607 3.889 3.313v5.977c0 .912.312 1.176.84 1.176.336 0 .769-.145 1.104-.385l.193.264m-4.2-5.617h-.048c-.023.191-.313.432-.792.623l-1.8.721c-1.01.408-1.584 1.152-1.584 2.281 0 .982.287 2.111 1.775 2.111 2.137 0 2.448-2.041 2.448-3.336v-2.4z"/><path d="m373.69 2041h1.849v-16.635h-1.849v-.336h3.913v8.93h.047c.433-1.248 1.537-2.232 3.289-2.232 2.736 0 5.064 2.52 5.064 5.4 0 2.928-2.4 5.545-5.232 5.545-2.185 0-2.929-1.68-3.168-2.424h-.049v2.088h-3.864v-.336m7.154-9.937c-1.177 0-1.921.48-2.4 1.104-.672.865-.84 1.992-.84 4.465 0 2.113.479 4.705 3.144 4.705 2.641 0 2.856-2.16 2.856-5.496 0-2.931-.529-4.778-2.76-4.778"/><path d="m388.36 2041h1.849v-9.625h-1.849v-.336h3.865v2.424h.048c.264-.936 1.128-2.688 3.144-2.688 1.488 0 2.137 1.031 2.137 1.992 0 1.055-.576 1.318-1.2 1.318-.696 0-1.056-.264-1.056-.672 0-.576.312-.576.312-1.391 0-.48-.288-.77-.84-.77-1.01 0-2.496 1.584-2.496 4.25v5.498h2.088v.336h-6v-.336z"/><path d="m399.69 2041h1.848v-9.625h-1.848v-.336h3.912v9.961h1.848v.336h-5.76v-.336m2.832-16.826c.695 0 1.271.576 1.271 1.271 0 .697-.576 1.273-1.271 1.273-.696 0-1.271-.576-1.271-1.273-.0001-.695.574-1.271 1.271-1.271"/><path d="m410.06 2035.38c0 .313-.023.625-.023 1.129 0 2.135.336 4.824 3.168 4.824s3.457-1.945 3.696-2.713l.36.072c-.217.695-.864 2.977-4.08 2.977-3.217 0-5.545-2.16-5.545-5.426 0-2.832 2.376-5.52 5.4-5.52 1.776 0 4.416 1.152 4.416 4.656h-7.392m4.945-.335c.047-.455.047-.816.047-1.225 0-2.16-.863-2.76-2.111-2.76-2.16 0-2.713 1.896-2.856 3.984h4.92"/><path d="m419.76 2041h1.848v-16.635h-1.848v-.336h3.912v16.971h1.849v.336h-5.761v-.336"/><path d="m435.4 2041h2.664v-16.418h-2.664v-.336h5.4l4.44 12.912h.048l4.44-12.912h5.305v.336h-2.664v16.418h2.664v.336h-7.729v-.336h2.664v-16.273h-.048l-5.737 16.633-5.712-16.465h-.048v16.1h2.664v.336h-5.688v-.336z"/><path d="m462.87 2030.73c2.568 0 5.594 2.305 5.594 5.473 0 3.02-2.785 5.473-5.594 5.473-2.808 0-5.592-2.449-5.592-5.473 0-3.169 3.02-5.473 5.592-5.473m0 10.609c1.705 0 3.193-.6 3.193-5.137 0-3.816-1.032-5.137-3.193-5.137-2.16 0-3.191 1.32-3.191 5.137 0 4.537 1.488 5.137 3.191 5.137"/><path d="m477.08 2030.73c2.568 0 5.593 2.305 5.593 5.473 0 3.02-2.784 5.473-5.593 5.473-2.808 0-5.593-2.449-5.593-5.473 0-3.169 3.03-5.473 5.593-5.473m0 10.609c1.704 0 3.192-.6 3.192-5.137 0-3.816-1.032-5.137-3.192-5.137s-3.192 1.32-3.192 5.137c0 4.537 1.488 5.137 3.192 5.137"/><path d="m484.85 2041h1.848v-9.625h-1.848v-.336h3.864v2.568h.048c.385-.84 1.368-2.832 4.129-2.832 2.111 0 3.576.982 3.576 3.215v7.01h1.848v.336h-5.76v-.336h1.848v-7.754c0-1.248-.576-2.135-1.824-2.135-2.064 0-3.816 1.92-3.816 4.463v5.426h1.848v.336h-5.76v-.336z"/><path d="m381.36 1531.78h-37.423v-112.27h-30.931v-31.694h99.28v31.694h-30.931v112.27"/><path d="m454.98 1373.31v72.936h.382c4.072-5.346 8.592-9.289 13.557-11.838 4.964-2.545 10.883-3.818 17.757-3.818 6.234 0 11.646.988 16.229 2.959 4.583 1.976 8.401 4.773 11.456 8.402 3.055 3.627 5.347 7.955 6.874 12.982 1.527 5.03 2.291 10.662 2.291 16.897v59.952h-34.75v-50.21c0-2.798-.161-5.6-.478-8.4-.318-2.799-1.02-5.313-2.1-7.542-1.083-2.226-2.673-4.01-4.773-5.347-2.101-1.336-4.869-2-8.306-2s-6.301.668-8.592 2c-2.291 1.337-4.171 3.121-5.633 5.347-1.465 2.229-2.481 4.743-3.055 7.542-.572 2.801-.859 5.603-.859 8.4v50.21h-34.749v-158.47h34.749"/><path d="m643.37 1488.63h-73.13c0 7.131 1.813 12.539 5.441 16.229 3.628 3.693 9.07 5.537 16.324 5.537 3.69 0 6.903-.669 9.643-2.01 2.735-1.336 5.06-3.657 6.969-6.969h33.413c-1.402 5.728-3.724 10.725-6.969 14.988-3.246 4.266-7.13 7.766-11.647 10.501-4.52 2.739-9.451 4.772-14.797 6.11-5.346 1.336-10.82 2-16.42 2-8.147 0-15.689-1.146-22.625-3.437-6.939-2.291-12.921-5.632-17.948-10.02-5.03-4.391-8.974-9.832-11.838-16.324-2.863-6.492-4.296-13.938-4.296-22.339 0-8.145 1.337-15.466 4.01-21.957s6.396-11.964 11.17-16.421c4.772-4.453 10.468-7.891 17.09-10.31 6.617-2.417 13.938-3.628 21.957-3.628 8.526 0 16.1 1.273 22.721 3.818 6.617 2.549 12.22 6.176 16.803 10.884 4.582 4.71 8.08 10.405 10.501 17.09 2.416 6.682 3.628 14.224 3.628 22.625v3.629m-32.27-20.05c-.893-4.708-3.216-8.465-6.97-11.266-3.756-2.799-7.989-4.2-12.696-4.2-5.093 0-9.547 1.307-13.365 3.914-3.818 2.61-6.238 6.462-7.256 11.552h40.29"/><path d="m324.08 1564.7h53.08c10.05 0 19.505 1.846 28.354 5.537 8.845 3.693 16.578 8.782 23.2 15.273 6.617 6.492 11.868 14.13 15.752 22.912 3.882 8.783 5.823 18.205 5.823 28.26 0 10.186-1.941 19.637-5.823 28.354-3.884 8.721-9.135 16.324-15.752 22.816-6.619 6.492-14.385 11.584-23.293 15.274-8.911 3.693-18.33 5.537-28.26 5.537h-53.08v-143.96m37.423 112.27h8.4c5.6 0 10.913-.794 15.943-2.387 5.03-1.59 9.418-4.01 13.174-7.256 3.753-3.246 6.745-7.413 8.974-12.506 2.226-5.09 3.342-11.137 3.342-18.14 0-6.491-1.021-12.219-3.056-17.18-2.037-4.965-4.868-9.164-8.496-12.602-3.628-3.437-7.956-6.04-12.983-7.828-5.03-1.781-10.534-2.673-16.516-2.673h-8.782v80.58"/><path d="m564.29 1665.52h-73.13c0 7.13 1.813 12.538 5.441 16.229 3.628 3.693 9.07 5.537 16.324 5.537 3.69 0 6.903-.669 9.643-2.01 2.735-1.336 5.06-3.656 6.969-6.969h33.413c-1.402 5.729-3.724 10.725-6.969 14.988-3.246 4.266-7.13 7.766-11.647 10.502-4.52 2.738-9.451 4.772-14.797 6.109-5.346 1.336-10.82 2-16.42 2-8.147 0-15.689-1.145-22.625-3.436-6.939-2.291-12.921-5.633-17.948-10.02-5.03-4.392-8.974-9.833-11.838-16.325-2.863-6.491-4.296-13.938-4.296-22.338 0-8.145 1.337-15.466 4.01-21.957 2.673-6.492 6.396-11.964 11.17-16.421 4.772-4.454 10.468-7.891 17.09-10.31 6.617-2.417 13.938-3.629 21.957-3.629 8.526 0 16.1 1.274 22.721 3.819 6.617 2.548 12.22 6.175 16.803 10.884 4.582 4.71 8.08 10.405 10.501 17.09 2.416 6.682 3.628 14.225 3.628 22.625v3.63m-32.27-20.05c-.893-4.707-3.216-8.464-6.97-11.266-3.756-2.798-7.989-4.199-12.696-4.199-5.093 0-9.547 1.307-13.365 3.914-3.818 2.609-6.238 6.461-7.256 11.551h40.29"/><path d="m648.22 1642.6c-2.548-1.909-5.346-3.532-8.401-4.868-3.055-1.337-6.237-2.01-9.546-2.01-3.312 0-6.43.606-9.356 1.814-2.929 1.211-5.474 2.896-7.637 5.06-2.166 2.166-3.852 4.679-5.06 7.542-1.212 2.863-1.814 6.01-1.814 9.451 0 7.13 2.259 12.92 6.778 17.375 4.517 4.457 10.406 6.682 17.661 6.682 3.055 0 6.14-.572 9.261-1.718 3.117-1.146 5.823-2.798 8.114-4.964v29.403c-3.818 1.909-7.799 3.308-11.934 4.2-4.138.889-8.306 1.336-12.506 1.336-7.255 0-14.1-1.273-20.525-3.818-6.429-2.545-12.09-6.109-16.992-10.691-4.902-4.582-8.753-9.991-11.552-16.229-2.801-6.235-4.2-13.05-4.2-20.43 0-7.891 1.399-15.11 4.2-21.671 2.799-6.555 6.683-12.154 11.646-16.802 4.965-4.646 10.788-8.272 17.471-10.884 6.683-2.606 13.843-3.914 21.479-3.914 4.072 0 8.05.479 11.934 1.433 3.881.954 7.542 2.387 10.979 4.296v29.403"/><path d="m700.72 1708.67h-34.749v-158.47h34.749v158.47"/><path d="m827.67 1708.67h-34.749v-10.884h-.382c-3.056 4.84-7.321 8.402-12.793 10.693-5.475 2.291-11.07 3.436-16.802 3.436-7.256 0-13.908-1.401-19.952-4.199-6.05-2.799-11.266-6.588-15.656-11.361-4.392-4.773-7.799-10.34-10.215-16.706-2.42-6.363-3.628-13.05-3.628-20.05 0-6.999 1.208-13.652 3.628-19.952 2.416-6.301 5.758-11.838 10.02-16.611 4.264-4.773 9.418-8.56 15.466-11.36 6.04-2.799 12.696-4.201 19.952-4.201 5.728 0 11.295 1.051 16.706 3.15 5.409 2.102 9.959 5.316 13.652 9.643v-9.547h34.749v97.95m-55.941-71.03c-3.565 0-6.716.605-9.451 1.814-2.739 1.211-5.061 2.801-6.97 4.772-1.909 1.976-3.374 4.296-4.391 6.97-1.021 2.672-1.528 5.537-1.528 8.592 0 6.238 1.939 11.455 5.824 15.656 3.881 4.2 9.385 6.301 16.516 6.301 7.127 0 12.631-2.101 16.515-6.301 3.882-4.201 5.824-9.418 5.824-15.656 0-3.055-.511-5.92-1.527-8.592-1.021-2.674-2.482-4.994-4.392-6.97-1.909-1.972-4.233-3.562-6.97-4.772-2.739-1.209-5.889-1.814-9.45-1.814"/><path d="m881.24 1626.76h.382c3.309-6.11 7.7-10.531 13.175-13.27 5.471-2.736 11.646-4.105 18.521-4.105h6.683v33.413c-2.42-1.399-4.807-2.292-7.16-2.673-2.357-.383-4.869-.573-7.542-.573-4.839 0-8.815.764-11.934 2.291-3.12 1.528-5.569 3.599-7.351 6.206-1.784 2.609-3.02 5.728-3.723 9.355-.701 3.627-1.051 7.541-1.051 11.742v39.522h-34.749v-97.95h34.749v16.04"/><path d="m1037.86 1708.67h-34.749v-10.884h-.382c-3.056 4.84-7.321 8.402-12.793 10.693-5.475 2.291-11.07 3.436-16.802 3.436-7.256 0-13.908-1.401-19.952-4.199-6.05-2.799-11.266-6.588-15.656-11.361-4.392-4.773-7.799-10.34-10.215-16.706-2.42-6.363-3.628-13.05-3.628-20.05 0-6.999 1.208-13.652 3.628-19.952 2.416-6.301 5.758-11.838 10.02-16.611 4.264-4.773 9.418-8.56 15.466-11.36 6.04-2.799 12.696-4.201 19.952-4.201 5.728 0 11.295 1.051 16.706 3.15 5.409 2.102 9.959 5.316 13.652 9.643v-9.547h34.749v97.95m-55.941-71.03c-3.565 0-6.716.605-9.451 1.814-2.739 1.211-5.061 2.801-6.97 4.772-1.909 1.976-3.374 4.296-4.391 6.97-1.021 2.672-1.528 5.537-1.528 8.592 0 6.238 1.939 11.455 5.824 15.656 3.881 4.2 9.385 6.301 16.516 6.301 7.127 0 12.631-2.101 16.515-6.301 3.882-4.201 5.824-9.418 5.824-15.656 0-3.055-.511-5.92-1.527-8.592-1.021-2.674-2.482-4.994-4.392-6.97-1.909-1.972-4.233-3.562-6.97-4.772-2.738-1.209-5.889-1.814-9.45-1.814"/><path d="m1096.4 1708.67h-34.749v-69.31h-11.266v-28.641h11.266v-29.402h34.749v29.402h19.666v28.641h-19.666v69.31"/><path d="m1141.95 1553.63c2.673 0 5.185.51 7.541 1.527 2.354 1.02 4.422 2.42 6.206 4.2 1.78 1.784 3.18 3.852 4.2 6.206 1.018 2.356 1.527 4.868 1.527 7.541 0 2.674-.51 5.188-1.527 7.542-1.021 2.356-2.42 4.425-4.2 6.205-1.784 1.784-3.852 3.184-6.206 4.2-2.356 1.021-4.868 1.527-7.541 1.527-2.674 0-5.188-.506-7.542-1.527-2.357-1.017-4.425-2.416-6.205-4.2-1.784-1.78-3.184-3.849-4.201-6.205-1.02-2.354-1.527-4.868-1.527-7.542 0-2.673.508-5.185 1.527-7.541 1.018-2.354 2.417-4.422 4.201-6.206 1.78-1.78 3.848-3.181 6.205-4.2 2.354-1.017 4.868-1.527 7.542-1.527m17.374 155.04h-34.749v-97.95h34.749v97.95"/><path d="m1230.31 1607.47c7.891 0 15.399 1.146 22.53 3.438 7.127 2.291 13.395 5.665 18.807 10.119 5.408 4.457 9.704 9.929 12.888 16.42 3.18 6.492 4.773 13.938 4.773 22.34 0 8.275-1.594 15.656-4.773 22.15-3.184 6.491-7.479 11.966-12.888 16.421-5.412 4.457-11.68 7.828-18.807 10.119-7.131 2.291-14.64 3.436-22.53 3.436-7.894 0-15.37-1.145-22.435-3.436s-13.335-5.662-18.807-10.119c-5.475-4.455-9.803-9.896-12.983-16.325-3.183-6.427-4.773-13.843-4.773-22.243 0-8.401 1.591-15.848 4.773-22.34 3.181-6.491 7.477-11.963 12.888-16.42 5.409-4.454 11.677-7.828 18.807-10.119 7.128-2.292 14.637-3.438 22.53-3.438m0 30.17c-3.565 0-6.716.605-9.451 1.814-2.738 1.211-5.06 2.801-6.969 4.772-1.909 1.976-3.374 4.296-4.392 6.97-1.021 2.672-1.527 5.537-1.527 8.592 0 6.238 1.939 11.455 5.823 15.656 3.882 4.2 9.386 6.301 16.516 6.301 7.127 0 12.632-2.101 16.516-6.301 3.881-4.201 5.823-9.418 5.823-15.656 0-3.055-.51-5.92-1.527-8.592-1.021-2.674-2.482-4.994-4.392-6.97-1.909-1.972-4.233-3.562-6.969-4.772-2.738-1.209-5.888-1.814-9.451-1.814"/><path d="m1336.15 1623.32h.382c4.072-5.98 8.592-10.119 13.557-12.41 4.964-2.291 10.883-3.438 17.757-3.438 6.616 0 12.249.988 16.897 2.96 4.645 1.976 8.431 4.743 11.36 8.306 2.927 3.564 5.089 7.861 6.491 12.888 1.399 5.03 2.101 10.534 2.101 16.516v60.53h-34.75v-47.733c0-2.291 0-4.898 0-7.828 0-3.055-.447-5.918-1.336-8.592-.893-2.673-2.42-4.898-4.583-6.682-2.166-1.781-5.411-2.674-9.737-2.674-3.564 0-6.491.605-8.782 1.814-2.292 1.211-4.139 2.863-5.537 4.964-1.402 2.101-2.387 4.52-2.96 7.255-.572 2.739-.859 5.633-.859 8.688v50.788h-34.749v-97.95h34.749v12.601"/></svg>