<?xml version="1.0" encoding="utf-8"?>
<!-- Generator: Adobe Illustrator 16.0.0, SVG Export Plug-In . SVG Version: 6.00 Build 0)  -->
<!DOCTYPE svg PUBLIC "-//W3C//DTD SVG 1.1//EN" "http://www.w3.org/Graphics/SVG/1.1/DTD/svg11.dtd">
<svg version="1.1" id="Layer_1" xmlns="http://www.w3.org/2000/svg" xmlns:xlink="http://www.w3.org/1999/xlink" x="0px" y="0px"
	 width="347.98px" height="233.9px" viewBox="0 0 347.98 233.9" enable-background="new 0 0 347.98 233.9" xml:space="preserve">
<g>
	<defs>
		<rect id="SVGID_1_" x="33.197" y="81.397" width="280.627" height="71.615"/>
	</defs>
	<clipPath id="SVGID_2_">
		<use xlink:href="#SVGID_1_"  overflow="visible"/>
	</clipPath>
	<path clip-path="url(#SVGID_2_)" fill="#191A1A" d="M302.459,152.418h10.079V142.34h-10.079V152.418z M305.027,135.018h4.941
		l3.855-53.028h-12.652L305.027,135.018z M290.823,97.314c0-7.815-6.72-15.918-16.813-15.918c-11.577,0-17.308,8.597-17.308,19.282
		c0,8.807,2.273,14.547,10.972,18.109l7.227,2.969c4.952,1.98,5.844,3.167,5.844,10.688c0,6.434-0.495,10.49-7.327,10.49
		c-5.15,0-7.131-3.563-7.131-7.225v-3.167h-10.079v3.761c0,9.496,7.412,16.709,17.21,16.709c13.057,0,17.405-8.794,17.405-20.667
		c0-10.291-1.68-15.932-10.573-19.297l-7.724-3.068c-5.248-2.078-5.745-3.959-5.745-9.401c0-4.65,1.288-9.104,6.834-9.104
		c5.148,0,7.13,3.858,7.13,8.511v2.275h10.078V97.314z M212.728,152.418h10.078v-21.069l5.442-10.188l11.476,31.257h10.686
		l-16.324-42.236l13.751-28.191h-10.092l-14.74,32.148h-0.198V81.99h-10.078V152.418z M166.013,152.418h10.079v-42.335h0.198
		l15.445,42.335h9.486V81.99h-10.079v42.436h-0.197L175.697,81.99h-9.684V152.418z M117.24,152.418h10.088l2.967-15.137h13.747
		l2.967,15.137h10.088L141.371,81.99h-8.407L117.24,152.418z M142.163,127.796h-10.089l4.945-25.525h0.197L142.163,127.796z
		 M75.49,152.418h10.079v-31.361h12.478v31.361h10.079V81.99H98.046v30.174H85.569V81.99H75.49V152.418z M44.871,152.418H54.95
		V91.475h11.674V81.99H33.197v9.485h11.674V152.418z"/>
</g>
</svg>
