<svg xmlns="http://www.w3.org/2000/svg" xmlns:xlink="http://www.w3.org/1999/xlink" viewBox="0 0 800 1102.251" enable-background="new 0 0 800 1102.251"><defs><path id="1" d="m0 .251h800v1102h-800z"/><clipPath id="0"><use xlink:href="#1"/></clipPath></defs><g clip-path="url(#0)"><g fill-rule="evenodd" stroke="#000" stroke-width="5" stroke-miterlimit="10"><g fill="#ced7dd"><path d="m429.34 1193.19h45.28 45.38v-15.09h90.77 30.2v-15.13l15.09-15.09h-15.09v-15.13h-15.15v-15.09-15.13h-15.05v-15.09h-15.18v-15.14-15.13-15.08h-15.13-15.09v-15.18h-15.13 15.13-90.75-30.17v90.75h-15.11-15.16-15.04v45.31 30.22h15.04 15.16z"/><path d="m731.69 1011.82h-75.63-45.29-15.18v15.09 15.18 15.08 15.13 15.14h15.18v15.09h15.05v15.13 15.09h15.15v15.13h15.09 15.11 15.15 120.93v-15.13-15.09-30.22-75.62h-75.56z"/><path d="m807.25 1011.82h15.11 75.66 60.4v-45.35-45.36-75.52h-15.14-45.26l15.04 15.12h-15.04-45.46 15.11v-15.12h-15.11v15.12h-15.05v30.18h-15.15v45.4h-15.11-45.35v15.13 15.05h-30.21v30.22 15.13h75.56z"/><path d="m867.67 845.59l30.35-15.05v-15.18h-75.66-15.11v-15.09h-15.2v-15.17-15.13h-15-15.15-15.12v15.13l-15.09-15.13h-15.12 15.12v15.13l15.09 15.17h-15.09v15.09h-15.12v15.18h15.12-15.12v15.05h-15.14v15.12-15.12h-15.11v15.12 15.1h-15.15v15.08h-15.11v15.09h15.11-15.11v15.13 15.18h-15.09-15.15l15.15 15.13h-15.15l-15.05 15.05h15.05-15.05l-15.18 15.17h15.18v15.05h15.05l-15.05 15.13h45.29 75.63v-15.13-30.22h30.21v-15.05-15.13h45.35 15.11v-45.4h15.15v-30.18h15.05v-15.12h15.11z"/><path d="m-99.81 618.82v60.49l-15.07 60.48v15.09 45.39 30.27h75.51 15.16l30.26 15.05v-60.49-60.44-30.22-15.13-30.22-15.09h-15.13v-15.18h-90.73z"/><path d="m-69.56 407.23h75.61 151.15 30.24v15.09-15.09-15.09h15.11v-15.13h15.09v-15.13l15.18-15.09h-15.18 15.18v-15.09h-15.18v-15.17h15.18-15.18-15.09v-15.05h-15.11-15.15-15.09v15.05h-15.11-15.11l-15.11 15.17h-15.14v15.09h-15.06-15.18-15.09v-15.09h-15.13l-15.08-15.17v-15.05l-15.14-15.13h-15.13v-15.09h-15.13-15.16-15.09v15.09 15.13 15.05 45.35l-15.1 15.13v15.13 15.09z"/><path d="m686.32 241v15.09h15.11v15.17-15.17h-15.11-15.15v15.17h15.15l-15.15 15.09v15.13 15.05 15.17 15.09h-15.11v15.09 30.26h15.11 15.15 60.46v15.09 15.09h15.12v15.13h15.15-15.15 15.15v15.14h15 15.2v-15.14l15.11 15.14v-15.14l15.15-15.13h15.05v-15.09h15.11 15.13v-15.09h15.22l15.04-15.13v-15.13h15.16v-15.09h15.06v-15.09h15.14v-15.17-15.05h15.11v-15.13-45.35h-105.86-181.35z"/><path d="m686.32 241h-45.35-120.97-30.2v151.14 15.09 15.09h15.09v-15.09h15.11 15.15v15.09h15.09v-15.09h15.13 15.09v15.09l15.13 15.13 15.18 15.14h15.05 15.15v-15.14h15.09 15.11v-15.13h15.15v-15.09h-15.15 15.15v-15.09h-15.15-15.11v-30.26-15.09h15.11v-15.09-15.17-15.05-15.13l15.15-15.09h-15.15v-15.17h15.15 15.11v15.17-15.17h-15.11v-15.09z"/><path d="m-54.46 271.26h15.09 15.16 15.13v15.09h15.13l15.14 15.13v15.05l15.08 15.17h15.13v15.09h15.09 15.18 15.06v-15.09h15.14l15.11-15.17h15.11 15.11v-15.05h15.09 15.15 15.11v15.05h15.09 15.18 15.09 15.1v15.17h15.14 15.07v-15.17h15.17v-15.05-15.13-15.09-15.17-15.09l-151.19-15.13h-15.11-60.42-15.18-15.09-60.48-30.29-45.28v15.13 15.09h15.09v15.17h15.1z"/></g><g fill="#fac4b6"><path d="m232.82 1102.53v15.13h-30.27v45.31 30.22h-15.11v30.26 45.35 30.22 15.09 15.18h15.11 30.27v-60.49h75.57 45.35v-15.13h15.13v-15.09-15.13h15.05v-15.13-15.13-15.09l15.22-15.13v-45.31h-90.75-15.17-30.21v-15.13h-30.19z"/><path d="m-145.18 1057.17v30.27l-15.05 30.22v60.44 45.35l-15.13 15.13v60.44 30.27h75.55 105.86 15.14-15.14v-15.18h-15.13-15.13v-15.09-15.17h15.13v-15.05h15.13l15.14-15.13h15.08 15.13v-15.09h-15.13 15.13l-15.13-15.13v-15.13h15.13v15.13-15.13h-15.13-15.08-15.14-15.13v15.13h-15.13-15.16v-15.13-15.13h15.16-15.16 15.16v-15.09h-15.16-15.09 15.09v-15.13h-15.09v-15.09h15.09v-15.13h-15.09v-15.09h-15.1-15.09 15.09v-15.13 15.13-15.13h-15.09v-15.09h-15.16 15.16v-15.14 15.14-15.14h15.09l-15.09-15.13h-45.35-15.18z"/><path d="m66.49 1253.67h30.24v15.13h90.71v-45.35-30.26h15.11v-30.22-45.31h30.27v-15.13-45.36h-30.27-15.11-75.57-15.14v15.13 15.14h-15.06 15.06-15.06v15.09-15.09 15.09h-15.18v-15.09 15.09 15.13 15.09l-15.09 15.13h15.09v15.09 15.13-15.13h15.18v15.13 15.09h15.06v15.13l-15.06-15.13v15.13l-15.18-15.13v15.13h15.18 15.06v15.13h-15.06v15.13-15.13 15.13h-15.18v15.09z"/><path d="m-84.65 1057.17l15.09 15.13h-15.09v15.14-15.14 15.14h-15.16 15.16v15.09h15.09v15.13-15.13 15.13h-15.09 15.09 15.1v15.09h15.09v15.13h-15.09v15.09h15.09v15.13h-15.09 15.09 15.16v15.09h-15.16 15.16-15.16v15.13 15.13h15.16 15.13v-15.13h15.13 15.14 15.08 15.13v15.13-15.13h-15.13v15.13l15.13 15.13h-15.13 15.13 15.09v15.09-15.09h15.18v-15.13 15.13-15.13h15.06v-15.13h-15.06-15.18v-15.13l15.18 15.13v-15.13l15.06 15.13v-15.13h-15.06v-15.09-15.13h-15.18v15.13-15.13-15.09h-15.09l15.09-15.13v-15.09-15.13-15.09 15.09h15.18v-15.09 15.09-15.09h15.06-15.06 15.06v-15.14-15.13h15.14v-15.08h-15.14-30.24v-30.27h-15.09v-15.13h-15.13-15.08v15.13h-15.14v15.09h-15.13-15.13v15.18h-15.16v-15.18 15.18h-15.09-15.1-15.09v15.08z"/><path d="m232.82 1102.53h30.19v15.13h30.21 15.17 90.75 15.04 15.16 15.11v-90.75h-15.11-15.16v-15.09-30.18h-15.04-15.22 15.22v-15.17h-15.22v-15.05h-15.05l-15.13 15.05v-15.05h-15.13v15.05l-15.13 15.17v15.05h-45.33v15.13 30.27l-15.14 15.08h-30.19v45.36z"/><path d="m-145.18 1057.17h15.18 45.35v-15.08h15.09 15.1 15.09v-15.18 15.18h15.16v-15.18h15.13 15.13v-15.09h15.14v-15.13h15.08 15.13v-15.05-30.22-75.61-30.22h-45.35l-30.26-15.05h-15.16-75.51l-15.12 45.27v60.48 15.13l-15.18 45.27v60.48z"/></g><path fill="#ffeac1" d="m444.45 1026.91h30.17 90.75-15.13 15.13v15.18h15.09 15.13v-15.18-15.09h15.18l15.05-15.13h-15.05v-15.05h-15.18l15.18-15.17h15.05-15.05l15.05-15.05h15.15l-15.15-15.13h15.15 15.09v-15.18-15.13h15.11-15.11v-15.09-45.3h-45.29v-15.05h-15.18v15.05h-15.13-15.09v15.12h-15.13-15.09v15.1l-15.15-15.1v15.1h-15.11v15.08h-15.09v15.09h-15.18v15.13h-30.17l-15.11 15.18h-15.16v15.13h-15.04-15.22v15.05h15.22v15.17h-15.22 15.22 15.04v30.18 15.09h15.16 15.11z"/><path fill="#6c2b87" d="m293.22 845.59h-30.21v-30.23h-15.1v-15.09h-15.09-60.53-30.2v15.09h-15.11v30.23h-30.25-45.33v30.22 75.61 30.22 15.05 15.13h15.09v30.27h30.24 15.14v15.08h75.57 15.11 30.27 30.19l15.14-15.08v-30.27-15.13h45.33v-15.05l15.13-15.17v-15.05h15.13v15.05l15.13-15.05v-15.13h-15.13v-15.18h-15.13-15.13v-15.13h-15.09v-15.09h-15.17v-15.08h-15.07v-15.1h-15.14v-15.12h15.14v15.12-15.12h15.07z"/><path fill="#a74b89" d="m293.22 845.59h-15.07v15.12-15.12h-15.14v15.12h15.14v15.1h15.07v15.08h15.17v15.09h15.09v15.13h15.13 15.13v15.18h15.13v15.13h15.05 15.22 15.04v-15.13h15.16l15.11-15.18h30.17v-15.13h15.18v-15.09h15.09v-15.08h15.11v-15.1l15.15 15.1v-15.1h15.09 15.13v-15.12h15.09 15.13v-15.05h-15.13v-30.27h15.13v-15.17-15.13-15.09h-15.13v-15.09h-30.22l-45.35-30.27h-60.44l-15.11 15.14h-15.16-15.04v15.13h-15.22v15.09 15.09 15.13h-15.05v15.17h-15.13-15.13-15.13v15.09 15.18h-15.09v15.05h-15.17v-15.05 15.05z"/><path fill="#fac4b6" d="m-4.667 679.31v15.13 30.22 60.44 60.49h56.07 45.33 30.25v-30.23h15.11v-15.09h30.2 60.53v-30.3h-45.38v-75.53h-30.24-15.11v-15.13h-45.36-15.06-30.27-45.35z"/><path fill="#e1899e" d="m913.06 664.17h-30.26-15.13-15.11v15.14h-15.05-15.15v15.13h-15.11v15.08h-15.2-15 15v15.14h-15 15v15.13h-15v15.09h-15.15-15.12v15.09h15.12 15.15 15v15.13 15.17h15.2v15.09h15.11 75.66v15.18h15.04v-15.18-15.09l15.16 15.09v-15.09h15.06v-15.17h15.14v-15.13-30.18-15.13h15.11v-15.14h-15.11v-15.08h15.11 30.2v-15.13-15.14h-90.67z"/><path fill="#a74b89" d="m580.46 739.79v15.09h15.13v15.09 15.13 15.17h-15.13v30.27h15.13 15.18v15.05h45.29v45.3h15.11v-15.08h15.15v-15.1-15.12h15.11v15.12-15.12h15.14v-15.05h15.12-15.12v-15.18h15.12v-15.09h15.09l-15.09-15.17v-15.13h-15.12 15.12l15.09 15.13v-15.13-15.09h15.12 15.15v-15.09h15v-15.13h-15 15v-15.14h-15 15-15v-15.08h-15.15v-15.13h-15.12v-15.14h-15.09v-15.08h-15.12-15.14v15.08-15.08h-15.11v15.08h-15.15l15.15 15.14h-15.15v15.13h-15.11v15.08h-15.09-15.15l-15.05 15.14h-15.18-15.13v15.13z"/><path fill="#e1899e" d="m293.22 845.59v-15.05 15.05h15.17v-15.05h15.09v-15.18-15.09h15.13 15.13 15.13v-15.17h15.05v-15.13-15.09-15.09h15.22v-15.13h15.04v-15.14-15.08h-15.04-30.27l-15.13-15.13h15.13-15.13v-15.14h-15.13v-15.08h-15.13-15.09-75.57-30.27-30.26-30.2v30.22 15.13h15.11 30.24v75.53h45.38v30.3h15.09v15.09h15.1v30.23h30.21z"/><g fill="#fac4b6"><path d="m671.17 679.31h15.15l-15.15-15.14h15.15v-15.08h15.11v15.08-15.08h15.14 15.12v15.08h15.09v15.14h15.12v15.13h15.15v15.08h15-15 15 15.2v-15.08h15.11v-15.13h15.15 15.05v-15.14h15.11 15.13 30.26v-15.08-15.09l-15.04-30.31v-15.05h-15.22v15.05h-15.13v-15.05-30.26h-60.42-15.2-15-15.15v15.13h-15.12-15.09l-45.37 30.18-15.15 15.13v15.18 15.09 15.08h-15.11v15.14h15.11z"/><path d="m142.09 513.07v15.09 15.13 15.09 15.13 15.13 15.05 15.13 15.18 15.09h30.2 30.26 30.27 75.57 15.09 15.13 15.13v-15.09-15.18-15.13-30.18-15.13-15.09-15.13h-45.35-15.17-45.31-15.09l-15.18-15.09h-15.09-15.11-15.15-30.2z"/><path d="m353.74 528.16v15.13 15.09 15.13 30.18 15.13 15.18 15.09h-15.13v15.08h15.13v15.14h15.13-15.13l15.13 15.13h30.27 15.04v15.08-15.08h15.16v-15.13h15.11v-15.14h15.09v15.14-15.14h15.08 15.18v-15.08h15.09-15.09 15.09v-15.09h15.11v-15.18h15.15-15.15v-15.13h15.15 15.09v-15.05l15.13 15.05v-15.05l15.09-15.13v-15.13h15.13v-15.09h15.18 15.05v-15.13h-15.05v-15.09h-45.4-15.13-30.24-15.11-30.27-75.48-30.27-15.13v15.09z"/></g><g fill="#e1899e"><path d="m-4.667 679.31h56.07 30.27 15.06 45.36v-30.22-15.09-15.18-15.13-15.05-15.13-15.13-15.09-15.13-15.09h-15.11-15.11-30.2-30.27-15.13-15.08-105.84v45.31 45.31l-15.16 15.13h90.73v15.18h4.413v15.09 30.22z"/><path d="m142.09 513.07h30.2 15.15v-45.35-15.13-15.14-15.13-15.09h-30.24-151.15-75.61v30.22 15.14l-15.09 60.48h105.84 15.08 15.13 30.27 30.2 15.11 15.11z"/></g><g fill="#ffeac1"><path d="m565.37 513.07h45.4v15.09h15.05v15.13l15.15 15.09 30.2 30.26v15.05h15.15l45.37-30.18h15.09 15.12v-15.13-15.09-30.22-15.09-30.26l30.15-15.13h-15v-15.14h-15.15 15.15-15.15v-15.13h-15.12v-15.09-15.09h-60.46-15.15 15.15v15.09h-15.15 15.15v15.09h-15.15v15.13h-15.11-15.09v15.14h-15.15-15.05l-15.18-15.14-15.13-15.13v15.13l-15.09 60.53v15.09z"/><path d="m565.37 513.07v-15.09l15.09-60.53v-15.13-15.09h-15.09-15.13v15.09h-15.09v-15.09h-15.15-15.11v15.09h-15.09-15.18-15.08v-15.09h-15.09-15.11l-15.16-15.09h-15.04v-15.13h-15.22-15.05l-15.13-15.13v15.13 60.44 60.53 15.09h15.13 30.27 75.48 30.27 15.11 30.24 15.13z"/></g><path fill="#fac4b6" d="m353.74 513.07v-15.09-60.53-60.44-15.13l-15.13-15.09-15.13-15.09h-15.09-15.17-15.07-15.14v-15.17h-15.1-15.09-15.18v15.17h15.18v15.09h-15.18 15.18l-15.18 15.09v15.13h-15.09v15.13h-15.11v15.09 15.09 15.13 15.14 15.13 45.35h15.11 15.09l15.18 15.09h15.09 45.31 15.17 45.35v-15.09z"/><path fill="#ffeac1" d="m973.53 286.35v15.13h-15.11v15.05 15.17h-15.14v15.09h-15.06v15.09h-15.16v15.13l-15.04 15.13h-15.22v15.09h-15.13-15.11v15.09h-15.05l-15.15 15.13v15.14l-15.11-15.14v15.14h-15.2l-30.15 15.13v30.26 15.09 30.22 15.09h15.15 15 15.2 60.42v-15.09h15.13 15.22l45.26-45.31h15.14v-15.17h15.11v-15.09h15.11l-15.11-15.13h15.11-15.11 15.11v-15.14h15.09v-15.13-15.09-15.09l-15.09-75.61-15.11-30.18z"/><path fill="#6c2b87" d="m308.39 241v15.09 15.17 15.09 15.13 15.05h-15.17v15.17h15.17 15.09l15.13 15.09 15.13 15.09 15.13 15.13h15.05 15.22v15.13h15.04l15.16 15.09h15.11 15.09v15.09h15.08 15.18v-15.09-15.09-151.14h-15.18-30.17-136.06z"/><g fill="#ced7dd"><path d="m686.32 241h181.35v-15.13-75.54l-15.11-15.17v-15.13h-15.05v-15.05h-15.15-15.11l-15.2-15.17h-45.27-15.09 15.09-15.09v15.17-15.17h-15.12-15.14v15.17h15.14-15.14v15.05 15.13h-15.11 15.11-15.11v15.17 15.05h-15.15l15.15 15.18h-15.15 15.15v30.18 15.13 15.13z"/><path d="m323.48 59.59l-15.09 15.17v45.27 15.13 15.17 15.05h15.09v15.18h-15.09 15.09-15.09v15.13 15.05 30.26h136.06 30.17v-15.13-15.13-15.05-15.13-15.18-45.35-15.05h-15.08-15.09v-15.17h-15.11v-15.05-15.17 15.17-15.17h-15.16-15.04-15.22-15.05-15.13v-15.1h-15.13v15.1h-15.13z"/><path d="m157.2 225.87l151.19 15.13v-30.26-15.05-15.13h15.09-15.09 15.09v-15.18h-15.09v-15.05-15.17-15.13-45.27l15.09-15.17h-15.09-30.24-15.14v-15.1h-15.1-30.27v15.1h-15.09-15.11v15.17h-15.15l-15.09 15.05v30.22 45.35h15.09-15.09v15.18 30.18 15.13h-15.11 15.11z"/><path d="m172.29 74.76h15.15v-15.17h15.11 15.09v-15.1h30.27 15.1v15.1h15.14v-15.1h15.07v-15.09h-15.07 15.07-15.07v-15.13-15.13h-15.14v-15.09-15.175h-15.1l-15.09 15.175h-15.18-30.2-15.15v-15.175h-15.09-15.11v15.175h-15.11v15.09h15.11-15.11v15.13h-15.11 15.11l-15.11 15.13v15.09h15.11 15.11v15.1h15.11l15.09 15.17z"/><path d="m565.37 89.81h15.09 15.13 15.18l15.05 15.17h15.15v-15.17h15.09 15.11v-15.05h15.15 15.11v-15.17-15.1h15.14v-15.09-30.26-15.09-15.175l-15.14 15.175v-15.175h-15.11-15.15-15.11v15.175h-15.09v-15.175h-15.15-15.05v-15.09h-15.18-15.13-30.22v45.35h-15.09 15.09-15.09v30.26 15.09 15.1l15.09 15.17v15.05h15.13z"/><path d="m111.87-106.61h-45.38-15.09v15.09l-15.13-15.09h-15.08-15.14v15.09 15.13h-15.13l-15.13 15.05v15.13h15.13v15.09h-15.13v15.175l15.13 15.09v15.13h15.13v15.13l-15.13 15.09h-15.13v15.1h15.13v-15.1h15.13 15.14 15.08 15.13 15.09v-15.09h15.18 15.06 15.14l15.11-15.13h-15.11 15.11v-15.13h15.11-15.11v-15.09l-15.11-15.175h-15.14v-15.09h15.14v-15.13h-15.14l15.14-45.27z"/><path d="m-84.65-91.52v15.13 45.27 15.175l-15.16 30.22h-15.07v45.31h15.07v15.17h15.16 15.09 15.1 15.09v-15.17l15.16 15.17h15.13 15.13v-15.17h-15.13-15.13v-15.1h15.13l15.13-15.09v-15.13h-15.13v-15.13l-15.13-15.09v-15.175h15.13v-15.09h-15.13v-15.13l15.13-15.05h15.13v-15.13h-15.13-15.13v-15.09h-15.16-45.28v15.09z"/><path d="m323.48 59.59h15.13v-15.1h15.13v15.1h15.13 15.05 15.22 15.04v-15.1h15.16 15.11v-15.09h15.09v-15.13-15.13h15.08-15.08l15.08-15.09v-30.27l15.18-15.13h-15.18-15.08-15.09l-15.11-15.05h-15.16v-15.13 15.13l-15.04-15.13-60.53-15.09h-30.22v30.22 15.05h-15.17v15.13h-15.07-15.14v15.09 15.175 15.09h15.14v15.13 15.13h15.07-15.07 15.07v15.09h-15.07v15.1h30.24 15.09z"/></g><g fill="#ffeac1"><path d="m474.62 120.03v45.35 15.18 15.13 15.05 15.13 15.13h15.18 30.2 120.97 45.35v-15.13-15.13-30.18h-15.15-15.11 15.11-15.11v-15.18-15.05-15.17h-15.09-15.15v-15.13l-30.23-15.05v-15.17h-15.13-15.09v15.17h-15.13-15.09l-15.15 15.05h-15.11v15.13l-30.27-15.13z"/><path d="m595.59 89.81v15.17l30.23 15.05v15.13h15.15 15.09v15.17 15.05 15.18h15.11-15.11 15.11 15.15-15.15 15.15l-15.15-15.18h15.15v-15.05-15.17h15.11-15.11 15.11v-15.13-15.05h15.14-15.14v-15.17h15.14-15.14v-15.05-15.17 15.17h-15.11-15.15v15.05h-15.11-15.09v15.17h-15.15l-15.05-15.17h-15.18z"/><path d="m157.2 225.87h-15.11 15.11v-15.13-30.18-15.18h15.09-15.09v-45.35-30.22l15.09-15.05-15.09-15.17h-15.11v-15.1h-15.11-15.11v-15.09h-15.14-15.06-15.18v15.09h-15.09-15.13-15.08-15.14-15.13v15.1h15.13v15.17h-15.13-15.13v15.05h15.13v15.17 15.05 105.84h60.48 15.09 15.18 60.42 15.11z"/><path d="m701.43 59.59v15.17 15.05h15.14-15.14v15.17-15.17h15.14 15.12v15.17-15.17h15.09-15.09 15.09 45.27l15.2 15.17h15.11 15.15v15.05h15.05v-15.05-15.17h15.11v-15.05h-15.11v-15.17-30.18h15.11-15.11v-15.13h-15.05v-15.13h-15.15v-15.09h15.15-15.15v-15.175h-15.11 15.11-15.11-15.2-15-15.15-15.12l-15.09-15.09h-15.12l-15.14 15.09h15.14v15.175 15.09 30.26 15.09h-15.14v15.1z"/><path d="m474.62 120.03l30.27 15.13v-15.13h15.11l15.15-15.05h15.09 15.13v-15.17h-15.13v-15.05l-15.09-15.17v-15.1-15.09-30.26h15.09-15.09 15.09v-45.35h-15.09v-15.13h-15.15-15.11-15.09v15.13-15.13l-15.18 15.13v30.27l-15.08 15.09h15.08-15.08v15.13 15.13h-15.09v15.09h-15.11-15.16v15.1h15.16v15.17-15.17 15.17 15.05h15.11v15.17h15.09 15.08v15.05z"/></g></g><path fill-rule="evenodd" fill="#ffeac1" stroke="#000" stroke-width="5" stroke-miterlimit="10" d="m-205.62-378.72h120.97 45.28 15.16v-15.09-15.09-15.09-15.18h-15.16v-15.09-15.12h-15.09v-15.1h-30.19-120.97v15.1 15.12 30.27 45.27z" id="2"/><path fill-rule="evenodd" fill="#ffeac1" stroke="#000" stroke-width="5" stroke-miterlimit="10" d="m-220.74-378.72h15.12v-45.27-30.27-15.12-15.1-15.13-45.31-15.17h-45.33-45.36-30.2-15.15v15.17 30.18 15.13 15.13 30.22 15.09 15.18 15.09 30.18h120.92z" id="3"/><path fill-rule="evenodd" fill="#ced7dd" stroke="#000" stroke-width="5" stroke-miterlimit="10" d="m-991.75 2613.96v-15.14 15.14z" id="4"/><use xlink:href="#4"/><path fill-rule="evenodd" fill="#ced7dd" stroke="#000" stroke-width="5" stroke-miterlimit="10" d="m-749.85 2538.38h-15.09 15.09z" id="5"/><use xlink:href="#5"/><path fill-rule="evenodd" fill="#ced7dd" stroke="#000" stroke-width="5" stroke-miterlimit="10" d="m-840.52 2523.25h15.09-15.09z" id="6"/><use xlink:href="#6"/><use xlink:href="#2"/><use xlink:href="#3"/><g fill-rule="evenodd" stroke="#000" stroke-width="5" stroke-miterlimit="10"><g fill="none"><path d="m2560.85-423.99h-45.39-15.05-30.31-30.3-15-45.4-30.22-30.22-75.58-45.39-60.4-30.35-60.35-15.18-105.8-75.61-30.2-30.26-15.03-15.22v15.09h-30.13-30.31-45.35-30.31-15l-30.25-15.09h-45.41-15.11-90.64-15.22-30.16-45.35-30.24-15.13-30.22-30.27-15.09-30.28-30.16-15.17-15.09-15.1-15.17-15.06-15.12-15.17-15.09-30.26-105.71-30.35-45.31l-15.11-15.18h-75.56-60.52-30.2-45.38-15.13-15.09-60.48-120.97-15.05-15.13-90.73-45.37-15.09-60.46-30.22-30.2-15.18-15.09l-15.13-15.09h-15.08-45.4-15.16v15.09h15.16v15.18 15.09 15.09 15.09h-15.16-45.28-120.97-15.12-120.92-15.11-45.35-60.46-75.6-15.15-30.18-15.13v15.17h-15.15v-15.17h-15.11v15.17h-15.09v15.09l15.09 15.09v15.13h-15.09-15.16-15.04v15.13h15.04v15.09h15.16v15.13h-15.16-15.04-15.18-15.05v15.14h15.05 15.18v15.13h15.04v15.09h-15.04l-15.18 15.13v15.09l-15.05 15.13v15.09h-15.19l15.19 15.13h15.05v15.13h15.18l-15.18 15.05h-15.05v-15.05h-15.19-15.11v15.05h15.11v15.17h15.19v15.09h-15.19-15.11l-15.13 15.13h-15.09-15.13-15.14v15.05h-15.08v15.13h15.08v15.09h15.14v-15.09h15.13v15.09 15.175h-15.13-15.14-15.08v15.09h15.08v15.13 15.13h-15.08v-15.13l-15.14-15.13v15.13h-15.09v15.13 15.09h15.09v15.1h-15.09v15.17h-15.13v15.05h-15.08v15.17h-15.14l-15.13 15.05h15.13v15.13h15.14l15.08 15.17v15.05 15.18h-15.08-15.14-15.13v15.13 15.05l-15.11 15.13h-15.11-15.13v15.13h166.28 60.46 45.42 30.2 75.59 30.22 45.35 60.44 15.16 30.21 45.36 15.15 45.31 45.32 60.52 15.13 30.23 30.19 15.16v-15.13h45.28 30.29 60.48 15.09 15.18 60.42 15.11l151.19 15.13h136.06 30.17 15.18 30.2 120.97 45.35 181.35 105.86 45.37 15.09 30.26 15.12 15.06 15.17 45.36 75.53 30.27 30.22 15.13 15.09 45.35 45.31 15.22 45.35 30.15v-15.13-60.49-15.05l15.14-15.17h15.11v-15.13h15.11v15.13h15.2 15.1 15.07v-15.13h15.18 15v-15.05h-15v-15.17h15v-15.05-15.17h15.14v-15.1h15.17 15.06v-15.09h15.14l15.15-15.13h15.09v-15.13h15.22 15.07 15.06 15.22 15.03 15.1 15.16 15.07 15.13v-15.09h15.08 15.16v-15.175h15.07 15.21l15.09-15.09v-15.13h15.14 15.11 15.08v-15.05h15.12 15.15v-15.13h15.11 15.09v15.13h15.18v-15.13h15.1v-15.09h15.06v-15.17-15.05-15.13h15.19 15v15.13h15.16v-15.13-15.13h15.19v-15.09h15.09 15.11v-15.13h15.15 15.05v15.13 15.09l15.15 15.13h15.14v-15.13h15.1 15.09v-15.09l15.14-15.13v-15.09h15.08 15.09v-15.13h15.18 15.13 15.09v-15.09h15.13v15.09h15.09 15.09v15.13h15.19 15.12v-15.13h15v-15.09l30.3-45.4h15.1v-15.09h15.21v-15.13h15.05 15.09 15.21 15.09v-15.13h-15.09v-15.09h15.09v-15.09h15.07v-15.17h-15.07v-15.09h15.07v-15.09l15.16-15.09z"/><path d="m1245.65 1344.34h-15.16v-15.05h-15.09v-15.18h15.09v-15.09-15.17h-15.09v-15.05-15.13-15.09h-15.13v-15.13h-15.15v-15.13-15.13l-15.09-15.09v-15.13h-15.07v-15.09-15.13-15.09h-15.17v-15.13-15.09-15.14-15.13l-15.09-15.08v-15.18-15.09-15.13l-15.1-45.27-15.17-75.61v-15.1l-15.06-75.61-15.12-75.58v-30.21l-15.17-15.14v-30.17-15.18l-15.09-60.44v-30.22l-15.09-60.44-15.17-45.4v-15.09-15.09l-15.09-75.61-15.11-30.18v-45.35h-105.86-181.35-45.35-120.97-30.2-15.18-30.17-136.06l-151.19-15.13h-15.11-60.42-15.18-15.09-60.48-30.29-45.28v15.13 15.09h15.09v15.17h15.1v15.09 15.13 15.05 45.35l-15.1 15.13v15.13 15.09 30.22 15.14l-15.09 60.48v45.31 45.31l-15.16 15.13v60.49l-15.07 60.48v15.09 45.39 30.27l-15.12 45.27v60.48 15.13l-15.18 45.27v60.48 30.27l-15.05 30.22v60.44 45.35l-15.13 15.13v60.44 30.27 30.18l-15.17 15.05v45.39l-15.09 60.44v30.3 30.23 30.18l15.09 15.13v45.31 60.48 60.45 60.48 15.13l15.17 45.31v60.49 45.39 15.05 45.35 15.05 15.13 15.13 30.22h15.13 15.05 15.18v15.14h15.12 15.07 15.16v15.08h15.09 15.1v-15.08-15.14-15.17-15.05-15.13h15.09v-15.13h-15.09v-15.05h15.09v-15.08-15.18h15.16v-15.09l15.13 15.09h15.13 15.14v15.18 15.08l15.08 15.05h-15.08v15.13 15.13 15.05 15.17h15.08v15.14h15.13v-15.14h15.09v15.14 15.08h15.18v15.13h15.06l15.14 15.09h15.11 15.11 15.11 15.09l15.15-15.09h-15.15v-15.13h-15.09v-15.08h15.09v15.08h15.15 15.11v-15.08h15.09v-15.14h15.18v-15.17l-15.18-15.05v-15.13-15.13h15.18v-15.05-15.08-15.18-15.09h-15.18-15.09v-15.05h-15.11v-15.17h-15.15v-15.13h-15.09v-15.09h-15.11v-15.17-15.09h15.11v-15.14-15.09h30.24 120.95 30.22 105.84 15.09 30.26 30.2 15.15 45.31 45.36 30.24 75.63 30.21 30.15 90.75 136.1 45.35 75.54 75.61v-15.08-15.23h-15.13v-15-15.13h-15.15v-15.17h-15.09v-15.05-15.13-15.13h15.09v-15.13-15.1-15.12-15.1-15.17l15.15-15.09v-15.05-15.17l-15.15-15.13v-15.05h-15.09v-15.13-15.13-15.14h-15.07v-15.04-15.13-15.1h15.07v-15.17h15.09v-15.13-15.09l15.15-15.13v-15.13-15.09-15.09-15.09h15.13 15.09v-15.21h15.16v-15.05h15.11v-15.13z"/></g><path fill="#fac4b6" d="m414.18 709.52v15.14h15.16l15.11-15.14h60.44l45.35 30.27h30.22v-15.13h15.13 15.18l15.05-15.14h15.15 15.09v-15.08h15.11v-15.13h-15.11v-15.14h15.11v-15.08-15.09-15.18l15.15-15.13h-15.15v-15.05l-30.2-30.26-15.15-15.09h-15.05-15.18v15.09h-15.13v15.13l-15.09 15.13v15.05l-15.13-15.05v15.05h-15.09-15.15v15.13h15.15-15.15v15.18h-15.11v15.09h-15.09 15.09-15.09v15.08h-15.18-15.08v15.14-15.14h-15.09v15.14h-15.11v15.13h-15.16v15.08z"/></g></g><g fill-rule="evenodd"><path d="m36 505.25h745v131h-745z"/><path fill="#a74b89" d="m19 478.25h751v147h-751z"/></g><g fill="#fff"><path d="m106.43 526.68c0 2.482-.379 4.62-1.137 6.412-.759 1.793-1.835 3.276-3.232 4.447-1.396 1.172-3.068 2.042-5.02 2.611-1.947.568-4.093.853-6.438.853-2.346 0-4.491-.285-6.438-.853-1.948-.569-3.619-1.439-5.02-2.611-1.396-1.171-2.474-2.654-3.231-4.447-.759-1.792-1.138-3.93-1.138-6.412v-22.39h9.618v20.787c0 1.207.095 2.336.284 3.387.19 1.052.518 1.983.982 2.792.466.811 1.094 1.448 1.888 1.913.793.465 1.81.698 3.051.698s2.258-.233 3.051-.698 1.423-1.103 1.887-1.913c.467-.81.793-1.74.983-2.792.188-1.051.284-2.18.284-3.387v-20.787h9.617v22.39z"/><path d="m113.18 513.44h8.479v4.964h.104c.931-1.965 2.266-3.387 4.01-4.266 1.74-.879 3.68-1.319 5.817-1.319 1.826 0 3.395.303 4.706.905 1.31.604 2.378 1.396 3.205 2.379.828.982 1.431 2.128 1.811 3.438.379 1.311.568 2.655.568 4.03v16.805h-9.308v-13.03c0-2.516-.396-4.273-1.189-5.274-.793-1-1.827-1.5-3.103-1.5-1.932 0-3.379.672-4.344 2.02-.966 1.344-1.447 3.482-1.447 6.412v11.375h-9.308v-26.938z"/><path d="m158.36 509.04h-9.308v-6.826h9.308v6.826m-9.307 4.396h9.308v26.94h-9.308v-26.94"/><path d="m163.1 513.44h5.48v-6.05l9.152-2.844v8.894h6.516v6.515h-6.516v9.928c0 1.654.25 2.888.75 3.697.5.811 1.491 1.215 2.974 1.215.482 0 .956-.042 1.423-.129.464-.085.938-.163 1.421-.232l.311 6.05c-.896.104-1.802.215-2.715.336-.915.121-1.957.181-3.129.181-2.068 0-3.774-.225-5.118-.672-1.345-.448-2.405-1.103-3.181-1.965s-1.311-1.914-1.603-3.155c-.293-1.241-.44-2.671-.44-4.292v-10.962h-5.325v-6.515"/><path d="m197.07 529.62c.276 1.862 1.094 3.189 2.457 3.982 1.361.793 3.179 1.189 5.455 1.189 1.274 0 2.61-.155 4.01-.465s2.801-.844 4.215-1.603v6.567c-1.518.586-3.103 1.017-4.758 1.292s-3.361.413-5.118.413c-2.241 0-4.311-.319-6.206-.957-1.896-.637-3.551-1.56-4.963-2.767-1.414-1.206-2.518-2.68-3.311-4.421-.793-1.74-1.189-3.73-1.189-5.972 0-2.206.362-4.188 1.087-5.946.723-1.758 1.723-3.232 2.999-4.421 1.274-1.189 2.792-2.103 4.55-2.741 1.759-.637 3.688-.957 5.792-.957 2.48 0 4.593.414 6.334 1.241 1.74.828 3.146 1.931 4.215 3.31 1.067 1.379 1.843 2.982 2.326 4.809.482 1.828.724 3.741.724 5.74v1.707h-18.616m10.239-5.274c0-1.551-.396-2.878-1.188-3.982-.794-1.103-2.121-1.655-3.982-1.655-1.689 0-2.947.552-3.774 1.655-.827 1.104-1.293 2.431-1.396 3.982h10.34"/><path d="m250.14 540.38h-8.584v-4.809h-.104c-.311.759-.759 1.465-1.345 2.12-.587.656-1.292 1.233-2.12 1.732-.826.5-1.731.888-2.715 1.164-.981.275-2.01.414-3.076.414-2 0-3.767-.388-5.301-1.164-1.533-.775-2.817-1.827-3.852-3.154s-1.818-2.87-2.353-4.628c-.535-1.758-.802-3.636-.802-5.636 0-1.654.25-3.292.75-4.912.499-1.62 1.24-3.077 2.223-4.37.983-1.292 2.188-2.335 3.62-3.128 1.431-.793 3.076-1.19 4.938-1.19 1.861 0 3.567.293 5.119.879 1.552.586 2.93 1.655 4.138 3.206h.102v-15.306h9.36v38.782zm-20.632-13.755c0 2.171.499 3.922 1.5 5.248.999 1.328 2.378 1.991 4.136 1.991.759 0 1.482-.172 2.173-.517.688-.344 1.292-.828 1.809-1.448.518-.621.931-1.345 1.241-2.172.312-.827.466-1.74.466-2.741 0-2.068-.517-3.757-1.552-5.067-1.034-1.31-2.413-1.965-4.137-1.965-.896 0-1.698.181-2.404.543-.706.362-1.302.845-1.784 1.448-.483.604-.845 1.311-1.085 2.12-.244.811-.363 1.664-.363 2.56"/><path d="m274.7 531.49c1.242.69 2.707 1.258 4.396 1.707 1.688.448 3.533.672 5.533.672.758 0 1.5-.042 2.223-.129.725-.085 1.362-.258 1.914-.517.551-.258.989-.621 1.318-1.086.327-.465.491-1.06.491-1.784 0-1.138-.422-1.999-1.268-2.585-.845-.586-1.896-1.094-3.154-1.526-1.259-.43-2.629-.861-4.11-1.292-1.482-.431-2.853-1.035-4.111-1.81-1.259-.776-2.309-1.818-3.154-3.128-.845-1.31-1.267-3.068-1.267-5.274 0-2.172.482-3.973 1.448-5.404.965-1.43 2.197-2.56 3.696-3.387 1.5-.827 3.182-1.413 5.04-1.758 1.861-.344 3.704-.517 5.531-.517 1.76 0 3.447.121 5.068.362 1.62.241 3.03.569 4.239.982l-.619 7.446c-1.242-.586-2.542-1.01-3.904-1.267s-2.732-.388-4.111-.388c-.62 0-1.302.026-2.042.078-.742.052-1.439.189-2.094.414-.656.225-1.208.561-1.655 1.01-.449.449-.673 1.069-.673 1.862 0 .965.423 1.707 1.268 2.224.844.517 1.896.965 3.154 1.344 1.258.38 2.628.775 4.11 1.189 1.482.414 2.853 1.017 4.111 1.81 1.258.793 2.31 1.845 3.154 3.154.845 1.311 1.267 3.051 1.267 5.223 0 2.345-.449 4.284-1.345 5.817-.896 1.534-2.086 2.749-3.567 3.646-1.483.897-3.18 1.525-5.093 1.888-1.915.361-3.871.542-5.869.542-1.689 0-3.499-.129-5.43-.388s-3.706-.646-5.326-1.164l.828-7.964"/><path d="m302.93 513.44h5.482v-6.05l9.152-2.844v8.894h6.516v6.515h-6.516v9.928c0 1.654.249 2.888.749 3.697.5.811 1.492 1.215 2.975 1.215.48 0 .956-.042 1.421-.129.466-.085.938-.163 1.422-.232l.312 6.05c-.897.104-1.803.215-2.715.336-.915.121-1.958.181-3.13.181-2.068 0-3.774-.225-5.118-.672-1.344-.448-2.404-1.103-3.181-1.965-.775-.862-1.311-1.914-1.603-3.155-.294-1.241-.439-2.671-.439-4.292v-10.962h-5.327v-6.515"/><path d="m346.8 540.38c-.034-.724-.078-1.438-.129-2.146-.052-.707-.078-1.404-.078-2.094h-.104c-1.068 1.689-2.275 2.921-3.619 3.697-1.345.776-2.982 1.164-4.912 1.164-1.345 0-2.621-.164-3.827-.491-1.207-.327-2.275-.844-3.206-1.551-.931-.706-1.672-1.594-2.224-2.663-.552-1.068-.827-2.327-.827-3.775 0-2.068.492-3.705 1.474-4.912.982-1.207 2.188-2.128 3.62-2.767 1.43-.637 2.947-1.051 4.551-1.241 1.603-.189 3.02-.284 4.265-.284.759 0 1.526.035 2.302.103.775.069 1.456.155 2.042.258 0-.931-.163-1.688-.49-2.275-.328-.585-.776-1.06-1.346-1.422-.568-.362-1.224-.612-1.964-.75-.742-.137-1.525-.207-2.354-.207-1.518 0-2.998.155-4.445.465-1.449.31-2.829.827-4.138 1.551l-.154-6.309c1.653-.689 3.36-1.18 5.118-1.474 1.758-.292 3.637-.44 5.636-.44 1.724 0 3.362.199 4.913.595 1.551.397 2.912 1.034 4.086 1.914 1.171.879 2.102 2.025 2.792 3.438.688 1.414 1.033 3.154 1.033 5.223v10.03c0 1.069.034 2.129.104 3.181.067 1.052.206 2.112.413 3.18h-8.532zm-10.239-8.532c0 .931.362 1.654 1.087 2.171.724.518 1.637.776 2.741.776.86 0 1.654-.181 2.378-.543s1.326-.844 1.81-1.448c.483-.603.861-1.284 1.137-2.042.277-.758.414-1.533.414-2.327-.586-.034-1.215-.069-1.887-.104-.673-.034-1.354-.051-2.043-.051-1.585 0-2.922.268-4.01.801-1.086.536-1.63 1.457-1.63 2.767"/><path d="m358.72 513.44h5.48v-6.05l9.152-2.844v8.894h6.516v6.515h-6.516v9.928c0 1.654.25 2.888.751 3.697.498.811 1.49 1.215 2.973 1.215.482 0 .957-.042 1.422-.129.466-.085.939-.163 1.422-.232l.311 6.05c-.897.104-1.801.215-2.715.336s-1.957.18-3.128.18c-2.068 0-3.775-.225-5.119-.672-1.345-.448-2.405-1.103-3.181-1.965-.774-.862-1.311-1.914-1.604-3.155s-.439-2.671-.439-4.292v-10.962h-5.325v-6.514"/><path d="m392.69 529.62c.274 1.862 1.094 3.189 2.456 3.982 1.361.793 3.18 1.189 5.454 1.189 1.276 0 2.612-.155 4.01-.465 1.397-.311 2.802-.844 4.214-1.603v6.567c-1.517.586-3.102 1.017-4.756 1.292-1.655.275-3.361.414-5.119.414-2.242 0-4.311-.319-6.206-.957-1.896-.637-3.55-1.56-4.964-2.767-1.413-1.206-2.516-2.68-3.309-4.421-.794-1.74-1.19-3.73-1.19-5.972 0-2.206.362-4.188 1.086-5.946.725-1.758 1.724-3.232 2.999-4.421 1.276-1.189 2.793-2.103 4.552-2.741 1.757-.637 3.687-.957 5.791-.957 2.481 0 4.594.414 6.334 1.241 1.74.828 3.146 1.931 4.214 3.31 1.069 1.379 1.845 2.982 2.328 4.809.481 1.828.724 3.741.724 5.74v1.707h-18.616m10.239-5.275c0-1.551-.396-2.878-1.19-3.982-.792-1.103-2.119-1.655-3.98-1.655-1.689 0-2.948.552-3.774 1.655-.829 1.104-1.293 2.431-1.397 3.982h10.341"/><path d="m416.39 532.93c1.103.483 2.412.914 3.93 1.292 1.517.38 3.119.569 4.809.569.965 0 1.836-.129 2.611-.388.776-.259 1.164-.854 1.164-1.784 0-.758-.328-1.335-.983-1.732-.654-.396-1.474-.731-2.455-1.01-.983-.276-2.043-.56-3.181-.854-1.137-.292-2.197-.724-3.18-1.292s-1.802-1.336-2.457-2.301c-.654-.964-.981-2.257-.981-3.878 0-1.551.344-2.878 1.034-3.982.688-1.103 1.584-2.01 2.688-2.714 1.103-.707 2.335-1.223 3.696-1.551 1.362-.328 2.716-.492 4.061-.492 1.619 0 3.223.112 4.809.336 1.585.225 3.137.629 4.654 1.215l-.725 6.463c-1-.586-2.164-1.034-3.49-1.344-1.327-.31-2.577-.465-3.749-.465-.517 0-1.025.026-1.525.077-.5.052-.957.147-1.37.285-.413.138-.75.328-1.01.569s-.388.552-.388.931c0 .69.344 1.208 1.034 1.551.689.345 1.542.646 2.561.905 1.016.259 2.128.535 3.334.828 1.207.293 2.318.732 3.335 1.318 1.018.586 1.871 1.396 2.561 2.43.689 1.035 1.034 2.396 1.034 4.085 0 1.793-.37 3.276-1.112 4.447-.742 1.172-1.705 2.094-2.896 2.767-1.189.672-2.533 1.137-4.03 1.396s-3.01.387-4.525.387c-2.104 0-3.912-.104-5.43-.31-1.517-.207-2.965-.534-4.344-.982l.518-6.774"/><path d="m74.12 589.52c1.825-1.585 3.678-3.197 5.558-4.834 1.879-1.637 3.576-3.24 5.094-4.81 1.517-1.568 2.757-3.077 3.723-4.524s1.448-2.774 1.448-3.981c0-1.62-.491-2.783-1.475-3.49-.981-.706-2.197-1.06-3.646-1.06-.793 0-1.62.07-2.481.207-.862.139-1.725.319-2.585.543-.863.225-1.672.492-2.431.802-.758.31-1.414.621-1.966.931l-.362-7.498c2.586-.931 4.749-1.517 6.491-1.758 1.74-.241 3.145-.362 4.214-.362 1.998 0 3.852.215 5.559.646 1.706.431 3.171 1.085 4.396 1.965 1.223.879 2.181 1.983 2.87 3.309.688 1.328 1.033 2.888 1.033 4.68 0 1.758-.413 3.5-1.24 5.223-.828 1.724-1.828 3.335-3 4.834-1.172 1.5-2.378 2.862-3.619 4.085-1.242 1.224-2.293 2.197-3.154 2.922l-2.586 2.223h14.272v6.826h-26.11v-6.879"/><path d="m119.53 597.02c-3 0-5.413-.535-7.239-1.603-1.828-1.068-3.241-2.474-4.24-4.215-1-1.74-1.673-3.731-2.02-5.972-.345-2.24-.518-4.533-.518-6.877 0-2.344.173-4.636.518-6.877.344-2.241 1.016-4.231 2.02-5.972.999-1.741 2.412-3.146 4.24-4.215 1.826-1.068 4.239-1.603 7.239-1.603 2.999 0 5.411.535 7.238 1.603 1.827 1.069 3.241 2.474 4.241 4.215.999 1.741 1.672 3.731 2.02 5.972.344 2.241.518 4.534.518 6.877 0 2.344-.174 4.637-.518 6.877-.345 2.241-1.018 4.232-2.02 5.972-1 1.741-2.414 3.146-4.241 4.215-1.827 1.068-4.239 1.603-7.238 1.603m0-6.516c1.068 0 1.921-.362 2.56-1.086.638-.724 1.111-1.671 1.422-2.844.311-1.172.508-2.473.595-3.904.086-1.43.13-2.87.13-4.317 0-1.448-.044-2.887-.13-4.318-.087-1.43-.284-2.731-.595-3.904-.311-1.171-.784-2.12-1.422-2.844-.639-.724-1.491-1.086-2.56-1.086-1.104 0-1.965.362-2.586 1.086-.62.724-1.085 1.672-1.396 2.844-.311 1.173-.51 2.474-.596 3.904-.085 1.431-.129 2.87-.129 4.318 0 1.448.044 2.888.129 4.317.086 1.431.285 2.732.596 3.904.311 1.172.775 2.12 1.396 2.844.621.725 1.482 1.086 2.586 1.086"/><path d="m149.39 569.92l-6.825 4.861-4.292-6.516 12.255-7.963h8.48v36.09h-9.618v-26.475"/><path d="m178.09 569.92l-6.825 4.861-4.292-6.516 12.255-7.963h8.481v36.09h-9.619v-26.475"/><path d="m223.34 567.44h-8.895v-7.136h27.406v7.136h-8.894v28.958h-9.618v-28.958z"/><path d="m257.07 597.02c-2.241 0-4.311-.319-6.205-.956-1.897-.638-3.552-1.552-4.965-2.741-1.414-1.189-2.518-2.654-3.31-4.395s-1.188-3.731-1.188-5.973c0-2.24.396-4.231 1.188-5.972.792-1.74 1.896-3.214 3.31-4.421 1.413-1.207 3.067-2.128 4.965-2.767 1.895-.637 3.964-.957 6.205-.957 2.205 0 4.265.319 6.179.957 1.913.639 3.576 1.56 4.99 2.767 1.412 1.207 2.516 2.681 3.31 4.421.792 1.741 1.188 3.732 1.188 5.972 0 2.242-.396 4.232-1.188 5.973-.794 1.741-1.897 3.206-3.31 4.395-1.414 1.189-3.077 2.103-4.99 2.741-1.914.637-3.974.956-6.179.956m0-6.516c1.067 0 1.981-.207 2.741-.621.757-.414 1.387-.964 1.886-1.654.5-.689.861-1.491 1.086-2.405.224-.913.337-1.87.337-2.87 0-1-.113-1.956-.337-2.87-.225-.913-.586-1.724-1.086-2.43-.499-.706-1.129-1.267-1.886-1.68-.76-.414-1.674-.621-2.741-.621-1.069 0-1.983.207-2.741.621-.759.413-1.388.974-1.888 1.68-.499.707-.861 1.517-1.085 2.43-.226.914-.337 1.87-.337 2.87 0 1 .111 1.958.337 2.87.224.914.586 1.715 1.085 2.405.5.69 1.129 1.241 1.888 1.654.758.415 1.672.621 2.741.621"/><path d="m297.33 576.9c-.517-.172-1.033-.266-1.551-.284-.518-.017-1.052-.026-1.604-.026-2.171 0-3.844.742-5.01 2.224-1.173 1.482-1.759 3.551-1.759 6.205v11.376h-9.308v-26.94h8.48v4.964h.104c.792-1.723 1.81-3.085 3.051-4.084 1.24-1 2.879-1.5 4.912-1.5.551 0 1.094.035 1.629.104.534.069 1.042.138 1.525.207l-.464 7.754"/><path d="m301.78 569.46h8.481v4.964h.102c.931-1.965 2.268-3.387 4.01-4.266 1.741-.879 3.68-1.319 5.817-1.319 1.828 0 3.396.302 4.705.905 1.311.604 2.379 1.396 3.207 2.379.827.982 1.43 2.129 1.81 3.438.379 1.311.568 2.655.568 4.03v16.806h-9.308v-13.03c0-2.516-.396-4.274-1.188-5.274-.794-1-1.828-1.5-3.104-1.5-1.93 0-3.378.672-4.343 2.02s-1.448 3.482-1.448 6.412v11.376h-9.308v-26.94z"/><path d="m354.46 596.4c-.036-.724-.078-1.439-.13-2.146-.053-.706-.078-1.404-.078-2.094h-.104c-1.069 1.689-2.274 2.922-3.619 3.697-1.346.776-2.982 1.164-4.913 1.164-1.344 0-2.62-.164-3.825-.491-1.208-.328-2.276-.845-3.207-1.552-.931-.706-1.673-1.594-2.224-2.663-.551-1.068-.827-2.327-.827-3.774 0-2.068.491-3.705 1.474-4.912.983-1.207 2.188-2.128 3.62-2.767 1.43-.637 2.948-1.051 4.55-1.241 1.604-.189 3.02-.284 4.267-.284.758 0 1.525.035 2.301.104.776.069 1.457.155 2.042.258 0-.931-.163-1.689-.49-2.275-.328-.586-.775-1.06-1.344-1.422-.569-.362-1.225-.612-1.967-.75-.74-.138-1.524-.207-2.352-.207-1.518 0-2.999.155-4.447.465-1.447.31-2.827.827-4.137 1.551l-.155-6.309c1.654-.689 3.36-1.18 5.119-1.474 1.758-.292 3.637-.439 5.637-.439 1.723 0 3.361.199 4.911.595 1.552.396 2.914 1.034 4.086 1.913 1.171.879 2.102 2.025 2.792 3.439s1.035 3.154 1.035 5.222v10.03c0 1.069.033 2.129.103 3.18.068 1.052.206 2.112.414 3.18h-8.532m-10.239-8.532c0 .931.362 1.655 1.086 2.172s1.637.775 2.74.775c.861 0 1.654-.181 2.379-.543.724-.361 1.327-.844 1.811-1.448.481-.603.86-1.284 1.137-2.042.275-.758.413-1.534.413-2.327-.585-.034-1.215-.069-1.887-.104-.672-.034-1.354-.052-2.043-.052-1.586 0-2.921.268-4.01.801-1.086.537-1.629 1.459-1.629 2.768"/><path d="m398.04 596.4h-8.584v-4.809h-.104c-.31.759-.759 1.465-1.345 2.12-.586.655-1.293 1.233-2.119 1.732-.828.5-1.732.888-2.715 1.164-.982.276-2.01.414-3.076.414-2 0-3.767-.388-5.301-1.164-1.535-.775-2.818-1.826-3.853-3.154-1.034-1.327-1.819-2.87-2.353-4.628-.535-1.758-.802-3.637-.802-5.637 0-1.654.249-3.291.75-4.912.499-1.62 1.241-3.077 2.224-4.369.981-1.293 2.189-2.335 3.619-3.128 1.431-.793 3.077-1.189 4.938-1.189s3.568.293 5.119.879c1.551.587 2.93 1.655 4.137 3.206h.104v-15.306h9.359v38.781zm-20.633-13.754c0 2.171.5 3.921 1.5 5.248 1 1.327 2.379 1.991 4.137 1.991.758 0 1.481-.172 2.172-.517.69-.344 1.293-.827 1.811-1.448.517-.62.931-1.344 1.24-2.172.311-.827.466-1.74.466-2.741 0-2.068-.518-3.757-1.551-5.067-1.035-1.31-2.414-1.965-4.138-1.965-.896 0-1.698.181-2.404.542-.707.362-1.302.845-1.784 1.448-.483.604-.845 1.311-1.086 2.12-.241.812-.363 1.665-.363 2.561"/><path d="m419 597.02c-2.24 0-4.309-.319-6.204-.956-1.896-.638-3.552-1.552-4.965-2.741-1.413-1.189-2.517-2.654-3.309-4.395-.794-1.741-1.189-3.731-1.189-5.973 0-2.24.396-4.231 1.189-5.972.792-1.74 1.896-3.214 3.309-4.421 1.413-1.207 3.068-2.128 4.965-2.767 1.896-.637 3.964-.957 6.204-.957 2.207 0 4.267.319 6.181.957 1.912.639 3.576 1.56 4.989 2.767 1.413 1.207 2.517 2.681 3.31 4.421.792 1.741 1.189 3.732 1.189 5.972 0 2.242-.397 4.232-1.189 5.973-.793 1.741-1.896 3.206-3.31 4.395-1.413 1.189-3.077 2.103-4.989 2.741-1.914.637-3.974.956-6.181.956m0-6.516c1.068 0 1.982-.207 2.741-.621.758-.414 1.387-.964 1.888-1.654.499-.689.861-1.491 1.086-2.405.224-.913.336-1.87.336-2.87 0-1-.112-1.956-.336-2.87-.225-.913-.587-1.724-1.086-2.43-.501-.706-1.13-1.267-1.888-1.68-.759-.414-1.673-.621-2.741-.621-1.067 0-1.981.207-2.74.621-.758.413-1.388.974-1.887 1.68-.501.707-.862 1.517-1.086 2.43-.225.914-.337 1.87-.337 2.87 0 1 .112 1.958.337 2.87.224.914.585 1.715 1.086 2.405.499.69 1.129 1.241 1.887 1.654.759.415 1.673.621 2.74.621"/><path d="m456.8 578.35c0-2.896.388-5.499 1.163-7.808s1.921-4.266 3.438-5.869c1.517-1.603 3.404-2.835 5.662-3.697 2.257-.862 4.869-1.293 7.834-1.293 2.964 0 5.575.431 7.834 1.293 2.258.862 4.145 2.094 5.662 3.697 1.517 1.603 2.663 3.56 3.439 5.869.775 2.31 1.162 4.912 1.162 7.808 0 2.861-.387 5.447-1.162 7.756-.776 2.31-1.932 4.274-3.465 5.895-1.534 1.621-3.431 2.861-5.688 3.723s-4.853 1.292-7.782 1.292c-2.965 0-5.567-.431-7.808-1.292-2.242-.861-4.129-2.102-5.663-3.723-1.533-1.621-2.688-3.585-3.464-5.895-.774-2.309-1.162-4.895-1.162-7.756m9.928 0c0 1.482.155 2.921.465 4.317.312 1.396.793 2.629 1.449 3.697.653 1.069 1.499 1.922 2.533 2.56 1.034.638 2.274.956 3.723.956 1.447 0 2.689-.318 3.724-.956 1.034-.638 1.878-1.491 2.533-2.56.655-1.068 1.138-2.301 1.448-3.697s.466-2.835.466-4.317c0-1.552-.155-3.02-.466-4.421-.311-1.396-.793-2.619-1.448-3.671-.655-1.051-1.499-1.887-2.533-2.508-1.034-.62-2.276-.931-3.724-.931-1.448 0-2.688.311-3.723.931-1.034.621-1.88 1.457-2.533 2.508-.656 1.052-1.138 2.275-1.449 3.671-.31 1.396-.465 2.869-.465 4.421"/><path d="m527.59 596.4h-8.48v-4.964h-.104c-.931 1.965-2.268 3.387-4.01 4.266-1.741.879-3.68 1.318-5.816 1.318-1.828 0-3.396-.302-4.706-.905-1.311-.603-2.379-1.396-3.206-2.378s-1.431-2.12-1.81-3.413c-.38-1.293-.569-2.646-.569-4.06v-16.805h9.309v13.03c0 1.276.103 2.345.31 3.206.207.862.499 1.56.88 2.094.379.535.835.914 1.369 1.138s1.111.336 1.732.336c1.931 0 3.378-.673 4.344-2.02.965-1.345 1.447-3.482 1.447-6.412v-11.376h9.309v26.942"/><path d="m531.78 569.46h5.48v-6.05l9.153-2.844v8.894h6.516v6.516h-6.516v9.928c0 1.655.25 2.888.75 3.697.499.811 1.49 1.215 2.974 1.215.481 0 .956-.042 1.422-.129.465-.085.938-.163 1.422-.232l.31 6.05c-.896.104-1.801.215-2.715.336-.913.121-1.956.181-3.128.181-2.068 0-3.775-.225-5.119-.672-1.345-.448-2.404-1.103-3.18-1.965-.776-.862-1.311-1.913-1.604-3.154s-.439-2.671-.439-4.292v-10.962h-5.326v-6.517"/><path d="m558.36 557.62h9.358v15.306h.104c1.206-1.517 2.586-2.577 4.138-3.18 1.55-.603 3.257-.905 5.119-.905 1.861 0 3.507.406 4.938 1.215 1.431.811 2.637 1.862 3.62 3.154.981 1.293 1.723 2.75 2.224 4.37.498 1.621.75 3.241.75 4.86 0 2-.269 3.879-.803 5.637s-1.318 3.301-2.352 4.628c-1.034 1.328-2.32 2.379-3.854 3.154-1.533.776-3.301 1.164-5.3 1.164-1.068 0-2.094-.138-3.077-.414-.981-.275-1.887-.663-2.715-1.164-.827-.499-1.533-1.077-2.119-1.732-.587-.655-1.035-1.361-1.345-2.12h-.104v4.809h-8.583v-38.782m20.632 25.03c0-.896-.121-1.75-.362-2.56-.24-.809-.603-1.516-1.085-2.12-.483-.603-1.078-1.086-1.783-1.448-.708-.362-1.51-.542-2.405-.542-1.724 0-3.103.664-4.138 1.99-1.033 1.328-1.55 3.01-1.55 5.04 0 1 .146 1.914.438 2.741.293.828.698 1.552 1.216 2.172.517.621 1.12 1.104 1.81 1.448.689.345 1.431.517 2.224.517 1.759 0 3.137-.664 4.137-1.991.999-1.328 1.498-3.078 1.498-5.249"/><path d="m613.29 576.9c-.518-.172-1.035-.266-1.551-.284-.518-.017-1.053-.026-1.604-.026-2.172 0-3.844.742-5.02 2.224-1.173 1.482-1.758 3.551-1.758 6.205v11.376h-9.309v-26.94h8.48v4.964h.104c.792-1.723 1.811-3.085 3.051-4.084 1.241-1 2.878-1.5 4.913-1.5.551 0 1.094.035 1.628.104.535.069 1.043.138 1.526.207l-.464 7.754"/><path d="m625.92 585.64c.276 1.862 1.095 3.189 2.457 3.982 1.361.793 3.181 1.189 5.455 1.189 1.274 0 2.611-.155 4.01-.465 1.396-.31 2.801-.844 4.215-1.603v6.567c-1.517.586-3.103 1.017-4.758 1.292-1.653.276-3.36.414-5.119.414-2.24 0-4.309-.319-6.204-.956-1.896-.638-3.552-1.56-4.965-2.767-1.413-1.206-2.517-2.68-3.309-4.421-.794-1.74-1.19-3.731-1.19-5.972 0-2.206.362-4.188 1.087-5.946.724-1.758 1.723-3.232 2.999-4.421 1.274-1.189 2.792-2.102 4.551-2.741 1.758-.637 3.688-.957 5.791-.957 2.482 0 4.593.414 6.334 1.241 1.74.827 3.146 1.931 4.214 3.309 1.068 1.379 1.845 2.982 2.327 4.809.482 1.828.725 3.741.725 5.739v1.707h-18.617m10.239-5.274c0-1.551-.396-2.878-1.189-3.982-.794-1.103-2.12-1.654-3.981-1.654-1.69 0-2.947.552-3.775 1.654-.827 1.104-1.293 2.431-1.396 3.982h10.341"/><path d="m667.51 596.4c-.033-.724-.076-1.439-.129-2.146-.052-.706-.077-1.404-.077-2.094h-.104c-1.069 1.689-2.274 2.922-3.62 3.697-1.344.776-2.981 1.164-4.912 1.164-1.344 0-2.62-.164-3.826-.491-1.207-.328-2.275-.845-3.206-1.552-.931-.706-1.673-1.594-2.224-2.663-.552-1.068-.827-2.327-.827-3.774 0-2.068.491-3.705 1.474-4.912.983-1.207 2.188-2.128 3.62-2.767 1.43-.637 2.947-1.051 4.551-1.241 1.603-.189 3.02-.284 4.266-.284.758 0 1.525.035 2.301.104.776.069 1.456.155 2.042.258 0-.931-.164-1.689-.49-2.275-.328-.586-.775-1.06-1.346-1.422-.568-.362-1.224-.612-1.965-.75s-1.524-.207-2.353-.207c-1.517 0-2.999.155-4.447.465-1.447.31-2.826.827-4.136 1.551l-.155-6.309c1.654-.689 3.36-1.18 5.119-1.474 1.758-.292 3.637-.439 5.637-.439 1.723 0 3.36.199 4.911.595 1.552.396 2.913 1.034 4.086 1.913 1.171.879 2.102 2.025 2.792 3.439.688 1.414 1.034 3.154 1.034 5.222v10.03c0 1.069.034 2.129.104 3.18.068 1.052.207 2.112.414 3.18h-8.534m-10.238-8.532c0 .931.362 1.655 1.087 2.172.724.517 1.637.775 2.741.775.86 0 1.653-.181 2.378-.543.724-.361 1.327-.844 1.81-1.448.482-.603.861-1.284 1.138-2.042.275-.758.413-1.534.413-2.327-.586-.034-1.215-.069-1.887-.104-.672-.034-1.354-.052-2.043-.052-1.586 0-2.921.268-4.01.801-1.087.537-1.63 1.459-1.63 2.768"/><path d="m682.26 557.62h9.308v23.17h.104l7.756-11.324h10.188l-9.36 12.358 10.135 14.582h-11.272l-7.445-13.341h-.104v13.341h-9.308v-38.782z"/><path d="m714.51 588.95c1.103.483 2.413.914 3.93 1.293s3.12.568 4.809.568c.965 0 1.836-.129 2.611-.388.776-.258 1.164-.854 1.164-1.784 0-.758-.328-1.335-.982-1.732-.655-.396-1.475-.732-2.456-1.01-.983-.275-2.043-.56-3.181-.854-1.137-.292-2.197-.724-3.18-1.292-.982-.569-1.802-1.336-2.457-2.302-.654-.964-.981-2.257-.981-3.878 0-1.551.344-2.878 1.034-3.982.689-1.103 1.585-2.01 2.688-2.714 1.103-.706 2.335-1.223 3.697-1.551 1.361-.327 2.715-.491 4.06-.491 1.619 0 3.223.112 4.809.336 1.585.224 3.137.629 4.654 1.215l-.725 6.463c-1-.585-2.164-1.034-3.49-1.344-1.327-.311-2.577-.465-3.749-.465-.517 0-1.025.025-1.525.077s-.957.147-1.37.284c-.413.138-.75.328-1.01.569s-.388.551-.388.93c0 .69.345 1.208 1.034 1.552.689.345 1.542.646 2.561.904 1.016.259 2.128.535 3.334.828 1.207.293 2.318.733 3.336 1.318 1.017.587 1.87 1.396 2.56 2.43.689 1.035 1.034 2.397 1.034 4.085 0 1.792-.37 3.275-1.111 4.447-.742 1.172-1.706 2.094-2.896 2.766-1.19.672-2.534 1.137-4.03 1.396s-3.01.388-4.524.388c-2.104 0-3.912-.103-5.429-.31-1.518-.207-2.966-.534-4.345-.982l.517-6.772"/></g></svg>